<?xml version="1.0" encoding="UTF-8"?>
<svg xmlns="http://www.w3.org/2000/svg" xmlns:xlink="http://www.w3.org/1999/xlink" width="1440pt" height="809.999993pt" viewBox="0 0 1440 809.999993" version="1.2">
<defs>
<clipPath id="clip1">
  <path d="M 215 25.144531 L 1225 25.144531 L 1225 784.894531 L 215 784.894531 Z M 215 25.144531 "/>
</clipPath>
</defs>
<g id="surface1">
<g clip-path="url(#clip1)" clip-rule="nonzero">
<path style=" stroke:none;fill-rule:nonzero;fill:rgb(0%,23.919678%,32.548523%);fill-opacity:1;" d="M 424.84375 157.253906 L 424.84375 237.914062 L 297.667969 237.914062 L 297.667969 157.253906 Z M 385.179688 613.8125 L 256.648438 613.8125 L 256.648438 530.441406 L 385.179688 530.441406 Z M 1224.671875 518.496094 L 1224.671875 98.636719 C 1224.671875 90.449219 1221.40625 82.628906 1215.617188 76.839844 L 1171.953125 33.1875 C 1166.964844 28.199219 1160.128906 25.367188 1153.046875 25.367188 L 331.167969 25.367188 C 316.449219 25.367188 304.503906 37.3125 304.503906 52.027344 L 304.503906 96.421875 C 304.503906 107.382812 313.371094 116.246094 324.332031 116.246094 L 284.609375 116.246094 C 269.214844 116.246094 256.648438 128.808594 256.648438 144.199219 L 256.648438 250.96875 C 256.648438 266.421875 269.214844 278.921875 284.609375 278.921875 L 437.898438 278.921875 C 453.296875 278.921875 465.859375 266.421875 465.859375 250.96875 L 465.859375 144.199219 C 465.859375 128.808594 453.296875 116.246094 437.898438 116.246094 L 325.6875 116.246094 C 336.652344 116.246094 345.519531 107.382812 345.519531 96.421875 L 345.519531 78.996094 C 345.519531 72.039062 351.183594 66.375 358.144531 66.375 L 1139.621094 66.375 C 1144.421875 66.375 1149.042969 68.28125 1152.429688 71.667969 L 1178.296875 97.53125 C 1181.746094 100.976562 1183.652344 105.59375 1183.652344 110.398438 L 1183.652344 501.503906 C 1183.652344 505.875 1181.929688 510 1178.851562 513.078125 L 1148.796875 543.125 C 1145.714844 546.203125 1143.992188 550.332031 1143.992188 554.640625 L 1143.992188 729.503906 C 1143.992188 737.324219 1137.648438 743.667969 1129.828125 743.667969 L 359.683594 743.667969 C 351.863281 743.667969 345.519531 737.324219 345.519531 729.503906 L 345.519531 675.320312 C 345.519531 664.054688 336.40625 654.878906 325.132812 654.816406 L 393.558594 654.816406 C 411.539062 654.816406 426.199219 640.164062 426.199219 622.183594 L 426.199219 522.070312 C 426.199219 504.089844 411.539062 489.433594 393.558594 489.433594 L 248.273438 489.433594 C 230.289062 489.433594 215.632812 504.089844 215.632812 522.070312 L 215.632812 622.183594 C 215.632812 640.164062 230.289062 654.816406 248.273438 654.816406 L 324.886719 654.816406 C 313.617188 654.878906 304.503906 664.054688 304.503906 675.320312 L 304.503906 764.171875 C 304.503906 775.5 313.679688 784.671875 325.011719 784.671875 L 1164.5 784.671875 C 1175.832031 784.671875 1185.007812 775.5 1185.007812 764.171875 L 1185.007812 571.632812 C 1185.007812 567.324219 1186.734375 563.199219 1189.8125 560.121094 L 1219.867188 530.011719 C 1222.945312 526.996094 1224.671875 522.808594 1224.671875 518.496094 "/>
</g>
<path style=" stroke:none;fill-rule:nonzero;fill:rgb(0%,23.919678%,32.548523%);fill-opacity:1;" d="M 345.519531 299.425781 L 345.519531 468.933594 C 345.519531 480.261719 336.34375 489.433594 325.011719 489.433594 C 313.679688 489.433594 304.503906 480.261719 304.503906 468.933594 L 304.503906 299.425781 C 304.503906 288.09375 313.679688 278.921875 325.011719 278.921875 C 336.34375 278.921875 345.519531 288.09375 345.519531 299.425781 "/>
<path style=" stroke:none;fill-rule:nonzero;fill:rgb(0%,23.919678%,32.548523%);fill-opacity:1;" d="M 723.292969 276.210938 L 1058.878906 276.210938 L 1058.878906 235.144531 L 723.292969 235.144531 Z M 1096.140625 227.507812 L 1096.140625 283.90625 C 1096.140625 302.257812 1082.527344 317.21875 1065.839844 317.21875 L 716.273438 317.21875 C 699.582031 317.21875 685.972656 302.257812 685.972656 283.90625 L 685.972656 227.507812 C 685.972656 209.097656 699.582031 194.136719 716.273438 194.136719 L 1065.839844 194.136719 C 1082.527344 194.136719 1096.140625 209.097656 1096.140625 227.507812 "/>
<path style=" stroke:none;fill-rule:nonzero;fill:rgb(0%,23.919678%,32.548523%);fill-opacity:1;" d="M 891.054688 556.425781 C 891.054688 592.570312 859.523438 622 820.785156 622 C 798.796875 622 773.980469 591.277344 758.765625 566.277344 C 755.070312 560.242188 755.070312 552.671875 758.765625 546.574219 C 774.039062 521.574219 798.921875 490.789062 820.785156 490.789062 C 859.523438 490.789062 891.054688 520.222656 891.054688 556.425781 Z M 694.164062 546.511719 C 697.859375 552.609375 697.859375 560.183594 694.164062 566.214844 C 678.890625 591.214844 654.007812 622 632.144531 622 C 593.40625 622 561.875 592.570312 561.875 556.425781 C 561.875 520.222656 593.40625 490.789062 632.144531 490.789062 C 654.070312 490.789062 678.949219 521.574219 694.164062 546.511719 Z M 932.070312 556.425781 C 932.070312 497.625 882.1875 449.78125 820.785156 449.78125 C 778.535156 449.78125 744.847656 491.46875 726.496094 520.714844 C 708.082031 491.46875 674.394531 449.78125 632.144531 449.78125 C 570.742188 449.78125 520.855469 497.625 520.855469 556.425781 C 520.855469 615.226562 570.742188 663.007812 632.144531 663.007812 C 674.394531 663.007812 708.082031 621.324219 726.496094 592.136719 C 744.847656 621.324219 778.535156 663.007812 820.785156 663.007812 C 882.1875 663.007812 932.070312 615.226562 932.070312 556.425781 "/>
<path style=" stroke:none;fill-rule:nonzero;fill:rgb(0%,23.919678%,32.548523%);fill-opacity:1;" d="M 643.96875 576.929688 L 602.273438 576.929688 C 590.941406 576.929688 581.765625 567.753906 581.765625 556.425781 C 581.765625 545.097656 590.941406 535.921875 602.273438 535.921875 L 643.96875 535.921875 C 655.300781 535.921875 664.476562 545.097656 664.476562 556.425781 C 664.476562 567.753906 655.300781 576.929688 643.96875 576.929688 "/>
<path style=" stroke:none;fill-rule:nonzero;fill:rgb(0%,23.919678%,32.548523%);fill-opacity:1;" d="M 860.136719 535.921875 C 854.347656 535.921875 849.730469 531.242188 849.667969 525.515625 L 849.667969 525.457031 C 849.667969 519.730469 845.050781 515.050781 839.261719 515.050781 L 819.121094 515.050781 C 813.332031 515.050781 808.652344 519.730469 808.652344 525.515625 C 808.652344 531.242188 804.03125 535.921875 798.242188 535.921875 C 792.515625 535.921875 787.835938 540.539062 787.835938 546.328125 L 787.835938 566.523438 C 787.835938 572.25 792.515625 576.929688 798.242188 576.929688 C 804.03125 576.929688 808.714844 581.609375 808.714844 587.335938 C 808.714844 593.121094 813.332031 597.742188 819.121094 597.742188 L 839.261719 597.742188 C 845.050781 597.742188 849.730469 593.0625 849.730469 587.335938 C 849.730469 581.609375 854.347656 576.929688 860.136719 576.929688 C 865.867188 576.929688 870.546875 572.25 870.546875 566.523438 L 870.546875 546.328125 C 870.546875 540.539062 865.867188 535.921875 860.136719 535.921875 "/>
</g>
</svg>
