<?xml version="1.0" encoding="UTF-8"?>
<svg xmlns="http://www.w3.org/2000/svg" xmlns:xlink="http://www.w3.org/1999/xlink" width="1440pt" height="809.999993pt" viewBox="0 0 1440 809.999993" version="1.2">
<g id="surface1">
<path style=" stroke:none;fill-rule:nonzero;fill:rgb(96.078491%,62.348938%,23.919678%);fill-opacity:1;" d="M 512.585938 367.582031 C 512.585938 412.464844 552.597656 448.851562 602.160156 449.40625 C 608.09375 424.347656 611.433594 396.691406 611.433594 367.582031 C 611.433594 338.472656 608.09375 310.835938 602.144531 285.761719 C 552.597656 286.3125 512.585938 322.714844 512.585938 367.582031 "/>
<path style=" stroke:none;fill-rule:nonzero;fill:rgb(96.078491%,62.348938%,23.919678%);fill-opacity:1;" d="M 551.867188 572.644531 C 490.296875 572.644531 440.351562 480.839844 440.351562 367.582031 C 440.351562 254.339844 490.296875 162.535156 551.867188 162.535156 C 613.472656 162.535156 663.402344 254.339844 663.402344 367.582031 C 663.402344 480.839844 613.472656 572.644531 551.867188 572.644531 Z M 926.035156 250.511719 L 810.625 250.511719 L 571.675781 108.765625 C 571.675781 108.765625 572.007812 109.109375 572.167969 109.269531 C 561.566406 104.554688 550.585938 101.796875 539.210938 101.796875 C 460.726562 101.796875 397.074219 220.785156 397.074219 367.578125 C 397.074219 514.375 460.726562 633.359375 539.210938 633.359375 C 549.574219 633.359375 559.652344 631.179688 569.367188 627.253906 C 569.335938 627.269531 569.175781 627.460938 569.175781 627.460938 L 810.292969 484.664062 L 926.035156 484.664062 C 990.691406 484.664062 1043.105469 432.238281 1043.105469 367.578125 C 1043.105469 302.9375 990.691406 250.507812 926.035156 250.507812 "/>
<path style=" stroke:none;fill-rule:nonzero;fill:rgb(96.078491%,62.348938%,23.919678%);fill-opacity:1;" d="M 823.058594 520.722656 L 823.058594 670.496094 C 823.058594 706.816406 845.492188 708.558594 873.179688 708.558594 C 900.832031 708.558594 923.265625 706.816406 923.265625 670.496094 L 923.265625 520.519531 C 921.859375 520.566406 920.480469 520.722656 919.042969 520.722656 L 823.058594 520.722656 "/>
</g>
</svg>
