<?xml version="1.0" encoding="UTF-8"?>
<svg xmlns="http://www.w3.org/2000/svg" xmlns:xlink="http://www.w3.org/1999/xlink" width="1440pt" height="809.999993pt" viewBox="0 0 1440 809.999993" version="1.2">
<defs>
<clipPath id="clip1">
  <path d="M 389.410156 25.011719 L 1050.910156 25.011719 L 1050.910156 784.761719 L 389.410156 784.761719 Z M 389.410156 25.011719 "/>
</clipPath>
</defs>
<g id="surface1">
<g clip-path="url(#clip1)" clip-rule="nonzero">
<path style=" stroke:none;fill-rule:nonzero;fill:rgb(56.079102%,0%,0%);fill-opacity:1;" d="M 406.105469 25.011719 C 405.5625 25.011719 405.023438 25.039062 404.484375 25.09375 C 403.945312 25.144531 403.410156 25.226562 402.878906 25.332031 C 402.347656 25.4375 401.824219 25.566406 401.304688 25.726562 C 400.789062 25.882812 400.277344 26.0625 399.777344 26.269531 C 399.277344 26.476562 398.789062 26.710938 398.3125 26.964844 C 397.835938 27.21875 397.371094 27.496094 396.921875 27.796875 C 396.46875 28.097656 396.035156 28.421875 395.617188 28.761719 C 395.199219 29.105469 394.796875 29.46875 394.414062 29.851562 C 394.03125 30.234375 393.671875 30.632812 393.328125 31.054688 C 392.984375 31.472656 392.660156 31.90625 392.359375 32.355469 C 392.058594 32.804688 391.78125 33.269531 391.527344 33.746094 C 391.269531 34.222656 391.039062 34.710938 390.832031 35.210938 C 390.625 35.710938 390.445312 36.21875 390.285156 36.734375 C 390.128906 37.253906 389.996094 37.777344 389.890625 38.308594 C 389.785156 38.839844 389.707031 39.371094 389.65625 39.910156 C 389.601562 40.449219 389.574219 40.988281 389.574219 41.53125 L 389.574219 206.691406 C 389.574219 207.234375 389.601562 207.773438 389.65625 208.3125 C 389.707031 208.851562 389.789062 209.382812 389.894531 209.914062 C 390 210.445312 390.128906 210.96875 390.289062 211.488281 C 390.445312 212.003906 390.625 212.511719 390.832031 213.011719 C 391.042969 213.511719 391.273438 214 391.527344 214.480469 C 391.78125 214.957031 392.0625 215.417969 392.363281 215.867188 C 392.664062 216.320312 392.984375 216.753906 393.328125 217.171875 C 393.671875 217.589844 394.035156 217.988281 394.417969 218.371094 C 394.800781 218.753906 395.199219 219.117188 395.617188 219.460938 C 396.039062 219.804688 396.472656 220.125 396.921875 220.425781 C 397.371094 220.726562 397.835938 221.003906 398.3125 221.257812 C 398.789062 221.515625 399.277344 221.746094 399.78125 221.953125 C 400.28125 222.160156 400.789062 222.339844 401.304688 222.496094 C 401.824219 222.65625 402.347656 222.785156 402.878906 222.890625 C 403.410156 222.996094 403.945312 223.078125 404.484375 223.128906 C 405.023438 223.183594 405.5625 223.207031 406.105469 223.207031 L 521.808594 223.207031 L 521.808594 402.113281 C 521.511719 403.910156 521.511719 405.707031 521.808594 407.5 L 521.808594 685.664062 C 521.808594 686.207031 521.835938 686.746094 521.890625 687.285156 C 521.941406 687.824219 522.023438 688.355469 522.128906 688.886719 C 522.234375 689.417969 522.363281 689.941406 522.523438 690.460938 C 522.679688 690.976562 522.863281 691.488281 523.070312 691.984375 C 523.277344 692.484375 523.507812 692.972656 523.761719 693.453125 C 524.015625 693.929688 524.296875 694.390625 524.597656 694.839844 C 524.898438 695.292969 525.21875 695.726562 525.5625 696.144531 C 525.90625 696.5625 526.269531 696.960938 526.652344 697.34375 C 527.035156 697.726562 527.433594 698.089844 527.855469 698.433594 C 528.273438 698.777344 528.707031 699.097656 529.15625 699.398438 C 529.605469 699.699219 530.070312 699.976562 530.546875 700.230469 C 531.023438 700.488281 531.515625 700.71875 532.015625 700.925781 C 532.515625 701.132812 533.023438 701.3125 533.542969 701.46875 C 534.058594 701.628906 534.582031 701.757812 535.113281 701.863281 C 535.644531 701.96875 536.179688 702.050781 536.71875 702.101562 C 537.257812 702.15625 537.796875 702.183594 538.339844 702.183594 L 753.21875 702.183594 L 753.21875 768.246094 C 753.21875 768.789062 753.246094 769.328125 753.300781 769.867188 C 753.351562 770.402344 753.433594 770.9375 753.539062 771.46875 C 753.644531 772 753.777344 772.523438 753.933594 773.042969 C 754.089844 773.558594 754.273438 774.066406 754.480469 774.566406 C 754.6875 775.066406 754.917969 775.554688 755.171875 776.03125 C 755.429688 776.511719 755.707031 776.972656 756.007812 777.421875 C 756.308594 777.871094 756.628906 778.308594 756.972656 778.726562 C 757.316406 779.144531 757.679688 779.542969 758.0625 779.925781 C 758.445312 780.308594 758.847656 780.671875 759.265625 781.015625 C 759.683594 781.359375 760.117188 781.679688 760.566406 781.980469 C 761.015625 782.28125 761.480469 782.558594 761.957031 782.8125 C 762.4375 783.066406 762.925781 783.300781 763.425781 783.507812 C 763.925781 783.714844 764.433594 783.894531 764.953125 784.050781 C 765.46875 784.210938 765.996094 784.339844 766.523438 784.445312 C 767.054688 784.550781 767.589844 784.628906 768.128906 784.683594 C 768.667969 784.738281 769.207031 784.761719 769.75 784.761719 L 1034.21875 784.761719 C 1034.761719 784.761719 1035.300781 784.738281 1035.839844 784.683594 C 1036.378906 784.628906 1036.914062 784.550781 1037.445312 784.445312 C 1037.976562 784.339844 1038.5 784.207031 1039.015625 784.050781 C 1039.535156 783.894531 1040.042969 783.710938 1040.546875 783.503906 C 1041.046875 783.296875 1041.535156 783.066406 1042.011719 782.8125 C 1042.488281 782.558594 1042.953125 782.277344 1043.402344 781.980469 C 1043.851562 781.679688 1044.285156 781.355469 1044.707031 781.011719 C 1045.125 780.667969 1045.523438 780.308594 1045.90625 779.925781 C 1046.289062 779.542969 1046.652344 779.140625 1046.996094 778.722656 C 1047.339844 778.304688 1047.660156 777.871094 1047.964844 777.421875 C 1048.261719 776.972656 1048.542969 776.507812 1048.796875 776.03125 C 1049.050781 775.554688 1049.28125 775.066406 1049.492188 774.566406 C 1049.699219 774.066406 1049.878906 773.558594 1050.035156 773.039062 C 1050.195312 772.523438 1050.324219 772 1050.429688 771.46875 C 1050.535156 770.9375 1050.617188 770.402344 1050.667969 769.867188 C 1050.722656 769.328125 1050.75 768.789062 1050.75 768.246094 L 1050.75 603.082031 C 1050.75 602.542969 1050.722656 602.003906 1050.667969 601.464844 C 1050.617188 600.925781 1050.535156 600.390625 1050.429688 599.863281 C 1050.324219 599.332031 1050.191406 598.808594 1050.035156 598.289062 C 1049.878906 597.773438 1049.695312 597.261719 1049.488281 596.761719 C 1049.28125 596.261719 1049.050781 595.773438 1048.796875 595.296875 C 1048.539062 594.820312 1048.261719 594.355469 1047.960938 593.90625 C 1047.660156 593.457031 1047.339844 593.023438 1046.996094 592.605469 C 1046.652344 592.1875 1046.289062 591.789062 1045.90625 591.40625 C 1045.523438 591.023438 1045.121094 590.660156 1044.703125 590.316406 C 1044.285156 589.972656 1043.851562 589.652344 1043.402344 589.351562 C 1042.953125 589.050781 1042.488281 588.773438 1042.011719 588.519531 C 1041.53125 588.261719 1041.042969 588.03125 1040.542969 587.824219 C 1040.042969 587.617188 1039.535156 587.4375 1039.015625 587.277344 C 1038.5 587.121094 1037.972656 586.992188 1037.445312 586.886719 C 1036.914062 586.777344 1036.378906 586.699219 1035.839844 586.648438 C 1035.300781 586.59375 1034.761719 586.566406 1034.21875 586.566406 L 769.75 586.566406 C 769.207031 586.566406 768.667969 586.59375 768.128906 586.648438 C 767.589844 586.699219 767.054688 586.78125 766.523438 586.886719 C 765.992188 586.992188 765.46875 587.121094 764.949219 587.28125 C 764.433594 587.4375 763.925781 587.617188 763.425781 587.824219 C 762.921875 588.03125 762.433594 588.265625 761.957031 588.519531 C 761.480469 588.773438 761.015625 589.050781 760.566406 589.351562 C 760.117188 589.652344 759.683594 589.972656 759.261719 590.316406 C 758.84375 590.660156 758.445312 591.023438 758.0625 591.40625 C 757.679688 591.789062 757.316406 592.1875 756.972656 592.605469 C 756.628906 593.023438 756.304688 593.460938 756.003906 593.910156 C 755.703125 594.359375 755.425781 594.820312 755.171875 595.300781 C 754.917969 595.777344 754.6875 596.265625 754.476562 596.765625 C 754.269531 597.265625 754.089844 597.773438 753.933594 598.289062 C 753.773438 598.808594 753.644531 599.332031 753.539062 599.863281 C 753.433594 600.390625 753.351562 600.925781 753.300781 601.464844 C 753.246094 602.003906 753.21875 602.542969 753.21875 603.082031 L 753.21875 669.148438 L 554.867188 669.148438 L 554.867188 421.40625 L 753.21875 421.40625 L 753.21875 487.46875 C 753.21875 496.585938 760.609375 503.984375 769.75 503.984375 L 1034.21875 503.984375 C 1043.359375 503.984375 1050.75 496.585938 1050.75 487.46875 L 1050.75 322.308594 C 1050.75 313.191406 1043.359375 305.789062 1034.21875 305.789062 L 769.75 305.789062 C 760.609375 305.789062 753.21875 313.191406 753.21875 322.308594 L 753.21875 388.371094 L 554.867188 388.371094 L 554.867188 223.207031 L 670.574219 223.207031 C 671.113281 223.207031 671.65625 223.183594 672.195312 223.128906 C 672.734375 223.074219 673.265625 222.996094 673.796875 222.890625 C 674.328125 222.785156 674.855469 222.652344 675.371094 222.496094 C 675.890625 222.339844 676.398438 222.15625 676.898438 221.949219 C 677.398438 221.742188 677.886719 221.511719 678.367188 221.257812 C 678.84375 221.003906 679.308594 220.726562 679.757812 220.425781 C 680.207031 220.125 680.640625 219.800781 681.058594 219.457031 C 681.476562 219.117188 681.878906 218.753906 682.261719 218.371094 C 682.644531 217.988281 683.007812 217.585938 683.351562 217.167969 C 683.695312 216.75 684.015625 216.316406 684.316406 215.867188 C 684.617188 215.417969 684.894531 214.953125 685.152344 214.476562 C 685.40625 214 685.636719 213.511719 685.84375 213.011719 C 686.050781 212.511719 686.234375 212.003906 686.390625 211.488281 C 686.546875 210.96875 686.679688 210.445312 686.785156 209.914062 C 686.890625 209.382812 686.96875 208.847656 687.023438 208.3125 C 687.078125 207.773438 687.101562 207.234375 687.101562 206.691406 L 687.101562 41.53125 C 687.101562 40.988281 687.078125 40.449219 687.023438 39.910156 C 686.96875 39.371094 686.890625 38.835938 686.785156 38.308594 C 686.679688 37.777344 686.546875 37.253906 686.390625 36.734375 C 686.234375 36.21875 686.050781 35.707031 685.84375 35.207031 C 685.636719 34.710938 685.40625 34.21875 685.148438 33.742188 C 684.894531 33.265625 684.617188 32.804688 684.316406 32.351562 C 684.015625 31.902344 683.691406 31.46875 683.351562 31.050781 C 683.007812 30.632812 682.644531 30.234375 682.261719 29.851562 C 681.878906 29.46875 681.476562 29.105469 681.058594 28.761719 C 680.640625 28.417969 680.207031 28.097656 679.753906 27.796875 C 679.304688 27.496094 678.84375 27.21875 678.363281 26.964844 C 677.886719 26.707031 677.398438 26.476562 676.898438 26.269531 C 676.398438 26.0625 675.890625 25.882812 675.371094 25.722656 C 674.851562 25.566406 674.328125 25.4375 673.796875 25.332031 C 673.265625 25.226562 672.730469 25.144531 672.195312 25.09375 C 671.65625 25.039062 671.113281 25.011719 670.574219 25.011719 Z M 422.632812 58.046875 L 654.042969 58.046875 L 654.042969 190.175781 L 540.890625 190.175781 C 539.960938 190.019531 539.023438 189.945312 538.082031 189.949219 C 537.277344 189.96875 536.480469 190.042969 535.691406 190.175781 L 422.632812 190.175781 Z M 786.277344 619.601562 L 1017.691406 619.601562 L 1017.691406 751.730469 L 786.277344 751.730469 L 786.277344 688.441406 C 786.574219 686.644531 786.574219 684.847656 786.277344 683.050781 Z M 786.277344 619.601562 "/>
</g>
</g>
</svg>
