<?xml version="1.0" encoding="UTF-8"?>
<svg xmlns="http://www.w3.org/2000/svg" xmlns:xlink="http://www.w3.org/1999/xlink" width="1440pt" height="809.999993pt" viewBox="0 0 1440 809.999993" version="1.2">
<defs>
<clipPath id="clip1">
  <path d="M 328.648438 13.648438 L 1111.648438 13.648438 L 1111.648438 796.648438 L 328.648438 796.648438 Z M 328.648438 13.648438 "/>
</clipPath>
</defs>
<g id="surface1">
<g clip-path="url(#clip1)" clip-rule="nonzero">
<path style=" stroke:none;fill-rule:nonzero;fill:rgb(100%,51.759338%,0%);fill-opacity:1;" d="M 720.148438 13.648438 C 503.941406 13.648438 328.648438 188.941406 328.648438 405.148438 C 328.648438 621.351562 503.941406 796.648438 720.148438 796.648438 C 936.351562 796.648438 1111.648438 621.351562 1111.648438 405.148438 C 1111.648438 188.941406 936.351562 13.648438 720.148438 13.648438 Z M 720.148438 731.398438 C 540.261719 731.398438 393.898438 585.03125 393.898438 405.148438 C 393.898438 225.261719 540.261719 78.898438 720.148438 78.898438 C 900.03125 78.898438 1046.398438 225.261719 1046.398438 405.148438 C 1046.398438 585.03125 900.03125 731.398438 720.148438 731.398438 Z M 720.148438 731.398438 "/>
</g>
<path style=" stroke:none;fill-rule:nonzero;fill:rgb(100%,51.759338%,0%);fill-opacity:1;" d="M 818.023438 144.148438 L 557.023438 470.398438 L 687.523438 470.398438 L 622.273438 666.148438 L 883.273438 339.898438 L 752.773438 339.898438 Z M 818.023438 144.148438 "/>
</g>
</svg>
