<?xml version="1.0" encoding="UTF-8"?>
<svg xmlns="http://www.w3.org/2000/svg" xmlns:xlink="http://www.w3.org/1999/xlink" width="1440pt" height="809.999993pt" viewBox="0 0 1440 809.999993" version="1.2">
<defs>
<clipPath id="clip1">
  <path d="M 168.28125 349 L 1272.074219 349 L 1272.074219 787.925781 L 168.28125 787.925781 Z M 168.28125 349 "/>
</clipPath>
</defs>
<g id="surface1">
<g clip-path="url(#clip1)" clip-rule="nonzero">
<path style=" stroke:none;fill-rule:nonzero;fill:rgb(54.119873%,74.119568%,14.118958%);fill-opacity:1;" d="M 1234.898438 732.726562 C 1234.898438 742.890625 1227.023438 750.761719 1216.859375 750.761719 L 223.453125 750.761719 C 213.335938 750.761719 205.460938 742.890625 205.460938 732.726562 L 205.460938 549.207031 C 205.460938 539.046875 213.335938 531.171875 223.453125 531.171875 L 1216.859375 531.171875 C 1227.023438 531.171875 1234.898438 539.046875 1234.898438 549.207031 Z M 1216.859375 494.003906 L 1033.304688 494.003906 L 1033.304688 367.886719 C 1033.304688 357.769531 1025.382812 349.894531 1015.265625 349.894531 C 1005.144531 349.894531 997.226562 357.769531 997.226562 367.886719 L 997.226562 494.003906 L 223.453125 494.003906 C 193.054688 494.003906 168.28125 518.8125 168.28125 549.207031 L 168.28125 732.726562 C 168.28125 763.167969 193.054688 787.933594 223.453125 787.933594 L 1216.859375 787.933594 C 1247.304688 787.933594 1272.074219 763.167969 1272.074219 732.726562 L 1272.074219 549.207031 C 1272.074219 518.8125 1247.304688 494.003906 1216.859375 494.003906 "/>
</g>
<path style=" stroke:none;fill-rule:nonzero;fill:rgb(54.119873%,74.119568%,14.118958%);fill-opacity:1;" d="M 315.847656 604.371094 C 336.351562 604.371094 352.980469 620.996094 352.980469 641.539062 C 352.980469 662.039062 336.351562 678.710938 315.847656 678.710938 C 295.300781 678.710938 278.671875 662.039062 278.671875 641.539062 C 278.671875 620.996094 295.300781 604.371094 315.847656 604.371094 "/>
<path style=" stroke:none;fill-rule:nonzero;fill:rgb(54.119873%,74.119568%,14.118958%);fill-opacity:1;" d="M 462.269531 604.371094 C 482.773438 604.371094 499.402344 620.996094 499.402344 641.539062 C 499.402344 662.039062 482.773438 678.710938 462.269531 678.710938 C 441.722656 678.710938 425.09375 662.039062 425.09375 641.539062 C 425.09375 620.996094 441.722656 604.371094 462.269531 604.371094 "/>
<path style=" stroke:none;fill-rule:nonzero;fill:rgb(54.119873%,74.119568%,14.118958%);fill-opacity:1;" d="M 609.789062 604.371094 C 630.335938 604.371094 646.96875 620.996094 646.96875 641.539062 C 646.96875 662.039062 630.335938 678.710938 609.789062 678.710938 C 589.289062 678.710938 572.613281 662.039062 572.613281 641.539062 C 572.613281 620.996094 589.289062 604.371094 609.789062 604.371094 "/>
<path style=" stroke:none;fill-rule:nonzero;fill:rgb(54.119873%,74.119568%,14.118958%);fill-opacity:1;" d="M 949.972656 300.320312 C 943.199219 308.195312 944.34375 319.457031 952.171875 326.230469 C 958.949219 331.859375 969.070312 331.859375 975.84375 326.230469 C 998.371094 305.953125 1032.160156 305.953125 1054.6875 326.230469 C 1058.074219 329.617188 1062.605469 331.859375 1067.09375 331.859375 C 1071.582031 331.859375 1077.210938 329.617188 1080.601562 326.230469 C 1087.332031 319.457031 1087.332031 307.097656 1080.601562 300.320312 C 1043.421875 264.296875 985.964844 264.296875 949.972656 300.320312 "/>
<path style=" stroke:none;fill-rule:nonzero;fill:rgb(54.119873%,74.119568%,14.118958%);fill-opacity:1;" d="M 1144.792969 254.175781 C 1149.28125 254.175781 1154.910156 251.890625 1158.34375 248.546875 C 1165.074219 241.773438 1165.074219 229.367188 1158.34375 222.636719 C 1079.5 143.8125 951.074219 143.8125 872.230469 222.636719 C 865.5 229.367188 865.5 241.773438 872.230469 248.546875 C 878.964844 255.277344 891.371094 255.277344 898.144531 248.546875 C 962.335938 184.324219 1067.09375 184.324219 1132.382812 248.546875 C 1134.671875 251.890625 1139.160156 254.175781 1144.792969 254.175781 "/>
<path style=" stroke:none;fill-rule:nonzero;fill:rgb(54.119873%,74.119568%,14.118958%);fill-opacity:1;" d="M 819.304688 169.71875 C 927.449219 61.597656 1102.027344 61.597656 1209.027344 169.71875 C 1215.757812 176.449219 1228.121094 176.449219 1234.898438 169.71875 C 1241.671875 162.945312 1241.671875 150.539062 1234.898438 143.8125 C 1113.289062 22.183594 915.039062 22.183594 793.390625 143.8125 C 786.65625 150.539062 786.65625 162.945312 793.390625 169.71875 C 801.265625 177.59375 812.527344 177.59375 819.304688 169.71875 "/>
</g>
</svg>
