<?xml version="1.0" encoding="UTF-8"?>
<svg xmlns="http://www.w3.org/2000/svg" xmlns:xlink="http://www.w3.org/1999/xlink" width="1440pt" height="809.999993pt" viewBox="0 0 1440 809.999993" version="1.2">
<defs>
<clipPath id="clip1">
  <path d="M 552 40.5 L 888 40.5 L 888 769.5 L 552 769.5 Z M 552 40.5 "/>
</clipPath>
<clipPath id="clip2">
  <path d="M 359 229 L 1080.9375 229 L 1080.9375 581 L 359 581 Z M 359 229 "/>
</clipPath>
</defs>
<g id="surface1">
<g clip-path="url(#clip1)" clip-rule="nonzero">
<path style=" stroke:none;fill-rule:nonzero;fill:rgb(0%,23.919678%,32.548523%);fill-opacity:1;" d="M 830.59375 439.964844 L 820.402344 436.746094 C 791.882812 527.210938 755.011719 606.191406 718.085938 661.964844 C 699.644531 689.84375 681.164062 711.914062 664.140625 726.597656 C 655.640625 733.949219 647.515625 739.449219 640.128906 742.992188 C 632.714844 746.554688 626.117188 748.152344 620.410156 748.152344 C 617.429688 748.144531 614.671875 747.734375 612.003906 746.890625 C 609.285156 746.03125 606.726562 744.753906 604.234375 742.984375 C 599.890625 739.902344 595.710938 735.238281 591.914062 728.777344 C 586.21875 719.121094 581.527344 705.515625 578.414062 688.707031 C 575.277344 671.902344 573.660156 651.929688 573.660156 629.507812 C 573.660156 595.246094 577.429688 555.277344 585.023438 511.835938 C 592.613281 468.398438 604.015625 421.488281 619.230469 373.242188 C 647.746094 282.777344 684.613281 203.808594 721.542969 148.03125 C 739.980469 120.144531 758.464844 98.085938 775.480469 83.398438 C 783.980469 76.050781 792.101562 70.558594 799.5 67.007812 C 806.90625 63.445312 813.503906 61.84375 819.207031 61.84375 C 822.1875 61.851562 824.949219 62.273438 827.625 63.109375 C 830.34375 63.976562 832.902344 65.253906 835.390625 67.015625 C 839.734375 70.097656 843.917969 74.761719 847.710938 81.21875 C 853.410156 90.878906 858.097656 104.484375 861.210938 121.289062 C 864.351562 138.097656 865.964844 158.070312 865.964844 180.492188 C 865.964844 214.753906 862.195312 254.722656 854.605469 298.152344 C 847.015625 341.59375 835.609375 388.5 820.402344 436.746094 L 830.59375 439.964844 L 840.777344 443.179688 C 856.273438 394.066406 867.894531 346.273438 875.660156 301.832031 C 883.421875 257.390625 887.335938 216.300781 887.335938 180.492188 C 887.335938 162.625 886.367188 146.070312 884.378906 131.023438 C 881.394531 108.464844 876.207031 89.292969 868.207031 74.097656 C 864.191406 66.5 859.425781 59.882812 853.746094 54.511719 C 848.082031 49.140625 841.425781 45.039062 834.054688 42.722656 C 829.238281 41.199219 824.242188 40.464844 819.207031 40.464844 C 809.523438 40.476562 799.816406 43.136719 790.234375 47.734375 C 781.84375 51.773438 773.492188 57.324219 765.113281 64.1875 C 750.453125 76.21875 735.664062 92.308594 720.878906 111.894531 C 698.71875 141.269531 676.601562 178.539062 655.789062 221.699219 C 634.996094 264.867188 615.527344 313.925781 598.847656 366.820312 C 583.363281 415.925781 571.734375 463.714844 563.964844 508.15625 C 556.207031 552.597656 552.292969 593.6875 552.292969 629.507812 C 552.292969 647.367188 553.261719 663.929688 555.246094 678.964844 C 558.234375 701.53125 563.410156 720.703125 571.421875 735.910156 C 575.4375 743.507812 580.199219 750.117188 585.878906 755.496094 C 591.542969 760.859375 598.191406 764.960938 605.574219 767.285156 C 610.386719 768.800781 615.386719 769.53125 620.410156 769.53125 C 630.097656 769.53125 639.808594 766.871094 649.378906 762.265625 C 657.777344 758.222656 666.125 752.675781 674.515625 745.8125 C 689.175781 733.78125 703.960938 717.691406 718.75 698.105469 C 740.90625 668.71875 763.023438 631.460938 783.835938 588.289062 C 804.640625 545.128906 824.105469 496.066406 840.777344 443.179688 L 830.59375 439.964844 "/>
</g>
<g clip-path="url(#clip2)" clip-rule="nonzero">
<path style=" stroke:none;fill-rule:nonzero;fill:rgb(0%,23.919678%,32.548523%);fill-opacity:1;" d="M 758.488281 514.582031 L 754.929688 504.503906 C 703.742188 522.582031 653.945312 536.222656 608.183594 545.316406 C 562.417969 554.417969 520.675781 558.972656 485.757812 558.964844 C 455.722656 558.988281 430.726562 555.546875 412.960938 549.195312 C 404.074219 546.046875 397.039062 542.199219 391.953125 537.988281 C 386.855469 533.753906 383.699219 529.308594 381.933594 524.339844 C 380.886719 521.386719 380.367188 518.296875 380.367188 514.902344 C 380.359375 509.132812 381.941406 502.40625 385.425781 494.863281 C 391.484375 481.652344 403.417969 466.199219 420.492188 450.042969 C 446.085938 425.757812 483.0625 399.800781 528.15625 374.894531 C 573.257812 349.96875 626.488281 326.058594 684.714844 305.496094 C 735.898438 287.417969 785.695312 273.777344 831.460938 264.683594 C 877.21875 255.574219 918.96875 251.019531 953.886719 251.027344 C 983.914062 251 1008.910156 254.453125 1026.675781 260.792969 C 1035.5625 263.949219 1042.597656 267.800781 1047.671875 272.007812 C 1052.773438 276.246094 1055.929688 280.691406 1057.695312 285.65625 C 1058.730469 288.613281 1059.261719 291.703125 1059.261719 295.105469 C 1059.269531 300.863281 1057.695312 307.59375 1054.203125 315.136719 C 1048.144531 328.347656 1036.21875 343.808594 1019.140625 359.957031 C 993.550781 384.238281 956.570312 410.199219 911.480469 435.105469 C 866.378906 460.027344 813.15625 483.941406 754.929688 504.503906 L 758.488281 514.582031 L 762.039062 524.667969 C 852.375 492.75 930.96875 452.964844 987.53125 412.953125 C 1015.816406 392.921875 1038.617188 372.855469 1054.714844 353.269531 C 1062.761719 343.46875 1069.140625 333.769531 1073.609375 324.105469 C 1078.0625 314.4375 1080.628906 304.738281 1080.628906 295.105469 C 1080.636719 289.457031 1079.726562 283.863281 1077.851562 278.542969 C 1074.679688 269.515625 1068.835938 261.746094 1061.289062 255.523438 C 1055.625 250.839844 1048.984375 246.941406 1041.546875 243.691406 C 1030.378906 238.816406 1017.367188 235.347656 1002.691406 233.050781 C 988.019531 230.757812 971.675781 229.648438 953.886719 229.640625 C 917.132812 229.648438 874.164062 234.386719 827.296875 243.710938 C 780.4375 253.03125 729.707031 266.933594 677.59375 285.339844 C 587.269531 317.25 508.671875 357.035156 452.101562 397.046875 C 423.816406 417.078125 401.011719 437.144531 384.910156 456.726562 C 376.867188 466.527344 370.484375 476.230469 366.015625 485.902344 C 361.566406 495.5625 359 505.269531 359 514.902344 C 358.988281 520.542969 359.898438 526.132812 361.777344 531.457031 C 364.949219 540.480469 370.789062 548.253906 378.339844 554.476562 C 384.011719 559.15625 390.640625 563.046875 398.089844 566.304688 C 409.257812 571.179688 422.269531 574.640625 436.945312 576.941406 C 451.621094 579.238281 467.957031 580.351562 485.757812 580.351562 C 522.507812 580.34375 565.480469 575.601562 612.347656 566.289062 C 659.207031 556.96875 709.9375 543.066406 762.039062 524.667969 L 758.488281 514.582031 "/>
</g>
<path style=" stroke:none;fill-rule:nonzero;fill:rgb(0%,23.919678%,32.548523%);fill-opacity:1;" d="M 797.023438 318.175781 L 789.921875 326.160156 C 852.578125 381.933594 904.351562 439.964844 940.226562 491.773438 C 958.160156 517.65625 972.113281 541.988281 981.472656 563.519531 C 986.152344 574.28125 989.679688 584.324219 992.019531 593.460938 C 994.347656 602.605469 995.484375 610.824219 995.484375 617.878906 C 995.484375 623.648438 994.738281 628.632812 993.375 632.808594 C 992.011719 637 990.082031 640.402344 987.507812 643.308594 C 984.285156 646.910156 980.160156 649.65625 974.621094 651.636719 C 969.109375 653.605469 962.191406 654.707031 954.011719 654.699219 C 938.796875 654.726562 919.324219 650.867188 897.089844 643.191406 C 863.703125 631.6875 824.0625 611.714844 781.734375 584.671875 C 739.382812 557.632812 694.300781 523.539062 649.707031 483.832031 C 587.042969 428.066406 535.257812 370.027344 499.390625 318.226562 C 481.449219 292.34375 467.503906 268.007812 458.144531 246.488281 C 453.464844 235.726562 449.929688 225.671875 447.601562 216.546875 C 445.261719 207.402344 444.132812 199.183594 444.132812 192.128906 C 444.132812 186.359375 444.882812 181.375 446.238281 177.199219 C 447.609375 173.007812 449.535156 169.605469 452.109375 166.699219 C 455.335938 163.097656 459.464844 160.351562 464.996094 158.371094 C 470.515625 156.402344 477.425781 155.300781 485.605469 155.308594 C 500.820312 155.289062 520.296875 159.136719 542.53125 166.816406 C 575.914062 178.3125 615.554688 198.285156 657.886719 225.320312 C 700.234375 252.355469 745.316406 286.457031 789.921875 326.160156 L 797.023438 318.175781 L 804.128906 310.1875 C 743.574219 256.296875 682.132812 212.480469 626.914062 181.972656 C 599.296875 166.714844 573.238281 154.785156 549.492188 146.601562 C 525.734375 138.433594 504.3125 133.945312 485.605469 133.921875 C 475.558594 133.929688 466.25 135.242188 457.84375 138.222656 C 449.453125 141.1875 441.960938 145.9375 436.144531 152.488281 C 431.484375 157.714844 428.074219 163.894531 425.914062 170.597656 C 423.734375 177.308594 422.765625 184.523438 422.765625 192.128906 C 422.765625 201.441406 424.222656 211.351562 426.898438 221.84375 C 431.59375 240.191406 440.058594 260.363281 451.792969 282.011719 C 469.398438 314.472656 494.390625 350.230469 525.445312 387.261719 C 556.507812 424.277344 593.640625 462.539062 635.5 499.804688 C 696.042969 553.703125 757.488281 597.511719 812.703125 628.023438 C 840.316406 643.28125 866.378906 655.214844 890.128906 663.40625 C 913.886719 671.574219 935.304688 676.0625 954.011719 676.085938 C 964.070312 676.078125 973.378906 674.773438 981.785156 671.785156 C 990.167969 668.820312 997.664062 664.070312 1003.472656 657.511719 C 1008.132812 652.285156 1011.542969 646.101562 1013.707031 639.410156 C 1015.878906 632.699219 1016.851562 625.480469 1016.851562 617.878906 C 1016.851562 608.566406 1015.398438 598.65625 1012.722656 588.164062 C 1008.015625 569.816406 999.558594 549.644531 987.828125 527.988281 C 970.222656 495.527344 945.226562 459.765625 914.164062 422.734375 C 883.109375 385.714844 845.980469 347.453125 804.128906 310.1875 L 797.023438 318.175781 "/>
<path style=" stroke:none;fill-rule:nonzero;fill:rgb(0%,45.098877%,53.329468%);fill-opacity:1;" d="M 780.480469 404.996094 C 780.480469 438.515625 753.3125 465.695312 719.816406 465.695312 C 686.3125 465.695312 659.148438 438.515625 659.148438 404.996094 C 659.148438 371.476562 686.3125 344.304688 719.816406 344.304688 C 753.3125 344.304688 780.480469 371.476562 780.480469 404.996094 "/>
<path style=" stroke:none;fill-rule:nonzero;fill:rgb(0%,45.098877%,53.329468%);fill-opacity:1;" d="M 752.421875 131.875 C 752.421875 149.894531 737.820312 164.503906 719.808594 164.503906 C 701.800781 164.503906 687.199219 149.894531 687.199219 131.875 C 687.199219 113.847656 701.800781 99.246094 719.808594 99.246094 C 737.820312 99.246094 752.421875 113.847656 752.421875 131.875 "/>
<path style=" stroke:none;fill-rule:nonzero;fill:rgb(0%,45.098877%,53.329468%);fill-opacity:1;" d="M 1038.785156 386.992188 C 1038.785156 405.011719 1024.175781 419.621094 1006.171875 419.613281 C 988.15625 419.613281 973.554688 405.011719 973.554688 386.984375 C 973.554688 368.964844 988.15625 354.355469 1006.171875 354.355469 C 1024.175781 354.355469 1038.785156 368.964844 1038.785156 386.992188 "/>
<path style=" stroke:none;fill-rule:nonzero;fill:rgb(0%,45.098877%,53.329468%);fill-opacity:1;" d="M 517.074219 569.65625 C 517.074219 587.683594 502.472656 602.292969 484.460938 602.292969 C 466.441406 602.292969 451.851562 587.683594 451.851562 569.65625 C 451.851562 551.636719 466.441406 537.03125 484.460938 537.03125 C 502.472656 537.03125 517.074219 551.636719 517.074219 569.65625 "/>
</g>
</svg>
