<?xml version="1.0" encoding="utf-8"?>
<!-- Generator: Adobe Illustrator 25.2.2, SVG Export Plug-In . SVG Version: 6.00 Build 0)  -->
<svg version="1.1" id="Layer_1" xmlns="http://www.w3.org/2000/svg" xmlns:xlink="http://www.w3.org/1999/xlink" x="0px" y="0px"
	 viewBox="0 0 106.4 95.3" style="enable-background:new 0 0 106.4 95.3;" xml:space="preserve">
<style type="text/css">
	.st0{fill-rule:evenodd;clip-rule:evenodd;fill:#F99E47;}
	.st1{fill:#003D53;}
	.st2{fill:#FFFFFF;}
</style>
<g id="dim_icon_copy_2">
	<path class="st0" d="M48.9,32.1c4.2,0,8.2,1.7,11.1,4.6c6,5.9,6.2,15.7,0.2,21.7c-0.1,0.1-0.2,0.2-0.2,0.2
		c-6.2,6.1-16.1,6.1-22.3,0c-6-5.9-6.2-15.7-0.2-21.7c0.1-0.1,0.2-0.2,0.2-0.2C40.7,33.7,44.8,32.1,48.9,32.1 M48.9,27.7
		c-11.1,0.2-19.8,9.2-19.7,20.2s9.2,19.8,20.2,19.7c10.9-0.2,19.7-9,19.7-19.9C69,36.6,60,27.6,48.9,27.7L48.9,27.7z"/>
	<path class="st0" d="M16,44.8h7.4c1.5,0,2.8,1.3,2.8,2.8c0,1.5-1.3,2.8-2.8,2.8l0,0H16c-1.5,0-2.8-1.3-2.8-2.8
		C13.2,46.1,14.5,44.8,16,44.8z"/>
	<path class="st0" d="M19,61.7l6.5-3.8c1.4-0.8,3-0.3,3.8,1.1c0.8,1.4,0.3,3-1.1,3.8l-6.5,3.8c-1.4,0.8-3,0.3-3.8-1.1
		C17.1,64.2,17.7,62.5,19,61.7L19,61.7z"/>
	<path class="st0" d="M30.1,74.8l3.8-6.5c0.8-1.4,2.5-1.8,3.8-1.1c1.4,0.8,1.8,2.5,1.1,3.8L35,77.6c-0.8,1.4-2.5,1.8-3.8,1.1
		C29.8,77.9,29.3,76.2,30.1,74.8z"/>
	<path class="st0" d="M59.4,24.1l3.8-6.5c0.8-1.4,2.4-1.9,3.8-1.1c1.4,0.8,1.9,2.4,1.1,3.8c0,0.1-0.1,0.2-0.1,0.2l-3.8,6.5
		c-0.8,1.4-2.4,1.9-3.8,1.1s-1.9-2.4-1.1-3.8C59.3,24.2,59.4,24.2,59.4,24.1z"/>
	<path class="st0" d="M46.2,80.7v-7.4c0-1.5,1.3-2.8,2.8-2.8c1.5,0,2.8,1.3,2.8,2.8l0,0v7.4c0,1.5-1.3,2.8-2.8,2.8
		C47.5,83.5,46.2,82.2,46.2,80.7z"/>
	<path class="st0" d="M46.2,22v-7.4c0-1.5,1.3-2.8,2.8-2.8c1.5,0,2.8,1.3,2.8,2.8V22c0,1.5-1.3,2.8-2.8,2.8
		C47.5,24.8,46.2,23.6,46.2,22z"/>
	<path class="st0" d="M33.8,26.9L30,20.4c-0.8-1.4-0.3-3.1,1.1-3.8c1.4-0.8,3.1-0.3,3.8,1.1l3.8,6.5c0.8,1.4,0.3,3-1.1,3.8
		C36.4,28.7,34.6,28.2,33.8,26.9L33.8,26.9L33.8,26.9z"/>
	<path class="st0" d="M63.1,77.6l-3.8-6.5c-0.8-1.4-0.3-3.1,1.1-3.8c1.4-0.8,3.1-0.3,3.8,1.1l3.8,6.5c0.8,1.3,0.5,3-0.9,3.8
		c-1.3,0.8-3,0.5-3.8-0.9C63.2,77.8,63.2,77.8,63.1,77.6L63.1,77.6z"/>
	<path class="st0" d="M25.5,37.2L19,33.5c-1.4-0.8-1.8-2.5-1.1-3.8c0.8-1.4,2.5-1.8,3.8-1.1l6.5,3.8c1.4,0.8,1.8,2.5,1.1,3.8
		C28.5,37.5,26.8,38.1,25.5,37.2L25.5,37.2z"/>
	<ellipse class="st1" cx="73" cy="47.6" rx="20.2" ry="19.9"/>
</g>
<path class="st2" d="M85.7,95.3H20.8C9.3,95.3,0,87,0,76.7l0,0V18.6C0,8.4,9.3,0,20.8,0h64.8c11.5,0,20.8,8.3,20.8,18.6v58.1
	C106.5,87,97.2,95.3,85.7,95.3L85.7,95.3z M20.8,4.5C12,4.5,5,10.8,5,18.6v58.1c0,7.8,7,14.1,15.8,14.1h64.8
	c8.7,0,15.8-6.3,15.8-14.1V18.6c0-7.8-7-14.1-15.8-14.1H20.8z"/>
</svg>
