<?xml version="1.0" encoding="utf-8"?>
<!-- Generator: Adobe Illustrator 25.2.2, SVG Export Plug-In . SVG Version: 6.00 Build 0)  -->
<svg version="1.1" id="Layer_1" xmlns="http://www.w3.org/2000/svg" xmlns:xlink="http://www.w3.org/1999/xlink" x="0px" y="0px"
	 viewBox="0 0 113.5 113.5" style="enable-background:new 0 0 113.5 113.5;" xml:space="preserve">
<style type="text/css">
	.st0{fill:#F59F3D;}
	.st1{fill:#8ABD24;}
	.st2{fill:#003D53;}
	.st3{fill:#FFFFFF;}
</style>
<path class="st0" d="M33.7,33H40c0.9,0,1.6,0.7,1.6,1.6v48c0,0.9-0.7,1.6-1.6,1.6h-6.3c-0.9,0-1.6-0.7-1.6-1.6v-48
	C32.1,33.7,32.8,33,33.7,33z"/>
<path class="st1" d="M49.6,65H56c0.9,0,1.6,0.7,1.6,1.6v16c0,0.9-0.7,1.6-1.6,1.6h-6.4c-0.9,0-1.6-0.7-1.6-1.6V66.5
	C48.1,65.7,48.8,65,49.6,65z"/>
<path class="st2" d="M65.6,55.4H72c0.9,0,1.6,0.7,1.6,1.6v25.6c0,0.9-0.7,1.6-1.6,1.6h-6.4c-0.9,0-1.6-0.7-1.6-1.6V56.9
	C64.1,56.1,64.8,55.4,65.6,55.4z"/>
<path class="st1" d="M81.6,68.1H88c0.9,0,1.6,0.7,1.6,1.6v12.8c0,0.9-0.7,1.6-1.6,1.6h-6.4c-0.9,0-1.6-0.7-1.6-1.6V69.8
	C80,68.8,80.7,68.1,81.6,68.1z"/>
<path class="st2" d="M22.8,16.8h2.5c0.7,0,1.3,0.6,1.3,1.3v77.5c0,0.7-0.6,1.3-1.3,1.3h-2.5c-0.7,0-1.3-0.6-1.3-1.3V18.1
	C21.6,17.4,22.2,16.8,22.8,16.8z"/>
<path class="st2" d="M16.8,91.5V89c0-0.7,0.6-1.3,1.3-1.3h77.5c0.7,0,1.3,0.6,1.3,1.3v2.5c0,0.7-0.6,1.3-1.3,1.3H18.1
	C17.4,92.8,16.8,92.2,16.8,91.5z"/>
<path class="st3" d="M91.4,113.5H22.2C9.9,113.5,0,103.6,0,91.3l0,0V22.2C0,9.9,9.9,0,22.2,0h69.2c12.2,0,22.2,9.9,22.2,22.2v69.2
	C113.6,103.6,103.6,113.5,91.4,113.5L91.4,113.5z M22.2,5.4c-9.3,0-16.8,7.5-16.8,16.8v69.2c0,9.3,7.5,16.8,16.8,16.8h69.2
	c9.3,0,16.8-7.5,16.8-16.8V22.2c0-9.3-7.5-16.8-16.8-16.8H22.2z"/>
</svg>
