<?xml version="1.0" encoding="utf-8"?>
<!-- Generator: Adobe Illustrator 25.2.2, SVG Export Plug-In . SVG Version: 6.00 Build 0)  -->
<svg version="1.1" id="Layer_1" xmlns="http://www.w3.org/2000/svg" xmlns:xlink="http://www.w3.org/1999/xlink" x="0px" y="0px"
	 viewBox="0 0 111.7 107.6" style="enable-background:new 0 0 111.7 107.6;" xml:space="preserve">
<style type="text/css">
	.st0{fill:none;stroke:#007388;stroke-width:5.5;stroke-miterlimit:10;}
	.st1{fill:none;stroke:#003D53;stroke-width:5.5;stroke-miterlimit:10;}
	.st2{fill:none;stroke:#102539;stroke-width:5.5;stroke-miterlimit:10;}
	.st3{fill-rule:evenodd;clip-rule:evenodd;fill:#1D1D1B;}
	.st4{fill:#FFFFFF;}
	.st5{fill:#8ABD24;}
	.st6{fill-rule:evenodd;clip-rule:evenodd;fill:#8ABD24;}
	.st7{fill:#102539;}
</style>
<circle class="st0" cx="54.7" cy="53.8" r="13"/>
<circle class="st1" cx="54.7" cy="53.8" r="25.3"/>
<circle class="st2" cx="54.7" cy="53.8" r="37.5"/>
<path class="st3" d="M52.2,53.1h44.3v0.7c0,8.1-2.4,16-6.8,22.8l-0.4,0.6L52.2,53.1z"/>
<path class="st4" d="M95.8,53.8L95.8,53.8c0,7.9-2.3,15.8-6.7,22.4L54.7,53.8H95.8 M97.2,52.3h-1.5H54.7h-5l4.1,2.7l34.5,22.4
	l1.2,0.8l0.8-1.2c4.6-6.9,6.9-15,6.9-23.2V52.3L97.2,52.3z"/>
<circle class="st5" cx="58.5" cy="78.6" r="5.1"/>
<path class="st4" d="M58.5,74.1c2.4,0,4.4,2,4.4,4.4c0,2.4-2,4.4-4.4,4.4c-2.4,0-4.4-2-4.4-4.4C54.1,76.1,56.1,74.1,58.5,74.1
	 M58.5,72.7c-3.2,0-5.9,2.6-5.9,5.9c0,3.2,2.6,5.9,5.9,5.9c3.2,0,5.9-2.6,5.9-5.9C64.4,75.3,61.8,72.7,58.5,72.7z"/>
<path class="st6" d="M44.2,51.7c-2.9,0-5.1-2.3-5.1-5.1s2.3-5.1,5.1-5.1c2.9,0,5.1,2.3,5.1,5.1S47.1,51.7,44.2,51.7z"/>
<path class="st4" d="M44.2,42.3c2.4,0,4.4,2,4.4,4.4c0,2.4-2,4.4-4.4,4.4c-2.4,0-4.4-2-4.4-4.4l0,0C39.8,44.2,41.8,42.3,44.2,42.3
	 M44.2,40.8c-3.2,0-5.9,2.6-5.9,5.9c0,3.2,2.6,5.9,5.9,5.9c3.2,0,5.9-2.6,5.9-5.9l0,0C50.1,43.4,47.4,40.8,44.2,40.8z"/>
<path class="st6" d="M69.4,38.2c-2.9,0-5.1-2.3-5.1-5.1s2.3-5.1,5.1-5.1s5.1,2.3,5.1,5.1l0,0C74.6,35.9,72.3,38.2,69.4,38.2z"/>
<path class="st4" d="M69.4,28.7c2.4,0,4.3,2,4.3,4.4c0,2.4-2,4.3-4.4,4.3c-2.4,0-4.3-2-4.3-4.3C65,30.7,67,28.7,69.4,28.7
	 M69.4,27.3c-3.2,0-5.8,2.6-5.8,5.9s2.6,5.8,5.9,5.8s5.8-2.6,5.8-5.8C75.3,29.9,72.6,27.3,69.4,27.3z"/>
<circle class="st7" cx="54.7" cy="53.8" r="2.2"/>
<path class="st4" d="M90,107.6H21.8c-12,0-21.8-9.4-21.8-21l0,0V21C0,9.4,9.8,0,21.8,0h68.1c12,0,21.8,9.4,21.8,21v65.6
	C111.8,98.2,102,107.6,90,107.6L90,107.6z M21.8,5.1C12.6,5.1,5.3,12.2,5.3,21v65.6c0,8.8,7.4,15.9,16.5,15.9h68.1
	c9.2,0,16.5-7.1,16.5-15.9V21c0-8.8-7.4-15.9-16.5-15.9H21.8z"/>
</svg>
