<svg id="Layer_1" data-name="Layer 1" xmlns="http://www.w3.org/2000/svg" viewBox="0 0 148.57 148.57"><defs><style>.cls-1{fill:#fff;}.cls-2{fill:#007789;}.cls-3{fill:#003e53;}.cls-4{fill:#83c341;}.cls-5{fill:none;stroke:#003e53;stroke-miterlimit:10;stroke-width:8px;}</style></defs><path class="cls-1" d="M119.56,148.57H29a29,29,0,0,1-29-29V29A29,29,0,0,1,29,0h90.55a29,29,0,0,1,29,29v90.55A29,29,0,0,1,119.56,148.57ZM29,7A22,22,0,0,0,7,29v90.55a22,22,0,0,0,22,22h90.55a22,22,0,0,0,22-22V29a22,22,0,0,0-22-22Z"/><circle class="cls-2" cx="74.29" cy="105.94" r="2.83"/><circle class="cls-2" cx="74.29" cy="42.75" r="2.83"/><rect class="cls-3" x="66.8" y="54.52" width="14.96" height="39.66" rx="0.86"/><rect class="cls-4" x="69.26" y="71.66" width="9.89" height="19.45" rx="0.86"/><rect class="cls-5" x="43.61" y="31.03" width="61.35" height="86.63" rx="10.46"/></svg>