<?xml version="1.0" encoding="utf-8"?>
<!-- Generator: Adobe Illustrator 25.2.2, SVG Export Plug-In . SVG Version: 6.00 Build 0)  -->
<svg version="1.1" id="Layer_1" xmlns="http://www.w3.org/2000/svg" xmlns:xlink="http://www.w3.org/1999/xlink" x="0px" y="0px"
	 viewBox="0 0 96.3 100.6" style="enable-background:new 0 0 96.3 100.6;" xml:space="preserve">
<style type="text/css">
	.st0{fill:#003D53;}
	.st1{fill:#8ABD24;}
	.st2{fill:#FFFFFF;}
</style>
<path class="st0" d="M54.3,23.5v5.5c0,0.2,0.1,0.3,0.2,0.4C66.9,33,74,45.7,70.5,58.1c-3.5,12.4-16.3,19.5-28.7,16
	s-19.5-16.4-16-28.7c2.2-7.7,8.2-13.8,16-16c0.1-0.1,0.2-0.2,0.2-0.3v-5.6c0-0.2-0.2-0.4-0.4-0.4h-0.1c-15.8,3.6-25.6,19.3-22,35.1
	S38.9,84,54.7,80.4s25.6-19.4,22-35.1c-2.5-11-11.1-19.6-22-22.1c-0.2-0.1-0.4,0.1-0.4,0.2C54.3,23.5,54.3,23.5,54.3,23.5z"/>
<path class="st1" d="M47.9,19.8h0.5c1.5,0,2.8,1.3,2.8,2.8v21.9c0,1.5-1.3,2.8-2.8,2.8h-0.5c-1.5,0-2.8-1.3-2.8-2.8V22.6
	C45.1,21.1,46.4,19.8,47.9,19.8z"/>
<path class="st2" d="M77.5,94.5H18.9C8.6,94.5,0.2,87,0.2,77.7l0,0V25.3C0.2,16,8.6,8.5,18.9,8.5h58.5c10.3,0,18.7,7.5,18.7,16.8
	v52.5C96.2,87,87.8,94.5,77.5,94.5L77.5,94.5z M18.9,12.6c-7.9,0-14.2,5.7-14.2,12.7v52.5c0,7.1,6.3,12.7,14.2,12.7h58.5
	c7.9,0,14.2-5.7,14.2-12.7V25.3c0-7.1-6.3-12.7-14.2-12.7H18.9z"/>
</svg>
