<?xml version="1.0" encoding="utf-8"?>
<!-- Generator: Adobe Illustrator 25.2.2, SVG Export Plug-In . SVG Version: 6.00 Build 0)  -->
<svg version="1.1" id="Layer_1" xmlns="http://www.w3.org/2000/svg" xmlns:xlink="http://www.w3.org/1999/xlink" x="0px" y="0px"
	 viewBox="0 0 94.8 71.3" style="enable-background:new 0 0 94.8 71.3;" xml:space="preserve">
<style type="text/css">
	.st0{fill:#FFFFFF;}
	.st1{fill:#003D53;}
	.st2{fill:#007388;}
</style>
<path class="st0" d="M10,40.4c0.1,0.2,0.1,1.3,0.1,1.4c0.3,2.8,1.3,5.6,2.8,8c4.1,6.2,10,9.2,18.3,7.7c3.6-0.6,7.1-0.6,10.7,0
	c3.4,0.7,6.6,0.5,9.2-1.4c4.6-3.1,7.4-8.1,7.5-13.7c0.2-4.9-1.8-8.9-5.4-12.2c-2.2-2.1-5.1-3.1-8.1-3c-1.7,0.1-3.3,0.5-4.9,1.2
	c-0.2-0.3-0.6-0.7-0.8-1c-4.7-5.8-12.8-7.7-19.2-4.7c-5.3,2.8-8.5,7.1-9.9,12.9c-0.2,0.7-0.3,1.4-0.5,2.2"/>
<path class="st0" d="M65.5,63.8c0.2-0.1,0.3-0.1,0.5-0.2c2.5-0.2,5.1-0.8,7.4-1.7c4.3-1.6,8.1-4.3,11.1-7.7c0.4-0.3,0.6-0.9,0.4-1.4
	c-0.2-0.5-0.6-0.8-1.2-0.8c-0.3,0-0.7-0.1-1-0.2c-14.1-2.6-23.2-16-20.6-30c0.2-0.8,0.3-1.6,0.6-2.3c1-3.5,2.8-6.7,5.1-9.5
	c0.6-0.4,0.7-1.2,0.3-1.8c-0.2-0.4-0.7-0.6-1.2-0.6c-2.6-0.4-5.3-0.4-7.9,0.1c-8.9,1.6-15.7,6.3-20.2,14.1c-0.2,0.3-0.3,0.6-0.5,0.9
	c0.9,0.8,1.7,1.5,2.4,2.3c0.2,0.3,0.6,0.4,1,0.3c2.7-0.8,5.6-0.7,8.3,0.2c6.2,2.1,10.8,8.6,11.1,15.2c0.4,6.7-2.3,12.2-7.4,16.5
	c-1.4,1.2-3.1,2.1-4.8,2.6c0.2,0.2,0.4,0.2,0.6,0.3c2.4,1.3,4.8,2.3,7.5,2.9c1.3,0.3,2.8,0.5,4.2,0.7"/>
<path class="st0" d="M95-0.1"/>
<path class="st1" d="M9.9,38.6c0-0.6,0-1,0.2-1.6c0.1-0.5,0.2-0.9,0.3-1.4c1.4-5.8,4.6-10.1,10-12.8c6.5-3.2,14.5-1.1,19.2,4.7
	c0.2,0.3,0.6,0.6,0.8,1c1.6-0.7,3.2-1.1,4.9-1.2c3-0.2,5.9,0.9,8.1,3c3.6,3.2,5.7,7.3,5.4,12.2C58.6,48,55.9,52.9,51.4,56
	c-1.7,1.3-3.7,1.9-5.8,1.9c-5.9,0-11.9-0.1-17.9,0C21.2,58,16.5,55.1,13,49.8c-1.6-2.4-2.6-5.1-2.8-8c0-0.2,0-1.1-0.1-1.3
	c0-0.1,0-0.1,0-0.2C10,39.5,9.9,39.2,9.9,38.6z"/>
<path class="st2" d="M61.2,63.8c-1.4-0.2-2.8-0.5-4.2-0.7c-2.6-0.6-5.1-1.6-7.5-2.9c-0.2-0.1-0.3-0.2-0.6-0.3
	c1.7-0.6,3.4-1.4,4.8-2.6c5.1-4.3,7.7-9.8,7.4-16.5c-0.4-6.6-4.9-13.1-11.1-15.2c-2.7-0.9-5.6-0.9-8.3-0.2c-0.4,0.2-0.8,0-1-0.2
	c-0.7-0.8-1.6-1.5-2.4-2.3c0.2-0.2,0.2-0.6,0.5-0.9C43.3,14.1,50.1,9.4,59,7.9c2.6-0.5,5.3-0.5,7.9-0.1c0.7,0,1.3,0.6,1.3,1.3
	c0,0.4-0.2,0.8-0.5,1c-2.4,2.8-4.1,6-5.1,9.5c-4,13.7,4,27.9,17.6,31.9c0.8,0.2,1.6,0.4,2.3,0.6c0.3,0.1,0.7,0.2,1,0.2
	c0.6,0,1,0.3,1.2,0.9c0.2,0.6,0,1.1-0.4,1.4c-3,3.4-6.8,6-11.1,7.7c-2.4,0.9-4.9,1.5-7.4,1.7c-0.2,0-0.3,0.1-0.5,0.2L61.2,63.8z"/>
<path class="st0" d="M76.4,71.3H18.5C8.3,71.3,0,65.1,0,57.4l0,0V13.9C0,6.2,8.3,0,18.5,0h57.8c10.2,0,18.5,6.2,18.5,13.9v43.5
	C94.9,65.1,86.6,71.3,76.4,71.3L76.4,71.3z M18.5,3.4c-7.8,0-14,4.7-14,10.6v43.5c0,5.9,6.3,10.6,14,10.6h57.8c7.8,0,14-4.7,14-10.6
	V13.9c0-5.9-6.3-10.6-14-10.6H18.5z"/>
</svg>
