<?xml version="1.0" encoding="UTF-8"?>
<svg xmlns="http://www.w3.org/2000/svg" xmlns:xlink="http://www.w3.org/1999/xlink" width="1440pt" height="809.999993pt" viewBox="0 0 1440 809.999993" version="1.2">
<defs>
<clipPath id="clip1">
  <path d="M 457.171875 127.25 L 883 127.25 L 883 683 L 457.171875 683 Z M 457.171875 127.25 "/>
</clipPath>
<clipPath id="clip2">
  <path d="M 594.898438 127.25 L 883.378906 127.25 L 883.378906 330.5 L 594.898438 330.5 Z M 594.898438 127.25 "/>
</clipPath>
<clipPath id="clip3">
  <path d="M 584.714844 571.035156 L 883.921875 571.035156 L 883.921875 682.785156 L 584.714844 682.785156 Z M 584.714844 571.035156 "/>
</clipPath>
</defs>
<g id="surface1">
<rect x="0" y="0" width="1440" height="809.999993" style="fill:rgb(100%,100%,100%);fill-opacity:1;stroke:none;"/>
<rect x="0" y="0" width="1440" height="809.999993" style="fill:rgb(100%,100%,100%);fill-opacity:1;stroke:none;"/>
<g clip-path="url(#clip1)" clip-rule="nonzero">
<path style=" stroke:none;fill-rule:nonzero;fill:rgb(0%,24.308777%,32.159424%);fill-opacity:1;" d="M 855.1875 645.949219 C 855.1875 656.152344 846.878906 664.476562 836.6875 664.476562 C 826.496094 664.476562 818.183594 656.152344 818.183594 645.949219 C 818.183594 635.746094 826.496094 627.425781 836.6875 627.425781 C 846.878906 627.425781 855.1875 635.746094 855.1875 645.949219 Z M 771.929688 571.851562 L 771.929688 525.539062 C 771.929688 520.4375 767.777344 516.277344 762.679688 516.277344 L 762.679688 488.488281 C 762.679688 474.957031 759.5 461.386719 753.429688 449.265625 L 751.476562 445.359375 C 750.972656 444.3125 750.574219 443.226562 750.140625 442.175781 L 790.433594 442.175781 L 790.433594 571.851562 Z M 716.425781 571.851562 L 716.425781 534.800781 L 753.429688 534.800781 L 753.429688 571.851562 Z M 693.300781 460.699219 L 614.667969 460.699219 C 582.109375 460.699219 555.152344 436.496094 550.671875 405.125 L 633.167969 405.125 L 633.167969 432.914062 C 633.167969 438.015625 637.324219 442.175781 642.417969 442.175781 L 730.300781 442.175781 C 731.605469 446.082031 733.085938 449.953125 734.929688 453.609375 L 736.878906 457.515625 C 741.648438 467.105469 744.179688 477.816406 744.179688 488.488281 L 744.179688 516.277344 L 725.675781 516.277344 L 725.675781 493.121094 C 725.675781 475.246094 711.152344 460.699219 693.300781 460.699219 Z M 512.910156 358.8125 L 512.910156 303.238281 L 531.410156 303.238281 L 531.410156 384.898438 C 520.675781 381.066406 512.910156 370.863281 512.910156 358.8125 Z M 475.90625 252.292969 C 475.90625 245.3125 478.21875 238.402344 482.375 232.828125 L 507.34375 199.503906 C 510.882812 194.800781 516.269531 192.089844 522.160156 192.089844 C 528.050781 192.089844 533.433594 194.800781 536.976562 199.503906 L 561.945312 232.828125 C 566.101562 238.402344 568.414062 245.3125 568.414062 252.292969 C 568.414062 270.167969 553.886719 284.714844 536.035156 284.714844 L 508.28125 284.714844 C 490.433594 284.714844 475.90625 270.167969 475.90625 252.292969 Z M 651.671875 331.027344 L 670.171875 331.027344 L 670.171875 340.289062 C 670.171875 351.9375 677.398438 361.925781 687.625 366.050781 C 684.410156 377.84375 673.714844 386.601562 660.921875 386.601562 L 651.671875 386.601562 Z M 707.175781 331.027344 L 707.175781 340.289062 C 707.175781 345.390625 703.019531 349.550781 697.925781 349.550781 C 692.828125 349.550781 688.675781 345.390625 688.675781 340.289062 L 688.675781 331.027344 Z M 781.183594 331.027344 L 781.183594 340.289062 C 781.183594 345.390625 777.027344 349.550781 771.929688 349.550781 C 766.835938 349.550781 762.679688 345.390625 762.679688 340.289062 L 762.679688 331.027344 Z M 651.671875 405.125 L 660.921875 405.125 C 683.757812 405.125 702.660156 388.445312 706.378906 366.628906 C 717.546875 363.011719 725.675781 352.625 725.675781 340.289062 L 725.675781 331.027344 L 744.179688 331.027344 L 744.179688 340.289062 C 744.179688 352.335938 751.949219 362.539062 762.679688 366.375 L 762.679688 377.339844 C 762.679688 382.441406 758.523438 386.601562 753.429688 386.601562 C 738.109375 386.601562 725.675781 399.046875 725.675781 414.386719 C 725.675781 417.5 725.894531 420.574219 726.21875 423.652344 L 651.671875 423.652344 Z M 818.183594 423.652344 L 744.867188 423.652344 C 744.46875 420.574219 744.179688 417.5 744.179688 414.386719 C 744.179688 409.285156 748.335938 405.125 753.429688 405.125 C 768.75 405.125 781.183594 392.679688 781.183594 377.339844 L 781.183594 366.375 C 791.914062 362.539062 799.683594 352.335938 799.683594 340.289062 L 799.683594 331.027344 L 818.183594 331.027344 Z M 845.9375 368.074219 C 851.03125 368.074219 855.1875 372.238281 855.1875 377.339844 L 855.1875 395.863281 C 855.1875 400.964844 851.03125 405.125 845.9375 405.125 L 836.6875 405.125 L 836.6875 368.074219 Z M 651.671875 645.949219 C 651.671875 656.152344 643.359375 664.476562 633.167969 664.476562 C 622.980469 664.476562 614.667969 656.152344 614.667969 645.949219 C 614.667969 635.746094 622.980469 627.425781 633.167969 627.425781 C 643.359375 627.425781 651.671875 635.746094 651.671875 645.949219 Z M 845.9375 571.851562 L 808.933594 571.851562 L 808.933594 442.175781 L 827.4375 442.175781 C 832.53125 442.175781 836.6875 438.015625 836.6875 432.914062 L 836.6875 423.652344 L 845.9375 423.652344 C 861.257812 423.652344 873.691406 411.203125 873.691406 395.863281 L 873.691406 377.339844 C 873.691406 361.996094 861.257812 349.550781 845.9375 349.550781 L 836.6875 349.550781 L 836.6875 331.027344 L 855.1875 331.027344 C 860.285156 331.027344 864.441406 326.863281 864.441406 321.761719 L 864.441406 247.664062 C 864.441406 242.5625 860.285156 238.402344 855.1875 238.402344 C 850.09375 238.402344 845.9375 242.5625 845.9375 247.664062 L 845.9375 312.5 L 623.917969 312.5 L 623.917969 145.777344 L 845.9375 145.777344 L 845.9375 210.613281 C 845.9375 215.714844 850.09375 219.875 855.1875 219.875 C 860.285156 219.875 864.441406 215.714844 864.441406 210.613281 L 864.441406 136.511719 C 864.441406 131.410156 860.285156 127.25 855.1875 127.25 L 614.667969 127.25 C 609.570312 127.25 605.417969 131.410156 605.417969 136.511719 L 605.417969 321.761719 C 605.417969 326.863281 609.570312 331.027344 614.667969 331.027344 L 633.167969 331.027344 L 633.167969 386.601562 L 549.910156 386.601562 L 549.910156 301.25 C 571.230469 295.207031 586.914062 275.558594 586.914062 252.292969 C 586.914062 241.332031 583.300781 230.476562 576.722656 221.722656 L 551.753906 188.398438 C 544.707031 178.953125 533.941406 173.5625 522.160156 173.5625 C 510.378906 173.5625 499.609375 178.953125 492.5625 188.398438 L 467.59375 221.722656 C 461.015625 230.476562 457.402344 241.332031 457.402344 252.292969 C 457.402344 275.558594 473.085938 295.207031 494.40625 301.25 L 494.40625 358.8125 C 494.40625 381.316406 510.523438 400.097656 531.84375 404.222656 C 536.035156 446.300781 571.59375 479.226562 614.667969 479.226562 L 693.300781 479.226562 C 700.960938 479.226562 707.175781 485.449219 707.175781 493.121094 L 707.175781 516.277344 C 702.082031 516.277344 697.925781 520.4375 697.925781 525.539062 L 697.925781 571.851562 L 679.421875 571.851562 L 679.421875 507.011719 C 679.421875 501.910156 675.265625 497.75 670.171875 497.75 C 665.078125 497.75 660.921875 501.910156 660.921875 507.011719 L 660.921875 571.851562 L 623.917969 571.851562 C 603.5 571.851562 586.914062 588.457031 586.914062 608.902344 L 586.914062 618.164062 C 586.914062 623.265625 591.070312 627.425781 596.164062 627.425781 L 601.296875 627.425781 C 598.117188 632.890625 596.164062 639.183594 596.164062 645.949219 C 596.164062 666.394531 612.753906 683 633.167969 683 C 653.585938 683 670.171875 666.394531 670.171875 645.949219 C 670.171875 639.183594 668.222656 632.890625 665.042969 627.425781 L 753.429688 627.425781 C 758.523438 627.425781 762.679688 623.265625 762.679688 618.164062 C 762.679688 613.0625 758.523438 608.902344 753.429688 608.902344 L 605.417969 608.902344 C 605.417969 598.699219 613.726562 590.375 623.917969 590.375 L 845.9375 590.375 C 856.128906 590.375 864.441406 598.699219 864.441406 608.902344 L 790.433594 608.902344 C 785.335938 608.902344 781.183594 613.0625 781.183594 618.164062 C 781.183594 623.265625 785.335938 627.425781 790.433594 627.425781 L 804.816406 627.425781 C 801.636719 632.890625 799.683594 639.183594 799.683594 645.949219 C 799.683594 666.394531 816.269531 683 836.6875 683 C 857.105469 683 873.691406 666.394531 873.691406 645.949219 C 873.691406 639.183594 871.738281 632.890625 868.558594 627.425781 L 873.691406 627.425781 C 878.785156 627.425781 882.941406 623.265625 882.941406 618.164062 L 882.941406 608.902344 C 882.941406 588.457031 866.355469 571.851562 845.9375 571.851562 "/>
</g>
<path style=" stroke:none;fill-rule:nonzero;fill:rgb(0%,24.308777%,32.159424%);fill-opacity:1;" d="M 540.660156 266.1875 C 545.757812 266.1875 549.910156 262.027344 549.910156 256.925781 C 549.910156 251.824219 545.757812 247.664062 540.660156 247.664062 L 503.65625 247.664062 C 498.5625 247.664062 494.40625 251.824219 494.40625 256.925781 C 494.40625 262.027344 498.5625 266.1875 503.65625 266.1875 L 540.660156 266.1875 "/>
<path style=" stroke:none;fill-rule:nonzero;fill:rgb(0%,24.308777%,32.159424%);fill-opacity:1;" d="M 775.761719 219.875 L 769.222656 213.328125 C 765.609375 209.707031 759.753906 209.707031 756.140625 213.328125 L 735.941406 233.550781 L 714.582031 205.042969 C 712.957031 202.90625 710.5 201.566406 707.824219 201.386719 C 707.609375 201.351562 707.390625 201.351562 707.175781 201.351562 C 704.71875 201.351562 702.371094 202.328125 700.636719 204.066406 L 684.84375 219.875 L 660.921875 219.875 L 660.921875 182.824219 L 808.933594 182.824219 L 808.933594 219.875 Z M 651.671875 256.925781 C 646.574219 256.925781 642.417969 261.085938 642.417969 266.1875 L 642.417969 284.714844 C 642.417969 289.816406 646.574219 293.976562 651.671875 293.976562 L 818.183594 293.976562 C 823.28125 293.976562 827.4375 289.816406 827.4375 284.714844 L 827.4375 173.5625 C 827.4375 168.460938 823.28125 164.300781 818.183594 164.300781 L 651.671875 164.300781 C 646.574219 164.300781 642.417969 168.460938 642.417969 173.5625 L 642.417969 229.136719 C 642.417969 234.238281 646.574219 238.402344 651.671875 238.402344 L 688.675781 238.402344 C 691.132812 238.402344 693.480469 237.425781 695.214844 235.6875 L 706.164062 224.722656 L 727.519531 253.234375 C 729.144531 255.371094 731.605469 256.707031 734.277344 256.890625 C 737.023438 257.105469 739.589844 256.128906 741.46875 254.210938 L 762.679688 232.972656 L 765.390625 235.6875 C 767.125 237.425781 769.472656 238.402344 771.929688 238.402344 L 808.933594 238.402344 L 808.933594 275.449219 L 660.921875 275.449219 L 660.921875 266.1875 C 660.921875 261.085938 656.765625 256.925781 651.671875 256.925781 "/>
<g clip-path="url(#clip2)" clip-rule="nonzero">
<path style=" stroke:none;fill-rule:nonzero;fill:rgb(100%,51.759338%,0%);fill-opacity:1;" d="M 855.394531 645.949219 C 855.394531 656.152344 847.085938 664.476562 836.894531 664.476562 C 826.703125 664.476562 818.390625 656.152344 818.390625 645.949219 C 818.390625 635.746094 826.703125 627.425781 836.894531 627.425781 C 847.085938 627.425781 855.394531 635.746094 855.394531 645.949219 Z M 772.136719 571.851562 L 772.136719 525.539062 C 772.136719 520.4375 767.984375 516.277344 762.886719 516.277344 L 762.886719 488.488281 C 762.886719 474.957031 759.707031 461.386719 753.636719 449.265625 L 751.683594 445.359375 C 751.179688 444.3125 750.78125 443.226562 750.347656 442.175781 L 790.640625 442.175781 L 790.640625 571.851562 Z M 716.632812 571.851562 L 716.632812 534.800781 L 753.636719 534.800781 L 753.636719 571.851562 Z M 693.507812 460.699219 L 614.875 460.699219 C 582.316406 460.699219 555.359375 436.496094 550.878906 405.125 L 633.375 405.125 L 633.375 432.914062 C 633.375 438.015625 637.53125 442.175781 642.625 442.175781 L 730.507812 442.175781 C 731.8125 446.082031 733.292969 449.953125 735.136719 453.609375 L 737.085938 457.515625 C 741.855469 467.105469 744.386719 477.816406 744.386719 488.488281 L 744.386719 516.277344 L 725.882812 516.277344 L 725.882812 493.121094 C 725.882812 475.246094 711.359375 460.699219 693.507812 460.699219 Z M 513.117188 358.8125 L 513.117188 303.238281 L 531.617188 303.238281 L 531.617188 384.898438 C 520.882812 381.066406 513.117188 370.863281 513.117188 358.8125 Z M 476.113281 252.292969 C 476.113281 245.3125 478.425781 238.402344 482.582031 232.828125 L 507.550781 199.503906 C 511.089844 194.800781 516.476562 192.089844 522.367188 192.089844 C 528.257812 192.089844 533.640625 194.800781 537.183594 199.503906 L 562.152344 232.828125 C 566.308594 238.402344 568.621094 245.3125 568.621094 252.292969 C 568.621094 270.167969 554.09375 284.714844 536.242188 284.714844 L 508.488281 284.714844 C 490.640625 284.714844 476.113281 270.167969 476.113281 252.292969 Z M 651.878906 331.027344 L 670.378906 331.027344 L 670.378906 340.289062 C 670.378906 351.9375 677.605469 361.925781 687.832031 366.050781 C 684.617188 377.84375 673.921875 386.601562 661.128906 386.601562 L 651.878906 386.601562 Z M 707.382812 331.027344 L 707.382812 340.289062 C 707.382812 345.390625 703.226562 349.550781 698.132812 349.550781 C 693.035156 349.550781 688.882812 345.390625 688.882812 340.289062 L 688.882812 331.027344 Z M 781.390625 331.027344 L 781.390625 340.289062 C 781.390625 345.390625 777.234375 349.550781 772.136719 349.550781 C 767.042969 349.550781 762.886719 345.390625 762.886719 340.289062 L 762.886719 331.027344 Z M 651.878906 405.125 L 661.128906 405.125 C 683.964844 405.125 702.867188 388.445312 706.585938 366.628906 C 717.753906 363.011719 725.882812 352.625 725.882812 340.289062 L 725.882812 331.027344 L 744.386719 331.027344 L 744.386719 340.289062 C 744.386719 352.335938 752.15625 362.539062 762.886719 366.375 L 762.886719 377.339844 C 762.886719 382.441406 758.730469 386.601562 753.636719 386.601562 C 738.316406 386.601562 725.882812 399.046875 725.882812 414.386719 C 725.882812 417.5 726.101562 420.574219 726.425781 423.652344 L 651.878906 423.652344 Z M 818.390625 423.652344 L 745.074219 423.652344 C 744.675781 420.574219 744.386719 417.5 744.386719 414.386719 C 744.386719 409.285156 748.542969 405.125 753.636719 405.125 C 768.957031 405.125 781.390625 392.679688 781.390625 377.339844 L 781.390625 366.375 C 792.121094 362.539062 799.890625 352.335938 799.890625 340.289062 L 799.890625 331.027344 L 818.390625 331.027344 Z M 846.144531 368.074219 C 851.238281 368.074219 855.394531 372.238281 855.394531 377.339844 L 855.394531 395.863281 C 855.394531 400.964844 851.238281 405.125 846.144531 405.125 L 836.894531 405.125 L 836.894531 368.074219 Z M 651.878906 645.949219 C 651.878906 656.152344 643.566406 664.476562 633.375 664.476562 C 623.1875 664.476562 614.875 656.152344 614.875 645.949219 C 614.875 635.746094 623.1875 627.425781 633.375 627.425781 C 643.566406 627.425781 651.878906 635.746094 651.878906 645.949219 Z M 846.144531 571.851562 L 809.140625 571.851562 L 809.140625 442.175781 L 827.644531 442.175781 C 832.738281 442.175781 836.894531 438.015625 836.894531 432.914062 L 836.894531 423.652344 L 846.144531 423.652344 C 861.464844 423.652344 873.898438 411.203125 873.898438 395.863281 L 873.898438 377.339844 C 873.898438 361.996094 861.464844 349.550781 846.144531 349.550781 L 836.894531 349.550781 L 836.894531 331.027344 L 855.394531 331.027344 C 860.492188 331.027344 864.648438 326.863281 864.648438 321.761719 L 864.648438 247.664062 C 864.648438 242.5625 860.492188 238.402344 855.394531 238.402344 C 850.300781 238.402344 846.144531 242.5625 846.144531 247.664062 L 846.144531 312.5 L 624.125 312.5 L 624.125 145.777344 L 846.144531 145.777344 L 846.144531 210.613281 C 846.144531 215.714844 850.300781 219.875 855.394531 219.875 C 860.492188 219.875 864.648438 215.714844 864.648438 210.613281 L 864.648438 136.511719 C 864.648438 131.410156 860.492188 127.25 855.394531 127.25 L 614.875 127.25 C 609.777344 127.25 605.625 131.410156 605.625 136.511719 L 605.625 321.761719 C 605.625 326.863281 609.777344 331.027344 614.875 331.027344 L 633.375 331.027344 L 633.375 386.601562 L 550.117188 386.601562 L 550.117188 301.25 C 571.4375 295.207031 587.121094 275.558594 587.121094 252.292969 C 587.121094 241.332031 583.507812 230.476562 576.929688 221.722656 L 551.960938 188.398438 C 544.914062 178.953125 534.148438 173.5625 522.367188 173.5625 C 510.585938 173.5625 499.816406 178.953125 492.769531 188.398438 L 467.800781 221.722656 C 461.222656 230.476562 457.609375 241.332031 457.609375 252.292969 C 457.609375 275.558594 473.292969 295.207031 494.613281 301.25 L 494.613281 358.8125 C 494.613281 381.316406 510.730469 400.097656 532.050781 404.222656 C 536.242188 446.300781 571.800781 479.226562 614.875 479.226562 L 693.507812 479.226562 C 701.167969 479.226562 707.382812 485.449219 707.382812 493.121094 L 707.382812 516.277344 C 702.289062 516.277344 698.132812 520.4375 698.132812 525.539062 L 698.132812 571.851562 L 679.628906 571.851562 L 679.628906 507.011719 C 679.628906 501.910156 675.472656 497.75 670.378906 497.75 C 665.285156 497.75 661.128906 501.910156 661.128906 507.011719 L 661.128906 571.851562 L 624.125 571.851562 C 603.707031 571.851562 587.121094 588.457031 587.121094 608.902344 L 587.121094 618.164062 C 587.121094 623.265625 591.277344 627.425781 596.371094 627.425781 L 601.503906 627.425781 C 598.324219 632.890625 596.371094 639.183594 596.371094 645.949219 C 596.371094 666.394531 612.960938 683 633.375 683 C 653.792969 683 670.378906 666.394531 670.378906 645.949219 C 670.378906 639.183594 668.429688 632.890625 665.25 627.425781 L 753.636719 627.425781 C 758.730469 627.425781 762.886719 623.265625 762.886719 618.164062 C 762.886719 613.0625 758.730469 608.902344 753.636719 608.902344 L 605.625 608.902344 C 605.625 598.699219 613.933594 590.375 624.125 590.375 L 846.144531 590.375 C 856.335938 590.375 864.648438 598.699219 864.648438 608.902344 L 790.640625 608.902344 C 785.542969 608.902344 781.390625 613.0625 781.390625 618.164062 C 781.390625 623.265625 785.542969 627.425781 790.640625 627.425781 L 805.023438 627.425781 C 801.84375 632.890625 799.890625 639.183594 799.890625 645.949219 C 799.890625 666.394531 816.476562 683 836.894531 683 C 857.3125 683 873.898438 666.394531 873.898438 645.949219 C 873.898438 639.183594 871.945312 632.890625 868.765625 627.425781 L 873.898438 627.425781 C 878.992188 627.425781 883.148438 623.265625 883.148438 618.164062 L 883.148438 608.902344 C 883.148438 588.457031 866.5625 571.851562 846.144531 571.851562 "/>
</g>
<path style=" stroke:none;fill-rule:nonzero;fill:rgb(100%,51.759338%,0%);fill-opacity:1;" d="M 775.96875 219.875 L 769.429688 213.328125 C 765.816406 209.707031 759.960938 209.707031 756.347656 213.328125 L 736.148438 233.550781 L 714.789062 205.042969 C 713.164062 202.90625 710.707031 201.566406 708.03125 201.386719 C 707.816406 201.351562 707.597656 201.351562 707.382812 201.351562 C 704.925781 201.351562 702.578125 202.328125 700.84375 204.066406 L 685.050781 219.875 L 661.128906 219.875 L 661.128906 182.824219 L 809.140625 182.824219 L 809.140625 219.875 Z M 651.878906 256.925781 C 646.78125 256.925781 642.625 261.085938 642.625 266.1875 L 642.625 284.714844 C 642.625 289.816406 646.78125 293.976562 651.878906 293.976562 L 818.390625 293.976562 C 823.488281 293.976562 827.644531 289.816406 827.644531 284.714844 L 827.644531 173.5625 C 827.644531 168.460938 823.488281 164.300781 818.390625 164.300781 L 651.878906 164.300781 C 646.78125 164.300781 642.625 168.460938 642.625 173.5625 L 642.625 229.136719 C 642.625 234.238281 646.78125 238.402344 651.878906 238.402344 L 688.882812 238.402344 C 691.339844 238.402344 693.6875 237.425781 695.421875 235.6875 L 706.371094 224.722656 L 727.726562 253.234375 C 729.351562 255.371094 731.8125 256.707031 734.484375 256.890625 C 737.230469 257.105469 739.796875 256.128906 741.675781 254.210938 L 762.886719 232.972656 L 765.597656 235.6875 C 767.332031 237.425781 769.679688 238.402344 772.136719 238.402344 L 809.140625 238.402344 L 809.140625 275.449219 L 661.128906 275.449219 L 661.128906 266.1875 C 661.128906 261.085938 656.972656 256.925781 651.878906 256.925781 "/>
<g clip-path="url(#clip3)" clip-rule="nonzero">
<path style=" stroke:none;fill-rule:nonzero;fill:rgb(100%,51.759338%,0%);fill-opacity:1;" d="M 855.9375 645.949219 C 855.9375 656.152344 847.628906 664.476562 837.4375 664.476562 C 827.246094 664.476562 818.933594 656.152344 818.933594 645.949219 C 818.933594 635.746094 827.246094 627.425781 837.4375 627.425781 C 847.628906 627.425781 855.9375 635.746094 855.9375 645.949219 Z M 772.679688 571.851562 L 772.679688 525.539062 C 772.679688 520.4375 768.527344 516.277344 763.429688 516.277344 L 763.429688 488.488281 C 763.429688 474.957031 760.25 461.386719 754.179688 449.265625 L 752.226562 445.359375 C 751.722656 444.3125 751.324219 443.226562 750.890625 442.175781 L 791.183594 442.175781 L 791.183594 571.851562 Z M 717.175781 571.851562 L 717.175781 534.800781 L 754.179688 534.800781 L 754.179688 571.851562 Z M 694.050781 460.699219 L 615.417969 460.699219 C 582.859375 460.699219 555.902344 436.496094 551.421875 405.125 L 633.917969 405.125 L 633.917969 432.914062 C 633.917969 438.015625 638.074219 442.175781 643.167969 442.175781 L 731.050781 442.175781 C 732.355469 446.082031 733.835938 449.953125 735.679688 453.609375 L 737.628906 457.515625 C 742.398438 467.105469 744.929688 477.816406 744.929688 488.488281 L 744.929688 516.277344 L 726.425781 516.277344 L 726.425781 493.121094 C 726.425781 475.246094 711.902344 460.699219 694.050781 460.699219 Z M 513.660156 358.8125 L 513.660156 303.238281 L 532.160156 303.238281 L 532.160156 384.898438 C 521.425781 381.066406 513.660156 370.863281 513.660156 358.8125 Z M 476.65625 252.292969 C 476.65625 245.3125 478.96875 238.402344 483.125 232.828125 L 508.09375 199.503906 C 511.636719 194.800781 517.019531 192.089844 522.910156 192.089844 C 528.800781 192.089844 534.183594 194.800781 537.726562 199.503906 L 562.695312 232.828125 C 566.851562 238.402344 569.164062 245.3125 569.164062 252.292969 C 569.164062 270.167969 554.636719 284.714844 536.785156 284.714844 L 509.03125 284.714844 C 491.183594 284.714844 476.65625 270.167969 476.65625 252.292969 Z M 652.421875 331.027344 L 670.921875 331.027344 L 670.921875 340.289062 C 670.921875 351.9375 678.148438 361.925781 688.375 366.050781 C 685.160156 377.84375 674.464844 386.601562 661.671875 386.601562 L 652.421875 386.601562 Z M 707.925781 331.027344 L 707.925781 340.289062 C 707.925781 345.390625 703.769531 349.550781 698.675781 349.550781 C 693.578125 349.550781 689.425781 345.390625 689.425781 340.289062 L 689.425781 331.027344 Z M 781.933594 331.027344 L 781.933594 340.289062 C 781.933594 345.390625 777.777344 349.550781 772.679688 349.550781 C 767.585938 349.550781 763.429688 345.390625 763.429688 340.289062 L 763.429688 331.027344 Z M 652.421875 405.125 L 661.671875 405.125 C 684.507812 405.125 703.410156 388.445312 707.128906 366.628906 C 718.296875 363.011719 726.425781 352.625 726.425781 340.289062 L 726.425781 331.027344 L 744.929688 331.027344 L 744.929688 340.289062 C 744.929688 352.335938 752.699219 362.539062 763.429688 366.375 L 763.429688 377.339844 C 763.429688 382.441406 759.273438 386.601562 754.179688 386.601562 C 738.859375 386.601562 726.425781 399.046875 726.425781 414.386719 C 726.425781 417.5 726.644531 420.574219 726.96875 423.652344 L 652.421875 423.652344 Z M 818.933594 423.652344 L 745.617188 423.652344 C 745.21875 420.574219 744.929688 417.5 744.929688 414.386719 C 744.929688 409.285156 749.085938 405.125 754.179688 405.125 C 769.5 405.125 781.933594 392.679688 781.933594 377.339844 L 781.933594 366.375 C 792.664062 362.539062 800.433594 352.335938 800.433594 340.289062 L 800.433594 331.027344 L 818.933594 331.027344 Z M 846.6875 368.074219 C 851.78125 368.074219 855.9375 372.238281 855.9375 377.339844 L 855.9375 395.863281 C 855.9375 400.964844 851.78125 405.125 846.6875 405.125 L 837.4375 405.125 L 837.4375 368.074219 Z M 652.421875 645.949219 C 652.421875 656.152344 644.109375 664.476562 633.917969 664.476562 C 623.730469 664.476562 615.417969 656.152344 615.417969 645.949219 C 615.417969 635.746094 623.730469 627.425781 633.917969 627.425781 C 644.109375 627.425781 652.421875 635.746094 652.421875 645.949219 Z M 846.6875 571.851562 L 809.683594 571.851562 L 809.683594 442.175781 L 828.1875 442.175781 C 833.28125 442.175781 837.4375 438.015625 837.4375 432.914062 L 837.4375 423.652344 L 846.6875 423.652344 C 862.007812 423.652344 874.441406 411.203125 874.441406 395.863281 L 874.441406 377.339844 C 874.441406 361.996094 862.007812 349.550781 846.6875 349.550781 L 837.4375 349.550781 L 837.4375 331.027344 L 855.9375 331.027344 C 861.035156 331.027344 865.191406 326.863281 865.191406 321.761719 L 865.191406 247.664062 C 865.191406 242.5625 861.035156 238.402344 855.9375 238.402344 C 850.84375 238.402344 846.6875 242.5625 846.6875 247.664062 L 846.6875 312.5 L 624.667969 312.5 L 624.667969 145.777344 L 846.6875 145.777344 L 846.6875 210.613281 C 846.6875 215.714844 850.84375 219.875 855.9375 219.875 C 861.035156 219.875 865.191406 215.714844 865.191406 210.613281 L 865.191406 136.511719 C 865.191406 131.410156 861.035156 127.25 855.9375 127.25 L 615.417969 127.25 C 610.320312 127.25 606.167969 131.410156 606.167969 136.511719 L 606.167969 321.761719 C 606.167969 326.863281 610.320312 331.027344 615.417969 331.027344 L 633.917969 331.027344 L 633.917969 386.601562 L 550.660156 386.601562 L 550.660156 301.25 C 571.980469 295.207031 587.664062 275.558594 587.664062 252.292969 C 587.664062 241.332031 584.050781 230.476562 577.476562 221.722656 L 552.503906 188.398438 C 545.457031 178.953125 534.691406 173.5625 522.910156 173.5625 C 511.128906 173.5625 500.359375 178.953125 493.3125 188.398438 L 468.34375 221.722656 C 461.765625 230.476562 458.152344 241.332031 458.152344 252.292969 C 458.152344 275.558594 473.835938 295.207031 495.15625 301.25 L 495.15625 358.8125 C 495.15625 381.316406 511.273438 400.097656 532.59375 404.222656 C 536.785156 446.300781 572.34375 479.226562 615.417969 479.226562 L 694.050781 479.226562 C 701.710938 479.226562 707.925781 485.449219 707.925781 493.121094 L 707.925781 516.277344 C 702.832031 516.277344 698.675781 520.4375 698.675781 525.539062 L 698.675781 571.851562 L 680.171875 571.851562 L 680.171875 507.011719 C 680.171875 501.910156 676.015625 497.75 670.921875 497.75 C 665.828125 497.75 661.671875 501.910156 661.671875 507.011719 L 661.671875 571.851562 L 624.667969 571.851562 C 604.25 571.851562 587.664062 588.457031 587.664062 608.902344 L 587.664062 618.164062 C 587.664062 623.265625 591.820312 627.425781 596.914062 627.425781 L 602.046875 627.425781 C 598.867188 632.890625 596.914062 639.183594 596.914062 645.949219 C 596.914062 666.394531 613.503906 683 633.917969 683 C 654.335938 683 670.921875 666.394531 670.921875 645.949219 C 670.921875 639.183594 668.972656 632.890625 665.792969 627.425781 L 754.179688 627.425781 C 759.273438 627.425781 763.429688 623.265625 763.429688 618.164062 C 763.429688 613.0625 759.273438 608.902344 754.179688 608.902344 L 606.167969 608.902344 C 606.167969 598.699219 614.476562 590.375 624.667969 590.375 L 846.6875 590.375 C 856.878906 590.375 865.191406 598.699219 865.191406 608.902344 L 791.183594 608.902344 C 786.085938 608.902344 781.933594 613.0625 781.933594 618.164062 C 781.933594 623.265625 786.085938 627.425781 791.183594 627.425781 L 805.566406 627.425781 C 802.386719 632.890625 800.433594 639.183594 800.433594 645.949219 C 800.433594 666.394531 817.019531 683 837.4375 683 C 857.855469 683 874.441406 666.394531 874.441406 645.949219 C 874.441406 639.183594 872.488281 632.890625 869.308594 627.425781 L 874.441406 627.425781 C 879.535156 627.425781 883.691406 623.265625 883.691406 618.164062 L 883.691406 608.902344 C 883.691406 588.457031 867.105469 571.851562 846.6875 571.851562 "/>
</g>
</g>
</svg>
