<?xml version="1.0" encoding="UTF-8"?>
<svg xmlns="http://www.w3.org/2000/svg" xmlns:xlink="http://www.w3.org/1999/xlink" width="1440pt" height="809.999993pt" viewBox="0 0 1440 809.999993" version="1.2">
<defs>
<clipPath id="clip1">
  <path d="M 783 196 L 884.535156 196 L 884.535156 361.488281 L 783 361.488281 Z M 783 196 "/>
</clipPath>
<clipPath id="clip2">
  <path d="M 455 252 L 742 252 L 742 590.972656 L 455 590.972656 Z M 455 252 "/>
</clipPath>
<clipPath id="clip3">
  <path d="M 634 162.757812 L 747 162.757812 L 747 307 L 634 307 Z M 634 162.757812 "/>
</clipPath>
<clipPath id="clip4">
  <path d="M 526 331 L 675 331 L 675 515 L 526 515 Z M 526 331 "/>
</clipPath>
<clipPath id="clip5">
  <path d="M 580.117188 308.269531 L 693.320312 353.632812 L 619.644531 537.480469 L 506.441406 492.117188 Z M 580.117188 308.269531 "/>
</clipPath>
<clipPath id="clip6">
  <path d="M 580.117188 308.269531 L 693.320312 353.632812 L 619.644531 537.480469 L 506.441406 492.117188 Z M 580.117188 308.269531 "/>
</clipPath>
<clipPath id="clip7">
  <path d="M 723 429 L 840.277344 429 L 840.277344 618.847656 L 723 618.847656 Z M 723 429 "/>
</clipPath>
</defs>
<g id="surface1">
<path style=" stroke:none;fill-rule:nonzero;fill:rgb(100%,99.21875%,97.24884%);fill-opacity:1;" d="M 981.515625 399.652344 C 981.515625 414.078125 968.945312 425.785156 955.535156 425.785156 L 737.621094 425.785156 C 733.851562 425.785156 730.078125 424.949219 726.726562 423.484375 C 731.125 428.085938 737.203125 430.800781 743.90625 430.800781 L 961.820312 430.800781 C 975.019531 430.800781 985.914062 419.929688 985.914062 406.761719 L 985.914062 189.757812 C 985.914062 183.695312 983.609375 178.257812 980.046875 174.078125 C 981.097656 176.792969 981.515625 179.722656 981.515625 182.648438 Z M 981.515625 399.652344 "/>
<path style=" stroke:none;fill-rule:nonzero;fill:rgb(64.309692%,77.648926%,22.349548%);fill-opacity:1;" d="M 737.621094 423.695312 L 955.113281 423.695312 C 968.316406 423.695312 979.210938 412.824219 979.210938 399.652344 L 979.210938 182.648438 C 979.210938 169.476562 968.316406 158.605469 955.113281 158.605469 L 737.621094 158.605469 C 724.421875 158.605469 713.527344 169.476562 713.527344 182.648438 L 713.527344 399.652344 C 713.527344 413.03125 724.421875 423.695312 737.621094 423.695312 Z M 737.621094 423.695312 "/>
<path style=" stroke:none;fill-rule:nonzero;fill:rgb(100%,100%,100%);fill-opacity:1;" d="M 977.324219 168.851562 C 972.714844 161.53125 964.542969 156.515625 955.113281 156.515625 L 737.621094 156.515625 C 723.164062 156.515625 711.429688 168.222656 711.429688 182.648438 L 711.429688 399.652344 C 711.429688 408.222656 715.621094 415.75 721.90625 420.558594 C 726.515625 427.875 734.6875 432.894531 744.117188 432.894531 L 961.609375 432.894531 C 976.066406 432.894531 987.800781 421.1875 987.800781 406.761719 L 987.800781 189.757812 C 987.800781 181.183594 983.609375 173.660156 977.324219 168.851562 Z M 713.527344 399.652344 L 713.527344 182.648438 C 713.527344 169.476562 724.421875 158.605469 737.621094 158.605469 L 955.113281 158.605469 C 968.316406 158.605469 979.210938 169.476562 979.210938 182.648438 L 979.210938 399.652344 C 979.210938 412.824219 968.316406 423.695312 955.113281 423.695312 L 737.621094 423.695312 C 724.421875 423.695312 713.527344 413.03125 713.527344 399.652344 Z M 985.914062 406.761719 C 985.914062 419.929688 974.808594 430.800781 961.609375 430.800781 L 744.117188 430.800781 C 737.414062 430.800781 731.335938 428.085938 726.9375 423.484375 C 730.289062 424.949219 733.851562 425.785156 737.832031 425.785156 L 955.324219 425.785156 C 969.78125 425.785156 981.515625 414.078125 981.515625 399.652344 L 981.515625 182.648438 C 981.515625 179.722656 980.886719 176.792969 980.046875 174.078125 C 983.609375 178.257812 985.914062 183.695312 985.914062 189.757812 Z M 985.914062 406.761719 "/>
<path style=" stroke:none;fill-rule:nonzero;fill:rgb(100%,99.21875%,97.24884%);fill-opacity:1;" d="M 965.707031 383.339844 C 965.707031 397.761719 953.132812 409.472656 939.722656 409.472656 L 721.8125 409.472656 C 718.039062 409.472656 714.269531 408.632812 710.917969 407.171875 C 715.316406 411.769531 721.394531 414.488281 728.097656 414.488281 L 946.011719 414.488281 C 959.210938 414.488281 970.105469 403.617188 970.105469 390.445312 L 970.105469 173.441406 C 970.105469 167.378906 967.800781 161.945312 964.238281 157.761719 C 965.285156 160.480469 965.707031 163.40625 965.707031 166.335938 Z M 965.707031 383.339844 "/>
<path style=" stroke:none;fill-rule:nonzero;fill:rgb(64.309692%,77.648926%,22.349548%);fill-opacity:1;" d="M 721.8125 407.378906 L 939.304688 407.378906 C 952.503906 407.378906 963.402344 396.507812 963.402344 383.339844 L 963.402344 166.335938 C 963.402344 153.164062 952.503906 142.292969 939.304688 142.292969 L 721.8125 142.292969 C 708.613281 142.292969 697.714844 153.164062 697.714844 166.335938 L 697.714844 383.339844 C 697.714844 396.71875 708.613281 407.378906 721.8125 407.378906 Z M 721.8125 407.378906 "/>
<path style=" stroke:none;fill-rule:nonzero;fill:rgb(100%,100%,100%);fill-opacity:1;" d="M 961.515625 152.535156 C 956.90625 145.21875 948.734375 140.203125 939.304688 140.203125 L 721.8125 140.203125 C 707.355469 140.203125 695.621094 151.910156 695.621094 166.335938 L 695.621094 383.339844 C 695.621094 391.910156 699.8125 399.4375 706.097656 404.246094 C 710.707031 411.5625 718.878906 416.578125 728.308594 416.578125 L 945.800781 416.578125 C 960.257812 416.578125 971.992188 404.871094 971.992188 390.445312 L 971.992188 173.441406 C 971.992188 164.871094 967.800781 157.34375 961.515625 152.535156 Z M 697.714844 383.339844 L 697.714844 166.335938 C 697.714844 153.164062 708.613281 142.292969 721.8125 142.292969 L 939.304688 142.292969 C 952.503906 142.292969 963.402344 153.164062 963.402344 166.335938 L 963.402344 383.339844 C 963.402344 396.507812 952.503906 407.378906 939.304688 407.378906 L 721.8125 407.378906 C 708.613281 407.378906 697.714844 396.71875 697.714844 383.339844 Z M 970.105469 390.445312 C 970.105469 403.617188 959 414.488281 945.800781 414.488281 L 728.308594 414.488281 C 721.601562 414.488281 715.527344 411.769531 711.125 407.171875 C 714.480469 408.632812 718.039062 409.472656 722.023438 409.472656 L 939.515625 409.472656 C 953.972656 409.472656 965.707031 397.761719 965.707031 383.339844 L 965.707031 166.335938 C 965.707031 163.40625 965.078125 160.480469 964.238281 157.761719 C 967.800781 161.945312 970.105469 167.378906 970.105469 173.441406 Z M 970.105469 390.445312 "/>
<g clip-path="url(#clip1)" clip-rule="nonzero">
<path style=" stroke:none;fill-rule:nonzero;fill:rgb(100%,100%,100%);fill-opacity:1;" d="M 884.519531 239.613281 C 884.519531 238.449219 884.003906 237.34375 883.113281 236.605469 L 836.277344 197.433594 C 835.109375 196.464844 833.488281 196.257812 832.125 196.902344 C 830.753906 197.542969 829.875 198.929688 829.875 200.449219 L 829.875 270.414062 L 789.4375 236.605469 C 787.785156 235.222656 785.328125 235.445312 783.945312 237.105469 C 782.5625 238.765625 782.789062 241.234375 784.445312 242.625 L 827.679688 278.777344 L 784.445312 314.929688 C 782.789062 316.316406 782.5625 318.789062 783.945312 320.449219 C 785.320312 322.109375 787.785156 322.332031 789.4375 320.949219 L 829.875 287.140625 L 829.875 357.101562 C 829.875 358.625 830.753906 360.011719 832.125 360.652344 C 832.652344 360.898438 833.214844 361.023438 833.777344 361.023438 C 834.675781 361.023438 835.558594 360.714844 836.277344 360.117188 L 883.113281 320.949219 C 884.003906 320.207031 884.519531 319.105469 884.519531 317.941406 C 884.519531 316.78125 884.003906 315.679688 883.113281 314.929688 L 839.878906 278.777344 L 883.113281 242.625 C 884.003906 241.875 884.519531 240.773438 884.519531 239.613281 Z M 874.519531 317.941406 L 837.679688 348.746094 L 837.679688 287.140625 Z M 837.679688 270.414062 L 837.679688 208.808594 L 874.519531 239.613281 L 837.679688 270.414062 "/>
</g>
<path style=" stroke:none;fill-rule:nonzero;fill:rgb(100%,99.21875%,97.24884%);fill-opacity:1;" d="M 735.363281 156.515625 C 734.578125 156.515625 733.796875 156.554688 733.015625 156.632812 C 732.234375 156.707031 731.460938 156.824219 730.691406 156.976562 C 729.921875 157.128906 729.164062 157.320312 728.414062 157.546875 C 727.664062 157.773438 726.925781 158.039062 726.203125 158.335938 C 725.476562 158.636719 724.769531 158.972656 724.078125 159.34375 C 723.386719 159.710938 722.714844 160.113281 722.0625 160.550781 C 721.414062 160.984375 720.785156 161.453125 720.175781 161.949219 C 719.570312 162.445312 718.992188 162.972656 718.4375 163.527344 C 717.882812 164.082031 717.355469 164.660156 716.859375 165.265625 C 716.363281 165.871094 715.894531 166.5 715.460938 167.152344 C 715.023438 167.804688 714.621094 168.476562 714.253906 169.167969 C 713.882812 169.859375 713.550781 170.566406 713.25 171.289062 C 712.949219 172.015625 712.683594 172.753906 712.457031 173.503906 C 712.230469 174.253906 712.039062 175.011719 711.886719 175.78125 C 711.734375 176.550781 711.621094 177.324219 711.542969 178.105469 C 711.464844 178.882812 711.425781 179.667969 711.425781 180.449219 C 711.425781 181.234375 711.464844 182.015625 711.542969 182.796875 C 711.621094 183.574219 711.734375 184.351562 711.886719 185.121094 C 712.039062 185.886719 712.230469 186.648438 712.457031 187.398438 C 712.683594 188.148438 712.949219 188.886719 713.25 189.609375 C 713.550781 190.332031 713.882812 191.042969 714.253906 191.734375 C 714.621094 192.425781 715.023438 193.09375 715.460938 193.746094 C 715.894531 194.398438 716.363281 195.027344 716.859375 195.632812 C 717.355469 196.238281 717.882812 196.820312 718.4375 197.375 C 718.992188 197.929688 719.570312 198.453125 720.175781 198.953125 C 720.785156 199.449219 721.414062 199.914062 722.0625 200.351562 C 722.714844 200.785156 723.386719 201.1875 724.078125 201.558594 C 724.769531 201.925781 725.476562 202.261719 726.203125 202.5625 C 726.925781 202.863281 727.664062 203.125 728.414062 203.355469 C 729.164062 203.582031 729.921875 203.773438 730.691406 203.925781 C 731.460938 204.078125 732.234375 204.191406 733.015625 204.269531 C 733.796875 204.347656 734.578125 204.382812 735.363281 204.382812 C 736.144531 204.382812 736.925781 204.347656 737.707031 204.269531 C 738.488281 204.191406 739.261719 204.078125 740.03125 203.925781 C 740.800781 203.773438 741.558594 203.582031 742.308594 203.355469 C 743.058594 203.125 743.796875 202.863281 744.519531 202.5625 C 745.246094 202.261719 745.953125 201.925781 746.644531 201.558594 C 747.335938 201.1875 748.007812 200.785156 748.660156 200.351562 C 749.308594 199.914062 749.9375 199.449219 750.546875 198.953125 C 751.152344 198.453125 751.730469 197.929688 752.285156 197.375 C 752.839844 196.820312 753.367188 196.238281 753.863281 195.632812 C 754.359375 195.027344 754.828125 194.398438 755.261719 193.746094 C 755.699219 193.09375 756.101562 192.425781 756.46875 191.734375 C 756.839844 191.042969 757.175781 190.332031 757.472656 189.609375 C 757.773438 188.886719 758.039062 188.148438 758.265625 187.398438 C 758.492188 186.648438 758.683594 185.886719 758.835938 185.121094 C 758.988281 184.351562 759.105469 183.574219 759.179688 182.796875 C 759.257812 182.015625 759.296875 181.234375 759.296875 180.449219 C 759.296875 179.667969 759.257812 178.882812 759.179688 178.105469 C 759.105469 177.324219 758.988281 176.550781 758.835938 175.78125 C 758.683594 175.011719 758.492188 174.253906 758.265625 173.503906 C 758.039062 172.753906 757.773438 172.015625 757.472656 171.289062 C 757.175781 170.566406 756.839844 169.859375 756.46875 169.167969 C 756.101562 168.476562 755.699219 167.804688 755.261719 167.152344 C 754.828125 166.5 754.359375 165.871094 753.863281 165.265625 C 753.367188 164.660156 752.839844 164.082031 752.285156 163.527344 C 751.730469 162.972656 751.152344 162.445312 750.546875 161.949219 C 749.9375 161.453125 749.308594 160.984375 748.660156 160.550781 C 748.007812 160.113281 747.335938 159.710938 746.644531 159.34375 C 745.953125 158.972656 745.246094 158.636719 744.519531 158.335938 C 743.796875 158.039062 743.058594 157.773438 742.308594 157.546875 C 741.558594 157.320312 740.800781 157.128906 740.03125 156.976562 C 739.261719 156.824219 738.488281 156.707031 737.707031 156.632812 C 736.925781 156.554688 736.144531 156.515625 735.363281 156.515625 Z M 735.363281 156.515625 "/>
<path style=" stroke:none;fill-rule:nonzero;fill:rgb(100%,99.21875%,97.24884%);fill-opacity:1;" d="M 658.34375 287.875 C 652.976562 287.875 648.113281 291.050781 645.957031 295.964844 C 644.503906 299.273438 644.421875 302.953125 645.734375 306.316406 C 647.042969 309.683594 649.589844 312.34375 652.894531 313.796875 C 654.625 314.558594 656.453125 314.945312 658.324219 314.945312 C 663.691406 314.945312 668.554688 311.769531 670.710938 306.851562 C 673.710938 300.019531 670.597656 292.023438 663.773438 289.023438 C 662.042969 288.261719 660.214844 287.875 658.34375 287.875 Z M 636.324219 587.933594 C 634.152344 587.933594 632.039062 587.488281 630.039062 586.609375 L 467.535156 515.148438 C 463.710938 513.464844 460.769531 510.394531 459.253906 506.5 C 457.738281 502.601562 457.828125 498.347656 459.511719 494.519531 L 545.929688 297.710938 C 547.78125 293.496094 551.375 290.328125 555.785156 289.007812 L 667.324219 255.765625 C 668.777344 255.332031 670.277344 255.113281 671.789062 255.113281 C 677.726562 255.113281 683.246094 258.570312 685.851562 263.914062 L 736.816406 368.613281 C 738.832031 372.757812 738.925781 377.554688 737.074219 381.765625 L 650.652344 578.578125 C 648.15625 584.257812 642.53125 587.933594 636.324219 587.933594 "/>
<g clip-path="url(#clip2)" clip-rule="nonzero">
<path style=" stroke:none;fill-rule:nonzero;fill:rgb(100%,51.759338%,0%);fill-opacity:1;" d="M 658.324219 311.976562 C 656.863281 311.976562 655.4375 311.671875 654.085938 311.082031 C 651.503906 309.945312 649.519531 307.871094 648.496094 305.242188 C 647.472656 302.613281 647.53125 299.742188 648.667969 297.15625 C 650.355469 293.316406 654.152344 290.839844 658.34375 290.835938 C 659.800781 290.835938 661.230469 291.140625 662.578125 291.738281 C 665.164062 292.871094 667.148438 294.945312 668.171875 297.574219 C 669.195312 300.203125 669.132812 303.078125 668 305.660156 C 666.316406 309.496094 662.519531 311.976562 658.324219 311.976562 Z M 671.789062 252.148438 C 669.996094 252.148438 668.210938 252.410156 666.480469 252.925781 L 554.941406 286.164062 C 549.691406 287.734375 545.421875 291.507812 543.21875 296.519531 L 456.796875 493.328125 C 452.667969 502.726562 456.953125 513.730469 466.34375 517.859375 L 628.847656 589.320312 C 631.222656 590.367188 633.738281 590.898438 636.324219 590.898438 C 643.703125 590.898438 650.398438 586.53125 653.367188 579.769531 L 739.785156 382.957031 C 741.988281 377.949219 741.875 372.242188 739.480469 367.320312 L 688.507812 262.613281 C 685.414062 256.257812 678.851562 252.148438 671.789062 252.148438 Z M 658.324219 317.90625 C 664.664062 317.90625 670.710938 314.222656 673.425781 308.042969 C 677.085938 299.703125 673.296875 289.972656 664.964844 286.304688 C 662.804688 285.359375 660.554688 284.910156 658.34375 284.910156 C 652.003906 284.910156 645.960938 288.589844 643.246094 294.769531 C 639.578125 303.109375 643.371094 312.84375 651.699219 316.507812 C 653.863281 317.460938 656.109375 317.90625 658.324219 317.90625 M 671.789062 258.082031 C 676.535156 258.082031 681.015625 260.757812 683.1875 265.210938 L 734.152344 369.914062 C 735.78125 373.265625 735.859375 377.164062 734.363281 380.574219 L 647.941406 577.382812 C 645.851562 582.136719 641.199219 584.972656 636.324219 584.972656 C 634.621094 584.972656 632.890625 584.625 631.234375 583.894531 L 468.726562 512.433594 C 462.316406 509.613281 459.402344 502.128906 462.222656 495.710938 L 548.640625 298.90625 C 550.140625 295.496094 553.0625 292.914062 556.632812 291.847656 L 668.171875 258.609375 C 669.371094 258.253906 670.589844 258.082031 671.789062 258.082031 "/>
</g>
<path style=" stroke:none;fill-rule:nonzero;fill:rgb(100%,99.21875%,97.24884%);fill-opacity:1;" d="M 651.367188 303.09375 C 647.585938 303.09375 644.167969 302.660156 641.210938 301.800781 C 639.839844 301.40625 638.945312 300.089844 639.082031 298.667969 C 639.109375 298.414062 639.269531 297.023438 640.097656 294.65625 C 640.804688 292.625 641.71875 291.289062 641.816406 291.144531 C 642.378906 290.339844 643.292969 289.878906 644.242188 289.878906 C 644.519531 289.878906 644.796875 289.917969 645.070312 289.996094 C 646.941406 290.539062 649.082031 290.804688 651.601562 290.804688 C 653.007812 290.804688 654.503906 290.726562 656.175781 290.558594 C 672.933594 288.894531 687.347656 283.261719 696.757812 274.710938 C 711.671875 261.144531 729.460938 231.332031 730.945312 211.730469 C 732.164062 195.753906 721.484375 187.3125 715.011719 183.707031 C 708.207031 179.914062 700.261719 177.910156 692.042969 177.910156 C 682.832031 177.910156 674.226562 180.488281 667.824219 185.164062 C 646.078125 201.042969 649.21875 240.667969 651.101562 264.34375 C 651.210938 265.734375 650.328125 267.015625 648.992188 267.417969 L 642.734375 269.285156 C 642.457031 269.363281 642.175781 269.40625 641.886719 269.40625 C 641.269531 269.40625 640.65625 269.210938 640.140625 268.835938 C 639.394531 268.289062 638.945312 267.425781 638.929688 266.503906 L 638.894531 265.042969 C 636.816406 238.859375 633.378906 195.121094 660.597656 175.246094 C 669.039062 169.082031 680.226562 165.6875 692.097656 165.6875 C 702.4375 165.6875 712.425781 168.210938 720.980469 172.984375 C 736.347656 181.550781 744.441406 196.015625 743.179688 212.660156 C 741.429688 235.714844 721.65625 268.648438 705.007812 283.789062 C 693.65625 294.105469 676.746094 300.847656 657.382812 302.769531 C 655.988281 302.910156 653.84375 303.09375 651.367188 303.09375 "/>
<g clip-path="url(#clip3)" clip-rule="nonzero">
<path style=" stroke:none;fill-rule:nonzero;fill:rgb(100%,51.759338%,0%);fill-opacity:1;" d="M 692.097656 162.722656 C 679.601562 162.722656 667.796875 166.320312 658.851562 172.851562 C 630.324219 193.683594 633.8125 238.378906 635.933594 265.191406 L 635.964844 266.566406 C 636.003906 268.414062 636.902344 270.140625 638.398438 271.230469 C 639.425781 271.980469 640.644531 272.371094 641.890625 272.371094 C 642.457031 272.371094 643.023438 272.289062 643.578125 272.125 L 649.835938 270.257812 C 652.519531 269.460938 654.273438 266.894531 654.050781 264.105469 C 652.222656 241.050781 649.160156 202.460938 669.570312 187.554688 C 675.472656 183.246094 683.453125 180.878906 692.042969 180.878906 C 699.648438 180.878906 707.292969 182.800781 713.570312 186.292969 C 720.71875 190.28125 729.027344 197.890625 727.996094 211.507812 C 726.578125 230.128906 708.972656 259.59375 694.765625 272.515625 C 685.820312 280.644531 672.011719 286.007812 655.882812 287.609375 C 654.308594 287.761719 652.90625 287.839844 651.601562 287.839844 C 649.363281 287.839844 647.496094 287.613281 645.890625 287.152344 C 645.347656 286.992188 644.792969 286.914062 644.242188 286.914062 C 642.34375 286.914062 640.519531 287.832031 639.390625 289.449219 C 639.179688 289.738281 638.121094 291.320312 637.300781 293.679688 C 636.390625 296.300781 636.179688 297.941406 636.136719 298.378906 C 635.863281 301.222656 637.648438 303.855469 640.386719 304.648438 C 643.609375 305.582031 647.304688 306.054688 651.367188 306.054688 C 653.976562 306.054688 656.21875 305.863281 657.679688 305.722656 C 677.671875 303.738281 695.183594 296.730469 706.996094 285.984375 C 724.417969 270.140625 744.304688 236.984375 746.132812 212.882812 C 747.484375 195.039062 738.84375 179.546875 722.417969 170.394531 C 713.421875 165.375 702.941406 162.722656 692.097656 162.722656 Z M 692.097656 168.648438 C 701.585938 168.648438 711.234375 170.941406 719.539062 175.570312 C 733.855469 183.550781 741.394531 196.988281 740.222656 212.433594 C 738.527344 234.796875 719.25 266.832031 703.015625 281.597656 C 692.132812 291.488281 675.828125 297.960938 657.089844 299.820312 C 655.660156 299.960938 653.652344 300.128906 651.367188 300.128906 C 648.488281 300.128906 645.171875 299.867188 642.035156 298.953125 C 642.035156 298.953125 642.144531 297.785156 642.894531 295.628906 C 643.488281 293.925781 644.242188 292.847656 644.242188 292.847656 C 646.441406 293.480469 648.878906 293.769531 651.601562 293.769531 C 653.128906 293.769531 654.75 293.679688 656.464844 293.507812 C 673.859375 291.78125 688.875 285.882812 698.75 276.902344 C 714.074219 262.964844 732.363281 232.230469 733.902344 211.953125 C 735.242188 194.332031 723.542969 185.070312 716.453125 181.113281 C 709.039062 176.988281 700.453125 174.945312 692.042969 174.945312 C 682.503906 174.945312 673.191406 177.574219 666.082031 182.765625 C 643.03125 199.597656 646.222656 240.34375 648.144531 264.578125 L 641.886719 266.441406 L 641.859375 264.894531 C 639.828125 239.335938 636.433594 196.5625 662.347656 177.640625 C 670.511719 171.675781 681.199219 168.652344 692.097656 168.648438 "/>
</g>
<g clip-path="url(#clip4)" clip-rule="nonzero">
<g clip-path="url(#clip5)" clip-rule="nonzero">
<g clip-path="url(#clip6)" clip-rule="nonzero">
<path style=" stroke:none;fill-rule:nonzero;fill:rgb(100%,51.759338%,0%);fill-opacity:1;" d="M 673.800781 402.292969 C 674.320312 401 674.234375 399.546875 673.578125 398.328125 L 639.011719 334.050781 C 638.144531 332.457031 636.4375 331.503906 634.636719 331.613281 C 632.832031 331.714844 631.238281 332.863281 630.5625 334.550781 L 599.464844 412.148438 L 569.613281 356.664062 C 568.394531 354.398438 565.566406 353.550781 563.296875 354.777344 C 561.023438 356.003906 560.175781 358.84375 561.394531 361.121094 L 593.308594 420.449219 L 529.257812 441.320312 C 526.804688 442.125 525.453125 444.765625 526.25 447.21875 C 527.039062 449.671875 529.675781 451.015625 532.125 450.21875 L 592.03125 430.703125 L 560.933594 508.304688 C 560.257812 509.992188 560.613281 511.921875 561.851562 513.238281 C 562.328125 513.75 562.898438 514.140625 563.519531 514.390625 C 564.515625 514.789062 565.636719 514.835938 566.699219 514.496094 L 636.085938 491.882812 C 637.40625 491.453125 638.46875 490.460938 638.988281 489.167969 C 639.503906 487.882812 639.417969 486.429688 638.761719 485.203125 L 606.847656 425.875 L 670.902344 405.003906 C 672.222656 404.570312 673.289062 403.578125 673.800781 402.292969 Z M 627.886719 484.71875 L 573.308594 502.503906 L 600.691406 434.175781 Z M 608.128906 415.621094 L 635.511719 347.289062 L 662.703125 397.84375 L 608.128906 415.621094 "/>
</g>
</g>
</g>
<path style=" stroke:none;fill-rule:nonzero;fill:rgb(0%,24.308777%,32.159424%);fill-opacity:1;" d="M 781.664062 376.75 C 779.265625 376.75 776.867188 376.808594 774.472656 376.925781 C 772.078125 377.042969 769.6875 377.21875 767.300781 377.453125 C 764.914062 377.691406 762.535156 377.984375 760.164062 378.335938 C 757.792969 378.6875 755.429688 379.097656 753.078125 379.566406 C 750.726562 380.03125 748.386719 380.558594 746.058594 381.140625 C 743.734375 381.722656 741.421875 382.363281 739.128906 383.058594 C 736.835938 383.753906 734.558594 384.507812 732.300781 385.316406 C 730.042969 386.121094 727.804688 386.984375 725.589844 387.902344 C 723.375 388.820312 721.183594 389.792969 719.015625 390.816406 C 716.847656 391.84375 714.707031 392.921875 712.589844 394.050781 C 710.476562 395.179688 708.390625 396.363281 706.335938 397.59375 C 704.277344 398.828125 702.25 400.109375 700.257812 401.441406 C 698.265625 402.773438 696.304688 404.15625 694.378906 405.585938 C 692.453125 407.011719 690.5625 408.488281 688.707031 410.007812 C 686.855469 411.53125 685.039062 413.097656 683.261719 414.707031 C 681.484375 416.316406 679.75 417.96875 678.054688 419.664062 C 676.359375 421.359375 674.707031 423.097656 673.09375 424.875 C 671.484375 426.652344 669.917969 428.464844 668.398438 430.320312 C 666.875 432.171875 665.402344 434.0625 663.972656 435.988281 C 662.542969 437.914062 661.164062 439.875 659.832031 441.867188 C 658.5 443.863281 657.21875 445.886719 655.984375 447.945312 C 654.75 450.003906 653.570312 452.085938 652.441406 454.203125 C 651.308594 456.316406 650.230469 458.457031 649.207031 460.625 C 648.179688 462.792969 647.210938 464.984375 646.292969 467.203125 C 645.375 469.417969 644.511719 471.652344 643.703125 473.910156 C 642.894531 476.167969 642.144531 478.445312 641.449219 480.738281 C 640.75 483.035156 640.113281 485.34375 639.527344 487.671875 C 638.945312 489.996094 638.421875 492.335938 637.953125 494.6875 C 637.484375 497.039062 637.074219 499.402344 636.722656 501.773438 C 636.371094 504.144531 636.078125 506.527344 635.84375 508.910156 C 635.609375 511.296875 635.433594 513.6875 635.316406 516.085938 C 635.195312 518.480469 635.136719 520.875 635.136719 523.273438 C 635.136719 525.671875 635.195312 528.070312 635.316406 530.464844 C 635.433594 532.859375 635.609375 535.25 635.84375 537.636719 C 636.078125 540.023438 636.371094 542.402344 636.722656 544.773438 C 637.074219 547.144531 637.484375 549.507812 637.953125 551.859375 C 638.421875 554.210938 638.945312 556.550781 639.527344 558.875 C 640.113281 561.203125 640.75 563.511719 641.449219 565.808594 C 642.144531 568.101562 642.894531 570.378906 643.703125 572.636719 C 644.511719 574.894531 645.375 577.132812 646.292969 579.347656 C 647.210938 581.5625 648.179688 583.753906 649.207031 585.921875 C 650.230469 588.089844 651.308594 590.230469 652.441406 592.34375 C 653.570312 594.460938 654.75 596.546875 655.984375 598.601562 C 657.21875 600.660156 658.5 602.683594 659.832031 604.679688 C 661.164062 606.671875 662.542969 608.632812 663.972656 610.558594 C 665.402344 612.484375 666.875 614.375 668.398438 616.226562 C 669.917969 618.082031 671.484375 619.898438 673.09375 621.671875 C 674.707031 623.449219 676.359375 625.1875 678.054688 626.882812 C 679.75 628.578125 681.484375 630.230469 683.261719 631.839844 C 685.039062 633.453125 686.855469 635.019531 688.707031 636.539062 C 690.5625 638.058594 692.453125 639.535156 694.378906 640.964844 C 696.304688 642.390625 698.265625 643.773438 700.257812 645.105469 C 702.25 646.4375 704.277344 647.71875 706.335938 648.953125 C 708.390625 650.183594 710.476562 651.367188 712.589844 652.496094 C 714.707031 653.628906 716.847656 654.707031 719.015625 655.730469 C 721.183594 656.753906 723.375 657.726562 725.589844 658.644531 C 727.804688 659.5625 730.042969 660.425781 732.300781 661.234375 C 734.558594 662.042969 736.835938 662.792969 739.128906 663.488281 C 741.421875 664.183594 743.734375 664.824219 746.058594 665.40625 C 748.386719 665.988281 750.726562 666.515625 753.078125 666.984375 C 755.429688 667.449219 757.792969 667.859375 760.164062 668.210938 C 762.535156 668.5625 764.914062 668.859375 767.300781 669.09375 C 769.6875 669.328125 772.078125 669.503906 774.472656 669.621094 C 776.867188 669.738281 779.265625 669.796875 781.664062 669.796875 C 784.0625 669.796875 786.457031 669.738281 788.851562 669.621094 C 791.246094 669.503906 793.636719 669.328125 796.023438 669.09375 C 798.410156 668.859375 800.789062 668.5625 803.164062 668.210938 C 805.535156 667.859375 807.894531 667.449219 810.25 666.984375 C 812.601562 666.515625 814.9375 665.988281 817.265625 665.40625 C 819.589844 664.824219 821.902344 664.183594 824.195312 663.488281 C 826.492188 662.792969 828.765625 662.039062 831.023438 661.234375 C 833.28125 660.425781 835.519531 659.5625 837.734375 658.644531 C 839.949219 657.726562 842.140625 656.753906 844.308594 655.730469 C 846.476562 654.707031 848.617188 653.628906 850.734375 652.496094 C 852.847656 651.367188 854.933594 650.183594 856.992188 648.953125 C 859.046875 647.71875 861.074219 646.4375 863.066406 645.105469 C 865.0625 643.773438 867.019531 642.390625 868.949219 640.964844 C 870.875 639.535156 872.761719 638.058594 874.617188 636.539062 C 876.46875 635.019531 878.285156 633.453125 880.0625 631.839844 C 881.839844 630.230469 883.574219 628.578125 885.269531 626.882812 C 886.96875 625.1875 888.621094 623.449219 890.230469 621.671875 C 891.839844 619.898438 893.40625 618.082031 894.925781 616.226562 C 896.449219 614.375 897.925781 612.484375 899.351562 610.558594 C 900.78125 608.632812 902.160156 606.671875 903.492188 604.679688 C 904.824219 602.683594 906.109375 600.660156 907.339844 598.601562 C 908.574219 596.546875 909.753906 594.460938 910.886719 592.34375 C 912.015625 590.230469 913.09375 588.089844 914.121094 585.921875 C 915.144531 583.753906 916.117188 581.5625 917.035156 579.347656 C 917.953125 577.132812 918.8125 574.894531 919.621094 572.636719 C 920.429688 570.378906 921.183594 568.101562 921.878906 565.808594 C 922.574219 563.511719 923.214844 561.203125 923.796875 558.875 C 924.378906 556.550781 924.902344 554.210938 925.371094 551.859375 C 925.839844 549.507812 926.25 547.144531 926.601562 544.773438 C 926.953125 542.402344 927.246094 540.023438 927.480469 537.636719 C 927.714844 535.25 927.894531 532.859375 928.011719 530.464844 C 928.128906 528.070312 928.1875 525.671875 928.1875 523.273438 C 928.1875 520.875 928.128906 518.480469 928.011719 516.085938 C 927.894531 513.6875 927.714844 511.296875 927.480469 508.910156 C 927.246094 506.527344 926.953125 504.144531 926.601562 501.773438 C 926.25 499.402344 925.839844 497.039062 925.371094 494.6875 C 924.902344 492.335938 924.378906 489.996094 923.796875 487.671875 C 923.214844 485.34375 922.574219 483.035156 921.878906 480.738281 C 921.183594 478.445312 920.429688 476.167969 919.621094 473.910156 C 918.8125 471.652344 917.953125 469.417969 917.035156 467.203125 C 916.117188 464.984375 915.144531 462.792969 914.121094 460.625 C 913.09375 458.457031 912.015625 456.316406 910.886719 454.203125 C 909.753906 452.085938 908.574219 450.003906 907.339844 447.945312 C 906.109375 445.886719 904.824219 443.863281 903.492188 441.867188 C 902.160156 439.875 900.78125 437.914062 899.351562 435.988281 C 897.925781 434.0625 896.449219 432.171875 894.925781 430.320312 C 893.40625 428.464844 891.839844 426.652344 890.230469 424.875 C 888.621094 423.097656 886.96875 421.359375 885.269531 419.664062 C 883.574219 417.96875 881.839844 416.316406 880.0625 414.707031 C 878.285156 413.097656 876.46875 411.53125 874.617188 410.007812 C 872.761719 408.488281 870.875 407.011719 868.949219 405.585938 C 867.019531 404.15625 865.0625 402.773438 863.066406 401.441406 C 861.074219 400.109375 859.046875 398.828125 856.992188 397.59375 C 854.933594 396.363281 852.847656 395.179688 850.734375 394.050781 C 848.617188 392.921875 846.476562 391.84375 844.308594 390.816406 C 842.140625 389.792969 839.949219 388.820312 837.734375 387.902344 C 835.519531 386.984375 833.28125 386.121094 831.023438 385.316406 C 828.765625 384.507812 826.492188 383.753906 824.195312 383.058594 C 821.902344 382.363281 819.589844 381.722656 817.265625 381.140625 C 814.9375 380.558594 812.601562 380.03125 810.25 379.566406 C 807.894531 379.097656 805.535156 378.6875 803.164062 378.335938 C 800.789062 377.984375 798.410156 377.691406 796.023438 377.453125 C 793.636719 377.21875 791.246094 377.042969 788.851562 376.925781 C 786.457031 376.808594 784.0625 376.75 781.664062 376.75 Z M 781.664062 376.75 "/>
<path style=" stroke:none;fill-rule:nonzero;fill:rgb(100%,100%,99.609375%);fill-opacity:1;" d="M 781.664062 393.109375 C 779.53125 393.109375 777.402344 393.160156 775.277344 393.265625 C 773.148438 393.371094 771.023438 393.527344 768.90625 393.738281 C 766.785156 393.945312 764.671875 394.207031 762.5625 394.519531 C 760.457031 394.832031 758.359375 395.195312 756.269531 395.609375 C 754.179688 396.027344 752.101562 396.492188 750.035156 397.011719 C 747.96875 397.527344 745.917969 398.097656 743.878906 398.714844 C 741.839844 399.332031 739.816406 400 737.8125 400.71875 C 735.804688 401.4375 733.820312 402.203125 731.851562 403.019531 C 729.882812 403.832031 727.9375 404.695312 726.011719 405.605469 C 724.085938 406.515625 722.183594 407.476562 720.304688 408.480469 C 718.425781 409.484375 716.570312 410.53125 714.746094 411.628906 C 712.917969 412.722656 711.117188 413.863281 709.347656 415.046875 C 707.574219 416.230469 705.835938 417.457031 704.125 418.726562 C 702.414062 419.992188 700.734375 421.304688 699.085938 422.65625 C 697.441406 424.007812 695.828125 425.398438 694.25 426.828125 C 692.671875 428.257812 691.128906 429.726562 689.621094 431.234375 C 688.117188 432.738281 686.648438 434.28125 685.21875 435.859375 C 683.785156 437.4375 682.394531 439.050781 681.042969 440.699219 C 679.691406 442.34375 678.382812 444.023438 677.113281 445.734375 C 675.84375 447.445312 674.617188 449.1875 673.433594 450.957031 C 672.25 452.730469 671.113281 454.527344 670.015625 456.355469 C 668.921875 458.183594 667.871094 460.035156 666.867188 461.914062 C 665.863281 463.792969 664.90625 465.695312 663.996094 467.621094 C 663.085938 469.546875 662.222656 471.492188 661.40625 473.460938 C 660.589844 475.429688 659.824219 477.417969 659.105469 479.421875 C 658.390625 481.429688 657.722656 483.449219 657.101562 485.488281 C 656.484375 487.527344 655.917969 489.582031 655.398438 491.648438 C 654.882812 493.714844 654.414062 495.789062 654 497.878906 C 653.582031 499.96875 653.21875 502.066406 652.90625 504.175781 C 652.59375 506.28125 652.335938 508.394531 652.125 510.515625 C 651.917969 512.636719 651.757812 514.757812 651.65625 516.886719 C 651.550781 519.015625 651.5 521.144531 651.5 523.273438 C 651.5 525.402344 651.550781 527.53125 651.65625 529.660156 C 651.757812 531.789062 651.917969 533.914062 652.125 536.03125 C 652.335938 538.152344 652.59375 540.265625 652.90625 542.371094 C 653.21875 544.480469 653.582031 546.578125 654 548.667969 C 654.414062 550.757812 654.882812 552.835938 655.398438 554.902344 C 655.917969 556.96875 656.484375 559.019531 657.101562 561.058594 C 657.722656 563.097656 658.390625 565.121094 659.105469 567.125 C 659.824219 569.128906 660.589844 571.117188 661.40625 573.085938 C 662.222656 575.054688 663.085938 577 663.996094 578.925781 C 664.90625 580.851562 665.863281 582.753906 666.867188 584.632812 C 667.871094 586.511719 668.921875 588.363281 670.015625 590.191406 C 671.113281 592.019531 672.25 593.816406 673.433594 595.589844 C 674.617188 597.359375 675.84375 599.101562 677.113281 600.8125 C 678.382812 602.523438 679.691406 604.203125 681.042969 605.847656 C 682.394531 607.496094 683.785156 609.109375 685.21875 610.6875 C 686.648438 612.265625 688.117188 613.808594 689.621094 615.3125 C 691.128906 616.820312 692.671875 618.289062 694.25 619.71875 C 695.828125 621.148438 697.441406 622.539062 699.085938 623.890625 C 700.734375 625.242188 702.414062 626.554688 704.125 627.824219 C 705.835938 629.089844 707.574219 630.316406 709.347656 631.5 C 711.117188 632.683594 712.917969 633.824219 714.746094 634.917969 C 716.570312 636.015625 718.425781 637.0625 720.304688 638.070312 C 722.183594 639.074219 724.085938 640.03125 726.011719 640.941406 C 727.9375 641.851562 729.882812 642.714844 731.851562 643.53125 C 733.820312 644.34375 735.804688 645.113281 737.8125 645.828125 C 739.816406 646.546875 741.839844 647.214844 743.878906 647.832031 C 745.917969 648.453125 747.96875 649.019531 750.035156 649.539062 C 752.101562 650.054688 754.179688 650.519531 756.269531 650.9375 C 758.359375 651.351562 760.457031 651.714844 762.5625 652.03125 C 764.671875 652.34375 766.785156 652.601562 768.90625 652.8125 C 771.023438 653.019531 773.148438 653.175781 775.277344 653.28125 C 777.402344 653.386719 779.53125 653.4375 781.664062 653.4375 C 783.792969 653.4375 785.921875 653.386719 788.050781 653.28125 C 790.175781 653.175781 792.300781 653.019531 794.421875 652.8125 C 796.539062 652.601562 798.65625 652.34375 800.761719 652.027344 C 802.867188 651.714844 804.96875 651.351562 807.054688 650.9375 C 809.144531 650.519531 811.222656 650.054688 813.289062 649.539062 C 815.355469 649.019531 817.410156 648.453125 819.449219 647.832031 C 821.484375 647.214844 823.507812 646.546875 825.515625 645.828125 C 827.519531 645.113281 829.507812 644.34375 831.472656 643.53125 C 833.441406 642.714844 835.390625 641.851562 837.316406 640.941406 C 839.242188 640.03125 841.144531 639.074219 843.023438 638.070312 C 844.902344 637.0625 846.753906 636.015625 848.582031 634.917969 C 850.40625 633.824219 852.207031 632.683594 853.976562 631.5 C 855.75 630.316406 857.492188 629.089844 859.203125 627.824219 C 860.914062 626.554688 862.589844 625.242188 864.238281 623.890625 C 865.882812 622.539062 867.496094 621.148438 869.074219 619.71875 C 870.652344 618.289062 872.195312 616.820312 873.703125 615.3125 C 875.210938 613.808594 876.675781 612.265625 878.109375 610.6875 C 879.539062 609.109375 880.929688 607.496094 882.28125 605.847656 C 883.632812 604.203125 884.941406 602.523438 886.210938 600.8125 C 887.480469 599.101562 888.707031 597.359375 889.890625 595.589844 C 891.074219 593.816406 892.214844 592.019531 893.308594 590.191406 C 894.402344 588.363281 895.453125 586.511719 896.457031 584.632812 C 897.460938 582.753906 898.417969 580.851562 899.328125 578.925781 C 900.242188 577 901.105469 575.054688 901.917969 573.085938 C 902.734375 571.117188 903.5 569.128906 904.21875 567.125 C 904.9375 565.121094 905.605469 563.097656 906.222656 561.058594 C 906.839844 559.019531 907.410156 556.96875 907.925781 554.902344 C 908.445312 552.835938 908.910156 550.757812 909.324219 548.667969 C 909.742188 546.578125 910.105469 544.480469 910.417969 542.371094 C 910.730469 540.265625 910.992188 538.152344 911.199219 536.03125 C 911.410156 533.914062 911.566406 531.789062 911.671875 529.660156 C 911.773438 527.53125 911.828125 525.402344 911.828125 523.273438 C 911.828125 521.144531 911.773438 519.015625 911.671875 516.886719 C 911.566406 514.757812 911.410156 512.636719 911.199219 510.515625 C 910.992188 508.394531 910.730469 506.28125 910.417969 504.175781 C 910.105469 502.066406 909.742188 499.96875 909.324219 497.878906 C 908.910156 495.789062 908.445312 493.714844 907.925781 491.648438 C 907.410156 489.582031 906.839844 487.527344 906.222656 485.488281 C 905.605469 483.449219 904.9375 481.429688 904.21875 479.421875 C 903.5 477.417969 902.734375 475.429688 901.917969 473.460938 C 901.105469 471.492188 900.242188 469.546875 899.328125 467.621094 C 898.417969 465.695312 897.460938 463.792969 896.457031 461.914062 C 895.453125 460.035156 894.402344 458.183594 893.308594 456.355469 C 892.214844 454.527344 891.074219 452.730469 889.890625 450.957031 C 888.707031 449.1875 887.480469 447.445312 886.210938 445.734375 C 884.941406 444.023438 883.632812 442.34375 882.28125 440.699219 C 880.929688 439.050781 879.539062 437.4375 878.109375 435.859375 C 876.675781 434.28125 875.210938 432.738281 873.703125 431.234375 C 872.195312 429.726562 870.652344 428.257812 869.074219 426.828125 C 867.496094 425.398438 865.882812 424.007812 864.238281 422.65625 C 862.589844 421.304688 860.914062 419.992188 859.203125 418.726562 C 857.492188 417.457031 855.75 416.230469 853.976562 415.046875 C 852.207031 413.863281 850.40625 412.722656 848.582031 411.628906 C 846.753906 410.53125 844.902344 409.484375 843.023438 408.480469 C 841.144531 407.476562 839.242188 406.515625 837.316406 405.605469 C 835.390625 404.695312 833.441406 403.832031 831.472656 403.019531 C 829.507812 402.203125 827.519531 401.4375 825.515625 400.71875 C 823.507812 400 821.484375 399.332031 819.449219 398.714844 C 817.410156 398.097656 815.355469 397.527344 813.289062 397.011719 C 811.222656 396.492188 809.144531 396.027344 807.054688 395.609375 C 804.96875 395.195312 802.867188 394.832031 800.761719 394.519531 C 798.65625 394.207031 796.539062 393.945312 794.421875 393.738281 C 792.300781 393.527344 790.175781 393.371094 788.050781 393.265625 C 785.921875 393.160156 783.792969 393.109375 781.664062 393.109375 Z M 781.664062 393.109375 "/>
<path style=" stroke:none;fill-rule:nonzero;fill:rgb(0%,24.308777%,32.159424%);fill-opacity:1;" d="M 781.664062 401.289062 C 779.667969 401.289062 777.671875 401.339844 775.675781 401.4375 C 773.683594 401.535156 771.691406 401.679688 769.707031 401.878906 C 767.71875 402.074219 765.738281 402.316406 763.765625 402.609375 C 761.789062 402.902344 759.824219 403.246094 757.863281 403.632812 C 755.90625 404.023438 753.960938 404.460938 752.023438 404.945312 C 750.085938 405.429688 748.164062 405.960938 746.253906 406.542969 C 744.34375 407.121094 742.445312 407.746094 740.566406 408.421875 C 738.6875 409.09375 736.824219 409.8125 734.980469 410.574219 C 733.136719 411.339844 731.3125 412.148438 729.507812 413 C 727.703125 413.855469 725.921875 414.753906 724.160156 415.695312 C 722.398438 416.632812 720.664062 417.617188 718.949219 418.644531 C 717.238281 419.671875 715.550781 420.738281 713.890625 421.847656 C 712.230469 422.957031 710.601562 424.105469 708.996094 425.296875 C 707.394531 426.484375 705.820312 427.710938 704.277344 428.980469 C 702.734375 430.246094 701.222656 431.550781 699.742188 432.890625 C 698.265625 434.230469 696.820312 435.605469 695.40625 437.019531 C 693.996094 438.429688 692.617188 439.875 691.277344 441.355469 C 689.9375 442.832031 688.632812 444.34375 687.367188 445.886719 C 686.101562 447.429688 684.875 449.003906 683.683594 450.609375 C 682.496094 452.210938 681.347656 453.84375 680.238281 455.503906 C 679.128906 457.164062 678.058594 458.847656 677.035156 460.5625 C 676.007812 462.273438 675.023438 464.011719 674.082031 465.769531 C 673.140625 467.53125 672.242188 469.3125 671.390625 471.117188 C 670.535156 472.921875 669.726562 474.75 668.964844 476.59375 C 668.199219 478.4375 667.480469 480.300781 666.808594 482.179688 C 666.136719 484.058594 665.511719 485.953125 664.929688 487.863281 C 664.351562 489.773438 663.820312 491.699219 663.335938 493.632812 C 662.847656 495.570312 662.410156 497.519531 662.023438 499.476562 C 661.632812 501.433594 661.292969 503.398438 661 505.375 C 660.707031 507.351562 660.460938 509.332031 660.265625 511.316406 C 660.070312 513.304688 659.921875 515.292969 659.824219 517.289062 C 659.726562 519.28125 659.679688 521.277344 659.679688 523.273438 C 659.679688 525.269531 659.726562 527.265625 659.824219 529.257812 C 659.921875 531.253906 660.070312 533.242188 660.265625 535.230469 C 660.460938 537.21875 660.707031 539.199219 661 541.171875 C 661.292969 543.148438 661.632812 545.113281 662.023438 547.070312 C 662.410156 549.03125 662.847656 550.976562 663.335938 552.914062 C 663.820312 554.851562 664.351562 556.773438 664.929688 558.683594 C 665.511719 560.59375 666.136719 562.488281 666.808594 564.367188 C 667.480469 566.25 668.199219 568.109375 668.964844 569.957031 C 669.726562 571.800781 670.535156 573.625 671.390625 575.429688 C 672.242188 577.234375 673.140625 579.015625 674.082031 580.777344 C 675.023438 582.539062 676.007812 584.273438 677.035156 585.984375 C 678.058594 587.699219 679.128906 589.382812 680.238281 591.042969 C 681.347656 592.703125 682.496094 594.335938 683.683594 595.941406 C 684.875 597.542969 686.101562 599.117188 687.367188 600.660156 C 688.632812 602.203125 689.9375 603.714844 691.277344 605.191406 C 692.617188 606.671875 693.996094 608.117188 695.40625 609.53125 C 696.820312 610.941406 698.265625 612.316406 699.742188 613.65625 C 701.222656 615 702.734375 616.300781 704.277344 617.570312 C 705.820312 618.835938 707.394531 620.0625 708.996094 621.253906 C 710.601562 622.441406 712.230469 623.589844 713.890625 624.699219 C 715.550781 625.808594 717.238281 626.875 718.949219 627.902344 C 720.664062 628.929688 722.398438 629.914062 724.160156 630.855469 C 725.921875 631.796875 727.703125 632.691406 729.507812 633.546875 C 731.3125 634.398438 733.136719 635.207031 734.980469 635.972656 C 736.824219 636.738281 738.6875 637.453125 740.566406 638.128906 C 742.445312 638.800781 744.34375 639.425781 746.253906 640.003906 C 748.164062 640.585938 750.085938 641.117188 752.023438 641.601562 C 753.960938 642.085938 755.90625 642.523438 757.863281 642.914062 C 759.824219 643.304688 761.789062 643.644531 763.765625 643.9375 C 765.738281 644.230469 767.71875 644.476562 769.707031 644.671875 C 771.691406 644.867188 773.683594 645.011719 775.675781 645.109375 C 777.671875 645.207031 779.667969 645.257812 781.664062 645.257812 C 783.660156 645.257812 785.652344 645.207031 787.648438 645.109375 C 789.640625 645.011719 791.632812 644.867188 793.621094 644.671875 C 795.605469 644.476562 797.585938 644.230469 799.5625 643.9375 C 801.535156 643.644531 803.503906 643.304688 805.460938 642.914062 C 807.417969 642.523438 809.367188 642.085938 811.300781 641.601562 C 813.238281 641.117188 815.164062 640.585938 817.074219 640.003906 C 818.984375 639.425781 820.878906 638.800781 822.757812 638.128906 C 824.636719 637.453125 826.5 636.738281 828.34375 635.972656 C 830.1875 635.207031 832.011719 634.398438 833.816406 633.546875 C 835.621094 632.691406 837.40625 631.796875 839.164062 630.855469 C 840.925781 629.914062 842.664062 628.929688 844.375 627.902344 C 846.085938 626.875 847.773438 625.808594 849.433594 624.699219 C 851.09375 623.589844 852.726562 622.441406 854.328125 621.253906 C 855.933594 620.0625 857.503906 618.835938 859.046875 617.570312 C 860.59375 616.300781 862.101562 615 863.582031 613.65625 C 865.0625 612.316406 866.507812 610.941406 867.917969 609.53125 C 869.332031 608.117188 870.707031 606.671875 872.046875 605.191406 C 873.386719 603.714844 874.691406 602.203125 875.957031 600.660156 C 877.222656 599.117188 878.453125 597.542969 879.640625 595.941406 C 880.832031 594.335938 881.980469 592.703125 883.089844 591.042969 C 884.199219 589.382812 885.265625 587.699219 886.292969 585.984375 C 887.316406 584.273438 888.300781 582.539062 889.242188 580.777344 C 890.183594 579.015625 891.082031 577.234375 891.933594 575.429688 C 892.789062 573.625 893.597656 571.800781 894.359375 569.957031 C 895.125 568.109375 895.84375 566.25 896.515625 564.367188 C 897.1875 562.488281 897.816406 560.59375 898.394531 558.683594 C 898.972656 556.773438 899.507812 554.851562 899.992188 552.914062 C 900.476562 550.976562 900.914062 549.03125 901.304688 547.070312 C 901.691406 545.113281 902.035156 543.148438 902.328125 541.171875 C 902.621094 539.199219 902.863281 537.21875 903.058594 535.230469 C 903.253906 533.242188 903.402344 531.253906 903.5 529.257812 C 903.597656 527.265625 903.648438 525.269531 903.648438 523.273438 C 903.648438 521.277344 903.597656 519.28125 903.5 517.289062 C 903.402344 515.292969 903.253906 513.304688 903.058594 511.316406 C 902.863281 509.332031 902.621094 507.351562 902.328125 505.375 C 902.035156 503.398438 901.691406 501.433594 901.304688 499.476562 C 900.914062 497.519531 900.476562 495.570312 899.992188 493.632812 C 899.507812 491.699219 898.972656 489.773438 898.394531 487.863281 C 897.816406 485.953125 897.1875 484.058594 896.515625 482.179688 C 895.84375 480.300781 895.125 478.4375 894.359375 476.59375 C 893.597656 474.75 892.789062 472.921875 891.933594 471.117188 C 891.082031 469.3125 890.183594 467.53125 889.242188 465.769531 C 888.300781 464.011719 887.316406 462.273438 886.292969 460.5625 C 885.265625 458.847656 884.199219 457.164062 883.089844 455.503906 C 881.980469 453.84375 880.832031 452.210938 879.640625 450.609375 C 878.453125 449.003906 877.222656 447.429688 875.957031 445.886719 C 874.691406 444.34375 873.386719 442.832031 872.046875 441.355469 C 870.707031 439.875 869.332031 438.429688 867.917969 437.019531 C 866.507812 435.605469 865.0625 434.230469 863.582031 432.890625 C 862.101562 431.550781 860.59375 430.246094 859.046875 428.980469 C 857.503906 427.710938 855.933594 426.484375 854.328125 425.296875 C 852.726562 424.105469 851.09375 422.957031 849.433594 421.847656 C 847.773438 420.738281 846.085938 419.671875 844.375 418.644531 C 842.664062 417.617188 840.925781 416.632812 839.164062 415.695312 C 837.40625 414.753906 835.621094 413.855469 833.816406 413 C 832.011719 412.148438 830.1875 411.339844 828.34375 410.574219 C 826.5 409.8125 824.636719 409.09375 822.757812 408.421875 C 820.878906 407.746094 818.984375 407.121094 817.074219 406.542969 C 815.164062 405.960938 813.238281 405.429688 811.300781 404.945312 C 809.367188 404.460938 807.417969 404.023438 805.460938 403.632812 C 803.503906 403.246094 801.535156 402.902344 799.5625 402.609375 C 797.585938 402.316406 795.605469 402.074219 793.621094 401.878906 C 791.632812 401.679688 789.640625 401.535156 787.648438 401.4375 C 785.652344 401.339844 783.660156 401.289062 781.664062 401.289062 Z M 781.664062 401.289062 "/>
<g clip-path="url(#clip7)" clip-rule="nonzero">
<path style=" stroke:none;fill-rule:nonzero;fill:rgb(100%,100%,100%);fill-opacity:1;" d="M 840.257812 478.613281 C 840.257812 477.269531 839.664062 476 838.640625 475.148438 L 784.75 430.078125 C 783.402344 428.964844 781.535156 428.722656 779.96875 429.46875 C 778.390625 430.203125 777.378906 431.800781 777.378906 433.550781 L 777.378906 514.050781 L 730.851562 475.148438 C 728.945312 473.558594 726.121094 473.8125 724.527344 475.722656 C 722.9375 477.632812 723.199219 480.476562 725.101562 482.074219 L 774.851562 523.671875 L 725.101562 565.269531 C 723.199219 566.867188 722.9375 569.710938 724.527344 571.621094 C 726.113281 573.53125 728.945312 573.785156 730.851562 572.195312 L 777.378906 533.296875 L 777.378906 613.796875 C 777.378906 615.546875 778.390625 617.140625 779.96875 617.878906 C 780.578125 618.164062 781.222656 618.308594 781.871094 618.308594 C 782.902344 618.308594 783.921875 617.949219 784.75 617.265625 L 838.640625 572.195312 C 839.664062 571.34375 840.257812 570.074219 840.257812 568.734375 C 840.257812 567.398438 839.664062 566.132812 838.640625 565.269531 L 788.890625 523.671875 L 838.640625 482.074219 C 839.664062 481.214844 840.257812 479.945312 840.257812 478.613281 Z M 828.75 568.734375 L 786.363281 604.179688 L 786.363281 533.296875 Z M 786.363281 514.050781 L 786.363281 443.167969 L 828.75 478.613281 L 786.363281 514.050781 "/>
</g>
</g>
</svg>
