<?xml version="1.0" encoding="UTF-8"?>
<svg xmlns="http://www.w3.org/2000/svg" xmlns:xlink="http://www.w3.org/1999/xlink" width="1440pt" height="809.999993pt" viewBox="0 0 1440 809.999993" version="1.2">
<defs>
<clipPath id="clip1">
  <path d="M 450.648438 135.984375 L 989 135.984375 L 989 673.734375 L 450.648438 673.734375 Z M 450.648438 135.984375 "/>
</clipPath>
</defs>
<g id="surface1">
<g clip-path="url(#clip1)" clip-rule="nonzero">
<path style=" stroke:none;fill-rule:nonzero;fill:rgb(0%,24.308777%,32.159424%);fill-opacity:1;" d="M 719.929688 135.984375 C 794.195312 135.984375 861.425781 166.085938 910.09375 214.742188 C 958.761719 263.410156 988.867188 330.636719 988.867188 404.890625 C 988.867188 479.144531 958.761719 546.371094 910.09375 595.03125 C 861.425781 643.695312 794.195312 673.796875 719.929688 673.796875 C 645.664062 673.796875 578.429688 643.695312 529.757812 595.03125 C 481.09375 546.371094 450.988281 479.144531 450.988281 404.890625 C 450.988281 330.636719 481.09375 263.410156 529.757812 214.742188 C 578.429688 166.085938 645.664062 135.984375 719.929688 135.984375 Z M 738.5 420.1875 L 738.46875 420.15625 L 723.320312 404.890625 L 738.953125 389.132812 L 738.964844 389.121094 L 796.304688 331.625 C 796.558594 331.402344 796.808594 331.175781 797.054688 330.9375 C 802.53125 325.472656 802.542969 316.605469 797.082031 311.128906 L 797.054688 311.15625 L 714.148438 228.027344 C 711.585938 225.035156 707.773438 223.136719 703.515625 223.136719 C 695.78125 223.136719 689.511719 229.40625 689.511719 237.144531 L 689.511719 370.816406 L 662.597656 343.691406 C 657.160156 338.21875 648.3125 338.195312 642.847656 343.640625 C 637.375 349.078125 637.351562 357.914062 642.789062 363.386719 L 683.96875 404.890625 L 643.273438 445.910156 C 637.832031 451.375 637.859375 460.21875 643.328125 465.65625 C 648.796875 471.09375 657.644531 471.070312 663.082031 465.605469 L 689.511719 438.96875 L 689.511719 572.640625 C 689.511719 580.375 695.78125 586.644531 703.515625 586.644531 C 707.777344 586.644531 711.589844 584.746094 714.160156 581.742188 L 796.304688 499.371094 C 796.558594 499.15625 796.808594 498.921875 797.054688 498.683594 C 802.53125 493.222656 802.542969 484.347656 797.082031 478.871094 L 797.054688 478.902344 Z M 717.523438 270.96875 L 717.523438 371.066406 L 767.441406 321.015625 Z M 717.523438 438.714844 L 717.523438 538.8125 L 767.441406 488.765625 Z M 717.523438 438.714844 "/>
</g>
</g>
</svg>
