<?xml version="1.0" encoding="UTF-8"?>
<svg xmlns="http://www.w3.org/2000/svg" xmlns:xlink="http://www.w3.org/1999/xlink" width="1440pt" height="809.999993pt" viewBox="0 0 1440 809.999993" version="1.2">
<defs>
<clipPath id="clip1">
  <path d="M 479.773438 191 L 708 191 L 708 671 L 479.773438 671 Z M 479.773438 191 "/>
</clipPath>
<clipPath id="clip2">
  <path d="M 520 138.453125 L 667 138.453125 L 667 168 L 520 168 Z M 520 138.453125 "/>
</clipPath>
</defs>
<g id="surface1">
<rect x="0" y="0" width="1440" height="809.999993" style="fill:rgb(100%,100%,100%);fill-opacity:1;stroke:none;"/>
<rect x="0" y="0" width="1440" height="809.999993" style="fill:rgb(100%,100%,100%);fill-opacity:1;stroke:none;"/>
<rect x="0" y="0" width="1440" height="809.999993" style="fill:rgb(100%,100%,100%);fill-opacity:1;stroke:none;"/>
<g clip-path="url(#clip1)" clip-rule="nonzero">
<path style=" stroke:none;fill-rule:nonzero;fill:rgb(0%,24.308777%,32.159424%);fill-opacity:1;" d="M 678.859375 191.175781 L 479.648438 191.175781 L 479.648438 670.789062 L 534.753906 670.789062 L 534.753906 588.8125 C 534.78125 588.015625 534.882812 587.230469 535.058594 586.453125 C 535.234375 585.675781 535.480469 584.921875 535.800781 584.191406 C 536.117188 583.460938 536.5 582.765625 536.949219 582.105469 C 537.398438 581.445312 537.902344 580.835938 538.46875 580.269531 C 539.03125 579.707031 539.640625 579.199219 540.300781 578.75 C 540.960938 578.300781 541.65625 577.917969 542.386719 577.597656 C 543.117188 577.277344 543.871094 577.03125 544.648438 576.851562 C 545.425781 576.675781 546.214844 576.570312 547.011719 576.542969 L 639.921875 576.542969 C 640.722656 576.5625 641.515625 576.660156 642.296875 576.832031 C 643.078125 577.003906 643.835938 577.25 644.570312 577.566406 C 645.304688 577.882812 646.003906 578.265625 646.664062 578.714844 C 647.324219 579.164062 647.9375 579.667969 648.503906 580.234375 C 649.070312 580.800781 649.574219 581.414062 650.023438 582.078125 C 650.472656 582.738281 650.855469 583.4375 651.167969 584.171875 C 651.484375 584.90625 651.726562 585.664062 651.898438 586.445312 C 652.066406 587.226562 652.164062 588.015625 652.183594 588.8125 L 652.183594 670.789062 L 707.476562 670.789062 L 707.476562 191.175781 Z M 546.824219 532.269531 L 510.6875 532.269531 L 510.6875 508.667969 L 546.90625 508.667969 Z M 546.824219 477.5 L 510.6875 477.5 L 510.6875 453.871094 L 546.90625 453.871094 Z M 546.824219 422.707031 L 510.6875 422.707031 L 510.6875 399.078125 L 546.90625 399.078125 Z M 546.824219 367.886719 L 510.6875 367.886719 L 510.6875 344.308594 L 546.90625 344.308594 Z M 546.824219 313.089844 L 510.6875 313.089844 L 510.6875 289.460938 L 546.90625 289.460938 Z M 546.824219 258.296875 L 510.6875 258.296875 L 510.6875 234.695312 L 546.90625 234.695312 Z M 617.207031 532.269531 L 569.675781 532.269531 L 569.675781 508.667969 L 617.289062 508.667969 Z M 617.207031 477.5 L 569.675781 477.5 L 569.675781 453.871094 L 617.289062 453.871094 Z M 617.207031 422.707031 L 569.675781 422.707031 L 569.675781 399.078125 L 617.289062 399.078125 Z M 617.207031 367.886719 L 569.675781 367.886719 L 569.675781 344.308594 L 617.289062 344.308594 Z M 617.207031 313.089844 L 569.675781 313.089844 L 569.675781 289.460938 L 617.289062 289.460938 Z M 617.207031 258.296875 L 569.675781 258.296875 L 569.675781 234.695312 L 617.289062 234.695312 Z M 676.707031 532.269531 L 640.058594 532.269531 L 640.058594 508.667969 L 676.785156 508.667969 Z M 676.707031 477.5 L 640.058594 477.5 L 640.058594 453.871094 L 676.785156 453.871094 Z M 676.707031 422.707031 L 640.058594 422.707031 L 640.058594 399.078125 L 676.785156 399.078125 Z M 676.707031 367.886719 L 640.058594 367.886719 L 640.058594 344.308594 L 676.785156 344.308594 Z M 676.707031 313.089844 L 640.058594 313.089844 L 640.058594 289.460938 L 676.785156 289.460938 Z M 676.707031 258.296875 L 640.058594 258.296875 L 640.058594 234.695312 L 676.785156 234.695312 Z M 676.707031 258.296875 "/>
</g>
<path style=" stroke:none;fill-rule:nonzero;fill:rgb(0%,24.308777%,32.159424%);fill-opacity:1;" d="M 731.835938 601.058594 L 833.453125 601.058594 L 833.453125 670.816406 L 731.835938 670.816406 Z M 731.835938 601.058594 "/>
<path style=" stroke:none;fill-rule:nonzero;fill:rgb(0%,24.308777%,32.159424%);fill-opacity:1;" d="M 857.945312 601.058594 L 959.398438 601.058594 L 959.398438 670.816406 L 857.945312 670.816406 Z M 857.945312 601.058594 "/>
<g clip-path="url(#clip2)" clip-rule="nonzero">
<path style=" stroke:none;fill-rule:nonzero;fill:rgb(0%,24.308777%,32.159424%);fill-opacity:1;" d="M 520.417969 137.539062 L 666.601562 137.539062 L 666.601562 167.867188 L 520.417969 167.867188 Z M 520.417969 137.539062 "/>
</g>
<path style=" stroke:none;fill-rule:nonzero;fill:rgb(0%,24.308777%,32.159424%);fill-opacity:1;" d="M 559.273438 601.058594 L 628.039062 601.058594 L 628.039062 670.816406 L 559.273438 670.816406 Z M 559.273438 601.058594 "/>
<path style=" stroke:none;fill-rule:nonzero;fill:rgb(0%,24.308777%,32.159424%);fill-opacity:1;" d="M 731.835938 367.886719 L 731.835938 576.542969 L 959.398438 576.542969 L 959.398438 367.886719 Z M 798.851562 532.269531 L 762.609375 532.269531 L 762.609375 508.667969 L 798.851562 508.667969 Z M 798.851562 477.5 L 762.609375 477.5 L 762.609375 453.871094 L 798.851562 453.871094 Z M 798.851562 422.707031 L 762.609375 422.707031 L 762.609375 399.078125 L 798.851562 399.078125 Z M 869.558594 532.269531 L 821.648438 532.269531 L 821.648438 508.667969 L 869.558594 508.667969 Z M 869.558594 477.5 L 821.648438 477.5 L 821.648438 453.871094 L 869.558594 453.871094 Z M 869.558594 422.707031 L 821.648438 422.707031 L 821.648438 399.078125 L 869.558594 399.078125 Z M 928.84375 532.269531 L 891.980469 532.269531 L 891.980469 508.667969 L 928.789062 508.667969 Z M 928.84375 477.5 L 891.980469 477.5 L 891.980469 453.871094 L 928.789062 453.871094 Z M 928.84375 422.707031 L 891.980469 422.707031 L 891.980469 399.078125 L 928.789062 399.078125 Z M 928.84375 422.707031 "/>
<path style=" stroke:none;fill-rule:nonzero;fill:rgb(100%,51.759338%,0%);fill-opacity:1;" d="M 731.835938 601.058594 L 833.453125 601.058594 L 833.453125 670.816406 L 731.835938 670.816406 Z M 731.835938 601.058594 "/>
<path style=" stroke:none;fill-rule:nonzero;fill:rgb(100%,51.759338%,0%);fill-opacity:1;" d="M 857.945312 601.058594 L 959.398438 601.058594 L 959.398438 670.816406 L 857.945312 670.816406 Z M 857.945312 601.058594 "/>
<path style=" stroke:none;fill-rule:nonzero;fill:rgb(100%,51.759338%,0%);fill-opacity:1;" d="M 731.835938 367.886719 L 731.835938 576.542969 L 959.398438 576.542969 L 959.398438 367.886719 Z M 798.851562 532.269531 L 762.609375 532.269531 L 762.609375 508.667969 L 798.851562 508.667969 Z M 798.851562 477.5 L 762.609375 477.5 L 762.609375 453.871094 L 798.851562 453.871094 Z M 798.851562 422.707031 L 762.609375 422.707031 L 762.609375 399.078125 L 798.851562 399.078125 Z M 869.558594 532.269531 L 821.648438 532.269531 L 821.648438 508.667969 L 869.558594 508.667969 Z M 869.558594 477.5 L 821.648438 477.5 L 821.648438 453.871094 L 869.558594 453.871094 Z M 869.558594 422.707031 L 821.648438 422.707031 L 821.648438 399.078125 L 869.558594 399.078125 Z M 928.84375 532.269531 L 891.980469 532.269531 L 891.980469 508.667969 L 928.789062 508.667969 Z M 928.84375 477.5 L 891.980469 477.5 L 891.980469 453.871094 L 928.789062 453.871094 Z M 928.84375 422.707031 L 891.980469 422.707031 L 891.980469 399.078125 L 928.789062 399.078125 Z M 928.84375 422.707031 "/>
</g>
</svg>
