<?xml version="1.0" encoding="UTF-8"?>
<svg xmlns="http://www.w3.org/2000/svg" xmlns:xlink="http://www.w3.org/1999/xlink" width="1440pt" height="809.999993pt" viewBox="0 0 1440 809.999993" version="1.2">
<defs>
<clipPath id="clip1">
  <path d="M 664 128.171875 L 759 128.171875 L 759 219 L 664 219 Z M 664 128.171875 "/>
</clipPath>
<clipPath id="clip2">
  <path d="M 906 349 L 996.671875 349 L 996.671875 444 L 906 444 Z M 906 349 "/>
</clipPath>
<clipPath id="clip3">
  <path d="M 681 591 L 776 591 L 776 681.671875 L 681 681.671875 Z M 681 591 "/>
</clipPath>
<clipPath id="clip4">
  <path d="M 443.171875 366 L 534 366 L 534 461 L 443.171875 461 Z M 443.171875 366 "/>
</clipPath>
<clipPath id="clip5">
  <path d="M 829 279.539062 L 856.503906 279.539062 L 856.503906 284 L 829 284 Z M 829 279.539062 "/>
</clipPath>
<clipPath id="clip6">
  <path d="M 842 514 L 856.503906 514 L 856.503906 514.289062 L 842 514.289062 Z M 842 514 "/>
</clipPath>
<clipPath id="clip7">
  <path d="M 572.253906 279.539062 L 599 279.539062 L 599 297 L 572.253906 297 Z M 572.253906 279.539062 "/>
</clipPath>
<clipPath id="clip8">
  <path d="M 664 279.539062 L 855 279.539062 L 855 501 L 664 501 Z M 664 279.539062 "/>
</clipPath>
<clipPath id="clip9">
  <path d="M 664 258 L 801.394531 258 L 801.394531 502 L 664 502 Z M 664 258 "/>
</clipPath>
</defs>
<g id="surface1">
<rect x="0" y="0" width="1440" height="809.999993" style="fill:rgb(100%,100%,100%);fill-opacity:1;stroke:none;"/>
<rect x="0" y="0" width="1440" height="809.999993" style="fill:rgb(100%,100%,100%);fill-opacity:1;stroke:none;"/>
<g clip-path="url(#clip1)" clip-rule="nonzero">
<path style=" stroke:none;fill-rule:nonzero;fill:rgb(100%,51.759338%,0%);fill-opacity:1;" d="M 758.820312 164.933594 C 758.960938 166.875 757.902344 168.289062 756.402344 169.523438 C 750.453125 174.429688 744.558594 179.425781 738.539062 184.242188 C 736.914062 185.550781 736.5625 186.785156 737.074219 188.761719 C 739 196.066406 740.710938 203.429688 742.527344 210.753906 C 743.214844 213.542969 742.5625 215.90625 740.269531 217.671875 C 738.257812 219.226562 735.554688 219.136719 733.015625 217.546875 C 726.359375 213.363281 719.707031 209.21875 713.105469 204.945312 C 711.675781 204.027344 710.707031 204.097656 709.292969 204.980469 C 702.976562 209.023438 696.550781 212.90625 690.179688 216.894531 C 688.378906 218.042969 686.453125 218.660156 684.355469 218.164062 C 681.125 217.390625 679.289062 214.160156 680.117188 210.859375 C 682.113281 202.882812 684.105469 194.902344 686.191406 186.941406 C 686.507812 185.726562 686.242188 185.035156 685.359375 184.296875 C 679.710938 179.546875 674.101562 174.78125 668.453125 170.035156 C 666.367188 168.289062 664.464844 166.523438 664.691406 163.414062 C 664.902344 160.414062 667.164062 158.050781 670.179688 157.855469 C 678.476562 157.308594 686.773438 156.726562 695.085938 156.230469 C 696.390625 156.160156 696.78125 155.457031 697.203125 154.449219 C 699.992188 147.566406 702.832031 140.71875 705.65625 133.835938 C 705.921875 133.21875 706.152344 132.5625 706.453125 131.964844 C 707.632812 129.617188 709.503906 128.308594 712.152344 128.34375 C 714.835938 128.382812 716.652344 129.738281 717.640625 132.191406 C 720.605469 139.589844 723.574219 146.984375 726.46875 154.414062 C 727.050781 155.898438 727.71875 156.601562 729.519531 156.707031 C 736.792969 157.097656 744.0625 157.714844 751.335938 158.28125 C 752.414062 158.367188 753.523438 158.492188 754.566406 158.792969 C 757.230469 159.53125 758.835938 161.878906 758.820312 164.933594 "/>
</g>
<path style=" stroke:none;fill-rule:nonzero;fill:rgb(100%,51.759338%,0%);fill-opacity:1;" d="M 917.351562 262.644531 C 916.078125 264.109375 914.316406 264.355469 912.390625 264.179688 C 904.714844 263.4375 897.019531 262.800781 889.359375 261.957031 C 887.273438 261.726562 886.164062 262.34375 885.121094 264.109375 C 881.328125 270.640625 877.339844 277.046875 873.4375 283.503906 C 871.953125 285.976562 869.820312 287.175781 866.941406 286.804688 C 864.4375 286.488281 862.582031 284.53125 861.910156 281.582031 C 860.148438 273.9375 858.363281 266.296875 856.742188 258.621094 C 856.371094 256.941406 855.628906 256.308594 854.003906 255.9375 C 846.679688 254.3125 839.390625 252.53125 832.066406 250.851562 C 829.984375 250.359375 828.183594 249.476562 827.054688 247.625 C 825.324219 244.800781 826.292969 241.214844 829.222656 239.453125 C 836.285156 235.234375 843.328125 230.980469 850.441406 226.832031 C 851.5 226.214844 851.832031 225.527344 851.726562 224.378906 C 851.074219 217.035156 850.476562 209.695312 849.839844 202.332031 C 849.59375 199.632812 849.503906 197.019531 851.851562 194.992188 C 854.128906 193.03125 857.410156 192.945312 859.6875 194.957031 C 865.9375 200.425781 872.21875 205.882812 878.433594 211.40625 C 879.421875 212.289062 880.179688 212.078125 881.1875 211.652344 C 888.035156 208.757812 894.898438 205.917969 901.746094 203.058594 C 902.382812 202.792969 903 202.492188 903.636719 202.296875 C 906.125 201.46875 908.367188 201.875 910.21875 203.761719 C 912.109375 205.6875 912.425781 207.929688 911.382812 210.382812 C 908.242188 217.707031 905.117188 225.03125 901.925781 232.320312 C 901.269531 233.785156 901.253906 234.757812 902.453125 236.097656 C 907.324219 241.515625 912.019531 247.09375 916.769531 252.636719 C 917.472656 253.464844 918.164062 254.332031 918.691406 255.285156 C 920.03125 257.683594 919.519531 260.488281 917.351562 262.644531 "/>
<g clip-path="url(#clip2)" clip-rule="nonzero">
<path style=" stroke:none;fill-rule:nonzero;fill:rgb(100%,51.759338%,0%);fill-opacity:1;" d="M 960.363281 443.820312 C 958.421875 443.960938 957.007812 442.902344 955.773438 441.402344 C 950.867188 435.453125 945.871094 429.558594 941.035156 423.539062 C 939.746094 421.914062 938.511719 421.5625 936.535156 422.074219 C 929.230469 424 921.867188 425.710938 914.542969 427.527344 C 911.753906 428.21875 909.390625 427.5625 907.625 425.269531 C 906.070312 423.257812 906.160156 420.558594 907.75 418.015625 C 911.933594 411.359375 916.078125 404.691406 920.351562 398.105469 C 921.269531 396.675781 921.199219 395.6875 920.316406 394.292969 C 916.273438 387.976562 912.390625 381.550781 908.402344 375.179688 C 907.273438 373.378906 906.636719 371.472656 907.132812 369.355469 C 907.90625 366.125 911.121094 364.289062 914.4375 365.117188 C 922.414062 367.113281 930.394531 369.109375 938.355469 371.191406 C 939.554688 371.507812 940.261719 371.242188 941 370.378906 C 945.75 364.710938 950.515625 359.101562 955.261719 353.453125 C 957.007812 351.371094 958.773438 349.464844 961.882812 349.691406 C 964.882812 349.90625 967.246094 352.164062 967.441406 355.183594 C 967.988281 363.476562 968.570312 371.773438 969.0625 380.085938 C 969.136719 381.390625 969.839844 381.78125 970.847656 382.203125 C 977.730469 384.992188 984.578125 387.835938 991.460938 390.65625 C 992.078125 390.921875 992.734375 391.152344 993.332031 391.453125 C 995.679688 392.636719 996.988281 394.503906 996.953125 397.152344 C 996.914062 399.835938 995.574219 401.652344 993.105469 402.640625 C 985.707031 405.609375 978.3125 408.574219 970.882812 411.46875 C 969.398438 412.050781 968.695312 412.71875 968.585938 414.519531 C 968.199219 421.792969 967.582031 429.0625 967.015625 436.335938 C 966.929688 437.414062 966.804688 438.523438 966.503906 439.566406 C 965.765625 442.230469 963.417969 443.835938 960.363281 443.820312 "/>
</g>
<path style=" stroke:none;fill-rule:nonzero;fill:rgb(100%,51.759338%,0%);fill-opacity:1;" d="M 862.652344 602.351562 C 861.1875 601.078125 860.941406 599.316406 861.117188 597.390625 C 861.859375 589.714844 862.496094 582.019531 863.339844 574.359375 C 863.570312 572.273438 862.953125 571.164062 861.1875 570.121094 C 854.65625 566.308594 848.25 562.339844 841.792969 558.4375 C 839.320312 556.957031 838.121094 554.820312 838.492188 551.941406 C 838.808594 549.4375 840.765625 547.582031 843.714844 546.894531 C 851.359375 545.148438 859 543.363281 866.675781 541.742188 C 868.355469 541.371094 868.988281 540.628906 869.359375 539.023438 C 870.984375 531.679688 872.765625 524.390625 874.445312 517.066406 C 874.9375 514.984375 875.835938 513.183594 877.671875 512.054688 C 880.496094 510.304688 884.082031 511.292969 885.84375 514.226562 C 890.0625 521.285156 894.316406 528.328125 898.464844 535.441406 C 899.082031 536.5 899.769531 536.835938 900.917969 536.726562 C 908.261719 536.074219 915.601562 535.476562 922.964844 534.839844 C 925.664062 534.59375 928.257812 534.523438 930.304688 536.851562 C 932.265625 539.128906 932.351562 542.410156 930.339844 544.6875 C 924.867188 550.9375 919.414062 557.21875 913.875 563.433594 C 913.007812 564.402344 913.21875 565.179688 913.644531 566.1875 C 916.539062 573.035156 919.378906 579.882812 922.238281 586.75 C 922.503906 587.382812 922.804688 588 923.015625 588.636719 C 923.828125 591.125 923.421875 593.367188 921.535156 595.21875 C 919.609375 597.089844 917.367188 597.425781 914.933594 596.386719 C 907.609375 593.242188 900.265625 590.121094 892.976562 586.925781 C 891.511719 586.273438 890.539062 586.253906 889.199219 587.453125 C 883.78125 592.324219 878.203125 597.019531 872.660156 601.769531 C 871.832031 602.472656 870.964844 603.164062 870.011719 603.691406 C 867.613281 605.035156 864.804688 604.523438 862.652344 602.351562 "/>
<g clip-path="url(#clip3)" clip-rule="nonzero">
<path style=" stroke:none;fill-rule:nonzero;fill:rgb(100%,51.759338%,0%);fill-opacity:1;" d="M 681.476562 645.363281 C 681.335938 643.421875 682.414062 642.011719 683.894531 640.773438 C 689.84375 635.867188 695.738281 630.871094 701.757812 626.054688 C 703.382812 624.75 703.734375 623.53125 703.222656 621.535156 C 701.296875 614.230469 699.585938 606.867188 697.769531 599.542969 C 697.078125 596.753906 697.734375 594.390625 700.027344 592.625 C 702.039062 591.074219 704.738281 591.160156 707.28125 592.75 C 713.933594 596.933594 720.605469 601.078125 727.191406 605.351562 C 728.621094 606.269531 729.589844 606.199219 731.003906 605.316406 C 737.320312 601.273438 743.746094 597.390625 750.117188 593.402344 C 751.917969 592.253906 753.824219 591.636719 755.941406 592.132812 C 759.171875 592.90625 761.007812 596.136719 760.179688 599.4375 C 758.183594 607.417969 756.1875 615.394531 754.105469 623.355469 C 753.789062 624.570312 754.054688 625.261719 754.9375 626 C 760.585938 630.75 766.195312 635.515625 771.84375 640.261719 C 773.925781 642.011719 775.832031 643.773438 775.605469 646.882812 C 775.390625 649.882812 773.132812 652.246094 770.113281 652.441406 C 761.820312 652.988281 753.523438 653.570312 745.210938 654.066406 C 743.90625 654.136719 743.515625 654.839844 743.09375 655.847656 C 740.304688 662.730469 737.460938 669.578125 734.640625 676.460938 C 734.375 677.082031 734.144531 677.734375 733.84375 678.332031 C 732.660156 680.679688 730.792969 681.988281 728.144531 681.953125 C 725.460938 681.917969 723.644531 680.574219 722.65625 678.105469 C 719.6875 670.707031 716.722656 663.3125 713.828125 655.882812 C 713.246094 654.398438 712.578125 653.695312 710.777344 653.589844 C 703.503906 653.199219 696.234375 652.582031 688.960938 652.015625 C 687.882812 651.929688 686.773438 651.804688 685.730469 651.503906 C 683.066406 650.765625 681.460938 648.417969 681.476562 645.363281 "/>
</g>
<path style=" stroke:none;fill-rule:nonzero;fill:rgb(100%,51.759338%,0%);fill-opacity:1;" d="M 522.945312 547.652344 C 524.21875 546.1875 525.980469 545.941406 527.90625 546.136719 C 535.582031 546.859375 543.277344 547.496094 550.9375 548.34375 C 553.023438 548.570312 554.132812 547.953125 555.175781 546.1875 C 558.988281 539.660156 562.957031 533.25 566.859375 526.773438 C 568.359375 524.320312 570.476562 523.121094 573.355469 523.492188 C 575.859375 523.808594 577.714844 525.769531 578.382812 528.714844 C 580.148438 536.359375 581.933594 544 583.574219 551.679688 C 583.925781 553.355469 584.667969 553.988281 586.292969 554.359375 C 593.617188 555.984375 600.90625 557.765625 608.210938 559.445312 C 610.3125 559.9375 612.113281 560.839844 613.242188 562.671875 C 614.972656 565.496094 614.003906 569.082031 611.070312 570.828125 C 604.011719 575.0625 596.96875 579.300781 589.855469 583.464844 C 588.78125 584.082031 588.460938 584.769531 588.570312 585.917969 C 589.222656 593.261719 589.820312 600.601562 590.457031 607.964844 C 590.6875 610.664062 590.792969 613.277344 588.425781 615.304688 C 586.167969 617.265625 582.886719 617.351562 580.609375 615.339844 C 574.359375 609.871094 568.078125 604.414062 561.863281 598.890625 C 560.875 598.007812 560.117188 598.21875 559.109375 598.644531 C 552.261719 601.539062 545.398438 604.378906 538.546875 607.238281 C 537.914062 607.503906 537.296875 607.804688 536.660156 608 C 534.171875 608.828125 531.929688 608.421875 530.058594 606.535156 C 528.1875 604.609375 527.871094 602.367188 528.910156 599.914062 C 532.054688 592.589844 535.175781 585.265625 538.371094 577.976562 C 539.023438 576.511719 539.042969 575.539062 537.84375 574.199219 C 532.972656 568.78125 528.277344 563.203125 523.527344 557.660156 C 522.824219 556.832031 522.132812 555.964844 521.605469 555.011719 C 520.261719 552.613281 520.773438 549.808594 522.945312 547.652344 "/>
<g clip-path="url(#clip4)" clip-rule="nonzero">
<path style=" stroke:none;fill-rule:nonzero;fill:rgb(100%,51.759338%,0%);fill-opacity:1;" d="M 479.933594 366.476562 C 481.875 366.335938 483.285156 367.394531 484.523438 368.894531 C 489.429688 374.84375 494.425781 380.738281 499.261719 386.757812 C 500.566406 388.382812 501.765625 388.734375 503.761719 388.222656 C 511.066406 386.296875 518.429688 384.585938 525.753906 382.769531 C 528.542969 382.082031 530.90625 382.734375 532.671875 385.027344 C 534.222656 387.039062 534.136719 389.738281 532.53125 392.28125 C 528.363281 398.9375 524.21875 405.609375 519.945312 412.191406 C 519.027344 413.621094 519.097656 414.609375 519.980469 416.003906 C 524.023438 422.320312 527.90625 428.746094 531.894531 435.117188 C 533.023438 436.917969 533.660156 438.84375 533.164062 440.941406 C 532.390625 444.171875 529.175781 446.007812 525.859375 445.179688 C 517.878906 443.183594 509.902344 441.191406 501.941406 439.105469 C 500.742188 438.789062 500.035156 439.054688 499.296875 439.917969 C 494.546875 445.585938 489.78125 451.195312 485.035156 456.84375 C 483.285156 458.925781 481.503906 460.832031 478.414062 460.605469 C 475.414062 460.394531 473.050781 458.132812 472.855469 455.117188 C 472.308594 446.820312 471.726562 438.523438 471.230469 430.210938 C 471.160156 428.90625 470.457031 428.5 469.449219 428.09375 C 462.566406 425.304688 455.699219 422.464844 448.835938 419.640625 C 448.214844 419.375 447.5625 419.144531 446.964844 418.84375 C 444.632812 417.664062 443.308594 415.792969 443.34375 413.144531 C 443.378906 410.460938 444.722656 408.644531 447.191406 407.65625 C 454.589844 404.691406 461.984375 401.722656 469.414062 398.828125 C 470.898438 398.246094 471.601562 397.578125 471.707031 395.777344 C 472.078125 388.503906 472.714844 381.234375 473.28125 373.960938 C 473.367188 372.882812 473.492188 371.773438 473.792969 370.730469 C 474.53125 368.082031 476.878906 366.460938 479.933594 366.476562 "/>
</g>
<path style=" stroke:none;fill-rule:nonzero;fill:rgb(100%,51.759338%,0%);fill-opacity:1;" d="M 577.644531 207.945312 C 579.109375 209.21875 579.355469 210.980469 579.179688 212.90625 C 578.4375 220.582031 577.800781 228.277344 576.953125 235.9375 C 576.726562 238.023438 577.34375 239.132812 579.109375 240.175781 C 585.636719 243.96875 592.046875 247.957031 598.523438 251.859375 C 600.976562 253.34375 602.175781 255.476562 601.804688 258.355469 C 601.488281 260.859375 599.527344 262.714844 596.582031 263.402344 C 588.9375 265.148438 581.296875 266.933594 573.617188 268.554688 C 571.941406 268.925781 571.308594 269.667969 570.9375 271.273438 C 569.3125 278.617188 567.53125 285.90625 565.835938 293.230469 C 565.359375 295.3125 564.457031 297.113281 562.625 298.242188 C 559.800781 299.992188 556.214844 299.003906 554.453125 296.074219 C 550.234375 289.011719 545.996094 281.96875 541.832031 274.855469 C 541.214844 273.796875 540.527344 273.460938 539.378906 273.570312 C 532.035156 274.222656 524.695312 274.820312 517.332031 275.457031 C 514.632812 275.703125 512.039062 275.773438 509.992188 273.445312 C 508.03125 271.167969 507.945312 267.886719 509.957031 265.609375 C 515.425781 259.359375 520.882812 253.078125 526.421875 246.863281 C 527.289062 245.894531 527.078125 245.117188 526.652344 244.109375 C 523.757812 237.261719 520.917969 230.398438 518.058594 223.550781 C 517.792969 222.929688 517.492188 222.296875 517.28125 221.660156 C 516.46875 219.171875 516.875 216.929688 518.761719 215.078125 C 520.6875 213.207031 522.929688 212.871094 525.363281 213.914062 C 532.6875 217.054688 540.03125 220.179688 547.320312 223.371094 C 548.785156 224.027344 549.757812 224.0625 551.097656 222.84375 C 556.515625 217.972656 562.09375 213.277344 567.636719 208.527344 C 568.464844 207.824219 569.332031 207.132812 570.285156 206.605469 C 572.683594 205.265625 575.488281 205.777344 577.644531 207.945312 "/>
<path style=" stroke:none;fill-rule:nonzero;fill:rgb(100%,51.759338%,0%);fill-opacity:1;" d="M 840.910156 349.570312 L 839.867188 348.828125 C 839.515625 348.527344 839.335938 348.441406 839.160156 348.316406 L 838.507812 347.910156 C 838.332031 347.785156 838.207031 347.699219 838.03125 347.609375 L 836.671875 346.992188 C 836.109375 346.726562 835.453125 346.480469 834.714844 346.199219 C 823.894531 342.757812 812.175781 344.203125 801.109375 345.332031 C 800.84375 345.367188 800.3125 345.367188 799.660156 345.421875 C 798.707031 345.457031 797.382812 345.457031 795.8125 345.5625 C 795.195312 345.5625 794.507812 345.5625 793.75 345.597656 C 793.238281 345.597656 792.671875 345.597656 792.089844 345.632812 C 789.777344 345.6875 787.234375 345.773438 784.871094 345.898438 C 784.359375 345.949219 783.792969 345.949219 783.300781 345.984375 C 782.910156 345.984375 782.558594 346.039062 782.207031 346.074219 C 781.464844 346.128906 780.757812 346.164062 780.105469 346.199219 C 778.621094 346.339844 777.316406 346.515625 776.308594 346.691406 C 775.957031 346.726562 775.605469 346.816406 775.339844 346.867188 C 775.304688 346.902344 775.304688 346.902344 775.25 346.902344 C 775.214844 346.902344 775.164062 346.957031 775.074219 346.957031 C 774.773438 346.957031 774.511719 346.65625 774.511719 346.339844 C 774.511719 346.304688 774.546875 346.199219 774.546875 346.164062 L 777.828125 335.097656 C 779.804688 328.441406 781.816406 321.628906 783.917969 314.976562 C 786.96875 305.304688 787.941406 297.554688 787.023438 289.914062 C 785.929688 280.277344 780.335938 271.484375 772.144531 266.332031 C 767.46875 263.402344 762.226562 261.867188 756.964844 261.867188 C 756.523438 261.867188 756.136719 261.867188 755.695312 261.917969 C 750.628906 262.132812 747.558594 265.007812 747.082031 270.003906 C 746.429688 276.480469 745.722656 282.339844 744.894531 287.847656 C 743.324219 297.660156 740.691406 305.796875 736.722656 312.785156 C 734.480469 316.757812 731.902344 320.304688 728.742188 323.640625 C 724.597656 328.054688 720.09375 332.90625 715.1875 338.46875 L 704.035156 351.226562 C 701.402344 354.210938 698.738281 357.140625 695.863281 359.894531 C 695.332031 360.460938 694.589844 361.128906 693.707031 361.925781 C 691.785156 363.582031 689.648438 364.976562 687.230469 366.070312 C 685.871094 366.671875 684.125 367.203125 681.636719 367.90625 C 672.195312 370.539062 666.722656 373.203125 666.367188 378.921875 C 666.15625 382.082031 666.015625 384.796875 665.929688 387.339844 L 665.929688 389.121094 C 665.839844 391.574219 665.804688 393.941406 665.804688 396.289062 L 665.804688 484.449219 L 680.542969 484.394531 L 681.285156 484.539062 C 686.402344 485.3125 691.695312 486.195312 698.4375 487.378906 L 701.402344 487.855469 C 714.710938 490.078125 726.960938 492.144531 739.210938 493.539062 C 769.304688 497.085938 805.785156 505.875 827.707031 478.535156 C 836.671875 467.382812 837.539062 451.550781 839.601562 437.941406 C 842.972656 415.632812 846.734375 393.375 849.839844 371.015625 C 850.96875 363.140625 847.386719 354.527344 840.910156 349.570312 "/>
<path style=" stroke:none;fill-rule:nonzero;fill:rgb(100%,51.759338%,0%);fill-opacity:1;" d="M 639.769531 356.277344 L 599.722656 356.277344 C 594.480469 356.277344 590.246094 360.511719 590.246094 365.753906 L 590.246094 484.695312 C 590.246094 489.921875 594.480469 494.15625 599.722656 494.15625 L 639.769531 494.15625 C 644.996094 494.15625 649.230469 489.921875 649.230469 484.695312 L 649.230469 365.753906 C 649.230469 360.511719 644.996094 356.277344 639.769531 356.277344 "/>
<g clip-path="url(#clip5)" clip-rule="nonzero">
<path style=" stroke:none;fill-rule:nonzero;fill:rgb(0%,24.308777%,32.159424%);fill-opacity:1;" d="M 923.742188 258.625 C 922.433594 260.132812 920.617188 260.390625 918.636719 260.207031 C 910.726562 259.445312 902.804688 258.789062 894.914062 257.917969 C 892.769531 257.679688 891.625 258.316406 890.554688 260.132812 C 886.644531 266.859375 882.539062 273.457031 878.519531 280.109375 C 876.992188 282.65625 874.792969 283.890625 871.832031 283.507812 C 869.25 283.179688 867.34375 281.164062 866.652344 278.128906 C 864.835938 270.257812 863 262.386719 861.324219 254.480469 C 860.945312 252.753906 860.179688 252.101562 858.507812 251.71875 C 850.964844 250.046875 843.460938 248.210938 835.914062 246.484375 C 833.769531 245.976562 831.917969 245.066406 830.753906 243.15625 C 828.972656 240.25 829.972656 236.558594 832.988281 234.742188 C 840.261719 230.398438 847.511719 226.019531 854.835938 221.746094 C 855.929688 221.109375 856.273438 220.402344 856.164062 219.21875 C 855.492188 211.660156 854.875 204.097656 854.21875 196.519531 C 853.964844 193.738281 853.875 191.046875 856.292969 188.957031 C 858.636719 186.941406 862.015625 186.847656 864.363281 188.921875 C 870.796875 194.554688 877.265625 200.171875 883.664062 205.859375 C 884.683594 206.769531 885.464844 206.550781 886.5 206.117188 C 893.550781 203.132812 900.621094 200.207031 907.675781 197.261719 C 908.328125 196.992188 908.964844 196.683594 909.621094 196.480469 C 912.183594 195.628906 914.492188 196.046875 916.398438 197.992188 C 918.34375 199.972656 918.671875 202.28125 917.597656 204.804688 C 914.363281 212.351562 911.148438 219.894531 907.855469 227.398438 C 907.183594 228.90625 907.164062 229.90625 908.402344 231.289062 C 913.417969 236.867188 918.253906 242.613281 923.144531 248.320312 C 923.871094 249.175781 924.578125 250.066406 925.125 251.046875 C 926.503906 253.519531 925.976562 256.410156 923.742188 258.625 "/>
</g>
<g clip-path="url(#clip6)" clip-rule="nonzero">
<path style=" stroke:none;fill-rule:nonzero;fill:rgb(0%,24.308777%,32.159424%);fill-opacity:1;" d="M 867.414062 608.460938 C 865.90625 607.152344 865.652344 605.332031 865.832031 603.351562 C 866.597656 595.445312 867.25 587.519531 868.125 579.632812 C 868.359375 577.488281 867.722656 576.34375 865.90625 575.269531 C 859.179688 571.34375 852.582031 567.253906 845.929688 563.238281 C 843.386719 561.710938 842.148438 559.511719 842.53125 556.550781 C 842.859375 553.96875 844.875 552.058594 847.914062 551.351562 C 855.78125 549.550781 863.652344 547.714844 871.558594 546.042969 C 873.285156 545.660156 873.941406 544.898438 874.320312 543.242188 C 875.992188 535.683594 877.828125 528.175781 879.554688 520.632812 C 880.066406 518.488281 880.992188 516.632812 882.882812 515.472656 C 885.789062 513.671875 889.480469 514.691406 891.296875 517.707031 C 895.640625 524.976562 900.023438 532.230469 904.292969 539.554688 C 904.929688 540.644531 905.640625 540.992188 906.820312 540.882812 C 914.382812 540.207031 921.941406 539.589844 929.523438 538.9375 C 932.304688 538.683594 934.976562 538.609375 937.082031 541.007812 C 939.101562 543.351562 939.191406 546.734375 937.121094 549.078125 C 931.484375 555.511719 925.867188 561.984375 920.160156 568.382812 C 919.269531 569.382812 919.488281 570.179688 919.925781 571.21875 C 922.90625 578.269531 925.832031 585.320312 928.777344 592.390625 C 929.050781 593.046875 929.359375 593.683594 929.578125 594.335938 C 930.414062 596.898438 929.996094 599.207031 928.050781 601.117188 C 926.070312 603.042969 923.761719 603.386719 921.253906 602.316406 C 913.710938 599.082031 906.148438 595.863281 898.640625 592.574219 C 897.132812 591.902344 896.132812 591.882812 894.75 593.117188 C 889.171875 598.136719 883.429688 602.96875 877.722656 607.859375 C 876.867188 608.585938 875.976562 609.296875 874.996094 609.839844 C 872.523438 611.222656 869.632812 610.695312 867.414062 608.460938 "/>
</g>
<g clip-path="url(#clip7)" clip-rule="nonzero">
<path style=" stroke:none;fill-rule:nonzero;fill:rgb(0%,24.308777%,32.159424%);fill-opacity:1;" d="M 573.910156 202.296875 C 575.417969 203.605469 575.671875 205.425781 575.488281 207.40625 C 574.726562 215.3125 574.070312 223.238281 573.199219 231.125 C 572.964844 233.269531 573.601562 234.414062 575.417969 235.488281 C 582.140625 239.394531 588.742188 243.503906 595.410156 247.519531 C 597.9375 249.046875 599.171875 251.246094 598.792969 254.210938 C 598.464844 256.789062 596.445312 258.699219 593.410156 259.40625 C 585.542969 261.207031 577.671875 263.042969 569.765625 264.714844 C 568.039062 265.097656 567.382812 265.859375 567 267.515625 C 565.328125 275.074219 563.492188 282.582031 561.75 290.125 C 561.257812 292.269531 560.332031 294.125 558.441406 295.285156 C 555.53125 297.085938 551.84375 296.070312 550.023438 293.050781 C 545.679688 285.78125 541.320312 278.527344 537.03125 271.203125 C 536.394531 270.113281 535.683594 269.769531 534.503906 269.875 C 526.941406 270.550781 519.378906 271.167969 511.800781 271.820312 C 509.019531 272.074219 506.347656 272.148438 504.238281 269.75 C 502.222656 267.40625 502.132812 264.023438 504.203125 261.679688 C 509.839844 255.246094 515.453125 248.773438 521.160156 242.375 C 522.050781 241.375 521.835938 240.578125 521.398438 239.539062 C 518.417969 232.488281 515.492188 225.417969 512.546875 218.367188 C 512.273438 217.730469 511.964844 217.074219 511.746094 216.421875 C 510.910156 213.859375 511.328125 211.550781 513.273438 209.640625 C 515.253906 207.714844 517.5625 207.371094 520.070312 208.441406 C 527.613281 211.675781 535.175781 214.894531 542.683594 218.183594 C 544.191406 218.855469 545.191406 218.894531 546.570312 217.640625 C 552.152344 212.621094 557.894531 207.789062 563.601562 202.898438 C 564.457031 202.171875 565.347656 201.460938 566.328125 200.917969 C 568.800781 199.535156 571.691406 200.0625 573.910156 202.296875 "/>
</g>
<g clip-path="url(#clip8)" clip-rule="nonzero">
<path style=" stroke:none;fill-rule:nonzero;fill:rgb(0%,24.308777%,32.159424%);fill-opacity:1;" d="M 845.023438 348.144531 L 843.949219 347.378906 C 843.585938 347.070312 843.40625 346.980469 843.222656 346.851562 L 842.550781 346.433594 C 842.367188 346.308594 842.242188 346.214844 842.058594 346.125 L 840.660156 345.488281 C 840.078125 345.214844 839.40625 344.960938 838.640625 344.671875 C 827.5 341.125 815.429688 342.617188 804.035156 343.78125 C 803.761719 343.816406 803.21875 343.816406 802.542969 343.871094 C 801.5625 343.90625 800.199219 343.90625 798.582031 344.015625 C 797.945312 344.015625 797.238281 344.015625 796.457031 344.054688 C 795.929688 344.054688 795.347656 344.054688 794.746094 344.089844 C 792.367188 344.144531 789.75 344.234375 787.3125 344.363281 C 786.785156 344.417969 786.203125 344.417969 785.695312 344.453125 C 785.296875 344.453125 784.933594 344.507812 784.570312 344.542969 C 783.804688 344.597656 783.078125 344.632812 782.40625 344.671875 C 780.878906 344.816406 779.535156 345 778.496094 345.179688 C 778.132812 345.214844 777.769531 345.308594 777.5 345.363281 C 777.460938 345.398438 777.460938 345.398438 777.40625 345.398438 C 777.371094 345.398438 777.316406 345.453125 777.226562 345.453125 C 776.917969 345.453125 776.644531 345.144531 776.644531 344.816406 C 776.644531 344.78125 776.679688 344.671875 776.679688 344.632812 L 780.0625 333.238281 C 782.097656 326.386719 784.167969 319.371094 786.332031 312.519531 C 789.476562 302.558594 790.476562 294.578125 789.53125 286.707031 C 788.402344 276.785156 782.640625 267.730469 774.207031 262.425781 C 769.390625 259.40625 763.992188 257.824219 758.578125 257.824219 C 758.121094 257.824219 757.722656 257.824219 757.269531 257.878906 C 752.050781 258.097656 748.890625 261.0625 748.398438 266.207031 C 747.726562 272.875 747 278.910156 746.144531 284.582031 C 744.527344 294.6875 741.820312 303.066406 737.730469 310.265625 C 735.421875 314.351562 732.765625 318.007812 729.511719 321.441406 C 725.242188 325.984375 720.605469 330.984375 715.554688 336.710938 L 704.066406 349.851562 C 701.359375 352.921875 698.613281 355.941406 695.652344 358.777344 C 695.105469 359.355469 694.34375 360.046875 693.433594 360.867188 C 691.453125 362.574219 689.253906 364.011719 686.761719 365.136719 C 685.363281 365.753906 683.566406 366.300781 681 367.027344 C 671.277344 369.734375 665.644531 372.480469 665.28125 378.371094 C 665.0625 381.621094 664.914062 384.421875 664.824219 387.039062 L 664.824219 388.875 C 664.734375 391.402344 664.699219 393.835938 664.699219 396.253906 L 664.699219 487.042969 L 679.875 486.988281 L 680.636719 487.132812 C 685.910156 487.933594 691.363281 488.84375 698.304688 490.0625 L 701.359375 490.550781 C 715.0625 492.84375 727.679688 494.96875 740.292969 496.40625 C 771.28125 500.058594 808.851562 509.109375 831.425781 480.953125 C 840.660156 469.46875 841.550781 453.164062 843.675781 439.148438 C 847.148438 416.175781 851.019531 393.253906 854.21875 370.226562 C 855.382812 362.121094 851.691406 353.25 845.023438 348.144531 "/>
</g>
<path style=" stroke:none;fill-rule:nonzero;fill:rgb(0%,24.308777%,32.159424%);fill-opacity:1;" d="M 637.886719 355.050781 L 596.648438 355.050781 C 591.25 355.050781 586.886719 359.410156 586.886719 364.808594 L 586.886719 487.296875 C 586.886719 492.679688 591.25 497.039062 596.648438 497.039062 L 637.886719 497.039062 C 643.269531 497.039062 647.628906 492.679688 647.628906 487.296875 L 647.628906 364.808594 C 647.628906 359.410156 643.269531 355.050781 637.886719 355.050781 "/>
<g clip-path="url(#clip9)" clip-rule="nonzero">
<path style=" stroke:none;fill-rule:nonzero;fill:rgb(0%,24.308777%,32.159424%);fill-opacity:1;" d="M 844.769531 348.613281 L 843.695312 347.847656 C 843.332031 347.539062 843.152344 347.449219 842.96875 347.320312 L 842.296875 346.902344 C 842.117188 346.777344 841.988281 346.6875 841.808594 346.59375 L 840.40625 345.957031 C 839.824219 345.6875 839.152344 345.433594 838.390625 345.140625 C 827.246094 341.597656 815.179688 343.085938 803.78125 344.25 C 803.511719 344.285156 802.964844 344.285156 802.292969 344.339844 C 801.3125 344.378906 799.949219 344.378906 798.328125 344.488281 C 797.695312 344.488281 796.984375 344.488281 796.203125 344.523438 C 795.675781 344.523438 795.09375 344.523438 794.496094 344.558594 C 792.113281 344.613281 789.496094 344.703125 787.0625 344.832031 C 786.535156 344.886719 785.953125 344.886719 785.441406 344.921875 C 785.042969 344.921875 784.679688 344.976562 784.316406 345.015625 C 783.554688 345.066406 782.824219 345.105469 782.152344 345.140625 C 780.625 345.285156 779.28125 345.46875 778.246094 345.648438 C 777.882812 345.6875 777.519531 345.777344 777.246094 345.832031 C 777.210938 345.867188 777.210938 345.867188 777.15625 345.867188 C 777.117188 345.867188 777.0625 345.921875 776.972656 345.921875 C 776.664062 345.921875 776.390625 345.613281 776.390625 345.285156 C 776.390625 345.25 776.429688 345.140625 776.429688 345.105469 L 779.808594 333.707031 C 781.84375 326.855469 783.917969 319.839844 786.078125 312.988281 C 789.222656 303.027344 790.222656 295.046875 789.277344 287.179688 C 788.152344 277.253906 782.390625 268.203125 773.957031 262.894531 C 769.140625 259.878906 763.742188 258.296875 758.324219 258.296875 C 757.871094 258.296875 757.46875 258.296875 757.015625 258.351562 C 751.800781 258.570312 748.636719 261.53125 748.144531 266.675781 C 747.472656 273.347656 746.746094 279.378906 745.890625 285.050781 C 744.273438 295.15625 741.566406 303.535156 737.476562 310.734375 C 735.167969 314.824219 732.515625 318.476562 729.261719 321.914062 C 724.988281 326.457031 720.355469 331.453125 715.300781 337.179688 L 703.816406 350.320312 C 701.105469 353.394531 698.363281 356.410156 695.398438 359.246094 C 694.855469 359.828125 694.089844 360.519531 693.179688 361.335938 C 691.199219 363.042969 689 364.480469 686.511719 365.605469 C 685.113281 366.226562 683.3125 366.769531 680.75 367.496094 C 671.023438 370.207031 665.390625 372.949219 665.027344 378.839844 C 664.808594 382.09375 664.664062 384.890625 664.574219 387.507812 L 664.574219 389.34375 C 664.480469 391.871094 664.445312 394.308594 664.445312 396.726562 L 664.445312 487.515625 L 679.621094 487.460938 L 680.386719 487.605469 C 685.65625 488.40625 691.109375 489.3125 698.054688 490.53125 L 701.105469 491.023438 C 714.8125 493.3125 727.425781 495.4375 740.039062 496.875 C 771.03125 500.527344 808.597656 509.578125 831.175781 481.425781 C 840.40625 469.9375 841.296875 453.632812 843.425781 439.621094 C 846.894531 416.644531 850.769531 393.726562 853.964844 370.695312 C 855.128906 362.589844 851.441406 353.71875 844.769531 348.613281 "/>
</g>
</g>
</svg>
