<svg xmlns="http://www.w3.org/2000/svg" xmlns:xlink="http://www.w3.org/1999/xlink" width="1920" zoomAndPan="magnify" viewBox="0 0 1440 809.999993" height="1080" preserveAspectRatio="xMidYMid meet" version="1.0"><defs><clipPath id="463b6fe30e"><path d="M 386.386719 71.386719 L 1053.886719 71.386719 L 1053.886719 738.886719 L 386.386719 738.886719 Z M 386.386719 71.386719 " clip-rule="nonzero"/></clipPath><clipPath id="b56da94c4f"><path d="M 478.503906 239.632812 L 965.253906 239.632812 L 965.253906 557.632812 L 478.503906 557.632812 Z M 478.503906 239.632812 " clip-rule="nonzero"/></clipPath></defs><g clip-path="url(#463b6fe30e)"><path fill="#ff914d" d="M 719.996094 97.050781 C 550.195312 97.050781 412.050781 235.195312 412.050781 404.996094 C 412.050781 574.800781 550.195312 712.945312 719.996094 712.945312 C 889.800781 712.945312 1027.945312 574.800781 1027.945312 404.996094 C 1027.945312 235.195312 889.800781 97.050781 719.996094 97.050781 Z M 719.996094 738.605469 C 630.886719 738.605469 547.113281 703.902344 484.101562 640.894531 C 421.09375 577.882812 386.386719 494.109375 386.386719 404.996094 C 386.386719 315.886719 421.09375 232.113281 484.101562 169.101562 C 547.113281 106.09375 630.886719 71.386719 719.996094 71.386719 C 809.109375 71.386719 892.882812 106.09375 955.894531 169.101562 C 1018.902344 232.113281 1053.605469 315.886719 1053.605469 404.996094 C 1053.605469 494.109375 1018.902344 577.882812 955.894531 640.894531 C 892.882812 703.902344 809.109375 738.605469 719.996094 738.605469 " fill-opacity="1" fill-rule="nonzero"/></g><path fill="#ff914d" d="M 494.304688 423.601562 L 494.304688 507.792969 C 494.304688 509.160156 495.414062 510.269531 496.78125 510.269531 L 549.007812 510.269531 C 550.375 510.269531 551.484375 509.160156 551.484375 507.792969 L 551.484375 423.601562 C 551.484375 422.234375 550.375 421.121094 549.007812 421.121094 L 496.78125 421.121094 C 495.414062 421.121094 494.304688 422.234375 494.304688 423.601562 Z M 558.9375 465.683594 C 558.9375 483.21875 558.804688 500.753906 558.988281 518.289062 C 559.085938 527.945312 555.128906 532.648438 545.027344 532.402344 C 530.230469 532.039062 515.414062 532.109375 500.613281 532.375 C 490.644531 532.5625 486.4375 527.761719 486.449219 518.1875 C 486.507812 482.726562 486.5 447.269531 486.460938 411.8125 C 486.449219 402.621094 490.867188 398.246094 500.074219 398.316406 C 515.269531 398.425781 530.46875 398.441406 545.664062 398.3125 C 554.992188 398.230469 559.082031 402.671875 558.988281 411.914062 C 558.800781 429.835938 558.929688 447.761719 558.9375 465.683594 " fill-opacity="1" fill-rule="nonzero"/><path fill="#ff914d" d="M 756.582031 450.023438 L 756.582031 475.820312 C 756.582031 478.261719 754.601562 480.246094 752.15625 480.246094 L 675.585938 480.246094 C 674.53125 480.246094 673.679688 481.09375 673.679688 482.140625 L 673.679688 492.320312 C 673.679688 493.367188 674.523438 494.21875 675.566406 494.21875 C 681.800781 494.25 688.121094 494.304688 694.449219 494.402344 C 696.503906 494.433594 699.457031 496.507812 700.375 498.414062 C 704.027344 505.953125 707.179688 513.730469 710.558594 521.679688 C 711.019531 522.777344 710.222656 523.992188 709.035156 523.992188 L 626.039062 523.992188 C 624.796875 523.992188 623.996094 522.648438 624.585938 521.554688 C 629 513.355469 633.457031 505.089844 638.808594 495.125 C 639.105469 494.574219 639.6875 494.21875 640.308594 494.21875 C 647.195312 494.21875 654.589844 494.199219 662.273438 494.199219 C 663.320312 494.199219 664.183594 493.347656 664.183594 492.300781 L 664.183594 482.140625 C 664.183594 481.09375 663.328125 480.246094 662.273438 480.246094 L 577.382812 480.246094 C 574.941406 480.246094 572.957031 478.261719 572.957031 475.820312 L 572.957031 450.023438 C 572.957031 447.585938 574.941406 445.601562 577.382812 445.601562 L 752.15625 445.601562 C 754.601562 445.601562 756.582031 447.585938 756.582031 450.023438 " fill-opacity="1" fill-rule="nonzero"/><path fill="#ff914d" d="M 514.078125 384.804688 L 514.449219 384.804688 C 519.691406 384.804688 524.707031 384.753906 530.253906 384.742188 C 531.351562 384.738281 532.242188 383.855469 532.242188 382.761719 C 532.242188 371.808594 532.242188 318.398438 532.242188 301.8125 C 532.242188 299.085938 534.445312 296.886719 537.167969 296.886719 L 799.292969 296.886719 C 802.015625 296.886719 804.226562 299.09375 804.226562 301.816406 L 804.226562 322.417969 C 804.226562 322.796875 804.53125 323.105469 804.914062 323.105469 L 821.453125 323.105469 C 821.910156 323.105469 822.285156 322.726562 822.285156 322.265625 C 822.285156 312.09375 822.300781 302.675781 822.28125 293.257812 C 822.253906 282.65625 816.789062 277.589844 806.320312 277.59375 C 714.074219 277.597656 621.824219 277.539062 529.574219 277.664062 C 517.796875 277.683594 514.003906 282.019531 513.960938 294.289062 C 513.878906 321.535156 513.90625 348.78125 513.976562 376.027344 C 513.984375 378.308594 513.933594 380.625 514.046875 382.867188 L 514.078125 384.804688 " fill-opacity="1" fill-rule="nonzero"/><path fill="#ff914d" d="M 888.855469 420.050781 L 888.855469 504.238281 C 888.855469 505.605469 889.964844 506.71875 891.332031 506.71875 L 943.558594 506.71875 C 944.929688 506.71875 946.035156 505.605469 946.035156 504.238281 L 946.035156 420.050781 C 946.035156 418.679688 944.929688 417.574219 943.558594 417.574219 L 891.332031 417.574219 C 889.964844 417.574219 888.855469 418.679688 888.855469 420.050781 Z M 953.488281 462.132812 C 953.488281 479.667969 953.359375 497.199219 953.539062 514.734375 C 953.640625 524.390625 949.679688 529.097656 939.578125 528.851562 C 924.785156 528.488281 909.96875 528.558594 895.167969 528.828125 C 885.191406 529.007812 880.988281 524.207031 881.003906 514.632812 C 881.058594 479.175781 881.054688 443.722656 881.011719 408.261719 C 881.003906 399.074219 885.417969 394.699219 894.625 394.761719 C 909.824219 394.878906 925.019531 394.894531 940.214844 394.757812 C 949.542969 394.675781 953.632812 399.117188 953.539062 408.359375 C 953.351562 426.285156 953.484375 444.207031 953.488281 462.132812 " fill-opacity="1" fill-rule="nonzero"/><path fill="#ff914d" d="M 861.265625 503.300781 L 861.269531 503.300781 C 861.269531 500.609375 861.28125 497.902344 861.28125 495.175781 L 861.265625 503.300781 " fill-opacity="1" fill-rule="nonzero"/><path fill="#ff914d" d="M 910.96875 374.441406 C 910.96875 374.808594 910.679688 375.09375 910.324219 375.09375 C 907.421875 375.085938 904.46875 375.074219 901.488281 375.066406 C 901.132812 375.054688 900.835938 374.769531 900.835938 374.414062 L 900.835938 356.753906 C 900.835938 353.121094 897.894531 350.179688 894.261719 350.179688 L 787.269531 350.179688 C 783.636719 350.179688 780.695312 353.121094 780.695312 356.765625 L 780.695312 486.984375 C 780.695312 490.621094 783.648438 493.566406 787.269531 493.566406 L 859.679688 493.566406 C 860.5625 493.566406 861.265625 494.265625 861.28125 495.136719 L 861.28125 495.175781 L 861.265625 503.300781 L 861.269531 503.300781 L 861.234375 523.378906 C 861.226562 524.261719 860.511719 524.972656 859.632812 524.972656 C 836.535156 525.007812 813.433594 524.988281 790.3125 524.902344 C 776.054688 524.84375 770.585938 519.410156 770.554688 505.050781 C 770.433594 455.269531 770.433594 405.472656 770.554688 355.6875 C 770.59375 341.792969 775.769531 336.382812 789.496094 336.289062 C 823.722656 336.066406 857.953125 336.085938 892.183594 336.269531 C 906.007812 336.351562 910.902344 341.582031 910.941406 355.460938 C 910.957031 361.792969 910.96875 368.121094 910.96875 374.441406 " fill-opacity="1" fill-rule="nonzero"/><g clip-path="url(#b56da94c4f)"><path fill="#003e52" d="M 719.996094 97.050781 C 550.195312 97.050781 412.050781 235.195312 412.050781 404.996094 C 412.050781 574.800781 550.195312 712.945312 719.996094 712.945312 C 889.800781 712.945312 1027.945312 574.800781 1027.945312 404.996094 C 1027.945312 235.195312 889.800781 97.050781 719.996094 97.050781 Z M 719.996094 738.605469 C 630.886719 738.605469 547.113281 703.902344 484.101562 640.894531 C 421.09375 577.882812 386.386719 494.109375 386.386719 404.996094 C 386.386719 315.886719 421.09375 232.113281 484.101562 169.101562 C 547.113281 106.09375 630.886719 71.386719 719.996094 71.386719 C 809.109375 71.386719 892.882812 106.09375 955.894531 169.101562 C 1018.902344 232.113281 1053.605469 315.886719 1053.605469 404.996094 C 1053.605469 494.109375 1018.902344 577.882812 955.894531 640.894531 C 892.882812 703.902344 809.109375 738.605469 719.996094 738.605469 " fill-opacity="1" fill-rule="nonzero"/></g><path fill="#003e52" d="M 494.304688 423.601562 L 494.304688 507.792969 C 494.304688 509.160156 495.414062 510.269531 496.78125 510.269531 L 549.007812 510.269531 C 550.375 510.269531 551.484375 509.160156 551.484375 507.792969 L 551.484375 423.601562 C 551.484375 422.234375 550.375 421.121094 549.007812 421.121094 L 496.78125 421.121094 C 495.414062 421.121094 494.304688 422.234375 494.304688 423.601562 Z M 558.9375 465.683594 C 558.9375 483.21875 558.804688 500.753906 558.988281 518.289062 C 559.085938 527.945312 555.128906 532.648438 545.027344 532.402344 C 530.230469 532.039062 515.414062 532.109375 500.613281 532.375 C 490.644531 532.5625 486.4375 527.761719 486.449219 518.1875 C 486.507812 482.726562 486.5 447.269531 486.460938 411.8125 C 486.449219 402.621094 490.867188 398.246094 500.074219 398.316406 C 515.269531 398.425781 530.46875 398.441406 545.664062 398.3125 C 554.992188 398.230469 559.082031 402.671875 558.988281 411.914062 C 558.800781 429.835938 558.929688 447.761719 558.9375 465.683594 " fill-opacity="1" fill-rule="nonzero"/><path fill="#003e52" d="M 756.582031 450.023438 L 756.582031 475.820312 C 756.582031 478.261719 754.601562 480.246094 752.15625 480.246094 L 675.585938 480.246094 C 674.53125 480.246094 673.679688 481.09375 673.679688 482.140625 L 673.679688 492.320312 C 673.679688 493.367188 674.523438 494.21875 675.566406 494.21875 C 681.800781 494.25 688.121094 494.304688 694.449219 494.402344 C 696.503906 494.433594 699.457031 496.507812 700.375 498.414062 C 704.027344 505.953125 707.179688 513.730469 710.558594 521.679688 C 711.019531 522.777344 710.222656 523.992188 709.035156 523.992188 L 626.039062 523.992188 C 624.796875 523.992188 623.996094 522.648438 624.585938 521.554688 C 629 513.355469 633.457031 505.089844 638.808594 495.125 C 639.105469 494.574219 639.6875 494.21875 640.308594 494.21875 C 647.195312 494.21875 654.589844 494.199219 662.273438 494.199219 C 663.320312 494.199219 664.183594 493.347656 664.183594 492.300781 L 664.183594 482.140625 C 664.183594 481.09375 663.328125 480.246094 662.273438 480.246094 L 577.382812 480.246094 C 574.941406 480.246094 572.957031 478.261719 572.957031 475.820312 L 572.957031 450.023438 C 572.957031 447.585938 574.941406 445.601562 577.382812 445.601562 L 752.15625 445.601562 C 754.601562 445.601562 756.582031 447.585938 756.582031 450.023438 " fill-opacity="1" fill-rule="nonzero"/><path fill="#003e52" d="M 514.078125 384.804688 L 514.449219 384.804688 C 519.691406 384.804688 524.707031 384.753906 530.253906 384.742188 C 531.351562 384.738281 532.242188 383.855469 532.242188 382.761719 C 532.242188 371.808594 532.242188 318.398438 532.242188 301.8125 C 532.242188 299.085938 534.445312 296.886719 537.167969 296.886719 L 799.292969 296.886719 C 802.015625 296.886719 804.226562 299.09375 804.226562 301.816406 L 804.226562 322.417969 C 804.226562 322.796875 804.53125 323.105469 804.914062 323.105469 L 821.453125 323.105469 C 821.910156 323.105469 822.285156 322.726562 822.285156 322.265625 C 822.285156 312.09375 822.300781 302.675781 822.28125 293.257812 C 822.253906 282.65625 816.789062 277.589844 806.320312 277.59375 C 714.074219 277.597656 621.824219 277.539062 529.574219 277.664062 C 517.796875 277.683594 514.003906 282.019531 513.960938 294.289062 C 513.878906 321.535156 513.90625 348.78125 513.976562 376.027344 C 513.984375 378.308594 513.933594 380.625 514.046875 382.867188 L 514.078125 384.804688 " fill-opacity="1" fill-rule="nonzero"/><path fill="#003e52" d="M 888.855469 420.050781 L 888.855469 504.238281 C 888.855469 505.605469 889.964844 506.71875 891.332031 506.71875 L 943.558594 506.71875 C 944.929688 506.71875 946.035156 505.605469 946.035156 504.238281 L 946.035156 420.050781 C 946.035156 418.679688 944.929688 417.574219 943.558594 417.574219 L 891.332031 417.574219 C 889.964844 417.574219 888.855469 418.679688 888.855469 420.050781 Z M 953.488281 462.132812 C 953.488281 479.667969 953.359375 497.199219 953.539062 514.734375 C 953.640625 524.390625 949.679688 529.097656 939.578125 528.851562 C 924.785156 528.488281 909.96875 528.558594 895.167969 528.828125 C 885.191406 529.007812 880.988281 524.207031 881.003906 514.632812 C 881.058594 479.175781 881.054688 443.722656 881.011719 408.261719 C 881.003906 399.074219 885.417969 394.699219 894.625 394.761719 C 909.824219 394.878906 925.019531 394.894531 940.214844 394.757812 C 949.542969 394.675781 953.632812 399.117188 953.539062 408.359375 C 953.351562 426.285156 953.484375 444.207031 953.488281 462.132812 " fill-opacity="1" fill-rule="nonzero"/><path fill="#003e52" d="M 861.265625 503.300781 L 861.269531 503.300781 C 861.269531 500.609375 861.28125 497.902344 861.28125 495.175781 L 861.265625 503.300781 " fill-opacity="1" fill-rule="nonzero"/><path fill="#003e52" d="M 910.96875 374.441406 C 910.96875 374.808594 910.679688 375.09375 910.324219 375.09375 C 907.421875 375.085938 904.46875 375.074219 901.488281 375.066406 C 901.132812 375.054688 900.835938 374.769531 900.835938 374.414062 L 900.835938 356.753906 C 900.835938 353.121094 897.894531 350.179688 894.261719 350.179688 L 787.269531 350.179688 C 783.636719 350.179688 780.695312 353.121094 780.695312 356.765625 L 780.695312 486.984375 C 780.695312 490.621094 783.648438 493.566406 787.269531 493.566406 L 859.679688 493.566406 C 860.5625 493.566406 861.265625 494.265625 861.28125 495.136719 L 861.28125 495.175781 L 861.265625 503.300781 L 861.269531 503.300781 L 861.234375 523.378906 C 861.226562 524.261719 860.511719 524.972656 859.632812 524.972656 C 836.535156 525.007812 813.433594 524.988281 790.3125 524.902344 C 776.054688 524.84375 770.585938 519.410156 770.554688 505.050781 C 770.433594 455.269531 770.433594 405.472656 770.554688 355.6875 C 770.59375 341.792969 775.769531 336.382812 789.496094 336.289062 C 823.722656 336.066406 857.953125 336.085938 892.183594 336.269531 C 906.007812 336.351562 910.902344 341.582031 910.941406 355.460938 C 910.957031 361.792969 910.96875 368.121094 910.96875 374.441406 " fill-opacity="1" fill-rule="nonzero"/></svg>