<?xml version="1.0" encoding="UTF-8"?>
<svg xmlns="http://www.w3.org/2000/svg" xmlns:xlink="http://www.w3.org/1999/xlink" width="1440pt" height="809.999993pt" viewBox="0 0 1440 809.999993" version="1.2">
<defs>
<clipPath id="clip1">
  <path d="M 432.308594 127.25 L 674 127.25 L 674 369 L 432.308594 369 Z M 432.308594 127.25 "/>
</clipPath>
<clipPath id="clip2">
  <path d="M 469 127.25 L 988.058594 127.25 L 988.058594 646 L 469 646 Z M 469 127.25 "/>
</clipPath>
<clipPath id="clip3">
  <path d="M 432.308594 266 L 988.058594 266 L 988.058594 683 L 432.308594 683 Z M 432.308594 266 "/>
</clipPath>
<clipPath id="clip4">
  <path d="M 432.308594 127.25 L 674 127.25 L 674 369 L 432.308594 369 Z M 432.308594 127.25 "/>
</clipPath>
<clipPath id="clip5">
  <path d="M 469 127.25 L 683.558594 127.25 L 683.558594 375.5 L 469 375.5 Z M 469 127.25 "/>
</clipPath>
<clipPath id="clip6">
  <path d="M 432.308594 266 L 683.558594 266 L 683.558594 375.5 L 432.308594 375.5 Z M 432.308594 266 "/>
</clipPath>
</defs>
<g id="surface1">
<rect x="0" y="0" width="1440" height="809.999993" style="fill:rgb(100%,100%,100%);fill-opacity:1;stroke:none;"/>
<rect x="0" y="0" width="1440" height="809.999993" style="fill:rgb(100%,100%,100%);fill-opacity:1;stroke:none;"/>
<g clip-path="url(#clip1)" clip-rule="nonzero">
<path style=" stroke:none;fill-rule:nonzero;fill:rgb(0%,24.308777%,32.159424%);fill-opacity:1;" d="M 552.722656 145.777344 C 608.914062 145.777344 654.609375 191.472656 654.609375 247.664062 C 654.609375 303.851562 608.914062 349.550781 552.722656 349.550781 C 496.53125 349.550781 450.835938 303.851562 450.835938 247.664062 C 450.835938 191.472656 496.53125 145.777344 552.722656 145.777344 Z M 552.722656 368.074219 C 619.117188 368.074219 673.136719 314.058594 673.136719 247.664062 C 673.136719 181.269531 619.117188 127.25 552.722656 127.25 C 486.328125 127.25 432.308594 181.269531 432.308594 247.664062 C 432.308594 314.058594 486.328125 368.074219 552.722656 368.074219 "/>
</g>
<path style=" stroke:none;fill-rule:nonzero;fill:rgb(0%,24.308777%,32.159424%);fill-opacity:1;" d="M 524.933594 256.925781 L 566.472656 256.925781 L 544.21875 308.847656 C 542.195312 313.550781 544.363281 319.011719 549.070312 321.003906 C 550.261719 321.511719 551.492188 321.761719 552.722656 321.761719 C 556.304688 321.761719 559.742188 319.664062 561.226562 316.15625 L 589.011719 251.316406 C 590.242188 248.460938 589.953125 245.167969 588.253906 242.5625 C 586.515625 239.957031 583.621094 238.402344 580.511719 238.402344 L 538.972656 238.402344 L 561.226562 186.480469 C 563.25 181.777344 561.082031 176.3125 556.378906 174.324219 C 551.710938 172.296875 546.210938 174.46875 544.21875 179.171875 L 516.433594 244.007812 C 515.203125 246.867188 515.492188 250.160156 517.191406 252.765625 C 518.929688 255.371094 521.824219 256.925781 524.933594 256.925781 "/>
<g clip-path="url(#clip2)" clip-rule="nonzero">
<path style=" stroke:none;fill-rule:nonzero;fill:rgb(0%,24.308777%,32.159424%);fill-opacity:1;" d="M 982.34375 127.972656 C 981.222656 127.503906 979.992188 127.25 978.796875 127.25 L 913.960938 127.25 C 908.859375 127.25 904.699219 131.410156 904.699219 136.511719 C 904.699219 141.613281 908.859375 145.777344 913.960938 145.777344 L 956.4375 145.777344 L 472.074219 630.140625 C 468.457031 633.757812 468.457031 639.617188 472.074219 643.238281 C 473.882812 645.046875 476.234375 645.949219 478.621094 645.949219 C 481.011719 645.949219 483.363281 645.046875 485.171875 643.238281 L 969.535156 158.875 L 969.535156 201.351562 C 969.535156 206.453125 973.695312 210.613281 978.796875 210.613281 C 983.898438 210.613281 988.058594 206.453125 988.058594 201.351562 L 988.058594 136.511719 C 988.058594 135.320312 987.808594 134.089844 987.335938 132.96875 C 986.394531 130.6875 984.625 128.914062 982.34375 127.972656 "/>
</g>
<g clip-path="url(#clip3)" clip-rule="nonzero">
<path style=" stroke:none;fill-rule:nonzero;fill:rgb(0%,24.308777%,32.159424%);fill-opacity:1;" d="M 895.433594 664.476562 L 895.433594 284.714844 L 951.011719 284.714844 L 951.011719 664.476562 Z M 784.285156 664.476562 L 784.285156 395.863281 L 839.859375 395.863281 L 839.859375 664.476562 Z M 663.871094 664.476562 L 663.871094 516.277344 L 719.449219 516.277344 L 719.449219 664.476562 Z M 543.460938 664.476562 L 543.460938 636.6875 L 599.035156 636.6875 L 599.035156 664.476562 Z M 978.796875 664.476562 L 969.535156 664.476562 L 969.535156 284.714844 C 969.535156 274.511719 961.214844 266.1875 951.011719 266.1875 L 895.433594 266.1875 C 885.230469 266.1875 876.910156 274.511719 876.910156 284.714844 L 876.910156 664.476562 L 858.386719 664.476562 L 858.386719 395.863281 C 858.386719 385.660156 850.0625 377.339844 839.859375 377.339844 L 784.285156 377.339844 C 774.082031 377.339844 765.761719 385.660156 765.761719 395.863281 L 765.761719 664.476562 L 737.972656 664.476562 L 737.972656 516.277344 C 737.972656 506.074219 729.652344 497.75 719.449219 497.75 L 663.871094 497.75 C 653.667969 497.75 645.347656 506.074219 645.347656 516.277344 L 645.347656 664.476562 L 617.558594 664.476562 L 617.558594 636.6875 C 617.558594 626.484375 609.238281 618.164062 599.035156 618.164062 L 543.460938 618.164062 C 533.257812 618.164062 524.933594 626.484375 524.933594 636.6875 L 524.933594 664.476562 L 441.574219 664.476562 C 436.472656 664.476562 432.308594 668.636719 432.308594 673.738281 C 432.308594 678.839844 436.472656 683 441.574219 683 L 978.796875 683 C 983.898438 683 988.058594 678.839844 988.058594 673.738281 C 988.058594 668.636719 983.898438 664.476562 978.796875 664.476562 "/>
</g>
<g clip-path="url(#clip4)" clip-rule="nonzero">
<path style=" stroke:none;fill-rule:nonzero;fill:rgb(100%,51.759338%,0%);fill-opacity:1;" d="M 552.722656 145.777344 C 608.914062 145.777344 654.609375 191.472656 654.609375 247.664062 C 654.609375 303.851562 608.914062 349.550781 552.722656 349.550781 C 496.53125 349.550781 450.835938 303.851562 450.835938 247.664062 C 450.835938 191.472656 496.53125 145.777344 552.722656 145.777344 Z M 552.722656 368.074219 C 619.117188 368.074219 673.136719 314.058594 673.136719 247.664062 C 673.136719 181.269531 619.117188 127.25 552.722656 127.25 C 486.328125 127.25 432.308594 181.269531 432.308594 247.664062 C 432.308594 314.058594 486.328125 368.074219 552.722656 368.074219 "/>
</g>
<path style=" stroke:none;fill-rule:nonzero;fill:rgb(100%,51.759338%,0%);fill-opacity:1;" d="M 524.933594 256.925781 L 566.472656 256.925781 L 544.21875 308.847656 C 542.195312 313.550781 544.363281 319.011719 549.070312 321.003906 C 550.261719 321.511719 551.492188 321.761719 552.722656 321.761719 C 556.304688 321.761719 559.742188 319.664062 561.226562 316.15625 L 589.011719 251.316406 C 590.242188 248.460938 589.953125 245.167969 588.253906 242.5625 C 586.515625 239.957031 583.621094 238.402344 580.511719 238.402344 L 538.972656 238.402344 L 561.226562 186.480469 C 563.25 181.777344 561.082031 176.3125 556.378906 174.324219 C 551.710938 172.296875 546.210938 174.46875 544.21875 179.171875 L 516.433594 244.007812 C 515.203125 246.867188 515.492188 250.160156 517.191406 252.765625 C 518.929688 255.371094 521.824219 256.925781 524.933594 256.925781 "/>
<g clip-path="url(#clip5)" clip-rule="nonzero">
<path style=" stroke:none;fill-rule:nonzero;fill:rgb(100%,51.759338%,0%);fill-opacity:1;" d="M 982.34375 127.972656 C 981.222656 127.503906 979.992188 127.25 978.796875 127.25 L 913.960938 127.25 C 908.859375 127.25 904.699219 131.410156 904.699219 136.511719 C 904.699219 141.613281 908.859375 145.777344 913.960938 145.777344 L 956.4375 145.777344 L 472.074219 630.140625 C 468.457031 633.757812 468.457031 639.617188 472.074219 643.238281 C 473.882812 645.046875 476.234375 645.949219 478.621094 645.949219 C 481.011719 645.949219 483.363281 645.046875 485.171875 643.238281 L 969.535156 158.875 L 969.535156 201.351562 C 969.535156 206.453125 973.695312 210.613281 978.796875 210.613281 C 983.898438 210.613281 988.058594 206.453125 988.058594 201.351562 L 988.058594 136.511719 C 988.058594 135.320312 987.808594 134.089844 987.335938 132.96875 C 986.394531 130.6875 984.625 128.914062 982.34375 127.972656 "/>
</g>
<g clip-path="url(#clip6)" clip-rule="nonzero">
<path style=" stroke:none;fill-rule:nonzero;fill:rgb(100%,51.759338%,0%);fill-opacity:1;" d="M 895.433594 664.476562 L 895.433594 284.714844 L 951.011719 284.714844 L 951.011719 664.476562 Z M 784.285156 664.476562 L 784.285156 395.863281 L 839.859375 395.863281 L 839.859375 664.476562 Z M 663.871094 664.476562 L 663.871094 516.277344 L 719.449219 516.277344 L 719.449219 664.476562 Z M 543.460938 664.476562 L 543.460938 636.6875 L 599.035156 636.6875 L 599.035156 664.476562 Z M 978.796875 664.476562 L 969.535156 664.476562 L 969.535156 284.714844 C 969.535156 274.511719 961.214844 266.1875 951.011719 266.1875 L 895.433594 266.1875 C 885.230469 266.1875 876.910156 274.511719 876.910156 284.714844 L 876.910156 664.476562 L 858.386719 664.476562 L 858.386719 395.863281 C 858.386719 385.660156 850.0625 377.339844 839.859375 377.339844 L 784.285156 377.339844 C 774.082031 377.339844 765.761719 385.660156 765.761719 395.863281 L 765.761719 664.476562 L 737.972656 664.476562 L 737.972656 516.277344 C 737.972656 506.074219 729.652344 497.75 719.449219 497.75 L 663.871094 497.75 C 653.667969 497.75 645.347656 506.074219 645.347656 516.277344 L 645.347656 664.476562 L 617.558594 664.476562 L 617.558594 636.6875 C 617.558594 626.484375 609.238281 618.164062 599.035156 618.164062 L 543.460938 618.164062 C 533.257812 618.164062 524.933594 626.484375 524.933594 636.6875 L 524.933594 664.476562 L 441.574219 664.476562 C 436.472656 664.476562 432.308594 668.636719 432.308594 673.738281 C 432.308594 678.839844 436.472656 683 441.574219 683 L 978.796875 683 C 983.898438 683 988.058594 678.839844 988.058594 673.738281 C 988.058594 668.636719 983.898438 664.476562 978.796875 664.476562 "/>
</g>
</g>
</svg>
