<?xml version="1.0" encoding="UTF-8"?>
<svg xmlns="http://www.w3.org/2000/svg" xmlns:xlink="http://www.w3.org/1999/xlink" width="1440pt" height="809.999993pt" viewBox="0 0 1440 809.999993" version="1.2">
<defs>
<clipPath id="clip1">
  <path d="M 442.863281 128 L 997 128 L 997 682 L 442.863281 682 Z M 442.863281 128 "/>
</clipPath>
<clipPath id="clip2">
  <path d="M 547.550781 276.359375 L 831.050781 276.359375 L 831.050781 485.609375 L 547.550781 485.609375 Z M 547.550781 276.359375 "/>
</clipPath>
</defs>
<g id="surface1">
<rect x="0" y="0" width="1440" height="809.999993" style="fill:rgb(100%,100%,100%);fill-opacity:1;stroke:none;"/>
<rect x="0" y="0" width="1440" height="809.999993" style="fill:rgb(100%,100%,100%);fill-opacity:1;stroke:none;"/>
<g clip-path="url(#clip1)" clip-rule="nonzero">
<path style=" stroke:none;fill-rule:nonzero;fill:rgb(0%,24.308777%,32.159424%);fill-opacity:1;" d="M 948.460938 658.605469 L 885.632812 595.777344 L 910.300781 571.109375 L 973.128906 633.9375 Z M 857.015625 567.160156 L 881.683594 542.492188 L 896.8125 557.621094 L 872.144531 582.289062 Z M 461.941406 376.367188 C 461.941406 250.117188 564.640625 147.417969 690.890625 147.417969 C 817.140625 147.417969 919.839844 250.117188 919.839844 376.367188 C 919.839844 502.617188 817.140625 605.320312 690.890625 605.320312 C 564.640625 605.320312 461.941406 502.617188 461.941406 376.367188 Z M 690.890625 128.339844 C 554.132812 128.339844 442.863281 239.609375 442.863281 376.367188 C 442.863281 513.128906 554.132812 624.398438 690.890625 624.398438 C 746.117188 624.398438 797.207031 606.210938 838.457031 575.582031 L 941.714844 678.839844 C 943.578125 680.703125 946 681.636719 948.460938 681.636719 C 950.917969 681.636719 953.339844 680.703125 955.203125 678.839844 L 993.363281 640.683594 C 997.089844 636.957031 997.089844 630.917969 993.363281 627.191406 L 890.105469 523.933594 C 920.734375 482.683594 938.921875 431.59375 938.921875 376.367188 C 938.921875 239.609375 827.648438 128.339844 690.890625 128.339844 "/>
</g>
<path style=" stroke:none;fill-rule:nonzero;fill:rgb(0%,24.308777%,32.159424%);fill-opacity:1;" d="M 690.890625 567.160156 C 585.695312 567.160156 500.097656 481.566406 500.097656 376.367188 C 500.097656 271.171875 585.695312 185.578125 690.890625 185.578125 C 796.085938 185.578125 881.683594 271.171875 881.683594 376.367188 C 881.683594 481.566406 796.085938 567.160156 690.890625 567.160156 Z M 690.890625 166.496094 C 575.148438 166.496094 481.019531 260.625 481.019531 376.367188 C 481.019531 492.109375 575.148438 586.238281 690.890625 586.238281 C 806.632812 586.238281 900.761719 492.109375 900.761719 376.367188 C 900.761719 260.625 806.632812 166.496094 690.890625 166.496094 "/>
<path style=" stroke:none;fill-rule:nonzero;fill:rgb(0%,24.308777%,32.159424%);fill-opacity:1;" d="M 805.367188 347.75 L 729.050781 347.75 L 729.050781 309.589844 L 805.367188 309.589844 Z M 786.289062 462.226562 L 595.496094 462.226562 L 595.496094 366.828125 L 652.734375 366.828125 L 652.734375 414.527344 C 652.734375 419.78125 657.019531 424.066406 662.273438 424.066406 L 719.511719 424.066406 C 724.765625 424.066406 729.050781 419.78125 729.050781 414.527344 L 729.050781 366.828125 L 786.289062 366.828125 Z M 576.417969 309.589844 L 652.734375 309.589844 L 652.734375 347.75 L 576.417969 347.75 Z M 671.8125 366.828125 L 709.96875 366.828125 L 709.96875 404.988281 L 671.8125 404.988281 Z M 709.96875 309.589844 L 709.96875 347.75 L 671.8125 347.75 L 671.8125 309.589844 Z M 814.90625 290.511719 L 566.875 290.511719 C 561.621094 290.511719 557.335938 294.796875 557.335938 300.050781 L 557.335938 357.289062 C 557.335938 362.542969 561.621094 366.828125 566.875 366.828125 L 576.417969 366.828125 L 576.417969 471.765625 C 576.417969 477.019531 580.703125 481.304688 585.957031 481.304688 L 795.828125 481.304688 C 801.082031 481.304688 805.367188 477.019531 805.367188 471.765625 L 805.367188 366.828125 L 814.90625 366.828125 C 820.160156 366.828125 824.445312 362.542969 824.445312 357.289062 L 824.445312 300.050781 C 824.445312 294.796875 820.160156 290.511719 814.90625 290.511719 "/>
<g clip-path="url(#clip2)" clip-rule="nonzero">
<path style=" stroke:none;fill-rule:nonzero;fill:rgb(100%,51.759338%,0%);fill-opacity:1;" d="M 949.679688 658.121094 L 886.855469 595.296875 L 911.523438 570.625 L 974.351562 633.453125 Z M 858.234375 566.675781 L 882.902344 542.007812 L 898.03125 557.136719 L 873.363281 581.804688 Z M 463.160156 375.886719 C 463.160156 249.632812 565.863281 146.933594 692.113281 146.933594 C 818.363281 146.933594 921.0625 249.632812 921.0625 375.886719 C 921.0625 502.136719 818.363281 604.835938 692.113281 604.835938 C 565.863281 604.835938 463.160156 502.136719 463.160156 375.886719 Z M 692.113281 127.855469 C 555.351562 127.855469 444.082031 239.125 444.082031 375.886719 C 444.082031 512.644531 555.351562 623.914062 692.113281 623.914062 C 747.335938 623.914062 798.425781 605.730469 839.675781 575.097656 L 942.9375 678.355469 C 944.800781 680.21875 947.222656 681.152344 949.679688 681.152344 C 952.140625 681.152344 954.5625 680.21875 956.425781 678.355469 L 994.585938 640.199219 C 998.308594 636.472656 998.308594 630.433594 994.585938 626.710938 L 891.324219 523.449219 C 921.957031 482.199219 940.140625 431.109375 940.140625 375.886719 C 940.140625 239.125 828.871094 127.855469 692.113281 127.855469 "/>
<path style=" stroke:none;fill-rule:nonzero;fill:rgb(100%,51.759338%,0%);fill-opacity:1;" d="M 692.113281 566.675781 C 586.914062 566.675781 501.320312 481.082031 501.320312 375.886719 C 501.320312 270.6875 586.914062 185.09375 692.113281 185.09375 C 797.308594 185.09375 882.902344 270.6875 882.902344 375.886719 C 882.902344 481.082031 797.308594 566.675781 692.113281 566.675781 Z M 692.113281 166.015625 C 576.371094 166.015625 482.242188 260.144531 482.242188 375.886719 C 482.242188 491.628906 576.371094 585.757812 692.113281 585.757812 C 807.855469 585.757812 901.984375 491.628906 901.984375 375.886719 C 901.984375 260.144531 807.855469 166.015625 692.113281 166.015625 "/>
</g>
<path style=" stroke:none;fill-rule:nonzero;fill:rgb(100%,51.759338%,0%);fill-opacity:1;" d="M 806.585938 347.265625 L 730.269531 347.265625 L 730.269531 309.109375 L 806.585938 309.109375 Z M 787.507812 461.742188 L 596.714844 461.742188 L 596.714844 366.34375 L 653.953125 366.34375 L 653.953125 414.042969 C 653.953125 419.296875 658.238281 423.582031 663.492188 423.582031 L 720.730469 423.582031 C 725.984375 423.582031 730.269531 419.296875 730.269531 414.042969 L 730.269531 366.34375 L 787.507812 366.34375 Z M 577.636719 309.109375 L 653.953125 309.109375 L 653.953125 347.265625 L 577.636719 347.265625 Z M 673.03125 366.34375 L 711.191406 366.34375 L 711.191406 404.503906 L 673.03125 404.503906 Z M 711.191406 309.109375 L 711.191406 347.265625 L 673.03125 347.265625 L 673.03125 309.109375 Z M 816.125 290.027344 L 568.097656 290.027344 C 562.84375 290.027344 558.558594 294.3125 558.558594 299.570312 L 558.558594 356.804688 C 558.558594 362.058594 562.84375 366.34375 568.097656 366.34375 L 577.636719 366.34375 L 577.636719 471.28125 C 577.636719 476.535156 581.921875 480.820312 587.175781 480.820312 L 797.046875 480.820312 C 802.300781 480.820312 806.585938 476.535156 806.585938 471.28125 L 806.585938 366.34375 L 816.125 366.34375 C 821.382812 366.34375 825.667969 362.058594 825.667969 356.804688 L 825.667969 299.570312 C 825.667969 294.3125 821.382812 290.027344 816.125 290.027344 "/>
</g>
</svg>
