<svg xmlns="http://www.w3.org/2000/svg" xmlns:xlink="http://www.w3.org/1999/xlink" width="1920" zoomAndPan="magnify" viewBox="0 0 1440 809.999993" height="1080" preserveAspectRatio="xMidYMid meet" version="1.0"><defs><clipPath id="e6cbc0a397"><path d="M 466.808594 42.652344 L 967 42.652344 L 967 538 L 466.808594 538 Z M 466.808594 42.652344 " clip-rule="nonzero"/></clipPath><clipPath id="e14b3c8c69"><path d="M 645 619 L 814 619 L 814 767.152344 L 645 767.152344 Z M 645 619 " clip-rule="nonzero"/></clipPath></defs><g clip-path="url(#e6cbc0a397)"><path fill="#003e52" d="M 764.382812 537.105469 C 760.515625 537.105469 757.054688 534.386719 756.257812 530.445312 C 755.355469 525.953125 758.261719 521.578125 762.753906 520.671875 C 811.585938 510.832031 855.21875 486.019531 888.9375 448.921875 L 889.574219 448.21875 C 889.878906 447.882812 890.183594 447.546875 890.476562 447.203125 C 928.535156 404.441406 949.449219 349.449219 949.449219 292.265625 C 949.453125 163.777344 844.921875 59.246094 716.433594 59.246094 C 587.953125 59.246094 483.425781 163.777344 483.425781 292.265625 C 483.425781 349.449219 504.34375 404.4375 542.320312 447.113281 C 545.367188 450.539062 545.0625 455.785156 541.636719 458.832031 C 538.214844 461.878906 532.96875 461.570312 529.921875 458.148438 C 489.238281 412.429688 466.832031 353.519531 466.832031 292.265625 C 466.832031 154.628906 578.800781 42.652344 716.433594 42.652344 C 854.070312 42.652344 966.046875 154.628906 966.046875 292.265625 C 966.046875 353.523438 943.640625 412.433594 902.953125 458.148438 C 902.652344 458.496094 902.261719 458.929688 901.871094 459.363281 L 901.277344 460.023438 C 865.101562 499.820312 818.355469 526.394531 766.03125 536.941406 C 765.480469 537.050781 764.929688 537.105469 764.382812 537.105469 Z M 764.382812 537.105469 " fill-opacity="1" fill-rule="nonzero"/></g><path fill="#003e52" d="M 694.988281 540.929688 C 694.742188 540.929688 694.496094 540.917969 694.25 540.898438 C 644.570312 536.511719 597.824219 517.53125 559.058594 486.011719 C 555.5 483.121094 554.960938 477.894531 557.855469 474.339844 C 560.746094 470.785156 565.96875 470.246094 569.527344 473.136719 C 605.710938 502.554688 649.34375 520.273438 695.707031 524.367188 C 700.273438 524.769531 703.648438 528.800781 703.242188 533.363281 C 702.863281 537.679688 699.242188 540.929688 694.988281 540.929688 Z M 694.988281 540.929688 " fill-opacity="1" fill-rule="nonzero"/><path fill="#ff914d" d="M 681.90625 429.582031 C 680.515625 429.582031 679.109375 429.230469 677.828125 428.507812 C 674.445312 426.59375 672.84375 422.589844 673.972656 418.867188 L 704.878906 317.238281 L 617.3125 325.960938 C 613.90625 326.292969 610.628906 324.503906 609.082031 321.4375 C 607.539062 318.375 608.039062 314.675781 610.34375 312.132812 L 750.269531 157.667969 C 752.855469 154.8125 757.074219 154.109375 760.445312 155.980469 C 763.816406 157.855469 765.453125 161.800781 764.398438 165.511719 L 736.496094 263.488281 L 816.433594 263.972656 C 819.703125 263.996094 822.65625 265.933594 823.976562 268.925781 C 825.296875 271.917969 824.734375 275.40625 822.542969 277.832031 L 688.070312 426.84375 C 686.453125 428.636719 684.195312 429.582031 681.90625 429.582031 Z M 716.441406 299.449219 C 718.910156 299.449219 721.269531 300.550781 722.851562 302.484375 C 724.613281 304.625 725.1875 307.507812 724.378906 310.164062 L 700.675781 388.109375 L 797.820312 280.457031 L 725.472656 280.015625 C 722.878906 280 720.441406 278.773438 718.886719 276.699219 C 717.332031 274.625 716.832031 271.941406 717.542969 269.445312 L 738.699219 195.160156 L 637.101562 307.3125 L 715.617188 299.492188 C 715.890625 299.460938 716.167969 299.449219 716.441406 299.449219 Z M 716.441406 299.449219 " fill-opacity="1" fill-rule="nonzero"/><path fill="#003e52" d="M 764.394531 635.96875 C 759.8125 635.96875 756.097656 632.253906 756.097656 627.671875 L 756.097656 471.519531 L 703.277344 471.519531 L 703.277344 627.671875 C 703.277344 632.253906 699.5625 635.96875 694.980469 635.96875 C 690.398438 635.96875 686.683594 632.253906 686.683594 627.671875 L 686.683594 463.222656 C 686.683594 458.640625 690.398438 454.925781 694.980469 454.925781 L 764.394531 454.925781 C 768.976562 454.925781 772.691406 458.640625 772.691406 463.222656 L 772.691406 627.671875 C 772.691406 632.253906 768.976562 635.96875 764.394531 635.96875 Z M 764.394531 635.96875 " fill-opacity="1" fill-rule="nonzero"/><g clip-path="url(#e14b3c8c69)"><path fill="#003e52" d="M 729.6875 767.339844 C 726.722656 767.339844 723.980469 765.757812 722.5 763.191406 L 646.664062 631.820312 C 645.183594 629.253906 645.183594 626.089844 646.664062 623.523438 C 648.148438 620.957031 650.886719 619.375 653.851562 619.375 L 694.980469 619.375 C 699.5625 619.375 703.277344 623.089844 703.277344 627.671875 C 703.277344 632.253906 699.5625 635.96875 694.980469 635.96875 L 668.222656 635.96875 L 729.6875 742.445312 L 791.148438 635.96875 L 764.390625 635.96875 C 759.8125 635.96875 756.09375 632.253906 756.09375 627.671875 C 756.09375 623.089844 759.8125 619.375 764.390625 619.375 L 805.519531 619.375 C 808.484375 619.375 811.222656 620.957031 812.707031 623.523438 C 814.1875 626.089844 814.1875 629.253906 812.707031 631.820312 L 736.875 763.191406 C 735.390625 765.757812 732.652344 767.339844 729.6875 767.339844 Z M 729.6875 767.339844 " fill-opacity="1" fill-rule="nonzero"/></g><path fill="#003e52" d="M 938.644531 564.125 C 934.0625 564.125 930.347656 560.410156 930.347656 555.828125 L 930.347656 460.929688 L 903.382812 460.929688 L 903.382812 555.828125 C 903.382812 560.410156 899.667969 564.125 895.085938 564.125 C 890.503906 564.125 886.789062 560.410156 886.789062 555.828125 L 886.789062 452.632812 C 886.789062 448.050781 890.503906 444.335938 895.085938 444.335938 L 938.644531 444.335938 C 943.226562 444.335938 946.941406 448.050781 946.941406 452.632812 L 946.941406 555.828125 C 946.941406 560.410156 943.226562 564.125 938.644531 564.125 Z M 938.644531 564.125 " fill-opacity="1" fill-rule="nonzero"/><path fill="#003e52" d="M 916.863281 646.5625 C 913.898438 646.5625 911.160156 644.980469 909.679688 642.414062 L 862.089844 559.976562 C 860.609375 557.410156 860.609375 554.246094 862.089844 551.679688 C 863.574219 549.113281 866.3125 547.527344 869.277344 547.527344 L 895.085938 547.527344 C 899.667969 547.527344 903.382812 551.246094 903.382812 555.828125 C 903.382812 560.410156 899.667969 564.125 895.085938 564.125 L 883.644531 564.125 L 916.863281 621.667969 L 950.082031 564.125 L 938.644531 564.125 C 934.0625 564.125 930.347656 560.410156 930.347656 555.828125 C 930.347656 551.246094 934.0625 547.527344 938.644531 547.527344 L 964.453125 547.527344 C 967.417969 547.527344 970.15625 549.113281 971.636719 551.679688 C 973.121094 554.246094 973.121094 557.410156 971.636719 559.976562 L 924.050781 642.414062 C 922.570312 644.980469 919.828125 646.5625 916.863281 646.5625 Z M 916.863281 646.5625 " fill-opacity="1" fill-rule="nonzero"/><path fill="#003e52" d="M 564.289062 564.125 C 559.707031 564.125 555.992188 560.410156 555.992188 555.828125 L 555.992188 460.929688 L 529.027344 460.929688 L 529.027344 555.828125 C 529.027344 560.410156 525.3125 564.125 520.730469 564.125 C 516.148438 564.125 512.433594 560.410156 512.433594 555.828125 L 512.433594 452.632812 C 512.433594 448.050781 516.148438 444.335938 520.730469 444.335938 L 564.289062 444.335938 C 568.871094 444.335938 572.585938 448.050781 572.585938 452.632812 L 572.585938 555.828125 C 572.585938 560.410156 568.871094 564.125 564.289062 564.125 Z M 564.289062 564.125 " fill-opacity="1" fill-rule="nonzero"/><path fill="#003e52" d="M 542.507812 646.5625 C 539.542969 646.5625 536.804688 644.980469 535.324219 642.414062 L 487.734375 559.976562 C 486.253906 557.410156 486.253906 554.246094 487.734375 551.679688 C 489.21875 549.113281 491.957031 547.527344 494.921875 547.527344 L 520.730469 547.527344 C 525.3125 547.527344 529.027344 551.246094 529.027344 555.828125 C 529.027344 560.410156 525.3125 564.125 520.730469 564.125 L 509.292969 564.125 L 542.507812 621.667969 L 575.726562 564.125 L 564.289062 564.125 C 559.707031 564.125 555.988281 560.410156 555.988281 555.828125 C 555.988281 551.246094 559.707031 547.527344 564.289062 547.527344 L 590.097656 547.527344 C 593.0625 547.527344 595.800781 549.113281 597.28125 551.679688 C 598.765625 554.246094 598.765625 557.410156 597.28125 559.976562 L 549.695312 642.414062 C 548.214844 644.980469 545.472656 646.5625 542.507812 646.5625 Z M 542.507812 646.5625 " fill-opacity="1" fill-rule="nonzero"/></svg>