<svg xmlns="http://www.w3.org/2000/svg" xmlns:xlink="http://www.w3.org/1999/xlink" width="1920" zoomAndPan="magnify" viewBox="0 0 1440 809.999993" height="1080" preserveAspectRatio="xMidYMid meet" version="1.0"><defs><clipPath id="e6c178194f"><path d="M 677 737 L 718 737 L 718 753.351562 L 677 753.351562 Z M 677 737 " clip-rule="nonzero"/></clipPath><clipPath id="d3055deee5"><path d="M 465 480 L 466.246094 480 L 466.246094 500.839844 L 465 500.839844 Z M 465 480 " clip-rule="nonzero"/></clipPath></defs><path fill="#003e52" d="M 392.957031 307.742188 C 382.984375 307.742188 373.035156 312.125 366.910156 320.167969 C 357.023438 333.152344 362.371094 349 362.601562 349.667969 C 366.976562 362.230469 378.730469 371.019531 391.84375 371.535156 C 406.304688 372.121094 419.433594 363.003906 423.757812 349.394531 C 428.203125 335.421875 422.113281 319.746094 409.28125 312.117188 C 404.296875 309.15625 398.621094 307.742188 392.957031 307.742188 Z M 393.128906 380.289062 C 392.589844 380.289062 392.046875 380.28125 391.5 380.257812 C 374.828125 379.597656 359.90625 368.457031 354.359375 352.535156 C 354.066406 351.683594 347.273438 331.554688 359.96875 314.878906 C 372.378906 298.582031 395.996094 294.074219 413.742188 304.617188 C 430.027344 314.296875 437.738281 334.238281 432.078125 352.039062 C 426.722656 368.863281 410.855469 380.289062 393.128906 380.289062 " fill-opacity="1" fill-rule="nonzero"/><path fill="#003e52" d="M 337.496094 378.519531 C 338.363281 381.550781 340.660156 389.621094 363.324219 425.855469 C 372.996094 441.3125 383.09375 456.660156 393.386719 471.53125 C 407 453.679688 419.238281 434.816406 429.804688 415.398438 C 450.347656 377.652344 459.261719 360.058594 455.292969 338.535156 C 454.367188 333.503906 448.503906 307.695312 424.226562 293.84375 C 399.609375 279.796875 366.765625 283.585938 347.84375 302.664062 C 331.367188 319.277344 327.886719 344.792969 337.496094 378.515625 L 333.300781 379.710938 Z M 392.996094 486.238281 L 389.621094 481.410156 C 378.070312 464.898438 366.734375 447.761719 355.925781 430.480469 C 332.609375 393.199219 330.242188 384.898438 329.101562 380.90625 C 318.5625 343.929688 322.78125 315.539062 341.644531 296.519531 C 363.253906 274.734375 400.621094 270.324219 428.554688 286.265625 C 456.183594 302.027344 462.824219 331.253906 463.875 336.953125 C 468.574219 362.421875 457.527344 382.722656 437.472656 419.570312 C 425.746094 441.121094 412.003906 461.992188 396.632812 481.601562 L 392.996094 486.238281 " fill-opacity="1" fill-rule="nonzero"/><path fill="#003e52" d="M 1019.859375 106.40625 C 1009.960938 119.402344 1015.492188 135.734375 1015.546875 135.898438 C 1019.921875 148.464844 1031.675781 157.257812 1044.792969 157.777344 C 1059.269531 158.351562 1072.378906 149.238281 1076.707031 135.632812 C 1081.152344 121.660156 1075.066406 105.984375 1062.230469 98.359375 C 1048.472656 90.179688 1029.46875 93.789062 1019.859375 106.40625 Z M 1046.082031 166.527344 C 1045.535156 166.527344 1044.996094 166.515625 1044.449219 166.496094 C 1027.777344 165.835938 1012.851562 154.695312 1007.308594 138.769531 C 1007.011719 137.925781 1000.207031 117.808594 1012.917969 101.117188 C 1025.328125 84.820312 1048.949219 80.308594 1066.6875 90.855469 C 1082.972656 100.53125 1090.6875 120.480469 1085.023438 138.277344 C 1079.671875 155.101562 1063.800781 166.527344 1046.082031 166.527344 " fill-opacity="1" fill-rule="nonzero"/><path fill="#003e52" d="M 990.441406 164.753906 C 991.308594 167.792969 993.609375 175.859375 1016.273438 212.089844 C 1025.953125 227.566406 1036.050781 242.910156 1046.332031 257.773438 C 1059.949219 239.914062 1072.183594 221.054688 1082.757812 201.632812 C 1103.296875 163.886719 1112.210938 146.296875 1108.238281 124.773438 C 1107.3125 119.738281 1101.453125 93.933594 1077.179688 80.082031 C 1052.554688 66.035156 1019.714844 69.828125 1000.789062 88.902344 C 984.3125 105.511719 980.832031 131.035156 990.441406 164.753906 L 986.246094 165.949219 Z M 1045.949219 272.472656 L 1042.574219 267.644531 C 1031.03125 251.15625 1019.695312 234.019531 1008.875 216.714844 C 985.554688 179.4375 983.1875 171.136719 982.050781 167.148438 L 982.050781 167.144531 C 971.511719 130.164062 975.730469 101.773438 994.59375 82.757812 C 1016.207031 60.972656 1053.566406 56.566406 1081.5 72.503906 C 1109.128906 88.261719 1115.769531 117.492188 1116.824219 123.191406 C 1121.523438 148.660156 1110.476562 168.957031 1090.421875 205.808594 C 1078.691406 227.355469 1064.953125 248.226562 1049.582031 267.835938 L 1045.949219 272.472656 " fill-opacity="1" fill-rule="nonzero"/><path fill="#003e52" d="M 416.335938 486.574219 C 419.167969 485.816406 422.03125 485.191406 424.921875 484.710938 C 425.726562 484.578125 426.570312 484.375 427.386719 484.335938 C 425.808594 484.414062 427.5 484.332031 427.835938 484.289062 C 428.210938 484.246094 428.589844 484.203125 428.964844 484.167969 C 430.878906 483.972656 432.800781 483.835938 434.726562 483.769531 C 438.539062 483.628906 442.367188 483.738281 446.167969 484.097656 C 447.03125 484.179688 447.894531 484.273438 448.757812 484.378906 C 450.148438 484.550781 447.882812 484.242188 448.957031 484.40625 C 449.355469 484.464844 449.757812 484.523438 450.160156 484.585938 C 451.699219 484.824219 453.234375 485.113281 454.757812 485.433594 C 457.429688 485.992188 460.546875 484.648438 461.199219 481.773438 C 461.796875 479.148438 460.410156 475.933594 457.542969 475.332031 C 443.003906 472.28125 427.910156 472.625 413.554688 476.476562 C 410.910156 477.183594 409.03125 480.238281 409.894531 482.917969 C 410.777344 485.632812 413.503906 487.339844 416.335938 486.574219 " fill-opacity="1" fill-rule="nonzero"/><path fill="#003e52" d="M 467.035156 489.289062 C 475.902344 496.949219 484.191406 505.246094 491.847656 514.109375 C 493.644531 516.191406 497.4375 516.085938 499.253906 514.109375 C 501.289062 511.894531 501.171875 508.921875 499.253906 506.707031 C 491.601562 497.839844 483.304688 489.539062 474.445312 481.882812 C 472.371094 480.09375 469.046875 479.695312 467.035156 481.882812 C 465.234375 483.847656 464.824219 487.375 467.035156 489.289062 " fill-opacity="1" fill-rule="nonzero"/><path fill="#003e52" d="M 501.484375 528.441406 C 505.519531 541.171875 509.550781 553.902344 513.585938 566.632812 C 514.414062 569.234375 517.265625 571.179688 520.027344 570.285156 C 522.644531 569.441406 524.570312 566.640625 523.683594 563.847656 C 519.652344 551.117188 515.617188 538.386719 511.585938 525.660156 C 510.757812 523.050781 507.90625 521.109375 505.140625 522.003906 C 502.527344 522.847656 500.601562 525.648438 501.484375 528.441406 " fill-opacity="1" fill-rule="nonzero"/><path fill="#003e52" d="M 522.542969 580.429688 C 527.226562 593.875 531.910156 607.320312 536.589844 620.761719 C 537.492188 623.347656 540.21875 625.328125 543.035156 624.417969 C 545.582031 623.59375 547.652344 620.75 546.691406 617.980469 C 542.007812 604.535156 537.328125 591.09375 532.644531 577.644531 C 531.746094 575.066406 529.019531 573.078125 526.203125 573.988281 C 523.648438 574.8125 521.578125 577.660156 522.542969 580.429688 " fill-opacity="1" fill-rule="nonzero"/><path fill="#003e52" d="M 547.667969 644.171875 C 554.050781 655.988281 561.921875 667.003906 570.941406 676.953125 C 572.785156 678.988281 576.496094 678.964844 578.34375 676.953125 C 580.34375 674.78125 580.3125 671.71875 578.34375 669.546875 C 576.1875 667.167969 574.09375 664.726562 572.078125 662.21875 C 571.546875 661.558594 570.988281 660.90625 570.492188 660.214844 C 571.003906 660.921875 570.679688 660.453125 570.351562 660.027344 C 570.113281 659.714844 569.875 659.402344 569.640625 659.085938 C 568.695312 657.828125 567.765625 656.554688 566.855469 655.269531 C 563.152344 650.015625 559.765625 644.542969 556.707031 638.886719 C 555.40625 636.472656 551.867188 635.507812 549.546875 637.007812 C 547.097656 638.589844 546.273438 641.589844 547.667969 644.171875 " fill-opacity="1" fill-rule="nonzero"/><path fill="#003e52" d="M 584.191406 689.59375 C 592.382812 700.105469 602.714844 708.980469 614.269531 715.613281 C 616.648438 716.976562 620.109375 716.25 621.4375 713.734375 C 622.753906 711.242188 622.09375 708.027344 619.558594 706.570312 C 616.789062 704.980469 614.09375 703.265625 611.488281 701.417969 C 610.839844 700.957031 610.191406 700.488281 609.550781 700.011719 C 609.207031 699.753906 608.847656 699.511719 608.523438 699.234375 C 608.679688 699.355469 608.839844 699.480469 609 699.601562 C 608.804688 699.453125 608.613281 699.296875 608.421875 699.144531 C 607.167969 698.15625 605.9375 697.136719 604.734375 696.085938 C 599.917969 691.886719 595.523438 687.226562 591.597656 682.1875 C 590.828125 681.203125 589.070312 680.648438 587.894531 680.648438 C 586.609375 680.648438 585.074219 681.222656 584.191406 682.1875 C 583.273438 683.183594 582.597656 684.492188 582.660156 685.886719 C 582.722656 687.371094 583.289062 688.433594 584.191406 689.59375 " fill-opacity="1" fill-rule="nonzero"/><path fill="#003e52" d="M 633.960938 726.671875 C 643.757812 730.949219 653.554688 735.222656 663.351562 739.5 C 664.691406 740.082031 665.917969 740.429688 667.386719 740.027344 C 668.597656 739.691406 669.917969 738.753906 670.515625 737.621094 C 671.710938 735.355469 671.320312 731.625 668.636719 730.453125 C 658.839844 726.179688 649.042969 721.90625 639.246094 717.628906 C 637.90625 717.046875 636.679688 716.699219 635.210938 717.105469 C 633.992188 717.4375 632.675781 718.375 632.082031 719.507812 C 630.882812 721.773438 631.28125 725.503906 633.960938 726.671875 " fill-opacity="1" fill-rule="nonzero"/><g clip-path="url(#e6c178194f)"><path fill="#003e52" d="M 681.101562 747.730469 C 691.398438 750.238281 701.855469 752.03125 712.390625 753.21875 C 713.632812 753.355469 715.242188 752.53125 716.09375 751.683594 C 717 750.777344 717.683594 749.285156 717.625 747.980469 C 717.488281 744.882812 715.320312 743.070312 712.390625 742.746094 C 711.132812 742.601562 709.875 742.453125 708.621094 742.289062 C 708.34375 742.257812 708.054688 742.238281 707.78125 742.183594 C 708.191406 742.269531 708.539062 742.289062 707.917969 742.203125 C 707.289062 742.113281 706.664062 742.023438 706.039062 741.9375 C 703.53125 741.570312 701.035156 741.164062 698.539062 740.722656 C 693.621094 739.847656 688.738281 738.808594 683.882812 737.628906 C 681.226562 736.980469 678.082031 738.472656 677.441406 741.285156 C 676.824219 743.984375 678.25 747.03125 681.101562 747.730469 " fill-opacity="1" fill-rule="nonzero"/></g><path fill="#003e52" d="M 739.785156 750.328125 C 750.773438 749.171875 761.699219 747.441406 772.492188 745.078125 C 775.171875 744.488281 776.988281 741.226562 776.152344 738.632812 C 775.238281 735.816406 772.578125 734.347656 769.707031 734.976562 C 764.609375 736.09375 759.484375 737.078125 754.332031 737.914062 C 753.078125 738.117188 751.824219 738.316406 750.566406 738.5 C 749.941406 738.59375 749.3125 738.683594 748.683594 738.777344 C 748.335938 738.824219 747.984375 738.875 747.632812 738.921875 C 747.019531 739.007812 747.347656 738.96875 747.769531 738.90625 C 745.117188 739.289062 742.449219 739.578125 739.785156 739.855469 C 738.355469 740.007812 737.132812 740.339844 736.082031 741.390625 C 735.171875 742.300781 734.492188 743.789062 734.550781 745.09375 C 734.664062 747.683594 736.867188 750.636719 739.785156 750.328125 " fill-opacity="1" fill-rule="nonzero"/><path fill="#003e52" d="M 797.078125 741 C 808.753906 739.722656 819.605469 734.964844 828.289062 727.003906 C 830.3125 725.148438 830.308594 721.457031 828.289062 719.601562 C 826.121094 717.613281 823.039062 717.617188 820.882812 719.601562 C 820.4375 720.007812 819.988281 720.40625 819.53125 720.800781 C 819.097656 721.167969 818.492188 721.507812 818.136719 721.945312 C 818.671875 721.535156 818.789062 721.449219 818.484375 721.683594 C 818.339844 721.792969 818.191406 721.902344 818.050781 722.007812 C 817.808594 722.1875 817.5625 722.359375 817.316406 722.539062 C 816.824219 722.890625 816.332031 723.226562 815.828125 723.558594 C 813.765625 724.914062 811.597656 726.113281 809.347656 727.140625 C 809.078125 727.265625 808.796875 727.382812 808.523438 727.507812 C 807.878906 727.800781 809.734375 727.03125 808.609375 727.472656 C 808.050781 727.691406 807.488281 727.910156 806.921875 728.117188 C 805.789062 728.527344 804.640625 728.894531 803.480469 729.21875 C 802.265625 729.5625 801.035156 729.855469 799.792969 730.097656 C 799.199219 730.210938 798.605469 730.316406 798.015625 730.410156 C 797.1875 730.539062 797.695312 730.597656 798.152344 730.402344 C 797.855469 730.527344 797.386719 730.492188 797.078125 730.527344 C 795.648438 730.683594 794.425781 731.007812 793.375 732.058594 C 792.464844 732.96875 791.78125 734.460938 791.839844 735.761719 C 791.957031 738.347656 794.160156 741.320312 797.078125 741 " fill-opacity="1" fill-rule="nonzero"/><path fill="#003e52" d="M 848.808594 716.992188 C 856.417969 711.054688 861.96875 702.574219 864.71875 693.347656 C 865.5 690.722656 863.777344 687.523438 861.058594 686.902344 C 858.242188 686.265625 855.453125 687.75 854.621094 690.558594 C 854.308594 691.597656 853.96875 692.625 853.582031 693.628906 C 853.484375 693.898438 853.378906 694.160156 853.273438 694.421875 C 852.960938 695.214844 853.425781 694.132812 853.40625 694.117188 C 853.464844 694.164062 852.847656 695.347656 852.769531 695.511719 C 851.835938 697.460938 850.753906 699.335938 849.535156 701.121094 C 849.25 701.542969 848.953125 701.960938 848.648438 702.375 C 848.515625 702.554688 848.367188 702.730469 848.242188 702.917969 C 848.96875 701.820312 848.527344 702.539062 848.324219 702.796875 C 847.644531 703.636719 846.933594 704.453125 846.195312 705.242188 C 844.710938 706.8125 843.105469 708.257812 841.402344 709.585938 C 840.421875 710.355469 839.867188 712.109375 839.867188 713.289062 C 839.867188 714.574219 840.4375 716.109375 841.402344 716.992188 C 842.398438 717.910156 843.707031 718.589844 845.105469 718.527344 C 846.585938 718.460938 847.648438 717.894531 848.808594 716.992188 " fill-opacity="1" fill-rule="nonzero"/><path fill="#003e52" d="M 867.636719 673.785156 C 864.648438 665.136719 860.492188 656.917969 855.117188 649.511719 C 854.296875 648.375 853.390625 647.488281 851.988281 647.105469 C 850.738281 646.761719 849.066406 646.917969 847.953125 647.632812 C 845.761719 649.042969 844.355469 652.425781 846.078125 654.796875 C 848.589844 658.261719 850.855469 661.894531 852.84375 665.6875 C 853.804688 667.523438 854.703125 669.398438 855.53125 671.296875 C 855.570312 671.390625 855.878906 671.933594 855.835938 672.011719 C 855.894531 671.902344 855.449219 671.066406 855.757812 671.835938 C 855.976562 672.378906 856.195312 672.917969 856.40625 673.464844 C 856.800781 674.488281 857.175781 675.527344 857.539062 676.566406 C 858.425781 679.148438 861.167969 681.132812 863.976562 680.226562 C 866.539062 679.398438 868.59375 676.554688 867.636719 673.785156 " fill-opacity="1" fill-rule="nonzero"/><path fill="#003e52" d="M 842.371094 632.863281 C 835.039062 625.695312 827.402344 618.851562 819.472656 612.351562 C 818.367188 611.449219 817.25 610.816406 815.769531 610.816406 C 814.488281 610.816406 812.953125 611.390625 812.066406 612.351562 C 810.304688 614.273438 809.804688 617.90625 812.066406 619.757812 C 819.996094 626.257812 827.636719 633.097656 834.960938 640.273438 C 836.921875 642.1875 840.441406 642.371094 842.371094 640.273438 C 844.269531 638.199219 844.460938 634.914062 842.371094 632.863281 " fill-opacity="1" fill-rule="nonzero"/><path fill="#003e52" d="M 803.714844 592.484375 C 801.328125 590.851562 798.984375 589.167969 796.683594 587.421875 C 796.566406 587.328125 795.671875 586.644531 796.277344 587.109375 C 796.886719 587.578125 795.996094 586.886719 795.875 586.796875 C 795.308594 586.351562 794.746094 585.898438 794.179688 585.445312 C 793.058594 584.542969 791.941406 583.621094 790.84375 582.6875 C 786.492188 578.992188 782.335938 575.070312 778.382812 570.945312 C 776.484375 568.964844 772.863281 568.890625 770.980469 570.945312 C 769.027344 573.070312 768.953125 576.234375 770.980469 578.351562 C 779.285156 587.011719 788.519531 594.761719 798.425781 601.527344 C 800.695312 603.074219 804.335938 602.027344 805.59375 599.648438 C 806.996094 596.988281 806.132812 594.136719 803.714844 592.484375 " fill-opacity="1" fill-rule="nonzero"/><path fill="#003e52" d="M 769.53125 563.023438 C 767.285156 560.6875 765.101562 558.289062 763.003906 555.820312 C 761.992188 554.636719 761 553.4375 760.03125 552.222656 C 759.546875 551.617188 759.039062 551.019531 758.582031 550.390625 C 759.339844 551.4375 758.632812 550.453125 758.453125 550.21875 C 758.179688 549.859375 757.90625 549.496094 757.632812 549.132812 C 753.789062 543.996094 750.261719 538.621094 747.0625 533.054688 C 745.695312 530.679688 742.265625 529.652344 739.898438 531.175781 C 737.5 532.71875 736.5625 535.800781 738.019531 538.34375 C 744.699219 549.960938 752.835938 560.773438 762.125 570.429688 C 764.027344 572.410156 767.640625 572.488281 769.53125 570.429688 C 771.480469 568.304688 771.558594 565.132812 769.53125 563.023438 " fill-opacity="1" fill-rule="nonzero"/><path fill="#003e52" d="M 744.539062 521.070312 C 743.144531 508.644531 743.191406 496.089844 744.683594 483.671875 C 744.835938 482.4375 743.992188 480.8125 743.152344 479.972656 C 742.242188 479.0625 740.753906 478.378906 739.449219 478.4375 C 738.09375 478.496094 736.691406 478.945312 735.75 479.972656 C 734.746094 481.0625 734.390625 482.214844 734.210938 483.671875 C 732.71875 496.089844 732.671875 508.644531 734.066406 521.070312 C 734.230469 522.503906 734.542969 523.71875 735.597656 524.777344 C 736.507812 525.683594 738 526.371094 739.300781 526.308594 C 741.875 526.195312 744.867188 523.984375 744.539062 521.070312 " fill-opacity="1" fill-rule="nonzero"/><path fill="#003e52" d="M 749.40625 467.808594 C 751.035156 464.816406 752.777344 461.890625 754.648438 459.046875 C 755.554688 457.679688 756.480469 456.324219 757.433594 454.992188 C 757.878906 454.378906 758.324219 453.769531 758.777344 453.160156 C 759.078125 452.757812 759.363281 452.335938 759.691406 451.953125 C 759.574219 452.109375 759.453125 452.261719 759.332031 452.414062 C 759.488281 452.214844 759.644531 452.015625 759.800781 451.816406 C 763.933594 446.5625 768.5 441.660156 773.441406 437.148438 C 775.46875 435.296875 775.460938 431.597656 773.441406 429.742188 C 771.269531 427.753906 768.199219 427.765625 766.03125 429.742188 C 755.753906 439.132812 747.015625 450.296875 740.363281 462.523438 C 739.054688 464.929688 739.691406 468.339844 742.242188 469.6875 C 744.6875 470.980469 748.007812 470.378906 749.40625 467.808594 " fill-opacity="1" fill-rule="nonzero"/><path fill="#003e52" d="M 784.75 434.664062 C 794.808594 431.46875 804.933594 428.496094 815.121094 425.738281 C 817.761719 425.027344 819.648438 421.980469 818.777344 419.296875 C 817.902344 416.589844 815.167969 414.875 812.335938 415.640625 C 802.148438 418.398438 792.023438 421.371094 781.96875 424.566406 C 779.359375 425.394531 777.414062 428.242188 778.308594 431.003906 C 779.15625 433.621094 781.953125 435.554688 784.75 434.664062 " fill-opacity="1" fill-rule="nonzero"/><path fill="#003e52" d="M 829.847656 424.886719 C 832.824219 424.949219 835.796875 425.140625 838.757812 425.480469 C 839.164062 425.523438 839.566406 425.574219 839.96875 425.621094 C 840.996094 425.75 839.316406 425.523438 839.984375 425.625 C 840.71875 425.734375 841.457031 425.839844 842.191406 425.964844 C 843.660156 426.203125 845.121094 426.476562 846.578125 426.789062 C 852.40625 428.023438 858.105469 429.804688 863.613281 432.078125 C 864.78125 432.558594 866.613281 432.15625 867.648438 431.550781 C 868.738281 430.917969 869.769531 429.671875 870.054688 428.421875 C 870.359375 427.082031 870.292969 425.578125 869.527344 424.386719 C 868.738281 423.164062 867.730469 422.53125 866.398438 421.980469 C 854.832031 417.203125 842.355469 414.6875 829.847656 414.414062 C 827.109375 414.351562 824.488281 416.863281 824.613281 419.648438 C 824.742188 422.535156 826.914062 424.820312 829.847656 424.886719 " fill-opacity="1" fill-rule="nonzero"/><path fill="#003e52" d="M 876.078125 434.660156 C 886.367188 439.03125 896.929688 442.605469 907.820312 445.164062 C 910.480469 445.789062 913.617188 444.335938 914.261719 441.503906 C 914.871094 438.824219 913.457031 435.734375 910.605469 435.066406 C 905.460938 433.855469 900.363281 432.441406 895.339844 430.800781 C 892.855469 429.992188 890.394531 429.132812 887.949219 428.21875 C 886.726562 427.761719 885.511719 427.296875 884.300781 426.8125 C 883.660156 426.558594 883.023438 426.304688 882.390625 426.042969 C 882.132812 425.9375 881.882812 425.832031 881.625 425.726562 C 881.457031 425.65625 880.15625 425.105469 881.359375 425.617188 C 880.007812 425.042969 878.808594 424.679688 877.324219 425.089844 C 876.109375 425.425781 874.792969 426.367188 874.199219 427.496094 C 873.011719 429.742188 873.382812 433.519531 876.078125 434.660156 " fill-opacity="1" fill-rule="nonzero"/><path fill="#003e52" d="M 924.589844 448.28125 C 934.492188 451.199219 944.695312 453.015625 954.984375 453.839844 C 957.722656 454.0625 960.339844 451.277344 960.222656 448.601562 C 960.085938 445.578125 957.917969 443.605469 954.984375 443.367188 C 952.5625 443.175781 950.152344 442.914062 947.742188 442.609375 C 946.964844 442.511719 948.671875 442.742188 947.898438 442.628906 C 947.554688 442.578125 947.207031 442.53125 946.867188 442.480469 C 946.320312 442.398438 945.769531 442.3125 945.222656 442.226562 C 943.988281 442.03125 942.757812 441.820312 941.527344 441.585938 C 936.757812 440.699219 932.03125 439.554688 927.375 438.183594 C 924.746094 437.410156 921.550781 439.117188 920.929688 441.839844 C 920.292969 444.648438 921.777344 447.453125 924.589844 448.28125 " fill-opacity="1" fill-rule="nonzero"/><path fill="#003e52" d="M 972.546875 456.417969 C 985.386719 456.242188 998.246094 454.183594 1010.476562 450.261719 C 1013.078125 449.429688 1015.03125 446.589844 1014.132812 443.824219 C 1013.292969 441.210938 1010.484375 439.269531 1007.695312 440.164062 C 1001.855469 442.035156 995.894531 443.484375 989.851562 444.484375 C 989.101562 444.609375 988.351562 444.722656 987.605469 444.832031 C 987.265625 444.882812 986.925781 444.929688 986.585938 444.980469 C 986.1875 445.035156 986.3125 445.015625 986.953125 444.929688 C 986.746094 444.957031 986.542969 444.984375 986.339844 445.007812 C 984.835938 445.195312 983.332031 445.355469 981.820312 445.484375 C 978.734375 445.753906 975.644531 445.902344 972.546875 445.945312 C 969.808594 445.980469 967.183594 448.328125 967.308594 451.179688 C 967.433594 453.984375 969.609375 456.453125 972.546875 456.417969 " fill-opacity="1" fill-rule="nonzero"/><path fill="#003e52" d="M 1025.675781 444.824219 C 1037.625 435.671875 1047.34375 423.808594 1053.386719 409.972656 C 1053.96875 408.632812 1054.316406 407.402344 1053.914062 405.9375 C 1053.578125 404.71875 1052.640625 403.40625 1051.507812 402.808594 C 1049.242188 401.613281 1045.515625 402.007812 1044.34375 404.6875 C 1042.953125 407.867188 1041.375 410.960938 1039.605469 413.941406 C 1038.691406 415.484375 1037.726562 416.996094 1036.707031 418.480469 C 1036.238281 419.167969 1035.753906 419.855469 1035.261719 420.527344 C 1035.046875 420.820312 1034.832031 421.109375 1034.617188 421.394531 C 1034.476562 421.585938 1034.332031 421.777344 1034.1875 421.96875 C 1034.644531 421.382812 1034.699219 421.3125 1034.347656 421.757812 C 1032.1875 424.480469 1029.902344 427.089844 1027.4375 429.53125 C 1026.25 430.710938 1025.027344 431.859375 1023.769531 432.960938 C 1023.144531 433.515625 1022.507812 434.058594 1021.863281 434.59375 C 1021.492188 434.898438 1021.117188 435.203125 1020.746094 435.5 C 1020.519531 435.683594 1019.199219 436.695312 1020.390625 435.785156 C 1019.257812 436.652344 1018.382812 437.480469 1017.984375 438.914062 C 1017.636719 440.164062 1017.792969 441.835938 1018.511719 442.949219 C 1019.890625 445.089844 1023.351562 446.605469 1025.675781 444.824219 " fill-opacity="1" fill-rule="nonzero"/><path fill="#003e52" d="M 1059.550781 395.800781 C 1061.15625 387.011719 1061.664062 378.082031 1060.808594 369.183594 C 1060.671875 367.761719 1060.3125 366.519531 1059.273438 365.476562 C 1058.363281 364.570312 1056.875 363.890625 1055.570312 363.949219 C 1052.960938 364.0625 1050.054688 366.261719 1050.335938 369.183594 C 1050.734375 373.316406 1050.859375 377.472656 1050.695312 381.621094 C 1050.613281 383.660156 1050.460938 385.699219 1050.242188 387.726562 C 1050.183594 388.277344 1050.148438 388.855469 1050.046875 389.402344 C 1050.070312 389.214844 1050.097656 389.03125 1050.121094 388.847656 C 1050.082031 389.128906 1050.046875 389.402344 1050 389.683594 C 1049.839844 390.796875 1049.652344 391.90625 1049.449219 393.011719 C 1048.957031 395.699219 1050.183594 398.789062 1053.105469 399.457031 C 1055.671875 400.039062 1059.023438 398.679688 1059.550781 395.800781 " fill-opacity="1" fill-rule="nonzero"/><path fill="#003e52" d="M 1061.648438 353.140625 C 1062.058594 343.472656 1061.808594 333.789062 1060.910156 324.152344 C 1060.65625 321.433594 1058.683594 318.78125 1055.675781 318.914062 C 1053.054688 319.03125 1050.164062 321.230469 1050.4375 324.152344 C 1051.335938 333.789062 1051.585938 343.472656 1051.175781 353.140625 C 1051.0625 355.882812 1053.664062 358.5 1056.414062 358.375 C 1059.347656 358.246094 1061.523438 356.078125 1061.648438 353.140625 " fill-opacity="1" fill-rule="nonzero"/><path fill="#003e52" d="M 1045.273438 285.105469 C 1046.386719 293.011719 1047.773438 300.882812 1049.414062 308.695312 C 1049.984375 311.378906 1053.28125 313.183594 1055.859375 312.351562 C 1058.695312 311.433594 1060.121094 308.789062 1059.515625 305.910156 C 1057.871094 298.097656 1056.488281 290.226562 1055.375 282.320312 C 1055.203125 281.117188 1053.960938 279.777344 1052.96875 279.191406 C 1051.84375 278.535156 1050.191406 278.257812 1048.929688 278.664062 C 1047.664062 279.074219 1046.441406 279.859375 1045.804688 281.070312 C 1045.097656 282.402344 1045.066406 283.628906 1045.273438 285.105469 " fill-opacity="1" fill-rule="nonzero"/><path fill="#ff914d" d="M 392.957031 307.742188 C 382.984375 307.742188 373.035156 312.125 366.910156 320.167969 C 357.023438 333.152344 362.371094 349 362.601562 349.667969 C 366.976562 362.230469 378.730469 371.019531 391.84375 371.535156 C 406.304688 372.121094 419.433594 363.003906 423.757812 349.394531 C 428.203125 335.421875 422.113281 319.746094 409.28125 312.117188 C 404.296875 309.15625 398.621094 307.742188 392.957031 307.742188 Z M 393.128906 380.289062 C 392.589844 380.289062 392.046875 380.28125 391.5 380.257812 C 374.828125 379.597656 359.90625 368.457031 354.359375 352.535156 C 354.066406 351.683594 347.273438 331.554688 359.96875 314.878906 C 372.378906 298.582031 395.996094 294.074219 413.742188 304.617188 C 430.027344 314.296875 437.738281 334.238281 432.078125 352.039062 C 426.722656 368.863281 410.855469 380.289062 393.128906 380.289062 " fill-opacity="1" fill-rule="nonzero"/><path fill="#ff914d" d="M 337.496094 378.519531 C 338.363281 381.550781 340.660156 389.621094 363.324219 425.855469 C 372.996094 441.3125 383.09375 456.660156 393.386719 471.53125 C 407 453.679688 419.238281 434.816406 429.804688 415.398438 C 450.347656 377.652344 459.261719 360.058594 455.292969 338.535156 C 454.367188 333.503906 448.503906 307.695312 424.226562 293.84375 C 399.609375 279.796875 366.765625 283.585938 347.84375 302.664062 C 331.367188 319.277344 327.886719 344.792969 337.496094 378.515625 L 333.300781 379.710938 Z M 392.996094 486.238281 L 389.621094 481.410156 C 378.070312 464.898438 366.734375 447.761719 355.925781 430.480469 C 332.609375 393.199219 330.242188 384.898438 329.101562 380.90625 C 318.5625 343.929688 322.78125 315.539062 341.644531 296.519531 C 363.253906 274.734375 400.621094 270.324219 428.554688 286.265625 C 456.183594 302.027344 462.824219 331.253906 463.875 336.953125 C 468.574219 362.421875 457.527344 382.722656 437.472656 419.570312 C 425.746094 441.121094 412.003906 461.992188 396.632812 481.601562 L 392.996094 486.238281 " fill-opacity="1" fill-rule="nonzero"/><path fill="#ff914d" d="M 416.335938 486.574219 C 419.167969 485.816406 422.03125 485.191406 424.921875 484.710938 C 425.726562 484.578125 426.570312 484.375 427.386719 484.335938 C 425.808594 484.414062 427.5 484.332031 427.835938 484.289062 C 428.210938 484.246094 428.589844 484.203125 428.964844 484.167969 C 430.878906 483.972656 432.800781 483.835938 434.726562 483.769531 C 438.539062 483.628906 442.367188 483.738281 446.167969 484.097656 C 447.03125 484.179688 447.894531 484.273438 448.757812 484.378906 C 450.148438 484.550781 447.882812 484.242188 448.957031 484.40625 C 449.355469 484.464844 449.757812 484.523438 450.160156 484.585938 C 451.699219 484.824219 453.234375 485.113281 454.757812 485.433594 C 457.429688 485.992188 460.546875 484.648438 461.199219 481.773438 C 461.796875 479.148438 460.410156 475.933594 457.542969 475.332031 C 443.003906 472.28125 427.910156 472.625 413.554688 476.476562 C 410.910156 477.183594 409.03125 480.238281 409.894531 482.917969 C 410.777344 485.632812 413.503906 487.335938 416.335938 486.574219 " fill-opacity="1" fill-rule="nonzero"/><g clip-path="url(#d3055deee5)"><path fill="#ff914d" d="M 467.035156 489.289062 C 475.902344 496.949219 484.191406 505.246094 491.847656 514.109375 C 493.644531 516.191406 497.4375 516.085938 499.253906 514.109375 C 501.289062 511.894531 501.171875 508.921875 499.253906 506.707031 C 491.601562 497.839844 483.304688 489.539062 474.445312 481.882812 C 472.371094 480.09375 469.046875 479.695312 467.035156 481.882812 C 465.234375 483.847656 464.824219 487.375 467.035156 489.289062 " fill-opacity="1" fill-rule="nonzero"/></g><path fill="#ff914d" d="M 1019.859375 106.40625 C 1009.960938 119.402344 1015.492188 135.734375 1015.546875 135.898438 C 1019.921875 148.464844 1031.675781 157.257812 1044.792969 157.777344 C 1059.269531 158.351562 1072.378906 149.238281 1076.707031 135.632812 C 1081.152344 121.660156 1075.066406 105.984375 1062.230469 98.359375 C 1048.472656 90.179688 1029.46875 93.789062 1019.859375 106.40625 Z M 1046.082031 166.527344 C 1045.535156 166.527344 1044.996094 166.515625 1044.449219 166.496094 C 1027.777344 165.835938 1012.851562 154.695312 1007.308594 138.769531 C 1007.011719 137.925781 1000.207031 117.808594 1012.917969 101.117188 C 1025.328125 84.820312 1048.949219 80.308594 1066.6875 90.855469 C 1082.972656 100.53125 1090.6875 120.480469 1085.023438 138.277344 C 1079.671875 155.101562 1063.800781 166.527344 1046.082031 166.527344 " fill-opacity="1" fill-rule="nonzero"/><path fill="#ff914d" d="M 990.441406 164.753906 C 991.308594 167.792969 993.609375 175.859375 1016.273438 212.089844 C 1025.953125 227.566406 1036.050781 242.910156 1046.332031 257.773438 C 1059.949219 239.914062 1072.183594 221.054688 1082.757812 201.632812 C 1103.296875 163.886719 1112.210938 146.296875 1108.238281 124.773438 C 1107.3125 119.738281 1101.453125 93.933594 1077.179688 80.082031 C 1052.554688 66.035156 1019.714844 69.828125 1000.789062 88.902344 C 984.3125 105.511719 980.832031 131.035156 990.441406 164.753906 L 986.246094 165.949219 Z M 1045.949219 272.472656 L 1042.574219 267.644531 C 1031.03125 251.15625 1019.695312 234.019531 1008.875 216.714844 C 985.554688 179.4375 983.1875 171.136719 982.050781 167.148438 L 982.050781 167.144531 C 971.511719 130.164062 975.730469 101.773438 994.59375 82.757812 C 1016.207031 60.972656 1053.566406 56.566406 1081.5 72.503906 C 1109.128906 88.261719 1115.769531 117.492188 1116.824219 123.191406 C 1121.523438 148.660156 1110.476562 168.957031 1090.417969 205.808594 C 1078.691406 227.355469 1064.953125 248.226562 1049.582031 267.835938 L 1045.949219 272.472656 " fill-opacity="1" fill-rule="nonzero"/><path fill="#ff914d" d="M 1045.273438 285.105469 C 1046.386719 293.011719 1047.769531 300.882812 1049.414062 308.695312 C 1049.984375 311.378906 1053.28125 313.183594 1055.859375 312.351562 C 1058.695312 311.433594 1060.121094 308.789062 1059.515625 305.910156 C 1057.871094 298.097656 1056.488281 290.226562 1055.375 282.320312 C 1055.203125 281.117188 1053.960938 279.777344 1052.96875 279.191406 C 1051.84375 278.535156 1050.191406 278.257812 1048.929688 278.664062 C 1047.664062 279.074219 1046.441406 279.859375 1045.804688 281.070312 C 1045.097656 282.402344 1045.066406 283.628906 1045.273438 285.105469 " fill-opacity="1" fill-rule="nonzero"/></svg>