<svg xmlns="http://www.w3.org/2000/svg" xmlns:xlink="http://www.w3.org/1999/xlink" width="1920" zoomAndPan="magnify" viewBox="0 0 1440 809.999993" height="1080" preserveAspectRatio="xMidYMid meet" version="1.0"><defs><clipPath id="861e50f229"><path d="M 407.042969 70.734375 L 1033 70.734375 L 1033 738.984375 L 407.042969 738.984375 Z M 407.042969 70.734375 " clip-rule="nonzero"/></clipPath><clipPath id="861af0a730"><path d="M 862.914062 70.734375 L 943.164062 70.734375 L 943.164062 183.984375 L 862.914062 183.984375 Z M 862.914062 70.734375 " clip-rule="nonzero"/></clipPath><clipPath id="c445402b6f"><path d="M 449.800781 486.753906 L 643.300781 486.753906 L 643.300781 693.753906 L 449.800781 693.753906 Z M 449.800781 486.753906 " clip-rule="nonzero"/></clipPath></defs><g clip-path="url(#861e50f229)"><path fill="#003e52" d="M 579.820312 502.042969 L 515.125 502.042969 C 514.417969 502.042969 513.714844 502.113281 513.019531 502.25 C 512.328125 502.386719 511.652344 502.59375 511 502.863281 C 510.34375 503.132812 509.722656 503.46875 509.132812 503.859375 C 508.546875 504.253906 508 504.699219 507.5 505.203125 C 507 505.703125 506.550781 506.246094 506.160156 506.835938 C 505.765625 507.425781 505.433594 508.046875 505.164062 508.699219 C 504.890625 509.351562 504.6875 510.027344 504.550781 510.722656 C 504.410156 511.417969 504.34375 512.117188 504.34375 512.824219 L 504.34375 548.65625 L 457.210938 567.503906 C 456.210938 567.90625 455.289062 568.441406 454.449219 569.121094 C 453.609375 569.796875 452.886719 570.582031 452.28125 571.472656 C 451.675781 572.367188 451.21875 573.328125 450.902344 574.359375 C 450.585938 575.390625 450.425781 576.445312 450.429688 577.523438 L 450.429688 645.367188 C 415.027344 657.636719 407.296875 673.695312 407.296875 685.351562 C 407.296875 720.75 477.816406 739.265625 547.472656 739.265625 C 617.128906 739.265625 687.648438 720.75 687.648438 685.351562 C 687.648438 673.695312 679.917969 657.636719 644.519531 645.367188 L 644.519531 606.203125 L 814.59375 501.914062 C 828.949219 506.371094 843.566406 509.667969 858.445312 511.804688 C 873.320312 513.945312 888.273438 514.894531 903.304688 514.660156 C 967.601562 514.660156 1032.695312 497.40625 1032.695312 464.304688 C 1032.695312 453.359375 1025.570312 438.359375 993.15625 426.941406 L 993.15625 365.480469 C 993.15625 364.402344 992.996094 363.347656 992.679688 362.320312 C 992.363281 361.289062 991.902344 360.328125 991.300781 359.4375 C 990.695312 358.542969 989.972656 357.761719 989.132812 357.085938 C 988.292969 356.410156 987.375 355.871094 986.375 355.472656 L 943.738281 338.394531 L 943.738281 306.152344 C 943.738281 305.445312 943.671875 304.742188 943.53125 304.050781 C 943.394531 303.355469 943.191406 302.679688 942.917969 302.027344 C 942.648438 301.371094 942.316406 300.75 941.921875 300.160156 C 941.527344 299.574219 941.082031 299.027344 940.582031 298.527344 C 940.082031 298.027344 939.535156 297.582031 938.945312 297.1875 C 938.359375 296.792969 937.738281 296.460938 937.082031 296.191406 C 936.429688 295.917969 935.753906 295.714844 935.058594 295.578125 C 934.367188 295.4375 933.664062 295.371094 932.957031 295.371094 L 873.652344 295.371094 C 872.945312 295.371094 872.242188 295.4375 871.546875 295.578125 C 870.851562 295.714844 870.179688 295.917969 869.523438 296.191406 C 868.871094 296.460938 868.25 296.792969 867.660156 297.1875 C 867.070312 297.582031 866.527344 298.027344 866.027344 298.527344 C 865.527344 299.027344 865.078125 299.574219 864.6875 300.160156 C 864.292969 300.75 863.960938 301.371094 863.691406 302.027344 C 863.417969 302.679688 863.214844 303.355469 863.074219 304.050781 C 862.9375 304.742188 862.867188 305.445312 862.867188 306.152344 L 862.867188 338.394531 L 820.277344 355.453125 C 819.277344 355.851562 818.355469 356.386719 817.515625 357.0625 C 816.679688 357.738281 815.957031 358.523438 815.351562 359.414062 C 814.746094 360.304688 814.285156 361.265625 813.96875 362.296875 C 813.652344 363.328125 813.496094 364.378906 813.496094 365.457031 L 813.496094 372.207031 L 633.035156 328.710938 C 633.484375 326.578125 633.71875 324.421875 633.734375 322.242188 C 633.734375 302.722656 616.320312 286.160156 587.910156 277.695312 L 587.910156 256.195312 L 839.277344 201.203125 C 843.761719 204.789062 848.539062 207.941406 853.601562 210.65625 C 858.664062 213.367188 863.929688 215.601562 869.402344 217.351562 C 874.871094 219.101562 880.457031 220.339844 886.152344 221.070312 C 891.851562 221.800781 897.570312 222.007812 903.304688 221.691406 C 946.328125 221.691406 978.785156 202.453125 978.785156 176.941406 C 978.785156 160.996094 965.53125 146.945312 943.738281 139.03125 L 943.738281 81.515625 C 943.738281 80.808594 943.671875 80.105469 943.53125 79.410156 C 943.394531 78.71875 943.191406 78.042969 942.917969 77.390625 C 942.648438 76.734375 942.316406 76.113281 941.921875 75.523438 C 941.527344 74.9375 941.082031 74.390625 940.582031 73.890625 C 940.082031 73.390625 939.535156 72.941406 938.945312 72.550781 C 938.359375 72.15625 937.738281 71.824219 937.082031 71.554688 C 936.429688 71.28125 935.753906 71.078125 935.058594 70.941406 C 934.367188 70.800781 933.664062 70.734375 932.957031 70.734375 L 873.652344 70.734375 C 872.945312 70.734375 872.242188 70.800781 871.546875 70.941406 C 870.851562 71.078125 870.179688 71.28125 869.523438 71.554688 C 868.871094 71.824219 868.25 72.15625 867.660156 72.550781 C 867.070312 72.941406 866.527344 73.390625 866.027344 73.890625 C 865.527344 74.390625 865.078125 74.9375 864.6875 75.523438 C 864.292969 76.113281 863.960938 76.734375 863.691406 77.390625 C 863.417969 78.042969 863.214844 78.71875 863.074219 79.410156 C 862.9375 80.105469 862.867188 80.808594 862.867188 81.515625 L 862.867188 139.03125 C 841.078125 146.945312 827.824219 160.996094 827.824219 176.941406 C 827.828125 178.496094 827.949219 180.035156 828.191406 181.570312 L 587.910156 234.167969 L 587.910156 200.125 C 587.910156 199.417969 587.839844 198.714844 587.699219 198.023438 C 587.5625 197.328125 587.359375 196.652344 587.085938 196 C 586.816406 195.34375 586.484375 194.722656 586.089844 194.136719 C 585.699219 193.546875 585.25 193 584.75 192.5 C 584.25 192 583.703125 191.554688 583.117188 191.160156 C 582.527344 190.765625 581.90625 190.433594 581.25 190.164062 C 580.597656 189.894531 579.921875 189.6875 579.230469 189.550781 C 578.535156 189.410156 577.832031 189.34375 577.125 189.34375 L 517.820312 189.34375 C 517.113281 189.34375 516.410156 189.410156 515.714844 189.550781 C 515.023438 189.6875 514.347656 189.894531 513.695312 190.164062 C 513.039062 190.433594 512.417969 190.765625 511.828125 191.160156 C 511.242188 191.554688 510.695312 192 510.195312 192.5 C 509.695312 193 509.25 193.546875 508.855469 194.136719 C 508.460938 194.722656 508.128906 195.34375 507.859375 196 C 507.585938 196.652344 507.382812 197.328125 507.246094 198.023438 C 507.105469 198.714844 507.039062 199.417969 507.039062 200.125 L 507.039062 277.761719 C 478.625 286.214844 461.210938 302.777344 461.210938 322.292969 C 461.210938 351 498.292969 372.648438 547.472656 372.648438 C 580.132812 372.648438 607.371094 363.074219 622.046875 348.25 L 813.453125 394.398438 L 813.453125 426.941406 C 781.039062 438.359375 773.910156 453.359375 773.910156 464.304688 C 774.015625 465.683594 774.207031 467.050781 774.484375 468.40625 C 774.761719 469.761719 775.121094 471.097656 775.570312 472.40625 C 776.015625 473.714844 776.542969 474.992188 777.152344 476.238281 C 777.757812 477.480469 778.441406 478.679688 779.203125 479.835938 C 779.960938 480.992188 780.792969 482.097656 781.691406 483.148438 C 782.589844 484.203125 783.554688 485.191406 784.578125 486.121094 C 785.605469 487.050781 786.683594 487.914062 787.816406 488.707031 C 788.953125 489.5 790.132812 490.21875 791.359375 490.859375 L 644.519531 580.90625 L 644.519531 577.523438 C 644.519531 576.445312 644.359375 575.390625 644.042969 574.359375 C 643.726562 573.328125 643.269531 572.367188 642.664062 571.472656 C 642.058594 570.582031 641.335938 569.796875 640.496094 569.121094 C 639.65625 568.441406 638.738281 567.90625 637.734375 567.503906 L 590.605469 548.65625 L 590.605469 512.824219 C 590.605469 512.117188 590.535156 511.417969 590.398438 510.722656 C 590.257812 510.027344 590.054688 509.351562 589.78125 508.699219 C 589.511719 508.046875 589.179688 507.421875 588.785156 506.835938 C 588.394531 506.246094 587.945312 505.703125 587.445312 505.203125 C 586.945312 504.699219 586.402344 504.253906 585.8125 503.859375 C 585.222656 503.46875 584.601562 503.132812 583.949219 502.863281 C 583.292969 502.59375 582.621094 502.386719 581.925781 502.25 C 581.230469 502.113281 580.527344 502.042969 579.820312 502.042969 Z M 884.433594 92.296875 L 922.175781 92.296875 L 922.175781 162.601562 L 884.433594 162.601562 Z M 862.867188 162.492188 L 862.867188 173.382812 C 862.867188 174.09375 862.9375 174.792969 863.074219 175.488281 C 863.214844 176.183594 863.417969 176.855469 863.691406 177.511719 C 863.960938 178.164062 864.292969 178.785156 864.6875 179.375 C 865.078125 179.964844 865.527344 180.507812 866.027344 181.007812 C 866.527344 181.507812 867.070312 181.957031 867.660156 182.351562 C 868.25 182.742188 868.871094 183.074219 869.523438 183.347656 C 870.179688 183.617188 870.851562 183.820312 871.546875 183.960938 C 872.242188 184.097656 872.945312 184.167969 873.652344 184.167969 L 932.957031 184.167969 C 933.664062 184.167969 934.367188 184.097656 935.058594 183.960938 C 935.753906 183.820312 936.429688 183.617188 937.082031 183.347656 C 937.738281 183.074219 938.359375 182.742188 938.945312 182.351562 C 939.535156 181.957031 940.082031 181.507812 940.582031 181.007812 C 941.082031 180.507812 941.527344 179.964844 941.921875 179.375 C 942.316406 178.785156 942.648438 178.164062 942.917969 177.511719 C 943.191406 176.855469 943.394531 176.183594 943.53125 175.488281 C 943.671875 174.792969 943.738281 174.09375 943.738281 173.382812 L 943.738281 162.492188 C 952.558594 167.085938 957.21875 172.640625 957.21875 176.941406 C 957.21875 186.398438 936.214844 200.125 903.304688 200.125 C 870.394531 200.125 849.390625 186.398438 849.390625 176.941406 C 849.390625 172.640625 854.046875 167.085938 862.867188 162.492188 Z M 528.601562 210.910156 L 566.34375 210.910156 L 566.34375 311.542969 L 528.601562 311.542969 Z M 547.472656 351.085938 C 510.445312 351.085938 482.777344 335.878906 482.777344 322.292969 C 482.777344 314.390625 492.480469 306.121094 507.039062 300.480469 L 507.039062 322.328125 C 507.039062 323.035156 507.105469 323.734375 507.246094 324.429688 C 507.382812 325.125 507.585938 325.800781 507.859375 326.453125 C 508.128906 327.105469 508.460938 327.730469 508.855469 328.316406 C 509.25 328.90625 509.695312 329.449219 510.195312 329.953125 C 510.695312 330.453125 511.242188 330.898438 511.828125 331.292969 C 512.417969 331.6875 513.039062 332.019531 513.695312 332.289062 C 514.347656 332.558594 515.023438 332.765625 515.714844 332.902344 C 516.410156 333.039062 517.113281 333.109375 517.820312 333.109375 L 577.125 333.109375 C 577.832031 333.109375 578.535156 333.039062 579.230469 332.902344 C 579.921875 332.765625 580.597656 332.558594 581.25 332.289062 C 581.90625 332.019531 582.527344 331.6875 583.117188 331.292969 C 583.703125 330.898438 584.25 330.453125 584.75 329.953125 C 585.25 329.449219 585.699219 328.90625 586.089844 328.316406 C 586.484375 327.730469 586.816406 327.105469 587.085938 326.453125 C 587.359375 325.800781 587.5625 325.125 587.699219 324.429688 C 587.839844 323.734375 587.910156 323.035156 587.910156 322.328125 L 587.910156 300.480469 C 602.464844 306.066406 612.167969 314.421875 612.167969 322.292969 C 612.167969 335.878906 584.5 351.085938 547.472656 351.085938 Z M 943.738281 361.617188 L 971.589844 372.757812 L 971.589844 453.519531 L 943.738281 453.519531 Z M 884.433594 316.933594 L 922.175781 316.933594 L 922.175781 453.519531 L 884.433594 453.519531 Z M 835.015625 372.757812 L 862.867188 361.617188 L 862.867188 453.519531 L 835.015625 453.519531 Z M 813.453125 450.125 L 813.453125 464.304688 C 813.453125 465.011719 813.519531 465.710938 813.660156 466.40625 C 813.796875 467.101562 814 467.777344 814.273438 468.429688 C 814.542969 469.082031 814.875 469.707031 815.269531 470.292969 C 815.660156 470.882812 816.109375 471.425781 816.609375 471.929688 C 817.109375 472.429688 817.65625 472.875 818.242188 473.269531 C 818.832031 473.664062 819.453125 473.996094 820.109375 474.265625 C 820.761719 474.535156 821.4375 474.742188 822.128906 474.878906 C 822.824219 475.015625 823.527344 475.085938 824.234375 475.085938 L 982.375 475.085938 C 983.082031 475.085938 983.785156 475.015625 984.476562 474.878906 C 985.171875 474.742188 985.847656 474.535156 986.5 474.265625 C 987.15625 473.996094 987.777344 473.664062 988.363281 473.269531 C 988.953125 472.875 989.496094 472.429688 990 471.929688 C 990.5 471.425781 990.945312 470.882812 991.339844 470.292969 C 991.734375 469.707031 992.066406 469.082031 992.335938 468.429688 C 992.605469 467.777344 992.8125 467.101562 992.949219 466.40625 C 993.085938 465.710938 993.15625 465.011719 993.15625 464.304688 L 993.15625 450.125 C 1005.976562 455.742188 1011.132812 461.425781 1011.132812 464.304688 C 1011.132812 474.449219 970.15625 493.09375 903.304688 493.09375 C 836.449219 493.09375 795.476562 474.449219 795.476562 464.304688 C 795.476562 461.425781 800.628906 455.742188 813.453125 450.125 Z M 525.90625 523.609375 L 569.039062 523.609375 L 569.039062 674.566406 L 525.90625 674.566406 Z M 471.992188 584.824219 L 504.34375 571.882812 L 504.34375 674.566406 L 471.992188 674.566406 Z M 644.519531 685.351562 L 644.519531 668.496094 C 661.058594 675.386719 666.082031 682.210938 666.082031 685.351562 C 666.082031 696.328125 624.214844 717.699219 547.472656 717.699219 C 470.730469 717.699219 428.863281 696.328125 428.863281 685.351562 C 428.863281 682.210938 433.886719 675.386719 450.429688 668.496094 L 450.429688 685.351562 C 450.429688 686.058594 450.496094 686.757812 450.636719 687.453125 C 450.773438 688.148438 450.976562 688.820312 451.25 689.476562 C 451.519531 690.128906 451.851562 690.75 452.246094 691.339844 C 452.636719 691.929688 453.085938 692.472656 453.585938 692.972656 C 454.085938 693.476562 454.632812 693.921875 455.21875 694.316406 C 455.808594 694.707031 456.429688 695.039062 457.085938 695.3125 C 457.738281 695.582031 458.414062 695.789062 459.105469 695.925781 C 459.800781 696.0625 460.503906 696.132812 461.210938 696.132812 L 633.734375 696.132812 C 634.441406 696.132812 635.144531 696.0625 635.839844 695.925781 C 636.53125 695.789062 637.207031 695.582031 637.863281 695.3125 C 638.515625 695.039062 639.136719 694.707031 639.726562 694.316406 C 640.3125 693.921875 640.859375 693.476562 641.359375 692.972656 C 641.859375 692.472656 642.308594 691.929688 642.699219 691.339844 C 643.09375 690.75 643.425781 690.128906 643.695312 689.476562 C 643.96875 688.820312 644.171875 688.148438 644.3125 687.453125 C 644.449219 686.757812 644.519531 686.058594 644.519531 685.351562 Z M 622.953125 584.824219 L 622.953125 674.566406 L 590.605469 674.566406 L 590.605469 571.882812 Z M 622.953125 584.824219 " fill-opacity="1" fill-rule="nonzero"/></g><g clip-path="url(#861af0a730)"><path fill="#ff914d" d="M 580.074219 502.042969 L 515.375 502.042969 C 514.667969 502.042969 513.96875 502.113281 513.273438 502.25 C 512.578125 502.386719 511.902344 502.59375 511.25 502.863281 C 510.597656 503.132812 509.976562 503.46875 509.386719 503.859375 C 508.796875 504.253906 508.253906 504.699219 507.753906 505.203125 C 507.25 505.703125 506.804688 506.246094 506.410156 506.835938 C 506.019531 507.425781 505.683594 508.046875 505.414062 508.699219 C 505.144531 509.351562 504.9375 510.027344 504.800781 510.722656 C 504.664062 511.417969 504.59375 512.117188 504.59375 512.824219 L 504.59375 548.65625 L 457.460938 567.503906 C 456.460938 567.90625 455.539062 568.441406 454.699219 569.121094 C 453.859375 569.796875 453.136719 570.582031 452.535156 571.472656 C 451.929688 572.367188 451.46875 573.328125 451.152344 574.359375 C 450.835938 575.390625 450.679688 576.445312 450.679688 577.523438 L 450.679688 645.367188 C 415.28125 657.636719 407.550781 673.695312 407.550781 685.351562 C 407.550781 720.75 478.066406 739.265625 547.726562 739.265625 C 617.382812 739.265625 687.902344 720.75 687.902344 685.351562 C 687.902344 673.695312 680.167969 657.636719 644.769531 645.367188 L 644.769531 606.203125 L 814.847656 501.914062 C 829.199219 506.371094 843.816406 509.667969 858.695312 511.804688 C 873.574219 513.945312 888.527344 514.894531 903.554688 514.660156 C 967.855469 514.660156 1032.949219 497.40625 1032.949219 464.304688 C 1032.949219 453.359375 1025.820312 438.359375 993.410156 426.941406 L 993.410156 365.480469 C 993.40625 364.402344 993.25 363.347656 992.933594 362.320312 C 992.617188 361.289062 992.15625 360.328125 991.550781 359.4375 C 990.945312 358.542969 990.226562 357.761719 989.386719 357.085938 C 988.546875 356.410156 987.625 355.871094 986.625 355.472656 L 943.992188 338.394531 L 943.992188 306.152344 C 943.992188 305.445312 943.921875 304.742188 943.785156 304.050781 C 943.644531 303.355469 943.441406 302.679688 943.171875 302.027344 C 942.898438 301.371094 942.566406 300.75 942.175781 300.160156 C 941.78125 299.574219 941.332031 299.027344 940.832031 298.527344 C 940.332031 298.027344 939.789062 297.582031 939.199219 297.1875 C 938.609375 296.792969 937.988281 296.460938 937.335938 296.191406 C 936.679688 295.917969 936.007812 295.714844 935.3125 295.578125 C 934.617188 295.4375 933.917969 295.371094 933.207031 295.371094 L 873.902344 295.371094 C 873.195312 295.371094 872.496094 295.4375 871.800781 295.578125 C 871.105469 295.714844 870.429688 295.917969 869.777344 296.191406 C 869.121094 296.460938 868.5 296.792969 867.914062 297.1875 C 867.324219 297.582031 866.78125 298.027344 866.277344 298.527344 C 865.777344 299.027344 865.332031 299.574219 864.9375 300.160156 C 864.542969 300.75 864.210938 301.371094 863.941406 302.027344 C 863.671875 302.679688 863.464844 303.355469 863.328125 304.050781 C 863.191406 304.742188 863.121094 305.445312 863.121094 306.152344 L 863.121094 338.394531 L 820.527344 355.453125 C 819.527344 355.851562 818.609375 356.386719 817.769531 357.0625 C 816.929688 357.738281 816.207031 358.523438 815.601562 359.414062 C 815 360.304688 814.539062 361.265625 814.222656 362.296875 C 813.90625 363.328125 813.746094 364.378906 813.746094 365.457031 L 813.746094 372.207031 L 633.285156 328.710938 C 633.738281 326.578125 633.96875 324.421875 633.988281 322.242188 C 633.988281 302.722656 616.574219 286.160156 588.160156 277.695312 L 588.160156 256.195312 L 839.527344 201.203125 C 844.015625 204.789062 848.789062 207.941406 853.851562 210.65625 C 858.914062 213.367188 864.183594 215.601562 869.652344 217.351562 C 875.125 219.101562 880.707031 220.339844 886.40625 221.070312 C 892.105469 221.800781 897.820312 222.007812 903.554688 221.691406 C 946.578125 221.691406 979.035156 202.453125 979.035156 176.941406 C 979.035156 160.996094 965.785156 146.945312 943.992188 139.03125 L 943.992188 81.515625 C 943.992188 80.808594 943.921875 80.105469 943.785156 79.410156 C 943.644531 78.71875 943.441406 78.042969 943.171875 77.390625 C 942.898438 76.734375 942.566406 76.113281 942.175781 75.523438 C 941.78125 74.9375 941.332031 74.390625 940.832031 73.890625 C 940.332031 73.390625 939.789062 72.941406 939.199219 72.550781 C 938.609375 72.15625 937.988281 71.824219 937.335938 71.554688 C 936.679688 71.28125 936.007812 71.078125 935.3125 70.941406 C 934.617188 70.800781 933.917969 70.734375 933.207031 70.734375 L 873.902344 70.734375 C 873.195312 70.734375 872.496094 70.800781 871.800781 70.941406 C 871.105469 71.078125 870.429688 71.28125 869.777344 71.554688 C 869.121094 71.824219 868.5 72.15625 867.914062 72.550781 C 867.324219 72.941406 866.78125 73.390625 866.277344 73.890625 C 865.777344 74.390625 865.332031 74.9375 864.9375 75.523438 C 864.542969 76.113281 864.210938 76.734375 863.941406 77.390625 C 863.671875 78.042969 863.464844 78.71875 863.328125 79.410156 C 863.191406 80.105469 863.121094 80.808594 863.121094 81.515625 L 863.121094 139.03125 C 841.328125 146.945312 828.078125 160.996094 828.078125 176.941406 C 828.078125 178.496094 828.199219 180.035156 828.441406 181.570312 L 588.160156 234.167969 L 588.160156 200.125 C 588.160156 199.417969 588.089844 198.714844 587.953125 198.023438 C 587.816406 197.328125 587.609375 196.652344 587.339844 196 C 587.070312 195.34375 586.734375 194.722656 586.34375 194.136719 C 585.949219 193.546875 585.503906 193 585.003906 192.5 C 584.5 192 583.957031 191.554688 583.367188 191.160156 C 582.78125 190.765625 582.15625 190.433594 581.503906 190.164062 C 580.851562 189.894531 580.175781 189.6875 579.480469 189.550781 C 578.785156 189.410156 578.085938 189.34375 577.378906 189.34375 L 518.070312 189.34375 C 517.363281 189.34375 516.664062 189.410156 515.96875 189.550781 C 515.273438 189.6875 514.601562 189.894531 513.945312 190.164062 C 513.292969 190.433594 512.671875 190.765625 512.082031 191.160156 C 511.492188 191.554688 510.949219 192 510.449219 192.5 C 509.945312 193 509.5 193.546875 509.105469 194.136719 C 508.714844 194.722656 508.382812 195.34375 508.109375 196 C 507.839844 196.652344 507.636719 197.328125 507.496094 198.023438 C 507.359375 198.714844 507.289062 199.417969 507.289062 200.125 L 507.289062 277.761719 C 478.875 286.214844 461.460938 302.777344 461.460938 322.292969 C 461.460938 351 498.542969 372.648438 547.726562 372.648438 C 580.386719 372.648438 607.625 363.074219 622.296875 348.25 L 813.703125 394.398438 L 813.703125 426.941406 C 781.289062 438.359375 774.164062 453.359375 774.164062 464.304688 C 774.265625 465.683594 774.457031 467.050781 774.734375 468.40625 C 775.011719 469.761719 775.375 471.097656 775.820312 472.40625 C 776.265625 473.714844 776.792969 474.992188 777.402344 476.238281 C 778.011719 477.480469 778.695312 478.679688 779.453125 479.835938 C 780.214844 480.992188 781.042969 482.097656 781.945312 483.148438 C 782.84375 484.203125 783.804688 485.191406 784.832031 486.121094 C 785.855469 487.050781 786.9375 487.914062 788.070312 488.707031 C 789.203125 489.5 790.382812 490.21875 791.609375 490.859375 L 644.769531 580.90625 L 644.769531 577.523438 C 644.769531 576.445312 644.613281 575.390625 644.296875 574.359375 C 643.980469 573.328125 643.519531 572.367188 642.914062 571.472656 C 642.3125 570.582031 641.589844 569.796875 640.75 569.121094 C 639.910156 568.441406 638.988281 567.90625 637.988281 567.503906 L 590.855469 548.65625 L 590.855469 512.824219 C 590.855469 512.117188 590.785156 511.417969 590.648438 510.722656 C 590.511719 510.027344 590.304688 509.351562 590.035156 508.699219 C 589.765625 508.046875 589.433594 507.421875 589.039062 506.835938 C 588.644531 506.246094 588.199219 505.703125 587.699219 505.203125 C 587.195312 504.699219 586.652344 504.253906 586.0625 503.859375 C 585.476562 503.46875 584.855469 503.132812 584.199219 502.863281 C 583.546875 502.59375 582.871094 502.386719 582.175781 502.25 C 581.480469 502.113281 580.78125 502.042969 580.074219 502.042969 Z M 884.6875 92.296875 L 922.425781 92.296875 L 922.425781 162.601562 L 884.6875 162.601562 Z M 863.121094 162.492188 L 863.121094 173.382812 C 863.121094 174.09375 863.191406 174.792969 863.328125 175.488281 C 863.464844 176.183594 863.671875 176.855469 863.941406 177.511719 C 864.210938 178.164062 864.542969 178.785156 864.9375 179.375 C 865.332031 179.964844 865.777344 180.507812 866.277344 181.007812 C 866.78125 181.507812 867.324219 181.957031 867.914062 182.351562 C 868.5 182.742188 869.121094 183.074219 869.777344 183.347656 C 870.429688 183.617188 871.105469 183.820312 871.800781 183.960938 C 872.496094 184.097656 873.195312 184.167969 873.902344 184.167969 L 933.207031 184.167969 C 933.917969 184.167969 934.617188 184.097656 935.3125 183.960938 C 936.007812 183.820312 936.679688 183.617188 937.335938 183.347656 C 937.988281 183.074219 938.609375 182.742188 939.199219 182.351562 C 939.789062 181.957031 940.332031 181.507812 940.832031 181.007812 C 941.332031 180.507812 941.78125 179.964844 942.175781 179.375 C 942.566406 178.785156 942.898438 178.164062 943.171875 177.511719 C 943.441406 176.855469 943.644531 176.183594 943.785156 175.488281 C 943.921875 174.792969 943.992188 174.09375 943.992188 173.382812 L 943.992188 162.492188 C 952.8125 167.085938 957.46875 172.640625 957.46875 176.941406 C 957.46875 186.398438 936.464844 200.125 903.554688 200.125 C 870.648438 200.125 849.640625 186.398438 849.640625 176.941406 C 849.640625 172.640625 854.300781 167.085938 863.121094 162.492188 Z M 528.855469 210.910156 L 566.59375 210.910156 L 566.59375 311.542969 L 528.855469 311.542969 Z M 547.726562 351.085938 C 510.695312 351.085938 483.027344 335.878906 483.027344 322.292969 C 483.027344 314.390625 492.734375 306.121094 507.289062 300.480469 L 507.289062 322.328125 C 507.289062 323.035156 507.359375 323.734375 507.496094 324.429688 C 507.636719 325.125 507.839844 325.800781 508.109375 326.453125 C 508.382812 327.105469 508.714844 327.730469 509.105469 328.316406 C 509.5 328.90625 509.945312 329.449219 510.449219 329.953125 C 510.949219 330.453125 511.492188 330.898438 512.082031 331.292969 C 512.671875 331.6875 513.292969 332.019531 513.945312 332.289062 C 514.601562 332.558594 515.273438 332.765625 515.96875 332.902344 C 516.664062 333.039062 517.363281 333.109375 518.070312 333.109375 L 577.378906 333.109375 C 578.085938 333.109375 578.785156 333.039062 579.480469 332.902344 C 580.175781 332.765625 580.851562 332.558594 581.503906 332.289062 C 582.15625 332.019531 582.78125 331.6875 583.367188 331.292969 C 583.957031 330.898438 584.5 330.453125 585.003906 329.953125 C 585.503906 329.449219 585.949219 328.90625 586.34375 328.316406 C 586.734375 327.730469 587.070312 327.105469 587.339844 326.453125 C 587.609375 325.800781 587.816406 325.125 587.953125 324.429688 C 588.089844 323.734375 588.160156 323.035156 588.160156 322.328125 L 588.160156 300.480469 C 602.71875 306.066406 612.421875 314.421875 612.421875 322.292969 C 612.421875 335.878906 584.753906 351.085938 547.726562 351.085938 Z M 943.992188 361.617188 L 971.84375 372.757812 L 971.84375 453.519531 L 943.992188 453.519531 Z M 884.6875 316.933594 L 922.425781 316.933594 L 922.425781 453.519531 L 884.6875 453.519531 Z M 835.269531 372.757812 L 863.121094 361.617188 L 863.121094 453.519531 L 835.269531 453.519531 Z M 813.703125 450.125 L 813.703125 464.304688 C 813.703125 465.011719 813.773438 465.710938 813.910156 466.40625 C 814.046875 467.101562 814.253906 467.777344 814.523438 468.429688 C 814.796875 469.082031 815.128906 469.707031 815.519531 470.292969 C 815.914062 470.882812 816.359375 471.425781 816.863281 471.929688 C 817.363281 472.429688 817.90625 472.875 818.496094 473.269531 C 819.085938 473.664062 819.707031 473.996094 820.359375 474.265625 C 821.015625 474.535156 821.6875 474.742188 822.382812 474.878906 C 823.078125 475.015625 823.777344 475.085938 824.484375 475.085938 L 982.625 475.085938 C 983.332031 475.085938 984.035156 475.015625 984.730469 474.878906 C 985.425781 474.742188 986.097656 474.535156 986.753906 474.265625 C 987.40625 473.996094 988.027344 473.664062 988.617188 473.269531 C 989.207031 472.875 989.75 472.429688 990.25 471.929688 C 990.75 471.425781 991.199219 470.882812 991.589844 470.292969 C 991.984375 469.707031 992.316406 469.082031 992.585938 468.429688 C 992.859375 467.777344 993.0625 467.101562 993.203125 466.40625 C 993.339844 465.710938 993.410156 465.011719 993.410156 464.304688 L 993.410156 450.125 C 1006.230469 455.742188 1011.382812 461.425781 1011.382812 464.304688 C 1011.382812 474.449219 970.410156 493.09375 903.554688 493.09375 C 836.703125 493.09375 795.726562 474.449219 795.726562 464.304688 C 795.726562 461.425781 800.882812 455.742188 813.703125 450.125 Z M 526.160156 523.609375 L 569.289062 523.609375 L 569.289062 674.566406 L 526.160156 674.566406 Z M 472.246094 584.824219 L 504.59375 571.882812 L 504.59375 674.566406 L 472.246094 674.566406 Z M 644.769531 685.351562 L 644.769531 668.496094 C 661.308594 675.386719 666.335938 682.210938 666.335938 685.351562 C 666.335938 696.328125 624.464844 717.699219 547.726562 717.699219 C 470.984375 717.699219 429.113281 696.328125 429.113281 685.351562 C 429.113281 682.210938 434.140625 675.386719 450.679688 668.496094 L 450.679688 685.351562 C 450.679688 686.058594 450.75 686.757812 450.886719 687.453125 C 451.023438 688.148438 451.230469 688.820312 451.5 689.476562 C 451.773438 690.128906 452.105469 690.75 452.496094 691.339844 C 452.890625 691.929688 453.335938 692.472656 453.839844 692.972656 C 454.339844 693.476562 454.882812 693.921875 455.472656 694.316406 C 456.0625 694.707031 456.683594 695.039062 457.335938 695.3125 C 457.992188 695.582031 458.664062 695.789062 459.359375 695.925781 C 460.054688 696.0625 460.753906 696.132812 461.460938 696.132812 L 633.988281 696.132812 C 634.695312 696.132812 635.394531 696.0625 636.089844 695.925781 C 636.785156 695.789062 637.460938 695.582031 638.113281 695.3125 C 638.765625 695.039062 639.390625 694.707031 639.976562 694.316406 C 640.566406 693.921875 641.109375 693.476562 641.613281 692.972656 C 642.113281 692.472656 642.558594 691.929688 642.953125 691.339844 C 643.347656 690.75 643.679688 690.128906 643.949219 689.476562 C 644.21875 688.820312 644.425781 688.148438 644.5625 687.453125 C 644.699219 686.757812 644.769531 686.058594 644.769531 685.351562 Z M 623.203125 584.824219 L 623.203125 674.566406 L 590.855469 674.566406 L 590.855469 571.882812 Z M 623.203125 584.824219 " fill-opacity="1" fill-rule="nonzero"/></g><g clip-path="url(#c445402b6f)"><path fill="#ff914d" d="M 580.910156 501.164062 L 516.214844 501.164062 C 515.503906 501.164062 514.804688 501.230469 514.109375 501.371094 C 513.414062 501.507812 512.742188 501.710938 512.085938 501.984375 C 511.433594 502.253906 510.8125 502.585938 510.222656 502.980469 C 509.632812 503.371094 509.089844 503.820312 508.589844 504.320312 C 508.089844 504.820312 507.640625 505.367188 507.25 505.953125 C 506.855469 506.542969 506.523438 507.164062 506.25 507.820312 C 505.980469 508.472656 505.777344 509.148438 505.636719 509.839844 C 505.5 510.535156 505.429688 511.238281 505.429688 511.945312 L 505.429688 547.777344 L 458.300781 566.625 C 457.296875 567.023438 456.378906 567.5625 455.539062 568.238281 C 454.699219 568.914062 453.976562 569.699219 453.371094 570.59375 C 452.765625 571.484375 452.304688 572.445312 451.992188 573.476562 C 451.675781 574.507812 451.515625 575.5625 451.515625 576.640625 L 451.515625 644.488281 C 416.117188 656.757812 408.386719 672.8125 408.386719 684.46875 C 408.386719 719.867188 478.90625 738.382812 548.5625 738.382812 C 618.21875 738.382812 688.738281 719.867188 688.738281 684.46875 C 688.738281 672.8125 681.007812 656.757812 645.605469 644.488281 L 645.605469 605.324219 L 815.683594 501.03125 C 830.039062 505.492188 844.65625 508.789062 859.53125 510.925781 C 874.410156 513.0625 889.363281 514.015625 904.394531 513.777344 C 968.691406 513.777344 1033.785156 496.527344 1033.785156 463.421875 C 1033.785156 452.476562 1026.660156 437.480469 994.246094 426.058594 L 994.246094 364.597656 C 994.246094 363.519531 994.085938 362.46875 993.769531 361.4375 C 993.453125 360.40625 992.992188 359.449219 992.390625 358.554688 C 991.785156 357.664062 991.0625 356.878906 990.222656 356.203125 C 989.382812 355.53125 988.464844 354.992188 987.464844 354.59375 L 944.828125 337.511719 L 944.828125 305.273438 C 944.828125 304.5625 944.757812 303.863281 944.621094 303.167969 C 944.484375 302.472656 944.277344 301.800781 944.007812 301.144531 C 943.738281 300.492188 943.40625 299.871094 943.011719 299.28125 C 942.617188 298.691406 942.171875 298.148438 941.671875 297.648438 C 941.167969 297.148438 940.625 296.699219 940.035156 296.304688 C 939.449219 295.914062 938.828125 295.582031 938.171875 295.308594 C 937.519531 295.039062 936.84375 294.835938 936.148438 294.695312 C 935.453125 294.558594 934.753906 294.488281 934.046875 294.488281 L 874.742188 294.488281 C 874.03125 294.488281 873.332031 294.558594 872.636719 294.695312 C 871.941406 294.835938 871.269531 295.039062 870.613281 295.308594 C 869.960938 295.582031 869.339844 295.914062 868.75 296.304688 C 868.160156 296.699219 867.617188 297.148438 867.117188 297.648438 C 866.617188 298.148438 866.167969 298.691406 865.773438 299.28125 C 865.382812 299.871094 865.050781 300.492188 864.777344 301.144531 C 864.507812 301.800781 864.304688 302.472656 864.164062 303.167969 C 864.027344 303.863281 863.957031 304.5625 863.957031 305.273438 L 863.957031 337.511719 L 821.367188 354.570312 C 820.367188 354.96875 819.445312 355.507812 818.605469 356.183594 C 817.765625 356.859375 817.046875 357.640625 816.441406 358.535156 C 815.835938 359.425781 815.375 360.386719 815.058594 361.417969 C 814.742188 362.445312 814.585938 363.5 814.582031 364.578125 L 814.582031 371.328125 L 634.125 327.828125 C 634.574219 325.695312 634.808594 323.539062 634.824219 321.359375 C 634.824219 301.84375 617.410156 285.28125 588.996094 276.816406 L 588.996094 255.316406 L 840.363281 200.324219 C 844.851562 203.910156 849.625 207.058594 854.691406 209.773438 C 859.753906 212.488281 865.019531 214.71875 870.492188 216.46875 C 875.960938 218.222656 881.546875 219.460938 887.242188 220.191406 C 892.941406 220.917969 898.65625 221.125 904.394531 220.808594 C 947.417969 220.808594 979.871094 201.574219 979.871094 176.0625 C 979.871094 160.113281 966.621094 146.0625 944.828125 138.148438 L 944.828125 80.632812 C 944.828125 79.925781 944.757812 79.226562 944.621094 78.53125 C 944.484375 77.835938 944.277344 77.164062 944.007812 76.507812 C 943.738281 75.855469 943.40625 75.234375 943.011719 74.644531 C 942.617188 74.054688 942.171875 73.511719 941.671875 73.011719 C 941.167969 72.507812 940.625 72.0625 940.035156 71.667969 C 939.449219 71.277344 938.828125 70.945312 938.171875 70.671875 C 937.519531 70.402344 936.84375 70.195312 936.148438 70.058594 C 935.453125 69.921875 934.753906 69.851562 934.046875 69.851562 L 874.742188 69.851562 C 874.03125 69.851562 873.332031 69.921875 872.636719 70.058594 C 871.941406 70.195312 871.269531 70.402344 870.613281 70.671875 C 869.960938 70.945312 869.339844 71.277344 868.75 71.667969 C 868.160156 72.0625 867.617188 72.507812 867.117188 73.011719 C 866.617188 73.511719 866.167969 74.054688 865.773438 74.644531 C 865.382812 75.234375 865.050781 75.855469 864.777344 76.507812 C 864.507812 77.164062 864.304688 77.835938 864.164062 78.53125 C 864.027344 79.226562 863.957031 79.925781 863.957031 80.632812 L 863.957031 138.148438 C 842.164062 146.0625 828.914062 160.113281 828.914062 176.0625 C 828.914062 177.613281 829.039062 179.15625 829.28125 180.6875 L 588.996094 233.285156 L 588.996094 199.246094 C 588.996094 198.535156 588.929688 197.835938 588.789062 197.140625 C 588.652344 196.445312 588.449219 195.773438 588.175781 195.117188 C 587.90625 194.464844 587.574219 193.84375 587.179688 193.253906 C 586.785156 192.664062 586.339844 192.121094 585.839844 191.621094 C 585.339844 191.121094 584.792969 190.671875 584.207031 190.28125 C 583.617188 189.886719 582.996094 189.554688 582.339844 189.28125 C 581.6875 189.011719 581.011719 188.808594 580.316406 188.667969 C 579.625 188.53125 578.921875 188.460938 578.214844 188.460938 L 518.910156 188.460938 C 518.203125 188.460938 517.5 188.53125 516.804688 188.667969 C 516.113281 188.808594 515.4375 189.011719 514.78125 189.28125 C 514.128906 189.554688 513.507812 189.886719 512.917969 190.28125 C 512.332031 190.671875 511.785156 191.121094 511.285156 191.621094 C 510.785156 192.121094 510.335938 192.664062 509.945312 193.253906 C 509.550781 193.84375 509.21875 194.464844 508.949219 195.117188 C 508.675781 195.773438 508.472656 196.445312 508.332031 197.140625 C 508.195312 197.835938 508.125 198.535156 508.125 199.246094 L 508.125 276.878906 C 479.714844 285.335938 462.300781 301.898438 462.300781 321.414062 C 462.300781 350.117188 499.382812 371.769531 548.5625 371.769531 C 581.222656 371.769531 608.460938 362.195312 623.136719 347.367188 L 814.539062 393.519531 L 814.539062 426.058594 C 782.128906 437.480469 775 452.476562 775 463.421875 C 775.105469 464.804688 775.296875 466.171875 775.574219 467.527344 C 775.851562 468.882812 776.210938 470.214844 776.660156 471.527344 C 777.105469 472.835938 777.632812 474.113281 778.238281 475.355469 C 778.847656 476.597656 779.53125 477.800781 780.292969 478.957031 C 781.050781 480.113281 781.882812 481.21875 782.78125 482.269531 C 783.679688 483.320312 784.644531 484.3125 785.667969 485.242188 C 786.691406 486.171875 787.773438 487.03125 788.90625 487.824219 C 790.042969 488.617188 791.222656 489.335938 792.445312 489.980469 L 645.605469 580.027344 L 645.605469 576.640625 C 645.605469 575.5625 645.449219 574.507812 645.132812 573.476562 C 644.816406 572.445312 644.355469 571.484375 643.753906 570.59375 C 643.148438 569.699219 642.425781 568.914062 641.585938 568.238281 C 640.746094 567.5625 639.824219 567.023438 638.824219 566.625 L 591.691406 547.777344 L 591.691406 511.945312 C 591.691406 511.238281 591.625 510.535156 591.484375 509.839844 C 591.347656 509.148438 591.144531 508.472656 590.871094 507.820312 C 590.601562 507.164062 590.269531 506.542969 589.875 505.953125 C 589.484375 505.367188 589.035156 504.820312 588.535156 504.320312 C 588.035156 503.820312 587.488281 503.371094 586.902344 502.980469 C 586.3125 502.585938 585.691406 502.253906 585.035156 501.984375 C 584.382812 501.710938 583.707031 501.507812 583.015625 501.371094 C 582.320312 501.230469 581.617188 501.164062 580.910156 501.164062 Z M 885.523438 91.417969 L 923.261719 91.417969 L 923.261719 161.722656 L 885.523438 161.722656 Z M 863.957031 161.613281 L 863.957031 172.503906 C 863.957031 173.210938 864.027344 173.914062 864.164062 174.605469 C 864.304688 175.300781 864.507812 175.976562 864.777344 176.628906 C 865.050781 177.285156 865.382812 177.90625 865.773438 178.496094 C 866.167969 179.082031 866.617188 179.628906 867.117188 180.128906 C 867.617188 180.628906 868.160156 181.074219 868.75 181.46875 C 869.339844 181.863281 869.960938 182.195312 870.613281 182.464844 C 871.269531 182.738281 871.941406 182.941406 872.636719 183.078125 C 873.332031 183.21875 874.03125 183.285156 874.742188 183.285156 L 934.046875 183.285156 C 934.753906 183.285156 935.453125 183.21875 936.148438 183.078125 C 936.84375 182.941406 937.519531 182.738281 938.171875 182.464844 C 938.828125 182.195312 939.449219 181.863281 940.035156 181.46875 C 940.625 181.074219 941.167969 180.628906 941.671875 180.128906 C 942.171875 179.628906 942.617188 179.082031 943.011719 178.496094 C 943.40625 177.90625 943.738281 177.285156 944.007812 176.628906 C 944.277344 175.976562 944.484375 175.300781 944.621094 174.605469 C 944.757812 173.914062 944.828125 173.210938 944.828125 172.503906 L 944.828125 161.613281 C 953.648438 166.207031 958.308594 171.757812 958.308594 176.0625 C 958.308594 185.519531 937.300781 199.246094 904.394531 199.246094 C 871.484375 199.246094 850.480469 185.519531 850.480469 176.0625 C 850.480469 171.757812 855.136719 166.207031 863.957031 161.613281 Z M 529.691406 210.027344 L 567.433594 210.027344 L 567.433594 310.664062 L 529.691406 310.664062 Z M 548.5625 350.203125 C 511.535156 350.203125 483.867188 335 483.867188 321.414062 C 483.867188 313.511719 493.570312 305.238281 508.125 299.601562 L 508.125 321.445312 C 508.125 322.152344 508.195312 322.855469 508.332031 323.550781 C 508.472656 324.242188 508.675781 324.917969 508.949219 325.574219 C 509.21875 326.226562 509.550781 326.847656 509.945312 327.4375 C 510.335938 328.023438 510.785156 328.570312 511.285156 329.070312 C 511.785156 329.570312 512.332031 330.019531 512.917969 330.410156 C 513.507812 330.804688 514.128906 331.136719 514.78125 331.40625 C 515.4375 331.679688 516.113281 331.882812 516.804688 332.023438 C 517.5 332.160156 518.203125 332.230469 518.910156 332.230469 L 578.214844 332.230469 C 578.921875 332.230469 579.625 332.160156 580.316406 332.023438 C 581.011719 331.882812 581.6875 331.679688 582.339844 331.40625 C 582.996094 331.136719 583.617188 330.804688 584.207031 330.410156 C 584.792969 330.019531 585.339844 329.570312 585.839844 329.070312 C 586.339844 328.570312 586.785156 328.023438 587.179688 327.4375 C 587.574219 326.847656 587.90625 326.226562 588.175781 325.574219 C 588.449219 324.917969 588.652344 324.242188 588.789062 323.550781 C 588.929688 322.855469 588.996094 322.152344 588.996094 321.445312 L 588.996094 299.601562 C 603.554688 305.1875 613.257812 313.542969 613.257812 321.414062 C 613.257812 335 585.589844 350.203125 548.5625 350.203125 Z M 944.828125 360.738281 L 972.679688 371.875 L 972.679688 452.640625 L 944.828125 452.640625 Z M 885.523438 316.054688 L 923.261719 316.054688 L 923.261719 452.640625 L 885.523438 452.640625 Z M 836.105469 371.878906 L 863.957031 360.738281 L 863.957031 452.640625 L 836.105469 452.640625 Z M 814.539062 449.242188 L 814.539062 463.421875 C 814.539062 464.128906 814.609375 464.832031 814.746094 465.527344 C 814.886719 466.21875 815.089844 466.894531 815.359375 467.550781 C 815.632812 468.203125 815.964844 468.824219 816.359375 469.414062 C 816.75 470 817.199219 470.546875 817.699219 471.046875 C 818.199219 471.546875 818.742188 471.996094 819.332031 472.386719 C 819.921875 472.78125 820.542969 473.113281 821.195312 473.382812 C 821.851562 473.65625 822.523438 473.859375 823.21875 474 C 823.914062 474.136719 824.613281 474.207031 825.324219 474.207031 L 983.464844 474.207031 C 984.171875 474.207031 984.871094 474.136719 985.566406 474 C 986.261719 473.859375 986.933594 473.65625 987.589844 473.382812 C 988.242188 473.113281 988.863281 472.78125 989.453125 472.386719 C 990.042969 471.996094 990.585938 471.546875 991.085938 471.046875 C 991.589844 470.546875 992.035156 470 992.429688 469.414062 C 992.820312 468.824219 993.152344 468.203125 993.425781 467.550781 C 993.695312 466.894531 993.902344 466.21875 994.039062 465.527344 C 994.175781 464.832031 994.246094 464.128906 994.246094 463.421875 L 994.246094 449.242188 C 1007.066406 454.859375 1012.222656 460.542969 1012.222656 463.421875 C 1012.222656 473.570312 971.246094 492.210938 904.394531 492.210938 C 837.539062 492.210938 796.566406 473.570312 796.566406 463.421875 C 796.566406 460.542969 801.71875 454.859375 814.539062 449.242188 Z M 526.996094 522.726562 L 570.128906 522.726562 L 570.128906 673.6875 L 526.996094 673.6875 Z M 473.082031 583.941406 L 505.429688 571.003906 L 505.429688 673.6875 L 473.082031 673.6875 Z M 645.605469 684.46875 L 645.605469 667.617188 C 662.148438 674.507812 667.171875 681.332031 667.171875 684.46875 C 667.171875 695.445312 625.304688 716.816406 548.5625 716.816406 C 471.820312 716.816406 429.953125 695.445312 429.953125 684.46875 C 429.953125 681.332031 434.976562 674.507812 451.515625 667.617188 L 451.515625 684.46875 C 451.515625 685.175781 451.585938 685.878906 451.722656 686.574219 C 451.863281 687.265625 452.066406 687.941406 452.339844 688.59375 C 452.609375 689.25 452.941406 689.871094 453.335938 690.460938 C 453.726562 691.046875 454.175781 691.59375 454.675781 692.09375 C 455.175781 692.59375 455.71875 693.042969 456.308594 693.433594 C 456.898438 693.828125 457.519531 694.160156 458.171875 694.429688 C 458.828125 694.703125 459.5 694.90625 460.195312 695.042969 C 460.890625 695.183594 461.59375 695.253906 462.300781 695.253906 L 634.824219 695.253906 C 635.53125 695.253906 636.234375 695.183594 636.925781 695.042969 C 637.621094 694.90625 638.296875 694.703125 638.949219 694.429688 C 639.605469 694.160156 640.226562 693.828125 640.816406 693.433594 C 641.402344 693.042969 641.949219 692.59375 642.449219 692.09375 C 642.949219 691.59375 643.394531 691.046875 643.789062 690.460938 C 644.183594 689.871094 644.515625 689.25 644.785156 688.59375 C 645.058594 687.941406 645.261719 687.265625 645.398438 686.574219 C 645.539062 685.878906 645.605469 685.175781 645.605469 684.46875 Z M 624.042969 583.941406 L 624.042969 673.6875 L 591.691406 673.6875 L 591.691406 571.003906 Z M 624.042969 583.941406 " fill-opacity="1" fill-rule="nonzero"/></g></svg>