<?xml version="1.0" encoding="UTF-8"?>
<svg xmlns="http://www.w3.org/2000/svg" xmlns:xlink="http://www.w3.org/1999/xlink" width="1440pt" height="809.999993pt" viewBox="0 0 1440 809.999993" version="1.2">
<defs>
<clipPath id="clip1">
  <path d="M 442.398438 130 L 997.398438 130 L 997.398438 680 L 442.398438 680 Z M 442.398438 130 "/>
</clipPath>
<clipPath id="clip2">
  <path d="M 586.910156 244.683594 L 856.160156 244.683594 L 856.160156 557.433594 L 586.910156 557.433594 Z M 586.910156 244.683594 "/>
</clipPath>
</defs>
<g id="surface1">
<rect x="0" y="0" width="1440" height="809.999993" style="fill:rgb(100%,100%,100%);fill-opacity:1;stroke:none;"/>
<rect x="0" y="0" width="1440" height="809.999993" style="fill:rgb(100%,100%,100%);fill-opacity:1;stroke:none;"/>
<rect x="0" y="0" width="1440" height="809.999993" style="fill:rgb(100%,100%,100%);fill-opacity:1;stroke:none;"/>
<g clip-path="url(#clip1)" clip-rule="nonzero">
<path style=" stroke:none;fill-rule:nonzero;fill:rgb(0%,24.308777%,32.159424%);fill-opacity:1;" d="M 716.941406 130.550781 C 565.332031 130.550781 442.398438 253.433594 442.398438 405.09375 C 442.398438 556.703125 565.332031 679.636719 716.941406 679.636719 C 728.175781 679.636719 737.289062 670.523438 737.289062 659.289062 C 737.289062 648.054688 728.175781 638.9375 716.941406 638.9375 C 587.796875 639.039062 482.996094 534.382812 482.898438 405.242188 C 482.847656 276.050781 587.453125 171.296875 716.644531 171.199219 C 825.140625 171.148438 919.496094 245.746094 944.429688 351.386719 L 932.949219 352.71875 L 971.132812 405.09375 L 997.398438 345.671875 L 985.078125 347 C 957.78125 220.765625 846.132812 130.597656 716.941406 130.550781 "/>
</g>
<path style=" stroke:none;fill-rule:nonzero;fill:rgb(0%,24.308777%,32.159424%);fill-opacity:1;" d="M 977.886719 460.277344 C 977.492188 459.34375 977.046875 458.457031 976.457031 457.667969 C 975.964844 456.78125 975.371094 455.992188 974.632812 455.300781 C 971.035156 451.804688 965.960938 450.226562 960.984375 451.164062 L 958.175781 451.953125 L 955.515625 453.378906 C 954.675781 453.972656 953.890625 454.613281 953.148438 455.300781 C 952.460938 456.039062 951.871094 456.828125 951.328125 457.667969 C 950.734375 458.457031 950.292969 459.34375 949.898438 460.277344 C 949.503906 461.214844 949.207031 462.152344 949.109375 463.136719 C 948.714844 465.105469 948.714844 467.078125 949.109375 469.046875 C 949.207031 470.035156 949.503906 470.96875 949.898438 471.90625 C 950.292969 472.792969 950.734375 473.679688 951.328125 474.519531 C 951.871094 475.355469 952.460938 476.144531 953.148438 476.882812 C 953.890625 477.574219 954.675781 478.214844 955.515625 478.804688 L 958.175781 480.234375 L 960.984375 481.023438 C 962.019531 481.121094 963.054688 481.121094 964.039062 481.023438 L 966.996094 481.023438 L 969.851562 480.234375 L 972.515625 478.804688 C 973.300781 478.214844 974.089844 477.574219 974.828125 476.882812 C 975.570312 476.191406 976.160156 475.40625 976.652344 474.519531 C 977.785156 472.84375 978.574219 471.019531 978.96875 469.046875 C 979.265625 467.078125 979.265625 465.105469 978.96875 463.136719 C 978.722656 462.152344 978.328125 461.214844 977.886719 460.277344 "/>
<path style=" stroke:none;fill-rule:nonzero;fill:rgb(0%,24.308777%,32.159424%);fill-opacity:1;" d="M 938.417969 530.886719 C 931.371094 526.304688 921.910156 528.324219 917.328125 535.417969 C 912.746094 542.464844 914.816406 551.925781 921.910156 556.507812 C 924.472656 558.132812 927.429688 559.019531 930.484375 558.921875 C 938.910156 558.96875 945.757812 552.171875 945.808594 543.746094 C 945.808594 538.523438 943.199219 533.695312 938.8125 530.886719 L 938.417969 530.886719 "/>
<path style=" stroke:none;fill-rule:nonzero;fill:rgb(0%,24.308777%,32.159424%);fill-opacity:1;" d="M 830.117188 615.582031 C 822.925781 619.574219 820.214844 628.542969 823.910156 635.882812 C 826.621094 640.8125 831.742188 643.867188 837.3125 643.816406 C 839.875 643.867188 842.386719 643.226562 844.554688 641.992188 C 852.144531 638.296875 855.246094 629.183594 851.601562 621.59375 C 847.90625 614.054688 838.742188 610.902344 831.203125 614.597656 C 830.808594 614.746094 830.464844 614.941406 830.117188 615.140625 L 830.117188 615.582031 "/>
<path style=" stroke:none;fill-rule:nonzero;fill:rgb(0%,24.308777%,32.159424%);fill-opacity:1;" d="M 956.304688 492.304688 C 948.617188 488.953125 939.601562 492.503906 936.25 500.1875 C 932.851562 507.925781 936.398438 516.941406 944.132812 520.292969 C 946.003906 521.179688 948.125 521.621094 950.242188 521.621094 C 958.621094 521.671875 965.515625 514.921875 965.566406 506.496094 C 965.617188 500.335938 961.96875 494.71875 956.304688 492.304688 "/>
<path style=" stroke:none;fill-rule:nonzero;fill:rgb(0%,24.308777%,32.159424%);fill-opacity:1;" d="M 863.476562 593.804688 C 856.773438 598.929688 855.542969 608.488281 860.667969 615.191406 C 863.574219 618.984375 868.15625 621.199219 872.933594 621.152344 C 876.335938 621.101562 879.585938 619.96875 882.296875 617.898438 C 888.949219 612.726562 890.082031 603.117188 884.910156 596.464844 C 879.6875 589.8125 870.125 588.632812 863.476562 593.804688 "/>
<path style=" stroke:none;fill-rule:nonzero;fill:rgb(0%,24.308777%,32.159424%);fill-opacity:1;" d="M 892.890625 566.855469 C 887.125 573.011719 887.46875 582.671875 893.679688 588.433594 C 899.886719 594.148438 909.496094 593.757812 915.210938 587.597656 C 920.976562 581.4375 920.582031 571.78125 914.421875 566.066406 C 908.261719 560.351562 898.65625 560.644531 892.890625 566.753906 L 892.890625 566.855469 "/>
<path style=" stroke:none;fill-rule:nonzero;fill:rgb(0%,24.308777%,32.159424%);fill-opacity:1;" d="M 787.496094 635.195312 C 784.6875 638.050781 783.0625 641.945312 783.0625 645.984375 C 783.0625 654.410156 789.863281 661.210938 798.289062 661.210938 C 802.328125 661.210938 806.222656 659.582031 809.078125 656.726562 C 811.9375 653.867188 813.511719 650.023438 813.5625 645.984375 C 813.511719 641.945312 811.886719 638.050781 809.078125 635.195312 C 803.019531 629.527344 793.609375 629.527344 787.496094 635.195312 "/>
<path style=" stroke:none;fill-rule:nonzero;fill:rgb(0%,24.308777%,32.159424%);fill-opacity:1;" d="M 673.433594 459.390625 C 682.054688 451.359375 691.910156 444.707031 702.601562 439.730469 C 707.675781 437.316406 712.457031 434.410156 716.941406 431.109375 C 721.425781 434.410156 726.253906 437.316406 731.277344 439.730469 C 742.019531 444.707031 751.824219 451.359375 760.496094 459.390625 C 771.1875 469.835938 779.367188 482.550781 784.441406 496.589844 L 649.4375 496.589844 C 654.511719 482.550781 662.742188 469.835938 673.433594 459.390625 Z M 648.894531 313.546875 L 784.984375 313.546875 C 780.5 328.082031 773.257812 341.582031 763.648438 353.308594 C 733.988281 338.132812 699.054688 337.589844 668.949219 351.78125 C 659.980469 340.398438 653.230469 327.441406 648.894531 313.546875 Z M 805.925781 496.589844 C 800.0625 476.882812 789.320312 458.996094 774.589844 444.609375 C 764.535156 435.199219 753.105469 427.414062 740.640625 421.550781 C 735.566406 419.578125 730.933594 416.574219 727.140625 412.679688 C 727.089844 412.289062 727.089844 411.894531 727.140625 411.5 L 727.140625 408.839844 C 727.089844 408.492188 727.089844 408.097656 727.140625 407.703125 C 728.863281 404.058594 733.199219 401.496094 740.9375 397.554688 C 753.550781 390.855469 764.980469 382.082031 774.785156 371.738281 C 789.910156 355.230469 800.703125 335.226562 806.222656 313.546875 C 820.261719 312.757812 831.003906 300.734375 830.214844 286.691406 C 829.429688 272.699219 817.40625 261.957031 803.363281 262.699219 L 630.515625 262.699219 C 616.472656 261.957031 604.453125 272.699219 603.664062 286.742188 C 602.875 300.734375 613.617188 312.757812 627.660156 313.546875 C 633.226562 335.078125 643.96875 354.933594 658.996094 371.34375 C 668.800781 381.6875 680.234375 390.410156 692.847656 397.160156 C 700.582031 401.496094 704.867188 404.15625 706.691406 407.3125 C 706.691406 408.050781 706.691406 408.738281 706.691406 409.429688 L 706.691406 412.289062 C 702.898438 416.277344 698.265625 419.332031 693.140625 421.351562 C 680.726562 427.214844 669.246094 435 659.195312 444.414062 C 644.511719 458.847656 633.71875 476.832031 627.953125 496.589844 C 613.914062 497.28125 603.121094 509.253906 603.8125 523.296875 C 604.5 537.339844 616.472656 548.128906 630.515625 547.441406 L 803.363281 547.441406 C 817.40625 548.128906 829.378906 537.339844 830.070312 523.296875 C 830.757812 509.253906 819.96875 497.28125 805.925781 496.589844 "/>
<path style=" stroke:none;fill-rule:nonzero;fill:rgb(0%,24.308777%,32.159424%);fill-opacity:1;" d="M 716.941406 445.742188 C 722.558594 445.742188 727.140625 450.324219 727.140625 455.941406 C 727.140625 461.558594 722.558594 466.09375 716.941406 466.09375 C 711.324219 466.09375 706.789062 461.558594 706.789062 455.941406 C 706.789062 450.324219 711.324219 445.742188 716.941406 445.742188 "/>
<path style=" stroke:none;fill-rule:nonzero;fill:rgb(0%,24.308777%,32.159424%);fill-opacity:1;" d="M 716.941406 476.242188 C 722.558594 476.242188 727.140625 480.824219 727.140625 486.441406 C 727.140625 492.058594 722.558594 496.589844 716.941406 496.589844 C 711.324219 496.589844 706.789062 492.058594 706.789062 486.441406 C 706.789062 480.824219 711.324219 476.242188 716.941406 476.242188 "/>
<g clip-path="url(#clip2)" clip-rule="nonzero">
<path style=" stroke:none;fill-rule:nonzero;fill:rgb(100%,51.759338%,0%);fill-opacity:1;" d="M 717.398438 130.476562 C 565.789062 130.476562 442.851562 253.363281 442.851562 405.023438 C 442.851562 556.632812 565.789062 679.566406 717.398438 679.566406 C 728.632812 679.566406 737.746094 670.449219 737.746094 659.214844 C 737.746094 647.980469 728.632812 638.867188 717.398438 638.867188 C 588.253906 638.964844 483.453125 534.3125 483.355469 405.167969 C 483.304688 275.980469 587.910156 171.226562 717.101562 171.128906 C 825.597656 171.078125 919.953125 245.675781 944.886719 351.316406 L 933.40625 352.644531 L 971.589844 405.023438 L 997.851562 345.601562 L 985.535156 346.929688 C 958.238281 220.695312 846.589844 130.527344 717.398438 130.476562 "/>
</g>
<path style=" stroke:none;fill-rule:nonzero;fill:rgb(100%,51.759338%,0%);fill-opacity:1;" d="M 673.890625 459.320312 C 682.511719 451.289062 692.367188 444.636719 703.058594 439.660156 C 708.132812 437.246094 712.914062 434.339844 717.398438 431.039062 C 721.882812 434.339844 726.710938 437.246094 731.734375 439.660156 C 742.476562 444.636719 752.28125 451.289062 760.953125 459.320312 C 771.644531 469.765625 779.824219 482.476562 784.898438 496.519531 L 649.894531 496.519531 C 654.96875 482.476562 663.199219 469.765625 673.890625 459.320312 Z M 649.351562 313.472656 L 785.441406 313.472656 C 780.957031 328.011719 773.714844 341.511719 764.105469 353.238281 C 734.445312 338.0625 699.511719 337.519531 669.40625 351.710938 C 660.4375 340.328125 653.6875 327.371094 649.351562 313.472656 Z M 806.382812 496.519531 C 800.519531 476.8125 789.777344 458.925781 775.046875 444.539062 C 764.992188 435.128906 753.5625 427.34375 741.097656 421.480469 C 736.023438 419.507812 731.390625 416.503906 727.597656 412.609375 C 727.546875 412.214844 727.546875 411.820312 727.597656 411.425781 L 727.597656 408.765625 C 727.546875 408.421875 727.546875 408.027344 727.597656 407.632812 C 729.320312 403.988281 733.65625 401.425781 741.394531 397.484375 C 754.007812 390.78125 765.4375 382.011719 775.242188 371.664062 C 790.367188 355.160156 801.160156 335.152344 806.679688 313.472656 C 820.71875 312.6875 831.460938 300.664062 830.671875 286.621094 C 829.886719 272.628906 817.863281 261.886719 803.820312 262.625 L 630.972656 262.625 C 616.929688 261.886719 604.910156 272.628906 604.121094 286.671875 C 603.332031 300.664062 614.074219 312.6875 628.117188 313.472656 C 633.683594 335.007812 644.425781 354.863281 659.453125 371.269531 C 669.257812 381.617188 680.691406 390.339844 693.304688 397.089844 C 701.039062 401.425781 705.324219 404.085938 707.148438 407.238281 C 707.148438 407.976562 707.148438 408.667969 707.148438 409.359375 L 707.148438 412.214844 C 703.355469 416.207031 698.722656 419.261719 693.597656 421.28125 C 681.183594 427.144531 669.703125 434.929688 659.648438 444.339844 C 644.96875 458.777344 634.175781 476.761719 628.410156 496.519531 C 614.371094 497.210938 603.578125 509.183594 604.269531 523.226562 C 604.957031 537.269531 616.929688 548.058594 630.972656 547.367188 L 803.820312 547.367188 C 817.863281 548.058594 829.835938 537.269531 830.527344 523.226562 C 831.214844 509.183594 820.425781 497.210938 806.382812 496.519531 "/>
<path style=" stroke:none;fill-rule:nonzero;fill:rgb(100%,51.759338%,0%);fill-opacity:1;" d="M 717.398438 445.671875 C 723.015625 445.671875 727.597656 450.253906 727.597656 455.871094 C 727.597656 461.488281 723.015625 466.019531 717.398438 466.019531 C 711.78125 466.019531 707.246094 461.488281 707.246094 455.871094 C 707.246094 450.253906 711.78125 445.671875 717.398438 445.671875 "/>
<path style=" stroke:none;fill-rule:nonzero;fill:rgb(100%,51.759338%,0%);fill-opacity:1;" d="M 717.398438 476.171875 C 723.015625 476.171875 727.597656 480.753906 727.597656 486.371094 C 727.597656 491.988281 723.015625 496.519531 717.398438 496.519531 C 711.78125 496.519531 707.246094 491.988281 707.246094 486.371094 C 707.246094 480.753906 711.78125 476.171875 717.398438 476.171875 "/>
</g>
</svg>
