<?xml version="1.0" encoding="UTF-8"?><svg xmlns="http://www.w3.org/2000/svg" xmlns:xlink="http://www.w3.org/1999/xlink" contentScriptType="text/ecmascript" width="1440" zoomAndPan="magnify" contentStyleType="text/css" viewBox="0 0 1440 809.999993" height="809.999993" preserveAspectRatio="xMidYMid meet" version="1.0"><defs><clipPath id="clip-0"><path d="M 719.140625 73.8125 L 1016.023438 73.8125 L 1016.023438 349 L 719.140625 349 Z M 719.140625 73.8125 " clip-rule="nonzero"/></clipPath><clipPath id="clip-1"><path d="M 548 298.269531 L 741 298.269531 L 741 538 L 548 538 Z M 548 298.269531 " clip-rule="nonzero"/></clipPath><clipPath id="clip-2"><path d="M 425 551 L 864 551 L 864 736.269531 L 425 736.269531 Z M 425 551 " clip-rule="nonzero"/></clipPath><clipPath id="clip-3"><path d="M 548 298.269531 L 741 298.269531 L 741 538 L 548 538 Z M 548 298.269531 " clip-rule="nonzero"/></clipPath><clipPath id="clip-4"><path d="M 425 551 L 864 551 L 864 736.269531 L 425 736.269531 Z M 425 551 " clip-rule="nonzero"/></clipPath></defs><g clip-path="url(#clip-0)"><path fill="rgb(100%, 51.759338%, 0%)" d="M 764.152344 184.3125 L 769.453125 189.523438 C 769.875 189.984375 772.039062 192.375 772.039062 192.375 C 773.15625 193.386719 773.847656 195.421875 773.511719 196.894531 L 771.253906 207.777344 C 771.1875 209.613281 771.777344 210.730469 772.339844 211.386719 C 773.089844 212.265625 774.203125 212.761719 775.449219 212.761719 C 776.566406 212.761719 777.644531 212.332031 778.589844 211.910156 L 783.46875 209.980469 L 785.277344 209.257812 C 786.589844 208.601562 788.324219 208.207031 790.1875 208.167969 C 792.0625 208.207031 793.792969 208.601562 795.105469 209.257812 L 796.867188 209.980469 L 801.757812 211.910156 C 802.703125 212.332031 803.78125 212.761719 804.933594 212.761719 C 806.171875 212.761719 807.257812 212.265625 808.015625 211.386719 C 808.570312 210.730469 809.160156 209.613281 809.09375 207.777344 L 806.835938 196.894531 C 806.535156 195.421875 807.191406 193.386719 808.304688 192.375 C 808.304688 192.375 810.460938 189.984375 810.929688 189.523438 L 816.203125 184.3125 C 818.59375 181.914062 818.398438 179.917969 818.03125 178.902344 C 817.636719 177.695312 816.53125 176.871094 815.277344 176.738281 L 802.796875 175.359375 C 801.289062 175.203125 799.554688 173.953125 798.9375 172.546875 C 797.589844 169.59375 796.25 166.613281 794.910156 163.632812 C 793.886719 161.402344 793.136719 158.75 790.1875 158.609375 C 787.246094 158.75 786.457031 161.402344 785.4375 163.632812 C 784.136719 166.613281 782.785156 169.59375 781.445312 172.546875 C 780.820312 173.953125 779.085938 175.203125 777.578125 175.359375 L 765.097656 176.738281 C 763.816406 176.871094 762.710938 177.695312 762.316406 178.902344 C 761.988281 179.917969 761.789062 181.914062 764.152344 184.3125 Z M 842.015625 184.3125 L 847.289062 189.523438 C 847.75 189.984375 849.875 192.375 849.875 192.375 C 851.019531 193.386719 851.675781 195.421875 851.347656 196.894531 L 849.125 207.777344 C 849.050781 209.613281 849.613281 210.730469 850.164062 211.386719 C 850.925781 212.265625 852.039062 212.761719 853.285156 212.761719 C 854.402344 212.761719 855.507812 212.332031 856.425781 211.910156 L 861.34375 209.980469 L 863.113281 209.257812 C 864.414062 208.601562 866.15625 208.207031 868.023438 208.167969 C 869.886719 208.207031 871.621094 208.601562 872.933594 209.257812 L 874.703125 209.980469 L 879.621094 211.910156 C 880.539062 212.332031 881.617188 212.761719 882.769531 212.761719 C 884.003906 212.761719 885.121094 212.265625 885.839844 211.386719 C 886.402344 210.730469 886.992188 209.613281 886.917969 207.777344 L 884.660156 196.894531 C 884.371094 195.421875 885.027344 193.386719 886.132812 192.375 C 886.132812 192.375 888.296875 189.984375 888.753906 189.523438 L 894.03125 184.3125 C 896.429688 181.914062 896.222656 179.917969 895.894531 178.902344 C 895.472656 177.695312 894.359375 176.871094 893.113281 176.738281 L 880.632812 175.359375 C 879.125 175.203125 877.390625 173.953125 876.773438 172.546875 C 875.421875 169.59375 874.085938 166.613281 872.746094 163.632812 C 871.722656 161.402344 870.972656 158.75 868.023438 158.609375 C 865.070312 158.75 864.320312 161.402344 863.308594 163.632812 C 861.960938 166.613281 860.621094 169.59375 859.28125 172.546875 C 858.652344 173.953125 856.921875 175.203125 855.414062 175.359375 L 842.933594 176.738281 C 841.6875 176.871094 840.570312 177.695312 840.140625 178.902344 C 839.824219 179.917969 839.625 181.914062 842.015625 184.3125 Z M 919.851562 184.3125 L 925.117188 189.523438 C 925.574219 189.984375 927.738281 192.375 927.738281 192.375 C 928.851562 193.386719 929.507812 195.421875 929.210938 196.894531 L 926.953125 207.777344 C 926.886719 209.613281 927.476562 210.730469 928.039062 211.386719 C 928.789062 212.265625 929.863281 212.761719 931.109375 212.761719 C 932.261719 212.761719 933.339844 212.332031 934.257812 211.910156 L 939.167969 209.980469 L 940.9375 209.257812 C 942.25 208.601562 943.984375 208.207031 945.859375 208.167969 C 947.722656 208.207031 949.457031 208.601562 950.765625 209.257812 L 952.539062 209.980469 L 957.457031 211.910156 C 958.363281 212.332031 959.480469 212.761719 960.59375 212.761719 C 961.839844 212.761719 962.957031 212.265625 963.703125 211.386719 C 964.265625 210.730469 964.820312 209.613281 964.792969 207.777344 L 962.523438 196.894531 C 962.207031 195.421875 962.890625 193.386719 964.003906 192.375 C 964.003906 192.375 966.132812 189.984375 966.589844 189.523438 L 971.863281 184.3125 C 974.253906 181.914062 974.058594 179.917969 973.730469 178.902344 C 973.308594 177.695312 972.222656 176.871094 970.945312 176.738281 L 958.46875 175.359375 C 956.960938 175.203125 955.226562 173.953125 954.597656 172.546875 C 953.257812 169.59375 951.917969 166.613281 950.570312 163.632812 C 949.585938 161.402344 948.800781 158.75 945.859375 158.609375 C 942.90625 158.75 942.15625 161.402344 941.136719 163.632812 C 939.796875 166.613281 938.445312 169.59375 937.105469 172.546875 C 936.488281 173.953125 934.746094 175.203125 933.238281 175.359375 L 920.757812 176.738281 C 919.523438 176.871094 918.398438 177.695312 918.015625 178.902344 C 917.648438 179.917969 917.453125 181.914062 919.851562 184.3125 Z M 740.917969 73.726562 L 994.601562 73.726562 C 1006.453125 73.726562 1016.085938 83.363281 1016.085938 95.222656 L 1016.085938 275.914062 C 1016.085938 287.78125 1006.453125 297.417969 994.601562 297.417969 L 839.234375 297.417969 L 838.050781 299.226562 C 822.058594 323.742188 798.648438 340.980469 770.898438 348.910156 C 778.984375 332.984375 781.773438 314.890625 778.859375 297.417969 L 740.917969 297.417969 C 729.066406 297.417969 719.433594 287.78125 719.433594 275.914062 L 719.433594 95.222656 C 719.433594 83.363281 729.066406 73.726562 740.917969 73.726562 " fill-opacity="1" fill-rule="nonzero"/><path fill="rgb(100%, 51.759338%, 0%)" d="M 764.152344 184.3125 L 769.453125 189.523438 C 769.875 189.984375 772.039062 192.375 772.039062 192.375 C 773.15625 193.386719 773.847656 195.421875 773.511719 196.894531 L 771.253906 207.777344 C 771.1875 209.613281 771.777344 210.730469 772.339844 211.386719 C 773.089844 212.265625 774.203125 212.761719 775.449219 212.761719 C 776.566406 212.761719 777.644531 212.332031 778.589844 211.910156 L 783.46875 209.980469 L 785.277344 209.257812 C 786.589844 208.601562 788.324219 208.207031 790.1875 208.167969 C 792.0625 208.207031 793.792969 208.601562 795.105469 209.257812 L 796.867188 209.980469 L 801.757812 211.910156 C 802.703125 212.332031 803.78125 212.761719 804.933594 212.761719 C 806.171875 212.761719 807.257812 212.265625 808.015625 211.386719 C 808.570312 210.730469 809.160156 209.613281 809.09375 207.777344 L 806.835938 196.894531 C 806.535156 195.421875 807.191406 193.386719 808.304688 192.375 C 808.304688 192.375 810.460938 189.984375 810.929688 189.523438 L 816.203125 184.3125 C 818.59375 181.914062 818.398438 179.917969 818.03125 178.902344 C 817.636719 177.695312 816.53125 176.871094 815.277344 176.738281 L 802.796875 175.359375 C 801.289062 175.203125 799.554688 173.953125 798.9375 172.546875 C 797.589844 169.59375 796.25 166.613281 794.910156 163.632812 C 793.886719 161.402344 793.136719 158.75 790.1875 158.609375 C 787.246094 158.75 786.457031 161.402344 785.4375 163.632812 C 784.136719 166.613281 782.785156 169.59375 781.445312 172.546875 C 780.820312 173.953125 779.085938 175.203125 777.578125 175.359375 L 765.097656 176.738281 C 763.816406 176.871094 762.710938 177.695312 762.316406 178.902344 C 761.988281 179.917969 761.789062 181.914062 764.152344 184.3125 Z M 842.015625 184.3125 L 847.289062 189.523438 C 847.75 189.984375 849.875 192.375 849.875 192.375 C 851.019531 193.386719 851.675781 195.421875 851.347656 196.894531 L 849.125 207.777344 C 849.050781 209.613281 849.613281 210.730469 850.164062 211.386719 C 850.925781 212.265625 852.039062 212.761719 853.285156 212.761719 C 854.402344 212.761719 855.507812 212.332031 856.425781 211.910156 L 861.34375 209.980469 L 863.113281 209.257812 C 864.414062 208.601562 866.15625 208.207031 868.023438 208.167969 C 869.886719 208.207031 871.621094 208.601562 872.933594 209.257812 L 874.703125 209.980469 L 879.621094 211.910156 C 880.539062 212.332031 881.617188 212.761719 882.769531 212.761719 C 884.003906 212.761719 885.121094 212.265625 885.839844 211.386719 C 886.402344 210.730469 886.992188 209.613281 886.917969 207.777344 L 884.660156 196.894531 C 884.371094 195.421875 885.027344 193.386719 886.132812 192.375 C 886.132812 192.375 888.296875 189.984375 888.753906 189.523438 L 894.03125 184.3125 C 896.429688 181.914062 896.222656 179.917969 895.894531 178.902344 C 895.472656 177.695312 894.359375 176.871094 893.113281 176.738281 L 880.632812 175.359375 C 879.125 175.203125 877.390625 173.953125 876.773438 172.546875 C 875.421875 169.59375 874.085938 166.613281 872.746094 163.632812 C 871.722656 161.402344 870.972656 158.75 868.023438 158.609375 C 865.070312 158.75 864.320312 161.402344 863.308594 163.632812 C 861.960938 166.613281 860.621094 169.59375 859.28125 172.546875 C 858.652344 173.953125 856.921875 175.203125 855.414062 175.359375 L 842.933594 176.738281 C 841.6875 176.871094 840.570312 177.695312 840.140625 178.902344 C 839.824219 179.917969 839.625 181.914062 842.015625 184.3125 Z M 919.851562 184.3125 L 925.117188 189.523438 C 925.574219 189.984375 927.738281 192.375 927.738281 192.375 C 928.851562 193.386719 929.507812 195.421875 929.210938 196.894531 L 926.953125 207.777344 C 926.886719 209.613281 927.476562 210.730469 928.039062 211.386719 C 928.789062 212.265625 929.863281 212.761719 931.109375 212.761719 C 932.261719 212.761719 933.339844 212.332031 934.257812 211.910156 L 939.167969 209.980469 L 940.9375 209.257812 C 942.25 208.601562 943.984375 208.207031 945.859375 208.167969 C 947.722656 208.207031 949.457031 208.601562 950.765625 209.257812 L 952.539062 209.980469 L 957.457031 211.910156 C 958.363281 212.332031 959.480469 212.761719 960.59375 212.761719 C 961.839844 212.761719 962.957031 212.265625 963.703125 211.386719 C 964.265625 210.730469 964.820312 209.613281 964.792969 207.777344 L 962.523438 196.894531 C 962.207031 195.421875 962.890625 193.386719 964.003906 192.375 C 964.003906 192.375 966.132812 189.984375 966.589844 189.523438 L 971.863281 184.3125 C 974.253906 181.914062 974.058594 179.917969 973.730469 178.902344 C 973.308594 177.695312 972.222656 176.871094 970.945312 176.738281 L 958.46875 175.359375 C 956.960938 175.203125 955.226562 173.953125 954.597656 172.546875 C 953.257812 169.59375 951.917969 166.613281 950.570312 163.632812 C 949.585938 161.402344 948.800781 158.75 945.859375 158.609375 C 942.90625 158.75 942.15625 161.402344 941.136719 163.632812 C 939.796875 166.613281 938.445312 169.59375 937.105469 172.546875 C 936.488281 173.953125 934.746094 175.203125 933.238281 175.359375 L 920.757812 176.738281 C 919.523438 176.871094 918.398438 177.695312 918.015625 178.902344 C 917.648438 179.917969 917.453125 181.914062 919.851562 184.3125 Z M 740.917969 73.726562 L 994.601562 73.726562 C 1006.453125 73.726562 1016.085938 83.363281 1016.085938 95.222656 L 1016.085938 275.914062 C 1016.085938 287.78125 1006.453125 297.417969 994.601562 297.417969 L 839.234375 297.417969 L 838.050781 299.226562 C 822.058594 323.742188 798.648438 340.980469 770.898438 348.910156 C 778.984375 332.984375 781.773438 314.890625 778.859375 297.417969 L 740.917969 297.417969 C 729.066406 297.417969 719.433594 287.78125 719.433594 275.914062 L 719.433594 95.222656 C 719.433594 83.363281 729.066406 73.726562 740.917969 73.726562 " fill-opacity="1" fill-rule="nonzero"/></g><g clip-path="url(#clip-1)"><path fill="rgb(100%, 100%, 100%)" d="M 548.9375 401.265625 C 548.9375 458.070312 591.699219 537.800781 644.726562 537.800781 C 697.75 537.800781 740.511719 458.070312 740.511719 401.265625 C 740.511719 344.464844 697.75 298.269531 644.726562 298.269531 C 591.699219 298.269531 548.9375 344.464844 548.9375 401.265625 Z M 548.9375 401.265625 " fill-opacity="1" fill-rule="nonzero"/></g><g clip-path="url(#clip-2)"><path fill="rgb(100%, 100%, 100%)" d="M 837.324219 736.269531 C 852.71875 736.269531 864.691406 723.949219 863.667969 708.894531 C 861.269531 673.988281 854.429688 615.816406 835.957031 598.367188 C 818.507812 581.941406 714.855469 551.488281 714.855469 551.488281 L 644.726562 602.816406 L 574.59375 551.488281 C 574.59375 551.488281 470.941406 581.941406 453.492188 598.367188 C 435.019531 615.816406 428.179688 673.648438 425.78125 708.894531 C 424.757812 723.949219 436.730469 736.269531 452.125 736.269531 Z M 837.324219 736.269531 " fill-opacity="1" fill-rule="nonzero"/></g><g clip-path="url(#clip-3)"><path fill="rgb(100%, 100%, 100%)" d="M 548.9375 401.265625 C 548.9375 458.070312 591.699219 537.800781 644.726562 537.800781 C 697.75 537.800781 740.511719 458.070312 740.511719 401.265625 C 740.511719 344.464844 697.75 298.269531 644.726562 298.269531 C 591.699219 298.269531 548.9375 344.464844 548.9375 401.265625 Z M 548.9375 401.265625 " fill-opacity="1" fill-rule="nonzero"/></g><g clip-path="url(#clip-4)"><path fill="rgb(100%, 100%, 100%)" d="M 837.324219 736.269531 C 852.71875 736.269531 864.691406 723.949219 863.667969 708.894531 C 861.269531 673.988281 854.429688 615.816406 835.957031 598.367188 C 818.507812 581.941406 714.855469 551.488281 714.855469 551.488281 L 644.726562 602.816406 L 574.59375 551.488281 C 574.59375 551.488281 470.941406 581.941406 453.492188 598.367188 C 435.019531 615.816406 428.179688 673.648438 425.78125 708.894531 C 424.757812 723.949219 436.730469 736.269531 452.125 736.269531 Z M 837.324219 736.269531 " fill-opacity="1" fill-rule="nonzero"/></g></svg>