<?xml version="1.0" encoding="UTF-8"?><svg xmlns="http://www.w3.org/2000/svg" xmlns:xlink="http://www.w3.org/1999/xlink" contentScriptType="text/ecmascript" width="1440" zoomAndPan="magnify" contentStyleType="text/css" viewBox="0 0 1440 809.999993" height="809.999993" preserveAspectRatio="xMidYMid meet" version="1.0"><defs><clipPath id="clip-0"><path d="M 404 74 L 1036 74 L 1036 735.996094 L 404 735.996094 Z M 404 74 " clip-rule="nonzero"/></clipPath><clipPath id="clip-1"><path d="M 624.34375 257.554688 L 815.59375 257.554688 L 815.59375 552.304688 L 624.34375 552.304688 Z M 624.34375 257.554688 " clip-rule="nonzero"/></clipPath></defs><g clip-path="url(#clip-0)"><path fill="rgb(100%, 100%, 100%)" d="M 720.152344 74.109375 L 404.523438 189.726562 L 404.523438 610.644531 L 720.152344 736.773438 L 1035.785156 610.644531 L 1035.785156 189.726562 L 1029.105469 187.28125 Z M 720.152344 95.765625 L 1015.421875 203.953125 L 1015.421875 596.855469 L 720.152344 714.878906 L 424.886719 596.855469 L 424.886719 203.953125 Z M 720.152344 105.285156 C 719.484375 105.285156 718.824219 105.347656 718.167969 105.480469 C 717.511719 105.609375 716.875 105.800781 716.257812 106.058594 C 715.640625 106.3125 715.054688 106.625 714.496094 106.996094 C 713.941406 107.367188 713.425781 107.789062 712.953125 108.261719 C 712.480469 108.734375 712.058594 109.25 711.6875 109.804688 C 711.316406 110.359375 711.003906 110.945312 710.746094 111.5625 C 710.492188 112.179688 710.296875 112.816406 710.167969 113.472656 C 710.039062 114.125 709.972656 114.789062 709.972656 115.457031 C 709.972656 116.125 710.039062 116.785156 710.167969 117.441406 C 710.296875 118.097656 710.492188 118.730469 710.746094 119.347656 C 711.003906 119.964844 711.316406 120.550781 711.6875 121.109375 C 712.058594 121.664062 712.480469 122.175781 712.953125 122.648438 C 713.425781 123.121094 713.941406 123.542969 714.496094 123.914062 C 715.054688 124.285156 715.640625 124.597656 716.257812 124.855469 C 716.875 125.109375 717.511719 125.304688 718.167969 125.433594 C 718.824219 125.5625 719.484375 125.628906 720.152344 125.628906 C 720.824219 125.628906 721.484375 125.5625 722.140625 125.433594 C 722.796875 125.304688 723.433594 125.109375 724.050781 124.855469 C 724.667969 124.597656 725.253906 124.285156 725.8125 123.914062 C 726.367188 123.542969 726.878906 123.121094 727.351562 122.648438 C 727.828125 122.175781 728.25 121.664062 728.621094 121.109375 C 728.992188 120.550781 729.304688 119.964844 729.5625 119.347656 C 729.816406 118.730469 730.007812 118.097656 730.140625 117.441406 C 730.269531 116.785156 730.335938 116.125 730.335938 115.457031 C 730.335938 114.789062 730.269531 114.125 730.140625 113.472656 C 730.007812 112.816406 729.816406 112.179688 729.5625 111.5625 C 729.304688 110.945312 728.992188 110.359375 728.621094 109.804688 C 728.25 109.25 727.828125 108.734375 727.351562 108.261719 C 726.878906 107.789062 726.367188 107.367188 725.808594 106.996094 C 725.253906 106.625 724.667969 106.3125 724.050781 106.058594 C 723.433594 105.800781 722.796875 105.609375 722.140625 105.480469 C 721.484375 105.347656 720.824219 105.285156 720.152344 105.285156 Z M 720.152344 145.976562 C 719.484375 145.976562 718.824219 146.039062 718.167969 146.171875 C 717.511719 146.300781 716.875 146.492188 716.257812 146.75 C 715.640625 147.003906 715.054688 147.316406 714.496094 147.6875 C 713.941406 148.058594 713.425781 148.480469 712.953125 148.953125 C 712.480469 149.425781 712.058594 149.941406 711.6875 150.496094 C 711.316406 151.050781 711.003906 151.636719 710.746094 152.253906 C 710.492188 152.871094 710.296875 153.507812 710.167969 154.164062 C 710.039062 154.816406 709.972656 155.480469 709.972656 156.148438 C 709.972656 156.816406 710.039062 157.476562 710.167969 158.132812 C 710.296875 158.789062 710.492188 159.421875 710.746094 160.039062 C 711.003906 160.65625 711.316406 161.242188 711.6875 161.800781 C 712.058594 162.355469 712.480469 162.867188 712.953125 163.339844 C 713.425781 163.8125 713.941406 164.234375 714.496094 164.605469 C 715.054688 164.976562 715.640625 165.289062 716.257812 165.546875 C 716.875 165.800781 717.511719 165.996094 718.167969 166.125 C 718.824219 166.253906 719.484375 166.320312 720.152344 166.320312 C 720.824219 166.320312 721.484375 166.253906 722.140625 166.125 C 722.796875 165.996094 723.433594 165.800781 724.050781 165.546875 C 724.667969 165.289062 725.253906 164.976562 725.8125 164.605469 C 726.367188 164.234375 726.878906 163.8125 727.351562 163.339844 C 727.828125 162.867188 728.25 162.355469 728.621094 161.800781 C 728.992188 161.242188 729.304688 160.65625 729.5625 160.039062 C 729.816406 159.421875 730.007812 158.789062 730.140625 158.132812 C 730.269531 157.476562 730.335938 156.816406 730.335938 156.148438 C 730.335938 155.480469 730.269531 154.816406 730.140625 154.164062 C 730.007812 153.507812 729.816406 152.871094 729.5625 152.253906 C 729.304688 151.636719 728.992188 151.050781 728.621094 150.496094 C 728.25 149.941406 727.828125 149.425781 727.351562 148.953125 C 726.878906 148.480469 726.367188 148.058594 725.808594 147.6875 C 725.253906 147.316406 724.667969 147.003906 724.050781 146.75 C 723.433594 146.492188 722.796875 146.300781 722.140625 146.171875 C 721.484375 146.039062 720.824219 145.976562 720.152344 145.976562 Z M 720.152344 186.667969 C 719.484375 186.667969 718.824219 186.730469 718.167969 186.863281 C 717.511719 186.992188 716.875 187.183594 716.257812 187.441406 C 715.640625 187.695312 715.054688 188.007812 714.496094 188.378906 C 713.941406 188.75 713.425781 189.171875 712.953125 189.644531 C 712.480469 190.117188 712.058594 190.632812 711.6875 191.1875 C 711.316406 191.742188 711.003906 192.328125 710.746094 192.945312 C 710.492188 193.5625 710.296875 194.199219 710.167969 194.855469 C 710.039062 195.507812 709.972656 196.171875 709.972656 196.839844 C 709.972656 197.507812 710.039062 198.167969 710.167969 198.824219 C 710.296875 199.480469 710.492188 200.113281 710.746094 200.730469 C 711.003906 201.347656 711.316406 201.933594 711.6875 202.492188 C 712.058594 203.046875 712.480469 203.558594 712.953125 204.03125 C 713.425781 204.503906 713.941406 204.925781 714.496094 205.296875 C 715.054688 205.667969 715.640625 205.980469 716.257812 206.238281 C 716.875 206.492188 717.511719 206.6875 718.167969 206.816406 C 718.824219 206.945312 719.484375 207.011719 720.152344 207.011719 C 720.824219 207.011719 721.484375 206.945312 722.140625 206.816406 C 722.796875 206.6875 723.433594 206.492188 724.050781 206.238281 C 724.667969 205.980469 725.253906 205.667969 725.8125 205.296875 C 726.367188 204.925781 726.878906 204.503906 727.351562 204.03125 C 727.828125 203.558594 728.25 203.046875 728.621094 202.492188 C 728.992188 201.933594 729.304688 201.347656 729.5625 200.730469 C 729.816406 200.113281 730.007812 199.480469 730.140625 198.824219 C 730.269531 198.167969 730.335938 197.507812 730.335938 196.839844 C 730.335938 196.171875 730.269531 195.507812 730.140625 194.855469 C 730.007812 194.199219 729.816406 193.5625 729.5625 192.945312 C 729.304688 192.328125 728.992188 191.742188 728.621094 191.1875 C 728.25 190.632812 727.828125 190.117188 727.351562 189.644531 C 726.878906 189.171875 726.367188 188.75 725.808594 188.378906 C 725.253906 188.007812 724.667969 187.695312 724.050781 187.441406 C 723.433594 187.183594 722.796875 186.992188 722.140625 186.863281 C 721.484375 186.730469 720.824219 186.667969 720.152344 186.667969 Z M 720.152344 227.355469 C 719.484375 227.355469 718.824219 227.421875 718.167969 227.554688 C 717.511719 227.683594 716.875 227.875 716.257812 228.132812 C 715.640625 228.386719 715.054688 228.699219 714.496094 229.070312 C 713.941406 229.441406 713.425781 229.863281 712.953125 230.335938 C 712.480469 230.808594 712.058594 231.324219 711.6875 231.878906 C 711.316406 232.433594 711.003906 233.019531 710.746094 233.636719 C 710.492188 234.253906 710.296875 234.890625 710.167969 235.546875 C 710.039062 236.199219 709.972656 236.863281 709.972656 237.53125 C 709.972656 238.199219 710.039062 238.859375 710.167969 239.515625 C 710.296875 240.167969 710.492188 240.804688 710.746094 241.421875 C 711.003906 242.039062 711.316406 242.625 711.6875 243.183594 C 712.058594 243.738281 712.480469 244.25 712.953125 244.722656 C 713.425781 245.195312 713.941406 245.617188 714.496094 245.988281 C 715.054688 246.359375 715.640625 246.671875 716.257812 246.929688 C 716.875 247.183594 717.511719 247.378906 718.167969 247.507812 C 718.824219 247.636719 719.484375 247.703125 720.152344 247.703125 C 720.824219 247.703125 721.484375 247.636719 722.140625 247.507812 C 722.796875 247.378906 723.433594 247.183594 724.050781 246.929688 C 724.667969 246.671875 725.253906 246.359375 725.8125 245.988281 C 726.367188 245.617188 726.878906 245.195312 727.351562 244.722656 C 727.828125 244.25 728.25 243.738281 728.621094 243.183594 C 728.992188 242.625 729.304688 242.039062 729.5625 241.421875 C 729.816406 240.804688 730.007812 240.167969 730.140625 239.515625 C 730.269531 238.859375 730.335938 238.199219 730.335938 237.53125 C 730.335938 236.863281 730.269531 236.199219 730.140625 235.546875 C 730.007812 234.890625 729.816406 234.253906 729.5625 233.636719 C 729.304688 233.019531 728.992188 232.433594 728.621094 231.878906 C 728.25 231.324219 727.828125 230.808594 727.351562 230.335938 C 726.878906 229.863281 726.367188 229.441406 725.808594 229.070312 C 725.253906 228.699219 724.667969 228.386719 724.050781 228.132812 C 723.433594 227.875 722.796875 227.683594 722.140625 227.554688 C 721.484375 227.421875 720.824219 227.355469 720.152344 227.355469 Z M 648.882812 245.339844 L 485.976562 309.214844 L 485.976562 447.761719 L 500.035156 441.960938 L 648.882812 380.722656 Z M 811.789062 263.578125 L 811.789062 529.261719 L 832.648438 537.589844 L 833.605469 537.964844 L 871.40625 553.085938 L 871.863281 553.265625 L 872.363281 553.464844 L 910.164062 568.5625 L 911.140625 568.960938 L 933.96875 578.082031 L 933.96875 309.078125 Z M 720.152344 268.046875 C 719.484375 268.046875 718.824219 268.113281 718.167969 268.242188 C 717.511719 268.375 716.875 268.566406 716.257812 268.824219 C 715.640625 269.078125 715.054688 269.390625 714.496094 269.761719 C 713.941406 270.132812 713.425781 270.554688 712.953125 271.027344 C 712.480469 271.5 712.058594 272.015625 711.6875 272.570312 C 711.316406 273.125 711.003906 273.710938 710.746094 274.328125 C 710.492188 274.945312 710.296875 275.582031 710.167969 276.238281 C 710.039062 276.890625 709.972656 277.554688 709.972656 278.222656 C 709.972656 278.890625 710.039062 279.550781 710.167969 280.207031 C 710.296875 280.859375 710.492188 281.496094 710.746094 282.113281 C 711.003906 282.730469 711.316406 283.316406 711.6875 283.875 C 712.058594 284.429688 712.480469 284.941406 712.953125 285.414062 C 713.425781 285.886719 713.941406 286.308594 714.496094 286.679688 C 715.054688 287.050781 715.640625 287.363281 716.257812 287.621094 C 716.875 287.875 717.511719 288.070312 718.167969 288.199219 C 718.824219 288.328125 719.484375 288.394531 720.152344 288.394531 C 720.824219 288.394531 721.484375 288.328125 722.140625 288.199219 C 722.796875 288.070312 723.433594 287.875 724.050781 287.621094 C 724.667969 287.363281 725.253906 287.050781 725.8125 286.679688 C 726.367188 286.308594 726.878906 285.886719 727.351562 285.414062 C 727.828125 284.941406 728.25 284.429688 728.621094 283.875 C 728.992188 283.316406 729.304688 282.730469 729.5625 282.113281 C 729.816406 281.496094 730.007812 280.859375 730.140625 280.207031 C 730.269531 279.550781 730.335938 278.890625 730.335938 278.222656 C 730.335938 277.554688 730.269531 276.890625 730.140625 276.238281 C 730.007812 275.582031 729.816406 274.945312 729.5625 274.328125 C 729.304688 273.710938 728.992188 273.125 728.621094 272.570312 C 728.25 272.015625 727.828125 271.5 727.351562 271.027344 C 726.878906 270.554688 726.367188 270.132812 725.808594 269.761719 C 725.253906 269.390625 724.667969 269.078125 724.050781 268.824219 C 723.433594 268.566406 722.796875 268.375 722.140625 268.242188 C 721.484375 268.113281 720.824219 268.046875 720.152344 268.046875 Z M 628.519531 275.179688 L 628.519531 367.113281 L 506.339844 417.382812 L 506.339844 323.085938 Z M 832.152344 292.882812 L 913.605469 323.203125 L 913.605469 548.039062 L 879.9375 534.566406 L 879.917969 534.566406 L 878.964844 534.191406 L 840.285156 518.714844 L 840.207031 518.691406 L 832.152344 515.472656 Z M 720.152344 308.738281 C 719.484375 308.738281 718.824219 308.804688 718.167969 308.933594 C 717.511719 309.066406 716.875 309.257812 716.257812 309.515625 C 715.640625 309.769531 715.054688 310.082031 714.496094 310.453125 C 713.941406 310.824219 713.425781 311.246094 712.953125 311.71875 C 712.480469 312.191406 712.058594 312.707031 711.6875 313.261719 C 711.316406 313.816406 711.003906 314.402344 710.746094 315.019531 C 710.492188 315.636719 710.296875 316.273438 710.167969 316.929688 C 710.039062 317.582031 709.972656 318.246094 709.972656 318.914062 C 709.972656 319.582031 710.039062 320.242188 710.167969 320.898438 C 710.296875 321.550781 710.492188 322.1875 710.746094 322.804688 C 711.003906 323.421875 711.316406 324.007812 711.6875 324.5625 C 712.058594 325.121094 712.480469 325.632812 712.953125 326.105469 C 713.425781 326.578125 713.941406 327 714.496094 327.371094 C 715.054688 327.742188 715.640625 328.054688 716.257812 328.3125 C 716.875 328.566406 717.511719 328.757812 718.167969 328.890625 C 718.824219 329.019531 719.484375 329.085938 720.152344 329.085938 C 720.824219 329.085938 721.484375 329.019531 722.140625 328.890625 C 722.796875 328.757812 723.433594 328.566406 724.050781 328.3125 C 724.667969 328.054688 725.253906 327.742188 725.8125 327.371094 C 726.367188 327 726.878906 326.578125 727.351562 326.105469 C 727.828125 325.632812 728.25 325.121094 728.621094 324.5625 C 728.992188 324.007812 729.304688 323.421875 729.5625 322.804688 C 729.816406 322.1875 730.007812 321.550781 730.140625 320.898438 C 730.269531 320.242188 730.335938 319.582031 730.335938 318.914062 C 730.335938 318.246094 730.269531 317.582031 730.140625 316.929688 C 730.007812 316.273438 729.816406 315.636719 729.5625 315.019531 C 729.304688 314.402344 728.992188 313.816406 728.621094 313.261719 C 728.25 312.707031 727.828125 312.191406 727.351562 311.71875 C 726.878906 311.246094 726.367188 310.824219 725.808594 310.453125 C 725.253906 310.082031 724.667969 309.769531 724.050781 309.515625 C 723.433594 309.257812 722.796875 309.066406 722.140625 308.933594 C 721.484375 308.804688 720.824219 308.738281 720.152344 308.738281 Z M 720.152344 349.429688 C 719.484375 349.429688 718.824219 349.496094 718.167969 349.625 C 717.511719 349.757812 716.875 349.949219 716.257812 350.207031 C 715.640625 350.460938 715.054688 350.773438 714.496094 351.144531 C 713.941406 351.515625 713.425781 351.9375 712.953125 352.410156 C 712.480469 352.882812 712.058594 353.398438 711.6875 353.953125 C 711.316406 354.507812 711.003906 355.09375 710.746094 355.710938 C 710.492188 356.328125 710.296875 356.964844 710.167969 357.621094 C 710.039062 358.273438 709.972656 358.9375 709.972656 359.605469 C 709.972656 360.273438 710.039062 360.933594 710.167969 361.589844 C 710.296875 362.242188 710.492188 362.878906 710.746094 363.496094 C 711.003906 364.113281 711.316406 364.699219 711.6875 365.253906 C 712.058594 365.8125 712.480469 366.324219 712.953125 366.796875 C 713.425781 367.269531 713.941406 367.691406 714.496094 368.0625 C 715.054688 368.433594 715.640625 368.746094 716.257812 369.003906 C 716.875 369.257812 717.511719 369.449219 718.167969 369.582031 C 718.824219 369.710938 719.484375 369.777344 720.152344 369.777344 C 720.824219 369.777344 721.484375 369.710938 722.140625 369.582031 C 722.796875 369.449219 723.433594 369.257812 724.050781 369.003906 C 724.667969 368.746094 725.253906 368.433594 725.8125 368.0625 C 726.367188 367.691406 726.878906 367.269531 727.351562 366.796875 C 727.828125 366.324219 728.25 365.8125 728.621094 365.253906 C 728.992188 364.699219 729.304688 364.113281 729.5625 363.496094 C 729.816406 362.878906 730.007812 362.242188 730.140625 361.589844 C 730.269531 360.933594 730.335938 360.273438 730.335938 359.605469 C 730.335938 358.9375 730.269531 358.273438 730.140625 357.621094 C 730.007812 356.964844 729.816406 356.328125 729.5625 355.710938 C 729.304688 355.09375 728.992188 354.507812 728.621094 353.953125 C 728.25 353.398438 727.828125 352.882812 727.351562 352.410156 C 726.878906 351.9375 726.367188 351.515625 725.808594 351.144531 C 725.253906 350.773438 724.667969 350.460938 724.050781 350.207031 C 723.433594 349.949219 722.796875 349.757812 722.140625 349.625 C 721.484375 349.496094 720.824219 349.429688 720.152344 349.429688 Z M 720.152344 390.121094 C 719.484375 390.121094 718.824219 390.1875 718.167969 390.316406 C 717.511719 390.449219 716.875 390.640625 716.257812 390.898438 C 715.640625 391.152344 715.054688 391.464844 714.496094 391.835938 C 713.941406 392.207031 713.425781 392.628906 712.953125 393.101562 C 712.480469 393.574219 712.058594 394.089844 711.6875 394.644531 C 711.316406 395.199219 711.003906 395.785156 710.746094 396.402344 C 710.492188 397.019531 710.296875 397.65625 710.167969 398.308594 C 710.039062 398.964844 709.972656 399.628906 709.972656 400.296875 C 709.972656 400.964844 710.039062 401.625 710.167969 402.28125 C 710.296875 402.933594 710.492188 403.570312 710.746094 404.1875 C 711.003906 404.804688 711.316406 405.390625 711.6875 405.945312 C 712.058594 406.503906 712.480469 407.015625 712.953125 407.488281 C 713.425781 407.960938 713.941406 408.382812 714.496094 408.753906 C 715.054688 409.125 715.640625 409.4375 716.257812 409.695312 C 716.875 409.949219 717.511719 410.140625 718.167969 410.273438 C 718.824219 410.402344 719.484375 410.46875 720.152344 410.46875 C 720.824219 410.46875 721.484375 410.402344 722.140625 410.273438 C 722.796875 410.140625 723.433594 409.949219 724.050781 409.695312 C 724.667969 409.4375 725.253906 409.125 725.8125 408.753906 C 726.367188 408.382812 726.878906 407.960938 727.351562 407.488281 C 727.828125 407.015625 728.25 406.503906 728.621094 405.945312 C 728.992188 405.390625 729.304688 404.804688 729.5625 404.1875 C 729.816406 403.570312 730.007812 402.933594 730.140625 402.28125 C 730.269531 401.625 730.335938 400.964844 730.335938 400.296875 C 730.335938 399.628906 730.269531 398.964844 730.140625 398.308594 C 730.007812 397.65625 729.816406 397.019531 729.5625 396.402344 C 729.304688 395.785156 728.992188 395.199219 728.621094 394.644531 C 728.25 394.089844 727.828125 393.574219 727.351562 393.101562 C 726.878906 392.628906 726.367188 392.207031 725.808594 391.835938 C 725.253906 391.464844 724.667969 391.152344 724.050781 390.898438 C 723.433594 390.640625 722.796875 390.449219 722.140625 390.316406 C 721.484375 390.1875 720.824219 390.121094 720.152344 390.121094 Z M 720.152344 430.8125 C 719.484375 430.8125 718.824219 430.878906 718.167969 431.007812 C 717.511719 431.140625 716.875 431.332031 716.257812 431.589844 C 715.640625 431.84375 715.054688 432.15625 714.496094 432.527344 C 713.941406 432.898438 713.425781 433.320312 712.953125 433.792969 C 712.480469 434.265625 712.058594 434.777344 711.6875 435.335938 C 711.316406 435.890625 711.003906 436.476562 710.746094 437.09375 C 710.492188 437.710938 710.296875 438.347656 710.167969 439 C 710.039062 439.65625 709.972656 440.320312 709.972656 440.988281 C 709.972656 441.652344 710.039062 442.316406 710.167969 442.972656 C 710.296875 443.625 710.492188 444.261719 710.746094 444.878906 C 711.003906 445.496094 711.316406 446.082031 711.6875 446.636719 C 712.058594 447.195312 712.480469 447.707031 712.953125 448.179688 C 713.425781 448.652344 713.941406 449.074219 714.496094 449.445312 C 715.054688 449.816406 715.640625 450.128906 716.257812 450.386719 C 716.875 450.640625 717.511719 450.832031 718.167969 450.964844 C 718.824219 451.09375 719.484375 451.160156 720.152344 451.160156 C 720.824219 451.160156 721.484375 451.09375 722.140625 450.964844 C 722.796875 450.832031 723.433594 450.640625 724.050781 450.386719 C 724.667969 450.128906 725.253906 449.816406 725.8125 449.445312 C 726.367188 449.074219 726.878906 448.652344 727.351562 448.179688 C 727.828125 447.707031 728.25 447.195312 728.621094 446.636719 C 728.992188 446.082031 729.304688 445.496094 729.5625 444.878906 C 729.816406 444.261719 730.007812 443.625 730.140625 442.972656 C 730.269531 442.316406 730.335938 441.652344 730.335938 440.988281 C 730.335938 440.320312 730.269531 439.65625 730.140625 439 C 730.007812 438.347656 729.816406 437.710938 729.5625 437.09375 C 729.304688 436.476562 728.992188 435.890625 728.621094 435.335938 C 728.25 434.777344 727.828125 434.265625 727.351562 433.792969 C 726.878906 433.320312 726.367188 432.898438 725.808594 432.527344 C 725.253906 432.15625 724.667969 431.84375 724.050781 431.585938 C 723.433594 431.332031 722.796875 431.140625 722.140625 431.007812 C 721.484375 430.878906 720.824219 430.8125 720.152344 430.8125 Z M 719.894531 471.503906 L 716.375 472.238281 L 715.421875 472.617188 L 715.101562 472.976562 L 714.84375 472.996094 L 714.269531 473.910156 L 709.375 479.433594 L 711.207031 488.351562 L 714.128906 489.722656 L 716.375 491.117188 L 717.308594 491.492188 L 717.828125 491.453125 L 719.476562 492.226562 L 722.996094 491.492188 L 723.933594 491.117188 L 724.089844 490.9375 L 726.417969 490.738281 L 731.230469 483.007812 L 727.929688 474.503906 L 724.886719 472.617188 L 723.933594 472.238281 L 721.824219 472.417969 Z M 681.136719 487.003906 L 677.617188 487.71875 L 676.664062 488.09375 L 670.617188 494.910156 L 672.445312 503.851562 L 680.71875 507.707031 L 684.238281 506.992188 L 685.175781 506.613281 L 691.238281 499.796875 L 689.390625 490.875 Z M 762.691406 487.71875 L 753.601562 488.492188 L 748.769531 496.222656 L 752.089844 504.726562 L 755.132812 506.613281 L 756.066406 506.992188 L 765.175781 506.234375 L 769.988281 498.488281 L 766.6875 490.003906 L 763.644531 488.09375 Z M 642.359375 502.480469 L 638.859375 503.214844 L 637.90625 503.59375 L 631.859375 510.40625 L 633.6875 519.328125 L 641.960938 523.203125 L 645.460938 522.488281 L 646.417969 522.109375 L 652.480469 515.277344 L 650.632812 506.355469 Z M 801.449219 503.214844 L 792.359375 503.96875 L 787.527344 511.71875 L 790.847656 520.203125 L 793.890625 522.109375 L 794.847656 522.488281 L 803.933594 521.714844 L 808.746094 513.984375 L 805.445312 505.480469 L 802.402344 503.59375 Z M 603.601562 517.976562 L 600.101562 518.691406 L 599.148438 519.089844 L 593.101562 525.90625 L 594.929688 534.828125 L 603.203125 538.699219 L 606.703125 537.964844 L 607.660156 537.589844 L 613.703125 530.773438 L 611.875 521.851562 Z M 564.84375 533.476562 L 561.34375 534.191406 L 560.390625 534.566406 L 554.34375 541.382812 L 556.171875 550.324219 L 564.445312 554.179688 L 567.945312 553.464844 L 568.898438 553.085938 L 574.945312 546.269531 L 573.117188 537.328125 Z M 526.085938 548.953125 L 522.585938 549.6875 L 521.632812 550.066406 L 515.585938 556.882812 L 517.414062 565.800781 L 525.6875 569.675781 L 529.1875 568.960938 L 530.140625 568.5625 L 536.1875 561.75 L 534.359375 552.828125 Z M 487.328125 564.449219 L 483.808594 565.167969 L 482.875 565.542969 L 476.808594 572.378906 L 478.65625 581.300781 L 486.929688 585.175781 L 490.429688 584.4375 L 491.382812 584.0625 L 497.429688 577.246094 L 495.601562 568.324219 Z M 956.5 565.167969 L 947.390625 565.941406 L 942.578125 573.671875 L 945.882812 582.175781 L 948.921875 584.0625 L 949.878906 584.4375 L 958.964844 583.683594 L 963.796875 575.933594 L 960.476562 567.449219 L 957.433594 565.542969 Z M 448.570312 579.949219 L 445.050781 580.664062 L 444.113281 581.042969 L 438.050781 587.855469 L 439.898438 596.777344 L 448.152344 600.652344 L 451.671875 599.9375 L 452.625 599.558594 L 458.671875 592.742188 L 456.84375 583.804688 Z M 995.257812 580.664062 L 986.148438 581.417969 L 981.339844 589.167969 L 984.640625 597.652344 L 987.679688 599.558594 L 988.636719 599.9375 L 997.722656 599.160156 L 1002.554688 591.433594 L 999.234375 582.949219 L 996.191406 581.042969 Z M 995.257812 580.664062 " fill-opacity="1" fill-rule="nonzero"/></g><g clip-path="url(#clip-1)"><path fill="rgb(100%, 51.759338%, 0%)" d="M 719.96875 388.195312 C 697.535156 388.195312 679.339844 370.003906 679.339844 347.570312 C 679.339844 325.136719 697.535156 306.949219 719.96875 306.949219 C 742.410156 306.949219 760.597656 325.136719 760.597656 347.570312 C 760.597656 370.003906 742.410156 388.195312 719.96875 388.195312 Z M 719.96875 257.550781 C 667.199219 257.550781 624.421875 300.328125 624.421875 353.085938 C 624.421875 405.851562 719.96875 552.296875 719.96875 552.296875 C 719.96875 552.296875 815.515625 405.851562 815.515625 353.085938 C 815.515625 300.328125 772.734375 257.550781 719.96875 257.550781 " fill-opacity="1" fill-rule="nonzero"/></g></svg>