<?xml version="1.0" encoding="UTF-8"?>
<svg xmlns="http://www.w3.org/2000/svg" xmlns:xlink="http://www.w3.org/1999/xlink" width="1440pt" height="809.999993pt" viewBox="0 0 1440 809.999993" version="1.2">
<defs>
<clipPath id="clip1">
  <path d="M 625 106.277344 L 815.703125 106.277344 L 815.703125 417.527344 L 625 417.527344 Z M 625 106.277344 "/>
</clipPath>
<clipPath id="clip2">
  <path d="M 624 532 L 823 532 L 823 703.386719 L 624 703.386719 Z M 624 532 "/>
</clipPath>
<clipPath id="clip3">
  <path d="M 950 561 L 1149.507812 561 L 1149.507812 703.386719 L 950 703.386719 Z M 950 561 "/>
</clipPath>
<clipPath id="clip4">
  <path d="M 297.507812 561 L 497 561 L 497 703.386719 L 297.507812 703.386719 Z M 297.507812 561 "/>
</clipPath>
</defs>
<g id="surface1">
<g clip-path="url(#clip1)" clip-rule="nonzero">
<path style=" stroke:none;fill-rule:nonzero;fill:rgb(100%,51.759338%,0%);fill-opacity:1;" d="M 743.804688 212.636719 L 813.1875 212.636719 L 625.179688 417.527344 L 705.710938 259.222656 L 652.375 259.222656 L 732.296875 106.277344 L 815.121094 106.277344 L 743.804688 212.636719 "/>
</g>
<path style=" stroke:none;fill-rule:nonzero;fill:rgb(0%,24.308777%,32.159424%);fill-opacity:1;" d="M 780.304688 476.1875 C 780.304688 478.046875 780.214844 479.902344 780.03125 481.753906 C 779.851562 483.605469 779.578125 485.441406 779.214844 487.265625 C 778.851562 489.09375 778.398438 490.894531 777.859375 492.675781 C 777.320312 494.453125 776.695312 496.203125 775.980469 497.921875 C 775.269531 499.640625 774.476562 501.320312 773.597656 502.960938 C 772.722656 504.601562 771.765625 506.195312 770.734375 507.742188 C 769.699219 509.289062 768.59375 510.78125 767.414062 512.21875 C 766.234375 513.65625 764.984375 515.035156 763.667969 516.351562 C 762.355469 517.664062 760.976562 518.914062 759.539062 520.09375 C 758.101562 521.273438 756.609375 522.378906 755.0625 523.414062 C 753.515625 524.445312 751.921875 525.402344 750.28125 526.28125 C 748.640625 527.15625 746.960938 527.949219 745.242188 528.664062 C 743.523438 529.375 741.773438 530 739.996094 530.539062 C 738.214844 531.082031 736.410156 531.53125 734.585938 531.894531 C 732.761719 532.257812 730.925781 532.53125 729.074219 532.710938 C 727.222656 532.894531 725.367188 532.984375 723.507812 532.984375 C 721.644531 532.984375 719.789062 532.894531 717.9375 532.710938 C 716.085938 532.53125 714.25 532.257812 712.425781 531.894531 C 710.601562 531.53125 708.796875 531.082031 707.019531 530.539062 C 705.238281 530 703.488281 529.375 701.769531 528.664062 C 700.050781 527.949219 698.371094 527.15625 696.730469 526.28125 C 695.089844 525.402344 693.496094 524.445312 691.949219 523.414062 C 690.402344 522.378906 688.910156 521.273438 687.472656 520.09375 C 686.035156 518.914062 684.65625 517.664062 683.34375 516.351562 C 682.027344 515.035156 680.777344 513.65625 679.597656 512.21875 C 678.417969 510.78125 677.3125 509.289062 676.277344 507.742188 C 675.246094 506.195312 674.289062 504.601562 673.414062 502.960938 C 672.535156 501.320312 671.742188 499.640625 671.03125 497.921875 C 670.316406 496.203125 669.691406 494.453125 669.152344 492.675781 C 668.613281 490.894531 668.160156 489.09375 667.796875 487.265625 C 667.433594 485.441406 667.160156 483.605469 666.980469 481.753906 C 666.796875 479.902344 666.707031 478.046875 666.707031 476.1875 C 666.707031 474.324219 666.796875 472.46875 666.980469 470.617188 C 667.160156 468.769531 667.433594 466.929688 667.796875 465.105469 C 668.160156 463.28125 668.613281 461.476562 669.152344 459.699219 C 669.691406 457.917969 670.316406 456.167969 671.03125 454.449219 C 671.742188 452.730469 672.535156 451.050781 673.414062 449.410156 C 674.289062 447.769531 675.246094 446.175781 676.277344 444.628906 C 677.3125 443.082031 678.417969 441.589844 679.597656 440.152344 C 680.777344 438.714844 682.027344 437.339844 683.34375 436.023438 C 684.65625 434.707031 686.035156 433.460938 687.472656 432.277344 C 688.910156 431.097656 690.402344 429.992188 691.949219 428.957031 C 693.496094 427.925781 695.089844 426.96875 696.730469 426.09375 C 698.371094 425.214844 700.050781 424.421875 701.769531 423.710938 C 703.488281 422.996094 705.238281 422.371094 707.019531 421.832031 C 708.796875 421.292969 710.601562 420.839844 712.425781 420.476562 C 714.25 420.113281 716.085938 419.84375 717.9375 419.660156 C 719.789062 419.476562 721.644531 419.386719 723.507812 419.386719 C 725.367188 419.386719 727.222656 419.476562 729.074219 419.660156 C 730.925781 419.84375 732.761719 420.113281 734.585938 420.476562 C 736.410156 420.839844 738.214844 421.292969 739.996094 421.832031 C 741.773438 422.371094 743.523438 422.996094 745.242188 423.710938 C 746.960938 424.421875 748.640625 425.214844 750.28125 426.09375 C 751.921875 426.96875 753.515625 427.925781 755.0625 428.957031 C 756.609375 429.992188 758.101562 431.097656 759.539062 432.277344 C 760.976562 433.460938 762.355469 434.707031 763.667969 436.023438 C 764.984375 437.339844 766.234375 438.714844 767.414062 440.152344 C 768.59375 441.589844 769.699219 443.082031 770.734375 444.628906 C 771.765625 446.175781 772.722656 447.769531 773.597656 449.410156 C 774.476562 451.050781 775.269531 452.730469 775.980469 454.449219 C 776.695312 456.167969 777.320312 457.917969 777.859375 459.699219 C 778.398438 461.476562 778.851562 463.28125 779.214844 465.105469 C 779.578125 466.929688 779.851562 468.769531 780.03125 470.617188 C 780.214844 472.46875 780.304688 474.324219 780.304688 476.1875 Z M 780.304688 476.1875 "/>
<g clip-path="url(#clip2)" clip-rule="nonzero">
<path style=" stroke:none;fill-rule:nonzero;fill:rgb(0%,24.308777%,32.159424%);fill-opacity:1;" d="M 624.105469 632.386719 L 624.105469 703.386719 L 822.90625 703.386719 L 822.90625 632.386719 C 822.90625 577.488281 778.402344 532.984375 723.507812 532.984375 C 668.609375 532.984375 624.105469 577.488281 624.105469 632.386719 Z M 624.105469 632.386719 "/>
</g>
<g clip-path="url(#clip3)" clip-rule="nonzero">
<path style=" stroke:none;fill-rule:nonzero;fill:rgb(0%,24.308777%,32.159424%);fill-opacity:1;" d="M 1064.304688 603.984375 L 950.707031 603.984375 L 950.707031 660.785156 L 1064.304688 660.785156 L 1064.304688 703.386719 L 1149.507812 632.386719 L 1064.304688 561.386719 Z M 1064.304688 603.984375 "/>
</g>
<g clip-path="url(#clip4)" clip-rule="nonzero">
<path style=" stroke:none;fill-rule:nonzero;fill:rgb(0%,24.308777%,32.159424%);fill-opacity:1;" d="M 382.707031 660.785156 L 496.304688 660.785156 L 496.304688 603.984375 L 382.707031 603.984375 L 382.707031 561.386719 L 297.507812 632.386719 L 382.707031 703.386719 Z M 382.707031 660.785156 "/>
</g>
</g>
</svg>
