<?xml version="1.0" encoding="UTF-8"?>
<svg xmlns="http://www.w3.org/2000/svg" xmlns:xlink="http://www.w3.org/1999/xlink" width="1440pt" height="809.999993pt" viewBox="0 0 1440 809.999993" version="1.2">
<defs>
<clipPath id="clip1">
  <path d="M 461 108.425781 L 978 108.425781 L 978 701.675781 L 461 701.675781 Z M 461 108.425781 "/>
</clipPath>
<clipPath id="clip2">
  <path d="M 625.222656 234.972656 L 769.222656 234.972656 L 769.222656 423 L 625.222656 423 Z M 625.222656 234.972656 "/>
</clipPath>
<clipPath id="clip3">
  <path d="M 685.324219 298.179688 L 739.796875 298.179688 L 739.796875 342.046875 L 685.324219 342.046875 Z M 685.324219 298.179688 "/>
</clipPath>
<clipPath id="clip4">
  <path d="M 655.203125 267.804688 L 692 267.804688 L 692 315 L 655.203125 315 Z M 655.203125 267.804688 "/>
</clipPath>
</defs>
<g id="surface1">
<g clip-path="url(#clip1)" clip-rule="nonzero">
<path style=" stroke:none;fill-rule:nonzero;fill:rgb(0%,24.308777%,32.159424%);fill-opacity:1;" d="M 693.328125 108.683594 C 556.902344 108.683594 461.628906 192.542969 461.628906 312.613281 C 461.628906 379.296875 477.722656 447.515625 508.167969 509.878906 C 513.394531 520.613281 515.492188 532.664062 514.230469 544.714844 L 500.929688 671.210938 C 500.101562 679.03125 502.652344 686.886719 507.914062 692.734375 C 513.179688 698.585938 520.699219 701.933594 528.570312 701.933594 L 774.132812 701.933594 C 782.140625 701.933594 789.765625 698.480469 795.039062 692.464844 C 800.320312 686.4375 802.738281 678.429688 801.679688 670.484375 L 796.757812 633.152344 L 846.679688 638.710938 L 846.699219 638.710938 L 873.578125 641.699219 C 886.628906 643.15625 899.785156 638.953125 909.601562 630.167969 C 919.40625 621.378906 925.023438 608.785156 925.023438 595.621094 L 925.023438 511.507812 C 925.023438 506.773438 928.578125 502.824219 933.277344 502.292969 L 960.992188 499.214844 C 966.589844 498.59375 971.554688 495.507812 974.585938 490.761719 C 977.617188 486.023438 978.320312 480.257812 976.539062 474.921875 L 926.308594 324.199219 C 925.492188 321.734375 925.027344 319 924.953125 316.089844 C 921.984375 195.910156 824.570312 108.683594 693.328125 108.683594 Z M 693.328125 127.222656 C 814.085938 127.222656 903.710938 206.835938 906.414062 316.542969 C 906.535156 321.296875 907.316406 325.847656 908.714844 330.066406 L 958.945312 480.785156 L 931.234375 483.882812 C 917.128906 485.449219 906.488281 497.316406 906.488281 511.507812 L 906.488281 595.621094 C 906.488281 603.519531 903.105469 611.058594 897.21875 616.335938 C 891.335938 621.609375 883.523438 624.101562 875.605469 623.25 L 775.253906 612.097656 L 749.964844 609.292969 C 744.8125 608.71875 740.285156 612.394531 739.71875 617.476562 C 739.164062 622.5625 742.832031 627.15625 747.921875 627.722656 L 777.769531 631.035156 L 783.308594 672.910156 C 783.660156 675.597656 782.878906 678.203125 781.101562 680.242188 C 779.320312 682.28125 776.847656 683.394531 774.132812 683.394531 L 528.570312 683.394531 C 525.910156 683.394531 523.46875 682.308594 521.691406 680.335938 C 519.902344 678.359375 519.066406 675.808594 519.335938 673.148438 L 532.660156 546.632812 C 534.289062 531.132812 531.578125 515.609375 524.820312 501.75 C 495.617188 441.898438 480.164062 376.488281 480.164062 312.613281 C 480.164062 220.335938 546.070312 127.222656 693.328125 127.222656 Z M 693.328125 155.03125 C 688.203125 155.03125 684.058594 159.183594 684.058594 164.300781 L 684.058594 182.839844 C 684.058594 187.957031 688.203125 192.109375 693.328125 192.109375 C 698.453125 192.109375 702.59375 187.957031 702.59375 182.839844 L 702.59375 164.300781 C 702.59375 159.183594 698.453125 155.03125 693.328125 155.03125 Z M 643.042969 161.910156 C 641.847656 161.746094 640.601562 161.8125 639.367188 162.144531 C 634.425781 163.460938 631.488281 168.546875 632.8125 173.496094 L 637.609375 191.402344 C 638.714844 195.546875 642.464844 198.28125 646.554688 198.28125 C 647.351562 198.28125 648.152344 198.167969 648.960938 197.957031 C 653.898438 196.632812 656.839844 191.554688 655.511719 186.605469 L 650.714844 168.699219 C 649.722656 164.988281 646.617188 162.40625 643.042969 161.910156 Z M 743.628906 161.910156 C 740.050781 162.40625 736.949219 164.988281 735.957031 168.699219 L 731.160156 186.605469 C 729.832031 191.554688 732.773438 196.632812 737.710938 197.957031 C 738.519531 198.179688 739.320312 198.28125 740.117188 198.28125 C 744.214844 198.28125 747.957031 195.546875 749.0625 191.402344 L 753.859375 173.496094 C 755.183594 168.546875 752.246094 163.472656 747.304688 162.144531 C 746.066406 161.8125 744.824219 161.746094 743.628906 161.910156 Z M 592.558594 181.789062 C 591.363281 181.9375 590.171875 182.324219 589.0625 182.964844 C 584.625 185.535156 583.109375 191.207031 585.679688 195.640625 L 594.945312 211.679688 C 596.660156 214.65625 599.777344 216.316406 602.984375 216.316406 C 604.558594 216.316406 606.144531 215.925781 607.597656 215.082031 C 612.027344 212.523438 613.558594 206.839844 611.003906 202.410156 L 601.734375 186.371094 C 599.816406 183.039062 596.140625 181.339844 592.558594 181.789062 Z M 794.113281 181.789062 C 790.535156 181.339844 786.863281 183.039062 784.9375 186.371094 L 775.671875 202.410156 C 773.101562 206.839844 774.617188 212.523438 779.054688 215.082031 C 780.511719 215.925781 782.113281 216.316406 783.6875 216.316406 C 786.894531 216.316406 790.003906 214.65625 791.726562 211.679688 L 800.992188 195.640625 C 803.5625 191.207031 802.03125 185.523438 797.589844 182.964844 C 796.488281 182.324219 795.308594 181.9375 794.113281 181.789062 Z M 794.113281 181.789062 "/>
</g>
<g clip-path="url(#clip2)" clip-rule="nonzero">
<path style=" stroke:none;fill-rule:nonzero;fill:rgb(100%,51.759338%,0%);fill-opacity:1;" d="M 697.257812 242.625 C 661.816406 242.625 632.984375 271.503906 632.984375 307 C 632.984375 322.105469 639.191406 335.769531 645.253906 347.148438 C 647.429688 351.214844 649.78125 355.246094 652.25 359.136719 C 653.125 360.503906 654.105469 361.890625 655.148438 363.359375 C 660.230469 370.507812 666.554688 379.402344 666.941406 396.613281 L 666.941406 403.234375 C 666.941406 409.421875 671.964844 414.457031 678.144531 414.457031 L 716.375 414.457031 C 722.554688 414.457031 727.582031 409.421875 727.582031 403.234375 L 727.582031 395.679688 C 728.167969 379.089844 734.355469 370.375 739.335938 363.375 C 740.378906 361.902344 741.367188 360.511719 742.246094 359.132812 C 748.421875 349.433594 752.730469 341.394531 755.800781 333.835938 C 757.925781 328.589844 759.425781 323.691406 760.382812 318.859375 C 761.144531 315.050781 761.53125 311.0625 761.53125 307 C 761.53125 271.503906 732.695312 242.625 697.257812 242.625 Z M 716.375 422.140625 L 678.144531 422.140625 C 667.734375 422.140625 659.265625 413.660156 659.265625 403.234375 L 659.265625 396.703125 C 658.9375 381.9375 653.835938 374.753906 648.902344 367.8125 C 647.800781 366.265625 646.761719 364.804688 645.78125 363.269531 C 643.203125 359.210938 640.75 355.007812 638.488281 350.773438 C 631.976562 338.554688 625.3125 323.800781 625.3125 307 C 625.3125 267.261719 657.589844 234.9375 697.257812 234.9375 C 736.929688 234.9375 769.203125 267.261719 769.203125 307 C 769.203125 311.570312 768.765625 316.0625 767.90625 320.359375 C 766.855469 325.667969 765.21875 331.027344 762.90625 336.730469 C 759.65625 344.734375 755.144531 353.164062 748.714844 363.265625 C 747.730469 364.808594 746.6875 366.277344 745.585938 367.828125 C 740.757812 374.621094 735.765625 381.644531 735.253906 395.878906 L 735.253906 403.234375 C 735.253906 413.660156 726.785156 422.140625 716.375 422.140625 "/>
</g>
<path style=" stroke:none;fill-rule:nonzero;fill:rgb(100%,51.759338%,0%);fill-opacity:1;" d="M 672.632812 460.6875 L 687.378906 467.8125 C 692.835938 470.449219 701.683594 470.449219 707.140625 467.8125 L 721.886719 460.6875 L 672.632812 460.6875 "/>
<path style=" stroke:none;fill-rule:nonzero;fill:rgb(100%,51.759338%,0%);fill-opacity:1;" d="M 724.894531 458.164062 C 724.894531 460.28125 723.179688 462.007812 721.050781 462.007812 L 673.464844 462.007812 C 671.34375 462.007812 669.625 460.28125 669.625 458.164062 C 669.625 456.03125 671.34375 454.3125 673.464844 454.3125 L 721.050781 454.3125 C 723.179688 454.3125 724.894531 456.03125 724.894531 458.164062 "/>
<path style=" stroke:none;fill-rule:nonzero;fill:rgb(100%,51.759338%,0%);fill-opacity:1;" d="M 728.082031 447.085938 C 728.082031 449.214844 726.359375 450.933594 724.242188 450.933594 L 670.28125 450.933594 C 668.15625 450.933594 666.4375 449.214844 666.4375 447.085938 C 666.4375 444.957031 668.15625 443.238281 670.28125 443.238281 L 724.242188 443.238281 C 726.359375 443.238281 728.082031 444.957031 728.082031 447.085938 "/>
<path style=" stroke:none;fill-rule:nonzero;fill:rgb(100%,51.759338%,0%);fill-opacity:1;" d="M 728.082031 436.011719 C 728.082031 438.136719 726.359375 439.867188 724.242188 439.867188 L 670.28125 439.867188 C 668.15625 439.867188 666.4375 438.136719 666.4375 436.011719 C 666.4375 433.890625 668.15625 432.164062 670.28125 432.164062 L 724.242188 432.164062 C 726.359375 432.164062 728.082031 433.890625 728.082031 436.011719 "/>
<path style=" stroke:none;fill-rule:nonzero;fill:rgb(100%,51.759338%,0%);fill-opacity:1;" d="M 731.429688 424.941406 C 731.429688 427.066406 729.707031 428.785156 727.582031 428.785156 L 666.929688 428.785156 C 664.8125 428.785156 663.09375 427.066406 663.09375 424.941406 C 663.09375 422.820312 664.8125 421.09375 666.929688 421.09375 L 727.582031 421.09375 C 729.707031 421.09375 731.429688 422.820312 731.429688 424.941406 "/>
<g clip-path="url(#clip3)" clip-rule="nonzero">
<path style=" stroke:none;fill-rule:nonzero;fill:rgb(64.309692%,77.648926%,22.349548%);fill-opacity:1;" d="M 739.796875 301.09375 C 739.796875 301.09375 732.988281 305.621094 729.929688 319.1875 C 726.445312 334.648438 714.257812 342.933594 695.953125 341.972656 C 692.269531 341.789062 689.394531 341.339844 687.648438 341 C 700.417969 316.488281 720.800781 308.257812 722.710938 307.519531 C 698.957031 314.238281 689.027344 329.304688 685.898438 335.28125 C 686.707031 322.164062 691.542969 289.09375 739.796875 301.09375 "/>
</g>
<g clip-path="url(#clip4)" clip-rule="nonzero">
<path style=" stroke:none;fill-rule:nonzero;fill:rgb(64.309692%,77.648926%,22.349548%);fill-opacity:1;" d="M 689.085938 310.84375 C 688.285156 305.117188 684.597656 290.09375 667.328125 277.882812 C 668.65625 279.023438 682.769531 291.496094 686.019531 314.96875 C 684.507812 314.746094 682.054688 314.289062 679.019531 313.386719 C 663.9375 308.9375 656.472656 298.757812 658.121094 285.257812 C 659.5625 273.414062 655.359375 267.804688 655.359375 267.804688 C 697.855469 271.875 692.21875 300.003906 689.085938 310.84375 "/>
</g>
</g>
</svg>
