<?xml version="1.0" encoding="UTF-8"?>
<svg xmlns="http://www.w3.org/2000/svg" xmlns:xlink="http://www.w3.org/1999/xlink" width="1440pt" height="809.999993pt" viewBox="0 0 1440 809.999993" version="1.2">
<g id="surface1">
<path style=" stroke:none;fill-rule:nonzero;fill:rgb(0%,24.308777%,32.159424%);fill-opacity:1;" d="M 362.464844 671.972656 C 362.464844 666.121094 362.609375 660.273438 362.898438 654.429688 C 363.183594 648.585938 363.613281 642.75 364.1875 636.929688 C 364.761719 631.105469 365.476562 625.300781 366.335938 619.511719 C 367.195312 613.722656 368.195312 607.960938 369.335938 602.222656 C 370.476562 596.484375 371.757812 590.773438 373.179688 585.097656 C 374.601562 579.421875 376.164062 573.785156 377.863281 568.1875 C 379.558594 562.585938 381.394531 557.03125 383.367188 551.523438 C 385.335938 546.015625 387.441406 540.554688 389.683594 535.152344 C 391.921875 529.746094 394.292969 524.398438 396.792969 519.105469 C 399.296875 513.816406 401.925781 508.59375 404.683594 503.433594 C 407.441406 498.273438 410.324219 493.183594 413.332031 488.164062 C 416.339844 483.144531 419.472656 478.203125 422.722656 473.335938 C 425.972656 468.472656 429.339844 463.691406 432.828125 458.988281 C 436.3125 454.289062 439.910156 449.679688 443.621094 445.15625 C 447.335938 440.632812 451.15625 436.203125 455.085938 431.867188 C 459.015625 427.53125 463.046875 423.296875 467.1875 419.160156 C 471.324219 415.019531 475.558594 410.988281 479.894531 407.058594 C 484.230469 403.128906 488.660156 399.308594 493.183594 395.59375 C 497.707031 391.882812 502.316406 388.285156 507.015625 384.800781 C 511.71875 381.3125 516.5 377.945312 521.363281 374.695312 C 526.230469 371.445312 531.171875 368.3125 536.191406 365.304688 C 541.210938 362.296875 546.300781 359.414062 551.460938 356.65625 C 556.621094 353.898438 561.84375 351.269531 567.132812 348.765625 C 572.425781 346.265625 577.773438 343.894531 583.179688 341.65625 C 588.582031 339.414062 594.042969 337.308594 599.550781 335.339844 C 605.058594 333.367188 610.613281 331.53125 616.214844 329.835938 C 621.8125 328.136719 627.449219 326.574219 633.125 325.152344 C 638.800781 323.730469 644.507812 322.449219 650.25 321.308594 C 655.988281 320.167969 661.75 319.167969 667.539062 318.308594 C 673.328125 317.449219 679.132812 316.734375 684.957031 316.160156 C 690.777344 315.585938 696.613281 315.15625 702.457031 314.871094 C 708.300781 314.582031 714.148438 314.4375 720 314.4375 C 725.851562 314.4375 731.699219 314.582031 737.542969 314.871094 C 743.386719 315.15625 749.222656 315.585938 755.042969 316.160156 C 760.867188 316.734375 766.671875 317.449219 772.460938 318.308594 C 778.25 319.167969 784.011719 320.167969 789.75 321.308594 C 795.488281 322.449219 801.199219 323.730469 806.875 325.152344 C 812.550781 326.574219 818.1875 328.136719 823.785156 329.835938 C 829.386719 331.53125 834.941406 333.367188 840.449219 335.339844 C 845.957031 337.308594 851.417969 339.414062 856.820312 341.65625 C 862.226562 343.894531 867.574219 346.265625 872.863281 348.765625 C 878.15625 351.269531 883.378906 353.898438 888.539062 356.65625 C 893.699219 359.414062 898.789062 362.296875 903.808594 365.304688 C 908.828125 368.3125 913.769531 371.445312 918.636719 374.695312 C 923.5 377.945312 928.28125 381.3125 932.980469 384.800781 C 937.683594 388.285156 942.292969 391.882812 946.816406 395.59375 C 951.339844 399.308594 955.769531 403.128906 960.105469 407.058594 C 964.441406 410.988281 968.675781 415.019531 972.8125 419.160156 C 976.953125 423.296875 980.984375 427.53125 984.914062 431.867188 C 988.84375 436.203125 992.664062 440.632812 996.378906 445.15625 C 1000.089844 449.679688 1003.6875 454.289062 1007.171875 458.988281 C 1010.660156 463.691406 1014.027344 468.472656 1017.277344 473.335938 C 1020.527344 478.203125 1023.660156 483.144531 1026.667969 488.164062 C 1029.675781 493.183594 1032.558594 498.273438 1035.316406 503.433594 C 1038.074219 508.59375 1040.703125 513.816406 1043.207031 519.105469 C 1045.707031 524.398438 1048.078125 529.746094 1050.316406 535.152344 C 1052.558594 540.554688 1054.664062 546.015625 1056.632812 551.523438 C 1058.605469 557.03125 1060.441406 562.585938 1062.136719 568.1875 C 1063.835938 573.785156 1065.398438 579.421875 1066.820312 585.097656 C 1068.242188 590.773438 1069.523438 596.484375 1070.664062 602.222656 C 1071.804688 607.960938 1072.804688 613.722656 1073.664062 619.511719 C 1074.523438 625.300781 1075.238281 631.105469 1075.8125 636.929688 C 1076.386719 642.75 1076.816406 648.585938 1077.101562 654.429688 C 1077.390625 660.273438 1077.535156 666.121094 1077.535156 671.972656 L 948.820312 671.972656 C 948.820312 668.226562 948.730469 664.484375 948.546875 660.746094 C 948.363281 657.003906 948.085938 653.269531 947.71875 649.542969 C 947.351562 645.816406 946.894531 642.101562 946.34375 638.398438 C 945.796875 634.691406 945.15625 631.003906 944.425781 627.332031 C 943.695312 623.660156 942.875 620.007812 941.964844 616.375 C 941.054688 612.742188 940.054688 609.132812 938.96875 605.550781 C 937.882812 601.964844 936.707031 598.410156 935.445312 594.886719 C 934.183594 591.359375 932.835938 587.867188 931.402344 584.40625 C 929.96875 580.945312 928.453125 577.523438 926.851562 574.140625 C 925.25 570.753906 923.566406 567.410156 921.800781 564.105469 C 920.035156 560.804688 918.191406 557.546875 916.265625 554.335938 C 914.339844 551.121094 912.339844 547.960938 910.257812 544.847656 C 908.175781 541.734375 906.023438 538.671875 903.792969 535.664062 C 901.558594 532.65625 899.257812 529.703125 896.882812 526.808594 C 894.503906 523.914062 892.058594 521.082031 889.546875 518.304688 C 887.03125 515.53125 884.449219 512.820312 881.800781 510.171875 C 879.152344 507.523438 876.441406 504.941406 873.667969 502.425781 C 870.890625 499.914062 868.058594 497.46875 865.164062 495.089844 C 862.269531 492.714844 859.316406 490.414062 856.308594 488.179688 C 853.300781 485.949219 850.238281 483.796875 847.125 481.714844 C 844.011719 479.632812 840.851562 477.632812 837.636719 475.707031 C 834.425781 473.78125 831.167969 471.933594 827.867188 470.171875 C 824.5625 468.40625 821.21875 466.722656 817.832031 465.121094 C 814.449219 463.519531 811.027344 462.003906 807.566406 460.570312 C 804.105469 459.136719 800.613281 457.789062 797.085938 456.527344 C 793.5625 455.265625 790.007812 454.089844 786.421875 453.003906 C 782.839844 451.917969 779.230469 450.917969 775.597656 450.007812 C 771.964844 449.097656 768.3125 448.277344 764.640625 447.546875 C 760.96875 446.816406 757.28125 446.175781 753.574219 445.628906 C 749.871094 445.078125 746.15625 444.621094 742.429688 444.253906 C 738.703125 443.886719 734.96875 443.609375 731.226562 443.425781 C 727.488281 443.242188 723.746094 443.152344 720 443.152344 C 716.253906 443.152344 712.511719 443.242188 708.773438 443.425781 C 705.03125 443.609375 701.296875 443.886719 697.570312 444.253906 C 693.84375 444.621094 690.128906 445.078125 686.425781 445.628906 C 682.71875 446.175781 679.03125 446.816406 675.359375 447.546875 C 671.6875 448.277344 668.035156 449.097656 664.402344 450.007812 C 660.769531 450.917969 657.160156 451.917969 653.578125 453.003906 C 649.992188 454.089844 646.4375 455.265625 642.914062 456.527344 C 639.386719 457.789062 635.894531 459.136719 632.433594 460.570312 C 628.972656 462.003906 625.550781 463.519531 622.167969 465.121094 C 618.78125 466.722656 615.4375 468.40625 612.132812 470.171875 C 608.832031 471.933594 605.574219 473.78125 602.363281 475.707031 C 599.148438 477.632812 595.988281 479.632812 592.875 481.714844 C 589.761719 483.796875 586.699219 485.949219 583.691406 488.179688 C 580.683594 490.414062 577.730469 492.714844 574.835938 495.089844 C 571.941406 497.46875 569.109375 499.914062 566.332031 502.425781 C 563.558594 504.941406 560.847656 507.523438 558.199219 510.171875 C 555.550781 512.820312 552.96875 515.53125 550.453125 518.304688 C 547.941406 521.082031 545.496094 523.914062 543.117188 526.808594 C 540.742188 529.703125 538.441406 532.65625 536.207031 535.664062 C 533.976562 538.671875 531.824219 541.734375 529.742188 544.847656 C 527.660156 547.960938 525.660156 551.121094 523.734375 554.335938 C 521.808594 557.546875 519.960938 560.804688 518.199219 564.105469 C 516.433594 567.410156 514.75 570.753906 513.148438 574.140625 C 511.546875 577.523438 510.03125 580.945312 508.597656 584.40625 C 507.164062 587.867188 505.816406 591.359375 504.554688 594.886719 C 503.292969 598.410156 502.117188 601.964844 501.03125 605.550781 C 499.945312 609.132812 498.945312 612.742188 498.035156 616.375 C 497.125 620.007812 496.304688 623.660156 495.574219 627.332031 C 494.84375 631.003906 494.203125 634.691406 493.65625 638.398438 C 493.105469 642.101562 492.648438 645.816406 492.28125 649.542969 C 491.914062 653.269531 491.636719 657.003906 491.453125 660.746094 C 491.269531 664.484375 491.179688 668.226562 491.179688 671.972656 Z M 362.464844 671.972656 "/>
<path style=" stroke:none;fill-rule:nonzero;fill:rgb(100%,51.759338%,0%);fill-opacity:1;" d="M 738.523438 666.800781 C 737.523438 667.40625 736.492188 667.964844 735.4375 668.472656 C 734.378906 668.976562 733.300781 669.433594 732.199219 669.832031 C 731.097656 670.234375 729.980469 670.578125 728.847656 670.867188 C 727.710938 671.160156 726.566406 671.394531 725.40625 671.570312 C 724.25 671.75 723.085938 671.871094 721.914062 671.933594 C 720.746094 671.996094 719.574219 672.003906 718.40625 671.953125 C 717.234375 671.902344 716.070312 671.792969 714.910156 671.625 C 713.75 671.460938 712.601562 671.238281 711.464844 670.957031 C 710.324219 670.679688 709.203125 670.34375 708.097656 669.957031 C 706.996094 669.566406 705.910156 669.125 704.847656 668.628906 C 703.789062 668.132812 702.753906 667.585938 701.746094 666.988281 C 700.738281 666.390625 699.761719 665.746094 698.816406 665.054688 C 697.871094 664.359375 696.964844 663.621094 696.09375 662.839844 C 695.222656 662.058594 694.390625 661.234375 693.597656 660.371094 C 692.808594 659.503906 692.0625 658.605469 691.359375 657.667969 C 690.65625 656.730469 690.003906 655.757812 689.394531 654.757812 C 688.789062 653.753906 688.230469 652.726562 687.726562 651.667969 C 687.21875 650.613281 686.769531 649.53125 686.367188 648.429688 C 685.96875 647.332031 685.625 646.210938 685.332031 645.078125 C 685.042969 643.941406 684.8125 642.796875 684.632812 641.636719 C 684.457031 640.480469 684.335938 639.316406 684.273438 638.144531 C 684.210938 636.976562 684.207031 635.804688 684.257812 634.636719 C 684.3125 633.464844 684.421875 632.300781 684.585938 631.140625 C 684.753906 629.980469 684.976562 628.832031 685.257812 627.695312 C 685.539062 626.554688 685.871094 625.433594 686.261719 624.332031 C 686.652344 623.226562 687.097656 622.144531 687.59375 621.082031 C 688.089844 620.019531 688.636719 618.984375 689.234375 617.980469 C 689.832031 616.972656 690.480469 615.996094 691.171875 615.050781 C 691.867188 614.109375 692.605469 613.199219 693.386719 612.328125 C 694.171875 611.457031 694.996094 610.628906 695.859375 609.835938 C 696.726562 609.046875 697.628906 608.300781 698.566406 607.601562 C 699.503906 606.898438 700.472656 606.246094 701.476562 605.636719 L 968.289062 477.46875 C 968.691406 477.226562 969.113281 477.023438 969.554688 476.863281 C 969.996094 476.703125 970.449219 476.585938 970.914062 476.515625 C 971.375 476.445312 971.84375 476.417969 972.3125 476.441406 C 972.78125 476.460938 973.242188 476.527344 973.699219 476.640625 C 974.15625 476.75 974.597656 476.90625 975.023438 477.105469 C 975.449219 477.304688 975.847656 477.542969 976.226562 477.820312 C 976.605469 478.097656 976.953125 478.410156 977.269531 478.757812 C 977.585938 479.105469 977.867188 479.476562 978.109375 479.878906 C 978.355469 480.28125 978.554688 480.703125 978.714844 481.144531 C 978.875 481.585938 978.992188 482.039062 979.0625 482.503906 C 979.132812 482.964844 979.160156 483.433594 979.136719 483.902344 C 979.117188 484.371094 979.050781 484.832031 978.9375 485.289062 C 978.828125 485.746094 978.671875 486.1875 978.472656 486.609375 C 978.273438 487.035156 978.035156 487.4375 977.757812 487.816406 C 977.480469 488.195312 977.167969 488.542969 976.820312 488.859375 C 976.476562 489.175781 976.101562 489.457031 975.699219 489.699219 Z M 738.523438 666.800781 "/>
<path style=" stroke:none;fill-rule:nonzero;fill:rgb(100%,51.759338%,0%);fill-opacity:1;" d="M 971.886719 139.59375 C 968.171875 139.59375 964.457031 140.945312 961.753906 143.652344 L 872.136719 233.269531 C 866.542969 238.863281 866.542969 247.949219 872.136719 253.535156 L 961.753906 343.171875 C 964.457031 345.871094 968.058594 347.359375 971.886719 347.359375 C 975.714844 347.359375 979.308594 345.871094 982.019531 343.171875 L 1071.652344 253.535156 C 1077.25 247.941406 1077.25 238.855469 1071.652344 233.269531 L 982.019531 143.652344 C 979.3125 140.945312 975.601562 139.59375 971.886719 139.59375 Z M 971.886719 160.230469 L 1055.058594 243.402344 L 971.886719 326.574219 L 888.714844 243.402344 Z M 962.4375 196.148438 L 962.4375 252.851562 L 981.335938 252.851562 L 981.335938 196.148438 Z M 962.4375 271.753906 L 962.4375 290.65625 L 981.335938 290.65625 L 981.335938 271.753906 Z M 962.4375 271.753906 "/>
</g>
</svg>
