<?xml version="1.0" encoding="UTF-8"?>
<svg xmlns="http://www.w3.org/2000/svg" xmlns:xlink="http://www.w3.org/1999/xlink" width="1440pt" height="809.999993pt" viewBox="0 0 1440 809.999993" version="1.2">
<defs>
<clipPath id="clip1">
  <path d="M 494 448 L 1036.8125 448 L 1036.8125 699.773438 L 494 699.773438 Z M 494 448 "/>
</clipPath>
</defs>
<g id="surface1">
<path style=" stroke:none;fill-rule:nonzero;fill:rgb(0%,24.308777%,32.159424%);fill-opacity:1;" d="M 839.570312 536.710938 C 838.546875 528.753906 831.273438 523.109375 823.3125 524.113281 C 815.355469 525.117188 809.710938 532.390625 810.734375 540.347656 C 812.140625 551.421875 804.386719 556.28125 792.972656 557.75 C 761.042969 561.828125 708.035156 545.753906 687.136719 539.425781 C 684.707031 538.679688 682.617188 538.039062 681.570312 537.738281 C 673.875 535.507812 665.796875 539.945312 663.566406 547.644531 C 661.335938 555.359375 665.777344 563.417969 673.492188 565.667969 C 675.339844 566.210938 676.867188 566.671875 678.699219 567.234375 C 701.304688 574.085938 758.570312 591.445312 796.609375 586.585938 C 824.78125 582.96875 843.730469 569.183594 839.570312 536.710938 "/>
<g clip-path="url(#clip1)" clip-rule="nonzero">
<path style=" stroke:none;fill-rule:nonzero;fill:rgb(0%,24.308777%,32.159424%);fill-opacity:1;" d="M 953.0625 508.640625 C 938.453125 511.835938 921.996094 518.003906 905.578125 525.742188 C 886.75 534.601562 868.082031 545.453125 852.332031 556.261719 C 845.757812 560.742188 839.347656 565.425781 833.199219 570.46875 C 826.589844 575.855469 817.789062 576.335938 811.921875 569.285156 C 805.191406 561.164062 811.699219 551.539062 810.414062 542.71875 C 809.148438 535.203125 803.5625 528.070312 795.0625 521.460938 C 783.285156 512.296875 766.667969 504.601562 747.859375 498.351562 C 722.503906 489.914062 693.265625 484.148438 666.28125 480.890625 C 609.996094 474.140625 598.5625 477.074219 549.390625 491.640625 C 541.074219 494.113281 533.035156 496.585938 526.585938 498.714844 L 569.527344 643.730469 C 624.140625 630.027344 656.796875 641.742188 690.953125 654 C 725.898438 666.535156 739.824219 669.429688 777.21875 669.730469 C 806.035156 667.683594 872.285156 636.375 927.402344 601.03125 C 971.949219 572.457031 1008.28125 542.839844 1007.757812 527.730469 L 1007.757812 527.710938 L 1007.71875 527.710938 C 1007.695312 527.429688 1007.695312 527.128906 1007.695312 526.847656 L 1007.65625 526.445312 L 1007.597656 526.464844 L 1007.554688 526.101562 C 1006.632812 519.773438 1001.1875 515.089844 994.375 511.917969 C 980.652344 505.527344 967.410156 505.507812 953.0625 508.640625 Z M 1006.691406 485.472656 C 1023.53125 493.308594 1036.511719 507.675781 1036.8125 527.007812 C 1037.457031 553.910156 995.136719 592.171875 943.136719 625.527344 C 884.78125 662.960938 812.785156 696.214844 779.207031 698.765625 C 748.964844 703.308594 709.601562 691.554688 681.148438 681.347656 C 649.398438 669.953125 619.140625 659.101562 566.714844 674.675781 C 554.597656 678.273438 548.328125 674.695312 544.851562 662.921875 L 495.097656 494.917969 C 491.664062 485.835938 497.007812 478.800781 505.023438 475.585938 C 512.601562 472.511719 526.644531 468.011719 541.195312 463.710938 C 593.679688 448.179688 608.789062 444.621094 669.695312 451.957031 C 698.148438 455.371094 729.375 461.582031 756.984375 470.765625 C 778.90625 478.058594 798.558594 487.242188 812.964844 498.433594 C 824.960938 507.777344 833.621094 518.628906 837.539062 531.105469 C 854.097656 519.875 873.550781 508.640625 893.160156 499.398438 C 911.507812 490.757812 930.113281 483.824219 946.894531 480.148438 C 967.207031 475.726562 987.503906 476.53125 1006.691406 485.472656 "/>
</g>
<path style=" stroke:none;fill-rule:nonzero;fill:rgb(0%,24.308777%,32.159424%);fill-opacity:1;" d="M 504.28125 522.203125 L 476.230469 530.523438 L 509.386719 642.484375 L 537.4375 634.1875 Z M 454.769531 506.53125 C 473.175781 501.066406 491.582031 495.640625 509.96875 490.136719 C 517.925781 487.785156 525.863281 492.386719 528.132812 500.261719 L 569.183594 638.867188 C 572.257812 647.1875 567.636719 655.644531 559.21875 658.078125 L 504.683594 674.234375 C 496.464844 677.285156 487.945312 672.726562 485.511719 664.40625 C 471.75 617.871094 458.066406 571.3125 444.160156 524.835938 C 441.667969 516.398438 446.652344 508.902344 454.769531 506.53125 "/>
<path style=" stroke:none;fill-rule:nonzero;fill:rgb(0%,24.308777%,32.159424%);fill-opacity:1;" d="M 448.339844 645.339844 C 440.644531 647.589844 436.222656 655.6875 438.492188 663.402344 C 440.742188 671.117188 448.839844 675.519531 456.558594 673.25 L 498.554688 660.851562 C 498.554688 660.851562 510.351562 647.851562 508.058594 641.722656 L 475.746094 532.632812 C 473.355469 524.476562 466.402344 518.226562 457.121094 520.980469 C 443.175781 525.15625 429.191406 529.277344 415.203125 533.417969 C 407.488281 535.6875 403.085938 543.785156 405.339844 551.480469 C 407.609375 559.195312 415.707031 563.617188 423.402344 561.347656 L 451.453125 553.046875 L 476.332031 637.039062 L 448.339844 645.339844 "/>
<path style=" stroke:none;fill-rule:nonzero;fill:rgb(0%,24.308777%,32.159424%);fill-opacity:1;" d="M 903.46875 270.792969 C 903.46875 198.273438 844.695312 139.5 772.175781 139.5 C 699.675781 139.5 640.878906 198.273438 640.878906 270.792969 C 640.878906 343.3125 699.675781 402.085938 772.175781 402.085938 C 844.695312 402.085938 903.46875 343.3125 903.46875 270.792969 Z M 932.644531 270.792969 C 932.644531 359.40625 860.808594 431.261719 772.175781 431.261719 C 683.558594 431.261719 611.703125 359.40625 611.703125 270.792969 C 611.703125 182.160156 683.558594 110.324219 772.175781 110.324219 C 860.808594 110.324219 932.644531 182.160156 932.644531 270.792969 "/>
<path style=" stroke:none;fill-rule:nonzero;fill:rgb(0%,24.308777%,32.159424%);fill-opacity:1;" d="M 801.351562 372.910156 C 809.410156 372.910156 815.941406 366.378906 815.941406 358.320312 C 815.941406 350.261719 809.410156 343.734375 801.351562 343.734375 C 781.21875 343.734375 762.972656 335.574219 749.789062 322.371094 C 736.589844 309.171875 728.410156 290.925781 728.410156 270.792969 C 728.410156 250.660156 736.589844 232.414062 749.789062 219.210938 C 762.972656 206.011719 781.21875 197.851562 801.351562 197.851562 C 809.410156 197.851562 815.941406 191.324219 815.941406 183.265625 C 815.941406 175.207031 809.410156 168.675781 801.351562 168.675781 C 773.160156 168.675781 747.621094 180.109375 729.152344 198.574219 C 710.667969 217.0625 699.234375 242.601562 699.234375 270.792969 C 699.234375 298.984375 710.667969 324.523438 729.152344 342.988281 C 747.640625 361.476562 773.160156 372.910156 801.351562 372.910156 "/>
<path style=" stroke:none;fill-rule:nonzero;fill:rgb(0%,24.308777%,32.159424%);fill-opacity:1;" d="M 684.644531 227.027344 C 676.585938 227.027344 670.058594 233.558594 670.058594 241.617188 C 670.058594 249.675781 676.585938 256.203125 684.644531 256.203125 L 786.761719 256.203125 C 794.820312 256.203125 801.351562 249.675781 801.351562 241.617188 C 801.351562 233.558594 794.820312 227.027344 786.761719 227.027344 L 684.644531 227.027344 "/>
<path style=" stroke:none;fill-rule:nonzero;fill:rgb(0%,24.308777%,32.159424%);fill-opacity:1;" d="M 684.644531 285.378906 C 676.585938 285.378906 670.058594 291.910156 670.058594 299.96875 C 670.058594 308.027344 676.585938 314.554688 684.644531 314.554688 L 786.761719 314.554688 C 794.820312 314.554688 801.351562 308.027344 801.351562 299.96875 C 801.351562 291.910156 794.820312 285.378906 786.761719 285.378906 L 684.644531 285.378906 "/>
<path style=" stroke:none;fill-rule:nonzero;fill:rgb(100%,51.759338%,0%);fill-opacity:1;" d="M 904.007812 270.792969 C 904.007812 198.273438 845.230469 139.5 772.710938 139.5 C 700.214844 139.5 641.417969 198.273438 641.417969 270.792969 C 641.417969 343.3125 700.214844 402.085938 772.710938 402.085938 C 845.230469 402.085938 904.007812 343.3125 904.007812 270.792969 Z M 933.183594 270.792969 C 933.183594 359.40625 861.347656 431.261719 772.710938 431.261719 C 684.097656 431.261719 612.242188 359.40625 612.242188 270.792969 C 612.242188 182.160156 684.097656 110.324219 772.710938 110.324219 C 861.347656 110.324219 933.183594 182.160156 933.183594 270.792969 "/>
<path style=" stroke:none;fill-rule:nonzero;fill:rgb(100%,51.759338%,0%);fill-opacity:1;" d="M 801.890625 372.910156 C 809.945312 372.910156 816.476562 366.378906 816.476562 358.320312 C 816.476562 350.261719 809.945312 343.734375 801.890625 343.734375 C 781.753906 343.734375 763.507812 335.574219 750.328125 322.371094 C 737.125 309.171875 728.949219 290.925781 728.949219 270.792969 C 728.949219 250.660156 737.125 232.414062 750.328125 219.210938 C 763.507812 206.011719 781.753906 197.851562 801.890625 197.851562 C 809.945312 197.851562 816.476562 191.324219 816.476562 183.265625 C 816.476562 175.207031 809.945312 168.675781 801.890625 168.675781 C 773.699219 168.675781 748.15625 180.109375 729.691406 198.574219 C 711.203125 217.0625 699.769531 242.601562 699.769531 270.792969 C 699.769531 298.984375 711.203125 324.523438 729.691406 342.988281 C 748.179688 361.476562 773.699219 372.910156 801.890625 372.910156 "/>
<path style=" stroke:none;fill-rule:nonzero;fill:rgb(100%,51.759338%,0%);fill-opacity:1;" d="M 685.183594 227.027344 C 677.125 227.027344 670.59375 233.558594 670.59375 241.617188 C 670.59375 249.675781 677.125 256.203125 685.183594 256.203125 L 787.300781 256.203125 C 795.359375 256.203125 801.890625 249.675781 801.890625 241.617188 C 801.890625 233.558594 795.359375 227.027344 787.300781 227.027344 L 685.183594 227.027344 "/>
<path style=" stroke:none;fill-rule:nonzero;fill:rgb(100%,51.759338%,0%);fill-opacity:1;" d="M 685.183594 285.378906 C 677.125 285.378906 670.59375 291.910156 670.59375 299.96875 C 670.59375 308.027344 677.125 314.554688 685.183594 314.554688 L 787.300781 314.554688 C 795.359375 314.554688 801.890625 308.027344 801.890625 299.96875 C 801.890625 291.910156 795.359375 285.378906 787.300781 285.378906 L 685.183594 285.378906 "/>
</g>
</svg>
