<?xml version="1.0" encoding="UTF-8"?>
<svg xmlns="http://www.w3.org/2000/svg" xmlns:xlink="http://www.w3.org/1999/xlink" width="1440pt" height="809.999993pt" viewBox="0 0 1440 809.999993" version="1.2">
<defs>
<clipPath id="clip1">
  <path d="M 535 111.390625 L 894 111.390625 L 894 697.925781 L 535 697.925781 Z M 535 111.390625 "/>
</clipPath>
</defs>
<g id="surface1">
<g clip-path="url(#clip1)" clip-rule="nonzero">
<path style=" stroke:none;fill-rule:nonzero;fill:rgb(100%,51.759338%,0%);fill-opacity:1;" d="M 755.519531 454.519531 L 829.886719 525.261719 L 755.519531 596.070312 Z M 755.519531 213.3125 L 829.886719 284.054688 L 755.519531 354.863281 Z M 711.84375 111.390625 L 711.84375 356.101562 L 563.246094 232.886719 L 535.363281 266.539062 L 702.023438 404.65625 L 535.363281 542.773438 L 563.246094 576.429688 L 711.84375 453.214844 L 711.84375 697.925781 L 893.199219 525.261719 L 766.503906 404.65625 L 893.199219 284.054688 L 711.84375 111.390625 "/>
</g>
<path style=" stroke:none;fill-rule:nonzero;fill:rgb(100%,51.759338%,0%);fill-opacity:1;" d="M 909.609375 404.65625 C 909.609375 394.90625 901.714844 386.9375 891.894531 386.9375 C 882.144531 386.9375 874.246094 394.90625 874.246094 404.65625 C 874.246094 414.480469 882.144531 422.375 891.894531 422.375 C 901.714844 422.375 909.609375 414.480469 909.609375 404.65625 "/>
<path style=" stroke:none;fill-rule:nonzero;fill:rgb(100%,51.759338%,0%);fill-opacity:1;" d="M 565.648438 404.65625 C 565.648438 394.90625 557.75 386.9375 548 386.9375 C 538.179688 386.9375 530.285156 394.90625 530.285156 404.65625 C 530.285156 414.480469 538.179688 422.375 547.929688 422.375 C 557.75 422.375 565.648438 414.480469 565.648438 404.65625 "/>
<path style=" stroke:none;fill-rule:nonzero;fill:rgb(100%,51.759338%,0%);fill-opacity:1;" d="M 386.148438 545.933594 C 391.160156 551.566406 399.742188 552.113281 405.375 547.101562 C 411.003906 542.226562 411.554688 533.640625 406.679688 528.007812 C 345.015625 457.335938 345.015625 351.980469 406.679688 281.375 C 411.625 275.675781 411.074219 267.089844 405.375 262.144531 C 399.742188 257.199219 391.089844 257.75 386.148438 263.449219 C 315.554688 344.355469 315.554688 464.960938 386.148438 545.933594 "/>
<path style=" stroke:none;fill-rule:nonzero;fill:rgb(100%,51.759338%,0%);fill-opacity:1;" d="M 428.171875 489.273438 C 432.566406 495.382812 441.015625 496.894531 447.195312 492.570312 C 453.304688 488.171875 454.816406 479.65625 450.421875 473.542969 C 421.304688 432.265625 421.304688 377.117188 450.421875 335.769531 C 454.816406 329.65625 453.304688 321.140625 447.195312 316.8125 C 441.015625 312.488281 432.566406 313.929688 428.171875 320.042969 C 392.394531 370.796875 392.394531 438.585938 428.171875 489.273438 "/>
<path style=" stroke:none;fill-rule:nonzero;fill:rgb(100%,51.759338%,0%);fill-opacity:1;" d="M 479.332031 442.707031 C 482.96875 449.300781 491.210938 451.703125 497.804688 447.996094 C 504.394531 444.355469 506.796875 436.113281 503.160156 429.519531 C 494.574219 414.066406 494.574219 395.316406 503.160156 379.863281 C 506.796875 373.269531 504.394531 364.960938 497.804688 361.320312 C 491.210938 357.679688 482.96875 360.015625 479.332031 366.609375 C 466.214844 390.304688 466.214844 419.011719 479.332031 442.707031 "/>
<path style=" stroke:none;fill-rule:nonzero;fill:rgb(100%,51.759338%,0%);fill-opacity:1;" d="M 1053.746094 545.933594 C 1124.339844 464.960938 1124.339844 344.355469 1053.746094 263.449219 C 1048.804688 257.75 1040.21875 257.199219 1034.519531 262.144531 C 1028.820312 267.089844 1028.269531 275.675781 1033.214844 281.375 C 1094.878906 351.980469 1094.878906 457.335938 1033.214844 528.007812 C 1028.269531 533.640625 1028.890625 542.292969 1034.589844 547.238281 C 1040.21875 552.113281 1048.804688 551.496094 1053.746094 545.933594 "/>
<path style=" stroke:none;fill-rule:nonzero;fill:rgb(100%,51.759338%,0%);fill-opacity:1;" d="M 1011.652344 320.042969 C 1007.328125 313.929688 998.8125 312.488281 992.699219 316.8125 C 986.519531 321.140625 985.078125 329.65625 989.472656 335.769531 C 1018.589844 377.117188 1018.589844 432.265625 989.472656 473.542969 C 985.078125 479.726562 986.519531 488.171875 992.699219 492.570312 C 998.8125 496.894531 1007.328125 495.453125 1011.652344 489.273438 C 1047.5 438.585938 1047.5 370.796875 1011.652344 320.042969 "/>
<path style=" stroke:none;fill-rule:nonzero;fill:rgb(100%,51.759338%,0%);fill-opacity:1;" d="M 960.632812 366.609375 C 956.925781 360.015625 948.683594 357.679688 942.089844 361.320312 C 935.5 364.960938 933.097656 373.269531 936.734375 379.863281 C 945.320312 395.316406 945.320312 414.066406 936.734375 429.519531 C 933.097656 436.113281 935.5 444.355469 942.089844 447.996094 C 948.683594 451.703125 956.925781 449.300781 960.632812 442.707031 C 973.679688 419.011719 973.679688 390.304688 960.632812 366.609375 "/>
<path style=" stroke:none;fill-rule:nonzero;fill:rgb(0%,24.308777%,32.159424%);fill-opacity:1;" d="M 386.148438 545.46875 C 391.160156 551.101562 399.742188 551.652344 405.375 546.636719 C 411.003906 541.761719 411.554688 533.175781 406.679688 527.542969 C 345.015625 456.871094 345.015625 351.515625 406.679688 280.910156 C 411.625 275.210938 411.074219 266.625 405.375 261.679688 C 399.742188 256.734375 391.089844 257.285156 386.148438 262.984375 C 315.554688 343.890625 315.554688 464.496094 386.148438 545.46875 "/>
<path style=" stroke:none;fill-rule:nonzero;fill:rgb(0%,24.308777%,32.159424%);fill-opacity:1;" d="M 428.171875 488.808594 C 432.566406 494.921875 441.015625 496.429688 447.195312 492.105469 C 453.304688 487.710938 454.816406 479.191406 450.421875 473.082031 C 421.304688 431.804688 421.304688 376.652344 450.421875 335.304688 C 454.816406 329.195312 453.304688 320.675781 447.195312 316.351562 C 441.015625 312.023438 432.566406 313.464844 428.171875 319.578125 C 392.394531 370.332031 392.394531 438.121094 428.171875 488.808594 "/>
<path style=" stroke:none;fill-rule:nonzero;fill:rgb(0%,24.308777%,32.159424%);fill-opacity:1;" d="M 479.332031 442.242188 C 482.96875 448.835938 491.210938 451.238281 497.804688 447.53125 C 504.394531 443.890625 506.796875 435.648438 503.160156 429.054688 C 494.574219 413.601562 494.574219 394.851562 503.160156 379.398438 C 506.796875 372.804688 504.394531 364.496094 497.804688 360.855469 C 491.210938 357.214844 482.96875 359.550781 479.332031 366.144531 C 466.214844 389.839844 466.214844 418.546875 479.332031 442.242188 "/>
<path style=" stroke:none;fill-rule:nonzero;fill:rgb(0%,24.308777%,32.159424%);fill-opacity:1;" d="M 1053.746094 547.824219 C 1124.339844 466.847656 1124.339844 346.246094 1053.746094 265.339844 C 1048.804688 259.636719 1040.21875 259.089844 1034.519531 264.035156 C 1028.820312 268.976562 1028.269531 277.5625 1033.214844 283.265625 C 1094.878906 353.867188 1094.878906 459.226562 1033.214844 529.898438 C 1028.269531 535.53125 1028.890625 544.183594 1034.589844 549.128906 C 1040.21875 554.003906 1048.804688 553.386719 1053.746094 547.824219 "/>
<path style=" stroke:none;fill-rule:nonzero;fill:rgb(0%,24.308777%,32.159424%);fill-opacity:1;" d="M 1011.652344 321.929688 C 1007.328125 315.820312 998.8125 314.375 992.699219 318.703125 C 986.519531 323.03125 985.078125 331.546875 989.472656 337.660156 C 1018.589844 379.003906 1018.589844 434.15625 989.472656 475.433594 C 985.078125 481.613281 986.519531 490.0625 992.699219 494.457031 C 998.8125 498.785156 1007.328125 497.34375 1011.652344 491.160156 C 1047.5 440.476562 1047.5 372.6875 1011.652344 321.929688 "/>
<path style=" stroke:none;fill-rule:nonzero;fill:rgb(0%,24.308777%,32.159424%);fill-opacity:1;" d="M 960.632812 368.496094 C 956.925781 361.902344 948.683594 359.570312 942.089844 363.207031 C 935.5 366.847656 933.097656 375.160156 936.734375 381.753906 C 945.320312 397.207031 945.320312 415.957031 936.734375 431.410156 C 933.097656 438.003906 935.5 446.242188 942.089844 449.882812 C 948.683594 453.59375 956.925781 451.1875 960.632812 444.597656 C 973.679688 420.902344 973.679688 392.191406 960.632812 368.496094 "/>
</g>
</svg>
