<?xml version="1.0" encoding="UTF-8"?>
<svg xmlns="http://www.w3.org/2000/svg" xmlns:xlink="http://www.w3.org/1999/xlink" width="1440pt" height="809.999993pt" viewBox="0 0 1440 809.999993" version="1.2">
<defs>
<clipPath id="clip1">
  <path d="M 429 111.007812 L 1011 111.007812 L 1011 692 L 429 692 Z M 429 111.007812 "/>
</clipPath>
<clipPath id="clip2">
  <path d="M 713.148438 112.929688 L 1010 112.929688 L 1010 403.929688 L 713.148438 403.929688 Z M 713.148438 112.929688 "/>
</clipPath>
</defs>
<g id="surface1">
<path style=" stroke:none;fill-rule:nonzero;fill:rgb(100%,100%,100%);fill-opacity:1;" d="M 711.609375 332.054688 C 710.363281 332.054688 709.121094 332.085938 707.875 332.144531 C 706.628906 332.207031 705.386719 332.300781 704.148438 332.421875 C 702.90625 332.542969 701.671875 332.695312 700.4375 332.878906 C 699.207031 333.0625 697.976562 333.273438 696.753906 333.519531 C 695.535156 333.761719 694.316406 334.035156 693.109375 334.335938 C 691.898438 334.640625 690.699219 334.972656 689.507812 335.332031 C 688.3125 335.695312 687.132812 336.085938 685.957031 336.507812 C 684.785156 336.925781 683.621094 337.375 682.472656 337.851562 C 681.320312 338.328125 680.179688 338.832031 679.054688 339.367188 C 677.925781 339.898438 676.816406 340.457031 675.714844 341.046875 C 674.617188 341.632812 673.53125 342.246094 672.464844 342.886719 C 671.394531 343.527344 670.34375 344.195312 669.304688 344.886719 C 668.269531 345.582031 667.25 346.296875 666.25 347.039062 C 665.25 347.78125 664.265625 348.546875 663.304688 349.339844 C 662.339844 350.128906 661.398438 350.945312 660.472656 351.78125 C 659.550781 352.617188 658.648438 353.476562 657.765625 354.359375 C 656.886719 355.238281 656.027344 356.140625 655.191406 357.066406 C 654.351562 357.988281 653.539062 358.929688 652.75 359.894531 C 651.957031 360.859375 651.191406 361.839844 650.449219 362.839844 C 649.707031 363.84375 648.988281 364.859375 648.296875 365.898438 C 647.605469 366.933594 646.9375 367.984375 646.296875 369.054688 C 645.65625 370.125 645.042969 371.207031 644.457031 372.304688 C 643.867188 373.40625 643.308594 374.519531 642.773438 375.644531 C 642.242188 376.769531 641.738281 377.910156 641.261719 379.0625 C 640.785156 380.210938 640.335938 381.375 639.914062 382.546875 C 639.496094 383.722656 639.105469 384.90625 638.742188 386.097656 C 638.382812 387.289062 638.050781 388.492188 637.746094 389.699219 C 637.441406 390.910156 637.171875 392.125 636.925781 393.347656 C 636.683594 394.570312 636.472656 395.796875 636.289062 397.027344 C 636.105469 398.261719 635.953125 399.496094 635.832031 400.738281 C 635.707031 401.976562 635.617188 403.21875 635.554688 404.464844 C 635.496094 405.710938 635.464844 406.957031 635.464844 408.203125 C 635.464844 409.449219 635.496094 410.691406 635.554688 411.9375 C 635.617188 413.183594 635.707031 414.425781 635.832031 415.664062 C 635.953125 416.90625 636.105469 418.140625 636.289062 419.375 C 636.472656 420.609375 636.683594 421.835938 636.925781 423.058594 C 637.171875 424.28125 637.441406 425.496094 637.746094 426.703125 C 638.050781 427.914062 638.382812 429.113281 638.742188 430.304688 C 639.105469 431.5 639.496094 432.679688 639.914062 433.855469 C 640.335938 435.027344 640.785156 436.191406 641.261719 437.34375 C 641.738281 438.492188 642.242188 439.632812 642.773438 440.757812 C 643.308594 441.886719 643.867188 443 644.457031 444.097656 C 645.042969 445.195312 645.65625 446.28125 646.296875 447.347656 C 646.9375 448.417969 647.605469 449.46875 648.296875 450.507812 C 648.988281 451.542969 649.707031 452.5625 650.449219 453.5625 C 651.191406 454.5625 651.957031 455.546875 652.75 456.507812 C 653.539062 457.472656 654.351562 458.414062 655.191406 459.339844 C 656.027344 460.261719 656.886719 461.164062 657.765625 462.046875 C 658.648438 462.925781 659.550781 463.785156 660.472656 464.621094 C 661.398438 465.460938 662.339844 466.273438 663.304688 467.0625 C 664.265625 467.855469 665.25 468.621094 666.25 469.363281 C 667.25 470.105469 668.269531 470.824219 669.304688 471.515625 C 670.34375 472.207031 671.394531 472.875 672.464844 473.515625 C 673.53125 474.15625 674.617188 474.769531 675.714844 475.355469 C 676.816406 475.945312 677.925781 476.503906 679.054688 477.039062 C 680.179688 477.570312 681.320312 478.074219 682.472656 478.550781 C 683.621094 479.027344 684.785156 479.476562 685.957031 479.898438 C 687.132812 480.316406 688.3125 480.707031 689.507812 481.070312 C 690.699219 481.429688 691.898438 481.765625 693.109375 482.066406 C 694.316406 482.371094 695.535156 482.640625 696.753906 482.886719 C 697.976562 483.128906 699.207031 483.339844 700.4375 483.523438 C 701.671875 483.707031 702.90625 483.859375 704.148438 483.980469 C 705.386719 484.105469 706.628906 484.195312 707.875 484.257812 C 709.121094 484.316406 710.363281 484.347656 711.609375 484.347656 C 712.855469 484.347656 714.101562 484.316406 715.347656 484.257812 C 716.59375 484.195312 717.835938 484.105469 719.074219 483.980469 C 720.316406 483.859375 721.550781 483.707031 722.785156 483.523438 C 724.015625 483.339844 725.246094 483.128906 726.464844 482.886719 C 727.6875 482.640625 728.90625 482.371094 730.113281 482.066406 C 731.320312 481.765625 732.523438 481.429688 733.714844 481.070312 C 734.90625 480.707031 736.089844 480.316406 737.265625 479.898438 C 738.4375 479.476562 739.601562 479.027344 740.75 478.550781 C 741.902344 478.074219 743.042969 477.570312 744.167969 477.039062 C 745.292969 476.503906 746.40625 475.945312 747.507812 475.355469 C 748.605469 474.769531 749.691406 474.15625 750.757812 473.515625 C 751.828125 472.875 752.878906 472.207031 753.917969 471.515625 C 754.953125 470.824219 755.972656 470.105469 756.972656 469.363281 C 757.972656 468.621094 758.953125 467.855469 759.917969 467.0625 C 760.882812 466.273438 761.824219 465.460938 762.75 464.621094 C 763.671875 463.785156 764.574219 462.925781 765.457031 462.046875 C 766.335938 461.164062 767.195312 460.261719 768.03125 459.339844 C 768.871094 458.414062 769.683594 457.472656 770.472656 456.507812 C 771.265625 455.546875 772.03125 454.5625 772.773438 453.5625 C 773.515625 452.5625 774.234375 451.542969 774.925781 450.507812 C 775.617188 449.46875 776.285156 448.417969 776.925781 447.347656 C 777.566406 446.28125 778.179688 445.195312 778.765625 444.097656 C 779.355469 443 779.914062 441.886719 780.445312 440.757812 C 780.980469 439.632812 781.484375 438.492188 781.960938 437.34375 C 782.4375 436.191406 782.886719 435.027344 783.308594 433.855469 C 783.726562 432.679688 784.117188 431.5 784.480469 430.304688 C 784.839844 429.113281 785.171875 427.914062 785.476562 426.703125 C 785.777344 425.496094 786.050781 424.28125 786.296875 423.058594 C 786.539062 421.835938 786.75 420.609375 786.933594 419.375 C 787.117188 418.140625 787.269531 416.90625 787.390625 415.664062 C 787.511719 414.425781 787.605469 413.183594 787.667969 411.9375 C 787.726562 410.691406 787.757812 409.449219 787.757812 408.203125 C 787.757812 406.957031 787.726562 405.710938 787.667969 404.464844 C 787.605469 403.21875 787.511719 401.976562 787.390625 400.738281 C 787.269531 399.496094 787.117188 398.261719 786.933594 397.027344 C 786.75 395.796875 786.539062 394.570312 786.296875 393.347656 C 786.050781 392.125 785.777344 390.910156 785.476562 389.699219 C 785.171875 388.492188 784.839844 387.289062 784.480469 386.097656 C 784.117188 384.90625 783.726562 383.722656 783.308594 382.546875 C 782.886719 381.375 782.4375 380.210938 781.960938 379.0625 C 781.484375 377.910156 780.980469 376.769531 780.445312 375.644531 C 779.914062 374.519531 779.355469 373.40625 778.765625 372.304688 C 778.179688 371.207031 777.566406 370.125 776.925781 369.054688 C 776.285156 367.984375 775.617188 366.933594 774.925781 365.898438 C 774.234375 364.859375 773.515625 363.84375 772.773438 362.839844 C 772.03125 361.839844 771.265625 360.859375 770.472656 359.894531 C 769.683594 358.929688 768.871094 357.988281 768.03125 357.066406 C 767.195312 356.140625 766.335938 355.238281 765.457031 354.359375 C 764.574219 353.476562 763.671875 352.617188 762.75 351.78125 C 761.824219 350.945312 760.882812 350.128906 759.917969 349.339844 C 758.953125 348.546875 757.972656 347.78125 756.972656 347.039062 C 755.972656 346.296875 754.953125 345.582031 753.917969 344.886719 C 752.878906 344.195312 751.828125 343.527344 750.757812 342.886719 C 749.691406 342.246094 748.605469 341.632812 747.507812 341.046875 C 746.40625 340.457031 745.292969 339.898438 744.167969 339.367188 C 743.042969 338.832031 741.902344 338.328125 740.75 337.851562 C 739.601562 337.375 738.4375 336.925781 737.265625 336.507812 C 736.089844 336.085938 734.90625 335.695312 733.714844 335.332031 C 732.523438 334.972656 731.320312 334.640625 730.113281 334.335938 C 728.90625 334.035156 727.6875 333.761719 726.464844 333.519531 C 725.246094 333.273438 724.015625 333.0625 722.785156 332.878906 C 721.550781 332.695312 720.316406 332.542969 719.074219 332.421875 C 717.835938 332.300781 716.59375 332.207031 715.347656 332.144531 C 714.101562 332.085938 712.855469 332.054688 711.609375 332.054688 Z M 711.609375 332.054688 "/>
<g clip-path="url(#clip1)" clip-rule="nonzero">
<path style=" stroke:none;fill-rule:nonzero;fill:rgb(0%,24.308777%,32.159424%);fill-opacity:1;" d="M 719.8125 111.007812 C 559.6875 111.007812 429.417969 241.257812 429.417969 401.359375 C 429.417969 561.460938 559.6875 691.714844 719.8125 691.714844 C 879.933594 691.714844 1010.207031 561.460938 1010.207031 401.359375 C 1010.207031 241.257812 879.933594 111.007812 719.8125 111.007812 Z M 867.28125 244.339844 C 830.183594 207.832031 782.542969 184.597656 723.335938 182.339844 L 723.335938 123.007812 C 799.460938 124.53125 861.855469 153.71875 910.589844 200.433594 Z M 723.335938 265.222656 C 758.578125 266.648438 786.546875 279.933594 809.460938 300.945312 L 723.335938 387.054688 Z M 710.648438 397.835938 L 583.65625 397.835938 C 586.6875 327.363281 645.804688 268.253906 710.648438 265.222656 Z M 710.648438 410.523438 L 710.648438 537.5 C 645.804688 534.464844 586.6875 475.359375 583.65625 410.523438 Z M 723.335938 410.523438 L 855.96875 410.523438 C 852.9375 475.359375 793.820312 534.464844 723.335938 537.5 Z M 819.035156 292.570312 C 793.96875 269.417969 764.214844 254.8125 723.335938 253.371094 L 723.335938 194.191406 C 775.492188 196.4375 823.355469 218.351562 858.300781 252.710938 Z M 710.648438 253.371094 C 640.164062 256.417969 574.847656 321.726562 571.800781 397.835938 L 512.460938 397.835938 C 514.042969 286.488281 604.921875 195.621094 710.648438 194.042969 Z M 571.800781 410.523438 C 574.847656 480.996094 640.164062 546.300781 710.648438 549.347656 L 710.648438 602.757812 C 604.921875 601.199219 517.246094 516.234375 512.613281 410.523438 Z M 723.335938 549.347656 C 799.457031 546.300781 864.773438 480.996094 867.820312 410.523438 L 921.082031 410.523438 C 916.535156 510.59375 829.0625 598.058594 723.335938 602.605469 Z M 710.648438 123.007812 L 710.648438 182.1875 C 597.875 183.773438 502.195312 279.441406 500.609375 397.835938 L 441.421875 397.835938 C 444.554688 244.203125 562.632812 126.140625 710.648438 123.007812 Z M 441.421875 410.523438 L 500.761719 410.523438 C 505.40625 523.28125 597.875 613.050781 710.648438 614.605469 L 710.648438 679.710938 C 562.632812 676.578125 444.554688 558.519531 441.421875 410.523438 Z M 723.335938 679.710938 L 723.335938 614.453125 C 834.699219 609.890625 928.371094 516.230469 932.9375 410.519531 L 998.203125 410.519531 C 995.066406 558.519531 876.992188 676.578125 723.335938 679.710938 Z M 723.335938 679.710938 "/>
</g>
<g clip-path="url(#clip2)" clip-rule="nonzero">
<path style=" stroke:none;fill-rule:nonzero;fill:rgb(100%,51.759338%,0%);fill-opacity:1;" d="M 719.058594 111.007812 C 558.9375 111.007812 428.667969 241.257812 428.667969 401.359375 C 428.667969 561.460938 558.9375 691.714844 719.058594 691.714844 C 879.183594 691.714844 1009.453125 561.460938 1009.453125 401.359375 C 1009.453125 241.257812 879.183594 111.007812 719.058594 111.007812 Z M 866.53125 244.339844 C 829.433594 207.832031 781.792969 184.597656 722.585938 182.339844 L 722.585938 123.007812 C 798.707031 124.53125 861.105469 153.71875 909.839844 200.433594 Z M 722.585938 265.222656 C 757.828125 266.648438 785.796875 279.933594 808.710938 300.945312 L 722.585938 387.054688 Z M 709.898438 397.835938 L 582.902344 397.835938 C 585.9375 327.363281 645.050781 268.253906 709.898438 265.222656 Z M 709.898438 410.523438 L 709.898438 537.5 C 645.050781 534.464844 585.9375 475.359375 582.902344 410.523438 Z M 722.585938 410.523438 L 855.21875 410.523438 C 852.183594 475.359375 793.070312 534.464844 722.585938 537.5 Z M 818.285156 292.570312 C 793.21875 269.417969 763.464844 254.8125 722.585938 253.371094 L 722.585938 194.191406 C 774.742188 196.4375 822.601562 218.351562 857.550781 252.710938 Z M 709.898438 253.371094 C 639.414062 256.417969 574.097656 321.726562 571.050781 397.835938 L 511.710938 397.835938 C 513.292969 286.488281 604.171875 195.621094 709.898438 194.042969 Z M 571.050781 410.523438 C 574.097656 480.996094 639.414062 546.300781 709.898438 549.347656 L 709.898438 602.757812 C 604.171875 601.199219 516.496094 516.234375 511.863281 410.523438 Z M 722.585938 549.347656 C 798.707031 546.300781 864.019531 480.996094 867.070312 410.523438 L 920.332031 410.523438 C 915.78125 510.59375 828.3125 598.058594 722.585938 602.605469 Z M 709.898438 123.007812 L 709.898438 182.1875 C 597.125 183.773438 501.445312 279.441406 499.859375 397.835938 L 440.671875 397.835938 C 443.804688 244.203125 561.882812 126.140625 709.898438 123.007812 Z M 440.671875 410.523438 L 500.011719 410.523438 C 504.65625 523.28125 597.125 613.050781 709.898438 614.605469 L 709.898438 679.710938 C 561.882812 676.578125 443.804688 558.519531 440.671875 410.523438 Z M 722.585938 679.710938 L 722.585938 614.453125 C 833.949219 609.890625 927.617188 516.230469 932.1875 410.519531 L 997.453125 410.519531 C 994.316406 558.519531 876.238281 676.578125 722.585938 679.710938 Z M 722.585938 679.710938 "/>
</g>
</g>
</svg>
