<?xml version="1.0" encoding="UTF-8"?>
<svg xmlns="http://www.w3.org/2000/svg" xmlns:xlink="http://www.w3.org/1999/xlink" width="1440pt" height="809.999993pt" viewBox="0 0 1440 809.999993" version="1.2">
<defs>
<clipPath id="clip1">
  <path d="M 442.617188 143 L 997.617188 143 L 997.617188 699 L 442.617188 699 Z M 442.617188 143 "/>
</clipPath>
<clipPath id="clip2">
  <path d="M 690 111.085938 L 749 111.085938 L 749 184 L 690 184 Z M 690 111.085938 "/>
</clipPath>
<clipPath id="clip3">
  <path d="M 628.347656 286.148438 L 890.097656 286.148438 L 890.097656 490.898438 L 628.347656 490.898438 Z M 628.347656 286.148438 "/>
</clipPath>
</defs>
<g id="surface1">
<path style=" stroke:none;fill-rule:nonzero;fill:rgb(0%,24.308777%,32.159424%);fill-opacity:1;" d="M 738.097656 247.375 L 724.546875 247.375 L 724.546875 202.847656 L 738.097656 202.847656 L 738.097656 247.375 "/>
<path style=" stroke:none;fill-rule:nonzero;fill:rgb(0%,24.308777%,32.159424%);fill-opacity:1;" d="M 738.097656 615.171875 L 724.546875 615.171875 L 724.546875 570.648438 L 738.097656 570.648438 L 738.097656 615.171875 "/>
<path style=" stroke:none;fill-rule:nonzero;fill:rgb(0%,24.308777%,32.159424%);fill-opacity:1;" d="M 892.984375 415.789062 L 892.984375 402.230469 L 937.515625 402.230469 L 937.515625 415.789062 L 892.984375 415.789062 "/>
<path style=" stroke:none;fill-rule:nonzero;fill:rgb(0%,24.308777%,32.159424%);fill-opacity:1;" d="M 525.132812 415.789062 L 525.132812 402.230469 L 569.664062 402.230469 L 569.664062 415.789062 L 525.132812 415.789062 "/>
<path style=" stroke:none;fill-rule:nonzero;fill:rgb(0%,24.308777%,32.159424%);fill-opacity:1;" d="M 893.09375 495.597656 L 897.824219 485.90625 L 918.300781 495.910156 L 913.5625 505.601562 L 893.09375 495.597656 "/>
<path style=" stroke:none;fill-rule:nonzero;fill:rgb(0%,24.308777%,32.159424%);fill-opacity:1;" d="M 543.0625 324.558594 L 547.503906 315.457031 L 567.507812 325.238281 L 563.066406 334.324219 L 543.0625 324.558594 "/>
<path style=" stroke:none;fill-rule:nonzero;fill:rgb(0%,24.308777%,32.159424%);fill-opacity:1;" d="M 818.109375 571.527344 L 827.433594 566.117188 L 838.871094 585.808594 L 829.546875 591.230469 L 818.109375 571.527344 "/>
<path style=" stroke:none;fill-rule:nonzero;fill:rgb(0%,24.308777%,32.159424%);fill-opacity:1;" d="M 622.480469 234.652344 L 631.234375 229.570312 L 642.414062 248.820312 L 633.65625 253.902344 L 622.480469 234.652344 "/>
<path style=" stroke:none;fill-rule:nonzero;fill:rgb(0%,24.308777%,32.159424%);fill-opacity:1;" d="M 643.53125 571.679688 L 653.167969 576.523438 L 642.941406 596.886719 L 633.3125 592.039062 L 643.53125 571.679688 "/>
<path style=" stroke:none;fill-rule:nonzero;fill:rgb(0%,24.308777%,32.159424%);fill-opacity:1;" d="M 818.414062 223.59375 L 827.457031 228.132812 L 817.457031 248.023438 L 808.410156 243.476562 L 818.414062 223.59375 "/>
<path style=" stroke:none;fill-rule:nonzero;fill:rgb(0%,24.308777%,32.159424%);fill-opacity:1;" d="M 565.882812 490.921875 L 570.914062 500.464844 L 550.75 511.074219 L 545.71875 501.53125 L 565.882812 490.921875 "/>
<path style=" stroke:none;fill-rule:nonzero;fill:rgb(0%,24.308777%,32.159424%);fill-opacity:1;" d="M 910.597656 309.402344 L 915.308594 318.351562 L 895.609375 328.722656 L 890.894531 319.773438 L 910.597656 309.402344 "/>
<path style=" stroke:none;fill-rule:nonzero;fill:rgb(0%,24.308777%,32.159424%);fill-opacity:1;" d="M 759.570312 415.789062 C 759.570312 431.386719 746.921875 444.03125 731.320312 444.03125 C 715.71875 444.03125 703.066406 431.386719 703.066406 415.789062 C 703.066406 400.179688 715.71875 387.535156 731.320312 387.535156 C 746.921875 387.535156 759.570312 400.179688 759.570312 415.789062 "/>
<path style=" stroke:none;fill-rule:nonzero;fill:rgb(0%,24.308777%,32.159424%);fill-opacity:1;" d="M 732.777344 425.101562 C 727.746094 425.101562 723.695312 420.625 723.695312 415.105469 C 723.695312 409.59375 727.746094 405.117188 732.777344 405.117188 L 880.351562 405.117188 C 885.367188 405.117188 889.433594 409.59375 889.433594 415.105469 C 889.433594 420.625 885.367188 425.101562 880.351562 425.101562 L 732.777344 425.101562 "/>
<path style=" stroke:none;fill-rule:nonzero;fill:rgb(0%,24.308777%,32.159424%);fill-opacity:1;" d="M 737.34375 411.617188 C 733.738281 415.097656 729.660156 416.714844 728.226562 415.238281 C 726.796875 413.757812 728.566406 409.742188 732.164062 406.25 L 838.332031 303.761719 C 841.9375 300.265625 846.027344 298.648438 847.453125 300.117188 C 848.882812 301.59375 847.113281 305.621094 843.515625 309.105469 L 737.34375 411.617188 "/>
<path style=" stroke:none;fill-rule:nonzero;fill:rgb(0%,24.308777%,32.159424%);fill-opacity:1;" d="M 738.265625 408.195312 C 741.058594 410.988281 740.164062 416.40625 736.265625 420.3125 C 732.371094 424.214844 726.933594 425.109375 724.148438 422.324219 L 641.953125 340.125 C 639.152344 337.339844 640.054688 331.921875 643.953125 328.019531 C 647.855469 324.113281 653.277344 323.210938 656.070312 326.003906 L 738.265625 408.195312 "/>
<g clip-path="url(#clip1)" clip-rule="nonzero">
<path style=" stroke:none;fill-rule:nonzero;fill:rgb(0%,24.308777%,32.159424%);fill-opacity:1;" d="M 753.285156 655.539062 C 607.648438 656.082031 487.625 569.988281 485.761719 395.796875 C 484.378906 266.285156 609.824219 152.621094 737.277344 144.363281 C 731.605469 144.019531 725.886719 143.789062 720.121094 143.789062 C 566.871094 143.789062 442.640625 267.992188 442.640625 421.222656 C 442.640625 574.441406 566.871094 698.65625 720.121094 698.65625 C 873.363281 698.65625 997.59375 574.441406 997.59375 421.222656 C 997.59375 415.457031 997.363281 409.75 997.019531 404.0625 C 988.757812 531.496094 882.824219 655.070312 753.285156 655.539062 "/>
</g>
<g clip-path="url(#clip2)" clip-rule="nonzero">
<path style=" stroke:none;fill-rule:nonzero;fill:rgb(0%,24.308777%,32.159424%);fill-opacity:1;" d="M 690.777344 111.703125 L 748.859375 147.671875 L 696.511719 183.605469 L 709.6875 146.039062 L 690.777344 111.703125 "/>
</g>
<path style=" stroke:none;fill-rule:nonzero;fill:rgb(100%,51.759338%,0%);fill-opacity:1;" d="M 759.085938 416.015625 C 759.085938 431.617188 746.4375 444.261719 730.835938 444.261719 C 715.234375 444.261719 702.582031 431.617188 702.582031 416.015625 C 702.582031 400.410156 715.234375 387.765625 730.835938 387.765625 C 746.4375 387.765625 759.085938 400.410156 759.085938 416.015625 "/>
<path style=" stroke:none;fill-rule:nonzero;fill:rgb(100%,51.759338%,0%);fill-opacity:1;" d="M 732.292969 425.332031 C 727.261719 425.332031 723.210938 420.855469 723.210938 415.335938 C 723.210938 409.824219 727.261719 405.347656 732.292969 405.347656 L 879.871094 405.347656 C 884.882812 405.347656 888.949219 409.824219 888.949219 415.335938 C 888.949219 420.855469 884.882812 425.332031 879.871094 425.332031 L 732.292969 425.332031 "/>
<path style=" stroke:none;fill-rule:nonzero;fill:rgb(100%,51.759338%,0%);fill-opacity:1;" d="M 736.863281 411.84375 C 733.257812 415.328125 729.175781 416.941406 727.742188 415.464844 C 726.3125 413.988281 728.082031 409.96875 731.679688 406.480469 L 837.851562 303.992188 C 841.457031 300.492188 845.542969 298.878906 846.96875 300.347656 C 848.398438 301.824219 846.628906 305.851562 843.03125 309.332031 L 736.863281 411.84375 "/>
<path style=" stroke:none;fill-rule:nonzero;fill:rgb(100%,51.759338%,0%);fill-opacity:1;" d="M 737.78125 408.425781 C 740.574219 411.21875 739.679688 416.636719 735.78125 420.539062 C 731.886719 424.445312 726.449219 425.339844 723.664062 422.554688 L 641.46875 340.355469 C 638.667969 337.570312 639.570312 332.152344 643.46875 328.246094 C 647.371094 324.34375 652.792969 323.441406 655.585938 326.234375 L 737.78125 408.425781 "/>
<g clip-path="url(#clip3)" clip-rule="nonzero">
<path style=" stroke:none;fill-rule:nonzero;fill:rgb(100%,51.759338%,0%);fill-opacity:1;" d="M 752.800781 655.769531 C 607.167969 656.3125 487.140625 570.21875 485.277344 396.023438 C 483.894531 266.515625 609.339844 152.851562 736.792969 144.59375 C 731.121094 144.25 725.402344 144.019531 719.636719 144.019531 C 566.386719 144.019531 442.15625 268.222656 442.15625 421.453125 C 442.15625 574.671875 566.386719 698.882812 719.636719 698.882812 C 872.878906 698.882812 997.109375 574.671875 997.109375 421.453125 C 997.109375 415.6875 996.878906 409.976562 996.535156 404.289062 C 988.277344 531.726562 882.34375 655.300781 752.800781 655.769531 "/>
</g>
</g>
</svg>
