<?xml version="1.0" encoding="UTF-8"?>
<svg xmlns="http://www.w3.org/2000/svg" xmlns:xlink="http://www.w3.org/1999/xlink" width="1440pt" height="809.999993pt" viewBox="0 0 1440 809.999993" version="1.2">
<defs>
<clipPath id="clip1">
  <path d="M 440 111.257812 L 1000 111.257812 L 1000 698.507812 L 440 698.507812 Z M 440 111.257812 "/>
</clipPath>
<clipPath id="clip2">
  <path d="M 601.957031 201.761719 L 698.707031 201.761719 L 698.707031 253.511719 L 601.957031 253.511719 Z M 601.957031 201.761719 "/>
</clipPath>
<clipPath id="clip3">
  <path d="M 671.453125 554.160156 L 768.203125 554.160156 L 768.203125 605.910156 L 671.453125 605.910156 Z M 671.453125 554.160156 "/>
</clipPath>
<clipPath id="clip4">
  <path d="M 876.171875 253.21875 L 972.921875 253.21875 L 972.921875 304.96875 L 876.171875 304.96875 Z M 876.171875 253.21875 "/>
</clipPath>
<clipPath id="clip5">
  <path d="M 462.425781 444.175781 L 559.175781 444.175781 L 559.175781 495.925781 L 462.425781 495.925781 Z M 462.425781 444.175781 "/>
</clipPath>
</defs>
<g id="surface1">
<g clip-path="url(#clip1)" clip-rule="nonzero">
<path style=" stroke:none;fill-rule:nonzero;fill:rgb(0%,24.308777%,32.159424%);fill-opacity:1;" d="M 719.976562 111.582031 L 440.246094 214.101562 L 440.246094 587.355469 L 719.976562 699.195312 L 999.710938 587.355469 L 999.710938 214.101562 L 993.789062 211.9375 Z M 719.976562 130.785156 L 981.660156 226.71875 L 981.660156 575.125 L 719.976562 679.78125 L 458.292969 575.125 L 458.292969 226.71875 Z M 719.976562 139.222656 C 719.386719 139.222656 718.796875 139.28125 718.21875 139.398438 C 717.636719 139.511719 717.070312 139.683594 716.523438 139.910156 C 715.976562 140.136719 715.457031 140.414062 714.964844 140.742188 C 714.472656 141.074219 714.015625 141.445312 713.597656 141.867188 C 713.179688 142.285156 712.804688 142.742188 712.476562 143.234375 C 712.144531 143.726562 711.867188 144.246094 711.640625 144.792969 C 711.414062 145.339844 711.242188 145.902344 711.128906 146.484375 C 711.011719 147.066406 710.953125 147.652344 710.953125 148.246094 C 710.953125 148.835938 711.011719 149.421875 711.128906 150.003906 C 711.242188 150.585938 711.414062 151.148438 711.640625 151.695312 C 711.867188 152.242188 712.144531 152.761719 712.476562 153.257812 C 712.804688 153.75 713.179688 154.203125 713.597656 154.625 C 714.015625 155.042969 714.472656 155.414062 714.964844 155.746094 C 715.457031 156.074219 715.976562 156.351562 716.523438 156.578125 C 717.070312 156.804688 717.636719 156.976562 718.21875 157.09375 C 718.796875 157.207031 719.386719 157.265625 719.976562 157.265625 C 720.570312 157.265625 721.15625 157.207031 721.738281 157.09375 C 722.320312 156.976562 722.882812 156.804688 723.429688 156.578125 C 723.976562 156.351562 724.5 156.074219 724.992188 155.746094 C 725.484375 155.414062 725.9375 155.042969 726.359375 154.625 C 726.777344 154.203125 727.152344 153.75 727.480469 153.257812 C 727.808594 152.761719 728.085938 152.242188 728.3125 151.695312 C 728.542969 151.148438 728.710938 150.585938 728.828125 150.003906 C 728.945312 149.421875 729 148.835938 729 148.246094 C 729 147.652344 728.945312 147.066406 728.828125 146.484375 C 728.710938 145.902344 728.542969 145.339844 728.3125 144.792969 C 728.085938 144.246094 727.808594 143.726562 727.480469 143.234375 C 727.152344 142.742188 726.777344 142.285156 726.359375 141.867188 C 725.9375 141.445312 725.484375 141.074219 724.992188 140.742188 C 724.5 140.414062 723.976562 140.136719 723.429688 139.910156 C 722.882812 139.683594 722.320312 139.511719 721.738281 139.398438 C 721.15625 139.28125 720.570312 139.222656 719.976562 139.222656 Z M 719.976562 175.308594 C 719.386719 175.308594 718.796875 175.363281 718.21875 175.480469 C 717.636719 175.59375 717.070312 175.765625 716.523438 175.992188 C 715.976562 176.21875 715.457031 176.496094 714.964844 176.828125 C 714.472656 177.15625 714.015625 177.53125 713.597656 177.949219 C 713.179688 178.367188 712.804688 178.824219 712.476562 179.316406 C 712.144531 179.808594 711.867188 180.328125 711.640625 180.875 C 711.414062 181.421875 711.242188 181.988281 711.128906 182.566406 C 711.011719 183.148438 710.953125 183.734375 710.953125 184.328125 C 710.953125 184.917969 711.011719 185.507812 711.128906 186.085938 C 711.242188 186.667969 711.414062 187.230469 711.640625 187.78125 C 711.867188 188.328125 712.144531 188.847656 712.476562 189.339844 C 712.804688 189.832031 713.179688 190.289062 713.597656 190.707031 C 714.015625 191.125 714.472656 191.5 714.964844 191.828125 C 715.457031 192.15625 715.976562 192.433594 716.523438 192.660156 C 717.070312 192.886719 717.636719 193.058594 718.21875 193.175781 C 718.796875 193.289062 719.386719 193.347656 719.976562 193.347656 C 720.570312 193.347656 721.15625 193.289062 721.738281 193.175781 C 722.320312 193.058594 722.882812 192.886719 723.429688 192.660156 C 723.976562 192.433594 724.5 192.15625 724.992188 191.828125 C 725.484375 191.5 725.9375 191.125 726.359375 190.707031 C 726.777344 190.289062 727.152344 189.832031 727.480469 189.339844 C 727.808594 188.847656 728.085938 188.328125 728.3125 187.78125 C 728.542969 187.230469 728.710938 186.667969 728.828125 186.085938 C 728.945312 185.507812 729 184.917969 729 184.328125 C 729 183.734375 728.945312 183.148438 728.828125 182.566406 C 728.710938 181.988281 728.542969 181.421875 728.3125 180.875 C 728.085938 180.328125 727.808594 179.808594 727.480469 179.316406 C 727.152344 178.824219 726.777344 178.367188 726.359375 177.949219 C 725.9375 177.53125 725.484375 177.15625 724.992188 176.828125 C 724.5 176.496094 723.976562 176.21875 723.429688 175.992188 C 722.882812 175.765625 722.320312 175.59375 721.738281 175.480469 C 721.15625 175.363281 720.570312 175.308594 719.976562 175.308594 Z M 719.976562 211.390625 C 719.386719 211.390625 718.796875 211.449219 718.21875 211.5625 C 717.636719 211.679688 717.070312 211.851562 716.523438 212.078125 C 715.976562 212.304688 715.457031 212.582031 714.964844 212.910156 C 714.472656 213.238281 714.015625 213.613281 713.597656 214.03125 C 713.179688 214.449219 712.804688 214.90625 712.476562 215.398438 C 712.144531 215.890625 711.867188 216.410156 711.640625 216.957031 C 711.414062 217.503906 711.242188 218.070312 711.128906 218.652344 C 711.011719 219.230469 710.953125 219.816406 710.953125 220.410156 C 710.953125 221.003906 711.011719 221.589844 711.128906 222.171875 C 711.242188 222.75 711.414062 223.316406 711.640625 223.863281 C 711.867188 224.410156 712.144531 224.929688 712.476562 225.421875 C 712.804688 225.914062 713.179688 226.371094 713.597656 226.789062 C 714.015625 227.207031 714.472656 227.582031 714.964844 227.910156 C 715.457031 228.238281 715.976562 228.519531 716.523438 228.746094 C 717.070312 228.972656 717.636719 229.140625 718.21875 229.257812 C 718.796875 229.375 719.386719 229.429688 719.976562 229.429688 C 720.570312 229.429688 721.15625 229.375 721.738281 229.257812 C 722.320312 229.140625 722.882812 228.972656 723.429688 228.746094 C 723.976562 228.519531 724.5 228.238281 724.992188 227.910156 C 725.484375 227.582031 725.9375 227.207031 726.359375 226.789062 C 726.777344 226.371094 727.152344 225.914062 727.480469 225.421875 C 727.808594 224.929688 728.085938 224.410156 728.3125 223.863281 C 728.542969 223.316406 728.710938 222.75 728.828125 222.171875 C 728.945312 221.589844 729 221.003906 729 220.410156 C 729 219.816406 728.945312 219.230469 728.828125 218.652344 C 728.710938 218.070312 728.542969 217.503906 728.3125 216.957031 C 728.085938 216.410156 727.808594 215.890625 727.480469 215.398438 C 727.152344 214.90625 726.777344 214.449219 726.359375 214.03125 C 725.9375 213.613281 725.484375 213.238281 724.992188 212.910156 C 724.5 212.582031 723.976562 212.304688 723.429688 212.078125 C 722.882812 211.851562 722.320312 211.679688 721.738281 211.5625 C 721.15625 211.449219 720.570312 211.390625 719.976562 211.390625 Z M 719.976562 247.472656 C 719.386719 247.472656 718.796875 247.53125 718.21875 247.644531 C 717.636719 247.761719 717.070312 247.933594 716.523438 248.160156 C 715.976562 248.386719 715.457031 248.664062 714.964844 248.992188 C 714.472656 249.320312 714.015625 249.695312 713.597656 250.113281 C 713.179688 250.535156 712.804688 250.988281 712.476562 251.480469 C 712.144531 251.972656 711.867188 252.492188 711.640625 253.042969 C 711.414062 253.589844 711.242188 254.152344 711.128906 254.734375 C 711.011719 255.3125 710.953125 255.902344 710.953125 256.492188 C 710.953125 257.085938 711.011719 257.671875 711.128906 258.253906 C 711.242188 258.835938 711.414062 259.398438 711.640625 259.945312 C 711.867188 260.492188 712.144531 261.011719 712.476562 261.503906 C 712.804688 261.996094 713.179688 262.453125 713.597656 262.871094 C 714.015625 263.289062 714.472656 263.664062 714.964844 263.992188 C 715.457031 264.324219 715.976562 264.601562 716.523438 264.828125 C 717.070312 265.054688 717.636719 265.226562 718.21875 265.339844 C 718.796875 265.457031 719.386719 265.515625 719.976562 265.515625 C 720.570312 265.515625 721.15625 265.457031 721.738281 265.339844 C 722.320312 265.226562 722.882812 265.054688 723.429688 264.828125 C 723.976562 264.601562 724.5 264.324219 724.992188 263.992188 C 725.484375 263.664062 725.9375 263.289062 726.359375 262.871094 C 726.777344 262.453125 727.152344 261.996094 727.480469 261.503906 C 727.808594 261.011719 728.085938 260.492188 728.3125 259.945312 C 728.542969 259.398438 728.710938 258.835938 728.828125 258.253906 C 728.945312 257.671875 729 257.085938 729 256.492188 C 729 255.902344 728.945312 255.3125 728.828125 254.734375 C 728.710938 254.152344 728.542969 253.589844 728.3125 253.042969 C 728.085938 252.492188 727.808594 251.972656 727.480469 251.480469 C 727.152344 250.988281 726.777344 250.535156 726.359375 250.113281 C 725.9375 249.695312 725.484375 249.320312 724.992188 248.992188 C 724.5 248.664062 723.976562 248.386719 723.429688 248.160156 C 722.882812 247.933594 722.320312 247.761719 721.738281 247.644531 C 721.15625 247.53125 720.570312 247.472656 719.976562 247.472656 Z M 656.8125 263.417969 L 512.433594 320.0625 L 512.433594 442.917969 L 524.894531 437.769531 L 656.8125 383.472656 Z M 801.191406 279.589844 L 801.191406 515.1875 L 819.679688 522.570312 L 820.523438 522.90625 L 854.027344 536.3125 L 854.433594 536.472656 L 854.875 536.648438 L 888.378906 550.039062 L 889.242188 550.390625 L 909.472656 558.476562 L 909.472656 319.9375 Z M 719.976562 283.554688 C 719.386719 283.554688 718.796875 283.613281 718.21875 283.730469 C 717.636719 283.84375 717.070312 284.015625 716.523438 284.242188 C 715.976562 284.46875 715.457031 284.746094 714.964844 285.074219 C 714.472656 285.40625 714.015625 285.777344 713.597656 286.199219 C 713.179688 286.617188 712.804688 287.070312 712.476562 287.566406 C 712.144531 288.058594 711.867188 288.578125 711.640625 289.125 C 711.414062 289.671875 711.242188 290.234375 711.128906 290.816406 C 711.011719 291.398438 710.953125 291.984375 710.953125 292.578125 C 710.953125 293.167969 711.011719 293.753906 711.128906 294.335938 C 711.242188 294.917969 711.414062 295.480469 711.640625 296.027344 C 711.867188 296.574219 712.144531 297.09375 712.476562 297.589844 C 712.804688 298.082031 713.179688 298.535156 713.597656 298.953125 C 714.015625 299.375 714.472656 299.746094 714.964844 300.078125 C 715.457031 300.40625 715.976562 300.683594 716.523438 300.910156 C 717.070312 301.136719 717.636719 301.308594 718.21875 301.421875 C 718.796875 301.539062 719.386719 301.597656 719.976562 301.597656 C 720.570312 301.597656 721.15625 301.539062 721.738281 301.421875 C 722.320312 301.308594 722.882812 301.136719 723.429688 300.910156 C 723.976562 300.683594 724.5 300.40625 724.992188 300.078125 C 725.484375 299.746094 725.9375 299.375 726.359375 298.953125 C 726.777344 298.535156 727.152344 298.082031 727.480469 297.589844 C 727.808594 297.09375 728.085938 296.574219 728.3125 296.027344 C 728.542969 295.480469 728.710938 294.917969 728.828125 294.335938 C 728.945312 293.753906 729 293.167969 729 292.578125 C 729 291.984375 728.945312 291.398438 728.828125 290.816406 C 728.710938 290.234375 728.542969 289.671875 728.3125 289.125 C 728.085938 288.578125 727.808594 288.058594 727.480469 287.566406 C 727.152344 287.070312 726.777344 286.617188 726.359375 286.199219 C 725.9375 285.777344 725.484375 285.40625 724.992188 285.074219 C 724.5 284.746094 723.976562 284.46875 723.429688 284.242188 C 722.882812 284.015625 722.320312 283.84375 721.738281 283.730469 C 721.15625 283.613281 720.570312 283.554688 719.976562 283.554688 Z M 638.765625 289.878906 L 638.765625 371.402344 L 530.480469 415.976562 L 530.480469 332.359375 Z M 819.238281 305.578125 L 891.425781 332.464844 L 891.425781 531.835938 L 861.589844 519.890625 L 861.570312 519.890625 L 860.726562 519.558594 L 826.445312 505.832031 L 826.375 505.816406 L 819.238281 502.960938 Z M 719.976562 319.636719 C 719.386719 319.636719 718.796875 319.695312 718.21875 319.8125 C 717.636719 319.925781 717.070312 320.097656 716.523438 320.324219 C 715.976562 320.550781 715.457031 320.828125 714.964844 321.160156 C 714.472656 321.488281 714.015625 321.863281 713.597656 322.28125 C 713.179688 322.699219 712.804688 323.15625 712.476562 323.648438 C 712.144531 324.140625 711.867188 324.660156 711.640625 325.207031 C 711.414062 325.753906 711.242188 326.320312 711.128906 326.898438 C 711.011719 327.480469 710.953125 328.066406 710.953125 328.660156 C 710.953125 329.25 711.011719 329.839844 711.128906 330.417969 C 711.242188 331 711.414062 331.5625 711.640625 332.109375 C 711.867188 332.660156 712.144531 333.179688 712.476562 333.671875 C 712.804688 334.164062 713.179688 334.617188 713.597656 335.039062 C 714.015625 335.457031 714.472656 335.832031 714.964844 336.160156 C 715.457031 336.488281 715.976562 336.765625 716.523438 336.992188 C 717.070312 337.21875 717.636719 337.390625 718.21875 337.507812 C 718.796875 337.621094 719.386719 337.679688 719.976562 337.679688 C 720.570312 337.679688 721.15625 337.621094 721.738281 337.507812 C 722.320312 337.390625 722.882812 337.21875 723.429688 336.992188 C 723.976562 336.765625 724.5 336.488281 724.992188 336.160156 C 725.484375 335.832031 725.9375 335.457031 726.359375 335.039062 C 726.777344 334.617188 727.152344 334.164062 727.480469 333.671875 C 727.808594 333.179688 728.085938 332.660156 728.3125 332.109375 C 728.542969 331.5625 728.710938 331 728.828125 330.417969 C 728.945312 329.839844 729 329.25 729 328.660156 C 729 328.066406 728.945312 327.480469 728.828125 326.898438 C 728.710938 326.320312 728.542969 325.753906 728.3125 325.207031 C 728.085938 324.660156 727.808594 324.140625 727.480469 323.648438 C 727.152344 323.15625 726.777344 322.699219 726.359375 322.28125 C 725.9375 321.863281 725.484375 321.488281 724.992188 321.160156 C 724.5 320.828125 723.976562 320.550781 723.429688 320.324219 C 722.882812 320.097656 722.320312 319.925781 721.738281 319.8125 C 721.15625 319.695312 720.570312 319.636719 719.976562 319.636719 Z M 719.976562 355.722656 C 719.386719 355.722656 718.796875 355.777344 718.21875 355.894531 C 717.636719 356.011719 717.070312 356.179688 716.523438 356.40625 C 715.976562 356.632812 715.457031 356.914062 714.964844 357.242188 C 714.472656 357.570312 714.015625 357.945312 713.597656 358.363281 C 713.179688 358.78125 712.804688 359.238281 712.476562 359.730469 C 712.144531 360.222656 711.867188 360.742188 711.640625 361.289062 C 711.414062 361.835938 711.242188 362.402344 711.128906 362.980469 C 711.011719 363.5625 710.953125 364.148438 710.953125 364.742188 C 710.953125 365.335938 711.011719 365.921875 711.128906 366.503906 C 711.242188 367.082031 711.414062 367.648438 711.640625 368.195312 C 711.867188 368.742188 712.144531 369.261719 712.476562 369.753906 C 712.804688 370.246094 713.179688 370.703125 713.597656 371.121094 C 714.015625 371.539062 714.472656 371.914062 714.964844 372.242188 C 715.457031 372.570312 715.976562 372.847656 716.523438 373.078125 C 717.070312 373.304688 717.636719 373.472656 718.21875 373.589844 C 718.796875 373.707031 719.386719 373.761719 719.976562 373.761719 C 720.570312 373.761719 721.15625 373.707031 721.738281 373.589844 C 722.320312 373.472656 722.882812 373.304688 723.429688 373.078125 C 723.976562 372.847656 724.5 372.570312 724.992188 372.242188 C 725.484375 371.914062 725.9375 371.539062 726.359375 371.121094 C 726.777344 370.703125 727.152344 370.246094 727.480469 369.753906 C 727.808594 369.261719 728.085938 368.742188 728.3125 368.195312 C 728.542969 367.648438 728.710938 367.082031 728.828125 366.503906 C 728.945312 365.921875 729 365.335938 729 364.742188 C 729 364.148438 728.945312 363.5625 728.828125 362.980469 C 728.710938 362.402344 728.542969 361.835938 728.3125 361.289062 C 728.085938 360.742188 727.808594 360.222656 727.480469 359.730469 C 727.152344 359.238281 726.777344 358.78125 726.359375 358.363281 C 725.9375 357.945312 725.484375 357.570312 724.992188 357.242188 C 724.5 356.914062 723.976562 356.632812 723.429688 356.40625 C 722.882812 356.179688 722.320312 356.011719 721.738281 355.894531 C 721.15625 355.777344 720.570312 355.722656 719.976562 355.722656 Z M 719.976562 391.804688 C 719.386719 391.804688 718.796875 391.863281 718.21875 391.976562 C 717.636719 392.09375 717.070312 392.265625 716.523438 392.492188 C 715.976562 392.71875 715.457031 392.996094 714.964844 393.324219 C 714.472656 393.652344 714.015625 394.027344 713.597656 394.445312 C 713.179688 394.867188 712.804688 395.320312 712.476562 395.8125 C 712.144531 396.304688 711.867188 396.824219 711.640625 397.375 C 711.414062 397.921875 711.242188 398.484375 711.128906 399.066406 C 711.011719 399.644531 710.953125 400.234375 710.953125 400.824219 C 710.953125 401.417969 711.011719 402.003906 711.128906 402.585938 C 711.242188 403.164062 711.414062 403.730469 711.640625 404.277344 C 711.867188 404.824219 712.144531 405.34375 712.476562 405.835938 C 712.804688 406.328125 713.179688 406.785156 713.597656 407.203125 C 714.015625 407.621094 714.472656 407.996094 714.964844 408.324219 C 715.457031 408.65625 715.976562 408.933594 716.523438 409.160156 C 717.070312 409.386719 717.636719 409.558594 718.21875 409.671875 C 718.796875 409.789062 719.386719 409.847656 719.976562 409.847656 C 720.570312 409.847656 721.15625 409.789062 721.738281 409.671875 C 722.320312 409.558594 722.882812 409.386719 723.429688 409.160156 C 723.976562 408.933594 724.5 408.65625 724.992188 408.324219 C 725.484375 407.996094 725.9375 407.621094 726.359375 407.203125 C 726.777344 406.785156 727.152344 406.328125 727.480469 405.835938 C 727.808594 405.34375 728.085938 404.824219 728.3125 404.277344 C 728.542969 403.730469 728.710938 403.164062 728.828125 402.585938 C 728.945312 402.003906 729 401.417969 729 400.824219 C 729 400.234375 728.945312 399.644531 728.828125 399.066406 C 728.710938 398.484375 728.542969 397.921875 728.3125 397.371094 C 728.085938 396.824219 727.808594 396.304688 727.480469 395.8125 C 727.152344 395.320312 726.777344 394.867188 726.359375 394.445312 C 725.9375 394.027344 725.484375 393.652344 724.992188 393.324219 C 724.5 392.996094 723.976562 392.71875 723.429688 392.492188 C 722.882812 392.265625 722.320312 392.09375 721.738281 391.976562 C 721.15625 391.863281 720.570312 391.804688 719.976562 391.804688 Z M 719.976562 427.886719 C 719.386719 427.886719 718.796875 427.945312 718.21875 428.0625 C 717.636719 428.175781 717.070312 428.347656 716.523438 428.574219 C 715.976562 428.800781 715.457031 429.078125 714.964844 429.40625 C 714.472656 429.738281 714.015625 430.109375 713.597656 430.53125 C 713.179688 430.949219 712.804688 431.402344 712.476562 431.894531 C 712.144531 432.390625 711.867188 432.910156 711.640625 433.457031 C 711.414062 434.003906 711.242188 434.566406 711.128906 435.148438 C 711.011719 435.730469 710.953125 436.316406 710.953125 436.90625 C 710.953125 437.5 711.011719 438.085938 711.128906 438.667969 C 711.242188 439.25 711.414062 439.8125 711.640625 440.359375 C 711.867188 440.90625 712.144531 441.425781 712.476562 441.917969 C 712.804688 442.414062 713.179688 442.867188 713.597656 443.285156 C 714.015625 443.707031 714.472656 444.078125 714.964844 444.410156 C 715.457031 444.738281 715.976562 445.015625 716.523438 445.242188 C 717.070312 445.46875 717.636719 445.640625 718.21875 445.753906 C 718.796875 445.871094 719.386719 445.929688 719.976562 445.929688 C 720.570312 445.929688 721.15625 445.871094 721.738281 445.753906 C 722.320312 445.640625 722.882812 445.46875 723.429688 445.242188 C 723.976562 445.015625 724.5 444.738281 724.992188 444.410156 C 725.484375 444.078125 725.9375 443.707031 726.359375 443.285156 C 726.777344 442.867188 727.152344 442.414062 727.480469 441.917969 C 727.808594 441.425781 728.085938 440.90625 728.3125 440.359375 C 728.542969 439.8125 728.710938 439.25 728.828125 438.667969 C 728.945312 438.085938 729 437.5 729 436.90625 C 729 436.316406 728.945312 435.730469 728.828125 435.148438 C 728.710938 434.566406 728.542969 434.003906 728.3125 433.457031 C 728.085938 432.910156 727.808594 432.390625 727.480469 431.894531 C 727.152344 431.402344 726.777344 430.949219 726.359375 430.53125 C 725.9375 430.109375 725.484375 429.738281 724.992188 429.40625 C 724.5 429.078125 723.976562 428.800781 723.429688 428.574219 C 722.882812 428.347656 722.320312 428.175781 721.738281 428.0625 C 721.15625 427.945312 720.570312 427.886719 719.976562 427.886719 Z M 719.75 463.96875 L 716.628906 464.621094 L 715.78125 464.957031 L 715.5 465.273438 L 715.273438 465.292969 L 714.761719 466.101562 L 710.425781 471 L 712.046875 478.910156 L 714.636719 480.125 L 716.628906 481.359375 L 717.457031 481.695312 L 717.914062 481.660156 L 719.378906 482.347656 L 722.496094 481.695312 L 723.328125 481.359375 L 723.46875 481.203125 L 725.53125 481.023438 L 729.792969 474.171875 L 726.867188 466.628906 L 724.171875 464.957031 L 723.328125 464.621094 L 721.457031 464.78125 Z M 685.398438 477.710938 L 682.28125 478.347656 L 681.433594 478.683594 L 676.074219 484.726562 L 677.695312 492.652344 L 685.027344 496.070312 L 688.148438 495.4375 L 688.976562 495.101562 L 694.351562 489.058594 L 692.714844 481.148438 Z M 757.675781 478.347656 L 749.621094 479.035156 L 745.339844 485.886719 L 748.28125 493.429688 L 750.980469 495.101562 L 751.808594 495.4375 L 759.878906 494.769531 L 764.144531 487.894531 L 761.21875 480.375 L 758.523438 478.683594 Z M 651.03125 491.4375 L 647.929688 492.089844 L 647.085938 492.425781 L 641.726562 498.46875 L 643.347656 506.378906 L 650.679688 509.8125 L 653.78125 509.179688 L 654.628906 508.84375 L 660.003906 502.785156 L 658.363281 494.875 Z M 792.027344 492.089844 L 783.972656 492.757812 L 779.6875 499.628906 L 782.632812 507.152344 L 785.328125 508.84375 L 786.175781 509.179688 L 794.226562 508.492188 L 798.492188 501.640625 L 795.566406 494.097656 L 792.871094 492.425781 Z M 616.683594 505.179688 L 613.582031 505.816406 L 612.734375 506.167969 L 607.375 512.210938 L 609 520.121094 L 616.328125 523.554688 L 619.429688 522.90625 L 620.277344 522.570312 L 625.636719 516.527344 L 624.015625 508.617188 Z M 582.332031 518.921875 L 579.230469 519.558594 L 578.386719 519.890625 L 573.027344 525.933594 L 574.648438 533.863281 L 581.980469 537.28125 L 585.082031 536.648438 L 585.929688 536.3125 L 591.285156 530.269531 L 589.664062 522.339844 Z M 547.984375 532.648438 L 544.882812 533.300781 L 544.035156 533.632812 L 538.675781 539.675781 L 540.300781 547.589844 L 547.628906 551.023438 L 550.734375 550.390625 L 551.578125 550.039062 L 556.9375 543.992188 L 555.316406 536.082031 Z M 513.632812 546.390625 L 510.515625 547.023438 L 509.6875 547.359375 L 504.308594 553.421875 L 505.949219 561.332031 L 513.28125 564.765625 L 516.382812 564.113281 L 517.230469 563.78125 L 522.585938 557.738281 L 520.964844 549.824219 Z M 929.441406 547.023438 L 921.371094 547.710938 L 917.105469 554.566406 L 920.03125 562.105469 L 922.726562 563.78125 L 923.574219 564.113281 L 931.625 563.445312 L 935.910156 556.574219 L 932.964844 549.050781 L 930.269531 547.359375 Z M 479.285156 560.132812 L 476.164062 560.765625 L 475.335938 561.101562 L 469.960938 567.144531 L 471.601562 575.054688 L 478.914062 578.492188 L 482.035156 577.855469 L 482.878906 577.523438 L 488.238281 571.480469 L 486.617188 563.550781 Z M 963.789062 560.765625 L 955.71875 561.4375 L 951.453125 568.308594 L 954.378906 575.832031 L 957.074219 577.523438 L 957.921875 577.855469 L 965.976562 577.171875 L 970.257812 570.316406 L 967.316406 562.792969 L 964.621094 561.101562 Z M 963.789062 560.765625 "/>
</g>
<g clip-path="url(#clip2)" clip-rule="nonzero">
<path style=" stroke:none;fill-rule:nonzero;fill:rgb(100%,51.759338%,0%);fill-opacity:1;" d="M 649.871094 234.054688 C 646.527344 234.054688 643.796875 231.289062 643.796875 227.910156 C 643.796875 224.523438 646.527344 221.761719 649.871094 221.761719 C 653.226562 221.761719 655.972656 224.523438 655.972656 227.910156 C 655.972656 231.289062 653.226562 234.054688 649.871094 234.054688 Z M 689.234375 253.476562 C 688.570312 253.476562 687.921875 253.300781 687.351562 252.976562 C 686.441406 252.460938 685.796875 251.640625 685.515625 250.640625 C 685.234375 249.636719 685.367188 248.578125 685.875 247.65625 C 690.523438 239.277344 692.070312 229.457031 690.203125 220.007812 C 689.347656 215.617188 687.8125 211.460938 685.617188 207.648438 C 684.574219 205.78125 685.203125 203.398438 687.035156 202.320312 C 687.636719 201.96875 688.296875 201.792969 688.96875 201.792969 C 690.339844 201.792969 691.628906 202.535156 692.320312 203.746094 C 694.925781 208.316406 696.773438 213.273438 697.792969 218.503906 C 700.007812 229.761719 698.171875 241.480469 692.605469 251.488281 C 691.910156 252.714844 690.628906 253.476562 689.234375 253.476562 Z M 662.96875 243.082031 C 662.003906 243.082031 661.070312 242.722656 660.351562 242.054688 C 659.585938 241.351562 659.148438 240.390625 659.109375 239.347656 C 659.066406 238.3125 659.425781 237.316406 660.121094 236.542969 C 662.847656 233.546875 664.007812 229.378906 663.238281 225.40625 C 662.75 222.980469 661.621094 220.773438 659.925781 219.007812 C 658.441406 217.453125 658.480469 214.976562 660.003906 213.496094 C 660.730469 212.78125 661.695312 212.390625 662.695312 212.390625 C 663.75 212.390625 664.730469 212.8125 665.46875 213.570312 C 668.207031 216.40625 670.050781 219.972656 670.820312 223.886719 C 672.078125 230.308594 670.1875 237.023438 665.800781 241.828125 C 665.074219 242.625 664.042969 243.082031 662.96875 243.082031 Z M 676.230469 248.375 C 675.492188 248.375 674.769531 248.160156 674.136719 247.757812 C 673.28125 247.191406 672.675781 246.335938 672.464844 245.308594 C 672.234375 244.292969 672.445312 243.238281 672.988281 242.363281 C 676.738281 236.507812 678.0625 229.527344 676.722656 222.703125 C 676.058594 219.230469 674.726562 215.988281 672.777344 213.046875 C 672.191406 212.1875 671.988281 211.144531 672.191406 210.121094 C 672.394531 209.101562 672.964844 208.21875 673.824219 207.640625 C 674.46875 207.207031 675.207031 206.984375 675.972656 206.984375 C 677.269531 206.984375 678.472656 207.628906 679.1875 208.703125 C 681.707031 212.503906 683.429688 216.703125 684.308594 221.195312 C 686.035156 230.011719 684.320312 239.042969 679.480469 246.589844 C 678.765625 247.710938 677.554688 248.375 676.230469 248.375 Z M 611.445312 253.476562 C 610.042969 253.476562 608.746094 252.714844 608.066406 251.488281 C 602.5 241.480469 600.652344 229.761719 602.875 218.503906 C 603.894531 213.273438 605.746094 208.316406 608.351562 203.746094 C 609.035156 202.535156 610.332031 201.792969 611.695312 201.792969 C 612.363281 201.792969 613.039062 201.96875 613.632812 202.320312 C 615.464844 203.398438 616.09375 205.78125 615.050781 207.648438 C 612.859375 211.460938 611.3125 215.617188 610.464844 220.007812 C 608.59375 229.457031 610.140625 239.277344 614.796875 247.660156 C 615.304688 248.578125 615.425781 249.636719 615.152344 250.640625 C 614.875 251.640625 614.222656 252.460938 613.316406 252.980469 C 612.734375 253.300781 612.097656 253.476562 611.445312 253.476562 Z M 637.699219 243.082031 C 636.625 243.082031 635.582031 242.625 634.863281 241.828125 C 630.476562 237.023438 628.589844 230.308594 629.847656 223.886719 C 630.621094 219.972656 632.464844 216.40625 635.195312 213.570312 C 635.9375 212.8125 636.921875 212.390625 637.972656 212.390625 C 638.972656 212.390625 639.941406 212.78125 640.660156 213.496094 C 642.191406 214.976562 642.222656 217.453125 640.738281 219.003906 C 639.050781 220.773438 637.914062 222.980469 637.433594 225.40625 C 636.65625 229.378906 637.824219 233.546875 640.542969 236.542969 C 641.246094 237.3125 641.601562 238.3125 641.554688 239.347656 C 641.519531 240.390625 641.074219 241.351562 640.3125 242.054688 C 639.59375 242.722656 638.660156 243.082031 637.699219 243.082031 Z M 624.4375 248.375 C 623.113281 248.375 621.902344 247.710938 621.1875 246.589844 C 616.351562 239.039062 614.632812 230.011719 616.359375 221.195312 C 617.234375 216.703125 618.964844 212.503906 621.484375 208.703125 C 622.195312 207.628906 623.402344 206.984375 624.691406 206.984375 C 625.457031 206.984375 626.199219 207.207031 626.84375 207.640625 C 627.703125 208.21875 628.277344 209.101562 628.480469 210.121094 C 628.683594 211.144531 628.480469 212.1875 627.894531 213.046875 C 625.9375 215.988281 624.609375 219.230469 623.945312 222.703125 C 622.601562 229.527344 623.929688 236.507812 627.675781 242.363281 C 628.226562 243.238281 628.429688 244.292969 628.207031 245.308594 C 627.992188 246.335938 627.382812 247.191406 626.523438 247.757812 C 625.898438 248.160156 625.175781 248.375 624.4375 248.375 Z M 624.4375 248.375 "/>
</g>
<g clip-path="url(#clip3)" clip-rule="nonzero">
<path style=" stroke:none;fill-rule:nonzero;fill:rgb(100%,51.759338%,0%);fill-opacity:1;" d="M 719.367188 586.457031 C 716.023438 586.457031 713.292969 583.691406 713.292969 580.308594 C 713.292969 576.921875 716.023438 574.160156 719.367188 574.160156 C 722.722656 574.160156 725.46875 576.921875 725.46875 580.308594 C 725.46875 583.691406 722.722656 586.457031 719.367188 586.457031 Z M 758.730469 605.878906 C 758.066406 605.878906 757.421875 605.703125 756.847656 605.378906 C 755.941406 604.863281 755.296875 604.039062 755.011719 603.039062 C 754.730469 602.039062 754.863281 600.976562 755.371094 600.058594 C 760.019531 591.679688 761.566406 581.859375 759.699219 572.410156 C 758.84375 568.019531 757.308594 563.863281 755.113281 560.050781 C 754.070312 558.179688 754.699219 555.796875 756.53125 554.71875 C 757.132812 554.371094 757.792969 554.191406 758.464844 554.191406 C 759.835938 554.191406 761.125 554.9375 761.816406 556.148438 C 764.421875 560.71875 766.269531 565.675781 767.289062 570.90625 C 769.503906 582.164062 767.667969 593.878906 762.101562 603.886719 C 761.40625 605.117188 760.125 605.878906 758.730469 605.878906 Z M 732.464844 595.480469 C 731.5 595.480469 730.566406 595.125 729.847656 594.457031 C 729.082031 593.753906 728.644531 592.792969 728.609375 591.75 C 728.5625 590.714844 728.921875 589.714844 729.617188 588.945312 C 732.34375 585.945312 733.503906 581.78125 732.734375 577.804688 C 732.246094 575.378906 731.117188 573.175781 729.421875 571.40625 C 727.9375 569.855469 727.976562 567.378906 729.5 565.898438 C 730.226562 565.183594 731.191406 564.792969 732.191406 564.792969 C 733.246094 564.792969 734.226562 565.210938 734.964844 565.972656 C 737.703125 568.808594 739.546875 572.375 740.316406 576.289062 C 741.574219 582.710938 739.683594 589.425781 735.296875 594.230469 C 734.570312 595.027344 733.539062 595.480469 732.464844 595.480469 Z M 745.726562 600.777344 C 744.988281 600.777344 744.265625 600.558594 743.632812 600.160156 C 742.777344 599.59375 742.171875 598.734375 741.960938 597.710938 C 741.730469 596.691406 741.941406 595.640625 742.484375 594.765625 C 746.234375 588.90625 747.558594 581.929688 746.21875 575.105469 C 745.554688 571.632812 744.222656 568.390625 742.273438 565.449219 C 741.6875 564.585938 741.484375 563.546875 741.6875 562.523438 C 741.890625 561.5 742.460938 560.617188 743.324219 560.039062 C 743.964844 559.609375 744.703125 559.382812 745.46875 559.382812 C 746.765625 559.382812 747.96875 560.03125 748.683594 561.105469 C 751.203125 564.90625 752.925781 569.105469 753.804688 573.59375 C 755.53125 582.414062 753.816406 591.441406 748.976562 598.992188 C 748.261719 600.113281 747.050781 600.777344 745.726562 600.777344 Z M 680.941406 605.878906 C 679.539062 605.878906 678.242188 605.117188 677.5625 603.886719 C 671.996094 593.878906 670.148438 582.164062 672.371094 570.90625 C 673.390625 565.675781 675.242188 560.71875 677.847656 556.148438 C 678.53125 554.9375 679.828125 554.191406 681.191406 554.191406 C 681.859375 554.191406 682.535156 554.371094 683.128906 554.71875 C 684.960938 555.800781 685.589844 558.179688 684.546875 560.050781 C 682.355469 563.863281 680.808594 568.019531 679.960938 572.410156 C 678.089844 581.859375 679.636719 591.679688 684.292969 600.058594 C 684.800781 600.976562 684.921875 602.039062 684.648438 603.042969 C 684.371094 604.039062 683.71875 604.863281 682.8125 605.378906 C 682.230469 605.703125 681.59375 605.878906 680.941406 605.878906 Z M 707.195312 595.480469 C 706.121094 595.480469 705.078125 595.027344 704.359375 594.230469 C 699.972656 589.425781 698.085938 582.710938 699.347656 576.289062 C 700.117188 572.375 701.960938 568.808594 704.691406 565.972656 C 705.433594 565.210938 706.417969 564.792969 707.46875 564.792969 C 708.46875 564.792969 709.4375 565.183594 710.15625 565.898438 C 711.6875 567.378906 711.71875 569.855469 710.234375 571.40625 C 708.546875 573.175781 707.410156 575.378906 706.929688 577.804688 C 706.152344 581.777344 707.320312 585.945312 710.039062 588.941406 C 710.742188 589.714844 711.097656 590.710938 711.050781 591.75 C 711.015625 592.792969 710.570312 593.753906 709.808594 594.457031 C 709.089844 595.125 708.15625 595.480469 707.195312 595.480469 Z M 693.933594 600.777344 C 692.609375 600.777344 691.398438 600.113281 690.683594 598.992188 C 685.847656 591.441406 684.128906 582.414062 685.855469 573.59375 C 686.730469 569.105469 688.460938 564.90625 690.980469 561.105469 C 691.691406 560.03125 692.902344 559.382812 694.1875 559.382812 C 694.953125 559.382812 695.695312 559.609375 696.339844 560.039062 C 697.199219 560.617188 697.773438 561.5 697.976562 562.523438 C 698.179688 563.546875 697.976562 564.585938 697.390625 565.449219 C 695.433594 568.390625 694.105469 571.632812 693.441406 575.105469 C 692.097656 581.929688 693.425781 588.90625 697.171875 594.765625 C 697.722656 595.640625 697.925781 596.691406 697.703125 597.710938 C 697.488281 598.734375 696.878906 599.59375 696.019531 600.160156 C 695.394531 600.558594 694.671875 600.777344 693.933594 600.777344 Z M 693.933594 600.777344 "/>
</g>
<g clip-path="url(#clip4)" clip-rule="nonzero">
<path style=" stroke:none;fill-rule:nonzero;fill:rgb(100%,51.759338%,0%);fill-opacity:1;" d="M 924.085938 285.515625 C 920.742188 285.515625 918.011719 282.75 918.011719 279.367188 C 918.011719 275.980469 920.742188 273.21875 924.085938 273.21875 C 927.441406 273.21875 930.1875 275.980469 930.1875 279.367188 C 930.1875 282.75 927.441406 285.515625 924.085938 285.515625 Z M 963.445312 304.9375 C 962.785156 304.9375 962.136719 304.761719 961.5625 304.4375 C 960.65625 303.921875 960.011719 303.097656 959.730469 302.097656 C 959.449219 301.097656 959.582031 300.035156 960.089844 299.117188 C 964.734375 290.738281 966.285156 280.914062 964.417969 271.464844 C 963.5625 267.078125 962.023438 262.921875 959.832031 259.109375 C 958.789062 257.238281 959.417969 254.855469 961.25 253.777344 C 961.851562 253.429688 962.511719 253.25 963.183594 253.25 C 964.554688 253.25 965.84375 253.996094 966.53125 255.207031 C 969.136719 259.777344 970.988281 264.734375 972.003906 269.960938 C 974.222656 281.222656 972.382812 292.9375 966.816406 302.945312 C 966.125 304.175781 964.839844 304.9375 963.445312 304.9375 Z M 937.183594 294.539062 C 936.21875 294.539062 935.285156 294.183594 934.566406 293.515625 C 933.800781 292.8125 933.363281 291.847656 933.324219 290.804688 C 933.28125 289.769531 933.636719 288.773438 934.335938 288 C 937.058594 285.003906 938.222656 280.835938 937.453125 276.863281 C 936.964844 274.4375 935.835938 272.234375 934.140625 270.464844 C 932.65625 268.910156 932.695312 266.4375 934.21875 264.957031 C 934.941406 264.242188 935.90625 263.851562 936.910156 263.851562 C 937.964844 263.851562 938.945312 264.269531 939.683594 265.03125 C 942.421875 267.867188 944.265625 271.433594 945.035156 275.347656 C 946.292969 281.769531 944.402344 288.484375 940.015625 293.289062 C 939.289062 294.082031 938.257812 294.539062 937.183594 294.539062 Z M 950.445312 299.835938 C 949.703125 299.835938 948.980469 299.617188 948.351562 299.21875 C 947.496094 298.652344 946.890625 297.792969 946.675781 296.769531 C 946.449219 295.75 946.65625 294.699219 947.203125 293.824219 C 950.953125 287.964844 952.277344 280.988281 950.9375 274.164062 C 950.269531 270.6875 948.941406 267.449219 946.992188 264.507812 C 946.40625 263.644531 946.203125 262.605469 946.40625 261.578125 C 946.605469 260.558594 947.179688 259.675781 948.039062 259.097656 C 948.679688 258.667969 949.421875 258.441406 950.183594 258.441406 C 951.480469 258.441406 952.6875 259.085938 953.398438 260.160156 C 955.917969 263.964844 957.644531 268.160156 958.523438 272.652344 C 960.246094 281.472656 958.535156 290.5 953.691406 298.050781 C 952.980469 299.171875 951.765625 299.835938 950.445312 299.835938 Z M 885.65625 304.9375 C 884.253906 304.9375 882.960938 304.175781 882.28125 302.945312 C 876.710938 292.9375 874.867188 281.222656 877.085938 269.960938 C 878.105469 264.734375 879.960938 259.777344 882.5625 255.207031 C 883.25 253.996094 884.546875 253.25 885.90625 253.25 C 886.578125 253.25 887.25 253.429688 887.84375 253.777344 C 889.675781 254.855469 890.304688 257.238281 889.261719 259.109375 C 887.070312 262.921875 885.527344 267.078125 884.679688 271.46875 C 882.808594 280.914062 884.355469 290.738281 889.007812 299.117188 C 889.515625 300.035156 889.640625 301.097656 889.367188 302.097656 C 889.085938 303.097656 888.433594 303.921875 887.53125 304.4375 C 886.949219 304.761719 886.308594 304.9375 885.65625 304.9375 Z M 911.914062 294.539062 C 910.835938 294.539062 909.796875 294.082031 909.078125 293.289062 C 904.6875 288.484375 902.804688 281.769531 904.0625 275.347656 C 904.835938 271.429688 906.675781 267.867188 909.410156 265.03125 C 910.152344 264.269531 911.132812 263.851562 912.1875 263.851562 C 913.183594 263.851562 914.15625 264.242188 914.871094 264.957031 C 916.40625 266.4375 916.4375 268.910156 914.949219 270.464844 C 913.261719 272.230469 912.128906 274.4375 911.644531 276.863281 C 910.871094 280.835938 912.035156 285.003906 914.753906 288 C 915.460938 288.773438 915.816406 289.769531 915.769531 290.804688 C 915.734375 291.847656 915.289062 292.8125 914.527344 293.515625 C 913.804688 294.183594 912.875 294.539062 911.914062 294.539062 Z M 898.652344 299.835938 C 897.328125 299.835938 896.113281 299.171875 895.402344 298.050781 C 890.5625 290.5 888.847656 281.472656 890.574219 272.652344 C 891.449219 268.160156 893.179688 263.964844 895.699219 260.160156 C 896.410156 259.085938 897.617188 258.441406 898.90625 258.441406 C 899.671875 258.441406 900.410156 258.667969 901.058594 259.097656 C 901.917969 259.675781 902.492188 260.558594 902.695312 261.578125 C 902.894531 262.605469 902.695312 263.644531 902.105469 264.507812 C 900.152344 267.449219 898.824219 270.6875 898.160156 274.164062 C 896.816406 280.988281 898.140625 287.964844 901.886719 293.824219 C 902.441406 294.699219 902.644531 295.75 902.417969 296.769531 C 902.203125 297.792969 901.597656 298.652344 900.738281 299.21875 C 900.113281 299.617188 899.386719 299.835938 898.652344 299.835938 Z M 898.652344 299.835938 "/>
</g>
<g clip-path="url(#clip5)" clip-rule="nonzero">
<path style=" stroke:none;fill-rule:nonzero;fill:rgb(100%,51.759338%,0%);fill-opacity:1;" d="M 510.339844 476.472656 C 506.996094 476.472656 504.265625 473.707031 504.265625 470.328125 C 504.265625 466.9375 506.996094 464.175781 510.339844 464.175781 C 513.695312 464.175781 516.441406 466.9375 516.441406 470.328125 C 516.441406 473.707031 513.695312 476.472656 510.339844 476.472656 Z M 549.703125 495.894531 C 549.039062 495.894531 548.390625 495.71875 547.820312 495.394531 C 546.910156 494.878906 546.265625 494.058594 545.984375 493.058594 C 545.703125 492.054688 545.835938 490.992188 546.34375 490.074219 C 550.992188 481.695312 552.539062 471.875 550.671875 462.425781 C 549.816406 458.035156 548.28125 453.878906 546.085938 450.066406 C 545.042969 448.195312 545.671875 445.816406 547.503906 444.734375 C 548.105469 444.386719 548.765625 444.207031 549.4375 444.207031 C 550.808594 444.207031 552.097656 444.953125 552.789062 446.164062 C 555.394531 450.734375 557.242188 455.691406 558.261719 460.921875 C 560.476562 472.179688 558.640625 483.898438 553.074219 493.902344 C 552.378906 495.132812 551.097656 495.894531 549.703125 495.894531 Z M 523.4375 485.5 C 522.472656 485.5 521.539062 485.140625 520.820312 484.472656 C 520.054688 483.769531 519.617188 482.808594 519.582031 481.765625 C 519.535156 480.730469 519.894531 479.730469 520.589844 478.960938 C 523.316406 475.960938 524.476562 471.796875 523.707031 467.820312 C 523.21875 465.398438 522.089844 463.191406 520.394531 461.421875 C 518.910156 459.871094 518.949219 457.394531 520.472656 455.914062 C 521.199219 455.199219 522.164062 454.808594 523.164062 454.808594 C 524.21875 454.808594 525.199219 455.230469 525.9375 455.988281 C 528.675781 458.824219 530.519531 462.390625 531.289062 466.304688 C 532.546875 472.726562 530.65625 479.441406 526.269531 484.246094 C 525.542969 485.042969 524.511719 485.5 523.4375 485.5 Z M 536.699219 490.792969 C 535.960938 490.792969 535.238281 490.574219 534.605469 490.175781 C 533.75 489.609375 533.144531 488.753906 532.933594 487.726562 C 532.703125 486.710938 532.914062 485.65625 533.457031 484.78125 C 537.207031 478.921875 538.53125 471.945312 537.191406 465.121094 C 536.527344 461.648438 535.195312 458.40625 533.246094 455.464844 C 532.660156 454.601562 532.457031 453.5625 532.660156 452.539062 C 532.863281 451.515625 533.433594 450.636719 534.292969 450.054688 C 534.9375 449.625 535.675781 449.402344 536.441406 449.402344 C 537.738281 449.402344 538.941406 450.046875 539.65625 451.121094 C 542.175781 454.921875 543.898438 459.121094 544.777344 463.609375 C 546.503906 472.429688 544.789062 481.457031 539.949219 489.007812 C 539.234375 490.128906 538.023438 490.792969 536.699219 490.792969 Z M 471.914062 495.894531 C 470.511719 495.894531 469.214844 495.132812 468.535156 493.902344 C 462.96875 483.894531 461.121094 472.179688 463.34375 460.921875 C 464.363281 455.691406 466.214844 450.734375 468.820312 446.164062 C 469.503906 444.953125 470.800781 444.207031 472.164062 444.207031 C 472.832031 444.207031 473.507812 444.386719 474.101562 444.738281 C 475.933594 445.816406 476.5625 448.195312 475.519531 450.066406 C 473.328125 453.878906 471.78125 458.035156 470.933594 462.425781 C 469.0625 471.875 470.609375 481.695312 475.265625 490.074219 C 475.773438 490.992188 475.894531 492.054688 475.621094 493.058594 C 475.34375 494.058594 474.691406 494.878906 473.785156 495.394531 C 473.203125 495.71875 472.566406 495.894531 471.914062 495.894531 Z M 498.167969 485.5 C 497.09375 485.5 496.050781 485.042969 495.332031 484.246094 C 490.945312 479.441406 489.058594 472.726562 490.316406 466.304688 C 491.089844 462.390625 492.933594 458.824219 495.664062 455.988281 C 496.40625 455.226562 497.390625 454.808594 498.441406 454.808594 C 499.441406 454.808594 500.410156 455.199219 501.128906 455.914062 C 502.660156 457.394531 502.691406 459.871094 501.207031 461.421875 C 499.519531 463.191406 498.382812 465.398438 497.902344 467.820312 C 497.125 471.796875 498.292969 475.960938 501.011719 478.960938 C 501.714844 479.730469 502.070312 480.730469 502.023438 481.765625 C 501.988281 482.808594 501.542969 483.769531 500.78125 484.472656 C 500.0625 485.140625 499.128906 485.5 498.167969 485.5 Z M 484.90625 490.792969 C 483.582031 490.792969 482.371094 490.128906 481.65625 489.007812 C 476.820312 481.457031 475.101562 472.429688 476.828125 463.609375 C 477.703125 459.121094 479.433594 454.921875 481.953125 451.121094 C 482.664062 450.046875 483.871094 449.402344 485.160156 449.402344 C 485.925781 449.402344 486.667969 449.625 487.3125 450.054688 C 488.171875 450.636719 488.746094 451.515625 488.949219 452.539062 C 489.152344 453.5625 488.949219 454.601562 488.363281 455.464844 C 486.40625 458.40625 485.078125 461.648438 484.414062 465.121094 C 483.070312 471.945312 484.398438 478.921875 488.144531 484.78125 C 488.695312 485.65625 488.898438 486.710938 488.675781 487.726562 C 488.460938 488.753906 487.851562 489.609375 486.992188 490.175781 C 486.367188 490.574219 485.644531 490.792969 484.90625 490.792969 Z M 484.90625 490.792969 "/>
</g>
</g>
</svg>
