<?xml version="1.0" encoding="UTF-8"?>
<svg xmlns="http://www.w3.org/2000/svg" xmlns:xlink="http://www.w3.org/1999/xlink" width="1440pt" height="809.999993pt" viewBox="0 0 1440 809.999993" version="1.2">
<defs>
<clipPath id="clip1">
  <path d="M 338 122.070312 L 1102 122.070312 L 1102 686 L 338 686 Z M 338 122.070312 "/>
</clipPath>
</defs>
<g id="surface1">
<g clip-path="url(#clip1)" clip-rule="nonzero">
<path style=" stroke:none;fill-rule:nonzero;fill:rgb(44.709778%,53.729248%,85.488892%);fill-opacity:1;" d="M 996.132812 183.546875 C 930.027344 130.429688 825.453125 121.445312 821.007812 121.0625 C 814.03125 120.472656 807.398438 124.425781 804.550781 130.8125 C 804.34375 131.226562 802.050781 136.464844 799.519531 144.617188 C 843.230469 151.972656 896.941406 166.824219 945.546875 196.972656 C 953.324219 201.792969 955.71875 212.027344 950.894531 219.835938 C 947.769531 224.898438 942.316406 227.675781 936.761719 227.675781 C 933.777344 227.675781 930.753906 226.875 928.011719 225.175781 C 844.480469 173.414062 740.113281 170.8125 720.046875 170.8125 C 699.980469 170.8125 595.578125 173.414062 512.113281 225.175781 C 504.300781 230.035156 494.09375 227.605469 489.234375 219.835938 C 484.375 212.027344 486.804688 201.828125 494.582031 196.972656 C 543.1875 166.859375 596.863281 151.972656 640.609375 144.617188 C 638.039062 136.429688 635.75 131.226562 635.574219 130.8125 C 632.691406 124.425781 626.097656 120.402344 619.082031 121.097656 C 614.675781 121.445312 510.101562 130.429688 443.09375 184.308594 C 408.097656 216.609375 338.136719 405.617188 338.136719 569.023438 C 338.136719 571.902344 338.902344 574.746094 340.324219 577.242188 C 388.617188 662 520.34375 684.203125 550.375 685.175781 C 550.546875 685.175781 550.722656 685.175781 550.894531 685.175781 C 556.207031 685.175781 561.207031 682.640625 564.332031 678.339844 L 594.710938 636.640625 C 512.808594 615.476562 470.972656 579.570312 468.542969 577.453125 C 461.667969 571.382812 461.007812 560.902344 467.082031 554.035156 C 473.160156 547.164062 483.609375 546.503906 490.484375 552.542969 C 491.492188 553.445312 568.53125 618.773438 720.046875 618.773438 C 871.835938 618.773438 948.878906 553.167969 949.644531 552.507812 C 956.515625 546.539062 967.003906 547.164062 973.042969 554.070312 C 979.085938 560.9375 978.425781 571.382812 971.585938 577.417969 C 969.15625 579.570312 927.320312 615.441406 845.417969 636.605469 L 875.796875 678.304688 C 878.921875 682.609375 883.917969 685.140625 889.230469 685.140625 C 889.40625 685.140625 889.578125 685.140625 889.753906 685.140625 C 919.785156 684.203125 1051.507812 662 1099.800781 577.210938 C 1101.191406 574.710938 1101.957031 571.902344 1101.957031 569.023438 C 1101.957031 405.617188 1031.996094 216.609375 996.132812 183.546875 Z M 612.105469 502.652344 C 580.023438 502.652344 553.984375 472.921875 553.984375 436.285156 C 553.984375 399.648438 579.988281 369.917969 612.105469 369.917969 C 644.21875 369.917969 670.222656 399.648438 670.222656 436.285156 C 670.222656 472.921875 644.21875 502.652344 612.105469 502.652344 Z M 827.988281 502.652344 C 795.90625 502.652344 769.867188 472.921875 769.867188 436.285156 C 769.867188 399.648438 795.871094 369.917969 827.988281 369.917969 C 860.066406 369.917969 886.105469 399.648438 886.105469 436.285156 C 886.105469 472.921875 860.066406 502.652344 827.988281 502.652344 Z M 827.988281 502.652344 "/>
</g>
</g>
</svg>
