<?xml version="1.0" encoding="utf-8"?>
<!-- Generator: Adobe Illustrator 26.0.1, SVG Export Plug-In . SVG Version: 6.00 Build 0)  -->
<svg version="1.1" id="Layer_1" xmlns="http://www.w3.org/2000/svg" xmlns:xlink="http://www.w3.org/1999/xlink" x="0px" y="0px"
	 viewBox="0 0 1440 810" style="enable-background:new 0 0 1440 810;" xml:space="preserve">
<style type="text/css">
	.st0{clip-path:url(#SVGID_00000139279971252137480260000007095976833603814841_);}
	.st1{fill:#D3D3D3;}
	.st2{fill:#003E52;}
</style>
<g>
	<g>
		<defs>
			<rect id="SVGID_1_" x="325" y="9.9" width="790.2" height="790.2"/>
		</defs>
		<clipPath id="SVGID_00000011019489416329966510000001494828021421881002_">
			<use xlink:href="#SVGID_1_"  style="overflow:visible;"/>
		</clipPath>
		<g style="clip-path:url(#SVGID_00000011019489416329966510000001494828021421881002_);">
			<path class="st1" d="M443.5,9.9h553.2c1.9,0,3.9,0,5.8,0.1s3.9,0.2,5.8,0.4c1.9,0.2,3.9,0.4,5.8,0.7s3.8,0.6,5.7,1
				s3.8,0.8,5.7,1.3s3.8,1,5.6,1.5c1.9,0.6,3.7,1.2,5.5,1.8c1.8,0.7,3.6,1.3,5.4,2.1c1.8,0.7,3.6,1.5,5.3,2.4
				c1.8,0.8,3.5,1.7,5.2,2.6s3.4,1.9,5.1,2.9s3.3,2,4.9,3.1s3.2,2.2,4.8,3.3c1.6,1.2,3.1,2.4,4.6,3.6c1.5,1.2,3,2.5,4.4,3.8
				s2.8,2.6,4.2,4c1.4,1.4,2.7,2.8,4,4.2s2.6,2.9,3.8,4.4c1.2,1.5,2.4,3,3.6,4.6s2.3,3.1,3.3,4.8c1.1,1.6,2.1,3.2,3.1,4.9
				s2,3.4,2.9,5.1s1.8,3.4,2.6,5.2c0.8,1.8,1.6,3.5,2.4,5.3c0.7,1.8,1.4,3.6,2.1,5.4s1.3,3.7,1.8,5.5c0.6,1.9,1.1,3.7,1.5,5.6
				c0.5,1.9,0.9,3.8,1.3,5.7s0.7,3.8,1,5.7c0.3,1.9,0.5,3.8,0.7,5.8c0.2,1.9,0.3,3.9,0.4,5.8s0.1,3.9,0.1,5.8v553.2
				c0,1.9,0,3.9-0.1,5.8c-0.1,1.9-0.2,3.9-0.4,5.8s-0.4,3.9-0.7,5.8c-0.3,1.9-0.6,3.8-1,5.7s-0.8,3.8-1.3,5.7s-1,3.8-1.5,5.6
				c-0.6,1.9-1.2,3.7-1.8,5.5c-0.7,1.8-1.3,3.6-2.1,5.4c-0.7,1.8-1.5,3.6-2.4,5.3c-0.8,1.8-1.7,3.5-2.6,5.2s-1.9,3.4-2.9,5.1
				c-1,1.7-2,3.3-3.1,4.9c-1.1,1.6-2.2,3.2-3.3,4.8c-1.2,1.6-2.4,3.1-3.6,4.6s-2.5,3-3.8,4.4s-2.6,2.8-4,4.2s-2.8,2.7-4.2,4
				c-1.4,1.3-2.9,2.6-4.4,3.8s-3,2.4-4.6,3.6c-1.6,1.2-3.1,2.3-4.8,3.3s-3.2,2.1-4.9,3.1c-1.7,1-3.4,2-5.1,2.9s-3.4,1.8-5.2,2.6
				c-1.8,0.8-3.5,1.6-5.3,2.4c-1.8,0.7-3.6,1.4-5.4,2.1c-1.8,0.7-3.7,1.3-5.5,1.8c-1.9,0.6-3.7,1.1-5.6,1.5
				c-1.9,0.5-3.8,0.9-5.7,1.3c-1.9,0.4-3.8,0.7-5.7,1s-3.8,0.5-5.8,0.7s-3.9,0.3-5.8,0.4s-3.9,0.1-5.8,0.1H443.5
				c-1.9,0-3.9,0-5.8-0.1s-3.9-0.2-5.8-0.4s-3.9-0.4-5.8-0.7s-3.8-0.6-5.7-1c-1.9-0.4-3.8-0.8-5.7-1.3c-1.9-0.5-3.8-1-5.6-1.5
				c-1.9-0.6-3.7-1.2-5.5-1.8c-1.8-0.7-3.6-1.3-5.4-2.1c-1.8-0.7-3.6-1.5-5.3-2.4c-1.8-0.8-3.5-1.7-5.2-2.6
				c-1.7-0.9-3.4-1.9-5.1-2.9s-3.3-2-4.9-3.1s-3.2-2.2-4.8-3.3c-1.6-1.2-3.1-2.4-4.6-3.6c-1.5-1.2-3-2.5-4.4-3.8s-2.8-2.6-4.2-4
				c-1.4-1.4-2.7-2.8-4-4.2s-2.6-2.9-3.8-4.4c-1.2-1.5-2.4-3-3.6-4.6s-2.3-3.1-3.3-4.8c-1.1-1.6-2.1-3.2-3.1-4.9s-2-3.4-2.9-5.1
				c-0.9-1.7-1.8-3.4-2.6-5.2c-0.8-1.8-1.6-3.5-2.4-5.3c-0.7-1.8-1.4-3.6-2.1-5.4c-0.7-1.8-1.3-3.7-1.8-5.5
				c-0.6-1.9-1.1-3.7-1.5-5.6c-0.5-1.9-0.9-3.8-1.3-5.7s-0.7-3.8-1-5.7s-0.5-3.8-0.7-5.8c-0.2-1.9-0.3-3.9-0.4-5.8s-0.1-3.9-0.1-5.8
				V128.4c0-1.9,0-3.9,0.1-5.8s0.2-3.9,0.4-5.8c0.2-1.9,0.4-3.9,0.7-5.8s0.6-3.8,1-5.7s0.8-3.8,1.3-5.7c0.5-1.9,1-3.8,1.5-5.6
				c0.6-1.9,1.2-3.7,1.8-5.5c0.7-1.8,1.4-3.6,2.1-5.4s1.5-3.6,2.4-5.3c0.8-1.8,1.7-3.5,2.6-5.2s1.9-3.4,2.9-5.1s2-3.3,3.1-4.9
				s2.2-3.2,3.3-4.8c1.2-1.6,2.4-3.1,3.6-4.6s2.5-3,3.8-4.4s2.6-2.8,4-4.2s2.8-2.7,4.2-4c1.4-1.3,2.9-2.6,4.4-3.8s3-2.4,4.6-3.6
				c1.6-1.2,3.1-2.3,4.8-3.3c1.6-1.1,3.2-2.1,4.9-3.1c1.7-1,3.4-2,5.1-2.9s3.4-1.8,5.2-2.6c1.8-0.8,3.5-1.6,5.3-2.4
				c1.8-0.7,3.6-1.4,5.4-2.1s3.7-1.3,5.5-1.8c1.9-0.6,3.7-1.1,5.6-1.5c1.9-0.5,3.8-0.9,5.7-1.3c1.9-0.4,3.8-0.7,5.7-1
				c1.9-0.3,3.8-0.5,5.8-0.7c1.9-0.2,3.9-0.3,5.8-0.4C439.7,9.9,441.6,9.9,443.5,9.9z"/>
		</g>
	</g>
</g>
<path class="st2" d="M859,614.9l-32.4-38.6c63.3-17,88-60.2,88-60.2c-80.3,75.6-299.4,78.7-384.3,0c0,0,21.6,40.1,86.4,60.2
	l-35.5,38.6c-108-1.5-149.7-74.1-149.7-74.1c0-160.5,71-288.6,71-288.6c72.5-50.9,138.9-50.9,138.9-50.9l4.6,6.2
	c-89.5,24.7-128.1,64.8-128.1,64.8c105-71,321-64.8,405.9,0c1.5-1.5-50.9-43.2-132.7-64.8l7.7-6.2c0,0,66.4,0,138.9,50.9
	s71,128.1,71,288.6C1008.8,540.8,967.1,613.4,859,614.9z"/>
<path class="st1" d="M678.5,440.5c0,1.8-0.1,3.5-0.2,5.3c-0.2,1.8-0.4,3.5-0.7,5.2s-0.7,3.5-1.2,5.1c-0.5,1.7-1,3.4-1.7,5
	c-0.6,1.6-1.4,3.2-2.1,4.8c-0.8,1.6-1.6,3.1-2.6,4.5c-0.9,1.5-1.9,2.9-3,4.3s-2.2,2.7-3.4,3.9c-1.2,1.2-2.4,2.4-3.7,3.6
	c-1.3,1.1-2.6,2.2-4,3.2s-2.8,1.9-4.3,2.7c-1.5,0.8-3,1.6-4.5,2.3c-1.5,0.7-3.1,1.3-4.7,1.8c-1.6,0.5-3.2,0.9-4.8,1.3
	c-1.6,0.3-3.3,0.6-4.9,0.8c-1.7,0.2-3.3,0.3-5,0.3s-3.3-0.1-5-0.3c-1.7-0.2-3.3-0.4-4.9-0.8c-1.6-0.3-3.3-0.8-4.8-1.3
	c-1.6-0.5-3.2-1.1-4.7-1.8c-1.5-0.7-3-1.4-4.5-2.3c-1.5-0.8-2.9-1.7-4.3-2.7c-1.4-1-2.7-2-4-3.2c-1.3-1.1-2.5-2.3-3.7-3.6
	c-1.2-1.3-2.3-2.6-3.4-3.9c-1.1-1.4-2.1-2.8-3-4.3s-1.8-3-2.6-4.5c-0.8-1.6-1.5-3.2-2.1-4.8c-0.6-1.6-1.2-3.3-1.7-5
	s-0.9-3.4-1.2-5.1s-0.6-3.5-0.7-5.2c-0.2-1.8-0.2-3.5-0.2-5.3s0.1-3.5,0.2-5.3c0.2-1.8,0.4-3.5,0.7-5.2s0.7-3.5,1.2-5.1
	c0.5-1.7,1-3.4,1.7-5c0.6-1.6,1.4-3.2,2.1-4.8c0.8-1.6,1.6-3.1,2.6-4.5c0.9-1.5,1.9-2.9,3-4.3s2.2-2.7,3.4-3.9
	c1.2-1.2,2.4-2.4,3.7-3.6c1.3-1.1,2.6-2.2,4-3.2s2.8-1.9,4.3-2.7c1.5-0.8,3-1.6,4.5-2.3c1.5-0.7,3.1-1.3,4.7-1.8
	c1.6-0.5,3.2-0.9,4.8-1.3c1.6-0.3,3.3-0.6,4.9-0.8c1.7-0.2,3.3-0.3,5-0.3s3.3,0.1,5,0.3c1.7,0.2,3.3,0.4,4.9,0.8
	c1.6,0.3,3.3,0.8,4.8,1.3c1.6,0.5,3.2,1.1,4.7,1.8c1.5,0.7,3,1.4,4.5,2.3c1.5,0.8,2.9,1.7,4.3,2.7c1.4,1,2.7,2,4,3.2
	c1.3,1.1,2.5,2.3,3.7,3.6c1.2,1.3,2.3,2.6,3.4,3.9c1.1,1.4,2.1,2.8,3,4.3s1.8,3,2.6,4.5c0.8,1.6,1.5,3.2,2.1,4.8
	c0.6,1.6,1.2,3.3,1.7,5s0.9,3.4,1.2,5.1s0.6,3.5,0.7,5.2C678.4,437,678.5,438.7,678.5,440.5z"/>
<path class="st1" d="M857.5,440.5c0,1.8-0.1,3.5-0.2,5.3c-0.2,1.8-0.4,3.5-0.7,5.2s-0.7,3.5-1.2,5.1c-0.5,1.7-1,3.4-1.7,5
	c-0.6,1.6-1.3,3.2-2.1,4.8c-0.8,1.6-1.6,3.1-2.6,4.5c-0.9,1.5-1.9,2.9-3,4.3s-2.2,2.7-3.4,3.9c-1.2,1.2-2.4,2.4-3.7,3.6
	c-1.3,1.1-2.6,2.2-4,3.2s-2.8,1.9-4.3,2.7c-1.5,0.8-3,1.6-4.5,2.3c-1.5,0.7-3.1,1.3-4.7,1.8c-1.6,0.5-3.2,0.9-4.8,1.3
	c-1.6,0.3-3.3,0.6-4.9,0.8c-1.7,0.2-3.3,0.3-5,0.3s-3.3-0.1-5-0.3c-1.7-0.2-3.3-0.4-4.9-0.8c-1.6-0.3-3.3-0.8-4.8-1.3
	c-1.6-0.5-3.2-1.1-4.7-1.8c-1.5-0.7-3-1.4-4.5-2.3c-1.5-0.8-2.9-1.7-4.3-2.7c-1.4-1-2.7-2-4-3.2c-1.3-1.1-2.5-2.3-3.7-3.6
	c-1.2-1.3-2.3-2.6-3.4-3.9c-1.1-1.4-2.1-2.8-3-4.3s-1.8-3-2.6-4.5c-0.8-1.6-1.5-3.2-2.1-4.8c-0.6-1.6-1.2-3.3-1.7-5
	s-0.9-3.4-1.2-5.1s-0.6-3.5-0.7-5.2c-0.2-1.8-0.2-3.5-0.2-5.3s0.1-3.5,0.2-5.3c0.2-1.8,0.4-3.5,0.7-5.2s0.7-3.5,1.2-5.1
	c0.5-1.7,1-3.4,1.7-5c0.6-1.6,1.3-3.2,2.1-4.8c0.8-1.6,1.6-3.1,2.6-4.5c0.9-1.5,1.9-2.9,3-4.3s2.2-2.7,3.4-3.9
	c1.2-1.2,2.4-2.4,3.7-3.6c1.3-1.1,2.6-2.2,4-3.2s2.8-1.9,4.3-2.7c1.5-0.8,3-1.6,4.5-2.3c1.5-0.7,3.1-1.3,4.7-1.8
	c1.6-0.5,3.2-0.9,4.8-1.3c1.6-0.3,3.3-0.6,4.9-0.8c1.7-0.2,3.3-0.3,5-0.3s3.3,0.1,5,0.3c1.7,0.2,3.3,0.4,4.9,0.8
	c1.6,0.3,3.3,0.8,4.8,1.3c1.6,0.5,3.2,1.1,4.7,1.8c1.5,0.7,3,1.4,4.5,2.3c1.5,0.8,2.9,1.7,4.3,2.7c1.4,1,2.7,2,4,3.2
	c1.3,1.1,2.5,2.3,3.7,3.6c1.2,1.3,2.3,2.6,3.4,3.9c1.1,1.4,2.1,2.8,3,4.3s1.8,3,2.6,4.5c0.8,1.6,1.5,3.2,2.1,4.8
	c0.6,1.6,1.2,3.3,1.7,5s0.9,3.4,1.2,5.1s0.6,3.5,0.7,5.2C857.4,437,857.5,438.7,857.5,440.5z"/>
</svg>
