<?xml version="1.0" encoding="UTF-8"?><svg xmlns="http://www.w3.org/2000/svg" xmlns:xlink="http://www.w3.org/1999/xlink" contentScriptType="text/ecmascript" width="1440" zoomAndPan="magnify" contentStyleType="text/css" viewBox="0 0 1440 809.999993" height="809.999993" preserveAspectRatio="xMidYMid meet" version="1.0"><defs><clipPath id="clip-0"><path d="M 337.75 22.75 L 1102 22.75 L 1102 787 L 337.75 787 Z M 337.75 22.75 " clip-rule="nonzero"/></clipPath></defs><g clip-path="url(#clip-0)"><path fill="rgb(44.709778%, 53.729248%, 85.488892%)" d="M 452.386719 22.75 L 987.363281 22.75 C 989.238281 22.75 991.113281 22.796875 992.988281 22.886719 C 994.863281 22.980469 996.730469 23.117188 998.597656 23.300781 C 1000.464844 23.484375 1002.328125 23.714844 1004.183594 23.992188 C 1006.039062 24.265625 1007.886719 24.585938 1009.726562 24.953125 C 1011.566406 25.320312 1013.398438 25.730469 1015.21875 26.1875 C 1017.035156 26.640625 1018.84375 27.140625 1020.640625 27.6875 C 1022.433594 28.230469 1024.214844 28.820312 1025.984375 29.453125 C 1027.75 30.082031 1029.5 30.757812 1031.230469 31.476562 C 1032.964844 32.195312 1034.679688 32.953125 1036.375 33.757812 C 1038.070312 34.558594 1039.746094 35.402344 1041.402344 36.285156 C 1043.058594 37.171875 1044.6875 38.09375 1046.296875 39.058594 C 1047.90625 40.023438 1049.492188 41.027344 1051.050781 42.070312 C 1052.613281 43.113281 1054.144531 44.191406 1055.652344 45.308594 C 1057.160156 46.425781 1058.636719 47.582031 1060.085938 48.773438 C 1061.539062 49.960938 1062.957031 51.1875 1064.347656 52.445312 C 1065.738281 53.707031 1067.097656 55 1068.421875 56.328125 C 1069.75 57.652344 1071.042969 59.011719 1072.304688 60.402344 C 1073.5625 61.792969 1074.789062 63.210938 1075.976562 64.664062 C 1077.167969 66.113281 1078.324219 67.589844 1079.441406 69.097656 C 1080.558594 70.605469 1081.636719 72.136719 1082.679688 73.699219 C 1083.722656 75.257812 1084.726562 76.84375 1085.691406 78.453125 C 1086.65625 80.0625 1087.578125 81.691406 1088.464844 83.347656 C 1089.347656 85.003906 1090.191406 86.675781 1090.992188 88.375 C 1091.796875 90.070312 1092.554688 91.785156 1093.273438 93.519531 C 1093.992188 95.25 1094.667969 97 1095.296875 98.765625 C 1095.929688 100.535156 1096.519531 102.316406 1097.0625 104.109375 C 1097.609375 105.90625 1098.109375 107.714844 1098.5625 109.53125 C 1099.019531 111.351562 1099.429688 113.183594 1099.796875 115.023438 C 1100.164062 116.863281 1100.484375 118.710938 1100.757812 120.566406 C 1101.035156 122.421875 1101.265625 124.285156 1101.449219 126.152344 C 1101.632812 128.019531 1101.769531 129.886719 1101.863281 131.761719 C 1101.953125 133.636719 1102 135.511719 1102 137.386719 L 1102 672.363281 C 1102 674.238281 1101.953125 676.113281 1101.863281 677.988281 C 1101.769531 679.863281 1101.632812 681.730469 1101.449219 683.597656 C 1101.265625 685.464844 1101.035156 687.328125 1100.757812 689.183594 C 1100.484375 691.039062 1100.164062 692.886719 1099.796875 694.726562 C 1099.429688 696.566406 1099.019531 698.398438 1098.5625 700.21875 C 1098.109375 702.035156 1097.609375 703.84375 1097.0625 705.640625 C 1096.519531 707.433594 1095.929688 709.214844 1095.296875 710.984375 C 1094.667969 712.75 1093.992188 714.5 1093.273438 716.230469 C 1092.554688 717.964844 1091.796875 719.679688 1090.992188 721.375 C 1090.191406 723.070312 1089.347656 724.746094 1088.464844 726.402344 C 1087.578125 728.058594 1086.65625 729.6875 1085.691406 731.296875 C 1084.726562 732.90625 1083.722656 734.492188 1082.679688 736.050781 C 1081.636719 737.613281 1080.558594 739.144531 1079.441406 740.652344 C 1078.324219 742.160156 1077.167969 743.636719 1075.976562 745.085938 C 1074.789062 746.539062 1073.5625 747.957031 1072.304688 749.347656 C 1071.042969 750.738281 1069.75 752.097656 1068.421875 753.421875 C 1067.097656 754.75 1065.738281 756.042969 1064.347656 757.304688 C 1062.957031 758.5625 1061.539062 759.789062 1060.085938 760.976562 C 1058.636719 762.167969 1057.160156 763.324219 1055.652344 764.441406 C 1054.144531 765.558594 1052.613281 766.636719 1051.050781 767.679688 C 1049.492188 768.722656 1047.90625 769.726562 1046.296875 770.691406 C 1044.6875 771.65625 1043.058594 772.578125 1041.402344 773.464844 C 1039.746094 774.347656 1038.070312 775.191406 1036.375 775.992188 C 1034.679688 776.796875 1032.964844 777.554688 1031.230469 778.273438 C 1029.5 778.992188 1027.75 779.667969 1025.984375 780.296875 C 1024.214844 780.929688 1022.433594 781.519531 1020.640625 782.0625 C 1018.84375 782.609375 1017.035156 783.109375 1015.21875 783.5625 C 1013.398438 784.019531 1011.566406 784.429688 1009.726562 784.796875 C 1007.886719 785.164062 1006.039062 785.484375 1004.183594 785.757812 C 1002.328125 786.035156 1000.464844 786.265625 998.597656 786.449219 C 996.730469 786.632812 994.863281 786.769531 992.988281 786.863281 C 991.113281 786.953125 989.238281 787 987.363281 787 L 452.386719 787 C 450.511719 787 448.636719 786.953125 446.761719 786.863281 C 444.886719 786.769531 443.019531 786.632812 441.152344 786.449219 C 439.285156 786.265625 437.421875 786.035156 435.566406 785.757812 C 433.710938 785.484375 431.863281 785.164062 430.023438 784.796875 C 428.183594 784.429688 426.351562 784.019531 424.53125 783.5625 C 422.714844 783.109375 420.90625 782.609375 419.109375 782.0625 C 417.316406 781.519531 415.535156 780.929688 413.765625 780.296875 C 412 779.667969 410.25 778.992188 408.519531 778.273438 C 406.785156 777.554688 405.070312 776.796875 403.375 775.992188 C 401.675781 775.191406 400.003906 774.347656 398.347656 773.464844 C 396.691406 772.578125 395.0625 771.65625 393.453125 770.691406 C 391.84375 769.726562 390.257812 768.722656 388.699219 767.679688 C 387.136719 766.636719 385.605469 765.558594 384.097656 764.441406 C 382.589844 763.324219 381.113281 762.167969 379.664062 760.976562 C 378.210938 759.789062 376.792969 758.5625 375.402344 757.304688 C 374.011719 756.042969 372.652344 754.75 371.328125 753.421875 C 370 752.097656 368.707031 750.738281 367.445312 749.347656 C 366.1875 747.957031 364.960938 746.539062 363.773438 745.085938 C 362.582031 743.636719 361.425781 742.160156 360.308594 740.652344 C 359.191406 739.144531 358.113281 737.613281 357.070312 736.050781 C 356.027344 734.492188 355.023438 732.90625 354.058594 731.296875 C 353.09375 729.6875 352.171875 728.058594 351.285156 726.402344 C 350.402344 724.746094 349.558594 723.070312 348.757812 721.375 C 347.953125 719.679688 347.195312 717.964844 346.476562 716.230469 C 345.757812 714.5 345.082031 712.75 344.453125 710.984375 C 343.820312 709.214844 343.230469 707.433594 342.6875 705.640625 C 342.140625 703.84375 341.640625 702.035156 341.1875 700.21875 C 340.730469 698.398438 340.320312 696.566406 339.953125 694.726562 C 339.585938 692.886719 339.265625 691.039062 338.992188 689.183594 C 338.714844 687.328125 338.484375 685.464844 338.300781 683.597656 C 338.117188 681.730469 337.980469 679.863281 337.886719 677.988281 C 337.796875 676.113281 337.75 674.238281 337.75 672.363281 L 337.75 137.386719 C 337.75 135.511719 337.796875 133.636719 337.886719 131.761719 C 337.980469 129.886719 338.117188 128.019531 338.300781 126.152344 C 338.484375 124.285156 338.714844 122.421875 338.992188 120.566406 C 339.265625 118.710938 339.585938 116.863281 339.953125 115.023438 C 340.320312 113.183594 340.730469 111.351562 341.1875 109.53125 C 341.640625 107.714844 342.140625 105.90625 342.6875 104.109375 C 343.230469 102.316406 343.820312 100.535156 344.453125 98.765625 C 345.082031 97 345.757812 95.25 346.476562 93.519531 C 347.195312 91.785156 347.953125 90.070312 348.757812 88.375 C 349.558594 86.675781 350.402344 85.003906 351.285156 83.347656 C 352.171875 81.691406 353.09375 80.0625 354.058594 78.453125 C 355.023438 76.84375 356.027344 75.257812 357.070312 73.699219 C 358.113281 72.136719 359.191406 70.605469 360.308594 69.097656 C 361.425781 67.589844 362.582031 66.113281 363.773438 64.664062 C 364.960938 63.210938 366.1875 61.792969 367.445312 60.402344 C 368.707031 59.011719 370 57.652344 371.328125 56.328125 C 372.652344 55 374.011719 53.707031 375.402344 52.445312 C 376.792969 51.1875 378.210938 49.960938 379.664062 48.773438 C 381.113281 47.582031 382.589844 46.425781 384.097656 45.308594 C 385.605469 44.191406 387.136719 43.113281 388.699219 42.070312 C 390.257812 41.027344 391.84375 40.023438 393.453125 39.058594 C 395.0625 38.09375 396.691406 37.171875 398.347656 36.285156 C 400.003906 35.402344 401.675781 34.558594 403.375 33.757812 C 405.070312 32.953125 406.785156 32.195312 408.519531 31.476562 C 410.25 30.757812 412 30.082031 413.765625 29.453125 C 415.535156 28.820312 417.316406 28.230469 419.109375 27.6875 C 420.90625 27.140625 422.714844 26.640625 424.53125 26.1875 C 426.351562 25.730469 428.183594 25.320312 430.023438 24.953125 C 431.863281 24.585938 433.710938 24.265625 435.566406 23.992188 C 437.421875 23.714844 439.285156 23.484375 441.152344 23.300781 C 443.019531 23.117188 444.886719 22.980469 446.761719 22.886719 C 448.636719 22.796875 450.511719 22.75 452.386719 22.75 Z M 452.386719 22.75 " fill-opacity="1" fill-rule="nonzero"/></g><path fill="rgb(100%, 100%, 100%)" d="M 854.214844 607.878906 L 822.871094 570.5625 C 884.070312 554.140625 907.953125 512.347656 907.953125 512.347656 C 830.332031 585.488281 618.371094 588.472656 536.277344 512.347656 C 536.277344 512.347656 557.171875 551.15625 619.867188 570.5625 L 585.535156 607.878906 C 481.046875 606.386719 440.746094 536.230469 440.746094 536.230469 C 440.746094 380.992188 509.40625 257.101562 509.40625 257.101562 C 579.5625 207.84375 643.75 207.84375 643.75 207.84375 L 648.226562 213.8125 C 561.652344 237.695312 524.335938 276.503906 524.335938 276.503906 C 625.835938 207.84375 834.8125 213.8125 916.90625 276.503906 C 918.402344 275.011719 867.648438 234.710938 788.539062 213.8125 L 796 207.84375 C 796 207.84375 860.1875 207.84375 930.34375 257.101562 C 1000.496094 306.359375 999.003906 380.992188 999.003906 536.230469 C 999.003906 536.230469 958.703125 606.386719 854.214844 607.878906 Z M 854.214844 607.878906 " fill-opacity="1" fill-rule="nonzero"/><path fill="rgb(44.709778%, 53.729248%, 85.488892%)" d="M 679.574219 439.207031 C 679.574219 440.917969 679.492188 442.625 679.335938 444.328125 C 679.175781 446.03125 678.941406 447.71875 678.625 449.398438 C 678.3125 451.078125 677.921875 452.734375 677.453125 454.371094 C 676.984375 456.007812 676.441406 457.617188 675.824219 459.199219 C 675.207031 460.78125 674.515625 462.324219 673.757812 463.832031 C 672.996094 465.34375 672.167969 466.808594 671.269531 468.230469 C 670.375 469.652344 669.414062 471.027344 668.390625 472.347656 C 667.367188 473.671875 666.285156 474.9375 665.144531 476.148438 C 664.003906 477.359375 662.8125 478.503906 661.5625 479.589844 C 660.316406 480.675781 659.023438 481.695312 657.679688 482.644531 C 656.339844 483.597656 654.957031 484.472656 653.535156 485.28125 C 652.113281 486.085938 650.65625 486.820312 649.164062 487.472656 C 647.675781 488.128906 646.15625 488.703125 644.613281 489.199219 C 643.070312 489.695312 641.507812 490.113281 639.925781 490.445312 C 638.34375 490.78125 636.75 491.03125 635.144531 491.199219 C 633.535156 491.367188 631.925781 491.449219 630.3125 491.449219 C 628.699219 491.449219 627.089844 491.367188 625.484375 491.199219 C 623.878906 491.03125 622.285156 490.78125 620.703125 490.445312 C 619.121094 490.113281 617.558594 489.695312 616.015625 489.199219 C 614.472656 488.703125 612.953125 488.128906 611.464844 487.472656 C 609.972656 486.820312 608.515625 486.085938 607.09375 485.28125 C 605.671875 484.472656 604.289062 483.597656 602.949219 482.644531 C 601.605469 481.695312 600.3125 480.675781 599.066406 479.589844 C 597.816406 478.503906 596.625 477.359375 595.484375 476.148438 C 594.34375 474.9375 593.261719 473.671875 592.238281 472.347656 C 591.214844 471.027344 590.253906 469.652344 589.359375 468.230469 C 588.460938 466.808594 587.632812 465.34375 586.871094 463.832031 C 586.113281 462.324219 585.421875 460.78125 584.804688 459.199219 C 584.1875 457.617188 583.644531 456.007812 583.175781 454.371094 C 582.707031 452.734375 582.316406 451.078125 582.003906 449.398438 C 581.6875 447.71875 581.453125 446.03125 581.292969 444.328125 C 581.136719 442.625 581.054688 440.917969 581.054688 439.207031 C 581.054688 437.496094 581.136719 435.789062 581.292969 434.085938 C 581.453125 432.382812 581.6875 430.691406 582.003906 429.015625 C 582.316406 427.335938 582.707031 425.679688 583.175781 424.039062 C 583.644531 422.402344 584.1875 420.792969 584.804688 419.214844 C 585.421875 417.632812 586.113281 416.089844 586.871094 414.578125 C 587.632812 413.070312 588.460938 411.605469 589.359375 410.179688 C 590.253906 408.757812 591.214844 407.386719 592.238281 406.0625 C 593.261719 404.742188 594.34375 403.472656 595.484375 402.265625 C 596.625 401.054688 597.816406 399.90625 599.066406 398.820312 C 600.3125 397.734375 601.605469 396.71875 602.949219 395.765625 C 604.289062 394.816406 605.671875 393.9375 607.09375 393.132812 C 608.515625 392.324219 609.972656 391.59375 611.464844 390.941406 C 612.953125 390.285156 614.472656 389.710938 616.015625 389.210938 C 617.558594 388.714844 619.121094 388.300781 620.703125 387.964844 C 622.285156 387.632812 623.878906 387.382812 625.484375 387.214844 C 627.089844 387.046875 628.699219 386.964844 630.3125 386.964844 C 631.925781 386.964844 633.539062 387.046875 635.144531 387.214844 C 636.75 387.382812 638.34375 387.632812 639.925781 387.964844 C 641.507812 388.300781 643.070312 388.714844 644.613281 389.210938 C 646.15625 389.710938 647.675781 390.285156 649.164062 390.941406 C 650.65625 391.59375 652.113281 392.324219 653.535156 393.132812 C 654.957031 393.9375 656.339844 394.816406 657.679688 395.765625 C 659.023438 396.71875 660.316406 397.734375 661.5625 398.820312 C 662.8125 399.90625 664.003906 401.054688 665.144531 402.265625 C 666.285156 403.472656 667.367188 404.742188 668.390625 406.0625 C 669.414062 407.386719 670.375 408.757812 671.269531 410.179688 C 672.167969 411.605469 672.996094 413.070312 673.757812 414.578125 C 674.515625 416.089844 675.207031 417.632812 675.824219 419.214844 C 676.441406 420.792969 676.984375 422.402344 677.453125 424.039062 C 677.921875 425.679688 678.3125 427.335938 678.625 429.015625 C 678.941406 430.691406 679.175781 432.382812 679.335938 434.085938 C 679.492188 435.789062 679.574219 437.496094 679.574219 439.207031 Z M 679.574219 439.207031 " fill-opacity="1" fill-rule="nonzero"/><path fill="rgb(44.709778%, 53.729248%, 85.488892%)" d="M 852.722656 439.207031 C 852.722656 440.917969 852.644531 442.625 852.484375 444.328125 C 852.328125 446.03125 852.089844 447.71875 851.777344 449.398438 C 851.460938 451.078125 851.070312 452.734375 850.601562 454.371094 C 850.132812 456.007812 849.589844 457.617188 848.972656 459.199219 C 848.355469 460.78125 847.667969 462.324219 846.90625 463.832031 C 846.144531 465.34375 845.316406 466.808594 844.421875 468.230469 C 843.523438 469.652344 842.566406 471.027344 841.542969 472.347656 C 840.519531 473.671875 839.4375 474.9375 838.296875 476.148438 C 837.15625 477.359375 835.960938 478.503906 834.714844 479.589844 C 833.46875 480.675781 832.171875 481.695312 830.832031 482.644531 C 829.488281 483.597656 828.109375 484.472656 826.683594 485.28125 C 825.261719 486.085938 823.804688 486.820312 822.316406 487.472656 C 820.824219 488.128906 819.308594 488.703125 817.765625 489.199219 C 816.21875 489.695312 814.65625 490.113281 813.074219 490.445312 C 811.492188 490.78125 809.898438 491.03125 808.292969 491.199219 C 806.6875 491.367188 805.078125 491.449219 803.464844 491.449219 C 801.851562 491.449219 800.242188 491.367188 798.636719 491.199219 C 797.03125 491.03125 795.4375 490.78125 793.855469 490.445312 C 792.273438 490.113281 790.710938 489.695312 789.164062 489.199219 C 787.621094 488.703125 786.105469 488.128906 784.613281 487.472656 C 783.125 486.820312 781.667969 486.085938 780.246094 485.28125 C 778.820312 484.472656 777.441406 483.597656 776.097656 482.644531 C 774.757812 481.695312 773.460938 480.675781 772.214844 479.589844 C 770.96875 478.503906 769.773438 477.359375 768.632812 476.148438 C 767.492188 474.9375 766.410156 473.671875 765.386719 472.347656 C 764.363281 471.027344 763.402344 469.652344 762.507812 468.230469 C 761.613281 466.808594 760.785156 465.34375 760.023438 463.832031 C 759.261719 462.324219 758.574219 460.78125 757.957031 459.199219 C 757.339844 457.617188 756.796875 456.007812 756.328125 454.371094 C 755.859375 452.734375 755.46875 451.078125 755.152344 449.398438 C 754.839844 447.71875 754.601562 446.03125 754.445312 444.328125 C 754.285156 442.625 754.207031 440.917969 754.207031 439.207031 C 754.207031 437.496094 754.285156 435.789062 754.445312 434.085938 C 754.601562 432.382812 754.839844 430.691406 755.152344 429.015625 C 755.46875 427.335938 755.859375 425.679688 756.328125 424.039062 C 756.796875 422.402344 757.339844 420.792969 757.957031 419.214844 C 758.574219 417.632812 759.261719 416.089844 760.023438 414.578125 C 760.785156 413.070312 761.613281 411.605469 762.507812 410.179688 C 763.402344 408.757812 764.363281 407.386719 765.386719 406.0625 C 766.410156 404.742188 767.492188 403.472656 768.632812 402.265625 C 769.773438 401.054688 770.96875 399.90625 772.214844 398.820312 C 773.460938 397.734375 774.757812 396.71875 776.097656 395.765625 C 777.441406 394.816406 778.820312 393.9375 780.246094 393.132812 C 781.667969 392.324219 783.125 391.59375 784.613281 390.941406 C 786.105469 390.285156 787.621094 389.710938 789.164062 389.210938 C 790.710938 388.714844 792.273438 388.300781 793.855469 387.964844 C 795.4375 387.632812 797.03125 387.382812 798.636719 387.214844 C 800.242188 387.046875 801.851562 386.964844 803.464844 386.964844 C 805.078125 386.964844 806.6875 387.046875 808.292969 387.214844 C 809.898438 387.382812 811.492188 387.632812 813.074219 387.964844 C 814.65625 388.300781 816.21875 388.714844 817.765625 389.210938 C 819.308594 389.710938 820.824219 390.285156 822.316406 390.941406 C 823.804688 391.59375 825.261719 392.324219 826.683594 393.132812 C 828.109375 393.9375 829.488281 394.816406 830.832031 395.765625 C 832.171875 396.71875 833.46875 397.734375 834.714844 398.820312 C 835.960938 399.90625 837.15625 401.054688 838.296875 402.265625 C 839.4375 403.472656 840.519531 404.742188 841.542969 406.0625 C 842.566406 407.386719 843.523438 408.757812 844.421875 410.179688 C 845.316406 411.605469 846.144531 413.070312 846.90625 414.578125 C 847.667969 416.089844 848.355469 417.632812 848.972656 419.214844 C 849.589844 420.792969 850.132812 422.402344 850.601562 424.039062 C 851.070312 425.679688 851.460938 427.335938 851.777344 429.015625 C 852.089844 430.691406 852.328125 432.382812 852.484375 434.085938 C 852.644531 435.789062 852.722656 437.496094 852.722656 439.207031 Z M 852.722656 439.207031 " fill-opacity="1" fill-rule="nonzero"/></svg>