<?xml version="1.0" encoding="UTF-8"?>
<svg xmlns="http://www.w3.org/2000/svg" xmlns:xlink="http://www.w3.org/1999/xlink" width="1440pt" height="809.999993pt" viewBox="0 0 1440 809.999993" version="1.2">
<defs>
<clipPath id="clip1">
  <path d="M 285 81 L 1155 81 L 1155 723 L 285 723 Z M 285 81 "/>
</clipPath>
</defs>
<g id="surface1">
<g clip-path="url(#clip1)" clip-rule="nonzero">
<path style=" stroke:none;fill-rule:nonzero;fill:rgb(100%,51.759338%,0%);fill-opacity:1;" d="M 1034.035156 151.039062 C 958.832031 90.527344 839.863281 80.289062 834.804688 79.855469 C 826.867188 79.183594 819.324219 83.6875 816.082031 90.960938 C 815.847656 91.433594 813.238281 97.402344 810.355469 106.691406 C 860.085938 115.070312 921.1875 131.988281 976.484375 166.332031 C 985.332031 171.828125 988.058594 183.488281 982.570312 192.378906 C 979.015625 198.152344 972.8125 201.3125 966.492188 201.3125 C 963.097656 201.3125 959.660156 200.402344 956.539062 198.46875 C 861.507812 139.496094 742.773438 136.53125 719.945312 136.53125 C 697.113281 136.53125 578.34375 139.496094 483.390625 198.46875 C 474.503906 204 462.890625 201.234375 457.359375 192.378906 C 451.832031 183.488281 454.59375 171.867188 463.441406 166.332031 C 518.742188 132.027344 579.804688 115.070312 629.574219 106.691406 C 626.648438 97.363281 624.042969 91.433594 623.84375 90.960938 C 620.566406 83.6875 613.0625 79.101562 605.082031 79.894531 C 600.066406 80.289062 481.097656 90.527344 404.867188 151.90625 C 365.054688 188.703125 285.464844 404.035156 285.464844 590.195312 C 285.464844 593.476562 286.332031 596.714844 287.953125 599.5625 C 342.894531 696.121094 492.75 721.417969 526.917969 722.523438 C 527.113281 722.523438 527.3125 722.523438 527.507812 722.523438 C 533.550781 722.523438 539.242188 719.636719 542.796875 714.738281 L 577.355469 667.226562 C 484.179688 643.117188 436.585938 602.210938 433.820312 599.800781 C 426 592.882812 425.25 580.945312 432.160156 573.121094 C 439.074219 565.292969 450.960938 564.542969 458.78125 571.421875 C 459.925781 572.449219 547.574219 646.871094 719.945312 646.871094 C 892.632812 646.871094 980.277344 572.132812 981.148438 571.382812 C 988.96875 564.582031 1000.894531 565.292969 1007.769531 573.160156 C 1014.640625 580.984375 1013.890625 592.882812 1006.109375 599.757812 C 1003.34375 602.210938 955.75 643.078125 862.574219 667.1875 L 897.132812 714.695312 C 900.6875 719.597656 906.375 722.484375 912.417969 722.484375 C 912.617188 722.484375 912.816406 722.484375 913.011719 722.484375 C 947.179688 721.417969 1097.035156 696.121094 1151.976562 599.523438 C 1153.558594 596.675781 1154.425781 593.476562 1154.425781 590.195312 C 1154.425781 404.035156 1074.835938 188.703125 1034.035156 151.039062 Z M 597.144531 514.585938 C 560.648438 514.585938 531.023438 480.710938 531.023438 438.972656 C 531.023438 397.234375 560.609375 363.363281 597.144531 363.363281 C 633.679688 363.363281 663.265625 397.234375 663.265625 438.972656 C 663.265625 480.710938 633.679688 514.585938 597.144531 514.585938 Z M 842.746094 514.585938 C 806.25 514.585938 776.625 480.710938 776.625 438.972656 C 776.625 397.234375 806.210938 363.363281 842.746094 363.363281 C 879.242188 363.363281 908.863281 397.234375 908.863281 438.972656 C 908.863281 480.710938 879.242188 514.585938 842.746094 514.585938 Z M 842.746094 514.585938 "/>
</g>
</g>
</svg>
