<?xml version="1.0" encoding="UTF-8"?>
<svg xmlns="http://www.w3.org/2000/svg" xmlns:xlink="http://www.w3.org/1999/xlink" width="1440pt" height="809.999993pt" viewBox="0 0 1440 809.999993" version="1.2">
<defs>
<clipPath id="clip1">
  <path d="M 181 6.121094 L 1259 6.121094 L 1259 801 L 181 801 Z M 181 6.121094 "/>
</clipPath>
</defs>
<g id="surface1">
<g clip-path="url(#clip1)" clip-rule="nonzero">
<path style=" stroke:none;fill-rule:nonzero;fill:rgb(82.749939%,82.749939%,82.749939%);fill-opacity:1;" d="M 1109.433594 92.875 C 1016.222656 17.917969 868.773438 5.238281 862.503906 4.703125 C 852.664062 3.871094 843.316406 9.449219 839.300781 18.457031 C 839.007812 19.046875 835.777344 26.4375 832.203125 37.945312 C 893.835938 48.320312 969.570312 69.277344 1038.105469 111.820312 C 1049.074219 118.625 1052.449219 133.066406 1045.644531 144.082031 C 1041.238281 151.230469 1033.554688 155.148438 1025.722656 155.148438 C 1021.511719 155.148438 1017.253906 154.019531 1013.382812 151.621094 C 895.597656 78.578125 748.441406 74.90625 720.144531 74.90625 C 691.847656 74.90625 544.640625 78.578125 426.953125 151.621094 C 415.9375 158.476562 401.546875 155.046875 394.691406 144.082031 C 387.835938 133.066406 391.265625 118.671875 402.230469 111.820312 C 470.765625 69.324219 546.453125 48.320312 608.136719 37.945312 C 604.511719 26.390625 601.28125 19.046875 601.035156 18.457031 C 596.972656 9.449219 587.671875 3.769531 577.78125 4.75 C 571.566406 5.238281 424.113281 17.917969 329.628906 93.949219 C 280.285156 139.527344 181.640625 406.246094 181.640625 636.835938 C 181.640625 640.898438 182.714844 644.914062 184.722656 648.4375 C 252.820312 768.039062 438.554688 799.371094 480.902344 800.742188 C 481.144531 800.742188 481.390625 800.742188 481.636719 800.742188 C 489.125 800.742188 496.175781 797.167969 500.582031 791.097656 L 543.417969 732.253906 C 427.933594 702.386719 368.941406 651.71875 365.515625 648.730469 C 355.820312 640.164062 354.890625 625.378906 363.457031 615.6875 C 372.023438 605.992188 386.761719 605.0625 396.453125 613.582031 C 397.875 614.851562 506.503906 707.039062 720.144531 707.039062 C 934.175781 707.039062 1042.808594 614.460938 1043.882812 613.53125 C 1053.578125 605.109375 1068.359375 605.992188 1076.878906 615.734375 C 1085.398438 625.429688 1084.46875 640.164062 1074.824219 648.683594 C 1071.394531 651.71875 1012.40625 702.339844 896.921875 732.203125 L 939.757812 791.050781 C 944.164062 797.121094 951.210938 800.695312 958.703125 800.695312 C 958.945312 800.695312 959.191406 800.695312 959.4375 800.695312 C 1001.78125 799.371094 1187.519531 768.039062 1255.613281 648.390625 C 1257.574219 644.863281 1258.648438 640.898438 1258.648438 636.835938 C 1258.648438 406.246094 1160.003906 139.527344 1109.433594 92.875 Z M 567.941406 543.179688 C 522.707031 543.179688 485.992188 501.222656 485.992188 449.523438 C 485.992188 397.828125 522.660156 355.871094 567.941406 355.871094 C 613.226562 355.871094 649.894531 397.828125 649.894531 449.523438 C 649.894531 501.222656 613.226562 543.179688 567.941406 543.179688 Z M 872.34375 543.179688 C 827.109375 543.179688 790.394531 501.222656 790.394531 449.523438 C 790.394531 397.828125 827.0625 355.871094 872.34375 355.871094 C 917.578125 355.871094 954.296875 397.828125 954.296875 449.523438 C 954.296875 501.222656 917.578125 543.179688 872.34375 543.179688 Z M 872.34375 543.179688 "/>
</g>
</g>
</svg>
