<?xml version="1.0" encoding="UTF-8"?>
<svg xmlns="http://www.w3.org/2000/svg" xmlns:xlink="http://www.w3.org/1999/xlink" width="1440pt" height="809.999993pt" viewBox="0 0 1440 809.999993" version="1.2">
<defs>
<clipPath id="clip1">
  <path d="M 293.636719 111.34375 L 1146.386719 111.34375 L 1146.386719 698.59375 L 293.636719 698.59375 Z M 293.636719 111.34375 "/>
</clipPath>
</defs>
<g id="surface1">
<g clip-path="url(#clip1)" clip-rule="nonzero">
<path style=" stroke:none;fill-rule:nonzero;fill:rgb(0%,24.308777%,32.159424%);fill-opacity:1;" d="M 1124.445312 145.875 C 1124.007812 145.300781 1123.542969 144.742188 1123.019531 144.214844 C 1123.007812 144.203125 1122.992188 144.195312 1122.984375 144.183594 C 1105.53125 124.15625 1079.867188 111.457031 1051.277344 111.457031 L 388.75 111.457031 C 360.132812 111.457031 334.453125 124.175781 317.003906 144.234375 C 316.5 144.734375 316.050781 145.269531 315.628906 145.820312 C 301.90625 162.304688 293.640625 183.480469 293.640625 206.554688 L 293.640625 603.597656 C 293.640625 656.035156 336.304688 698.695312 388.75 698.695312 L 1051.28125 698.695312 C 1103.726562 698.695312 1146.394531 656.035156 1146.394531 603.597656 L 1146.394531 206.554688 C 1146.386719 183.507812 1138.140625 162.355469 1124.445312 145.875 Z M 1113.507812 206.554688 L 1113.507812 603.597656 C 1113.507812 611.039062 1112.1875 618.175781 1109.785156 624.792969 L 885.796875 404.648438 L 1108.457031 182.023438 C 1111.703125 189.554688 1113.507812 197.847656 1113.507812 206.554688 Z M 388.75 665.820312 C 373.914062 665.820312 360.28125 660.59375 349.574219 651.894531 L 577.484375 427.898438 L 665.039062 515.445312 C 679.722656 530.125 699.246094 538.210938 720.011719 538.210938 C 740.78125 538.210938 760.304688 530.128906 774.988281 515.445312 L 862.542969 427.898438 L 1090.449219 651.894531 C 1079.746094 660.59375 1066.113281 665.820312 1051.277344 665.820312 Z M 326.519531 603.597656 L 326.519531 206.554688 C 326.519531 197.847656 328.324219 189.554688 331.570312 182.023438 L 554.230469 404.652344 L 330.242188 624.792969 C 327.839844 618.175781 326.519531 611.039062 326.519531 603.597656 Z M 1051.277344 144.335938 C 1064.902344 144.335938 1077.511719 148.753906 1087.769531 156.207031 L 751.734375 492.195312 C 743.261719 500.667969 731.996094 505.332031 720.011719 505.332031 C 708.027344 505.332031 696.761719 500.667969 688.289062 492.195312 L 352.253906 156.207031 C 362.515625 148.753906 375.125 144.335938 388.746094 144.335938 Z M 1051.277344 144.335938 "/>
</g>
</g>
</svg>
