<?xml version="1.0" encoding="UTF-8"?>
<svg xmlns="http://www.w3.org/2000/svg" xmlns:xlink="http://www.w3.org/1999/xlink" width="1440pt" height="809.999993pt" viewBox="0 0 1440 809.999993" version="1.2">
<defs>
<clipPath id="clip1">
  <path d="M 467.261719 129.535156 L 972.761719 129.535156 L 972.761719 680.785156 L 467.261719 680.785156 Z M 467.261719 129.535156 "/>
</clipPath>
</defs>
<g id="surface1">
<g clip-path="url(#clip1)" clip-rule="nonzero">
<path style=" stroke:none;fill-rule:nonzero;fill:rgb(0%,45.098877%,53.329468%);fill-opacity:1;" d="M 524.878906 129.535156 C 523.121094 129.535156 521.363281 129.9375 519.746094 130.746094 L 501.921875 139.675781 L 484.101562 130.746094 C 480.542969 128.980469 476.332031 129.152344 472.9375 131.242188 C 469.5625 133.34375 467.488281 137.035156 467.488281 141.019531 L 467.488281 646.332031 C 467.488281 652.683594 472.628906 657.816406 478.964844 657.816406 L 839.660156 657.816406 C 835.722656 651.109375 832.152344 643.578125 829.191406 634.847656 L 490.445312 634.847656 L 490.445312 159.59375 L 496.789062 162.777344 C 500.015625 164.398438 503.820312 164.398438 507.058594 162.777344 L 524.878906 153.851562 L 542.703125 162.777344 C 545.929688 164.398438 549.734375 164.398438 552.96875 162.777344 L 570.792969 153.851562 L 588.617188 162.777344 C 591.839844 164.398438 595.648438 164.398438 598.882812 162.777344 L 616.707031 153.851562 L 634.53125 162.777344 C 637.753906 164.398438 641.558594 164.398438 644.796875 162.777344 L 662.621094 153.851562 L 680.441406 162.777344 C 683.667969 164.398438 687.472656 164.398438 690.710938 162.777344 L 708.535156 153.851562 L 726.355469 162.777344 C 729.582031 164.398438 733.386719 164.398438 736.625 162.777344 L 754.445312 153.851562 L 772.269531 162.777344 C 775.496094 164.398438 779.300781 164.398438 782.539062 162.777344 L 800.359375 153.851562 L 818.183594 162.777344 C 821.410156 164.398438 825.214844 164.398438 828.449219 162.777344 L 846.273438 153.851562 L 864.097656 162.777344 C 867.320312 164.398438 871.128906 164.398438 874.363281 162.777344 L 880.707031 159.59375 L 880.707031 460.742188 C 887.871094 457.253906 895.503906 454.679688 903.664062 453.164062 L 903.664062 141.019531 C 903.664062 137.035156 901.59375 133.34375 898.21875 131.242188 C 894.820312 129.140625 890.601562 128.980469 887.054688 130.746094 L 869.230469 139.675781 L 851.40625 130.746094 C 848.183594 129.128906 844.375 129.128906 841.140625 130.746094 L 823.316406 139.675781 L 805.492188 130.746094 C 802.269531 129.128906 798.464844 129.128906 795.226562 130.746094 L 777.402344 139.675781 L 759.582031 130.746094 C 756.355469 129.128906 752.550781 129.128906 749.3125 130.746094 L 731.488281 139.675781 L 713.667969 130.746094 C 710.441406 129.128906 706.636719 129.128906 703.398438 130.746094 L 685.578125 139.675781 L 667.753906 130.746094 C 664.527344 129.128906 660.722656 129.128906 657.484375 130.746094 L 639.664062 139.675781 L 621.839844 130.746094 C 618.617188 129.128906 614.808594 129.128906 611.574219 130.746094 L 593.75 139.675781 L 575.925781 130.746094 C 572.703125 129.128906 568.898438 129.128906 565.660156 130.746094 L 547.835938 139.675781 L 530.015625 130.746094 C 528.402344 129.9375 526.640625 129.535156 524.878906 129.535156 Z M 547.835938 232.894531 C 547.078125 232.882812 546.320312 232.949219 545.574219 233.089844 C 544.828125 233.226562 544.101562 233.4375 543.394531 233.722656 C 542.6875 234.007812 542.019531 234.355469 541.382812 234.773438 C 540.746094 235.191406 540.15625 235.667969 539.613281 236.203125 C 539.074219 236.734375 538.589844 237.316406 538.164062 237.949219 C 537.738281 238.578125 537.378906 239.246094 537.085938 239.945312 C 536.792969 240.648438 536.570312 241.375 536.417969 242.121094 C 536.269531 242.867188 536.195312 243.617188 536.195312 244.378906 C 536.195312 245.140625 536.269531 245.894531 536.417969 246.640625 C 536.570312 247.386719 536.792969 248.109375 537.085938 248.8125 C 537.378906 249.515625 537.738281 250.179688 538.164062 250.8125 C 538.589844 251.441406 539.074219 252.023438 539.613281 252.558594 C 540.15625 253.09375 540.746094 253.570312 541.382812 253.984375 C 542.019531 254.402344 542.6875 254.753906 543.394531 255.035156 C 544.101562 255.320312 544.828125 255.53125 545.574219 255.671875 C 546.320312 255.8125 547.078125 255.875 547.835938 255.863281 L 720.011719 255.863281 C 720.773438 255.875 721.527344 255.8125 722.273438 255.671875 C 723.023438 255.53125 723.75 255.320312 724.453125 255.035156 C 725.160156 254.753906 725.832031 254.402344 726.46875 253.984375 C 727.101562 253.570312 727.691406 253.09375 728.234375 252.558594 C 728.773438 252.023438 729.257812 251.441406 729.683594 250.8125 C 730.109375 250.179688 730.46875 249.515625 730.765625 248.8125 C 731.058594 248.109375 731.277344 247.386719 731.429688 246.640625 C 731.578125 245.894531 731.652344 245.140625 731.652344 244.378906 C 731.652344 243.617188 731.578125 242.867188 731.429688 242.121094 C 731.277344 241.375 731.058594 240.648438 730.765625 239.945312 C 730.46875 239.246094 730.109375 238.578125 729.683594 237.949219 C 729.257812 237.316406 728.773438 236.734375 728.234375 236.203125 C 727.691406 235.667969 727.101562 235.191406 726.46875 234.773438 C 725.832031 234.355469 725.160156 234.007812 724.453125 233.722656 C 723.75 233.4375 723.023438 233.226562 722.273438 233.089844 C 721.527344 232.949219 720.773438 232.882812 720.011719 232.894531 Z M 788.882812 232.894531 C 788.121094 232.882812 787.367188 232.949219 786.621094 233.089844 C 785.871094 233.226562 785.144531 233.4375 784.4375 233.722656 C 783.734375 234.007812 783.0625 234.355469 782.425781 234.773438 C 781.789062 235.191406 781.203125 235.667969 780.660156 236.203125 C 780.117188 236.734375 779.632812 237.316406 779.207031 237.949219 C 778.78125 238.578125 778.421875 239.246094 778.128906 239.945312 C 777.835938 240.648438 777.613281 241.375 777.464844 242.121094 C 777.316406 242.867188 777.242188 243.617188 777.242188 244.378906 C 777.242188 245.140625 777.316406 245.894531 777.464844 246.640625 C 777.613281 247.386719 777.835938 248.109375 778.128906 248.8125 C 778.421875 249.515625 778.78125 250.179688 779.207031 250.8125 C 779.636719 251.441406 780.117188 252.023438 780.660156 252.558594 C 781.203125 253.09375 781.789062 253.570312 782.425781 253.984375 C 783.0625 254.402344 783.734375 254.753906 784.4375 255.035156 C 785.144531 255.320312 785.871094 255.53125 786.621094 255.671875 C 787.367188 255.8125 788.121094 255.875 788.882812 255.863281 L 823.316406 255.863281 C 824.078125 255.875 824.832031 255.8125 825.578125 255.671875 C 826.328125 255.53125 827.054688 255.320312 827.757812 255.035156 C 828.464844 254.753906 829.136719 254.402344 829.773438 253.984375 C 830.410156 253.570312 830.996094 253.09375 831.539062 252.558594 C 832.082031 252.023438 832.5625 251.441406 832.988281 250.8125 C 833.414062 250.179688 833.777344 249.515625 834.070312 248.8125 C 834.363281 248.109375 834.585938 247.386719 834.734375 246.640625 C 834.882812 245.894531 834.957031 245.140625 834.957031 244.378906 C 834.957031 243.617188 834.882812 242.867188 834.734375 242.121094 C 834.585938 241.375 834.363281 240.648438 834.070312 239.945312 C 833.777344 239.246094 833.414062 238.578125 832.988281 237.949219 C 832.5625 237.316406 832.082031 236.734375 831.539062 236.203125 C 830.996094 235.667969 830.410156 235.191406 829.773438 234.773438 C 829.136719 234.355469 828.464844 234.007812 827.757812 233.722656 C 827.054688 233.4375 826.328125 233.226562 825.578125 233.089844 C 824.832031 232.949219 824.078125 232.882812 823.316406 232.894531 Z M 547.835938 301.800781 C 547.078125 301.789062 546.320312 301.855469 545.574219 301.996094 C 544.828125 302.132812 544.101562 302.34375 543.394531 302.628906 C 542.6875 302.914062 542.015625 303.261719 541.382812 303.679688 C 540.746094 304.097656 540.15625 304.574219 539.613281 305.105469 C 539.074219 305.640625 538.589844 306.222656 538.164062 306.855469 C 537.738281 307.484375 537.378906 308.152344 537.085938 308.851562 C 536.789062 309.554688 536.570312 310.28125 536.417969 311.027344 C 536.269531 311.773438 536.195312 312.523438 536.195312 313.285156 C 536.195312 314.046875 536.269531 314.800781 536.417969 315.546875 C 536.570312 316.292969 536.789062 317.015625 537.085938 317.71875 C 537.378906 318.421875 537.738281 319.085938 538.164062 319.71875 C 538.589844 320.347656 539.074219 320.929688 539.613281 321.464844 C 540.15625 322 540.746094 322.476562 541.382812 322.890625 C 542.015625 323.308594 542.6875 323.660156 543.394531 323.945312 C 544.101562 324.226562 544.828125 324.4375 545.574219 324.578125 C 546.320312 324.71875 547.078125 324.78125 547.835938 324.769531 L 674.097656 324.769531 C 674.859375 324.78125 675.613281 324.71875 676.359375 324.578125 C 677.109375 324.4375 677.835938 324.226562 678.542969 323.945312 C 679.246094 323.660156 679.917969 323.308594 680.554688 322.890625 C 681.191406 322.476562 681.777344 322 682.320312 321.464844 C 682.863281 320.929688 683.347656 320.347656 683.773438 319.71875 C 684.199219 319.085938 684.558594 318.421875 684.851562 317.71875 C 685.144531 317.015625 685.367188 316.292969 685.515625 315.546875 C 685.664062 314.800781 685.742188 314.046875 685.742188 313.285156 C 685.742188 312.523438 685.664062 311.773438 685.515625 311.027344 C 685.367188 310.28125 685.144531 309.554688 684.851562 308.851562 C 684.558594 308.152344 684.199219 307.484375 683.773438 306.855469 C 683.347656 306.222656 682.863281 305.640625 682.320312 305.105469 C 681.777344 304.574219 681.191406 304.097656 680.554688 303.679688 C 679.917969 303.261719 679.246094 302.914062 678.542969 302.628906 C 677.835938 302.34375 677.109375 302.132812 676.359375 301.996094 C 675.613281 301.855469 674.859375 301.789062 674.097656 301.800781 Z M 788.882812 301.800781 C 788.121094 301.789062 787.367188 301.855469 786.621094 301.996094 C 785.871094 302.132812 785.144531 302.34375 784.4375 302.628906 C 783.734375 302.914062 783.0625 303.261719 782.425781 303.679688 C 781.789062 304.097656 781.203125 304.574219 780.660156 305.105469 C 780.117188 305.640625 779.632812 306.222656 779.207031 306.855469 C 778.78125 307.484375 778.421875 308.152344 778.128906 308.851562 C 777.835938 309.554688 777.613281 310.28125 777.464844 311.027344 C 777.316406 311.773438 777.238281 312.523438 777.238281 313.285156 C 777.238281 314.046875 777.316406 314.800781 777.464844 315.546875 C 777.613281 316.292969 777.835938 317.015625 778.128906 317.71875 C 778.421875 318.421875 778.78125 319.085938 779.207031 319.71875 C 779.632812 320.347656 780.117188 320.929688 780.660156 321.464844 C 781.203125 322 781.789062 322.476562 782.425781 322.890625 C 783.0625 323.308594 783.734375 323.660156 784.4375 323.945312 C 785.144531 324.226562 785.871094 324.4375 786.621094 324.578125 C 787.367188 324.71875 788.121094 324.78125 788.882812 324.769531 L 823.316406 324.769531 C 824.078125 324.78125 824.832031 324.71875 825.578125 324.578125 C 826.328125 324.4375 827.054688 324.226562 827.757812 323.945312 C 828.464844 323.660156 829.136719 323.308594 829.773438 322.890625 C 830.410156 322.476562 830.996094 322 831.539062 321.464844 C 832.082031 320.929688 832.5625 320.347656 832.988281 319.71875 C 833.417969 319.085938 833.777344 318.421875 834.070312 317.71875 C 834.363281 317.015625 834.585938 316.292969 834.734375 315.546875 C 834.882812 314.800781 834.957031 314.046875 834.957031 313.285156 C 834.957031 312.523438 834.882812 311.773438 834.734375 311.027344 C 834.585938 310.28125 834.363281 309.554688 834.070312 308.851562 C 833.777344 308.152344 833.417969 307.484375 832.988281 306.855469 C 832.5625 306.222656 832.082031 305.640625 831.539062 305.105469 C 830.996094 304.574219 830.410156 304.097656 829.773438 303.679688 C 829.136719 303.261719 828.464844 302.914062 827.757812 302.628906 C 827.054688 302.34375 826.328125 302.132812 825.578125 301.996094 C 824.832031 301.855469 824.078125 301.789062 823.316406 301.800781 Z M 547.835938 370.707031 C 547.078125 370.695312 546.320312 370.761719 545.574219 370.902344 C 544.828125 371.039062 544.101562 371.25 543.394531 371.535156 C 542.6875 371.820312 542.015625 372.167969 541.382812 372.585938 C 540.746094 373.003906 540.15625 373.480469 539.613281 374.011719 C 539.074219 374.546875 538.589844 375.128906 538.164062 375.761719 C 537.738281 376.390625 537.378906 377.058594 537.085938 377.757812 C 536.789062 378.460938 536.570312 379.1875 536.417969 379.933594 C 536.269531 380.679688 536.195312 381.429688 536.195312 382.191406 C 536.195312 382.953125 536.269531 383.707031 536.417969 384.453125 C 536.570312 385.199219 536.789062 385.921875 537.085938 386.625 C 537.378906 387.328125 537.738281 387.992188 538.164062 388.625 C 538.589844 389.253906 539.074219 389.835938 539.613281 390.371094 C 540.15625 390.90625 540.746094 391.382812 541.382812 391.796875 C 542.015625 392.214844 542.6875 392.566406 543.394531 392.851562 C 544.101562 393.132812 544.828125 393.34375 545.574219 393.484375 C 546.320312 393.625 547.078125 393.6875 547.835938 393.675781 L 720.011719 393.675781 C 720.773438 393.6875 721.527344 393.625 722.273438 393.484375 C 723.023438 393.34375 723.75 393.132812 724.453125 392.851562 C 725.160156 392.566406 725.832031 392.214844 726.46875 391.796875 C 727.101562 391.382812 727.691406 390.90625 728.234375 390.371094 C 728.777344 389.835938 729.257812 389.253906 729.683594 388.625 C 730.109375 387.992188 730.472656 387.328125 730.765625 386.625 C 731.058594 385.921875 731.28125 385.199219 731.429688 384.453125 C 731.578125 383.707031 731.652344 382.953125 731.652344 382.191406 C 731.652344 381.429688 731.578125 380.679688 731.429688 379.933594 C 731.28125 379.1875 731.058594 378.460938 730.765625 377.757812 C 730.472656 377.058594 730.109375 376.390625 729.683594 375.761719 C 729.257812 375.128906 728.777344 374.546875 728.234375 374.011719 C 727.691406 373.480469 727.101562 373.003906 726.46875 372.585938 C 725.832031 372.167969 725.160156 371.820312 724.453125 371.535156 C 723.75 371.25 723.023438 371.039062 722.273438 370.902344 C 721.527344 370.761719 720.773438 370.695312 720.011719 370.707031 Z M 788.882812 370.707031 C 788.121094 370.695312 787.367188 370.761719 786.621094 370.902344 C 785.871094 371.039062 785.144531 371.25 784.4375 371.535156 C 783.734375 371.820312 783.0625 372.167969 782.425781 372.585938 C 781.789062 373.003906 781.203125 373.480469 780.660156 374.011719 C 780.117188 374.546875 779.632812 375.128906 779.207031 375.761719 C 778.78125 376.390625 778.421875 377.058594 778.128906 377.757812 C 777.835938 378.460938 777.613281 379.1875 777.464844 379.933594 C 777.316406 380.679688 777.238281 381.429688 777.238281 382.191406 C 777.238281 382.953125 777.316406 383.707031 777.464844 384.453125 C 777.613281 385.199219 777.835938 385.921875 778.128906 386.625 C 778.421875 387.328125 778.78125 387.992188 779.207031 388.625 C 779.632812 389.253906 780.117188 389.835938 780.660156 390.371094 C 781.203125 390.90625 781.789062 391.382812 782.425781 391.796875 C 783.0625 392.214844 783.734375 392.566406 784.4375 392.851562 C 785.144531 393.132812 785.871094 393.34375 786.621094 393.484375 C 787.367188 393.625 788.121094 393.6875 788.882812 393.675781 L 823.316406 393.675781 C 824.078125 393.6875 824.832031 393.625 825.578125 393.484375 C 826.328125 393.34375 827.054688 393.132812 827.757812 392.851562 C 828.464844 392.566406 829.136719 392.214844 829.773438 391.796875 C 830.410156 391.382812 830.996094 390.90625 831.539062 390.371094 C 832.082031 389.835938 832.5625 389.253906 832.988281 388.625 C 833.417969 387.992188 833.777344 387.328125 834.070312 386.625 C 834.363281 385.921875 834.585938 385.199219 834.734375 384.453125 C 834.882812 383.707031 834.957031 382.953125 834.957031 382.191406 C 834.957031 381.429688 834.882812 380.679688 834.734375 379.933594 C 834.585938 379.1875 834.363281 378.460938 834.070312 377.757812 C 833.777344 377.058594 833.417969 376.390625 832.988281 375.761719 C 832.5625 375.128906 832.082031 374.546875 831.539062 374.011719 C 830.996094 373.480469 830.410156 373.003906 829.773438 372.585938 C 829.136719 372.167969 828.464844 371.820312 827.757812 371.535156 C 827.054688 371.25 826.328125 371.039062 825.578125 370.902344 C 824.832031 370.761719 824.078125 370.695312 823.316406 370.707031 Z M 547.835938 439.613281 C 547.078125 439.601562 546.320312 439.667969 545.574219 439.808594 C 544.828125 439.945312 544.101562 440.15625 543.394531 440.441406 C 542.6875 440.726562 542.015625 441.074219 541.382812 441.492188 C 540.746094 441.910156 540.15625 442.386719 539.613281 442.917969 C 539.074219 443.453125 538.589844 444.035156 538.164062 444.667969 C 537.738281 445.296875 537.378906 445.964844 537.085938 446.664062 C 536.789062 447.367188 536.570312 448.09375 536.417969 448.839844 C 536.269531 449.585938 536.195312 450.335938 536.195312 451.097656 C 536.195312 451.859375 536.269531 452.613281 536.417969 453.359375 C 536.570312 454.105469 536.789062 454.828125 537.085938 455.53125 C 537.378906 456.234375 537.738281 456.898438 538.164062 457.53125 C 538.589844 458.160156 539.074219 458.742188 539.613281 459.277344 C 540.15625 459.8125 540.746094 460.289062 541.382812 460.703125 C 542.015625 461.121094 542.6875 461.472656 543.394531 461.757812 C 544.101562 462.039062 544.828125 462.25 545.574219 462.390625 C 546.320312 462.53125 547.078125 462.59375 547.835938 462.582031 L 674.097656 462.582031 C 674.859375 462.59375 675.613281 462.53125 676.359375 462.390625 C 677.109375 462.25 677.835938 462.039062 678.542969 461.757812 C 679.246094 461.472656 679.917969 461.121094 680.554688 460.703125 C 681.191406 460.289062 681.777344 459.8125 682.320312 459.277344 C 682.863281 458.742188 683.347656 458.160156 683.773438 457.53125 C 684.199219 456.898438 684.558594 456.234375 684.851562 455.53125 C 685.144531 454.828125 685.367188 454.105469 685.515625 453.359375 C 685.664062 452.613281 685.742188 451.859375 685.742188 451.097656 C 685.742188 450.335938 685.664062 449.585938 685.515625 448.839844 C 685.367188 448.09375 685.144531 447.367188 684.851562 446.664062 C 684.558594 445.964844 684.199219 445.296875 683.773438 444.667969 C 683.347656 444.035156 682.863281 443.453125 682.320312 442.917969 C 681.777344 442.386719 681.191406 441.910156 680.554688 441.492188 C 679.917969 441.074219 679.246094 440.726562 678.542969 440.441406 C 677.835938 440.15625 677.109375 439.945312 676.359375 439.808594 C 675.613281 439.667969 674.859375 439.601562 674.097656 439.613281 Z M 788.882812 439.613281 C 788.121094 439.601562 787.367188 439.667969 786.621094 439.808594 C 785.871094 439.945312 785.144531 440.15625 784.4375 440.441406 C 783.734375 440.726562 783.0625 441.074219 782.425781 441.492188 C 781.789062 441.910156 781.203125 442.386719 780.660156 442.917969 C 780.117188 443.453125 779.632812 444.035156 779.207031 444.667969 C 778.78125 445.296875 778.421875 445.964844 778.128906 446.664062 C 777.835938 447.367188 777.613281 448.09375 777.464844 448.839844 C 777.316406 449.585938 777.238281 450.335938 777.238281 451.097656 C 777.238281 451.859375 777.316406 452.613281 777.464844 453.359375 C 777.613281 454.105469 777.835938 454.828125 778.128906 455.53125 C 778.421875 456.234375 778.78125 456.898438 779.207031 457.53125 C 779.632812 458.160156 780.117188 458.742188 780.660156 459.277344 C 781.203125 459.8125 781.789062 460.289062 782.425781 460.703125 C 783.0625 461.121094 783.734375 461.472656 784.4375 461.757812 C 785.144531 462.039062 785.871094 462.25 786.621094 462.390625 C 787.367188 462.53125 788.121094 462.59375 788.882812 462.582031 L 823.316406 462.582031 C 824.078125 462.59375 824.832031 462.53125 825.578125 462.390625 C 826.328125 462.25 827.054688 462.039062 827.757812 461.757812 C 828.464844 461.472656 829.136719 461.121094 829.773438 460.703125 C 830.410156 460.289062 830.996094 459.8125 831.539062 459.277344 C 832.082031 458.742188 832.5625 458.160156 832.988281 457.53125 C 833.417969 456.898438 833.777344 456.234375 834.070312 455.53125 C 834.363281 454.828125 834.585938 454.105469 834.734375 453.359375 C 834.882812 452.613281 834.957031 451.859375 834.957031 451.097656 C 834.957031 450.335938 834.882812 449.585938 834.734375 448.839844 C 834.585938 448.09375 834.363281 447.367188 834.070312 446.664062 C 833.777344 445.964844 833.417969 445.296875 832.988281 444.667969 C 832.5625 444.035156 832.082031 443.453125 831.539062 442.917969 C 830.996094 442.386719 830.410156 441.910156 829.773438 441.492188 C 829.136719 441.074219 828.464844 440.726562 827.757812 440.441406 C 827.054688 440.15625 826.328125 439.945312 825.578125 439.808594 C 824.832031 439.667969 824.078125 439.601562 823.316406 439.613281 Z M 922.988281 474.382812 C 901.457031 474.382812 883.832031 481.902344 870.128906 496.96875 C 859.421875 508.527344 851.90625 524.015625 847.214844 542.972656 L 832.777344 542.972656 L 823.316406 565.941406 L 843.851562 565.941406 C 843.671875 568.914062 843.382812 571.160156 843.382812 574.871094 C 843.382812 580.542969 843.59375 584.871094 843.785156 588.910156 L 832.777344 588.910156 L 823.316406 611.878906 L 846.835938 611.878906 C 856.621094 657.617188 881.875 680.785156 922.988281 680.785156 C 938.863281 680.785156 952.914062 676.777344 965.136719 668.785156 L 965.136719 639.492188 C 957.46875 646.738281 951.183594 651.667969 946.261719 654.273438 C 939.511719 657.800781 931.757812 659.566406 922.988281 659.566406 C 897.460938 659.566406 880.960938 643.601562 873.398438 611.878906 L 942.40625 611.878906 L 952.269531 588.910156 L 869.949219 588.910156 C 869.589844 584.570312 869.207031 579.707031 869.207031 574.871094 C 869.207031 571.863281 869.378906 568.824219 869.613281 565.941406 L 942.40625 565.941406 L 952.269531 542.972656 L 873.488281 542.972656 C 876.628906 531.265625 881.019531 521.414062 886.828125 513.679688 C 895.792969 501.769531 907.097656 495.824219 920.792969 495.824219 C 934.109375 495.824219 947.183594 502.242188 959.957031 515.070312 L 972.535156 491.96875 C 956.109375 480.242188 939.597656 474.382812 922.988281 474.382812 Z M 547.835938 508.519531 C 547.082031 508.519531 546.335938 508.59375 545.597656 508.742188 C 544.859375 508.886719 544.140625 509.105469 543.445312 509.394531 C 542.746094 509.683594 542.085938 510.035156 541.460938 510.457031 C 540.832031 510.875 540.253906 511.351562 539.71875 511.882812 C 539.1875 512.417969 538.710938 512.996094 538.292969 513.625 C 537.875 514.25 537.519531 514.914062 537.230469 515.609375 C 536.945312 516.304688 536.726562 517.023438 536.578125 517.765625 C 536.433594 518.503906 536.359375 519.25 536.359375 520.003906 C 536.359375 520.757812 536.433594 521.503906 536.578125 522.246094 C 536.726562 522.984375 536.945312 523.703125 537.230469 524.398438 C 537.519531 525.097656 537.875 525.757812 538.292969 526.386719 C 538.710938 527.011719 539.1875 527.59375 539.71875 528.125 C 540.253906 528.660156 540.832031 529.132812 541.460938 529.554688 C 542.085938 529.972656 542.746094 530.328125 543.445312 530.613281 C 544.140625 530.902344 544.859375 531.121094 545.597656 531.269531 C 546.335938 531.414062 547.082031 531.488281 547.835938 531.488281 C 548.589844 531.488281 549.335938 531.414062 550.074219 531.269531 C 550.816406 531.121094 551.53125 530.902344 552.230469 530.613281 C 552.925781 530.328125 553.585938 529.972656 554.214844 529.554688 C 554.839844 529.132812 555.421875 528.660156 555.953125 528.125 C 556.484375 527.59375 556.960938 527.011719 557.378906 526.386719 C 557.800781 525.757812 558.152344 525.097656 558.441406 524.398438 C 558.730469 523.703125 558.949219 522.984375 559.09375 522.246094 C 559.242188 521.503906 559.316406 520.757812 559.316406 520.003906 C 559.316406 519.25 559.242188 518.503906 559.09375 517.765625 C 558.949219 517.023438 558.730469 516.304688 558.441406 515.609375 C 558.152344 514.914062 557.800781 514.25 557.378906 513.625 C 556.960938 512.996094 556.484375 512.417969 555.953125 511.882812 C 555.421875 511.351562 554.839844 510.875 554.214844 510.457031 C 553.585938 510.035156 552.925781 509.683594 552.230469 509.394531 C 551.53125 509.105469 550.816406 508.886719 550.074219 508.742188 C 549.335938 508.59375 548.589844 508.519531 547.835938 508.519531 Z M 582.273438 508.519531 C 581.519531 508.519531 580.773438 508.59375 580.03125 508.742188 C 579.292969 508.886719 578.574219 509.105469 577.878906 509.394531 C 577.183594 509.683594 576.519531 510.035156 575.894531 510.457031 C 575.269531 510.875 574.6875 511.351562 574.15625 511.882812 C 573.621094 512.417969 573.148438 512.996094 572.726562 513.625 C 572.308594 514.25 571.957031 514.914062 571.667969 515.609375 C 571.378906 516.304688 571.160156 517.023438 571.015625 517.765625 C 570.867188 518.503906 570.792969 519.25 570.792969 520.003906 C 570.792969 520.757812 570.867188 521.503906 571.015625 522.246094 C 571.160156 522.984375 571.378906 523.703125 571.667969 524.398438 C 571.957031 525.097656 572.308594 525.757812 572.726562 526.386719 C 573.148438 527.011719 573.621094 527.59375 574.15625 528.125 C 574.6875 528.660156 575.269531 529.132812 575.894531 529.554688 C 576.519531 529.972656 577.183594 530.328125 577.878906 530.613281 C 578.574219 530.902344 579.292969 531.121094 580.03125 531.269531 C 580.773438 531.414062 581.519531 531.488281 582.273438 531.488281 C 583.027344 531.488281 583.773438 531.414062 584.511719 531.269531 C 585.25 531.121094 585.96875 530.902344 586.664062 530.613281 C 587.359375 530.328125 588.023438 529.972656 588.648438 529.554688 C 589.277344 529.132812 589.855469 528.660156 590.386719 528.125 C 590.921875 527.59375 591.398438 527.011719 591.816406 526.386719 C 592.234375 525.757812 592.589844 525.097656 592.875 524.398438 C 593.164062 523.703125 593.382812 522.984375 593.53125 522.246094 C 593.675781 521.503906 593.75 520.757812 593.75 520.003906 C 593.75 519.25 593.675781 518.503906 593.53125 517.765625 C 593.382812 517.023438 593.164062 516.304688 592.875 515.609375 C 592.589844 514.914062 592.234375 514.25 591.816406 513.625 C 591.398438 512.996094 590.921875 512.417969 590.386719 511.882812 C 589.855469 511.351562 589.277344 510.875 588.648438 510.457031 C 588.023438 510.035156 587.359375 509.683594 586.664062 509.394531 C 585.96875 509.105469 585.25 508.886719 584.511719 508.742188 C 583.773438 508.59375 583.027344 508.519531 582.273438 508.519531 Z M 616.707031 508.519531 C 615.953125 508.519531 615.207031 508.59375 614.46875 508.742188 C 613.726562 508.886719 613.011719 509.105469 612.3125 509.394531 C 611.617188 509.683594 610.957031 510.035156 610.328125 510.457031 C 609.703125 510.875 609.125 511.351562 608.589844 511.882812 C 608.058594 512.417969 607.582031 512.996094 607.164062 513.625 C 606.746094 514.25 606.390625 514.914062 606.101562 515.609375 C 605.8125 516.304688 605.597656 517.023438 605.449219 517.765625 C 605.300781 518.503906 605.226562 519.25 605.226562 520.003906 C 605.226562 520.757812 605.300781 521.503906 605.449219 522.246094 C 605.597656 522.984375 605.8125 523.703125 606.101562 524.398438 C 606.390625 525.097656 606.746094 525.757812 607.164062 526.386719 C 607.582031 527.011719 608.058594 527.59375 608.589844 528.125 C 609.125 528.660156 609.703125 529.132812 610.328125 529.554688 C 610.957031 529.972656 611.617188 530.328125 612.3125 530.613281 C 613.011719 530.902344 613.726562 531.121094 614.46875 531.269531 C 615.207031 531.414062 615.953125 531.488281 616.707031 531.488281 C 617.460938 531.488281 618.207031 531.414062 618.945312 531.269531 C 619.683594 531.121094 620.402344 530.902344 621.097656 530.613281 C 621.796875 530.328125 622.457031 529.972656 623.082031 529.554688 C 623.710938 529.132812 624.289062 528.660156 624.824219 528.125 C 625.355469 527.59375 625.832031 527.011719 626.25 526.386719 C 626.667969 525.757812 627.023438 525.097656 627.3125 524.398438 C 627.601562 523.703125 627.816406 522.984375 627.964844 522.246094 C 628.113281 521.503906 628.183594 520.757812 628.183594 520.003906 C 628.183594 519.25 628.113281 518.503906 627.964844 517.765625 C 627.816406 517.023438 627.601562 516.304688 627.3125 515.609375 C 627.023438 514.914062 626.667969 514.25 626.25 513.625 C 625.832031 512.996094 625.355469 512.417969 624.824219 511.882812 C 624.289062 511.351562 623.710938 510.875 623.082031 510.457031 C 622.457031 510.035156 621.796875 509.683594 621.097656 509.394531 C 620.402344 509.105469 619.683594 508.886719 618.945312 508.742188 C 618.207031 508.59375 617.460938 508.519531 616.707031 508.519531 Z M 651.140625 508.519531 C 650.386719 508.519531 649.640625 508.59375 648.902344 508.742188 C 648.164062 508.886719 647.445312 509.105469 646.75 509.394531 C 646.054688 509.683594 645.390625 510.035156 644.765625 510.457031 C 644.136719 510.875 643.558594 511.351562 643.027344 511.882812 C 642.492188 512.417969 642.015625 512.996094 641.597656 513.625 C 641.179688 514.25 640.824219 514.914062 640.539062 515.609375 C 640.25 516.304688 640.03125 517.023438 639.882812 517.765625 C 639.738281 518.503906 639.664062 519.25 639.664062 520.003906 C 639.664062 520.757812 639.738281 521.503906 639.882812 522.246094 C 640.03125 522.984375 640.25 523.703125 640.539062 524.398438 C 640.824219 525.097656 641.179688 525.757812 641.597656 526.386719 C 642.015625 527.011719 642.492188 527.59375 643.027344 528.125 C 643.558594 528.660156 644.136719 529.132812 644.765625 529.554688 C 645.390625 529.972656 646.054688 530.328125 646.75 530.613281 C 647.445312 530.902344 648.164062 531.121094 648.902344 531.269531 C 649.640625 531.414062 650.386719 531.488281 651.140625 531.488281 C 651.894531 531.488281 652.640625 531.414062 653.382812 531.269531 C 654.121094 531.121094 654.839844 530.902344 655.535156 530.613281 C 656.230469 530.328125 656.890625 529.972656 657.519531 529.554688 C 658.144531 529.132812 658.726562 528.660156 659.257812 528.125 C 659.792969 527.59375 660.265625 527.011719 660.6875 526.386719 C 661.105469 525.757812 661.457031 525.097656 661.746094 524.398438 C 662.035156 523.703125 662.253906 522.984375 662.398438 522.246094 C 662.546875 521.503906 662.621094 520.757812 662.621094 520.003906 C 662.621094 519.25 662.546875 518.503906 662.398438 517.765625 C 662.253906 517.023438 662.035156 516.304688 661.746094 515.609375 C 661.457031 514.914062 661.105469 514.25 660.6875 513.625 C 660.265625 512.996094 659.792969 512.417969 659.257812 511.882812 C 658.726562 511.351562 658.144531 510.875 657.519531 510.457031 C 656.890625 510.035156 656.230469 509.683594 655.535156 509.394531 C 654.839844 509.105469 654.121094 508.886719 653.382812 508.742188 C 652.640625 508.59375 651.894531 508.519531 651.140625 508.519531 Z M 685.578125 508.519531 C 684.824219 508.519531 684.078125 508.59375 683.335938 508.742188 C 682.597656 508.886719 681.878906 509.105469 681.183594 509.394531 C 680.488281 509.683594 679.828125 510.035156 679.199219 510.457031 C 678.574219 510.875 677.992188 511.351562 677.460938 511.882812 C 676.925781 512.417969 676.453125 512.996094 676.03125 513.625 C 675.613281 514.25 675.261719 514.914062 674.972656 515.609375 C 674.683594 516.304688 674.464844 517.023438 674.320312 517.765625 C 674.171875 518.503906 674.097656 519.25 674.097656 520.003906 C 674.097656 520.757812 674.171875 521.503906 674.320312 522.246094 C 674.464844 522.984375 674.683594 523.703125 674.972656 524.398438 C 675.261719 525.097656 675.613281 525.757812 676.03125 526.386719 C 676.453125 527.011719 676.925781 527.59375 677.460938 528.125 C 677.992188 528.660156 678.574219 529.132812 679.199219 529.554688 C 679.828125 529.972656 680.488281 530.328125 681.183594 530.613281 C 681.878906 530.902344 682.597656 531.121094 683.335938 531.269531 C 684.078125 531.414062 684.824219 531.488281 685.578125 531.488281 C 686.332031 531.488281 687.078125 531.414062 687.816406 531.269531 C 688.554688 531.121094 689.273438 530.902344 689.96875 530.613281 C 690.664062 530.328125 691.328125 529.972656 691.953125 529.554688 C 692.582031 529.132812 693.160156 528.660156 693.691406 528.125 C 694.226562 527.59375 694.703125 527.011719 695.121094 526.386719 C 695.539062 525.757812 695.894531 525.097656 696.179688 524.398438 C 696.46875 523.703125 696.6875 522.984375 696.835938 522.246094 C 696.980469 521.503906 697.054688 520.757812 697.054688 520.003906 C 697.054688 519.25 696.980469 518.503906 696.835938 517.765625 C 696.6875 517.023438 696.46875 516.304688 696.179688 515.609375 C 695.894531 514.914062 695.539062 514.25 695.121094 513.625 C 694.703125 512.996094 694.226562 512.417969 693.691406 511.882812 C 693.160156 511.351562 692.582031 510.875 691.953125 510.457031 C 691.328125 510.035156 690.664062 509.683594 689.96875 509.394531 C 689.273438 509.105469 688.554688 508.886719 687.816406 508.742188 C 687.078125 508.59375 686.332031 508.519531 685.578125 508.519531 Z M 720.011719 508.519531 C 719.257812 508.519531 718.511719 508.59375 717.773438 508.742188 C 717.035156 508.886719 716.316406 509.105469 715.621094 509.394531 C 714.921875 509.683594 714.261719 510.035156 713.636719 510.457031 C 713.007812 510.875 712.429688 511.351562 711.894531 511.882812 C 711.363281 512.417969 710.886719 512.996094 710.46875 513.625 C 710.050781 514.25 709.695312 514.914062 709.40625 515.609375 C 709.117188 516.304688 708.902344 517.023438 708.753906 517.765625 C 708.605469 518.503906 708.535156 519.25 708.535156 520.003906 C 708.535156 520.757812 708.605469 521.503906 708.753906 522.246094 C 708.902344 522.984375 709.117188 523.703125 709.40625 524.398438 C 709.695312 525.097656 710.050781 525.757812 710.46875 526.386719 C 710.886719 527.011719 711.363281 527.59375 711.894531 528.125 C 712.429688 528.660156 713.007812 529.132812 713.636719 529.554688 C 714.261719 529.972656 714.921875 530.328125 715.621094 530.613281 C 716.316406 530.902344 717.035156 531.121094 717.773438 531.269531 C 718.511719 531.414062 719.257812 531.488281 720.011719 531.488281 C 720.765625 531.488281 721.511719 531.414062 722.25 531.269531 C 722.992188 531.121094 723.707031 530.902344 724.40625 530.613281 C 725.101562 530.328125 725.761719 529.972656 726.390625 529.554688 C 727.015625 529.132812 727.59375 528.660156 728.128906 528.125 C 728.660156 527.59375 729.136719 527.011719 729.554688 526.386719 C 729.972656 525.757812 730.328125 525.097656 730.617188 524.398438 C 730.90625 523.703125 731.121094 522.984375 731.269531 522.246094 C 731.417969 521.503906 731.488281 520.757812 731.488281 520.003906 C 731.488281 519.25 731.417969 518.503906 731.269531 517.765625 C 731.121094 517.023438 730.90625 516.304688 730.617188 515.609375 C 730.328125 514.914062 729.972656 514.25 729.554688 513.625 C 729.136719 512.996094 728.660156 512.417969 728.128906 511.882812 C 727.59375 511.351562 727.015625 510.875 726.390625 510.457031 C 725.761719 510.035156 725.101562 509.683594 724.40625 509.394531 C 723.707031 509.105469 722.992188 508.886719 722.25 508.742188 C 721.511719 508.59375 720.765625 508.519531 720.011719 508.519531 Z M 754.445312 508.519531 C 753.691406 508.519531 752.945312 508.59375 752.207031 508.742188 C 751.46875 508.886719 750.75 509.105469 750.054688 509.394531 C 749.359375 509.683594 748.695312 510.035156 748.070312 510.457031 C 747.441406 510.875 746.863281 511.351562 746.332031 511.882812 C 745.796875 512.417969 745.320312 512.996094 744.902344 513.625 C 744.484375 514.25 744.128906 514.914062 743.84375 515.609375 C 743.554688 516.304688 743.335938 517.023438 743.1875 517.765625 C 743.042969 518.503906 742.96875 519.25 742.96875 520.003906 C 742.96875 520.757812 743.042969 521.503906 743.1875 522.246094 C 743.335938 522.984375 743.554688 523.703125 743.84375 524.398438 C 744.128906 525.097656 744.484375 525.757812 744.902344 526.386719 C 745.320312 527.011719 745.796875 527.59375 746.332031 528.125 C 746.863281 528.660156 747.441406 529.132812 748.070312 529.554688 C 748.695312 529.972656 749.359375 530.328125 750.054688 530.613281 C 750.75 530.902344 751.46875 531.121094 752.207031 531.269531 C 752.945312 531.414062 753.691406 531.488281 754.445312 531.488281 C 755.199219 531.488281 755.945312 531.414062 756.6875 531.269531 C 757.425781 531.121094 758.144531 530.902344 758.839844 530.613281 C 759.535156 530.328125 760.195312 529.972656 760.824219 529.554688 C 761.449219 529.132812 762.03125 528.660156 762.5625 528.125 C 763.097656 527.59375 763.570312 527.011719 763.992188 526.386719 C 764.410156 525.757812 764.761719 525.097656 765.050781 524.398438 C 765.339844 523.703125 765.558594 522.984375 765.703125 522.246094 C 765.851562 521.503906 765.925781 520.757812 765.925781 520.003906 C 765.925781 519.25 765.851562 518.503906 765.703125 517.765625 C 765.558594 517.023438 765.339844 516.304688 765.050781 515.609375 C 764.761719 514.914062 764.410156 514.25 763.992188 513.625 C 763.570312 512.996094 763.097656 512.417969 762.5625 511.882812 C 762.03125 511.351562 761.449219 510.875 760.824219 510.457031 C 760.195312 510.035156 759.535156 509.683594 758.839844 509.394531 C 758.144531 509.105469 757.425781 508.886719 756.6875 508.742188 C 755.945312 508.59375 755.199219 508.519531 754.445312 508.519531 Z M 788.882812 508.519531 C 788.128906 508.519531 787.382812 508.59375 786.640625 508.742188 C 785.902344 508.886719 785.1875 509.105469 784.488281 509.394531 C 783.792969 509.683594 783.132812 510.035156 782.503906 510.457031 C 781.878906 510.875 781.296875 511.351562 780.765625 511.882812 C 780.234375 512.417969 779.757812 512.996094 779.339844 513.625 C 778.917969 514.25 778.566406 514.914062 778.277344 515.609375 C 777.988281 516.304688 777.769531 517.023438 777.625 517.765625 C 777.476562 518.503906 777.402344 519.25 777.402344 520.003906 C 777.402344 520.757812 777.476562 521.503906 777.625 522.246094 C 777.769531 522.984375 777.988281 523.703125 778.277344 524.398438 C 778.566406 525.097656 778.917969 525.757812 779.339844 526.386719 C 779.757812 527.011719 780.234375 527.59375 780.765625 528.125 C 781.296875 528.660156 781.878906 529.132812 782.503906 529.554688 C 783.132812 529.972656 783.792969 530.328125 784.488281 530.613281 C 785.1875 530.902344 785.902344 531.121094 786.640625 531.269531 C 787.382812 531.414062 788.128906 531.488281 788.882812 531.488281 C 789.636719 531.488281 790.382812 531.414062 791.121094 531.269531 C 791.859375 531.121094 792.578125 530.902344 793.273438 530.613281 C 793.96875 530.328125 794.632812 529.972656 795.257812 529.554688 C 795.886719 529.132812 796.464844 528.660156 797 528.125 C 797.53125 527.59375 798.007812 527.011719 798.425781 526.386719 C 798.84375 525.757812 799.199219 525.097656 799.488281 524.398438 C 799.773438 523.703125 799.992188 522.984375 800.140625 522.246094 C 800.285156 521.503906 800.359375 520.757812 800.359375 520.003906 C 800.359375 519.25 800.285156 518.503906 800.140625 517.765625 C 799.992188 517.023438 799.773438 516.304688 799.488281 515.609375 C 799.199219 514.914062 798.84375 514.25 798.425781 513.625 C 798.007812 512.996094 797.53125 512.417969 797 511.882812 C 796.464844 511.351562 795.886719 510.875 795.257812 510.457031 C 794.632812 510.035156 793.96875 509.683594 793.273438 509.394531 C 792.578125 509.105469 791.859375 508.886719 791.121094 508.742188 C 790.382812 508.59375 789.636719 508.519531 788.882812 508.519531 Z M 788.882812 508.519531 "/>
</g>
</g>
</svg>
