<?xml version="1.0" encoding="UTF-8"?>
<svg xmlns="http://www.w3.org/2000/svg" xmlns:xlink="http://www.w3.org/1999/xlink" width="1440pt" height="809.999993pt" viewBox="0 0 1440 809.999993" version="1.2">
<defs>
<clipPath id="clip1">
  <path d="M 425 111.34375 L 1012 111.34375 L 1012 698 L 425 698 Z M 425 111.34375 "/>
</clipPath>
</defs>
<g id="surface1">
<g clip-path="url(#clip1)" clip-rule="nonzero">
<path style=" stroke:none;fill-rule:nonzero;fill:rgb(96.078491%,62.348938%,23.919678%);fill-opacity:1;" d="M 998.796875 563.730469 C 984.285156 547.050781 915.664062 478.390625 909.347656 472.0625 C 906.175781 468.453125 891.414062 453.007812 870.65625 453.007812 C 861.351562 453.007812 852.5 456.09375 844.335938 462.191406 C 829.183594 473.5 805.25 495.132812 791.796875 507.527344 C 775.34375 498.335938 739.097656 477.3125 715.679688 458.0625 C 681.351562 429.832031 650.6875 393.121094 622.34375 346.53125 L 614.417969 331.605469 C 629.132812 315.648438 650.027344 292.445312 661.011719 277.710938 C 681.378906 250.429688 663.710938 223.523438 651.105469 212.667969 C 644.5625 206.128906 576.117188 137.773438 559.484375 123.273438 C 550.269531 115.25 538.988281 111.007812 526.863281 111.007812 C 516.972656 111.007812 509.808594 113.8125 508.472656 114.367188 L 502.320312 118.078125 C 467.242188 140.605469 427.484375 166.136719 425.195312 266.449219 C 425.101562 367.589844 504.816406 466.375 571.128906 530.832031 C 640.65625 607.09375 746.433594 697.992188 855.421875 697.992188 L 855.90625 697.992188 C 955.933594 695.699219 981.464844 655.9375 1003.984375 620.859375 L 1006.542969 616.871094 L 1007.683594 614.726562 C 1011.980469 604.523438 1014.949219 582.285156 998.796875 563.730469 Z M 982.308594 603.113281 L 980.566406 605.832031 C 959.078125 639.300781 940.519531 668.21875 855.582031 670.167969 L 855.421875 684.082031 L 855.421875 670.167969 C 751.378906 670.167969 645.535156 571.125 591.121094 511.488281 C 528.078125 450.1875 452.953125 357.894531 453.035156 266.785156 C 454.984375 181.5625 483.894531 163 517.378906 141.503906 L 520.015625 139.796875 C 521.296875 139.425781 523.800781 138.832031 526.878906 138.832031 C 532.335938 138.832031 537.03125 140.605469 541.214844 144.25 C 557.617188 158.527344 631.101562 231.996094 631.84375 232.738281 L 632.769531 233.582031 C 634.441406 234.972656 648.792969 247.589844 638.734375 261.058594 C 630.035156 272.722656 611.441406 294.023438 587.328125 319.90625 L 580.582031 327.152344 L 598.171875 360.269531 C 628.558594 410.285156 661.214844 449.304688 698.023438 479.539062 C 731.070312 506.722656 785.078125 535.609375 787.359375 536.824219 L 796.128906 541.511719 L 803.390625 534.730469 C 809.859375 528.699219 843.046875 497.890625 861 484.484375 C 864.285156 482.023438 867.449219 480.828125 870.667969 480.828125 C 878.480469 480.828125 886.207031 487.824219 888.453125 490.441406 L 889.308594 491.367188 C 890.050781 492.109375 963.539062 565.605469 977.808594 581.996094 C 985.296875 590.625 983.199219 600.199219 982.308594 603.113281 Z M 982.308594 603.113281 "/>
</g>
</g>
</svg>
