<?xml version="1.0" encoding="UTF-8"?>
<svg xmlns="http://www.w3.org/2000/svg" xmlns:xlink="http://www.w3.org/1999/xlink" width="1440pt" height="809.999993pt" viewBox="0 0 1440 809.999993" version="1.2">
<defs>
<clipPath id="clip1">
  <path d="M 381.429688 66.429688 L 1057 66.429688 L 1057 743.679688 L 381.429688 743.679688 Z M 381.429688 66.429688 "/>
</clipPath>
</defs>
<g id="surface1">
<rect x="0" y="0" width="1440" height="809.999993" style="fill:rgb(100%,100%,100%);fill-opacity:1;stroke:none;"/>
<rect x="0" y="0" width="1440" height="809.999993" style="fill:rgb(100%,100%,100%);fill-opacity:1;stroke:none;"/>
<rect x="0" y="0" width="1440" height="809.999993" style="fill:rgb(100%,100%,100%);fill-opacity:1;stroke:none;"/>
<g clip-path="url(#clip1)" clip-rule="nonzero">
<path style=" stroke:none;fill-rule:nonzero;fill:rgb(100%,51.759338%,0%);fill-opacity:1;" d="M 720.054688 66.429688 C 534.667969 66.429688 384.015625 217.082031 384.015625 402.46875 C 384.015625 469.515625 405.621094 530.90625 439.347656 583.414062 L 381.589844 744.769531 L 561.324219 694.082031 C 608.984375 720.132812 661.894531 738.507812 720.054688 738.507812 C 905.441406 738.507812 1056.09375 587.855469 1056.09375 402.46875 C 1056.09375 217.082031 905.441406 66.429688 720.054688 66.429688 Z M 720.054688 118.128906 C 877.371094 118.128906 1004.394531 245.152344 1004.394531 402.46875 C 1004.394531 559.785156 877.371094 686.8125 720.054688 686.8125 C 666.132812 686.8125 616.253906 671.664062 573.035156 645.613281 L 563.546875 639.757812 L 463.984375 667.625 L 496.296875 577.960938 L 488.421875 567.054688 C 455.300781 520.40625 435.710938 463.863281 435.710938 402.46875 C 435.710938 245.152344 562.738281 118.128906 720.054688 118.128906 Z M 594.039062 221.523438 C 588.183594 221.523438 578.488281 223.949219 570.210938 233.640625 C 562.132812 243.132812 539.109375 266.355469 539.109375 313.613281 C 539.109375 360.667969 571.015625 406.304688 575.460938 412.769531 C 579.902344 419.230469 638.265625 515.964844 727.527344 557.566406 C 748.730469 567.460938 765.289062 573.316406 778.214844 577.757812 C 799.621094 585.03125 819.007812 584.019531 834.355469 581.597656 C 851.523438 578.769531 887.066406 558.371094 894.535156 535.957031 C 901.808594 513.539062 902.007812 494.355469 899.585938 490.316406 C 897.566406 486.277344 891.507812 483.855469 882.621094 479.210938 C 873.734375 474.363281 829.914062 451.140625 821.835938 448.109375 C 813.757812 444.675781 807.699219 443.261719 801.640625 452.753906 C 795.785156 462.449219 778.820312 484.054688 773.570312 490.316406 C 768.320312 496.777344 763.269531 497.585938 754.386719 492.738281 C 745.296875 487.894531 716.621094 477.796875 682.695312 445.082031 C 656.238281 419.636719 638.265625 388.332031 633.21875 378.640625 C 627.964844 368.945312 632.613281 363.898438 637.054688 359.253906 C 641.09375 354.808594 645.941406 347.945312 650.382812 342.289062 C 654.824219 336.835938 656.238281 332.597656 659.269531 326.335938 C 662.296875 319.875 660.882812 314.21875 658.664062 309.574219 C 656.238281 304.726562 638.46875 257.472656 631.199219 238.285156 C 623.925781 219.707031 616.457031 222.128906 611.003906 221.929688 C 605.953125 221.523438 599.894531 221.523438 594.039062 221.523438 Z M 594.039062 221.523438 "/>
</g>
</g>
</svg>
