<?xml version="1.0" encoding="UTF-8"?>
<svg xmlns="http://www.w3.org/2000/svg" xmlns:xlink="http://www.w3.org/1999/xlink" width="1440pt" height="809.999993pt" viewBox="0 0 1440 809.999993" version="1.2">
<defs>
<clipPath id="clip1">
  <path d="M 426.34375 111.34375 L 1012 111.34375 L 1012 698.59375 L 426.34375 698.59375 Z M 426.34375 111.34375 "/>
</clipPath>
</defs>
<g id="surface1">
<g clip-path="url(#clip1)" clip-rule="nonzero">
<path style=" stroke:none;fill-rule:nonzero;fill:rgb(14.509583%,82.749939%,39.99939%);fill-opacity:1;" d="M 719.96875 111.34375 C 559.21875 111.34375 428.585938 241.976562 428.585938 402.726562 C 428.585938 460.863281 447.320312 514.097656 476.566406 559.625 L 426.484375 699.539062 L 582.332031 655.585938 C 623.65625 678.175781 669.535156 694.109375 719.96875 694.109375 C 880.71875 694.109375 1011.351562 563.476562 1011.351562 402.726562 C 1011.351562 241.976562 880.71875 111.34375 719.96875 111.34375 Z M 719.96875 156.171875 C 856.378906 156.171875 966.523438 266.316406 966.523438 402.726562 C 966.523438 539.136719 856.378906 649.28125 719.96875 649.28125 C 673.214844 649.28125 629.960938 636.148438 592.488281 613.558594 L 584.257812 608.480469 L 497.929688 632.648438 L 525.945312 554.898438 L 519.117188 545.441406 C 490.398438 504.992188 473.414062 455.960938 473.414062 402.726562 C 473.414062 266.316406 583.558594 156.171875 719.96875 156.171875 Z M 610.699219 245.828125 C 605.621094 245.828125 597.214844 247.929688 590.035156 256.335938 C 583.03125 264.566406 563.070312 284.703125 563.070312 325.679688 C 563.070312 366.480469 590.738281 406.054688 594.589844 411.65625 C 598.441406 417.261719 649.046875 501.140625 726.449219 537.210938 C 744.835938 545.792969 759.191406 550.871094 770.398438 554.722656 C 788.960938 561.027344 805.773438 560.152344 819.082031 558.050781 C 833.964844 555.597656 864.785156 537.914062 871.265625 518.476562 C 877.566406 499.039062 877.742188 482.402344 875.640625 478.898438 C 873.890625 475.398438 868.636719 473.296875 860.933594 469.269531 C 853.226562 465.066406 815.226562 444.929688 808.222656 442.300781 C 801.21875 439.324219 795.964844 438.097656 790.714844 446.328125 C 785.632812 454.734375 770.925781 473.472656 766.371094 478.898438 C 761.820312 484.503906 757.441406 485.203125 749.738281 481 C 741.855469 476.796875 716.992188 468.042969 687.574219 439.675781 C 664.632812 417.613281 649.046875 390.46875 644.671875 382.0625 C 640.117188 373.660156 644.144531 369.28125 648 365.253906 C 651.5 361.402344 655.703125 355.445312 659.554688 350.542969 C 663.40625 345.816406 664.632812 342.140625 667.261719 336.710938 C 669.886719 331.105469 668.660156 326.203125 666.734375 322.175781 C 664.632812 317.972656 649.222656 276.996094 642.917969 260.363281 C 636.617188 244.253906 630.136719 246.355469 625.410156 246.179688 C 621.03125 245.828125 615.777344 245.828125 610.699219 245.828125 Z M 610.699219 245.828125 "/>
</g>
</g>
</svg>
