<?xml version="1.0" encoding="UTF-8"?><svg xmlns="http://www.w3.org/2000/svg" xmlns:xlink="http://www.w3.org/1999/xlink" width="1440" zoomAndPan="magnify" viewBox="0 0 1440 809.999993" height="809.999993" preserveAspectRatio="xMidYMid meet" version="1.0"><defs><clipPath id="clip-0"><path d="M 774 281 L 809.085938 281 L 809.085938 427 L 774 427 Z M 774 281 " clip-rule="nonzero"/></clipPath></defs><path fill="rgb(100%, 51.759338%, 0%)" d="M 565.851562 146.808594 C 566.296875 147.421875 566.808594 147.972656 567.386719 148.46875 C 567.960938 148.960938 568.589844 149.378906 569.265625 149.722656 C 569.941406 150.066406 570.648438 150.324219 571.386719 150.503906 C 572.121094 150.679688 572.871094 150.765625 573.628906 150.765625 C 575.710938 150.765625 577.597656 150.164062 579.296875 148.960938 C 579.800781 148.585938 580.269531 148.164062 580.695312 147.699219 C 581.121094 147.234375 581.496094 146.730469 581.824219 146.191406 C 582.152344 145.652344 582.425781 145.085938 582.640625 144.496094 C 582.859375 143.902344 583.015625 143.292969 583.117188 142.671875 C 583.214844 142.046875 583.25 141.421875 583.226562 140.789062 C 583.203125 140.160156 583.121094 139.539062 582.976562 138.921875 C 582.832031 138.308594 582.628906 137.714844 582.367188 137.140625 C 582.105469 136.566406 581.792969 136.023438 581.425781 135.507812 L 569.539062 119.136719 C 569.167969 118.625 568.75 118.15625 568.289062 117.726562 C 567.824219 117.296875 567.324219 116.917969 566.785156 116.585938 C 566.246094 116.253906 565.679688 115.980469 565.089844 115.761719 C 564.496094 115.542969 563.890625 115.382812 563.265625 115.285156 C 562.640625 115.183594 562.015625 115.148438 561.382812 115.171875 C 560.753906 115.195312 560.128906 115.28125 559.515625 115.429688 C 558.902344 115.574219 558.308594 115.78125 557.734375 116.042969 C 557.160156 116.308594 556.617188 116.625 556.105469 116.996094 C 555.59375 117.367188 555.125 117.785156 554.695312 118.25 C 554.265625 118.710938 553.886719 119.210938 553.554688 119.75 C 553.226562 120.289062 552.953125 120.855469 552.730469 121.449219 C 552.511719 122.039062 552.351562 122.648438 552.253906 123.273438 C 552.15625 123.894531 552.117188 124.523438 552.140625 125.15625 C 552.164062 125.785156 552.25 126.410156 552.398438 127.023438 C 552.542969 127.636719 552.75 128.234375 553.011719 128.808594 C 553.277344 129.382812 553.59375 129.925781 553.964844 130.433594 Z M 565.851562 146.808594 " fill-opacity="1" fill-rule="nonzero"/><path fill="rgb(100%, 51.759338%, 0%)" d="M 713.941406 150.765625 C 714.691406 150.757812 715.433594 150.664062 716.160156 150.484375 C 716.890625 150.304688 717.585938 150.042969 718.253906 149.699219 C 718.921875 149.355469 719.539062 148.941406 720.109375 148.453125 C 720.679688 147.960938 721.183594 147.414062 721.625 146.808594 L 733.511719 130.433594 C 733.882812 129.925781 734.199219 129.382812 734.464844 128.808594 C 734.726562 128.234375 734.933594 127.636719 735.082031 127.023438 C 735.226562 126.410156 735.3125 125.785156 735.335938 125.15625 C 735.363281 124.523438 735.324219 123.894531 735.222656 123.269531 C 735.125 122.648438 734.964844 122.039062 734.746094 121.445312 C 734.527344 120.851562 734.253906 120.289062 733.921875 119.75 C 733.589844 119.210938 733.210938 118.710938 732.78125 118.246094 C 732.351562 117.78125 731.882812 117.363281 731.371094 116.992188 C 730.859375 116.625 730.316406 116.304688 729.742188 116.042969 C 729.167969 115.777344 728.574219 115.570312 727.960938 115.425781 C 727.347656 115.277344 726.722656 115.191406 726.09375 115.167969 C 725.460938 115.144531 724.835938 115.183594 724.210938 115.28125 C 723.585938 115.382812 722.980469 115.539062 722.386719 115.757812 C 721.792969 115.980469 721.230469 116.253906 720.691406 116.585938 C 720.152344 116.914062 719.652344 117.296875 719.1875 117.726562 C 718.726562 118.15625 718.308594 118.625 717.9375 119.136719 L 706.085938 135.507812 C 705.570312 136.222656 705.15625 136.992188 704.851562 137.820312 C 704.542969 138.648438 704.355469 139.5 704.285156 140.382812 C 704.210938 141.261719 704.261719 142.132812 704.429688 143 C 704.597656 143.867188 704.882812 144.691406 705.277344 145.480469 C 705.675781 146.269531 706.171875 146.988281 706.765625 147.640625 C 707.363281 148.292969 708.035156 148.851562 708.78125 149.316406 C 709.53125 149.78125 710.328125 150.140625 711.175781 150.386719 C 712.023438 150.632812 712.886719 150.757812 713.769531 150.765625 Z M 713.941406 150.765625 " fill-opacity="1" fill-rule="nonzero"/><path fill="rgb(100%, 51.759338%, 0%)" d="M 477.71875 299.113281 L 477.71875 408.890625 C 477.71875 409.46875 477.746094 410.046875 477.804688 410.621094 C 477.859375 411.195312 477.945312 411.765625 478.058594 412.332031 C 478.171875 412.902344 478.308594 413.460938 478.476562 414.011719 C 478.644531 414.566406 478.839844 415.109375 479.0625 415.644531 C 479.28125 416.175781 479.527344 416.699219 479.800781 417.207031 C 480.074219 417.71875 480.367188 418.210938 480.691406 418.691406 C 481.011719 419.171875 481.355469 419.636719 481.71875 420.082031 C 482.085938 420.53125 482.472656 420.957031 482.882812 421.367188 C 483.289062 421.773438 483.71875 422.160156 484.164062 422.527344 C 484.609375 422.894531 485.074219 423.238281 485.554688 423.558594 C 486.035156 423.878906 486.527344 424.175781 487.039062 424.449219 C 487.546875 424.722656 488.070312 424.96875 488.601562 425.191406 C 489.136719 425.410156 489.679688 425.605469 490.230469 425.773438 C 490.785156 425.941406 491.34375 426.082031 491.910156 426.195312 C 492.476562 426.304688 493.046875 426.390625 493.621094 426.449219 C 494.195312 426.503906 494.773438 426.53125 495.347656 426.53125 C 495.925781 426.53125 496.503906 426.503906 497.078125 426.449219 C 497.652344 426.390625 498.222656 426.304688 498.789062 426.195312 C 499.355469 426.082031 499.914062 425.941406 500.46875 425.773438 C 501.019531 425.605469 501.5625 425.410156 502.097656 425.191406 C 502.628906 424.96875 503.152344 424.722656 503.660156 424.449219 C 504.167969 424.175781 504.664062 423.878906 505.144531 423.558594 C 505.625 423.238281 506.085938 422.894531 506.535156 422.527344 C 506.980469 422.160156 507.40625 421.773438 507.816406 421.367188 C 508.222656 420.957031 508.609375 420.53125 508.976562 420.082031 C 509.34375 419.636719 509.6875 419.171875 510.007812 418.691406 C 510.328125 418.210938 510.625 417.71875 510.898438 417.207031 C 511.167969 416.699219 511.417969 416.175781 511.636719 415.644531 C 511.859375 415.109375 512.050781 414.566406 512.21875 414.011719 C 512.386719 413.460938 512.527344 412.902344 512.640625 412.332031 C 512.753906 411.765625 512.835938 411.195312 512.894531 410.621094 C 512.949219 410.046875 512.980469 409.46875 512.980469 408.890625 L 512.980469 281.511719 L 495.347656 281.511719 C 494.773438 281.511719 494.195312 281.539062 493.625 281.59375 C 493.050781 281.652344 492.480469 281.734375 491.914062 281.847656 C 491.347656 281.960938 490.789062 282.101562 490.238281 282.269531 C 489.6875 282.433594 489.144531 282.628906 488.609375 282.851562 C 488.078125 283.070312 487.558594 283.316406 487.046875 283.585938 C 486.539062 283.859375 486.046875 284.15625 485.566406 284.476562 C 485.085938 284.796875 484.625 285.136719 484.175781 285.503906 C 483.730469 285.871094 483.304688 286.257812 482.894531 286.664062 C 482.488281 287.070312 482.101562 287.496094 481.734375 287.941406 C 481.367188 288.390625 481.023438 288.851562 480.703125 289.332031 C 480.382812 289.808594 480.085938 290.304688 479.8125 290.8125 C 479.539062 291.320312 479.292969 291.839844 479.070312 292.375 C 478.851562 292.90625 478.65625 293.449219 478.488281 294 C 478.320312 294.550781 478.175781 295.109375 478.0625 295.675781 C 477.949219 296.242188 477.863281 296.8125 477.808594 297.386719 C 477.75 297.960938 477.71875 298.535156 477.71875 299.113281 Z M 477.71875 299.113281 " fill-opacity="1" fill-rule="nonzero"/><path fill="rgb(100%, 51.759338%, 0%)" d="M 572.054688 527.378906 C 572.054688 528.082031 572.089844 528.785156 572.15625 529.484375 C 572.226562 530.183594 572.328125 530.878906 572.464844 531.570312 C 572.601562 532.261719 572.773438 532.941406 572.976562 533.617188 C 573.179688 534.289062 573.414062 534.953125 573.683594 535.601562 C 573.953125 536.253906 574.253906 536.890625 574.585938 537.511719 C 574.917969 538.132812 575.277344 538.734375 575.667969 539.320312 C 576.058594 539.90625 576.476562 540.46875 576.921875 541.015625 C 577.371094 541.558594 577.839844 542.078125 578.339844 542.578125 C 578.835938 543.074219 579.355469 543.546875 579.898438 543.996094 C 580.441406 544.441406 581.007812 544.859375 581.59375 545.25 C 582.175781 545.644531 582.78125 546.003906 583.398438 546.335938 C 584.019531 546.667969 584.65625 546.96875 585.304688 547.238281 C 585.957031 547.507812 586.617188 547.746094 587.289062 547.949219 C 587.964844 548.152344 588.644531 548.324219 589.335938 548.460938 C 590.023438 548.601562 590.71875 548.703125 591.421875 548.773438 C 592.121094 548.839844 592.824219 548.875 593.527344 548.875 C 594.230469 548.875 594.929688 548.839844 595.632812 548.773438 C 596.332031 548.703125 597.027344 548.601562 597.714844 548.460938 C 598.40625 548.324219 599.089844 548.152344 599.761719 547.949219 C 600.433594 547.746094 601.097656 547.507812 601.746094 547.238281 C 602.394531 546.96875 603.03125 546.667969 603.652344 546.335938 C 604.273438 546.003906 604.875 545.644531 605.460938 545.25 C 606.042969 544.859375 606.609375 544.441406 607.152344 543.996094 C 607.695312 543.546875 608.214844 543.074219 608.714844 542.578125 C 609.210938 542.078125 609.683594 541.558594 610.128906 541.015625 C 610.574219 540.46875 610.992188 539.90625 611.382812 539.320312 C 611.773438 538.734375 612.136719 538.132812 612.46875 537.511719 C 612.796875 536.890625 613.097656 536.253906 613.367188 535.601562 C 613.636719 534.953125 613.871094 534.289062 614.078125 533.617188 C 614.28125 532.941406 614.449219 532.261719 614.585938 531.570312 C 614.722656 530.878906 614.828125 530.183594 614.894531 529.484375 C 614.964844 528.785156 614.996094 528.082031 614.996094 527.378906 L 614.996094 488.503906 L 572.054688 488.503906 Z M 572.054688 527.378906 " fill-opacity="1" fill-rule="nonzero"/><path fill="rgb(100%, 51.759338%, 0%)" d="M 730.707031 262.292969 L 754.984375 262.292969 C 754.835938 260.636719 754.648438 258.980469 754.421875 257.332031 C 754.195312 255.679688 753.929688 254.035156 753.628906 252.398438 C 753.328125 250.757812 752.988281 249.128906 752.609375 247.503906 C 752.234375 245.882812 751.816406 244.269531 751.367188 242.667969 C 750.914062 241.0625 750.425781 239.472656 749.898438 237.890625 C 749.375 236.308594 748.8125 234.742188 748.214844 233.1875 C 747.617188 231.632812 746.984375 230.09375 746.3125 228.566406 C 745.644531 227.042969 744.941406 225.53125 744.203125 224.039062 C 743.464844 222.546875 742.691406 221.070312 741.882812 219.613281 C 741.074219 218.15625 740.234375 216.71875 739.363281 215.300781 C 738.488281 213.882812 737.582031 212.484375 736.644531 211.109375 C 735.707031 209.734375 734.738281 208.378906 733.738281 207.046875 C 732.734375 205.714844 731.707031 204.410156 730.644531 203.125 C 729.582031 201.839844 728.492188 200.582031 727.375 199.347656 C 726.253906 198.117188 725.105469 196.910156 723.933594 195.730469 C 722.757812 194.546875 721.554688 193.394531 720.328125 192.273438 C 719.097656 191.148438 717.84375 190.050781 716.566406 188.984375 C 715.289062 187.917969 713.984375 186.882812 712.65625 185.875 C 711.332031 184.867188 709.980469 183.894531 708.609375 182.949219 C 707.238281 182.007812 705.84375 181.09375 704.429688 180.214844 C 703.015625 179.335938 701.582031 178.488281 700.128906 177.675781 C 698.675781 176.863281 697.203125 176.082031 695.714844 175.339844 C 694.226562 174.59375 692.722656 173.882812 691.199219 173.207031 C 689.675781 172.53125 688.140625 171.894531 686.589844 171.289062 C 685.035156 170.683594 683.472656 170.117188 681.894531 169.585938 C 680.316406 169.050781 678.726562 168.558594 677.125 168.097656 C 675.527344 167.640625 673.914062 167.21875 672.296875 166.835938 C 670.675781 166.453125 669.046875 166.105469 667.410156 165.796875 C 665.773438 165.488281 664.132812 165.21875 662.484375 164.984375 C 660.835938 164.753906 659.179688 164.558594 657.523438 164.402344 C 655.867188 164.246094 654.207031 164.128906 652.542969 164.050781 C 650.878906 163.972656 649.214844 163.929688 647.550781 163.929688 L 640.078125 163.929688 C 638.414062 163.929688 636.75 163.96875 635.082031 164.046875 C 633.417969 164.125 631.757812 164.242188 630.097656 164.394531 C 628.441406 164.550781 626.785156 164.746094 625.136719 164.976562 C 623.488281 165.207031 621.84375 165.476562 620.207031 165.785156 C 618.566406 166.09375 616.9375 166.4375 615.316406 166.820312 C 613.695312 167.203125 612.082031 167.625 610.480469 168.082031 C 608.878906 168.539062 607.289062 169.03125 605.710938 169.5625 C 604.128906 170.09375 602.5625 170.664062 601.011719 171.265625 C 599.457031 171.871094 597.921875 172.507812 596.398438 173.183594 C 594.875 173.859375 593.367188 174.570312 591.875 175.3125 C 590.386719 176.058594 588.914062 176.835938 587.457031 177.648438 C 586.003906 178.460938 584.566406 179.308594 583.152344 180.1875 C 581.738281 181.066406 580.34375 181.976562 578.96875 182.921875 C 577.597656 183.867188 576.246094 184.839844 574.917969 185.847656 C 573.589844 186.851562 572.285156 187.890625 571.003906 188.957031 C 569.722656 190.023438 568.46875 191.117188 567.238281 192.242188 C 566.007812 193.367188 564.804688 194.519531 563.628906 195.699219 C 562.453125 196.882812 561.304688 198.089844 560.183594 199.320312 C 559.0625 200.554688 557.972656 201.8125 556.910156 203.097656 C 555.847656 204.382812 554.816406 205.691406 553.8125 207.023438 C 552.8125 208.355469 551.839844 209.707031 550.902344 211.085938 C 549.960938 212.460938 549.054688 213.859375 548.179688 215.277344 C 547.304688 216.695312 546.464844 218.136719 545.65625 219.59375 C 544.847656 221.050781 544.074219 222.527344 543.332031 224.019531 C 542.59375 225.511719 541.886719 227.023438 541.21875 228.546875 C 540.546875 230.074219 539.914062 231.617188 539.316406 233.171875 C 538.714844 234.726562 538.152344 236.296875 537.625 237.875 C 537.101562 239.457031 536.609375 241.050781 536.15625 242.65625 C 535.703125 244.261719 535.289062 245.875 534.910156 247.496094 C 534.53125 249.121094 534.191406 250.753906 533.890625 252.390625 C 533.585938 254.03125 533.320312 255.675781 533.09375 257.328125 C 532.867188 258.980469 532.679688 260.632812 532.53125 262.292969 Z M 691.222656 214.695312 C 691.671875 214.277344 692.15625 213.898438 692.675781 213.566406 C 693.195312 213.234375 693.742188 212.953125 694.3125 212.722656 C 694.882812 212.492188 695.46875 212.316406 696.074219 212.195312 C 696.679688 212.070312 697.289062 212.003906 697.902344 211.996094 C 698.519531 211.984375 699.132812 212.03125 699.738281 212.136719 C 700.347656 212.238281 700.9375 212.398438 701.515625 212.609375 C 702.09375 212.824219 702.648438 213.085938 703.179688 213.402344 C 703.707031 213.71875 704.203125 214.078125 704.667969 214.484375 C 705.558594 215.421875 706.25 216.484375 706.746094 217.675781 C 707.246094 218.871094 707.511719 220.113281 707.546875 221.402344 C 707.558594 222.660156 707.328125 223.871094 706.863281 225.039062 C 706.398438 226.207031 705.730469 227.242188 704.859375 228.148438 C 703.945312 229.074219 702.890625 229.785156 701.691406 230.28125 C 700.492188 230.777344 699.242188 231.019531 697.945312 231.011719 C 696.636719 231.046875 695.382812 230.816406 694.175781 230.316406 C 692.964844 229.816406 691.910156 229.09375 691.011719 228.148438 C 690.152344 227.238281 689.488281 226.199219 689.027344 225.03125 C 688.566406 223.867188 688.339844 222.65625 688.34375 221.402344 C 688.363281 220.140625 688.621094 218.925781 689.121094 217.765625 C 689.621094 216.605469 690.320312 215.582031 691.222656 214.695312 Z M 582.925781 214.695312 C 583.589844 214.007812 584.34375 213.429688 585.179688 212.964844 C 586.019531 212.496094 586.90625 212.164062 587.84375 211.964844 C 588.78125 211.765625 589.730469 211.710938 590.683594 211.792969 C 591.640625 211.878906 592.5625 212.101562 593.449219 212.460938 C 594.339844 212.824219 595.152344 213.304688 595.898438 213.910156 C 596.640625 214.515625 597.28125 215.21875 597.816406 216.015625 C 598.347656 216.8125 598.753906 217.667969 599.03125 218.585938 C 599.308594 219.503906 599.445312 220.445312 599.441406 221.402344 C 599.449219 222.707031 599.199219 223.964844 598.699219 225.167969 C 598.195312 226.371094 597.476562 227.429688 596.542969 228.339844 C 595.648438 229.21875 594.621094 229.890625 593.460938 230.351562 C 592.296875 230.816406 591.089844 231.035156 589.839844 231.011719 C 588.535156 231.046875 587.28125 230.816406 586.078125 230.316406 C 584.871094 229.820312 583.820312 229.097656 582.925781 228.148438 C 582.042969 227.25 581.367188 226.21875 580.898438 225.046875 C 580.433594 223.878906 580.210938 222.664062 580.234375 221.402344 C 580.246094 220.15625 580.480469 218.953125 580.945312 217.796875 C 581.410156 216.636719 582.070312 215.605469 582.925781 214.695312 Z M 582.925781 214.695312 " fill-opacity="1" fill-rule="nonzero"/><g clip-path="url(#clip-0)"><path fill="rgb(100%, 51.759338%, 0%)" d="M 792.492188 281.511719 L 774.648438 281.511719 L 774.648438 297.921875 C 774.742188 298.3125 774.8125 298.710938 774.863281 299.113281 L 774.863281 408.890625 C 774.863281 409.46875 774.890625 410.046875 774.945312 410.621094 C 775.003906 411.195312 775.085938 411.765625 775.199219 412.332031 C 775.3125 412.902344 775.453125 413.460938 775.621094 414.011719 C 775.789062 414.566406 775.984375 415.109375 776.203125 415.644531 C 776.425781 416.175781 776.671875 416.699219 776.941406 417.207031 C 777.214844 417.71875 777.511719 418.210938 777.832031 418.691406 C 778.152344 419.171875 778.496094 419.636719 778.863281 420.082031 C 779.230469 420.53125 779.617188 420.957031 780.023438 421.367188 C 780.433594 421.773438 780.859375 422.160156 781.308594 422.527344 C 781.753906 422.894531 782.21875 423.238281 782.695312 423.558594 C 783.175781 423.878906 783.671875 424.175781 784.179688 424.449219 C 784.691406 424.722656 785.210938 424.96875 785.746094 425.191406 C 786.277344 425.410156 786.820312 425.605469 787.375 425.773438 C 787.925781 425.941406 788.484375 426.082031 789.050781 426.195312 C 789.617188 426.304688 790.1875 426.390625 790.765625 426.449219 C 791.339844 426.503906 791.914062 426.53125 792.492188 426.53125 C 793.070312 426.53125 793.644531 426.503906 794.21875 426.449219 C 794.792969 426.390625 795.363281 426.304688 795.929688 426.195312 C 796.496094 426.082031 797.058594 425.941406 797.609375 425.773438 C 798.164062 425.605469 798.707031 425.410156 799.238281 425.191406 C 799.773438 424.96875 800.292969 424.722656 800.804688 424.449219 C 801.3125 424.175781 801.808594 423.878906 802.285156 423.558594 C 802.765625 423.238281 803.230469 422.894531 803.675781 422.527344 C 804.121094 422.160156 804.550781 421.773438 804.957031 421.367188 C 805.367188 420.957031 805.753906 420.53125 806.121094 420.082031 C 806.488281 419.636719 806.832031 419.171875 807.152344 418.691406 C 807.472656 418.210938 807.769531 417.71875 808.039062 417.207031 C 808.3125 416.699219 808.558594 416.175781 808.78125 415.644531 C 809 415.109375 809.195312 414.566406 809.363281 414.011719 C 809.53125 413.460938 809.671875 412.902344 809.785156 412.332031 C 809.894531 411.765625 809.980469 411.195312 810.039062 410.621094 C 810.09375 410.046875 810.121094 409.46875 810.121094 408.890625 L 810.121094 299.113281 C 810.121094 298.535156 810.089844 297.960938 810.035156 297.386719 C 809.976562 296.8125 809.890625 296.242188 809.777344 295.675781 C 809.664062 295.109375 809.523438 294.550781 809.355469 294 C 809.1875 293.449219 808.992188 292.90625 808.769531 292.375 C 808.546875 291.839844 808.300781 291.320312 808.027344 290.8125 C 807.753906 290.304688 807.457031 289.808594 807.136719 289.332031 C 806.816406 288.851562 806.472656 288.390625 806.105469 287.941406 C 805.742188 287.496094 805.351562 287.070312 804.945312 286.664062 C 804.535156 286.257812 804.109375 285.871094 803.664062 285.503906 C 803.21875 285.136719 802.753906 284.796875 802.273438 284.476562 C 801.796875 284.15625 801.300781 283.859375 800.792969 283.585938 C 800.285156 283.316406 799.761719 283.070312 799.230469 282.851562 C 798.695312 282.628906 798.15625 282.433594 797.601562 282.269531 C 797.050781 282.101562 796.492188 281.960938 795.925781 281.847656 C 795.359375 281.734375 794.792969 281.652344 794.21875 281.59375 C 793.644531 281.539062 793.070312 281.511719 792.492188 281.511719 Z M 792.492188 281.511719 " fill-opacity="1" fill-rule="nonzero"/></g><path fill="rgb(100%, 51.759338%, 0%)" d="M 672.84375 527.378906 C 672.84375 528.082031 672.878906 528.78125 672.945312 529.484375 C 673.015625 530.183594 673.117188 530.878906 673.257812 531.570312 C 673.394531 532.257812 673.5625 532.941406 673.769531 533.613281 C 673.972656 534.285156 674.207031 534.949219 674.476562 535.597656 C 674.746094 536.25 675.046875 536.882812 675.378906 537.503906 C 675.710938 538.125 676.070312 538.726562 676.460938 539.3125 C 676.851562 539.898438 677.269531 540.460938 677.71875 541.007812 C 678.164062 541.550781 678.636719 542.070312 679.132812 542.570312 C 679.628906 543.066406 680.148438 543.539062 680.695312 543.984375 C 681.238281 544.429688 681.800781 544.847656 682.386719 545.238281 C 682.972656 545.632812 683.574219 545.992188 684.191406 546.324219 C 684.8125 546.65625 685.449219 546.957031 686.097656 547.226562 C 686.746094 547.496094 687.410156 547.730469 688.082031 547.9375 C 688.753906 548.140625 689.4375 548.3125 690.125 548.449219 C 690.816406 548.585938 691.511719 548.6875 692.210938 548.757812 C 692.910156 548.828125 693.613281 548.859375 694.316406 548.859375 C 695.019531 548.859375 695.71875 548.828125 696.417969 548.757812 C 697.121094 548.6875 697.8125 548.585938 698.503906 548.449219 C 699.195312 548.3125 699.875 548.140625 700.546875 547.9375 C 701.21875 547.730469 701.882812 547.496094 702.53125 547.226562 C 703.179688 546.957031 703.816406 546.65625 704.4375 546.324219 C 705.054688 545.992188 705.660156 545.632812 706.242188 545.238281 C 706.828125 544.847656 707.394531 544.429688 707.9375 543.984375 C 708.480469 543.539062 709 543.066406 709.496094 542.570312 C 709.996094 542.070312 710.464844 541.550781 710.914062 541.007812 C 711.359375 540.460938 711.777344 539.898438 712.167969 539.3125 C 712.558594 538.726562 712.917969 538.125 713.25 537.503906 C 713.582031 536.882812 713.882812 536.25 714.152344 535.597656 C 714.421875 534.949219 714.65625 534.285156 714.863281 533.613281 C 715.066406 532.941406 715.238281 532.257812 715.375 531.570312 C 715.511719 530.878906 715.613281 530.183594 715.683594 529.484375 C 715.75 528.78125 715.785156 528.082031 715.785156 527.378906 L 715.785156 488.503906 L 672.84375 488.503906 Z M 672.84375 527.378906 " fill-opacity="1" fill-rule="nonzero"/><path fill="rgb(100%, 51.759338%, 0%)" d="M 557.113281 281.511719 L 532.183594 281.511719 L 532.183594 469.289062 L 755.445312 469.289062 L 755.445312 281.511719 Z M 557.113281 281.511719 " fill-opacity="1" fill-rule="nonzero"/><path fill="rgb(100%, 100%, 100%)" d="M 953.792969 595.367188 C 952.289062 594.695312 950.816406 593.972656 949.367188 593.199219 C 947.921875 592.421875 946.5 591.597656 945.113281 590.71875 C 943.722656 589.839844 942.367188 588.914062 941.046875 587.9375 C 939.726562 586.964844 938.441406 585.941406 937.191406 584.875 C 935.941406 583.808594 934.734375 582.695312 933.566406 581.542969 C 932.398438 580.386719 931.273438 579.191406 930.191406 577.957031 C 929.109375 576.71875 928.074219 575.449219 927.082031 574.136719 C 926.09375 572.828125 925.148438 571.484375 924.257812 570.105469 C 923.363281 568.726562 922.519531 567.320312 921.726562 565.882812 C 920.9375 564.441406 920.195312 562.976562 919.511719 561.484375 C 918.824219 559.992188 918.191406 558.480469 917.613281 556.941406 C 917.039062 555.40625 916.515625 553.847656 916.050781 552.273438 C 915.585938 550.699219 915.179688 549.109375 914.828125 547.507812 C 914.476562 545.902344 914.183594 544.289062 913.949219 542.664062 C 913.714844 541.039062 913.539062 539.40625 913.421875 537.769531 C 913.308594 536.132812 913.25 534.492188 913.25 532.847656 C 913.265625 529.898438 913.464844 526.964844 913.851562 524.039062 C 914.234375 521.113281 914.804688 518.226562 915.558594 515.375 C 916.308594 512.523438 917.238281 509.730469 918.34375 506.996094 C 919.449219 504.257812 920.722656 501.605469 922.167969 499.03125 C 923.609375 496.457031 925.207031 493.988281 926.964844 491.617188 C 928.71875 489.246094 930.617188 486.992188 932.660156 484.863281 C 934.699219 482.730469 936.867188 480.738281 939.160156 478.882812 C 941.457031 477.023438 943.859375 475.320312 946.367188 473.765625 C 946.800781 473.472656 947.203125 473.140625 947.574219 472.765625 C 947.945312 472.394531 948.273438 471.988281 948.566406 471.550781 C 948.855469 471.113281 949.101562 470.652344 949.300781 470.167969 C 949.5 469.679688 949.652344 469.179688 949.753906 468.664062 C 949.855469 468.152344 949.910156 467.628906 949.910156 467.105469 C 949.910156 466.582031 949.859375 466.0625 949.757812 465.546875 C 949.660156 465.03125 949.507812 464.53125 949.308594 464.042969 C 949.113281 463.558594 948.867188 463.09375 948.578125 462.65625 C 946.671875 459.894531 944.613281 457.25 942.402344 454.726562 C 940.191406 452.199219 937.84375 449.8125 935.355469 447.554688 C 932.871094 445.300781 930.261719 443.195312 927.53125 441.242188 C 924.800781 439.289062 921.96875 437.496094 919.03125 435.867188 C 916.097656 434.242188 913.078125 432.785156 909.972656 431.503906 C 906.871094 430.226562 903.703125 429.128906 900.472656 428.210938 C 897.242188 427.296875 893.96875 426.570312 890.652344 426.03125 C 887.339844 425.492188 884.003906 425.144531 880.652344 424.988281 C 872.285156 424.742188 864.007812 425.484375 855.824219 427.226562 C 847.636719 428.964844 839.773438 431.648438 832.234375 435.277344 C 826.710938 437.925781 820.929688 439.753906 814.886719 440.757812 C 808.578125 439.839844 802.558594 437.992188 796.824219 435.210938 C 790.859375 432.375 784.667969 430.160156 778.257812 428.558594 C 771.847656 426.960938 765.339844 426.011719 758.738281 425.714844 C 754.785156 425.847656 750.859375 426.234375 746.957031 426.875 C 743.050781 427.515625 739.207031 428.402344 735.421875 429.542969 C 731.632812 430.679688 727.933594 432.058594 724.328125 433.675781 C 720.71875 435.292969 717.230469 437.136719 713.859375 439.207031 C 710.492188 441.277344 707.269531 443.554688 704.195312 446.039062 C 701.121094 448.527344 698.222656 451.203125 695.496094 454.0625 C 692.765625 456.925781 690.238281 459.953125 687.902344 463.140625 C 685.566406 466.332031 683.449219 469.660156 681.546875 473.121094 C 651.367188 526.335938 670.25 606.960938 703.445312 655.5625 C 716.230469 674.363281 735.546875 702.742188 762.449219 702.742188 L 763.96875 702.742188 C 773.554688 702.144531 782.652344 699.710938 791.257812 695.4375 C 795.609375 693.238281 800.152344 691.5625 804.890625 690.414062 C 809.625 689.261719 814.433594 688.660156 819.308594 688.617188 C 823.929688 688.667969 828.484375 689.246094 832.972656 690.355469 C 837.460938 691.460938 841.757812 693.070312 845.871094 695.179688 C 850.457031 697.503906 855.246094 699.273438 860.246094 700.480469 C 865.242188 701.683594 870.3125 702.300781 875.453125 702.324219 C 903.359375 701.773438 920.289062 676.523438 933.890625 656.367188 C 944.480469 640.507812 952.636719 623.484375 958.359375 605.300781 C 958.515625 604.820312 958.625 604.335938 958.6875 603.835938 C 958.75 603.339844 958.769531 602.839844 958.738281 602.339844 C 958.710938 601.835938 958.636719 601.34375 958.515625 600.855469 C 958.390625 600.367188 958.226562 599.898438 958.015625 599.441406 C 957.808594 598.984375 957.558594 598.550781 957.265625 598.144531 C 956.976562 597.734375 956.648438 597.355469 956.289062 597.007812 C 955.925781 596.65625 955.535156 596.34375 955.117188 596.070312 C 954.695312 595.792969 954.253906 595.558594 953.792969 595.367188 Z M 953.792969 595.367188 " fill-opacity="1" fill-rule="nonzero"/><path fill="rgb(100%, 100%, 100%)" d="M 860.136719 377.195312 C 862.765625 374.007812 865.125 370.632812 867.210938 367.066406 C 869.296875 363.503906 871.089844 359.796875 872.585938 355.945312 C 874.078125 352.09375 875.257812 348.148438 876.121094 344.113281 C 876.984375 340.074219 877.519531 335.992188 877.730469 331.867188 C 873.859375 332.796875 870.085938 334.015625 866.410156 335.527344 C 862.730469 337.039062 859.1875 338.824219 855.785156 340.882812 C 852.382812 342.941406 849.160156 345.25 846.113281 347.804688 C 843.070312 350.363281 840.238281 353.140625 837.625 356.136719 C 834.984375 359.230469 832.605469 362.515625 830.496094 365.996094 C 828.382812 369.472656 826.5625 373.097656 825.035156 376.867188 C 823.507812 380.636719 822.292969 384.507812 821.386719 388.472656 C 820.484375 392.4375 819.902344 396.453125 819.644531 400.511719 C 823.609375 399.945312 827.480469 399.007812 831.261719 397.699219 C 835.046875 396.394531 838.671875 394.742188 842.136719 392.746094 C 845.605469 390.75 848.851562 388.445312 851.878906 385.828125 C 854.90625 383.214844 857.660156 380.335938 860.136719 377.195312 Z M 860.136719 377.195312 " fill-opacity="1" fill-rule="nonzero"/></svg>