<?xml version="1.0" encoding="UTF-8"?><svg xmlns="http://www.w3.org/2000/svg" xmlns:xlink="http://www.w3.org/1999/xlink" width="1440" zoomAndPan="magnify" viewBox="0 0 1440 809.999993" height="809.999993" preserveAspectRatio="xMidYMid meet" version="1.0"><defs><clipPath id="clip-0"><path d="M 513 81 L 915 81 L 915 737.949219 L 513 737.949219 Z M 513 81 " clip-rule="nonzero"/></clipPath></defs><g clip-path="url(#clip-0)"><path fill="rgb(0%, 24.308777%, 32.159424%)" d="M 759.890625 465.324219 L 843.238281 544.558594 L 759.890625 623.867188 Z M 759.890625 195.160156 L 843.238281 274.390625 L 759.890625 353.703125 Z M 710.941406 81 L 710.941406 355.089844 L 544.398438 217.082031 L 513.152344 254.777344 L 699.9375 409.476562 L 513.152344 564.171875 L 544.398438 601.867188 L 710.941406 463.863281 L 710.941406 737.949219 L 914.199219 544.558594 L 772.203125 409.476562 L 914.199219 274.390625 L 710.941406 81 " fill-opacity="1" fill-rule="nonzero"/></g><path fill="rgb(0%, 24.308777%, 32.159424%)" d="M 932.59375 409.476562 C 932.59375 398.550781 923.742188 389.628906 912.734375 389.628906 C 901.808594 389.628906 892.957031 398.550781 892.957031 409.476562 C 892.957031 420.476562 901.808594 429.320312 912.734375 429.320312 C 923.742188 429.320312 932.59375 420.476562 932.59375 409.476562 " fill-opacity="1" fill-rule="nonzero"/><path fill="rgb(0%, 24.308777%, 32.159424%)" d="M 547.09375 409.476562 C 547.09375 398.550781 538.242188 389.628906 527.3125 389.628906 C 516.308594 389.628906 507.457031 398.550781 507.457031 409.476562 C 507.457031 420.476562 516.308594 429.320312 527.238281 429.320312 C 538.242188 429.320312 547.09375 420.476562 547.09375 409.476562 " fill-opacity="1" fill-rule="nonzero"/><path fill="rgb(0%, 24.308777%, 32.159424%)" d="M 345.914062 567.710938 C 351.535156 574.019531 361.15625 574.636719 367.464844 569.019531 C 373.777344 563.558594 374.390625 553.941406 368.925781 547.632812 C 299.816406 468.476562 299.816406 350.472656 368.925781 271.390625 C 374.46875 265.007812 373.851562 255.390625 367.464844 249.851562 C 361.15625 244.3125 351.457031 244.929688 345.914062 251.316406 C 266.800781 341.933594 266.800781 477.015625 345.914062 567.710938 " fill-opacity="1" fill-rule="nonzero"/><path fill="rgb(0%, 24.308777%, 32.159424%)" d="M 393.015625 504.25 C 397.941406 511.09375 407.40625 512.785156 414.335938 507.941406 C 421.183594 503.015625 422.878906 493.476562 417.953125 486.632812 C 385.320312 440.398438 385.320312 378.628906 417.953125 332.316406 C 422.878906 325.472656 421.183594 315.933594 414.335938 311.085938 C 407.40625 306.238281 397.941406 307.855469 393.015625 314.703125 C 352.917969 371.550781 352.917969 447.476562 393.015625 504.25 " fill-opacity="1" fill-rule="nonzero"/><path fill="rgb(0%, 24.308777%, 32.159424%)" d="M 450.351562 452.09375 C 454.429688 459.476562 463.667969 462.167969 471.054688 458.015625 C 478.441406 453.9375 481.136719 444.707031 477.058594 437.324219 C 467.4375 420.015625 467.4375 399.011719 477.058594 381.703125 C 481.136719 374.320312 478.441406 365.011719 471.054688 360.933594 C 463.667969 356.859375 454.429688 359.472656 450.351562 366.859375 C 435.652344 393.398438 435.652344 425.550781 450.351562 452.09375 " fill-opacity="1" fill-rule="nonzero"/><path fill="rgb(0%, 24.308777%, 32.159424%)" d="M 1094.132812 567.710938 C 1173.25 477.015625 1173.25 341.933594 1094.132812 251.316406 C 1088.59375 244.929688 1078.972656 244.3125 1072.585938 249.851562 C 1066.195312 255.390625 1065.582031 265.007812 1071.121094 271.390625 C 1140.234375 350.472656 1140.234375 468.476562 1071.121094 547.632812 C 1065.582031 553.941406 1066.273438 563.636719 1072.660156 569.175781 C 1078.972656 574.636719 1088.59375 573.941406 1094.132812 567.710938 " fill-opacity="1" fill-rule="nonzero"/><path fill="rgb(0%, 24.308777%, 32.159424%)" d="M 1046.957031 314.703125 C 1042.109375 307.855469 1032.566406 306.238281 1025.714844 311.085938 C 1018.789062 315.933594 1017.171875 325.472656 1022.097656 332.316406 C 1054.730469 378.628906 1054.730469 440.398438 1022.097656 486.632812 C 1017.171875 493.554688 1018.789062 503.015625 1025.714844 507.941406 C 1032.566406 512.785156 1042.109375 511.171875 1046.957031 504.25 C 1087.128906 447.476562 1087.128906 371.550781 1046.957031 314.703125 " fill-opacity="1" fill-rule="nonzero"/><path fill="rgb(0%, 24.308777%, 32.159424%)" d="M 989.773438 366.859375 C 985.617188 359.472656 976.382812 356.859375 968.996094 360.933594 C 961.605469 365.011719 958.914062 374.320312 962.992188 381.703125 C 972.613281 399.011719 972.613281 420.015625 962.992188 437.324219 C 958.914062 444.707031 961.605469 453.9375 968.996094 458.015625 C 976.382812 462.167969 985.617188 459.476562 989.773438 452.09375 C 1004.398438 425.550781 1004.398438 393.398438 989.773438 366.859375 " fill-opacity="1" fill-rule="nonzero"/><path fill="rgb(100%, 51.759338%, 0%)" d="M 345.914062 567.191406 C 351.535156 573.5 361.15625 574.117188 367.464844 568.5 C 373.777344 563.039062 374.390625 553.421875 368.925781 547.113281 C 299.816406 467.957031 299.816406 349.953125 368.925781 270.871094 C 374.46875 264.488281 373.851562 254.871094 367.464844 249.332031 C 361.15625 243.792969 351.457031 244.410156 345.914062 250.792969 C 266.800781 341.414062 266.800781 476.496094 345.914062 567.191406 " fill-opacity="1" fill-rule="nonzero"/><path fill="rgb(100%, 51.759338%, 0%)" d="M 393.015625 503.726562 C 397.941406 510.574219 407.40625 512.265625 414.335938 507.421875 C 421.183594 502.496094 422.878906 492.957031 417.953125 486.113281 C 385.320312 439.878906 385.320312 378.109375 417.953125 331.796875 C 422.878906 324.953125 421.183594 315.414062 414.335938 310.566406 C 407.40625 305.71875 397.941406 307.335938 393.015625 314.183594 C 352.917969 371.03125 352.917969 446.957031 393.015625 503.726562 " fill-opacity="1" fill-rule="nonzero"/><path fill="rgb(100%, 51.759338%, 0%)" d="M 450.351562 451.570312 C 454.429688 458.957031 463.667969 461.648438 471.054688 457.496094 C 478.441406 453.417969 481.136719 444.1875 477.058594 436.800781 C 467.4375 419.492188 467.4375 398.492188 477.058594 381.183594 C 481.136719 373.800781 478.441406 364.492188 471.054688 360.414062 C 463.667969 356.335938 454.429688 358.953125 450.351562 366.335938 C 435.652344 392.878906 435.652344 425.03125 450.351562 451.570312 " fill-opacity="1" fill-rule="nonzero"/><path fill="rgb(100%, 51.759338%, 0%)" d="M 1094.132812 568.226562 C 1173.25 477.53125 1173.25 342.449219 1094.132812 251.832031 C 1088.59375 245.445312 1078.972656 244.832031 1072.585938 250.367188 C 1066.195312 255.90625 1065.582031 265.523438 1071.121094 271.910156 C 1140.234375 350.988281 1140.234375 468.992188 1071.121094 548.152344 C 1065.582031 554.457031 1066.273438 564.152344 1072.660156 569.691406 C 1078.972656 575.152344 1088.59375 574.460938 1094.132812 568.226562 " fill-opacity="1" fill-rule="nonzero"/><path fill="rgb(100%, 51.759338%, 0%)" d="M 1046.957031 315.21875 C 1042.109375 308.371094 1032.566406 306.757812 1025.714844 311.601562 C 1018.789062 316.449219 1017.171875 325.988281 1022.097656 332.835938 C 1054.730469 379.144531 1054.730469 440.914062 1022.097656 487.148438 C 1017.171875 494.070312 1018.789062 503.535156 1025.714844 508.457031 C 1032.566406 513.304688 1042.109375 511.6875 1046.957031 504.765625 C 1087.128906 447.992188 1087.128906 372.066406 1046.957031 315.21875 " fill-opacity="1" fill-rule="nonzero"/><path fill="rgb(100%, 51.759338%, 0%)" d="M 989.773438 367.375 C 985.617188 359.988281 976.382812 357.375 968.996094 361.449219 C 961.605469 365.527344 958.914062 374.835938 962.992188 382.21875 C 972.613281 399.527344 972.613281 420.53125 962.992188 437.839844 C 958.914062 445.222656 961.605469 454.453125 968.996094 458.53125 C 976.382812 462.683594 985.617188 459.992188 989.773438 452.609375 C 1004.398438 426.070312 1004.398438 393.914062 989.773438 367.375 " fill-opacity="1" fill-rule="nonzero"/></svg>