<svg xmlns="http://www.w3.org/2000/svg" xmlns:xlink="http://www.w3.org/1999/xlink" width="1920" zoomAndPan="magnify" viewBox="0 0 1440 809.999993" height="1080" preserveAspectRatio="xMidYMid meet" version="1.0"><defs><clipPath id="315a914d49"><path d="M 230.542969 76.191406 L 911.542969 76.191406 L 911.542969 733.941406 L 230.542969 733.941406 Z M 230.542969 76.191406 " clip-rule="nonzero"/></clipPath><clipPath id="a51a2a4ed3"><path d="M 860.273438 76.191406 L 1209.457031 76.191406 L 1209.457031 733.941406 L 860.273438 733.941406 Z M 860.273438 76.191406 " clip-rule="nonzero"/></clipPath></defs><g clip-path="url(#315a914d49)"><path fill="#ffffff" d="M 900.632812 711.875 L 870.109375 711.875 L 870.109375 281.847656 C 870.109375 275.804688 865.207031 270.902344 859.164062 270.902344 L 582.058594 270.902344 L 582.058594 87.136719 C 582.058594 81.09375 577.15625 76.191406 571.113281 76.191406 L 283.042969 76.191406 C 277 76.191406 272.097656 81.09375 272.097656 87.136719 L 272.097656 711.875 L 241.59375 711.875 C 235.550781 711.875 230.644531 716.777344 230.644531 722.820312 C 230.644531 728.863281 235.550781 733.765625 241.59375 733.765625 L 900.648438 733.765625 C 906.691406 733.765625 911.59375 728.863281 911.59375 722.820312 C 911.578125 716.777344 906.675781 711.875 900.632812 711.875 Z M 293.988281 98.082031 L 560.164062 98.082031 L 560.164062 711.890625 L 293.988281 711.890625 Z M 582.058594 711.875 L 582.058594 292.792969 L 848.234375 292.792969 L 848.234375 711.875 Z M 400.28125 591.160156 L 347.988281 591.160156 C 341.945312 591.160156 337.042969 596.066406 337.042969 602.109375 L 337.042969 658.4375 C 337.042969 664.480469 341.945312 669.382812 347.988281 669.382812 L 400.28125 669.382812 C 406.328125 669.382812 411.230469 664.480469 411.230469 658.4375 L 411.230469 602.109375 C 411.230469 596.066406 406.328125 591.160156 400.28125 591.160156 Z M 389.335938 647.492188 L 358.933594 647.492188 L 358.933594 613.054688 L 389.335938 613.054688 Z M 400.28125 140.574219 L 347.988281 140.574219 C 341.945312 140.574219 337.042969 145.476562 337.042969 151.519531 L 337.042969 207.847656 C 337.042969 213.890625 341.945312 218.792969 347.988281 218.792969 L 400.28125 218.792969 C 406.328125 218.792969 411.230469 213.890625 411.230469 207.847656 L 411.230469 151.519531 C 411.230469 145.476562 406.328125 140.574219 400.28125 140.574219 Z M 389.335938 196.902344 L 358.933594 196.902344 L 358.933594 162.464844 L 389.335938 162.464844 Z M 506.183594 365.875 L 453.890625 365.875 C 447.847656 365.875 442.945312 370.777344 442.945312 376.820312 L 442.945312 433.152344 C 442.945312 439.195312 447.847656 444.097656 453.890625 444.097656 L 506.183594 444.097656 C 512.226562 444.097656 517.132812 439.195312 517.132812 433.152344 L 517.132812 376.820312 C 517.132812 370.777344 512.226562 365.875 506.183594 365.875 Z M 495.238281 422.1875 L 464.835938 422.1875 L 464.835938 387.75 L 495.238281 387.75 Z M 400.28125 253.214844 L 347.988281 253.214844 C 341.945312 253.214844 337.042969 258.117188 337.042969 264.160156 L 337.042969 320.492188 C 337.042969 326.535156 341.945312 331.4375 347.988281 331.4375 L 400.28125 331.4375 C 406.328125 331.4375 411.230469 326.535156 411.230469 320.492188 L 411.230469 264.160156 C 411.230469 258.117188 406.328125 253.214844 400.28125 253.214844 Z M 389.335938 309.546875 L 358.933594 309.546875 L 358.933594 275.109375 L 389.335938 275.109375 Z M 400.28125 478.519531 L 347.988281 478.519531 C 341.945312 478.519531 337.042969 483.421875 337.042969 489.464844 L 337.042969 545.792969 C 337.042969 551.839844 341.945312 556.742188 347.988281 556.742188 L 400.28125 556.742188 C 406.328125 556.742188 411.230469 551.839844 411.230469 545.792969 L 411.230469 489.464844 C 411.230469 483.421875 406.328125 478.519531 400.28125 478.519531 Z M 389.335938 534.847656 L 358.933594 534.847656 L 358.933594 500.410156 L 389.335938 500.410156 Z M 400.28125 365.875 L 347.988281 365.875 C 341.945312 365.875 337.042969 370.777344 337.042969 376.820312 L 337.042969 433.152344 C 337.042969 439.195312 341.945312 444.097656 347.988281 444.097656 L 400.28125 444.097656 C 406.328125 444.097656 411.230469 439.195312 411.230469 433.152344 L 411.230469 376.820312 C 411.230469 370.777344 406.328125 365.875 400.28125 365.875 Z M 389.335938 422.1875 L 358.933594 422.1875 L 358.933594 387.75 L 389.335938 387.75 Z M 506.183594 478.519531 L 453.890625 478.519531 C 447.847656 478.519531 442.945312 483.421875 442.945312 489.464844 L 442.945312 545.792969 C 442.945312 551.839844 447.847656 556.742188 453.890625 556.742188 L 506.183594 556.742188 C 512.226562 556.742188 517.132812 551.839844 517.132812 545.792969 L 517.132812 489.464844 C 517.132812 483.421875 512.226562 478.519531 506.183594 478.519531 Z M 495.238281 534.847656 L 464.835938 534.847656 L 464.835938 500.410156 L 495.238281 500.410156 Z M 506.183594 253.214844 L 453.890625 253.214844 C 447.847656 253.214844 442.945312 258.117188 442.945312 264.160156 L 442.945312 320.492188 C 442.945312 326.535156 447.847656 331.4375 453.890625 331.4375 L 506.183594 331.4375 C 512.226562 331.4375 517.132812 326.535156 517.132812 320.492188 L 517.132812 264.160156 C 517.132812 258.117188 512.226562 253.214844 506.183594 253.214844 Z M 495.238281 309.546875 L 464.835938 309.546875 L 464.835938 275.109375 L 495.238281 275.109375 Z M 506.183594 140.574219 L 453.890625 140.574219 C 447.847656 140.574219 442.945312 145.476562 442.945312 151.519531 L 442.945312 207.847656 C 442.945312 213.890625 447.847656 218.792969 453.890625 218.792969 L 506.183594 218.792969 C 512.226562 218.792969 517.132812 213.890625 517.132812 207.847656 L 517.132812 151.519531 C 517.132812 145.476562 512.226562 140.574219 506.183594 140.574219 Z M 495.238281 196.902344 L 464.835938 196.902344 L 464.835938 162.464844 L 495.238281 162.464844 Z M 506.183594 591.160156 L 453.890625 591.160156 C 447.847656 591.160156 442.945312 596.066406 442.945312 602.109375 L 442.945312 658.4375 C 442.945312 664.480469 447.847656 669.382812 453.890625 669.382812 L 506.183594 669.382812 C 512.226562 669.382812 517.132812 664.480469 517.132812 658.4375 L 517.132812 602.109375 C 517.132812 596.066406 512.226562 591.160156 506.183594 591.160156 Z M 495.238281 647.492188 L 464.835938 647.492188 L 464.835938 613.054688 L 495.238281 613.054688 Z M 794.234375 463.230469 L 741.941406 463.230469 C 735.898438 463.230469 730.996094 468.132812 730.996094 474.179688 L 730.996094 530.507812 C 730.996094 536.550781 735.898438 541.453125 741.941406 541.453125 L 794.234375 541.453125 C 800.277344 541.453125 805.183594 536.550781 805.183594 530.507812 L 805.183594 474.179688 C 805.183594 468.132812 800.277344 463.230469 794.234375 463.230469 Z M 783.289062 519.5625 L 752.886719 519.5625 L 752.886719 485.125 L 783.289062 485.125 Z M 794.234375 350.589844 L 741.941406 350.589844 C 735.898438 350.589844 730.996094 355.492188 730.996094 361.535156 L 730.996094 417.863281 C 730.996094 423.90625 735.898438 428.8125 741.941406 428.8125 L 794.234375 428.8125 C 800.277344 428.8125 805.183594 423.90625 805.183594 417.863281 L 805.183594 361.535156 C 805.183594 355.492188 800.277344 350.589844 794.234375 350.589844 Z M 783.289062 406.902344 L 752.886719 406.902344 L 752.886719 372.464844 L 783.289062 372.464844 Z M 794.234375 575.875 L 741.941406 575.875 C 735.898438 575.875 730.996094 580.777344 730.996094 586.820312 L 730.996094 643.152344 C 730.996094 649.195312 735.898438 654.097656 741.941406 654.097656 L 794.234375 654.097656 C 800.277344 654.097656 805.183594 649.195312 805.183594 643.152344 L 805.183594 586.820312 C 805.183594 580.777344 800.277344 575.875 794.234375 575.875 Z M 783.289062 632.203125 L 752.886719 632.203125 L 752.886719 597.765625 L 783.289062 597.765625 Z M 688.351562 575.875 L 636.054688 575.875 C 630.011719 575.875 625.109375 580.777344 625.109375 586.820312 L 625.109375 643.152344 C 625.109375 649.195312 630.011719 654.097656 636.054688 654.097656 L 688.351562 654.097656 C 694.394531 654.097656 699.296875 649.195312 699.296875 643.152344 L 699.296875 586.820312 C 699.296875 580.777344 694.394531 575.875 688.351562 575.875 Z M 677.40625 632.203125 L 647 632.203125 L 647 597.765625 L 677.40625 597.765625 Z M 688.351562 463.230469 L 636.054688 463.230469 C 630.011719 463.230469 625.109375 468.132812 625.109375 474.179688 L 625.109375 530.507812 C 625.109375 536.550781 630.011719 541.453125 636.054688 541.453125 L 688.351562 541.453125 C 694.394531 541.453125 699.296875 536.550781 699.296875 530.507812 L 699.296875 474.179688 C 699.296875 468.132812 694.394531 463.230469 688.351562 463.230469 Z M 677.40625 519.5625 L 647 519.5625 L 647 485.125 L 677.40625 485.125 Z M 688.351562 350.589844 L 636.054688 350.589844 C 630.011719 350.589844 625.109375 355.492188 625.109375 361.535156 L 625.109375 417.863281 C 625.109375 423.90625 630.011719 428.8125 636.054688 428.8125 L 688.351562 428.8125 C 694.394531 428.8125 699.296875 423.90625 699.296875 417.863281 L 699.296875 361.535156 C 699.296875 355.492188 694.394531 350.589844 688.351562 350.589844 Z M 677.40625 406.902344 L 647 406.902344 L 647 372.464844 L 677.40625 372.464844 Z M 677.40625 406.902344 " fill-opacity="1" fill-rule="nonzero"/></g><g clip-path="url(#a51a2a4ed3)"><path fill="#ff914d" d="M 539.363281 711.875 L 569.886719 711.875 L 569.886719 281.847656 C 569.886719 275.804688 574.789062 270.902344 580.832031 270.902344 L 857.9375 270.902344 L 857.9375 87.136719 C 857.9375 81.09375 862.839844 76.191406 868.886719 76.191406 L 1156.953125 76.191406 C 1162.996094 76.191406 1167.898438 81.09375 1167.898438 87.136719 L 1167.898438 711.875 L 1198.40625 711.875 C 1204.449219 711.875 1209.351562 716.777344 1209.351562 722.820312 C 1209.351562 728.863281 1204.449219 733.765625 1198.40625 733.765625 L 539.347656 733.765625 C 533.304688 733.765625 528.402344 728.863281 528.402344 722.820312 C 528.417969 716.777344 533.320312 711.875 539.363281 711.875 Z M 1146.007812 98.082031 L 879.832031 98.082031 L 879.832031 711.890625 L 1146.007812 711.890625 Z M 857.9375 711.875 L 857.9375 292.792969 L 591.761719 292.792969 L 591.761719 711.875 Z M 1039.714844 591.160156 L 1092.007812 591.160156 C 1098.050781 591.160156 1102.953125 596.066406 1102.953125 602.109375 L 1102.953125 658.4375 C 1102.953125 664.480469 1098.050781 669.382812 1092.007812 669.382812 L 1039.714844 669.382812 C 1033.671875 669.382812 1028.765625 664.480469 1028.765625 658.4375 L 1028.765625 602.109375 C 1028.765625 596.066406 1033.671875 591.160156 1039.714844 591.160156 Z M 1050.660156 647.492188 L 1081.0625 647.492188 L 1081.0625 613.054688 L 1050.660156 613.054688 Z M 1039.714844 140.574219 L 1092.007812 140.574219 C 1098.050781 140.574219 1102.953125 145.476562 1102.953125 151.519531 L 1102.953125 207.847656 C 1102.953125 213.890625 1098.050781 218.792969 1092.007812 218.792969 L 1039.714844 218.792969 C 1033.671875 218.792969 1028.765625 213.890625 1028.765625 207.847656 L 1028.765625 151.519531 C 1028.765625 145.476562 1033.671875 140.574219 1039.714844 140.574219 Z M 1050.660156 196.902344 L 1081.0625 196.902344 L 1081.0625 162.464844 L 1050.660156 162.464844 Z M 933.8125 365.875 L 986.105469 365.875 C 992.152344 365.875 997.054688 370.777344 997.054688 376.820312 L 997.054688 433.152344 C 997.054688 439.195312 992.152344 444.097656 986.105469 444.097656 L 933.8125 444.097656 C 927.769531 444.097656 922.867188 439.195312 922.867188 433.152344 L 922.867188 376.820312 C 922.867188 370.777344 927.769531 365.875 933.8125 365.875 Z M 944.757812 422.1875 L 975.160156 422.1875 L 975.160156 387.75 L 944.757812 387.75 Z M 1039.714844 253.214844 L 1092.007812 253.214844 C 1098.050781 253.214844 1102.953125 258.117188 1102.953125 264.160156 L 1102.953125 320.492188 C 1102.953125 326.535156 1098.050781 331.4375 1092.007812 331.4375 L 1039.714844 331.4375 C 1033.671875 331.4375 1028.765625 326.535156 1028.765625 320.492188 L 1028.765625 264.160156 C 1028.765625 258.117188 1033.671875 253.214844 1039.714844 253.214844 Z M 1050.660156 309.546875 L 1081.0625 309.546875 L 1081.0625 275.109375 L 1050.660156 275.109375 Z M 1039.714844 478.519531 L 1092.007812 478.519531 C 1098.050781 478.519531 1102.953125 483.421875 1102.953125 489.464844 L 1102.953125 545.792969 C 1102.953125 551.839844 1098.050781 556.742188 1092.007812 556.742188 L 1039.714844 556.742188 C 1033.671875 556.742188 1028.765625 551.839844 1028.765625 545.792969 L 1028.765625 489.464844 C 1028.765625 483.421875 1033.671875 478.519531 1039.714844 478.519531 Z M 1050.660156 534.847656 L 1081.0625 534.847656 L 1081.0625 500.410156 L 1050.660156 500.410156 Z M 1039.714844 365.875 L 1092.007812 365.875 C 1098.050781 365.875 1102.953125 370.777344 1102.953125 376.820312 L 1102.953125 433.152344 C 1102.953125 439.195312 1098.050781 444.097656 1092.007812 444.097656 L 1039.714844 444.097656 C 1033.671875 444.097656 1028.765625 439.195312 1028.765625 433.152344 L 1028.765625 376.820312 C 1028.765625 370.777344 1033.671875 365.875 1039.714844 365.875 Z M 1050.660156 422.1875 L 1081.0625 422.1875 L 1081.0625 387.75 L 1050.660156 387.75 Z M 933.8125 478.519531 L 986.105469 478.519531 C 992.152344 478.519531 997.054688 483.421875 997.054688 489.464844 L 997.054688 545.792969 C 997.054688 551.839844 992.152344 556.742188 986.105469 556.742188 L 933.8125 556.742188 C 927.769531 556.742188 922.867188 551.839844 922.867188 545.792969 L 922.867188 489.464844 C 922.867188 483.421875 927.769531 478.519531 933.8125 478.519531 Z M 944.757812 534.847656 L 975.160156 534.847656 L 975.160156 500.410156 L 944.757812 500.410156 Z M 933.8125 253.214844 L 986.105469 253.214844 C 992.152344 253.214844 997.054688 258.117188 997.054688 264.160156 L 997.054688 320.492188 C 997.054688 326.535156 992.152344 331.4375 986.105469 331.4375 L 933.8125 331.4375 C 927.769531 331.4375 922.867188 326.535156 922.867188 320.492188 L 922.867188 264.160156 C 922.867188 258.117188 927.769531 253.214844 933.8125 253.214844 Z M 944.757812 309.546875 L 975.160156 309.546875 L 975.160156 275.109375 L 944.757812 275.109375 Z M 933.8125 140.574219 L 986.105469 140.574219 C 992.152344 140.574219 997.054688 145.476562 997.054688 151.519531 L 997.054688 207.847656 C 997.054688 213.890625 992.152344 218.792969 986.105469 218.792969 L 933.8125 218.792969 C 927.769531 218.792969 922.867188 213.890625 922.867188 207.847656 L 922.867188 151.519531 C 922.867188 145.476562 927.769531 140.574219 933.8125 140.574219 Z M 944.757812 196.902344 L 975.160156 196.902344 L 975.160156 162.464844 L 944.757812 162.464844 Z M 933.8125 591.160156 L 986.105469 591.160156 C 992.152344 591.160156 997.054688 596.066406 997.054688 602.109375 L 997.054688 658.4375 C 997.054688 664.480469 992.152344 669.382812 986.105469 669.382812 L 933.8125 669.382812 C 927.769531 669.382812 922.867188 664.480469 922.867188 658.4375 L 922.867188 602.109375 C 922.867188 596.066406 927.769531 591.160156 933.8125 591.160156 Z M 944.757812 647.492188 L 975.160156 647.492188 L 975.160156 613.054688 L 944.757812 613.054688 Z M 645.761719 463.230469 L 698.054688 463.230469 C 704.097656 463.230469 709.003906 468.132812 709.003906 474.179688 L 709.003906 530.507812 C 709.003906 536.550781 704.097656 541.453125 698.054688 541.453125 L 645.761719 541.453125 C 639.71875 541.453125 634.816406 536.550781 634.816406 530.507812 L 634.816406 474.179688 C 634.816406 468.132812 639.71875 463.230469 645.761719 463.230469 Z M 656.707031 519.5625 L 687.109375 519.5625 L 687.109375 485.125 L 656.707031 485.125 Z M 645.761719 350.589844 L 698.054688 350.589844 C 704.097656 350.589844 709.003906 355.492188 709.003906 361.535156 L 709.003906 417.863281 C 709.003906 423.90625 704.097656 428.8125 698.054688 428.8125 L 645.761719 428.8125 C 639.71875 428.8125 634.816406 423.90625 634.816406 417.863281 L 634.816406 361.535156 C 634.816406 355.492188 639.71875 350.589844 645.761719 350.589844 Z M 656.707031 406.902344 L 687.109375 406.902344 L 687.109375 372.464844 L 656.707031 372.464844 Z M 645.761719 575.875 L 698.054688 575.875 C 704.097656 575.875 709.003906 580.777344 709.003906 586.820312 L 709.003906 643.152344 C 709.003906 649.195312 704.097656 654.097656 698.054688 654.097656 L 645.761719 654.097656 C 639.71875 654.097656 634.816406 649.195312 634.816406 643.152344 L 634.816406 586.820312 C 634.816406 580.777344 639.71875 575.875 645.761719 575.875 Z M 656.707031 632.203125 L 687.109375 632.203125 L 687.109375 597.765625 L 656.707031 597.765625 Z M 751.644531 575.875 L 803.941406 575.875 C 809.984375 575.875 814.886719 580.777344 814.886719 586.820312 L 814.886719 643.152344 C 814.886719 649.195312 809.984375 654.097656 803.941406 654.097656 L 751.644531 654.097656 C 745.601562 654.097656 740.699219 649.195312 740.699219 643.152344 L 740.699219 586.820312 C 740.699219 580.777344 745.601562 575.875 751.644531 575.875 Z M 762.589844 632.203125 L 792.996094 632.203125 L 792.996094 597.765625 L 762.589844 597.765625 Z M 751.644531 463.230469 L 803.941406 463.230469 C 809.984375 463.230469 814.886719 468.132812 814.886719 474.179688 L 814.886719 530.507812 C 814.886719 536.550781 809.984375 541.453125 803.941406 541.453125 L 751.644531 541.453125 C 745.601562 541.453125 740.699219 536.550781 740.699219 530.507812 L 740.699219 474.179688 C 740.699219 468.132812 745.601562 463.230469 751.644531 463.230469 Z M 762.589844 519.5625 L 792.996094 519.5625 L 792.996094 485.125 L 762.589844 485.125 Z M 751.644531 350.589844 L 803.941406 350.589844 C 809.984375 350.589844 814.886719 355.492188 814.886719 361.535156 L 814.886719 417.863281 C 814.886719 423.90625 809.984375 428.8125 803.941406 428.8125 L 751.644531 428.8125 C 745.601562 428.8125 740.699219 423.90625 740.699219 417.863281 L 740.699219 361.535156 C 740.699219 355.492188 745.601562 350.589844 751.644531 350.589844 Z M 762.589844 406.902344 L 792.996094 406.902344 L 792.996094 372.464844 L 762.589844 372.464844 Z M 762.589844 406.902344 " fill-opacity="1" fill-rule="nonzero"/></g></svg>