<?xml version="1.0" encoding="UTF-8"?><svg xmlns="http://www.w3.org/2000/svg" xmlns:xlink="http://www.w3.org/1999/xlink" width="1440" zoomAndPan="magnify" viewBox="0 0 1440 809.999993" height="809.999993" preserveAspectRatio="xMidYMid meet" version="1.0"><defs><clipPath id="clip-0"><path d="M 411 105.125 L 1029.203125 105.125 L 1029.203125 705.125 L 411 705.125 Z M 411 105.125 " clip-rule="nonzero"/></clipPath><clipPath id="clip-1"><path d="M 599.5 212.203125 L 834.25 212.203125 L 834.25 668.953125 L 599.5 668.953125 Z M 599.5 212.203125 " clip-rule="nonzero"/></clipPath></defs><g clip-path="url(#clip-0)"><path fill="rgb(100%, 100%, 100%)" d="M 1010.429688 437.945312 L 901.574219 437.945312 L 901.574219 123.871094 C 901.574219 113.515625 893.183594 105.121094 882.84375 105.121094 L 557.335938 105.121094 C 546.992188 105.121094 538.605469 113.515625 538.605469 123.871094 L 538.605469 437.945312 L 429.75 437.945312 C 419.402344 437.945312 411.019531 446.339844 411.019531 456.695312 L 411.019531 508.257812 C 411.019531 518.613281 419.402344 527.007812 429.75 527.007812 L 434.433594 527.007812 L 434.433594 686.382812 C 434.433594 696.738281 442.820312 705.132812 453.164062 705.132812 L 987.023438 705.132812 C 997.363281 705.132812 1005.753906 696.738281 1005.753906 686.382812 L 1005.753906 527.007812 L 1010.4375 527.007812 C 1020.777344 527.007812 1029.167969 518.613281 1029.167969 508.257812 L 1029.167969 456.695312 C 1029.164062 446.339844 1020.769531 437.945312 1010.429688 437.945312 Z M 991.699219 475.445312 L 991.699219 489.507812 L 901.574219 489.507812 L 901.574219 475.445312 Z M 864.113281 142.621094 L 864.113281 159.8125 L 576.070312 159.8125 L 576.070312 142.621094 Z M 448.480469 475.445312 L 538.613281 475.445312 L 538.613281 489.507812 L 448.480469 489.507812 Z M 471.894531 527.007812 L 538.613281 527.007812 L 538.613281 667.632812 L 471.894531 667.632812 Z M 761.457031 667.632812 L 678.71875 667.632812 L 678.71875 568.515625 C 678.71875 545.683594 697.277344 527.109375 720.085938 527.109375 C 742.894531 527.109375 761.457031 545.683594 761.457031 568.515625 Z M 798.917969 667.632812 L 798.917969 568.515625 C 798.917969 525 763.554688 489.609375 720.085938 489.609375 C 676.613281 489.609375 641.253906 525 641.253906 568.515625 L 641.253906 667.632812 L 576.070312 667.632812 L 576.070312 197.3125 L 864.113281 197.3125 L 864.113281 667.632812 Z M 968.285156 667.632812 L 901.574219 667.632812 L 901.574219 527.007812 L 968.285156 527.007812 Z M 968.285156 667.632812 " fill-opacity="1" fill-rule="nonzero"/></g><path fill="rgb(100%, 100%, 100%)" d="M 613.351562 234.925781 L 650.816406 234.925781 L 650.816406 303.675781 L 613.351562 303.675781 Z M 613.351562 234.925781 " fill-opacity="1" fill-rule="nonzero"/><path fill="rgb(100%, 100%, 100%)" d="M 701.351562 234.925781 L 738.824219 234.925781 L 738.824219 303.675781 L 701.351562 303.675781 Z M 701.351562 234.925781 " fill-opacity="1" fill-rule="nonzero"/><path fill="rgb(100%, 100%, 100%)" d="M 789.367188 234.925781 L 826.828125 234.925781 L 826.828125 303.675781 L 789.367188 303.675781 Z M 789.367188 234.925781 " fill-opacity="1" fill-rule="nonzero"/><path fill="rgb(100%, 100%, 100%)" d="M 613.351562 362.007812 L 650.816406 362.007812 L 650.816406 430.757812 L 613.351562 430.757812 Z M 613.351562 362.007812 " fill-opacity="1" fill-rule="nonzero"/><path fill="rgb(100%, 100%, 100%)" d="M 701.351562 362.007812 L 738.824219 362.007812 L 738.824219 430.757812 L 701.351562 430.757812 Z M 701.351562 362.007812 " fill-opacity="1" fill-rule="nonzero"/><path fill="rgb(100%, 100%, 100%)" d="M 789.367188 362.007812 L 826.828125 362.007812 L 826.828125 430.757812 L 789.367188 430.757812 Z M 789.367188 362.007812 " fill-opacity="1" fill-rule="nonzero"/><g clip-path="url(#clip-1)"><path fill="rgb(100%, 51.759338%, 0%)" d="M 1009.929688 438.113281 L 901.074219 438.113281 L 901.074219 124.039062 C 901.074219 113.679688 892.683594 105.289062 882.34375 105.289062 L 556.835938 105.289062 C 546.492188 105.289062 538.105469 113.679688 538.105469 124.039062 L 538.105469 438.113281 L 429.25 438.113281 C 418.902344 438.113281 410.519531 446.507812 410.519531 456.863281 L 410.519531 508.425781 C 410.519531 518.78125 418.902344 527.175781 429.25 527.175781 L 433.933594 527.175781 L 433.933594 686.550781 C 433.933594 696.90625 442.320312 705.300781 452.664062 705.300781 L 986.523438 705.300781 C 996.863281 705.300781 1005.253906 696.90625 1005.253906 686.550781 L 1005.253906 527.175781 L 1009.9375 527.175781 C 1020.277344 527.175781 1028.667969 518.78125 1028.667969 508.425781 L 1028.667969 456.863281 C 1028.664062 446.507812 1020.269531 438.113281 1009.929688 438.113281 Z M 991.199219 475.613281 L 991.199219 489.675781 L 901.074219 489.675781 L 901.074219 475.613281 Z M 863.613281 142.789062 L 863.613281 159.980469 L 575.570312 159.980469 L 575.570312 142.789062 Z M 447.980469 475.613281 L 538.113281 475.613281 L 538.113281 489.675781 L 447.980469 489.675781 Z M 471.394531 527.175781 L 538.113281 527.175781 L 538.113281 667.800781 L 471.394531 667.800781 Z M 760.957031 667.800781 L 678.21875 667.800781 L 678.21875 568.679688 C 678.21875 545.851562 696.777344 527.273438 719.585938 527.273438 C 742.394531 527.273438 760.957031 545.851562 760.957031 568.679688 Z M 798.417969 667.800781 L 798.417969 568.679688 C 798.417969 525.167969 763.054688 489.773438 719.585938 489.773438 C 676.113281 489.773438 640.753906 525.167969 640.753906 568.679688 L 640.753906 667.800781 L 575.570312 667.800781 L 575.570312 197.480469 L 863.613281 197.480469 L 863.613281 667.800781 Z M 967.785156 667.800781 L 901.074219 667.800781 L 901.074219 527.175781 L 967.785156 527.175781 Z M 967.785156 667.800781 " fill-opacity="1" fill-rule="nonzero"/></g><path fill="rgb(100%, 51.759338%, 0%)" d="M 612.851562 235.09375 L 650.316406 235.09375 L 650.316406 303.84375 L 612.851562 303.84375 Z M 612.851562 235.09375 " fill-opacity="1" fill-rule="nonzero"/><path fill="rgb(100%, 51.759338%, 0%)" d="M 700.851562 235.09375 L 738.324219 235.09375 L 738.324219 303.84375 L 700.851562 303.84375 Z M 700.851562 235.09375 " fill-opacity="1" fill-rule="nonzero"/><path fill="rgb(100%, 51.759338%, 0%)" d="M 788.867188 235.09375 L 826.328125 235.09375 L 826.328125 303.84375 L 788.867188 303.84375 Z M 788.867188 235.09375 " fill-opacity="1" fill-rule="nonzero"/><path fill="rgb(100%, 51.759338%, 0%)" d="M 612.851562 362.175781 L 650.316406 362.175781 L 650.316406 430.925781 L 612.851562 430.925781 Z M 612.851562 362.175781 " fill-opacity="1" fill-rule="nonzero"/><path fill="rgb(100%, 51.759338%, 0%)" d="M 700.851562 362.175781 L 738.324219 362.175781 L 738.324219 430.925781 L 700.851562 430.925781 Z M 700.851562 362.175781 " fill-opacity="1" fill-rule="nonzero"/><path fill="rgb(100%, 51.759338%, 0%)" d="M 788.867188 362.175781 L 826.328125 362.175781 L 826.328125 430.925781 L 788.867188 430.925781 Z M 788.867188 362.175781 " fill-opacity="1" fill-rule="nonzero"/></svg>