<svg xmlns="http://www.w3.org/2000/svg" xmlns:xlink="http://www.w3.org/1999/xlink" width="1920" zoomAndPan="magnify" viewBox="0 0 1440 809.999993" height="1080" preserveAspectRatio="xMidYMid meet" version="1.0"><defs><clipPath id="8a32452e16"><path d="M 351.128906 49.292969 L 970 49.292969 L 970 598.5625 L 351.128906 598.5625 Z M 351.128906 49.292969 " clip-rule="nonzero"/></clipPath><clipPath id="121a6853b5"><path d="M 786.882812 458.71875 L 1088.648438 458.71875 L 1088.648438 760.699219 L 786.882812 760.699219 Z M 786.882812 458.71875 " clip-rule="nonzero"/></clipPath></defs><g clip-path="url(#8a32452e16)"><path fill="#003e52" d="M 573.320312 252.773438 C 564.820312 261.257812 558.222656 270.628906 553.496094 280.867188 L 690.734375 280.867188 L 674.636719 307.910156 L 545.671875 307.910156 C 544.976562 312.921875 544.625 318.082031 544.625 323.398438 C 544.625 325.109375 544.707031 326.78125 544.761719 328.445312 L 690.730469 328.445312 L 674.636719 355.488281 L 549.054688 355.488281 C 551.117188 362.46875 553.847656 369.097656 557.332031 375.324219 C 565.808594 390.445312 577.792969 402.316406 593.269531 410.941406 C 608.765625 419.566406 625.976562 423.875 644.910156 423.875 C 661.050781 423.875 675.8125 420.859375 689.183594 414.808594 C 702.546875 408.792969 717.253906 397.800781 733.265625 381.898438 L 770.988281 421.253906 C 749.398438 442.34375 728.980469 456.945312 709.777344 465.113281 C 690.566406 473.246094 668.644531 477.316406 644.003906 477.316406 C 598.546875 477.316406 561.359375 462.925781 532.40625 434.101562 C 510.675781 412.46875 497.097656 386.261719 491.6875 355.488281 L 454.53125 355.488281 L 470.632812 328.445312 L 489.089844 328.445312 C 489.046875 326.734375 488.980469 325.042969 488.980469 323.300781 C 488.980469 318.050781 489.277344 312.945312 489.703125 307.910156 L 454.53125 307.910156 L 470.621094 280.867188 L 494.257812 280.867188 C 497.542969 268.359375 502.359375 256.574219 508.753906 245.589844 C 521.945312 222.933594 540.816406 204.722656 565.394531 190.941406 C 589.972656 177.160156 616.441406 170.277344 644.796875 170.277344 C 668.902344 170.277344 692.125 175.363281 714.441406 185.546875 C 736.785156 195.730469 756.03125 210.21875 772.195312 229 L 733.269531 266.09375 C 706.792969 238.128906 676.996094 224.128906 643.910156 224.128906 C 615.984375 224.128906 592.453125 233.671875 573.320312 252.773438 Z M 796.675781 561.746094 L 454.332031 561.746094 C 417.507812 561.746094 387.554688 531.792969 387.554688 494.96875 L 387.554688 152.625 C 387.554688 115.800781 417.507812 85.847656 454.332031 85.847656 L 796.675781 85.847656 C 833.5 85.847656 863.453125 115.800781 863.453125 152.625 L 863.453125 240.980469 L 899.878906 240.980469 L 899.878906 152.625 C 899.878906 95.71875 853.582031 49.421875 796.675781 49.421875 L 454.332031 49.421875 C 397.425781 49.421875 351.128906 95.71875 351.128906 152.625 L 351.128906 494.96875 C 351.128906 551.875 397.425781 598.171875 454.332031 598.171875 L 796.675781 598.171875 C 850.816406 598.171875 895.347656 556.273438 899.550781 503.199219 L 862.953125 503.199219 C 858.886719 536.152344 830.71875 561.746094 796.675781 561.746094 Z M 925.277344 363.429688 L 925.277344 255.9375 L 899.878906 255.914062 L 863.453125 255.890625 L 838.101562 255.867188 L 838.101562 363.429688 L 793.542969 363.429688 L 837.59375 425.871094 L 863.453125 462.503906 L 881.679688 488.316406 L 899.878906 462.527344 L 925.738281 425.871094 L 969.800781 363.429688 Z M 925.277344 363.429688 " fill-opacity="1" fill-rule="nonzero"/></g><g clip-path="url(#121a6853b5)"><path fill="#ff914d" d="M 936.828125 552.285156 C 968.222656 551.695312 994.121094 576.679688 994.710938 608.074219 C 994.710938 608.636719 994.710938 609.171875 994.710938 609.734375 C 995.058594 641.128906 969.910156 666.867188 938.515625 667.214844 C 907.125 667.5625 881.386719 642.414062 881.039062 611.023438 C 881.039062 610.59375 881.039062 610.164062 881.039062 609.734375 C 880.691406 578.503906 905.59375 552.847656 936.828125 552.285156 Z M 942.914062 458.855469 C 934.441406 458.558594 925.945312 458.988281 917.550781 460.113281 C 914.578125 460.515625 912.136719 462.605469 911.253906 465.449219 L 902.886719 492.6875 C 902.164062 494.992188 900.394531 496.84375 898.117188 497.644531 C 894.175781 499.066406 890.3125 500.648438 886.535156 502.445312 C 884.335938 503.519531 881.761719 503.464844 879.617188 502.3125 L 854.46875 488.960938 C 851.816406 487.566406 848.597656 487.835938 846.238281 489.65625 C 835.460938 497.835938 825.863281 507.457031 817.660156 518.210938 C 815.839844 520.59375 815.570312 523.785156 816.964844 526.4375 L 830.34375 551.613281 C 831.496094 553.730469 831.601562 556.304688 830.609375 558.503906 C 828.789062 562.285156 827.179688 566.144531 825.785156 570.085938 C 824.980469 572.390625 823.128906 574.160156 820.796875 574.855469 L 793.585938 583.246094 C 790.71875 584.105469 788.628906 586.574219 788.253906 589.519531 C 786.429688 602.953125 786.429688 616.519531 788.253906 629.949219 C 788.628906 632.898438 790.71875 635.363281 793.585938 636.222656 L 820.796875 644.613281 C 823.128906 645.3125 824.980469 647.082031 825.785156 649.386719 C 827.179688 653.328125 828.789062 657.1875 830.609375 660.96875 C 831.601562 663.164062 831.496094 665.738281 830.34375 667.859375 L 816.964844 693.03125 C 815.570312 695.660156 815.839844 698.875 817.660156 701.261719 C 825.863281 712.011719 835.460938 721.609375 846.238281 729.8125 C 848.597656 731.636719 851.816406 731.878906 854.46875 730.511719 L 879.617188 717.160156 C 881.761719 716.007812 884.335938 715.953125 886.535156 717 C 890.3125 718.792969 894.175781 720.402344 898.117188 721.796875 C 900.394531 722.601562 902.164062 724.453125 902.886719 726.757812 L 911.253906 753.996094 C 912.136719 756.863281 914.578125 758.953125 917.550781 759.332031 C 930.957031 761.152344 944.550781 761.152344 957.953125 759.332031 C 960.902344 758.953125 963.371094 756.863281 964.253906 753.996094 L 972.617188 726.757812 C 973.34375 724.453125 975.113281 722.601562 977.390625 721.796875 C 981.332031 720.402344 985.21875 718.792969 988.972656 717 C 991.171875 715.953125 993.71875 716.007812 995.863281 717.160156 L 1021.035156 730.511719 C 1023.691406 731.878906 1026.90625 731.636719 1029.265625 729.8125 C 1040.042969 721.609375 1049.640625 712.011719 1057.84375 701.261719 C 1059.667969 698.875 1059.9375 695.660156 1058.542969 693.03125 L 1045.191406 667.859375 C 1044.011719 665.738281 1043.929688 663.164062 1044.921875 660.96875 C 1046.71875 657.1875 1048.328125 653.328125 1049.722656 649.386719 C 1050.527344 647.082031 1052.375 645.3125 1054.707031 644.613281 L 1081.945312 636.222656 C 1084.789062 635.339844 1086.878906 632.898438 1087.28125 629.949219 C 1089.078125 616.519531 1089.078125 602.953125 1087.28125 589.519531 C 1086.878906 586.574219 1084.789062 584.105469 1081.945312 583.246094 L 1054.707031 574.855469 C 1052.375 574.160156 1050.527344 572.390625 1049.722656 570.085938 C 1048.328125 566.144531 1046.71875 562.285156 1044.921875 558.503906 C 1043.929688 556.304688 1044.011719 553.730469 1045.191406 551.613281 L 1058.542969 526.4375 C 1059.9375 523.785156 1059.667969 520.59375 1057.84375 518.210938 C 1049.640625 507.457031 1040.042969 497.835938 1029.265625 489.65625 C 1026.90625 487.835938 1023.691406 487.566406 1021.035156 488.960938 L 995.863281 502.3125 C 993.71875 503.464844 991.171875 503.519531 988.972656 502.472656 C 985.21875 500.675781 981.332031 499.066406 977.390625 497.671875 C 975.113281 496.867188 973.34375 495.019531 972.617188 492.6875 L 964.253906 465.476562 C 963.371094 462.605469 960.902344 460.515625 957.953125 460.113281 C 952.96875 459.445312 947.953125 459.015625 942.914062 458.855469 " fill-opacity="1" fill-rule="nonzero"/></g></svg>