<?xml version="1.0" encoding="UTF-8"?><svg xmlns="http://www.w3.org/2000/svg" xmlns:xlink="http://www.w3.org/1999/xlink" width="1440" zoomAndPan="magnify" viewBox="0 0 1440 809.999993" height="809.999993" preserveAspectRatio="xMidYMid meet" version="1.0"><defs><clipPath id="clip-0"><path d="M 369.757812 98 L 1070.257812 98 L 1070.257812 712 L 369.757812 712 Z M 369.757812 98 " clip-rule="nonzero"/></clipPath><clipPath id="clip-1"><path d="M 369.757812 98 L 1070.257812 98 L 1070.257812 712 L 369.757812 712 Z M 369.757812 98 " clip-rule="nonzero"/></clipPath><clipPath id="clip-2"><path d="M 435.832031 424.074219 L 1004.332031 424.074219 L 1004.332031 640.824219 L 435.832031 640.824219 Z M 435.832031 424.074219 " clip-rule="nonzero"/></clipPath><clipPath id="clip-3"><path d="M 435.832031 424.074219 L 1004.332031 424.074219 L 1004.332031 640.824219 L 435.832031 640.824219 Z M 435.832031 424.074219 " clip-rule="nonzero"/></clipPath></defs><g clip-path="url(#clip-0)"><path fill="rgb(100%, 100%, 100%)" d="M 369.757812 127.722656 C 369.757812 111.609375 382.832031 98.539062 398.945312 98.539062 L 1041.070312 98.539062 C 1057.1875 98.539062 1070.257812 111.609375 1070.257812 127.722656 L 1070.257812 682.226562 C 1070.257812 698.335938 1057.1875 711.410156 1041.070312 711.410156 L 398.945312 711.410156 C 382.832031 711.410156 369.757812 698.335938 369.757812 682.226562 Z M 398.945312 682.226562 L 1041.070312 682.226562 L 1041.070312 127.722656 L 398.945312 127.722656 Z M 398.945312 682.226562 " fill-opacity="1" fill-rule="evenodd"/></g><path fill="rgb(100%, 100%, 100%)" d="M 457.320312 186.089844 L 544.882812 186.089844 L 544.882812 215.277344 L 457.320312 215.277344 Z M 457.320312 186.089844 " fill-opacity="1" fill-rule="evenodd"/><path fill="rgb(100%, 100%, 100%)" d="M 574.070312 186.089844 L 720.007812 186.089844 L 720.007812 215.277344 L 574.070312 215.277344 Z M 574.070312 186.089844 " fill-opacity="1" fill-rule="evenodd"/><path fill="rgb(100%, 100%, 100%)" d="M 457.320312 244.460938 L 544.882812 244.460938 L 544.882812 273.644531 L 457.320312 273.644531 Z M 457.320312 244.460938 " fill-opacity="1" fill-rule="evenodd"/><path fill="rgb(100%, 100%, 100%)" d="M 574.070312 244.460938 L 720.007812 244.460938 L 720.007812 273.644531 L 574.070312 273.644531 Z M 574.070312 244.460938 " fill-opacity="1" fill-rule="evenodd"/><path fill="rgb(100%, 100%, 100%)" d="M 457.320312 302.828125 L 544.882812 302.828125 L 544.882812 332.011719 L 457.320312 332.011719 Z M 457.320312 302.828125 " fill-opacity="1" fill-rule="evenodd"/><path fill="rgb(100%, 100%, 100%)" d="M 574.070312 302.828125 L 720.007812 302.828125 L 720.007812 332.011719 L 574.070312 332.011719 Z M 574.070312 302.828125 " fill-opacity="1" fill-rule="evenodd"/><path fill="rgb(100%, 100%, 100%)" d="M 457.320312 361.195312 L 544.882812 361.195312 L 544.882812 390.382812 L 457.320312 390.382812 Z M 457.320312 361.195312 " fill-opacity="1" fill-rule="evenodd"/><path fill="rgb(100%, 100%, 100%)" d="M 807.570312 477.933594 L 865.945312 477.933594 L 865.945312 507.117188 L 807.570312 507.117188 Z M 807.570312 477.933594 " fill-opacity="1" fill-rule="evenodd"/><path fill="rgb(100%, 100%, 100%)" d="M 807.570312 536.304688 L 865.945312 536.304688 L 865.945312 565.488281 L 807.570312 565.488281 Z M 807.570312 536.304688 " fill-opacity="1" fill-rule="evenodd"/><path fill="rgb(100%, 100%, 100%)" d="M 807.570312 594.671875 L 865.945312 594.671875 L 865.945312 623.855469 L 807.570312 623.855469 Z M 807.570312 594.671875 " fill-opacity="1" fill-rule="evenodd"/><path fill="rgb(100%, 100%, 100%)" d="M 895.132812 477.933594 L 982.695312 477.933594 L 982.695312 507.117188 L 895.132812 507.117188 Z M 895.132812 477.933594 " fill-opacity="1" fill-rule="evenodd"/><path fill="rgb(100%, 100%, 100%)" d="M 841.851562 382.78125 C 804.609375 367.582031 778.382812 330.949219 778.382812 288.238281 C 778.382812 258.0625 791.457031 230.933594 812.285156 212.234375 L 864.808594 290.972656 Z M 870.203125 389.847656 L 892.550781 300.246094 L 982.164062 277.898438 C 982.546875 281.246094 982.695312 284.742188 982.695312 288.238281 C 982.695312 344.628906 936.941406 390.382812 880.539062 390.382812 C 877.042969 390.382812 873.546875 390.230469 870.203125 389.847656 Z M 836.609375 195.972656 C 849.910156 189.664062 864.808594 186.089844 880.539062 186.089844 C 923.257812 186.089844 959.894531 212.3125 975.097656 249.550781 L 887 271.59375 Z M 836.609375 195.972656 " fill-opacity="1" fill-rule="evenodd"/><g clip-path="url(#clip-1)"><path fill="rgb(100%, 100%, 100%)" d="M 369.757812 127.722656 C 369.757812 111.609375 382.832031 98.539062 398.945312 98.539062 L 1041.070312 98.539062 C 1057.1875 98.539062 1070.257812 111.609375 1070.257812 127.722656 L 1070.257812 682.226562 C 1070.257812 698.335938 1057.1875 711.410156 1041.070312 711.410156 L 398.945312 711.410156 C 382.832031 711.410156 369.757812 698.335938 369.757812 682.226562 Z M 398.945312 682.226562 L 1041.070312 682.226562 L 1041.070312 127.722656 L 398.945312 127.722656 Z M 398.945312 682.226562 " fill-opacity="1" fill-rule="evenodd"/></g><path fill="rgb(100%, 100%, 100%)" d="M 895.132812 536.304688 L 982.695312 536.304688 L 982.695312 565.488281 L 895.132812 565.488281 Z M 895.132812 536.304688 " fill-opacity="1" fill-rule="evenodd"/><path fill="rgb(100%, 100%, 100%)" d="M 895.132812 594.671875 L 982.695312 594.671875 L 982.695312 623.855469 L 895.132812 623.855469 Z M 895.132812 594.671875 " fill-opacity="1" fill-rule="evenodd"/><path fill="rgb(100%, 100%, 100%)" d="M 457.320312 448.75 L 486.507812 448.75 L 486.507812 623.855469 L 457.320312 623.855469 Z M 457.320312 448.75 " fill-opacity="1" fill-rule="evenodd"/><path fill="rgb(100%, 100%, 100%)" d="M 515.695312 565.488281 L 544.882812 565.488281 L 544.882812 623.855469 L 515.695312 623.855469 Z M 515.695312 565.488281 " fill-opacity="1" fill-rule="evenodd"/><path fill="rgb(100%, 100%, 100%)" d="M 574.070312 507.117188 L 603.257812 507.117188 L 603.257812 623.855469 L 574.070312 623.855469 Z M 574.070312 507.117188 " fill-opacity="1" fill-rule="evenodd"/><path fill="rgb(100%, 100%, 100%)" d="M 632.445312 507.117188 L 661.632812 507.117188 L 661.632812 623.855469 L 632.445312 623.855469 Z M 632.445312 507.117188 " fill-opacity="1" fill-rule="evenodd"/><path fill="rgb(100%, 100%, 100%)" d="M 690.820312 536.304688 L 720.007812 536.304688 L 720.007812 623.855469 L 690.820312 623.855469 Z M 690.820312 536.304688 " fill-opacity="1" fill-rule="evenodd"/><path fill="rgb(100%, 100%, 100%)" d="M 574.070312 361.195312 L 720.007812 361.195312 L 720.007812 390.382812 L 574.070312 390.382812 Z M 574.070312 361.195312 " fill-opacity="1" fill-rule="evenodd"/><g clip-path="url(#clip-2)"><path fill="rgb(100%, 51.759338%, 0%)" d="M 368.925781 127.722656 C 368.925781 111.609375 382 98.539062 398.113281 98.539062 L 1040.238281 98.539062 C 1056.351562 98.539062 1069.425781 111.609375 1069.425781 127.722656 L 1069.425781 682.226562 C 1069.425781 698.335938 1056.351562 711.410156 1040.238281 711.410156 L 398.113281 711.410156 C 382 711.410156 368.925781 698.335938 368.925781 682.226562 Z M 398.113281 682.226562 L 1040.238281 682.226562 L 1040.238281 127.722656 L 398.113281 127.722656 Z M 398.113281 682.226562 " fill-opacity="1" fill-rule="evenodd"/></g><path fill="rgb(100%, 51.759338%, 0%)" d="M 806.738281 477.933594 L 865.113281 477.933594 L 865.113281 507.117188 L 806.738281 507.117188 Z M 806.738281 477.933594 " fill-opacity="1" fill-rule="evenodd"/><path fill="rgb(100%, 51.759338%, 0%)" d="M 806.738281 536.304688 L 865.113281 536.304688 L 865.113281 565.488281 L 806.738281 565.488281 Z M 806.738281 536.304688 " fill-opacity="1" fill-rule="evenodd"/><path fill="rgb(100%, 51.759338%, 0%)" d="M 806.738281 594.671875 L 865.113281 594.671875 L 865.113281 623.855469 L 806.738281 623.855469 Z M 806.738281 594.671875 " fill-opacity="1" fill-rule="evenodd"/><path fill="rgb(100%, 51.759338%, 0%)" d="M 894.300781 477.933594 L 981.863281 477.933594 L 981.863281 507.117188 L 894.300781 507.117188 Z M 894.300781 477.933594 " fill-opacity="1" fill-rule="evenodd"/><g clip-path="url(#clip-3)"><path fill="rgb(100%, 51.759338%, 0%)" d="M 368.925781 127.722656 C 368.925781 111.609375 382 98.539062 398.113281 98.539062 L 1040.238281 98.539062 C 1056.351562 98.539062 1069.425781 111.609375 1069.425781 127.722656 L 1069.425781 682.226562 C 1069.425781 698.335938 1056.351562 711.410156 1040.238281 711.410156 L 398.113281 711.410156 C 382 711.410156 368.925781 698.335938 368.925781 682.226562 Z M 398.113281 682.226562 L 1040.238281 682.226562 L 1040.238281 127.722656 L 398.113281 127.722656 Z M 398.113281 682.226562 " fill-opacity="1" fill-rule="evenodd"/></g><path fill="rgb(100%, 51.759338%, 0%)" d="M 894.300781 536.304688 L 981.863281 536.304688 L 981.863281 565.488281 L 894.300781 565.488281 Z M 894.300781 536.304688 " fill-opacity="1" fill-rule="evenodd"/><path fill="rgb(100%, 51.759338%, 0%)" d="M 894.300781 594.671875 L 981.863281 594.671875 L 981.863281 623.855469 L 894.300781 623.855469 Z M 894.300781 594.671875 " fill-opacity="1" fill-rule="evenodd"/><path fill="rgb(100%, 51.759338%, 0%)" d="M 456.488281 448.75 L 485.675781 448.75 L 485.675781 623.855469 L 456.488281 623.855469 Z M 456.488281 448.75 " fill-opacity="1" fill-rule="evenodd"/><path fill="rgb(100%, 51.759338%, 0%)" d="M 514.863281 565.488281 L 544.050781 565.488281 L 544.050781 623.855469 L 514.863281 623.855469 Z M 514.863281 565.488281 " fill-opacity="1" fill-rule="evenodd"/><path fill="rgb(100%, 51.759338%, 0%)" d="M 573.238281 507.117188 L 602.425781 507.117188 L 602.425781 623.855469 L 573.238281 623.855469 Z M 573.238281 507.117188 " fill-opacity="1" fill-rule="evenodd"/><path fill="rgb(100%, 51.759338%, 0%)" d="M 631.613281 507.117188 L 660.800781 507.117188 L 660.800781 623.855469 L 631.613281 623.855469 Z M 631.613281 507.117188 " fill-opacity="1" fill-rule="evenodd"/><path fill="rgb(100%, 51.759338%, 0%)" d="M 689.988281 536.304688 L 719.175781 536.304688 L 719.175781 623.855469 L 689.988281 623.855469 Z M 689.988281 536.304688 " fill-opacity="1" fill-rule="evenodd"/></svg>