<svg xmlns="http://www.w3.org/2000/svg" xmlns:xlink="http://www.w3.org/1999/xlink" width="1920" zoomAndPan="magnify" viewBox="0 0 1440 809.999993" height="1080" preserveAspectRatio="xMidYMid meet" version="1.0"><defs><clipPath id="597b457af7"><path d="M 528 168 L 912 168 L 912 758.332031 L 528 758.332031 Z M 528 168 " clip-rule="nonzero"/></clipPath><clipPath id="c4d38c07db"><path d="M 944 340 L 1021.015625 340 L 1021.015625 366 L 944 366 Z M 944 340 " clip-rule="nonzero"/></clipPath><clipPath id="74a0a8306f"><path d="M 418.765625 340 L 496 340 L 496 366 L 418.765625 366 Z M 418.765625 340 " clip-rule="nonzero"/></clipPath><clipPath id="bea2e1c728"><path d="M 707 51.832031 L 733 51.832031 L 733 129 L 707 129 Z M 707 51.832031 " clip-rule="nonzero"/></clipPath><clipPath id="96bc349dc2"><path d="M 580.097656 608.300781 L 837.347656 608.300781 L 837.347656 758.300781 L 580.097656 758.300781 Z M 580.097656 608.300781 " clip-rule="nonzero"/></clipPath></defs><g clip-path="url(#597b457af7)"><path fill="#ff914d" d="M 911.488281 359.503906 C 911.488281 334.039062 906.566406 309.300781 896.859375 285.976562 C 887.488281 263.457031 874.050781 243.15625 856.921875 225.636719 C 839.816406 208.140625 819.84375 194.257812 797.5625 184.375 C 774.527344 174.160156 749.996094 168.671875 724.648438 168.066406 C 698.195312 167.433594 672.527344 172 648.351562 181.636719 C 624.984375 190.949219 603.996094 204.585938 585.980469 222.160156 C 567.976562 239.726562 553.835938 260.34375 543.953125 283.453125 C 533.726562 307.355469 528.53125 332.882812 528.503906 359.324219 C 528.484375 382.273438 532.484375 404.730469 540.394531 426.070312 C 548.035156 446.679688 559.113281 465.703125 573.3125 482.605469 C 596.554688 510.273438 609.355469 545.148438 609.355469 580.808594 L 609.355469 581.222656 C 609.355469 592.488281 614.777344 602.503906 623.144531 608.808594 L 623.144531 680.175781 C 623.144531 700.09375 637.28125 716.777344 656.046875 720.71875 C 661.257812 742.144531 680.605469 758.097656 703.613281 758.097656 L 736.382812 758.097656 C 759.390625 758.097656 778.738281 742.144531 783.949219 720.71875 C 802.714844 716.777344 816.847656 700.09375 816.847656 680.175781 L 816.847656 608.808594 C 825.21875 602.503906 830.640625 592.488281 830.640625 581.222656 C 830.640625 545.363281 843.492188 510.28125 866.828125 482.433594 C 880.964844 465.566406 891.996094 446.589844 899.609375 426.042969 C 907.492188 404.769531 911.488281 382.382812 911.488281 359.503906 Z M 791.9375 615.738281 L 791.9375 643.757812 L 648.058594 643.757812 L 648.058594 615.738281 Z M 736.382812 733.1875 L 703.613281 733.1875 C 694.914062 733.1875 687.277344 728.542969 683.054688 721.601562 L 756.941406 721.601562 C 752.71875 728.542969 745.082031 733.1875 736.382812 733.1875 Z M 791.9375 680.175781 C 791.9375 689.28125 784.53125 696.691406 775.421875 696.691406 L 664.570312 696.691406 C 655.464844 696.691406 648.054688 689.28125 648.054688 680.175781 L 648.054688 668.667969 L 791.9375 668.667969 Z M 876.253906 417.382812 C 869.628906 435.253906 860.039062 451.753906 847.738281 466.433594 C 820.648438 498.757812 805.730469 539.523438 805.730469 581.222656 C 805.730469 586.519531 801.421875 590.828125 796.125 590.828125 L 721.765625 590.828125 C 725.730469 566.84375 728.121094 542.722656 729.070312 518.644531 C 729.90625 496.648438 729.585938 474.621094 728.082031 452.6875 C 729.457031 451.3125 732.050781 448.707031 732.050781 448.707031 C 751.941406 429.503906 776.5625 415.328125 803.246094 407.691406 C 806.15625 406.808594 809.679688 405.960938 812.738281 405.226562 C 813.328125 405.136719 813.90625 405.054688 814.46875 404.988281 C 816.390625 404.703125 820.214844 404.214844 822.148438 404.015625 L 818.441406 405.195312 C 816.625 405.816406 812.910156 407.101562 811.101562 407.726562 C 808.9375 408.601562 806.03125 409.730469 803.890625 410.628906 C 786.476562 418.121094 770.191406 428.910156 755.675781 442.464844 C 766.492188 455.71875 784.113281 462.671875 802.039062 459.019531 C 827.761719 453.769531 862.179688 398.234375 862.179688 398.234375 C 862.179688 398.234375 808.761719 360.617188 783.039062 365.863281 C 759.421875 370.679688 743.5 392.230469 745.105469 415.636719 C 738.410156 418.292969 731.867188 421.34375 725.515625 424.75 C 722.898438 402.027344 718.972656 379.472656 713.707031 357.230469 C 713.988281 357.089844 714.265625 356.953125 714.546875 356.808594 C 737.59375 344.929688 746.644531 316.609375 734.761719 293.566406 C 722.878906 270.519531 660.863281 252.683594 660.863281 252.683594 C 660.863281 252.683594 639.417969 313.546875 651.300781 336.59375 C 659.582031 352.652344 675.839844 361.914062 692.734375 362.035156 C 694.1875 342.472656 692.410156 323.257812 687.402344 305.21875 C 686.765625 303.015625 685.835938 300.078125 685.171875 297.875 C 684.53125 296.09375 683.222656 292.4375 682.578125 290.65625 L 681.191406 287.074219 C 682.234375 288.6875 684.226562 291.9375 685.195312 293.589844 C 687.09375 296.648438 689.109375 300.507812 690.757812 303.683594 C 692.304688 306.921875 694.207031 310.914062 695.515625 314.269531 C 698.722656 322.128906 701.308594 330.304688 703.257812 338.710938 C 708.945312 373.941406 711.308594 409.742188 710.378906 445.453125 C 708.332031 444.328125 706.285156 443.253906 704.28125 442.253906 C 700.765625 440.511719 697.179688 438.867188 693.546875 437.335938 C 695.015625 414.769531 680.15625 393.710938 657.429688 388.136719 C 631.933594 381.875 577.070312 417.355469 577.070312 417.355469 C 577.070312 417.355469 609.269531 474.207031 634.765625 480.46875 C 652.53125 484.828125 670.414062 478.574219 681.746094 465.757812 C 667.777344 451.640625 651.925781 440.214844 634.824219 432.042969 C 632.71875 431.0625 629.859375 429.820312 627.734375 428.859375 C 625.953125 428.164062 622.292969 426.730469 620.5 426.039062 L 616.84375 424.714844 C 618.695312 424.980469 622.277344 425.582031 624.246094 425.945312 C 625.691406 426.296875 627.1875 426.65625 628.421875 426.972656 C 630.417969 427.558594 633.277344 428.328125 635.25 428.945312 C 662.828125 437.511719 687.960938 452.976562 707.84375 473.78125 C 707.84375 473.78125 708.300781 473.21875 709.058594 472.28125 C 706.179688 512.105469 699.207031 551.605469 688.183594 589.851562 C 688.085938 590.175781 688.003906 590.503906 687.925781 590.828125 L 643.863281 590.828125 C 638.570312 590.828125 634.261719 586.519531 634.261719 581.222656 L 634.261719 580.808594 C 634.261719 539.296875 619.386719 498.730469 592.378906 466.582031 C 580.023438 451.875 570.390625 435.332031 563.746094 417.410156 C 556.871094 398.859375 553.394531 379.328125 553.410156 359.347656 C 553.429688 336.289062 557.953125 314.050781 566.851562 293.253906 C 575.4375 273.175781 587.726562 255.257812 603.371094 239.996094 C 619.027344 224.722656 637.265625 212.875 657.570312 204.78125 C 677.324219 196.90625 698.25 192.921875 719.839844 192.921875 C 721.238281 192.921875 722.644531 192.941406 724.050781 192.972656 C 746.101562 193.5 767.433594 198.269531 787.457031 207.148438 C 806.835938 215.746094 824.214844 227.828125 839.105469 243.058594 C 869.714844 274.359375 886.570312 315.71875 886.570312 359.507812 C 886.578125 379.417969 883.105469 398.890625 876.253906 417.382812 Z M 876.253906 417.382812 " fill-opacity="1" fill-rule="nonzero"/></g><g clip-path="url(#c4d38c07db)"><path fill="#ff914d" d="M 1008.773438 340.671875 L 956.683594 340.671875 C 949.804688 340.671875 944.230469 346.246094 944.230469 353.125 C 944.230469 360.003906 949.804688 365.578125 956.683594 365.578125 L 1008.773438 365.578125 C 1015.648438 365.578125 1021.226562 360.003906 1021.226562 353.125 C 1021.226562 346.246094 1015.648438 340.671875 1008.773438 340.671875 Z M 1008.773438 340.671875 " fill-opacity="1" fill-rule="nonzero"/></g><g clip-path="url(#74a0a8306f)"><path fill="#ff914d" d="M 483.3125 340.671875 L 431.222656 340.671875 C 424.34375 340.671875 418.769531 346.246094 418.769531 353.125 C 418.769531 360.003906 424.34375 365.578125 431.222656 365.578125 L 483.3125 365.578125 C 490.191406 365.578125 495.765625 360.003906 495.765625 353.125 C 495.765625 346.246094 490.191406 340.671875 483.3125 340.671875 Z M 483.3125 340.671875 " fill-opacity="1" fill-rule="nonzero"/></g><path fill="#ff914d" d="M 915.382812 140.125 L 878.554688 176.957031 C 873.691406 181.820312 873.691406 189.707031 878.554688 194.570312 C 880.984375 197.003906 884.171875 198.21875 887.359375 198.21875 C 890.546875 198.21875 893.734375 197.003906 896.164062 194.570312 L 933 157.738281 C 937.863281 152.875 937.863281 144.988281 933 140.125 C 928.136719 135.257812 920.25 135.261719 915.382812 140.125 Z M 915.382812 140.125 " fill-opacity="1" fill-rule="nonzero"/><path fill="#ff914d" d="M 543.828125 511.679688 L 506.996094 548.511719 C 502.132812 553.375 502.132812 561.261719 506.996094 566.128906 C 509.429688 568.5625 512.617188 569.777344 515.804688 569.777344 C 518.992188 569.777344 522.179688 568.5625 524.609375 566.128906 L 561.441406 529.296875 C 566.304688 524.433594 566.304688 516.546875 561.441406 511.679688 C 556.578125 506.816406 548.691406 506.816406 543.828125 511.679688 Z M 543.828125 511.679688 " fill-opacity="1" fill-rule="nonzero"/><path fill="#ff914d" d="M 896.164062 511.679688 C 891.300781 506.816406 883.417969 506.816406 878.550781 511.679688 C 873.6875 516.542969 873.6875 524.429688 878.550781 529.296875 L 915.382812 566.128906 C 917.816406 568.5625 921.003906 569.777344 924.191406 569.777344 C 927.378906 569.777344 930.566406 568.5625 932.996094 566.128906 C 937.859375 561.265625 937.859375 553.378906 932.996094 548.511719 Z M 896.164062 511.679688 " fill-opacity="1" fill-rule="nonzero"/><path fill="#ff914d" d="M 543.828125 194.570312 C 546.261719 197.003906 549.449219 198.21875 552.636719 198.21875 C 555.820312 198.21875 559.011719 197.003906 561.441406 194.570312 C 566.304688 189.707031 566.304688 181.824219 561.441406 176.957031 L 524.609375 140.125 C 519.746094 135.261719 511.863281 135.261719 506.996094 140.125 C 502.132812 144.988281 502.132812 152.875 506.996094 157.738281 Z M 543.828125 194.570312 " fill-opacity="1" fill-rule="nonzero"/><g clip-path="url(#bea2e1c728)"><path fill="#ff914d" d="M 719.996094 128.894531 C 726.875 128.894531 732.453125 123.320312 732.453125 116.441406 L 732.453125 64.351562 C 732.453125 57.472656 726.875 51.898438 719.996094 51.898438 C 713.117188 51.898438 707.542969 57.472656 707.542969 64.351562 L 707.542969 116.441406 C 707.542969 123.320312 713.117188 128.894531 719.996094 128.894531 Z M 719.996094 128.894531 " fill-opacity="1" fill-rule="nonzero"/></g><g clip-path="url(#96bc349dc2)"><path fill="#ffffff" d="M 911.328125 359.503906 C 911.328125 334.039062 906.40625 309.300781 896.699219 285.976562 C 887.328125 263.457031 873.890625 243.15625 856.765625 225.636719 C 839.65625 208.140625 819.683594 194.257812 797.402344 184.375 C 774.367188 174.160156 749.835938 168.671875 724.488281 168.066406 C 698.035156 167.433594 672.367188 172 648.195312 181.636719 C 624.824219 190.949219 603.839844 204.585938 585.820312 222.160156 C 567.816406 239.726562 553.675781 260.34375 543.792969 283.453125 C 533.566406 307.355469 528.371094 332.882812 528.347656 359.324219 C 528.324219 382.273438 532.324219 404.730469 540.234375 426.070312 C 547.875 446.679688 558.953125 465.703125 573.152344 482.605469 C 596.394531 510.273438 609.195312 545.148438 609.195312 580.808594 L 609.195312 581.222656 C 609.195312 592.488281 614.617188 602.503906 622.984375 608.808594 L 622.984375 680.175781 C 622.984375 700.09375 637.121094 716.777344 655.886719 720.71875 C 661.097656 742.144531 680.445312 758.097656 703.453125 758.097656 L 736.222656 758.097656 C 759.230469 758.097656 778.578125 742.144531 783.789062 720.71875 C 802.554688 716.777344 816.6875 700.09375 816.6875 680.175781 L 816.6875 608.808594 C 825.058594 602.503906 830.480469 592.488281 830.480469 581.222656 C 830.480469 545.363281 843.332031 510.28125 866.667969 482.433594 C 880.804688 465.566406 891.835938 446.589844 899.449219 426.042969 C 907.332031 404.769531 911.328125 382.382812 911.328125 359.503906 Z M 791.777344 615.738281 L 791.777344 643.757812 L 647.898438 643.757812 L 647.898438 615.738281 Z M 736.222656 733.1875 L 703.453125 733.1875 C 694.753906 733.1875 687.117188 728.542969 682.894531 721.601562 L 756.78125 721.601562 C 752.558594 728.542969 744.921875 733.1875 736.222656 733.1875 Z M 791.777344 680.175781 C 791.777344 689.28125 784.371094 696.691406 775.261719 696.691406 L 664.414062 696.691406 C 655.304688 696.691406 647.898438 689.28125 647.898438 680.175781 L 647.898438 668.667969 L 791.777344 668.667969 Z M 876.09375 417.382812 C 869.46875 435.253906 859.878906 451.753906 847.578125 466.433594 C 820.488281 498.757812 805.570312 539.523438 805.570312 581.222656 C 805.570312 586.519531 801.261719 590.828125 795.964844 590.828125 L 721.605469 590.828125 C 725.570312 566.84375 727.960938 542.722656 728.910156 518.644531 C 729.746094 496.648438 729.425781 474.621094 727.921875 452.6875 C 729.296875 451.3125 731.890625 448.707031 731.890625 448.707031 C 751.78125 429.503906 776.402344 415.328125 803.085938 407.691406 C 805.996094 406.808594 809.519531 405.960938 812.578125 405.226562 C 813.167969 405.136719 813.746094 405.054688 814.308594 404.988281 C 816.230469 404.703125 820.054688 404.214844 821.988281 404.015625 L 818.28125 405.195312 C 816.464844 405.816406 812.753906 407.101562 810.941406 407.726562 C 808.777344 408.601562 805.875 409.730469 803.730469 410.628906 C 786.316406 418.121094 770.03125 428.910156 755.515625 442.464844 C 766.332031 455.71875 783.953125 462.671875 801.878906 459.019531 C 827.601562 453.769531 862.019531 398.234375 862.019531 398.234375 C 862.019531 398.234375 808.601562 360.617188 782.878906 365.863281 C 759.265625 370.679688 743.339844 392.230469 744.945312 415.636719 C 738.25 418.292969 731.707031 421.34375 725.355469 424.75 C 722.738281 402.027344 718.816406 379.472656 713.546875 357.230469 C 713.828125 357.089844 714.105469 356.953125 714.386719 356.808594 C 737.433594 344.929688 746.484375 316.609375 734.601562 293.566406 C 722.722656 270.519531 660.703125 252.683594 660.703125 252.683594 C 660.703125 252.683594 639.257812 313.546875 651.140625 336.59375 C 659.421875 352.652344 675.679688 361.914062 692.578125 362.035156 C 694.027344 342.472656 692.25 323.257812 687.242188 305.21875 C 686.605469 303.015625 685.675781 300.078125 685.011719 297.875 C 684.371094 296.09375 683.0625 292.4375 682.417969 290.65625 L 681.03125 287.074219 C 682.074219 288.6875 684.066406 291.9375 685.035156 293.589844 C 686.933594 296.648438 688.949219 300.507812 690.601562 303.683594 C 692.144531 306.921875 694.046875 310.914062 695.355469 314.269531 C 698.5625 322.128906 701.148438 330.304688 703.097656 338.710938 C 708.789062 373.941406 711.148438 409.742188 710.21875 445.453125 C 708.171875 444.328125 706.128906 443.253906 704.121094 442.253906 C 700.605469 440.511719 697.019531 438.867188 693.386719 437.335938 C 694.855469 414.769531 679.996094 393.710938 657.273438 388.136719 C 631.773438 381.875 576.910156 417.355469 576.910156 417.355469 C 576.910156 417.355469 609.109375 474.207031 634.605469 480.46875 C 652.371094 484.828125 670.253906 478.574219 681.585938 465.757812 C 667.617188 451.640625 651.769531 440.214844 634.664062 432.042969 C 632.558594 431.0625 629.703125 429.820312 627.574219 428.859375 C 625.792969 428.164062 622.132812 426.730469 620.339844 426.039062 L 616.683594 424.714844 C 618.535156 424.980469 622.117188 425.582031 624.085938 425.945312 C 625.535156 426.296875 627.027344 426.65625 628.261719 426.972656 C 630.257812 427.558594 633.117188 428.328125 635.089844 428.945312 C 662.667969 437.511719 687.800781 452.976562 707.683594 473.78125 C 707.683594 473.78125 708.140625 473.21875 708.898438 472.28125 C 706.019531 512.105469 699.046875 551.605469 688.023438 589.851562 C 687.925781 590.175781 687.84375 590.503906 687.765625 590.828125 L 643.703125 590.828125 C 638.410156 590.828125 634.101562 586.519531 634.101562 581.222656 L 634.101562 580.808594 C 634.101562 539.296875 619.226562 498.730469 592.21875 466.582031 C 579.867188 451.875 570.230469 435.332031 563.585938 417.410156 C 556.710938 398.859375 553.234375 379.328125 553.25 359.347656 C 553.273438 336.289062 557.792969 314.050781 566.691406 293.253906 C 575.277344 273.175781 587.566406 255.257812 603.210938 239.996094 C 618.867188 224.722656 637.105469 212.875 657.410156 204.78125 C 677.164062 196.90625 698.09375 192.921875 719.679688 192.921875 C 721.078125 192.921875 722.484375 192.941406 723.890625 192.972656 C 745.941406 193.5 767.273438 198.269531 787.296875 207.148438 C 806.675781 215.746094 824.054688 227.828125 838.945312 243.058594 C 869.554688 274.359375 886.410156 315.71875 886.410156 359.507812 C 886.417969 379.417969 882.945312 398.890625 876.09375 417.382812 Z M 876.09375 417.382812 " fill-opacity="1" fill-rule="nonzero"/></g></svg>