<svg xmlns="http://www.w3.org/2000/svg" xmlns:xlink="http://www.w3.org/1999/xlink" width="1920" zoomAndPan="magnify" viewBox="0 0 1440 809.999993" height="1080" preserveAspectRatio="xMidYMid meet" version="1.0"><defs><clipPath id="a5ece3028a"><path d="M 685 483 L 1022 483 L 1022 750.8125 L 685 750.8125 Z M 685 483 " clip-rule="nonzero"/></clipPath><clipPath id="62b59b12bd"><path d="M 641.285156 344.796875 L 798.785156 344.796875 L 798.785156 471.546875 L 641.285156 471.546875 Z M 641.285156 344.796875 " clip-rule="nonzero"/></clipPath><clipPath id="769b709356"><path d="M 641.285156 358 L 796 358 L 796 466 L 641.285156 466 Z M 641.285156 358 " clip-rule="nonzero"/></clipPath><clipPath id="6f4687d87e"><path d="M 641.285156 344.796875 L 755 344.796875 L 755 377 L 641.285156 377 Z M 641.285156 344.796875 " clip-rule="nonzero"/></clipPath><clipPath id="d2d97a751a"><path d="M 641.285156 392 L 673 392 L 673 471.546875 L 641.285156 471.546875 Z M 641.285156 392 " clip-rule="nonzero"/></clipPath><clipPath id="12bdaa7c7b"><path d="M 776 344.796875 L 798.785156 344.796875 L 798.785156 462 L 776 462 Z M 776 344.796875 " clip-rule="nonzero"/></clipPath><clipPath id="22ecf3708f"><path d="M 587.488281 272.488281 L 852.238281 272.488281 L 852.238281 537.238281 L 587.488281 537.238281 Z M 587.488281 272.488281 " clip-rule="nonzero"/></clipPath></defs><path fill="#ffffff" d="M 701.6875 208.332031 L 664.265625 166.882812 C 661.234375 163.523438 656.414062 162.433594 652.230469 164.167969 L 598.09375 186.589844 C 593.910156 188.324219 591.273438 192.5 591.503906 197.019531 L 594.347656 252.789062 L 568.429688 278.710938 L 512.660156 275.863281 C 508.140625 275.632812 503.964844 278.269531 502.230469 282.453125 L 479.804688 336.59375 C 478.074219 340.773438 479.160156 345.59375 482.519531 348.628906 L 523.96875 386.046875 L 523.96875 422.703125 L 482.519531 460.125 C 479.160156 463.15625 478.074219 467.976562 479.804688 472.15625 L 502.230469 526.296875 C 503.960938 530.476562 508.144531 533.121094 512.660156 532.886719 L 568.429688 530.039062 L 594.347656 555.957031 L 591.503906 611.730469 C 591.273438 616.25 593.910156 620.425781 598.09375 622.160156 L 652.230469 644.585938 C 656.414062 646.316406 661.234375 645.230469 664.265625 641.867188 L 701.6875 600.417969 L 738.34375 600.417969 L 775.765625 641.867188 C 777.835938 644.164062 780.742188 645.398438 783.707031 645.398438 C 785.082031 645.398438 786.472656 645.132812 787.800781 644.585938 L 841.9375 622.160156 C 846.121094 620.429688 848.757812 616.25 848.53125 611.730469 L 845.679688 555.957031 L 871.601562 530.039062 L 927.371094 532.886719 C 931.894531 533.113281 936.066406 530.480469 937.800781 526.296875 L 960.226562 472.15625 C 961.957031 467.976562 960.871094 463.15625 957.511719 460.125 L 916.0625 422.703125 L 916.0625 386.046875 L 957.511719 348.625 C 960.871094 345.589844 961.957031 340.773438 960.226562 336.589844 L 937.800781 282.453125 C 936.070312 278.269531 931.894531 275.628906 927.371094 275.859375 L 871.601562 278.707031 L 845.679688 252.789062 L 848.53125 197.019531 C 848.757812 192.496094 846.121094 188.324219 841.9375 186.589844 L 787.800781 164.164062 C 783.617188 162.433594 778.796875 163.519531 775.765625 166.878906 L 738.34375 208.328125 L 701.6875 208.328125 Z M 751.035156 226.199219 L 786.585938 186.824219 L 826.773438 203.472656 L 824.066406 256.449219 C 823.914062 259.472656 825.046875 262.417969 827.1875 264.558594 L 859.828125 297.203125 C 861.96875 299.34375 864.917969 300.476562 867.941406 300.324219 L 920.917969 297.617188 L 937.566406 337.804688 L 898.191406 373.351562 C 895.945312 375.378906 894.664062 378.265625 894.664062 381.292969 L 894.664062 427.457031 C 894.664062 430.484375 895.945312 433.371094 898.191406 435.398438 L 937.566406 470.949219 L 920.917969 511.136719 L 867.941406 508.429688 C 864.917969 508.273438 861.96875 509.40625 859.828125 511.546875 L 827.1875 544.191406 C 825.046875 546.328125 823.914062 549.277344 824.066406 552.300781 L 826.773438 605.277344 L 786.585938 621.925781 L 751.035156 582.550781 C 749.007812 580.300781 746.125 579.019531 743.097656 579.019531 L 696.929688 579.019531 C 693.902344 579.019531 691.019531 580.300781 688.992188 582.550781 L 653.441406 621.925781 L 613.253906 605.277344 L 615.960938 552.300781 C 616.113281 549.277344 614.980469 546.328125 612.839844 544.191406 L 580.199219 511.546875 C 578.058594 509.40625 575.109375 508.277344 572.085938 508.429688 L 519.109375 511.132812 L 502.460938 470.945312 L 541.835938 435.398438 C 544.082031 433.367188 545.367188 430.484375 545.367188 427.457031 L 545.367188 381.292969 C 545.367188 378.265625 544.082031 375.378906 541.835938 373.351562 L 502.460938 337.804688 L 519.109375 297.613281 L 572.085938 300.320312 C 575.109375 300.472656 578.058594 299.339844 580.199219 297.203125 L 612.839844 264.558594 C 614.980469 262.417969 616.113281 259.472656 615.960938 256.449219 L 613.253906 203.46875 L 653.441406 186.824219 L 688.992188 226.195312 C 691.019531 228.445312 693.902344 229.726562 696.929688 229.726562 L 743.097656 229.726562 C 746.125 229.726562 749.007812 228.445312 751.035156 226.199219 Z M 751.035156 226.199219 " fill-opacity="1" fill-rule="nonzero"/><path fill="#ffffff" d="M 627.304688 311.664062 C 615.265625 323.703125 605.8125 337.722656 599.210938 353.335938 C 592.371094 369.507812 588.902344 386.679688 588.902344 404.375 C 588.902344 422.070312 592.371094 439.242188 599.210938 455.414062 C 605.816406 471.027344 615.265625 485.046875 627.304688 497.082031 C 639.34375 509.121094 653.363281 518.570312 668.976562 525.175781 C 685.148438 532.015625 702.320312 535.484375 720.015625 535.484375 C 737.707031 535.484375 754.878906 532.019531 771.050781 525.175781 C 786.664062 518.570312 800.683594 509.121094 812.722656 497.082031 C 824.761719 485.046875 834.210938 471.027344 840.816406 455.414062 C 847.65625 439.242188 851.125 422.070312 851.125 404.375 C 851.125 386.679688 847.65625 369.507812 840.816406 353.335938 C 834.210938 337.722656 824.761719 323.699219 812.722656 311.664062 C 800.683594 299.625 786.664062 290.175781 771.050781 283.570312 C 754.878906 276.734375 737.707031 273.261719 720.015625 273.261719 C 702.320312 273.261719 685.148438 276.730469 668.976562 283.570312 C 653.363281 290.175781 639.34375 299.625 627.304688 311.664062 Z M 720.015625 294.660156 C 734.828125 294.660156 749.195312 297.558594 762.71875 303.277344 C 775.78125 308.800781 787.515625 316.714844 797.59375 326.792969 C 807.671875 336.871094 815.585938 348.605469 821.109375 361.667969 C 826.828125 375.1875 829.726562 389.554688 829.726562 404.371094 C 829.726562 419.1875 826.828125 433.554688 821.109375 447.074219 C 815.585938 460.140625 807.671875 471.875 797.59375 481.953125 C 787.511719 492.03125 775.777344 499.941406 762.71875 505.46875 C 749.195312 511.1875 734.832031 514.085938 720.011719 514.085938 C 705.199219 514.085938 690.832031 511.1875 677.308594 505.46875 C 664.246094 499.941406 652.511719 492.03125 642.433594 481.953125 C 632.355469 471.871094 624.441406 460.136719 618.917969 447.074219 C 613.199219 433.554688 610.300781 419.191406 610.300781 404.371094 C 610.300781 389.554688 613.199219 375.1875 618.917969 361.667969 C 624.441406 348.605469 632.355469 336.871094 642.433594 326.792969 C 652.515625 316.714844 664.25 308.800781 677.308594 303.277344 C 690.832031 297.558594 705.199219 294.660156 720.015625 294.660156 Z M 720.015625 294.660156 " fill-opacity="1" fill-rule="nonzero"/><path fill="#ffffff" d="M 645.203125 415.4375 L 691.359375 461.59375 C 693.367188 463.597656 696.085938 464.726562 698.925781 464.726562 C 701.761719 464.726562 704.484375 463.597656 706.488281 461.59375 L 792.046875 376.035156 C 796.222656 371.859375 796.222656 365.085938 792.046875 360.90625 C 787.867188 356.730469 781.09375 356.730469 776.917969 360.90625 L 698.925781 438.898438 L 660.332031 400.308594 C 656.15625 396.128906 649.382812 396.128906 645.203125 400.308594 C 641.027344 404.484375 641.027344 411.257812 645.203125 415.4375 Z M 645.203125 415.4375 " fill-opacity="1" fill-rule="nonzero"/><path fill="#ffffff" d="M 417.058594 375.574219 C 417.527344 375.632812 417.988281 375.664062 418.445312 375.664062 C 423.742188 375.664062 428.34375 371.730469 429.042969 366.335938 C 438.109375 296.25 472.398438 231.714844 525.585938 184.621094 C 551.851562 161.363281 581.679688 143.191406 614.246094 130.597656 C 647.949219 117.566406 683.539062 110.960938 720.011719 110.960938 C 720.226562 110.960938 720.441406 110.964844 720.65625 110.964844 L 705.203125 126.417969 C 701.027344 130.59375 701.027344 137.367188 705.203125 141.546875 C 707.292969 143.636719 710.03125 144.679688 712.769531 144.679688 C 715.507812 144.679688 718.242188 143.636719 720.332031 141.546875 L 751.773438 110.105469 C 755.949219 105.929688 755.949219 99.15625 751.773438 94.976562 L 720.332031 63.539062 C 716.15625 59.359375 709.382812 59.359375 705.203125 63.539062 C 701.027344 67.714844 701.027344 74.492188 705.203125 78.667969 L 716.125 89.589844 C 678.359375 90.042969 641.507812 97.117188 606.53125 110.644531 C 571.585938 124.152344 539.582031 143.652344 511.40625 168.601562 C 454.34375 219.125 417.558594 288.375 407.824219 363.589844 C 407.066406 369.449219 411.199219 374.816406 417.058594 375.574219 Z M 417.058594 375.574219 " fill-opacity="1" fill-rule="nonzero"/><path fill="#ffffff" d="M 664.042969 692.457031 C 630.839844 686.046875 599.242188 674.003906 570.128906 656.671875 C 541.601562 639.683594 516.308594 618.140625 494.949219 592.632812 C 473.433594 566.9375 456.617188 538.058594 444.972656 506.796875 C 435.71875 481.964844 429.933594 456.121094 427.679688 429.691406 L 439.777344 441.789062 C 441.867188 443.878906 444.601562 444.921875 447.339844 444.921875 C 450.078125 444.921875 452.816406 443.878906 454.90625 441.789062 C 459.082031 437.609375 459.082031 430.835938 454.90625 426.660156 L 423.464844 395.21875 C 421.460938 393.214844 418.738281 392.085938 415.902344 392.085938 C 413.0625 392.085938 410.34375 393.214844 408.335938 395.21875 L 376.898438 426.660156 C 372.71875 430.835938 372.71875 437.609375 376.898438 441.789062 C 381.074219 445.964844 387.851562 445.964844 392.027344 441.789062 L 406.058594 427.757812 C 408.234375 457.421875 414.546875 486.433594 424.917969 514.269531 C 437.417969 547.816406 455.457031 578.800781 478.542969 606.371094 C 501.449219 633.726562 528.578125 656.835938 559.179688 675.054688 C 590.425781 693.660156 624.34375 706.585938 659.984375 713.46875 C 660.671875 713.597656 661.351562 713.664062 662.023438 713.664062 C 667.046875 713.664062 671.53125 710.109375 672.515625 704.992188 C 673.640625 699.191406 669.84375 693.578125 664.042969 692.457031 Z M 664.042969 692.457031 " fill-opacity="1" fill-rule="nonzero"/><g clip-path="url(#a5ece3028a)"><path fill="#ffffff" d="M 1013.667969 484.460938 C 1008.023438 482.707031 1002.027344 485.863281 1000.277344 491.507812 C 991.105469 521.035156 977.339844 548.835938 959.355469 574.144531 C 941.605469 599.125 920.15625 621.101562 895.613281 639.464844 C 870.796875 658.035156 843.386719 672.46875 814.15625 682.363281 C 784.628906 692.359375 753.726562 697.539062 722.273438 697.777344 L 735.4375 684.613281 C 739.617188 680.4375 739.617188 673.660156 735.4375 669.484375 C 731.261719 665.308594 724.488281 665.308594 720.308594 669.484375 L 688.871094 700.921875 C 686.863281 702.929688 685.738281 705.652344 685.738281 708.488281 C 685.738281 711.324219 686.863281 714.046875 688.871094 716.054688 L 720.308594 747.488281 C 722.398438 749.578125 725.136719 750.625 727.875 750.625 C 730.613281 750.625 733.347656 749.578125 735.4375 747.488281 C 739.617188 743.3125 739.617188 736.539062 735.4375 732.359375 L 722.253906 719.175781 C 756.050781 718.9375 789.265625 713.378906 821.015625 702.632812 C 852.390625 692.007812 881.800781 676.519531 908.433594 656.597656 C 934.753906 636.898438 957.757812 613.328125 976.796875 586.539062 C 996.09375 559.382812 1010.871094 529.542969 1020.710938 497.851562 C 1022.460938 492.207031 1019.308594 486.214844 1013.667969 484.460938 Z M 1013.667969 484.460938 " fill-opacity="1" fill-rule="nonzero"/></g><path fill="#ffffff" d="M 1063.449219 413.996094 C 1059.609375 409.507812 1052.855469 408.980469 1048.363281 412.820312 L 1034.152344 424.972656 C 1034.597656 418.117188 1034.824219 411.230469 1034.824219 404.371094 C 1034.824219 367.691406 1028.570312 331.75 1016.234375 297.550781 C 1004.3125 264.5 987.007812 233.835938 964.804688 206.414062 C 942.796875 179.234375 916.640625 156.042969 887.058594 137.492188 C 856.914062 118.582031 824.070312 105.042969 789.449219 97.25 C 783.683594 95.949219 777.957031 99.574219 776.664062 105.335938 C 775.363281 111.101562 778.988281 116.824219 784.75 118.121094 C 817.003906 125.382812 847.601562 138 875.6875 155.617188 C 903.269531 172.914062 927.65625 194.535156 948.175781 219.878906 C 968.875 245.4375 985 274.015625 996.105469 304.808594 C 1007.601562 336.675781 1013.425781 370.171875 1013.425781 404.375 C 1013.425781 410.644531 1013.222656 416.941406 1012.824219 423.210938 L 1000.761719 409.101562 C 996.921875 404.613281 990.167969 404.085938 985.679688 407.925781 C 981.1875 411.765625 980.660156 418.519531 984.5 423.007812 L 1013.398438 456.796875 C 1015.242188 458.953125 1017.867188 460.289062 1020.695312 460.511719 C 1020.972656 460.535156 1021.253906 460.542969 1021.527344 460.542969 C 1024.066406 460.542969 1026.539062 459.636719 1028.480469 457.976562 L 1062.269531 429.078125 C 1066.761719 425.242188 1067.289062 418.488281 1063.449219 413.996094 Z M 1063.449219 413.996094 " fill-opacity="1" fill-rule="nonzero"/><g clip-path="url(#62b59b12bd)"><path fill="#ff914d" d="M 701.527344 209.128906 L 664.105469 167.679688 C 661.074219 164.320312 656.253906 163.234375 652.070312 164.964844 L 597.933594 187.386719 C 593.75 189.121094 591.113281 193.296875 591.339844 197.820312 L 594.1875 253.589844 L 568.269531 279.507812 L 512.5 276.660156 C 507.980469 276.429688 503.804688 279.066406 502.070312 283.25 L 479.644531 337.390625 C 477.914062 341.574219 479 346.390625 482.359375 349.425781 L 523.808594 386.84375 L 523.808594 423.5 L 482.359375 460.921875 C 479 463.953125 477.914062 468.773438 479.644531 472.957031 L 502.070312 527.09375 C 503.800781 531.277344 507.984375 533.917969 512.5 533.6875 L 568.269531 530.835938 L 594.1875 556.757812 L 591.339844 612.527344 C 591.113281 617.046875 593.75 621.222656 597.933594 622.957031 L 652.070312 645.382812 C 656.253906 647.113281 661.074219 646.027344 664.105469 642.667969 L 701.527344 601.21875 L 738.183594 601.21875 L 775.605469 642.667969 C 777.675781 644.960938 780.582031 646.195312 783.546875 646.195312 C 784.921875 646.195312 786.3125 645.929688 787.636719 645.382812 L 841.777344 622.957031 C 845.960938 621.226562 848.597656 617.046875 848.367188 612.527344 L 845.519531 556.757812 L 871.4375 530.835938 L 927.210938 533.6875 C 931.734375 533.910156 935.90625 531.277344 937.640625 527.09375 L 960.066406 472.957031 C 961.796875 468.773438 960.710938 463.953125 957.347656 460.921875 L 915.898438 423.5 L 915.898438 386.84375 L 957.347656 349.421875 C 960.707031 346.390625 961.796875 341.570312 960.066406 337.390625 L 937.640625 283.25 C 935.910156 279.066406 931.734375 276.429688 927.210938 276.660156 L 871.4375 279.507812 L 845.519531 253.585938 L 848.367188 197.816406 C 848.597656 193.296875 845.960938 189.121094 841.777344 187.386719 L 787.636719 164.960938 C 783.457031 163.230469 778.636719 164.316406 775.605469 167.679688 L 738.183594 209.128906 Z M 750.875 226.996094 L 786.425781 187.621094 L 826.613281 204.269531 L 823.90625 257.246094 C 823.753906 260.269531 824.886719 263.214844 827.027344 265.359375 L 859.667969 298 C 861.808594 300.140625 864.757812 301.273438 867.78125 301.121094 L 920.757812 298.414062 L 937.40625 338.601562 L 898.03125 374.152344 C 895.785156 376.179688 894.5 379.0625 894.5 382.09375 L 894.5 428.257812 C 894.5 431.285156 895.785156 434.167969 898.03125 436.199219 L 937.40625 471.746094 L 920.757812 511.933594 L 867.78125 509.226562 C 864.757812 509.070312 861.808594 510.207031 859.667969 512.34375 L 827.027344 544.988281 C 824.886719 547.128906 823.753906 550.074219 823.90625 553.097656 L 826.613281 606.078125 L 786.425781 622.722656 L 750.875 583.347656 C 748.847656 581.101562 745.964844 579.820312 742.933594 579.820312 L 696.769531 579.820312 C 693.742188 579.820312 690.859375 581.101562 688.828125 583.347656 L 653.28125 622.722656 L 613.09375 606.078125 L 615.800781 553.097656 C 615.953125 550.074219 614.820312 547.128906 612.679688 544.988281 L 580.039062 512.34375 C 577.898438 510.207031 574.949219 509.074219 571.925781 509.226562 L 518.949219 511.929688 L 502.300781 471.742188 L 541.675781 436.195312 C 543.921875 434.164062 545.203125 431.28125 545.203125 428.253906 L 545.203125 382.089844 C 545.203125 379.0625 543.921875 376.175781 541.675781 374.148438 L 502.300781 338.601562 L 518.949219 298.414062 L 571.925781 301.117188 C 574.949219 301.269531 577.898438 300.140625 580.039062 298 L 612.679688 265.355469 C 614.820312 263.214844 615.953125 260.269531 615.800781 257.246094 L 613.09375 204.269531 L 653.28125 187.621094 L 688.828125 226.996094 C 690.859375 229.242188 693.742188 230.523438 696.769531 230.523438 L 742.933594 230.523438 C 745.964844 230.527344 748.847656 229.242188 750.875 226.996094 Z M 750.875 226.996094 " fill-opacity="1" fill-rule="nonzero"/><path fill="#ff914d" d="M 627.144531 312.464844 C 615.105469 324.5 605.652344 338.519531 599.050781 354.132812 C 592.210938 370.304688 588.742188 387.476562 588.742188 405.171875 C 588.742188 422.867188 592.210938 440.039062 599.050781 456.210938 C 605.65625 471.824219 615.105469 485.84375 627.144531 497.882812 C 639.183594 509.917969 653.203125 519.371094 668.816406 525.976562 C 684.988281 532.8125 702.15625 536.285156 719.851562 536.285156 C 737.546875 536.285156 754.71875 532.816406 770.890625 525.976562 C 786.503906 519.371094 800.523438 509.917969 812.5625 497.882812 C 824.601562 485.84375 834.050781 471.824219 840.65625 456.210938 C 847.496094 440.039062 850.964844 422.867188 850.964844 405.171875 C 850.964844 387.476562 847.496094 370.304688 840.65625 354.132812 C 834.050781 338.519531 824.601562 324.5 812.5625 312.464844 C 800.523438 300.425781 786.503906 290.972656 770.890625 284.371094 C 754.71875 277.53125 737.546875 274.0625 719.851562 274.0625 C 702.15625 274.0625 684.988281 277.527344 668.816406 284.371094 C 653.203125 290.972656 639.183594 300.425781 627.144531 312.464844 Z M 719.851562 295.457031 C 734.667969 295.457031 749.035156 298.355469 762.554688 304.074219 C 775.621094 309.597656 787.355469 317.511719 797.433594 327.589844 C 807.511719 337.671875 815.425781 349.40625 820.949219 362.46875 C 826.667969 375.988281 829.566406 390.355469 829.566406 405.171875 C 829.566406 419.984375 826.667969 434.355469 820.949219 447.875 C 815.425781 460.9375 807.511719 472.671875 797.433594 482.75 C 787.351562 492.828125 775.617188 500.742188 762.554688 506.265625 C 749.035156 511.984375 734.671875 514.886719 719.851562 514.886719 C 705.039062 514.886719 690.667969 511.984375 677.148438 506.265625 C 664.085938 500.742188 652.351562 492.828125 642.273438 482.75 C 632.195312 472.667969 624.28125 460.933594 618.757812 447.875 C 613.039062 434.355469 610.140625 419.988281 610.140625 405.171875 C 610.140625 390.355469 613.039062 375.988281 618.757812 362.46875 C 624.28125 349.402344 632.195312 337.667969 642.273438 327.589844 C 652.355469 317.511719 664.085938 309.597656 677.148438 304.074219 C 690.667969 298.355469 705.039062 295.457031 719.851562 295.457031 Z M 719.851562 295.457031 " fill-opacity="1" fill-rule="nonzero"/></g><g clip-path="url(#769b709356)"><path fill="#ff914d" d="M 645.042969 416.234375 L 691.199219 462.390625 C 693.207031 464.398438 695.925781 465.523438 698.765625 465.523438 C 701.601562 465.523438 704.324219 464.398438 706.328125 462.390625 L 791.886719 376.835938 C 796.0625 372.65625 796.0625 365.882812 791.886719 361.707031 C 787.707031 357.527344 780.933594 357.527344 776.757812 361.707031 L 698.765625 439.695312 L 660.171875 401.105469 C 655.996094 396.925781 649.21875 396.925781 645.042969 401.105469 C 640.867188 405.28125 640.867188 412.058594 645.042969 416.234375 Z M 645.042969 416.234375 " fill-opacity="1" fill-rule="nonzero"/></g><g clip-path="url(#6f4687d87e)"><path fill="#ff914d" d="M 416.898438 376.371094 C 417.363281 376.429688 417.828125 376.460938 418.285156 376.460938 C 423.582031 376.460938 428.183594 372.527344 428.882812 367.132812 C 437.949219 297.050781 472.234375 232.511719 525.425781 185.417969 C 551.691406 162.164062 581.519531 143.988281 614.082031 131.398438 C 647.789062 118.367188 683.375 111.757812 719.851562 111.757812 C 720.066406 111.757812 720.28125 111.761719 720.496094 111.761719 L 705.042969 127.214844 C 700.867188 131.390625 700.867188 138.167969 705.042969 142.34375 C 707.132812 144.433594 709.871094 145.476562 712.609375 145.476562 C 715.347656 145.476562 718.082031 144.433594 720.171875 142.34375 L 751.613281 110.90625 C 755.789062 106.726562 755.789062 99.953125 751.613281 95.773438 L 720.171875 64.335938 C 715.996094 60.160156 709.222656 60.160156 705.042969 64.335938 C 700.867188 68.511719 700.867188 75.289062 705.042969 79.464844 L 715.964844 90.386719 C 678.199219 90.839844 641.347656 97.917969 606.371094 111.441406 C 571.425781 124.949219 539.417969 144.453125 511.242188 169.398438 C 454.183594 219.921875 417.398438 289.171875 407.664062 364.390625 C 406.90625 370.246094 411.039062 375.613281 416.898438 376.371094 Z M 416.898438 376.371094 " fill-opacity="1" fill-rule="nonzero"/></g><g clip-path="url(#d2d97a751a)"><path fill="#ff914d" d="M 663.882812 693.257812 C 630.679688 686.847656 599.082031 674.804688 569.964844 657.46875 C 541.441406 640.484375 516.148438 618.9375 494.789062 593.429688 C 473.273438 567.734375 456.457031 538.855469 444.8125 507.597656 C 435.558594 482.765625 429.773438 456.917969 427.519531 430.488281 L 439.617188 442.585938 C 441.703125 444.675781 444.441406 445.71875 447.179688 445.71875 C 449.917969 445.71875 452.65625 444.675781 454.746094 442.585938 C 458.921875 438.410156 458.921875 431.632812 454.746094 427.457031 L 423.304688 396.019531 C 421.300781 394.011719 418.578125 392.882812 415.742188 392.882812 C 412.902344 392.882812 410.183594 394.011719 408.175781 396.019531 L 376.738281 427.457031 C 372.558594 431.632812 372.558594 438.410156 376.738281 442.585938 C 380.914062 446.765625 387.691406 446.765625 391.867188 442.585938 L 405.898438 428.554688 C 408.074219 458.21875 414.386719 487.234375 424.757812 515.066406 C 437.253906 548.613281 455.296875 579.601562 478.382812 607.167969 C 501.289062 634.527344 528.417969 657.632812 559.019531 675.851562 C 590.265625 694.457031 624.183594 707.382812 659.824219 714.265625 C 660.511719 714.398438 661.191406 714.460938 661.863281 714.460938 C 666.886719 714.460938 671.367188 710.90625 672.355469 705.789062 C 673.476562 699.988281 669.683594 694.375 663.882812 693.257812 Z M 663.882812 693.257812 " fill-opacity="1" fill-rule="nonzero"/></g><g clip-path="url(#12bdaa7c7b)"><path fill="#ff914d" d="M 1063.285156 414.792969 C 1059.449219 410.304688 1052.695312 409.777344 1048.203125 413.617188 L 1033.992188 425.769531 C 1034.433594 418.917969 1034.664062 412.027344 1034.664062 405.171875 C 1034.664062 368.488281 1028.410156 332.546875 1016.074219 298.347656 C 1004.152344 265.296875 986.847656 234.636719 964.644531 207.210938 C 942.636719 180.03125 916.480469 156.839844 886.898438 138.289062 C 856.75 119.382812 823.910156 105.839844 789.289062 98.046875 C 783.523438 96.75 777.796875 100.371094 776.503906 106.132812 C 775.203125 111.898438 778.824219 117.621094 784.589844 118.917969 C 816.84375 126.183594 847.441406 138.796875 875.527344 156.414062 C 903.109375 173.710938 927.496094 195.332031 948.015625 220.675781 C 968.714844 246.238281 984.839844 274.8125 995.945312 305.609375 C 1007.441406 337.472656 1013.265625 370.972656 1013.265625 405.171875 C 1013.265625 411.441406 1013.0625 417.742188 1012.664062 424.007812 L 1000.601562 409.902344 C 996.761719 405.410156 990.007812 404.882812 985.515625 408.722656 C 981.027344 412.5625 980.5 419.316406 984.339844 423.808594 L 1013.238281 457.597656 C 1015.082031 459.75 1017.707031 461.085938 1020.535156 461.308594 C 1020.8125 461.332031 1021.089844 461.339844 1021.367188 461.339844 C 1023.90625 461.339844 1026.375 460.433594 1028.320312 458.773438 L 1062.109375 429.875 C 1066.601562 426.039062 1067.128906 419.285156 1063.285156 414.792969 Z M 1063.285156 414.792969 " fill-opacity="1" fill-rule="nonzero"/></g><g clip-path="url(#22ecf3708f)"><path fill="#ff914d" d="M 720 272.488281 C 646.785156 272.488281 587.488281 331.785156 587.488281 405 C 587.488281 478.210938 646.785156 537.507812 720 537.507812 C 793.210938 537.507812 852.507812 478.210938 852.507812 405 C 852.507812 331.785156 793.210938 272.488281 720 272.488281 Z M 720 511.007812 C 661.429688 511.007812 613.992188 463.566406 613.992188 405 C 613.992188 346.429688 661.429688 298.992188 720 298.992188 C 778.566406 298.992188 826.007812 346.429688 826.007812 405 C 826.007812 463.566406 778.566406 511.007812 720 511.007812 Z M 720 511.007812 " fill-opacity="1" fill-rule="nonzero"/></g></svg>