<?xml version="1.0" encoding="UTF-8"?><svg xmlns="http://www.w3.org/2000/svg" xmlns:xlink="http://www.w3.org/1999/xlink" width="1440" zoomAndPan="magnify" viewBox="0 0 1440 809.999993" height="809.999993" preserveAspectRatio="xMidYMid meet" version="1.0"><defs><clipPath id="clip-0"><path d="M 422.582031 107.582031 L 1017.332031 107.582031 L 1017.332031 702.332031 L 422.582031 702.332031 Z M 422.582031 107.582031 " clip-rule="nonzero"/></clipPath><clipPath id="clip-1"><path d="M 634.75 318.082031 L 809.5 318.082031 L 809.5 496.582031 L 634.75 496.582031 Z M 634.75 318.082031 " clip-rule="nonzero"/></clipPath></defs><rect x="-144" width="1728" fill="rgb(100%, 100%, 100%)" y="-80.999999" height="971.999992" fill-opacity="1"/><rect x="-144" width="1728" fill="rgb(100%, 100%, 100%)" y="-80.999999" height="971.999992" fill-opacity="1"/><rect x="-144" width="1728" fill="rgb(100%, 100%, 100%)" y="-80.999999" height="971.999992" fill-opacity="1"/><path fill="rgb(0%, 24.308777%, 32.159424%)" d="M 719.957031 342.023438 C 685.253906 342.023438 657.023438 370.253906 657.023438 404.957031 C 657.023438 439.660156 685.253906 467.894531 719.957031 467.894531 C 754.660156 467.894531 782.894531 439.660156 782.894531 404.957031 C 782.894531 370.253906 754.660156 342.023438 719.957031 342.023438 Z M 719.957031 458.453125 C 690.460938 458.453125 666.464844 434.457031 666.464844 404.957031 C 666.464844 375.460938 690.460938 351.464844 719.957031 351.464844 C 749.453125 351.464844 773.453125 375.457031 773.453125 404.957031 C 773.453125 434.460938 749.453125 458.453125 719.957031 458.453125 Z M 719.957031 458.453125 " fill-opacity="1" fill-rule="nonzero"/><path fill="rgb(0%, 24.308777%, 32.159424%)" d="M 670.441406 194.453125 C 673.054688 194.453125 675.164062 192.339844 675.164062 189.734375 L 675.164062 141.007812 C 675.164062 138.402344 673.054688 136.289062 670.441406 136.289062 C 667.832031 136.289062 665.722656 138.402344 665.722656 141.007812 L 665.722656 189.734375 C 665.722656 192.339844 667.832031 194.453125 670.441406 194.453125 Z M 670.441406 194.453125 " fill-opacity="1" fill-rule="nonzero"/><path fill="rgb(0%, 24.308777%, 32.159424%)" d="M 572.390625 194.453125 C 575 194.453125 577.109375 192.339844 577.109375 189.734375 L 577.109375 141.007812 C 577.109375 138.402344 575 136.289062 572.390625 136.289062 C 569.777344 136.289062 567.667969 138.402344 567.667969 141.007812 L 567.667969 189.734375 C 567.667969 192.339844 569.785156 194.453125 572.390625 194.453125 Z M 572.390625 194.453125 " fill-opacity="1" fill-rule="nonzero"/><path fill="rgb(0%, 24.308777%, 32.159424%)" d="M 769.472656 194.453125 C 772.082031 194.453125 774.195312 192.339844 774.195312 189.734375 L 774.195312 141.007812 C 774.195312 138.402344 772.082031 136.289062 769.472656 136.289062 C 766.863281 136.289062 764.753906 138.402344 764.753906 141.007812 L 764.753906 189.734375 C 764.753906 192.339844 766.867188 194.453125 769.472656 194.453125 Z M 769.472656 194.453125 " fill-opacity="1" fill-rule="nonzero"/><path fill="rgb(0%, 24.308777%, 32.159424%)" d="M 867.527344 194.453125 C 870.136719 194.453125 872.246094 192.339844 872.246094 189.734375 L 872.246094 141.007812 C 872.246094 138.402344 870.136719 136.289062 867.527344 136.289062 C 864.917969 136.289062 862.808594 138.402344 862.808594 141.007812 L 862.808594 189.734375 C 862.808594 192.339844 864.917969 194.453125 867.527344 194.453125 Z M 867.527344 194.453125 " fill-opacity="1" fill-rule="nonzero"/><path fill="rgb(0%, 24.308777%, 32.159424%)" d="M 504.730469 459.195312 C 507.339844 459.195312 509.449219 457.078125 509.449219 454.472656 C 509.449219 451.867188 507.339844 449.753906 504.730469 449.753906 L 456.007812 449.753906 C 453.398438 449.753906 451.285156 451.867188 451.285156 454.472656 C 451.285156 457.078125 453.398438 459.195312 456.007812 459.195312 Z M 504.730469 459.195312 " fill-opacity="1" fill-rule="nonzero"/><path fill="rgb(0%, 24.308777%, 32.159424%)" d="M 504.730469 547.808594 L 456.007812 547.808594 C 453.398438 547.808594 451.285156 549.921875 451.285156 552.527344 C 451.285156 555.132812 453.398438 557.246094 456.007812 557.246094 L 504.730469 557.246094 C 507.339844 557.246094 509.449219 555.132812 509.449219 552.527344 C 509.449219 549.921875 507.339844 547.808594 504.730469 547.808594 Z M 504.730469 547.808594 " fill-opacity="1" fill-rule="nonzero"/><path fill="rgb(0%, 24.308777%, 32.159424%)" d="M 504.730469 360.164062 C 507.339844 360.164062 509.449219 358.046875 509.449219 355.441406 C 509.449219 352.835938 507.339844 350.722656 504.730469 350.722656 L 456.007812 350.722656 C 453.398438 350.722656 451.285156 352.835938 451.285156 355.441406 C 451.285156 358.046875 453.398438 360.164062 456.007812 360.164062 Z M 504.730469 360.164062 " fill-opacity="1" fill-rule="nonzero"/><path fill="rgb(0%, 24.308777%, 32.159424%)" d="M 456.007812 262.109375 L 504.730469 262.109375 C 507.339844 262.109375 509.449219 259.996094 509.449219 257.390625 C 509.449219 254.785156 507.339844 252.667969 504.730469 252.667969 L 456.007812 252.667969 C 453.398438 252.667969 451.285156 254.785156 451.285156 257.390625 C 451.285156 259.996094 453.398438 262.109375 456.007812 262.109375 Z M 456.007812 262.109375 " fill-opacity="1" fill-rule="nonzero"/><path fill="rgb(0%, 24.308777%, 32.159424%)" d="M 769.472656 615.460938 C 766.863281 615.460938 764.753906 617.578125 764.753906 620.183594 L 764.753906 668.910156 C 764.753906 671.515625 766.863281 673.628906 769.472656 673.628906 C 772.082031 673.628906 774.195312 671.515625 774.195312 668.910156 L 774.195312 620.183594 C 774.195312 617.578125 772.082031 615.460938 769.472656 615.460938 Z M 769.472656 615.460938 " fill-opacity="1" fill-rule="nonzero"/><path fill="rgb(0%, 24.308777%, 32.159424%)" d="M 867.527344 615.460938 C 864.917969 615.460938 862.808594 617.578125 862.808594 620.183594 L 862.808594 668.910156 C 862.808594 671.515625 864.917969 673.628906 867.527344 673.628906 C 870.136719 673.628906 872.246094 671.515625 872.246094 668.910156 L 872.246094 620.183594 C 872.246094 617.578125 870.132812 615.460938 867.527344 615.460938 Z M 867.527344 615.460938 " fill-opacity="1" fill-rule="nonzero"/><path fill="rgb(0%, 24.308777%, 32.159424%)" d="M 670.441406 615.460938 C 667.832031 615.460938 665.722656 617.578125 665.722656 620.183594 L 665.722656 668.910156 C 665.722656 671.515625 667.832031 673.628906 670.441406 673.628906 C 673.054688 673.628906 675.164062 671.515625 675.164062 668.910156 L 675.164062 620.183594 C 675.164062 617.578125 673.054688 615.460938 670.441406 615.460938 Z M 670.441406 615.460938 " fill-opacity="1" fill-rule="nonzero"/><path fill="rgb(0%, 24.308777%, 32.159424%)" d="M 572.390625 615.460938 C 569.777344 615.460938 567.667969 617.578125 567.667969 620.183594 L 567.667969 668.910156 C 567.667969 671.515625 569.777344 673.628906 572.390625 673.628906 C 575 673.628906 577.109375 671.515625 577.109375 668.910156 L 577.109375 620.183594 C 577.109375 617.578125 575 615.460938 572.390625 615.460938 Z M 572.390625 615.460938 " fill-opacity="1" fill-rule="nonzero"/><path fill="rgb(0%, 24.308777%, 32.159424%)" d="M 935.1875 350.722656 C 932.578125 350.722656 930.464844 352.835938 930.464844 355.441406 C 930.464844 358.046875 932.578125 360.164062 935.1875 360.164062 L 983.910156 360.164062 C 986.519531 360.164062 988.628906 358.046875 988.628906 355.441406 C 988.628906 352.835938 986.519531 350.722656 983.910156 350.722656 Z M 935.1875 350.722656 " fill-opacity="1" fill-rule="nonzero"/><path fill="rgb(0%, 24.308777%, 32.159424%)" d="M 935.1875 262.109375 L 983.910156 262.109375 C 986.519531 262.109375 988.628906 259.996094 988.628906 257.390625 C 988.628906 254.785156 986.519531 252.667969 983.910156 252.667969 L 935.1875 252.667969 C 932.578125 252.667969 930.464844 254.785156 930.464844 257.390625 C 930.464844 259.996094 932.578125 262.109375 935.1875 262.109375 Z M 935.1875 262.109375 " fill-opacity="1" fill-rule="nonzero"/><g clip-path="url(#clip-0)"><path fill="rgb(0%, 24.308777%, 32.159424%)" d="M 1017.332031 325.03125 L 1017.332031 286.816406 C 1017.332031 284.210938 1015.222656 282.09375 1012.613281 282.09375 L 903.003906 282.09375 L 903.003906 226.628906 C 903.003906 224.023438 900.894531 221.90625 898.285156 221.90625 L 842.816406 221.90625 L 842.816406 112.304688 C 842.816406 109.699219 840.707031 107.582031 838.097656 107.582031 L 799.882812 107.582031 C 797.269531 107.582031 795.160156 109.699219 795.160156 112.304688 L 795.160156 221.90625 L 743.785156 221.90625 L 743.785156 112.304688 C 743.785156 109.699219 741.675781 107.582031 739.066406 107.582031 L 700.851562 107.582031 C 698.242188 107.582031 696.128906 109.699219 696.128906 112.304688 L 696.128906 221.90625 L 644.75 221.90625 L 644.75 112.304688 C 644.75 109.699219 642.640625 107.582031 640.03125 107.582031 L 601.816406 107.582031 C 599.207031 107.582031 597.09375 109.699219 597.09375 112.304688 L 597.09375 221.90625 L 541.632812 221.90625 C 539.023438 221.90625 536.914062 224.023438 536.914062 226.628906 L 536.914062 282.09375 L 427.304688 282.09375 C 424.691406 282.09375 422.582031 284.210938 422.582031 286.816406 L 422.582031 325.03125 C 422.582031 327.636719 424.691406 329.75 427.304688 329.75 L 536.914062 329.75 L 536.914062 381.128906 L 427.304688 381.128906 C 424.691406 381.128906 422.582031 383.246094 422.582031 385.851562 L 422.582031 424.066406 C 422.582031 426.671875 424.691406 428.785156 427.304688 428.785156 L 536.914062 428.785156 L 536.914062 480.164062 L 427.304688 480.164062 C 424.691406 480.164062 422.582031 482.28125 422.582031 484.886719 L 422.582031 523.097656 C 422.582031 525.703125 424.691406 527.816406 427.304688 527.816406 L 536.914062 527.816406 L 536.914062 583.289062 C 536.914062 585.894531 539.023438 588.007812 541.632812 588.007812 L 597.101562 588.007812 L 597.101562 697.613281 C 597.101562 700.21875 599.210938 702.332031 601.820312 702.332031 L 640.035156 702.332031 C 642.644531 702.332031 644.753906 700.21875 644.753906 697.613281 L 644.753906 588.007812 L 696.136719 588.007812 L 696.136719 697.613281 C 696.136719 700.21875 698.246094 702.332031 700.855469 702.332031 L 739.070312 702.332031 C 741.679688 702.332031 743.789062 700.21875 743.789062 697.613281 L 743.789062 588.007812 L 795.171875 588.007812 L 795.171875 697.613281 C 795.171875 700.21875 797.28125 702.332031 799.890625 702.332031 L 838.105469 702.332031 C 840.714844 702.332031 842.824219 700.21875 842.824219 697.613281 L 842.824219 588.007812 L 898.292969 588.007812 C 900.902344 588.007812 903.015625 585.894531 903.015625 583.289062 L 903.015625 527.816406 L 1012.613281 527.816406 C 1015.222656 527.816406 1017.332031 525.703125 1017.332031 523.097656 L 1017.332031 484.886719 C 1017.332031 482.28125 1015.222656 480.164062 1012.613281 480.164062 L 903.003906 480.164062 L 903.003906 428.785156 L 1012.613281 428.785156 C 1015.222656 428.785156 1017.332031 426.671875 1017.332031 424.066406 L 1017.332031 385.851562 C 1017.332031 383.246094 1015.222656 381.128906 1012.613281 381.128906 L 903.003906 381.128906 L 903.003906 329.75 L 1012.613281 329.75 C 1015.222656 329.75 1017.332031 327.640625 1017.332031 325.03125 Z M 1007.894531 320.308594 L 898.285156 320.308594 C 895.675781 320.308594 893.5625 322.425781 893.5625 325.03125 L 893.5625 385.851562 C 893.5625 388.457031 895.675781 390.570312 898.285156 390.570312 L 1007.894531 390.570312 L 1007.894531 419.34375 L 898.285156 419.34375 C 895.675781 419.34375 893.5625 421.460938 893.5625 424.066406 L 893.5625 484.886719 C 893.5625 487.492188 895.675781 489.605469 898.285156 489.605469 L 1007.894531 489.605469 L 1007.894531 518.375 L 898.285156 518.375 C 895.675781 518.375 893.5625 520.492188 893.5625 523.097656 L 893.5625 578.570312 L 838.097656 578.570312 C 835.484375 578.570312 833.375 580.683594 833.375 583.289062 L 833.375 692.894531 L 804.601562 692.894531 L 804.601562 583.289062 C 804.601562 580.683594 802.492188 578.570312 799.882812 578.570312 L 739.066406 578.570312 C 736.457031 578.570312 734.34375 580.683594 734.34375 583.289062 L 734.34375 692.894531 L 705.570312 692.894531 L 705.570312 583.289062 C 705.570312 580.683594 703.460938 578.570312 700.851562 578.570312 L 640.03125 578.570312 C 637.421875 578.570312 635.308594 580.683594 635.308594 583.289062 L 635.308594 692.894531 L 606.535156 692.894531 L 606.535156 583.289062 C 606.535156 580.683594 604.425781 578.570312 601.816406 578.570312 L 546.351562 578.570312 L 546.351562 523.097656 C 546.351562 520.492188 544.242188 518.375 541.632812 518.375 L 432.023438 518.375 L 432.023438 489.605469 L 541.632812 489.605469 C 544.242188 489.605469 546.351562 487.492188 546.351562 484.886719 L 546.351562 424.066406 C 546.351562 421.460938 544.242188 419.34375 541.632812 419.34375 L 432.023438 419.34375 L 432.023438 390.570312 L 541.632812 390.570312 C 544.242188 390.570312 546.351562 388.457031 546.351562 385.851562 L 546.351562 325.03125 C 546.351562 322.425781 544.242188 320.308594 541.632812 320.308594 L 432.023438 320.308594 L 432.023438 291.535156 L 541.632812 291.535156 C 544.242188 291.535156 546.351562 289.421875 546.351562 286.816406 L 546.351562 231.347656 L 601.820312 231.347656 C 604.429688 231.347656 606.539062 229.234375 606.539062 226.628906 L 606.539062 117.023438 L 635.316406 117.023438 L 635.316406 226.628906 C 635.316406 229.234375 637.425781 231.347656 640.035156 231.347656 L 700.855469 231.347656 C 703.464844 231.347656 705.574219 229.234375 705.574219 226.628906 L 705.574219 117.023438 L 734.351562 117.023438 L 734.351562 226.628906 C 734.351562 229.234375 736.460938 231.347656 739.070312 231.347656 L 799.890625 231.347656 C 802.5 231.347656 804.609375 229.234375 804.609375 226.628906 L 804.609375 117.023438 L 833.386719 117.023438 L 833.386719 226.628906 C 833.386719 229.234375 835.496094 231.347656 838.105469 231.347656 L 893.574219 231.347656 L 893.574219 286.816406 C 893.574219 289.421875 895.683594 291.535156 898.292969 291.535156 L 1007.894531 291.535156 Z M 1007.894531 320.308594 " fill-opacity="1" fill-rule="nonzero"/></g><path fill="rgb(0%, 24.308777%, 32.159424%)" d="M 935.1875 449.753906 C 932.578125 449.753906 930.464844 451.867188 930.464844 454.472656 C 930.464844 457.078125 932.578125 459.195312 935.1875 459.195312 L 983.910156 459.195312 C 986.519531 459.195312 988.628906 457.078125 988.628906 454.472656 C 988.628906 451.867188 986.519531 449.753906 983.910156 449.753906 Z M 935.1875 449.753906 " fill-opacity="1" fill-rule="nonzero"/><path fill="rgb(0%, 24.308777%, 32.159424%)" d="M 983.910156 547.808594 L 935.1875 547.808594 C 932.578125 547.808594 930.464844 549.921875 930.464844 552.527344 C 930.464844 555.132812 932.578125 557.246094 935.1875 557.246094 L 983.910156 557.246094 C 986.519531 557.246094 988.628906 555.132812 988.628906 552.527344 C 988.628906 549.921875 986.519531 547.808594 983.910156 547.808594 Z M 983.910156 547.808594 " fill-opacity="1" fill-rule="nonzero"/><path fill="rgb(100%, 51.759338%, 0%)" d="M 719.707031 342.042969 C 685.003906 342.042969 656.773438 370.273438 656.773438 404.976562 C 656.773438 439.679688 685.003906 467.910156 719.707031 467.910156 C 754.410156 467.910156 782.644531 439.679688 782.644531 404.976562 C 782.644531 370.273438 754.410156 342.042969 719.707031 342.042969 Z M 719.707031 458.472656 C 690.210938 458.472656 666.214844 434.472656 666.214844 404.976562 C 666.214844 375.480469 690.210938 351.480469 719.707031 351.480469 C 749.203125 351.480469 773.203125 375.476562 773.203125 404.976562 C 773.203125 434.476562 749.203125 458.472656 719.707031 458.472656 Z M 719.707031 458.472656 " fill-opacity="1" fill-rule="nonzero"/><g clip-path="url(#clip-1)"><path fill="rgb(100%, 51.759338%, 0%)" d="M 1017.082031 325.050781 L 1017.082031 286.835938 C 1017.082031 284.226562 1014.972656 282.113281 1012.363281 282.113281 L 902.753906 282.113281 L 902.753906 226.644531 C 902.753906 224.039062 900.644531 221.925781 898.035156 221.925781 L 842.566406 221.925781 L 842.566406 112.320312 C 842.566406 109.714844 840.457031 107.601562 837.847656 107.601562 L 799.632812 107.601562 C 797.019531 107.601562 794.910156 109.714844 794.910156 112.320312 L 794.910156 221.925781 L 743.535156 221.925781 L 743.535156 112.320312 C 743.535156 109.714844 741.425781 107.601562 738.816406 107.601562 L 700.601562 107.601562 C 697.992188 107.601562 695.878906 109.714844 695.878906 112.320312 L 695.878906 221.925781 L 644.5 221.925781 L 644.5 112.320312 C 644.5 109.714844 642.390625 107.601562 639.78125 107.601562 L 601.566406 107.601562 C 598.957031 107.601562 596.84375 109.714844 596.84375 112.320312 L 596.84375 221.925781 L 541.382812 221.925781 C 538.773438 221.925781 536.664062 224.039062 536.664062 226.644531 L 536.664062 282.113281 L 427.054688 282.113281 C 424.441406 282.113281 422.332031 284.226562 422.332031 286.835938 L 422.332031 325.050781 C 422.332031 327.65625 424.441406 329.769531 427.054688 329.769531 L 536.664062 329.769531 L 536.664062 381.148438 L 427.054688 381.148438 C 424.441406 381.148438 422.332031 383.265625 422.332031 385.871094 L 422.332031 424.085938 C 422.332031 426.691406 424.441406 428.804688 427.054688 428.804688 L 536.664062 428.804688 L 536.664062 480.183594 L 427.054688 480.183594 C 424.441406 480.183594 422.332031 482.300781 422.332031 484.90625 L 422.332031 523.113281 C 422.332031 525.71875 424.441406 527.835938 427.054688 527.835938 L 536.664062 527.835938 L 536.664062 583.308594 C 536.664062 585.914062 538.773438 588.027344 541.382812 588.027344 L 596.851562 588.027344 L 596.851562 697.632812 C 596.851562 700.238281 598.960938 702.351562 601.570312 702.351562 L 639.785156 702.351562 C 642.394531 702.351562 644.503906 700.238281 644.503906 697.632812 L 644.503906 588.027344 L 695.886719 588.027344 L 695.886719 697.632812 C 695.886719 700.238281 697.996094 702.351562 700.605469 702.351562 L 738.820312 702.351562 C 741.429688 702.351562 743.539062 700.238281 743.539062 697.632812 L 743.539062 588.027344 L 794.921875 588.027344 L 794.921875 697.632812 C 794.921875 700.238281 797.03125 702.351562 799.640625 702.351562 L 837.855469 702.351562 C 840.464844 702.351562 842.574219 700.238281 842.574219 697.632812 L 842.574219 588.027344 L 898.042969 588.027344 C 900.652344 588.027344 902.765625 585.914062 902.765625 583.308594 L 902.765625 527.835938 L 1012.363281 527.835938 C 1014.972656 527.835938 1017.082031 525.71875 1017.082031 523.113281 L 1017.082031 484.90625 C 1017.082031 482.300781 1014.972656 480.183594 1012.363281 480.183594 L 902.753906 480.183594 L 902.753906 428.804688 L 1012.363281 428.804688 C 1014.972656 428.804688 1017.082031 426.691406 1017.082031 424.085938 L 1017.082031 385.871094 C 1017.082031 383.265625 1014.972656 381.148438 1012.363281 381.148438 L 902.753906 381.148438 L 902.753906 329.769531 L 1012.363281 329.769531 C 1014.972656 329.769531 1017.082031 327.660156 1017.082031 325.050781 Z M 1007.644531 320.328125 L 898.035156 320.328125 C 895.421875 320.328125 893.3125 322.445312 893.3125 325.050781 L 893.3125 385.871094 C 893.3125 388.476562 895.421875 390.589844 898.035156 390.589844 L 1007.644531 390.589844 L 1007.644531 419.363281 L 898.035156 419.363281 C 895.421875 419.363281 893.3125 421.480469 893.3125 424.085938 L 893.3125 484.90625 C 893.3125 487.511719 895.421875 489.625 898.035156 489.625 L 1007.644531 489.625 L 1007.644531 518.394531 L 898.035156 518.394531 C 895.421875 518.394531 893.3125 520.507812 893.3125 523.113281 L 893.3125 578.585938 L 837.847656 578.585938 C 835.234375 578.585938 833.125 580.703125 833.125 583.308594 L 833.125 692.910156 L 804.351562 692.910156 L 804.351562 583.308594 C 804.351562 580.703125 802.242188 578.585938 799.632812 578.585938 L 738.816406 578.585938 C 736.207031 578.585938 734.09375 580.703125 734.09375 583.308594 L 734.09375 692.910156 L 705.320312 692.910156 L 705.320312 583.308594 C 705.320312 580.703125 703.210938 578.585938 700.601562 578.585938 L 639.78125 578.585938 C 637.171875 578.585938 635.058594 580.703125 635.058594 583.308594 L 635.058594 692.910156 L 606.285156 692.910156 L 606.285156 583.308594 C 606.285156 580.703125 604.175781 578.585938 601.566406 578.585938 L 546.101562 578.585938 L 546.101562 523.113281 C 546.101562 520.507812 543.992188 518.394531 541.382812 518.394531 L 431.773438 518.394531 L 431.773438 489.625 L 541.382812 489.625 C 543.992188 489.625 546.101562 487.511719 546.101562 484.90625 L 546.101562 424.085938 C 546.101562 421.480469 543.992188 419.363281 541.382812 419.363281 L 431.773438 419.363281 L 431.773438 390.589844 L 541.382812 390.589844 C 543.992188 390.589844 546.101562 388.476562 546.101562 385.871094 L 546.101562 325.050781 C 546.101562 322.445312 543.992188 320.328125 541.382812 320.328125 L 431.773438 320.328125 L 431.773438 291.554688 L 541.382812 291.554688 C 543.992188 291.554688 546.101562 289.441406 546.101562 286.835938 L 546.101562 231.367188 L 601.570312 231.367188 C 604.179688 231.367188 606.289062 229.25 606.289062 226.644531 L 606.289062 117.042969 L 635.066406 117.042969 L 635.066406 226.644531 C 635.066406 229.25 637.175781 231.367188 639.785156 231.367188 L 700.605469 231.367188 C 703.214844 231.367188 705.324219 229.25 705.324219 226.644531 L 705.324219 117.042969 L 734.101562 117.042969 L 734.101562 226.644531 C 734.101562 229.25 736.210938 231.367188 738.820312 231.367188 L 799.640625 231.367188 C 802.25 231.367188 804.359375 229.25 804.359375 226.644531 L 804.359375 117.042969 L 833.136719 117.042969 L 833.136719 226.644531 C 833.136719 229.25 835.246094 231.367188 837.855469 231.367188 L 893.324219 231.367188 L 893.324219 286.835938 C 893.324219 289.441406 895.433594 291.554688 898.042969 291.554688 L 1007.644531 291.554688 Z M 1007.644531 320.328125 " fill-opacity="1" fill-rule="nonzero"/></g></svg>