<svg xmlns="http://www.w3.org/2000/svg" xmlns:xlink="http://www.w3.org/1999/xlink" width="1920" zoomAndPan="magnify" viewBox="0 0 1440 809.999993" height="1080" preserveAspectRatio="xMidYMid meet" version="1.0"><defs><clipPath id="c53c8ca056"><path d="M 406 85 L 1048 85 L 1048 728.988281 L 406 728.988281 Z M 406 85 " clip-rule="nonzero"/></clipPath><clipPath id="3bfc1f5457"><path d="M 731.476562 317.253906 L 958.726562 317.253906 L 958.726562 544.503906 L 731.476562 544.503906 Z M 731.476562 317.253906 " clip-rule="nonzero"/></clipPath><clipPath id="68d48f221a"><path d="M 403.273438 440.441406 L 584.773438 440.441406 L 584.773438 621.941406 L 403.273438 621.941406 Z M 403.273438 440.441406 " clip-rule="nonzero"/></clipPath><clipPath id="7a0bd8419c"><path d="M 430.121094 81 L 584.621094 81 L 584.621094 235.5 L 430.121094 235.5 Z M 430.121094 81 " clip-rule="nonzero"/></clipPath><clipPath id="946d1d9f68"><path d="M 895.527344 549.976562 L 1050.027344 549.976562 L 1050.027344 704.476562 L 895.527344 704.476562 Z M 895.527344 549.976562 " clip-rule="nonzero"/></clipPath></defs><g clip-path="url(#c53c8ca056)"><path fill="#ffffff" d="M 946.742188 559.910156 L 920.53125 519.277344 C 923.152344 516.65625 925.773438 514.035156 928.394531 511.414062 C 995.238281 444.570312 954.609375 329.230469 861.546875 318.742188 L 861.546875 259.761719 C 903.492188 253.207031 936.257812 216.507812 936.257812 173.257812 C 936.257812 124.761719 896.9375 85.441406 848.441406 85.441406 C 799.945312 85.441406 760.625 124.761719 760.625 173.257812 C 760.625 216.507812 792.082031 253.207031 835.335938 259.761719 L 835.335938 318.742188 C 810.429688 321.363281 786.839844 333.160156 768.488281 350.199219 L 571.886719 192.917969 C 611.207031 118.207031 515.527344 48.742188 456.542969 106.410156 C 391.007812 171.945312 485.378906 272.867188 556.15625 212.578125 L 752.761719 369.859375 C 748.828125 376.414062 746.207031 382.96875 743.585938 389.519531 L 600.71875 352.820312 C 600.71875 351.511719 600.71875 350.199219 600.71875 348.890625 C 600.71875 312.191406 570.574219 283.355469 535.1875 283.355469 C 498.488281 283.355469 469.652344 313.5 469.652344 348.890625 C 469.652344 385.589844 499.796875 414.421875 535.1875 414.421875 C 558.777344 414.421875 582.371094 401.316406 594.167969 377.722656 L 737.03125 414.421875 C 735.722656 426.21875 735.722656 436.707031 737.03125 448.5 L 574.507812 494.375 C 560.089844 464.230469 529.941406 443.257812 494.554688 443.257812 C 446.058594 443.257812 406.738281 482.578125 406.738281 531.074219 C 406.738281 579.570312 446.058594 618.890625 494.554688 618.890625 C 543.050781 618.890625 582.371094 579.570312 582.371094 531.074219 C 582.371094 527.144531 582.371094 523.210938 581.058594 520.589844 L 743.585938 474.714844 C 748.828125 487.824219 756.691406 498.308594 765.867188 508.792969 L 696.402344 591.367188 C 685.914062 584.8125 672.808594 582.191406 661.011719 582.191406 C 620.382812 582.191406 587.613281 614.960938 587.613281 655.589844 C 587.613281 696.222656 620.382812 728.988281 661.011719 728.988281 C 721.304688 728.988281 756.691406 658.210938 717.371094 609.71875 L 786.839844 527.144531 C 805.1875 540.25 827.46875 545.492188 849.753906 545.492188 C 866.792969 545.492188 883.832031 541.5625 899.558594 533.695312 L 925.773438 574.328125 C 925.773438 574.328125 924.460938 575.640625 924.460938 575.640625 C 878.585938 621.511719 911.355469 700.15625 975.578125 700.15625 C 993.929688 700.15625 1012.277344 693.601562 1026.695312 679.183594 C 1081.746094 622.824219 1020.140625 528.453125 946.742188 559.910156 Z M 493.242188 350.199219 C 493.242188 327.917969 511.59375 310.878906 532.566406 310.878906 C 554.847656 310.878906 571.886719 329.230469 571.886719 350.199219 C 573.195312 402.628906 493.242188 402.628906 493.242188 350.199219 Z M 494.554688 592.679688 C 460.476562 592.679688 432.953125 565.152344 432.953125 531.074219 C 432.953125 496.996094 460.476562 469.472656 494.554688 469.472656 C 528.632812 469.472656 556.15625 496.996094 556.15625 531.074219 C 556.15625 565.152344 528.632812 592.679688 494.554688 592.679688 Z M 788.148438 173.257812 C 788.148438 139.179688 815.675781 111.652344 849.753906 111.652344 C 883.832031 111.652344 911.355469 139.179688 911.355469 173.257812 C 911.355469 207.335938 883.832031 234.859375 849.753906 234.859375 C 815.675781 234.859375 788.148438 207.335938 788.148438 173.257812 Z M 476.203125 191.605469 C 447.371094 161.460938 468.339844 111.652344 508.972656 111.652344 C 549.601562 111.652344 571.886719 161.460938 541.738281 191.605469 C 523.390625 209.957031 494.554688 209.957031 476.203125 191.605469 Z M 693.78125 688.359375 C 666.253906 715.882812 613.828125 697.535156 613.828125 655.589844 C 613.828125 629.378906 634.796875 608.40625 661.011719 608.40625 C 674.121094 608.40625 684.605469 613.648438 693.78125 621.511719 C 712.128906 639.863281 712.128906 670.007812 693.78125 688.359375 Z M 786.839844 493.066406 C 731.789062 438.015625 771.109375 343.644531 848.441406 343.644531 C 925.773438 343.644531 965.09375 438.015625 910.042969 493.066406 C 877.277344 527.144531 820.917969 527.144531 786.839844 493.066406 Z M 1008.347656 659.523438 C 989.996094 677.875 961.160156 677.875 942.8125 659.523438 C 913.976562 630.6875 934.949219 579.570312 975.578125 579.570312 C 1016.210938 579.570312 1037.179688 630.6875 1008.347656 659.523438 Z M 1008.347656 659.523438 " fill-opacity="1" fill-rule="nonzero"/></g><g clip-path="url(#3bfc1f5457)"><path fill="#ff914d" d="M 845.210938 317.253906 C 782.371094 317.253906 731.476562 368.148438 731.476562 430.988281 C 731.476562 493.828125 782.371094 544.726562 845.210938 544.726562 C 908.050781 544.726562 958.949219 493.828125 958.949219 430.988281 C 958.949219 368.148438 908.050781 317.253906 845.210938 317.253906 Z M 845.210938 521.976562 C 794.941406 521.976562 754.222656 481.261719 754.222656 430.988281 C 754.222656 380.71875 794.941406 340 845.210938 340 C 895.484375 340 936.199219 380.71875 936.199219 430.988281 C 936.199219 481.261719 895.484375 521.976562 845.210938 521.976562 Z M 845.210938 521.976562 " fill-opacity="1" fill-rule="nonzero"/></g><g clip-path="url(#68d48f221a)"><path fill="#ff914d" d="M 494.058594 440.441406 C 443.898438 440.441406 403.273438 481.066406 403.273438 531.226562 C 403.273438 581.382812 443.898438 622.011719 494.058594 622.011719 C 544.214844 622.011719 584.84375 581.382812 584.84375 531.226562 C 584.84375 481.066406 544.214844 440.441406 494.058594 440.441406 Z M 494.058594 603.851562 C 453.929688 603.851562 421.429688 571.351562 421.429688 531.226562 C 421.429688 491.097656 453.929688 458.597656 494.058594 458.597656 C 534.183594 458.597656 566.683594 491.097656 566.683594 531.226562 C 566.683594 571.351562 534.183594 603.851562 494.058594 603.851562 Z M 494.058594 603.851562 " fill-opacity="1" fill-rule="nonzero"/></g><g clip-path="url(#7a0bd8419c)"><path fill="#ff914d" d="M 507.484375 81 C 464.742188 81 430.121094 115.621094 430.121094 158.363281 C 430.121094 201.101562 464.742188 235.722656 507.484375 235.722656 C 550.226562 235.722656 584.84375 201.101562 584.84375 158.363281 C 584.84375 115.621094 550.226562 81 507.484375 81 Z M 507.484375 220.25 C 473.289062 220.25 445.59375 192.554688 445.59375 158.363281 C 445.59375 124.167969 473.289062 96.472656 507.484375 96.472656 C 541.675781 96.472656 569.371094 124.167969 569.371094 158.363281 C 569.371094 192.554688 541.675781 220.25 507.484375 220.25 Z M 507.484375 220.25 " fill-opacity="1" fill-rule="nonzero"/></g><g clip-path="url(#946d1d9f68)"><path fill="#ff914d" d="M 972.890625 549.976562 C 930.148438 549.976562 895.527344 584.597656 895.527344 627.339844 C 895.527344 670.082031 930.148438 704.699219 972.890625 704.699219 C 1015.632812 704.699219 1050.25 670.082031 1050.25 627.339844 C 1050.25 584.597656 1015.632812 549.976562 972.890625 549.976562 Z M 972.890625 689.226562 C 938.695312 689.226562 911 661.53125 911 627.339844 C 911 593.144531 938.695312 565.449219 972.890625 565.449219 C 1007.082031 565.449219 1034.777344 593.144531 1034.777344 627.339844 C 1034.777344 661.53125 1007.082031 689.226562 972.890625 689.226562 Z M 972.890625 689.226562 " fill-opacity="1" fill-rule="nonzero"/></g></svg>