<?xml version="1.0" encoding="UTF-8"?><svg xmlns="http://www.w3.org/2000/svg" xmlns:xlink="http://www.w3.org/1999/xlink" width="1440" zoomAndPan="magnify" viewBox="0 0 1440 809.999993" height="809.999993" preserveAspectRatio="xMidYMid meet" version="1.0"><defs><clipPath id="clip-0"><path d="M 397.25 190.074219 L 1042.726562 190.074219 L 1042.726562 619.824219 L 397.25 619.824219 Z M 397.25 190.074219 " clip-rule="nonzero"/></clipPath><clipPath id="clip-1"><path d="M 431.667969 403.5 L 1008.417969 403.5 L 1008.417969 586.5 L 431.667969 586.5 Z M 431.667969 403.5 " clip-rule="nonzero"/></clipPath></defs><g clip-path="url(#clip-0)"><path fill="rgb(0%, 24.308777%, 32.159424%)" d="M 839.523438 524.671875 C 832.933594 524.671875 827.605469 530 827.605469 536.585938 C 827.605469 543.234375 832.933594 548.5625 839.523438 548.5625 C 846.113281 548.5625 851.5 543.234375 851.5 536.585938 C 851.5 530 846.113281 524.671875 839.523438 524.671875 Z M 755.859375 524.671875 L 779.753906 524.671875 L 779.753906 548.5625 L 755.859375 548.5625 Z M 660.21875 524.671875 L 684.113281 524.671875 L 684.113281 548.5625 L 660.21875 548.5625 Z M 564.578125 524.671875 L 588.472656 524.671875 L 588.472656 548.5625 L 564.578125 548.5625 Z M 468.9375 524.671875 L 492.890625 524.671875 L 492.890625 548.5625 L 468.9375 548.5625 Z M 743.882812 500.777344 C 737.292969 500.777344 731.964844 506.105469 731.964844 512.695312 L 731.964844 560.535156 C 731.964844 567.125 737.292969 572.453125 743.882812 572.453125 L 791.730469 572.453125 C 798.320312 572.453125 803.652344 567.125 803.652344 560.535156 L 803.652344 512.695312 C 803.652344 506.105469 798.320312 500.777344 791.730469 500.777344 Z M 648.242188 500.777344 C 641.652344 500.777344 636.324219 506.105469 636.324219 512.695312 L 636.324219 560.535156 C 636.324219 567.125 641.652344 572.453125 648.242188 572.453125 L 696.089844 572.453125 C 702.679688 572.453125 708.011719 567.125 708.011719 560.535156 L 708.011719 512.695312 C 708.011719 506.105469 702.679688 500.777344 696.089844 500.777344 Z M 552.65625 500.777344 C 546.066406 500.777344 540.679688 506.105469 540.679688 512.695312 L 540.679688 560.535156 C 540.679688 567.125 546.066406 572.453125 552.65625 572.453125 L 600.449219 572.453125 C 607.039062 572.453125 612.425781 567.125 612.425781 560.535156 L 612.425781 512.695312 C 612.425781 506.105469 607.039062 500.777344 600.449219 500.777344 Z M 457.015625 500.777344 C 450.425781 500.777344 445.039062 506.105469 445.039062 512.695312 L 445.039062 560.535156 C 445.039062 567.125 450.425781 572.453125 457.015625 572.453125 L 504.808594 572.453125 C 511.398438 572.453125 516.785156 567.125 516.785156 560.535156 L 516.785156 512.695312 C 516.785156 506.105469 511.398438 500.777344 504.808594 500.777344 Z M 839.523438 476.828125 C 832.933594 476.828125 827.605469 482.214844 827.605469 488.804688 C 827.605469 495.394531 832.933594 500.777344 839.523438 500.777344 C 846.113281 500.777344 851.5 495.394531 851.5 488.804688 C 851.5 482.214844 846.113281 476.828125 839.523438 476.828125 Z M 970.980469 429.046875 L 970.980469 548.5625 L 994.875 548.5625 L 994.875 429.046875 Z M 923.1875 429.046875 L 923.1875 548.5625 L 947.082031 548.5625 L 947.082031 429.046875 Z M 875.394531 429.046875 L 875.394531 548.5625 L 899.292969 548.5625 L 899.292969 429.046875 Z M 839.523438 429.046875 C 832.933594 429.046875 827.605469 434.375 827.605469 441.019531 C 827.605469 447.609375 832.933594 452.9375 839.523438 452.9375 C 846.113281 452.9375 851.5 447.609375 851.5 441.019531 C 851.5 434.375 846.113281 429.046875 839.523438 429.046875 Z M 755.859375 429.046875 L 779.753906 429.046875 L 779.753906 452.9375 L 755.859375 452.9375 Z M 660.21875 429.046875 L 684.113281 429.046875 L 684.113281 452.9375 L 660.21875 452.9375 Z M 564.578125 429.046875 L 588.472656 429.046875 L 588.472656 452.9375 L 564.578125 452.9375 Z M 468.9375 429.046875 L 492.890625 429.046875 L 492.890625 452.9375 L 468.9375 452.9375 Z M 743.882812 405.15625 C 737.292969 405.15625 731.964844 410.484375 731.964844 417.074219 L 731.964844 464.914062 C 731.964844 471.5 737.292969 476.828125 743.882812 476.828125 L 791.730469 476.828125 C 798.320312 476.828125 803.652344 471.5 803.652344 464.914062 L 803.652344 417.074219 C 803.652344 410.484375 798.320312 405.15625 791.730469 405.15625 Z M 648.242188 405.15625 C 641.652344 405.15625 636.324219 410.484375 636.324219 417.074219 L 636.324219 464.914062 C 636.324219 471.5 641.652344 476.828125 648.242188 476.828125 L 696.089844 476.828125 C 702.679688 476.828125 708.011719 471.5 708.011719 464.914062 L 708.011719 417.074219 C 708.011719 410.484375 702.679688 405.15625 696.089844 405.15625 Z M 552.65625 405.15625 C 546.066406 405.15625 540.679688 410.484375 540.679688 417.074219 L 540.679688 464.914062 C 540.679688 471.5 546.066406 476.828125 552.65625 476.828125 L 600.449219 476.828125 C 607.039062 476.828125 612.425781 471.5 612.425781 464.914062 L 612.425781 417.074219 C 612.425781 410.484375 607.039062 405.15625 600.449219 405.15625 Z M 457.015625 405.15625 C 450.425781 405.15625 445.039062 410.484375 445.039062 417.074219 L 445.039062 464.914062 C 445.039062 471.5 450.425781 476.828125 457.015625 476.828125 L 504.808594 476.828125 C 511.398438 476.828125 516.785156 471.5 516.785156 464.914062 L 516.785156 417.074219 C 516.785156 410.484375 511.398438 405.15625 504.808594 405.15625 Z M 421.144531 381.265625 L 1018.828125 381.265625 L 1018.828125 596.34375 L 421.144531 596.34375 Z M 467.675781 213.910156 L 973.902344 213.910156 L 1015.792969 357.371094 L 423.265625 356.285156 Z M 455.699219 190.015625 C 449.109375 190.015625 443.78125 195.402344 443.722656 201.992188 L 398.96875 363.160156 C 397.878906 365.050781 397.25 367.113281 397.25 369.289062 L 397.25 608.320312 C 397.25 614.910156 402.578125 620.238281 409.226562 620.238281 L 1030.75 620.238281 C 1037.394531 620.238281 1042.726562 614.910156 1042.726562 608.320312 L 1042.726562 369.289062 C 1042.726562 367.226562 1042.207031 365.164062 1041.121094 363.332031 L 997.796875 201.992188 C 997.796875 195.402344 992.46875 190.015625 985.820312 190.015625 L 455.699219 190.015625 " fill-opacity="1" fill-rule="nonzero"/></g><g clip-path="url(#clip-1)"><path fill="rgb(100%, 51.759338%, 0%)" d="M 839.523438 524.652344 C 832.933594 524.652344 827.605469 529.980469 827.605469 536.570312 C 827.605469 543.214844 832.933594 548.542969 839.523438 548.542969 C 846.113281 548.542969 851.5 543.214844 851.5 536.570312 C 851.5 529.980469 846.113281 524.652344 839.523438 524.652344 Z M 755.859375 524.652344 L 779.753906 524.652344 L 779.753906 548.542969 L 755.859375 548.542969 Z M 660.21875 524.652344 L 684.113281 524.652344 L 684.113281 548.542969 L 660.21875 548.542969 Z M 564.578125 524.652344 L 588.472656 524.652344 L 588.472656 548.542969 L 564.578125 548.542969 Z M 468.9375 524.652344 L 492.890625 524.652344 L 492.890625 548.542969 L 468.9375 548.542969 Z M 743.882812 500.761719 C 737.292969 500.761719 731.964844 506.089844 731.964844 512.675781 L 731.964844 560.519531 C 731.964844 567.105469 737.292969 572.433594 743.882812 572.433594 L 791.730469 572.433594 C 798.320312 572.433594 803.652344 567.105469 803.652344 560.519531 L 803.652344 512.675781 C 803.652344 506.089844 798.320312 500.761719 791.730469 500.761719 Z M 648.242188 500.761719 C 641.652344 500.761719 636.324219 506.089844 636.324219 512.675781 L 636.324219 560.519531 C 636.324219 567.105469 641.652344 572.433594 648.242188 572.433594 L 696.089844 572.433594 C 702.679688 572.433594 708.011719 567.105469 708.011719 560.519531 L 708.011719 512.675781 C 708.011719 506.089844 702.679688 500.761719 696.089844 500.761719 Z M 552.65625 500.761719 C 546.066406 500.761719 540.679688 506.089844 540.679688 512.675781 L 540.679688 560.519531 C 540.679688 567.105469 546.066406 572.433594 552.65625 572.433594 L 600.449219 572.433594 C 607.039062 572.433594 612.425781 567.105469 612.425781 560.519531 L 612.425781 512.675781 C 612.425781 506.089844 607.039062 500.761719 600.449219 500.761719 Z M 457.015625 500.761719 C 450.425781 500.761719 445.039062 506.089844 445.039062 512.675781 L 445.039062 560.519531 C 445.039062 567.105469 450.425781 572.433594 457.015625 572.433594 L 504.808594 572.433594 C 511.398438 572.433594 516.785156 567.105469 516.785156 560.519531 L 516.785156 512.675781 C 516.785156 506.089844 511.398438 500.761719 504.808594 500.761719 Z M 839.523438 476.8125 C 832.933594 476.8125 827.605469 482.195312 827.605469 488.785156 C 827.605469 495.375 832.933594 500.761719 839.523438 500.761719 C 846.113281 500.761719 851.5 495.375 851.5 488.785156 C 851.5 482.195312 846.113281 476.8125 839.523438 476.8125 Z M 970.980469 429.027344 L 970.980469 548.542969 L 994.875 548.542969 L 994.875 429.027344 Z M 923.1875 429.027344 L 923.1875 548.542969 L 947.082031 548.542969 L 947.082031 429.027344 Z M 875.394531 429.027344 L 875.394531 548.542969 L 899.292969 548.542969 L 899.292969 429.027344 Z M 839.523438 429.027344 C 832.933594 429.027344 827.605469 434.355469 827.605469 441.003906 C 827.605469 447.589844 832.933594 452.921875 839.523438 452.921875 C 846.113281 452.921875 851.5 447.589844 851.5 441.003906 C 851.5 434.355469 846.113281 429.027344 839.523438 429.027344 Z M 755.859375 429.027344 L 779.753906 429.027344 L 779.753906 452.921875 L 755.859375 452.921875 Z M 660.21875 429.027344 L 684.113281 429.027344 L 684.113281 452.921875 L 660.21875 452.921875 Z M 564.578125 429.027344 L 588.472656 429.027344 L 588.472656 452.921875 L 564.578125 452.921875 Z M 468.9375 429.027344 L 492.890625 429.027344 L 492.890625 452.921875 L 468.9375 452.921875 Z M 743.882812 405.136719 C 737.292969 405.136719 731.964844 410.464844 731.964844 417.054688 L 731.964844 464.894531 C 731.964844 471.484375 737.292969 476.8125 743.882812 476.8125 L 791.730469 476.8125 C 798.320312 476.8125 803.652344 471.484375 803.652344 464.894531 L 803.652344 417.054688 C 803.652344 410.464844 798.320312 405.136719 791.730469 405.136719 Z M 648.242188 405.136719 C 641.652344 405.136719 636.324219 410.464844 636.324219 417.054688 L 636.324219 464.894531 C 636.324219 471.484375 641.652344 476.8125 648.242188 476.8125 L 696.089844 476.8125 C 702.679688 476.8125 708.011719 471.484375 708.011719 464.894531 L 708.011719 417.054688 C 708.011719 410.464844 702.679688 405.136719 696.089844 405.136719 Z M 552.65625 405.136719 C 546.066406 405.136719 540.679688 410.464844 540.679688 417.054688 L 540.679688 464.894531 C 540.679688 471.484375 546.066406 476.8125 552.65625 476.8125 L 600.449219 476.8125 C 607.039062 476.8125 612.425781 471.484375 612.425781 464.894531 L 612.425781 417.054688 C 612.425781 410.464844 607.039062 405.136719 600.449219 405.136719 Z M 457.015625 405.136719 C 450.425781 405.136719 445.039062 410.464844 445.039062 417.054688 L 445.039062 464.894531 C 445.039062 471.484375 450.425781 476.8125 457.015625 476.8125 L 504.808594 476.8125 C 511.398438 476.8125 516.785156 471.484375 516.785156 464.894531 L 516.785156 417.054688 C 516.785156 410.464844 511.398438 405.136719 504.808594 405.136719 Z M 421.144531 381.246094 L 1018.828125 381.246094 L 1018.828125 596.328125 L 421.144531 596.328125 Z M 467.675781 213.890625 L 973.902344 213.890625 L 1015.792969 357.355469 L 423.265625 356.265625 Z M 455.699219 190 C 449.109375 190 443.78125 195.382812 443.722656 201.972656 L 398.96875 363.140625 C 397.878906 365.03125 397.25 367.09375 397.25 369.269531 L 397.25 608.300781 C 397.25 614.890625 402.578125 620.21875 409.226562 620.21875 L 1030.75 620.21875 C 1037.394531 620.21875 1042.726562 614.890625 1042.726562 608.300781 L 1042.726562 369.269531 C 1042.726562 367.207031 1042.207031 365.144531 1041.121094 363.3125 L 997.796875 201.972656 C 997.796875 195.382812 992.46875 190 985.820312 190 L 455.699219 190 " fill-opacity="1" fill-rule="nonzero"/></g></svg>