<?xml version="1.0" encoding="utf-8"?>
<!-- Generator: Adobe Illustrator 25.4.1, SVG Export Plug-In . SVG Version: 6.00 Build 0)  -->
<svg version="1.1" id="Layer_1" xmlns="http://www.w3.org/2000/svg" xmlns:xlink="http://www.w3.org/1999/xlink" x="0px" y="0px"
	 viewBox="0 0 1000 700" style="enable-background:new 0 0 1000 700;" xml:space="preserve">
<style type="text/css">
	.st0{clip-path:url(#SVGID_00000123434143815056991370000016485381925484303744_);}
	.st1{clip-path:url(#SVGID_00000029749550229452304850000015082446367756209306_);}
	.st2{clip-path:url(#SVGID_00000084505023056967513540000004414939666017447583_);}
	.st3{fill:#FFFFFF;}
	.st4{clip-path:url(#SVGID_00000182513770187823913220000009751707259367177883_);}
	.st5{clip-path:url(#SVGID_00000078733444089714183810000012211914342274655415_);}
	.st6{clip-path:url(#SVGID_00000030475373871750686560000017957892796984542139_);}
	.st7{fill:#FF8400;}
	.st8{clip-path:url(#SVGID_00000026143444520549803950000011799023856372142781_);}
	.st9{clip-path:url(#SVGID_00000173161699780657167130000006923383130259872157_);}
	.st10{clip-path:url(#SVGID_00000056409746916597811110000002577962112965705624_);}
	.st11{clip-path:url(#SVGID_00000065034560140441549200000002326945844141629627_);}
	.st12{clip-path:url(#SVGID_00000109745282506830297840000003481712974196991403_);}
	.st13{clip-path:url(#SVGID_00000121268767749522505250000012987981120015723397_);}
	.st14{clip-path:url(#SVGID_00000092445611487382059360000002129915595047006382_);}
	.st15{clip-path:url(#SVGID_00000114038271276299928430000002951097273148026546_);}
	.st16{clip-path:url(#SVGID_00000111175503944669045130000011911649220774806173_);}
	.st17{clip-path:url(#SVGID_00000060718553528666994120000017900359393798880945_);}
	.st18{clip-path:url(#SVGID_00000085214217991664395520000015375601022629793437_);}
	.st19{clip-path:url(#SVGID_00000170989560512842093840000014106758830787633594_);}
	.st20{clip-path:url(#SVGID_00000008856374797759068290000007453404755992668065_);}
	.st21{clip-path:url(#SVGID_00000139976375768902687700000010198994379721958829_);}
	.st22{clip-path:url(#SVGID_00000183221765253057165360000004087720175228928129_);}
	.st23{clip-path:url(#SVGID_00000129921998186970379650000007377448262524893343_);}
	.st24{clip-path:url(#SVGID_00000063598494466960947130000003012953735955970728_);}
	.st25{clip-path:url(#SVGID_00000003077297063540904130000010656093148815760264_);}
	.st26{clip-path:url(#SVGID_00000086650368503658311730000001138584689662819247_);}
	.st27{clip-path:url(#SVGID_00000123423159120654421430000006502446217094871960_);}
	.st28{clip-path:url(#SVGID_00000007406264113966608200000017396194282275750066_);}
</style>
<g>
	<g>
		<defs>
			<rect id="SVGID_1_" x="198" y="57" width="429" height="586"/>
		</defs>
		<clipPath id="SVGID_00000173136430805012084790000003498190818722514875_">
			<use xlink:href="#SVGID_1_"  style="overflow:visible;"/>
		</clipPath>
		<g style="clip-path:url(#SVGID_00000173136430805012084790000003498190818722514875_);">
			<g>
				<g>
					<defs>
						
							<rect id="SVGID_00000098913066100061818590000018329054890376628130_" x="137.7" y="199.6" transform="matrix(0.318 -0.9481 0.9481 0.318 -50.3884 629.769)" width="549.7" height="300.7"/>
					</defs>
					<clipPath id="SVGID_00000132777861209919025230000017889686385747266442_">
						<use xlink:href="#SVGID_00000098913066100061818590000018329054890376628130_"  style="overflow:visible;"/>
					</clipPath>
					<g style="clip-path:url(#SVGID_00000132777861209919025230000017889686385747266442_);">
						<g>
							<g>
								<defs>
									
										<rect id="SVGID_00000080918488447630580420000013295406854628391060_" x="137.7" y="199.6" transform="matrix(0.318 -0.9481 0.9481 0.318 -50.3883 629.769)" width="549.7" height="300.7"/>
								</defs>
								<clipPath id="SVGID_00000155841286372889275410000017008247837136967071_">
									<use xlink:href="#SVGID_00000080918488447630580420000013295406854628391060_"  style="overflow:visible;"/>
								</clipPath>
								<g style="clip-path:url(#SVGID_00000155841286372889275410000017008247837136967071_);">
									<path class="st3" d="M237.6,580.2l175.6,58.9c30,10.1,62.5-6.1,72.5-35.8L624,192.2c9.7-30.2-6.5-62.7-36.5-72.8
										L412.3,60.6c-30-10.1-63.3,5.9-73.3,35.5L201.1,507.5C191.1,537.5,207.6,570.2,237.6,580.2z M329.5,593
										c-13.4-4.5-20.7-19.1-16.2-32.5s19.1-20.7,32.5-16.2s20.7,19.1,16.2,32.5C357.4,590.6,342.9,597.5,329.5,593z M463.9,114.2
										l50.7,17c4.5,1.5,6.9,6.4,5.4,10.8c-1.5,4.5-6.4,6.9-10.8,5.4l-50.7-17c-4.5-1.5-6.9-6.4-5.4-10.8S459.4,112.7,463.9,114.2
										z M432.2,106.3c3.8-1.9,9.6-0.4,11.4,3.8c1.1,2.2,1.2,4.5,0.5,6.5s-2.2,3.8-4.3,4.9c-2.2,1.1-4.5,1.2-6.5,0.5
										s-3.8-2.2-4.9-4.3s-1.2-4.5-0.5-6.5C429,109.3,430.5,107.5,432.2,106.3z M359.7,128.9l231.2,77.5L469.7,567.7l-231.2-77.5
										L359.7,128.9z"/>
								</g>
							</g>
						</g>
					</g>
				</g>
			</g>
		</g>
	</g>
</g>
<g>
	<g>
		<defs>
			<rect id="SVGID_00000145052698501682325820000006180041895544237758_" x="696" y="358" width="29" height="29"/>
		</defs>
		<clipPath id="SVGID_00000123430415173361063380000000847204243678769817_">
			<use xlink:href="#SVGID_00000145052698501682325820000006180041895544237758_"  style="overflow:visible;"/>
		</clipPath>
		<g style="clip-path:url(#SVGID_00000123430415173361063380000000847204243678769817_);">
			<g>
				<g>
					<defs>
						
							<rect id="SVGID_00000164499911768492579360000014769870856515525306_" x="619.5" y="280.6" transform="matrix(0.9557 -0.2943 0.2943 0.9557 -77.8333 225.4676)" width="181.5" height="181.5"/>
					</defs>
					<clipPath id="SVGID_00000099620579185001792170000008193386766839387573_">
						<use xlink:href="#SVGID_00000164499911768492579360000014769870856515525306_"  style="overflow:visible;"/>
					</clipPath>
					<g style="clip-path:url(#SVGID_00000099620579185001792170000008193386766839387573_);">
						<g>
							<g>
								<defs>
									
										<rect id="SVGID_00000044167960609708715130000009822482952919459243_" x="619.5" y="280.6" transform="matrix(0.9557 -0.2943 0.2943 0.9557 -77.8333 225.4676)" width="181.5" height="181.5"/>
								</defs>
								<clipPath id="SVGID_00000076584721956426619650000002896765040588573592_">
									<use xlink:href="#SVGID_00000044167960609708715130000009822482952919459243_"  style="overflow:visible;"/>
								</clipPath>
								<g style="clip-path:url(#SVGID_00000076584721956426619650000002896765040588573592_);">
									<path class="st7" d="M723.8,368c0.3,0.9,0.5,1.8,0.5,2.7c0.1,0.9,0.1,1.8,0,2.7s-0.3,1.8-0.5,2.7s-0.6,1.7-1,2.5
										s-0.9,1.6-1.5,2.3s-1.2,1.4-1.9,1.9c-0.7,0.6-1.5,1.1-2.3,1.5s-1.6,0.8-2.5,1.1c-0.9,0.3-1.8,0.5-2.7,0.5
										c-0.9,0.1-1.8,0.1-2.7,0s-1.8-0.3-2.7-0.5c-0.9-0.3-1.7-0.6-2.5-1s-1.6-0.9-2.3-1.5s-1.4-1.2-1.9-1.9
										c-0.6-0.7-1.1-1.5-1.5-2.3s-0.8-1.6-1.1-2.5s-0.5-1.8-0.5-2.7c-0.1-0.9-0.1-1.8,0-2.7c0.1-0.9,0.3-1.8,0.5-2.7
										c0.3-0.9,0.6-1.7,1-2.5s0.9-1.6,1.5-2.3s1.2-1.4,1.9-1.9c0.7-0.6,1.5-1.1,2.3-1.5s1.6-0.8,2.5-1.1c0.9-0.3,1.8-0.5,2.7-0.5
										c0.9-0.1,1.8-0.1,2.7,0s1.8,0.3,2.7,0.5s1.7,0.6,2.5,1s1.6,0.9,2.3,1.5s1.4,1.2,1.9,1.9c0.6,0.7,1.1,1.5,1.5,2.3
										C723.1,366.2,723.5,367.1,723.8,368z"/>
								</g>
							</g>
						</g>
					</g>
				</g>
			</g>
		</g>
	</g>
</g>
<g>
	<g>
		<defs>
			<rect id="SVGID_00000060021486712970676390000007312684643408714887_" x="675" y="337" width="71" height="70"/>
		</defs>
		<clipPath id="SVGID_00000039103821413533529110000000394861360004107181_">
			<use xlink:href="#SVGID_00000060021486712970676390000007312684643408714887_"  style="overflow:visible;"/>
		</clipPath>
		<g style="clip-path:url(#SVGID_00000039103821413533529110000000394861360004107181_);">
			<g>
				<g>
					<defs>
						
							<rect id="SVGID_00000181050553531018296910000002755318423533707181_" x="619.5" y="280.6" transform="matrix(0.9557 -0.2943 0.2943 0.9557 -77.8333 225.4676)" width="181.5" height="181.5"/>
					</defs>
					<clipPath id="SVGID_00000005225441540475217640000005493002376933152668_">
						<use xlink:href="#SVGID_00000181050553531018296910000002755318423533707181_"  style="overflow:visible;"/>
					</clipPath>
					<g style="clip-path:url(#SVGID_00000005225441540475217640000005493002376933152668_);">
						<g>
							<g>
								<defs>
									
										<rect id="SVGID_00000018211741738637144250000015133123515035604139_" x="619.5" y="280.6" transform="matrix(0.9557 -0.2943 0.2943 0.9557 -77.8333 225.4676)" width="181.5" height="181.5"/>
								</defs>
								<clipPath id="SVGID_00000022541609048780708030000005555852685974771374_">
									<use xlink:href="#SVGID_00000018211741738637144250000015133123515035604139_"  style="overflow:visible;"/>
								</clipPath>
								<g style="clip-path:url(#SVGID_00000022541609048780708030000005555852685974771374_);">
									<path class="st7" d="M743.8,361.8c-5.8-18.7-24.9-28.8-43.6-23.1s-28.8,24.9-23.1,43.6c4.1,13.3,15.8,22.9,29.5,24.5
										l-2.3-7.3c-9.4-2.2-17.5-9.2-20.3-18.6c-4.5-14.7,3.8-30.4,18.5-34.9s30.4,3.8,34.9,18.5c3.1,10,0.2,19.7-6.4,26.8l2.3,7.3
										C743.6,389.6,747.9,375.1,743.8,361.8z"/>
								</g>
							</g>
						</g>
					</g>
				</g>
			</g>
		</g>
	</g>
</g>
<g>
	<g>
		<defs>
			<rect id="SVGID_00000134240801111100114920000017734664176361990788_" x="661" y="323" width="99" height="98"/>
		</defs>
		<clipPath id="SVGID_00000002347470614490855520000017726406992646174623_">
			<use xlink:href="#SVGID_00000134240801111100114920000017734664176361990788_"  style="overflow:visible;"/>
		</clipPath>
		<g style="clip-path:url(#SVGID_00000002347470614490855520000017726406992646174623_);">
			<g>
				<g>
					<defs>
						
							<rect id="SVGID_00000177442915947454751040000011074381125956208018_" x="619.5" y="280.6" transform="matrix(0.9557 -0.2943 0.2943 0.9557 -77.8333 225.4676)" width="181.5" height="181.5"/>
					</defs>
					<clipPath id="SVGID_00000106107905460120086620000008827024433651197321_">
						<use xlink:href="#SVGID_00000177442915947454751040000011074381125956208018_"  style="overflow:visible;"/>
					</clipPath>
					<g style="clip-path:url(#SVGID_00000106107905460120086620000008827024433651197321_);">
						<g>
							<g>
								<defs>
									
										<rect id="SVGID_00000046316858873692243320000000769171436988780701_" x="619.5" y="280.6" transform="matrix(0.9557 -0.2943 0.2943 0.9557 -77.8333 225.4676)" width="181.5" height="181.5"/>
								</defs>
								<clipPath id="SVGID_00000173153352507864198190000013059336543643405961_">
									<use xlink:href="#SVGID_00000046316858873692243320000000769171436988780701_"  style="overflow:visible;"/>
								</clipPath>
								<g style="clip-path:url(#SVGID_00000173153352507864198190000013059336543643405961_);">
									<path class="st7" d="M757.1,357.7c-8-26-35.1-40.3-61.1-32.3s-40.3,35.1-32.3,61.1c6.6,21.4,25.9,34.4,47.1,34.4l-2.3-7.3
										c-17-0.6-32.8-11.8-38.2-29.1c-6.8-22,5.7-45.6,27.7-52.4s45.6,5.7,52.4,27.7c5.3,17.3-1.5,35.5-15.2,45.6l2.3,7.3
										C755,400.7,763.7,379,757.1,357.7z"/>
								</g>
							</g>
						</g>
					</g>
				</g>
			</g>
		</g>
	</g>
</g>
<g>
	<g>
		<defs>
			<rect id="SVGID_00000181045969993699386960000001046915412950601907_" x="619" y="281" width="183" height="182"/>
		</defs>
		<clipPath id="SVGID_00000137845376789459314960000013428338370427826575_">
			<use xlink:href="#SVGID_00000181045969993699386960000001046915412950601907_"  style="overflow:visible;"/>
		</clipPath>
		<g style="clip-path:url(#SVGID_00000137845376789459314960000013428338370427826575_);">
			<g>
				<g>
					<defs>
						
							<rect id="SVGID_00000012454229375728368990000018290840365290922426_" x="619.5" y="280.6" transform="matrix(0.9557 -0.2943 0.2943 0.9557 -77.8333 225.4676)" width="181.5" height="181.5"/>
					</defs>
					<clipPath id="SVGID_00000165229580138777384570000007684623788034518401_">
						<use xlink:href="#SVGID_00000012454229375728368990000018290840365290922426_"  style="overflow:visible;"/>
					</clipPath>
					<g style="clip-path:url(#SVGID_00000165229580138777384570000007684623788034518401_);">
						<g>
							<g>
								<defs>
									
										<rect id="SVGID_00000017518668454126164240000008721893568411189134_" x="619.5" y="280.6" transform="matrix(0.9557 -0.2943 0.2943 0.9557 -77.8333 225.4676)" width="181.5" height="181.5"/>
								</defs>
								<clipPath id="SVGID_00000100377990122495200590000014547265078276393097_">
									<use xlink:href="#SVGID_00000017518668454126164240000008721893568411189134_"  style="overflow:visible;"/>
								</clipPath>
								<g style="clip-path:url(#SVGID_00000100377990122495200590000014547265078276393097_);">
									<path class="st7" d="M683.7,285.3c-48,14.8-74.8,65.4-60,113.4c13.4,43.4,56.5,69.5,99.7,62.8l-2.1-6.7
										c-39.9,5.7-78.8-18.8-91-58.2c-13.6-44,11.4-91.2,55.4-104.7c44-13.6,91.2,11.4,104.7,55.4c12.1,39.4-6.3,81.6-42.5,99.3
										l2.1,6.7c39.3-19.4,60.4-64.6,47.1-108C782.3,297.3,731.7,270.5,683.7,285.3z"/>
								</g>
							</g>
						</g>
					</g>
				</g>
			</g>
		</g>
	</g>
</g>
<g>
	<g>
		<defs>
			<rect id="SVGID_00000175309160085095798620000016886773502626823320_" x="633" y="295" width="155" height="154"/>
		</defs>
		<clipPath id="SVGID_00000144303473658385659010000005164203464572975777_">
			<use xlink:href="#SVGID_00000175309160085095798620000016886773502626823320_"  style="overflow:visible;"/>
		</clipPath>
		<g style="clip-path:url(#SVGID_00000144303473658385659010000005164203464572975777_);">
			<g>
				<g>
					<defs>
						
							<rect id="SVGID_00000070112636847399542010000016026303039063012516_" x="619.5" y="280.6" transform="matrix(0.9557 -0.2943 0.2943 0.9557 -77.8333 225.4676)" width="181.5" height="181.5"/>
					</defs>
					<clipPath id="SVGID_00000078743323633193579410000013568786265373812379_">
						<use xlink:href="#SVGID_00000070112636847399542010000016026303039063012516_"  style="overflow:visible;"/>
					</clipPath>
					<g style="clip-path:url(#SVGID_00000078743323633193579410000013568786265373812379_);">
						<g>
							<g>
								<defs>
									
										<rect id="SVGID_00000158724907734175321190000009217663031585673623_" x="619.5" y="280.6" transform="matrix(0.9557 -0.2943 0.2943 0.9557 -77.8333 225.4676)" width="181.5" height="181.5"/>
								</defs>
								<clipPath id="SVGID_00000011014863579362393230000015545841207039529407_">
									<use xlink:href="#SVGID_00000158724907734175321190000009217663031585673623_"  style="overflow:visible;"/>
								</clipPath>
								<g style="clip-path:url(#SVGID_00000011014863579362393230000015545841207039529407_);">
									<path class="st7" d="M783.8,349.5c-12.5-40.7-55.3-63.3-96-50.8s-63.3,55.3-50.8,96c11.1,36,46.4,58,82.2,53.6l-2.1-6.7
										c-32.5,3.4-63.6-16.9-73.5-48.9c-11.3-36.7,9.5-76,46.2-87.3s76,9.5,87.3,46.2c9.9,32-4.4,66.4-33.2,81.8l2.1,6.7
										C778.1,423.5,794.9,385.5,783.8,349.5z"/>
								</g>
							</g>
						</g>
					</g>
				</g>
			</g>
		</g>
	</g>
</g>
<g>
	<g>
		<defs>
			<rect id="SVGID_00000143610098551765617580000010230065160990464174_" x="647" y="309" width="127" height="127"/>
		</defs>
		<clipPath id="SVGID_00000085936602507252004030000005703432886441739430_">
			<use xlink:href="#SVGID_00000143610098551765617580000010230065160990464174_"  style="overflow:visible;"/>
		</clipPath>
		<g style="clip-path:url(#SVGID_00000085936602507252004030000005703432886441739430_);">
			<g>
				<g>
					<defs>
						
							<rect id="SVGID_00000114053454527243757780000009465476082090100412_" x="619.5" y="280.6" transform="matrix(0.9557 -0.2943 0.2943 0.9557 -77.8333 225.4676)" width="181.5" height="181.5"/>
					</defs>
					<clipPath id="SVGID_00000008856629854244483920000015742780449566121348_">
						<use xlink:href="#SVGID_00000114053454527243757780000009465476082090100412_"  style="overflow:visible;"/>
					</clipPath>
					<g style="clip-path:url(#SVGID_00000008856629854244483920000015742780449566121348_);">
						<g>
							<g>
								<defs>
									
										<rect id="SVGID_00000094606298018403808640000014768272281759346601_" x="619.5" y="280.6" transform="matrix(0.9557 -0.2943 0.2943 0.9557 -77.8333 225.4676)" width="181.5" height="181.5"/>
								</defs>
								<clipPath id="SVGID_00000137132786468517692900000008550345980915494581_">
									<use xlink:href="#SVGID_00000094606298018403808640000014768272281759346601_"  style="overflow:visible;"/>
								</clipPath>
								<g style="clip-path:url(#SVGID_00000137132786468517692900000008550345980915494581_);">
									<path class="st7" d="M770.5,353.6c-10.3-33.4-45.2-51.8-78.5-41.6s-51.8,45.2-41.6,78.5c8.8,28.7,36.2,46.5,64.8,44.3
										l-2.1-6.7c-24.5,1-48.2-14.4-55.8-39c-9-29.4,7.6-60.8,36.9-69.8c29.4-9,60.8,7.6,69.8,36.9c7.6,24.7-3.4,50.7-24.2,63.7
										l2.1,6.7C766.7,412.4,779.3,382.3,770.5,353.6z"/>
								</g>
							</g>
						</g>
					</g>
				</g>
			</g>
		</g>
	</g>
</g>
<g>
	<g>
		<defs>
			<rect id="SVGID_00000128477366002561380070000015434168573290465450_" x="356" y="241" width="135" height="193"/>
		</defs>
		<clipPath id="SVGID_00000157310732823116553490000009758358743772473530_">
			<use xlink:href="#SVGID_00000128477366002561380070000015434168573290465450_"  style="overflow:visible;"/>
		</clipPath>
		<g style="clip-path:url(#SVGID_00000157310732823116553490000009758358743772473530_);">
			<g>
				<g>
					<defs>
						
							<rect id="SVGID_00000098220515678647467470000012052164019507378579_" x="313.1" y="271.7" transform="matrix(0.3158 -0.9488 0.9488 0.3158 -39.4103 623.7582)" width="199.5" height="135"/>
					</defs>
					<clipPath id="SVGID_00000108306629951545123280000016698103898487300269_">
						<use xlink:href="#SVGID_00000098220515678647467470000012052164019507378579_"  style="overflow:visible;"/>
					</clipPath>
					<g style="clip-path:url(#SVGID_00000108306629951545123280000016698103898487300269_);">
						<g>
							<g>
								<defs>
									
										<rect id="SVGID_00000029045635137956896150000011169105611021554585_" x="313.1" y="271.7" transform="matrix(0.3158 -0.9488 0.9488 0.3158 -39.4103 623.7582)" width="199.5" height="135"/>
								</defs>
								<clipPath id="SVGID_00000170968269705736643770000012510862966747585689_">
									<use xlink:href="#SVGID_00000029045635137956896150000011169105611021554585_"  style="overflow:visible;"/>
								</clipPath>
								<g style="clip-path:url(#SVGID_00000170968269705736643770000012510862966747585689_);">
									<path class="st7" d="M442.4,250.3c32.2,10.7,49.6,45.4,38.9,77.5s-96.7,96-96.7,96S354.1,321.1,364.8,289
										C375.5,256.9,410.3,239.6,442.4,250.3z M483.4,278.3c-8.1-16.1-21.9-28.1-39-33.8c-17.1-5.7-35.4-4.4-51.5,3.6
										c-16.1,8-28.1,21.9-33.8,38.9c-4.8,14.3-2.8,42.1,5.7,82.6c6.3,29.6,14,55.6,14.1,55.8l2.5,8.3l6.9-5.2
										c0.2-0.2,22-16.4,44.7-36.3c31.1-27.2,49.3-48.3,54.1-62.7C492.8,312.7,491.5,294.4,483.4,278.3"/>
								</g>
							</g>
						</g>
					</g>
				</g>
			</g>
		</g>
	</g>
</g>
<g>
	<g>
		<defs>
			<rect id="SVGID_00000023985242428998734230000006062030861961663131_" x="391" y="265" width="70" height="70"/>
		</defs>
		<clipPath id="SVGID_00000116942775960821065580000014208762800710519215_">
			<use xlink:href="#SVGID_00000023985242428998734230000006062030861961663131_"  style="overflow:visible;"/>
		</clipPath>
		<g style="clip-path:url(#SVGID_00000116942775960821065580000014208762800710519215_);">
			<g>
				<g>
					<defs>
						
							<rect id="SVGID_00000152981238281164954400000009180601443284591268_" x="313.1" y="271.7" transform="matrix(0.3158 -0.9488 0.9488 0.3158 -39.4103 623.7582)" width="199.5" height="135"/>
					</defs>
					<clipPath id="SVGID_00000147900199797900231980000003145921896157098633_">
						<use xlink:href="#SVGID_00000152981238281164954400000009180601443284591268_"  style="overflow:visible;"/>
					</clipPath>
					<g style="clip-path:url(#SVGID_00000147900199797900231980000003145921896157098633_);">
						<g>
							<g>
								<defs>
									
										<rect id="SVGID_00000038372919752910992640000016776754170059322023_" x="313.1" y="271.7" transform="matrix(0.3158 -0.9488 0.9488 0.3158 -39.4103 623.7582)" width="199.5" height="135"/>
								</defs>
								<clipPath id="SVGID_00000169541395463065099690000011736780547343734197_">
									<use xlink:href="#SVGID_00000038372919752910992640000016776754170059322023_"  style="overflow:visible;"/>
								</clipPath>
								<g style="clip-path:url(#SVGID_00000169541395463065099690000011736780547343734197_);">
									<path class="st7" d="M452.9,309.1c-5,14.9-21.1,23-36.1,18s-23.1-21.1-18.1-36s21.1-23,36.1-18S457.9,294.2,452.9,309.1z
										 M415,332.9c18.1,6,37.7-3.8,43.7-21.8s-3.8-37.6-21.9-43.7c-18.1-6-37.7,3.8-43.7,21.8C387,307.2,396.9,326.8,415,332.9"
										/>
								</g>
							</g>
						</g>
					</g>
				</g>
			</g>
		</g>
	</g>
</g>
</svg>
