<?xml version="1.0" encoding="UTF-8"?><svg xmlns="http://www.w3.org/2000/svg" xmlns:xlink="http://www.w3.org/1999/xlink" width="1440" zoomAndPan="magnify" viewBox="0 0 1440 809.999993" height="809.999993" preserveAspectRatio="xMidYMid meet" version="1.0"><defs><clipPath id="clip-0"><path d="M 404.6875 108 L 1035.4375 108 L 1035.4375 739 L 404.6875 739 Z M 404.6875 108 " clip-rule="nonzero"/></clipPath><clipPath id="clip-1"><path d="M 913 296 L 913.5625 296 L 913.5625 319 L 913 319 Z M 913 296 " clip-rule="nonzero"/></clipPath><clipPath id="clip-2"><path d="M 615.8125 269.898438 L 913.5625 269.898438 L 913.5625 503.148438 L 615.8125 503.148438 Z M 615.8125 269.898438 " clip-rule="nonzero"/></clipPath></defs><path fill="rgb(100%, 51.759338%, 0%)" d="M 740.492188 225.777344 L 725.09375 225.777344 L 725.09375 175.175781 L 740.492188 175.175781 L 740.492188 225.777344 " fill-opacity="1" fill-rule="nonzero"/><path fill="rgb(100%, 51.759338%, 0%)" d="M 740.492188 643.777344 L 725.09375 643.777344 L 725.09375 593.175781 L 740.492188 593.175781 L 740.492188 643.777344 " fill-opacity="1" fill-rule="nonzero"/><path fill="rgb(100%, 51.759338%, 0%)" d="M 916.523438 417.179688 L 916.523438 401.773438 L 967.128906 401.773438 L 967.128906 417.179688 L 916.523438 417.179688 " fill-opacity="1" fill-rule="nonzero"/><path fill="rgb(100%, 51.759338%, 0%)" d="M 498.464844 417.179688 L 498.464844 401.773438 L 549.074219 401.773438 L 549.074219 417.179688 L 498.464844 417.179688 " fill-opacity="1" fill-rule="nonzero"/><path fill="rgb(100%, 51.759338%, 0%)" d="M 916.644531 507.882812 L 922.019531 496.871094 L 945.292969 508.242188 L 939.90625 519.253906 L 916.644531 507.882812 " fill-opacity="1" fill-rule="nonzero"/><path fill="rgb(100%, 51.759338%, 0%)" d="M 518.839844 313.5 L 523.886719 303.15625 L 546.621094 314.273438 L 541.574219 324.597656 L 518.839844 313.5 " fill-opacity="1" fill-rule="nonzero"/><path fill="rgb(100%, 51.759338%, 0%)" d="M 831.425781 594.175781 L 842.023438 588.027344 L 855.019531 610.410156 L 844.425781 616.570312 L 831.425781 594.175781 " fill-opacity="1" fill-rule="nonzero"/><path fill="rgb(100%, 51.759338%, 0%)" d="M 609.09375 211.320312 L 619.046875 205.542969 L 631.75 227.421875 L 621.796875 233.199219 L 609.09375 211.320312 " fill-opacity="1" fill-rule="nonzero"/><path fill="rgb(100%, 51.759338%, 0%)" d="M 633.019531 594.351562 L 643.972656 599.859375 L 632.351562 622.996094 L 621.40625 617.492188 L 633.019531 594.351562 " fill-opacity="1" fill-rule="nonzero"/><path fill="rgb(100%, 51.759338%, 0%)" d="M 831.773438 198.75 L 842.046875 203.910156 L 830.6875 226.515625 L 820.402344 221.351562 L 831.773438 198.75 " fill-opacity="1" fill-rule="nonzero"/><path fill="rgb(100%, 51.759338%, 0%)" d="M 544.773438 502.570312 L 550.492188 513.417969 L 527.574219 525.472656 L 521.859375 514.625 L 544.773438 502.570312 " fill-opacity="1" fill-rule="nonzero"/><path fill="rgb(100%, 51.759338%, 0%)" d="M 936.539062 296.273438 L 941.890625 306.441406 L 919.503906 318.230469 L 914.144531 308.0625 L 936.539062 296.273438 " fill-opacity="1" fill-rule="nonzero"/><path fill="rgb(100%, 51.759338%, 0%)" d="M 764.894531 417.179688 C 764.894531 434.910156 750.523438 449.28125 732.792969 449.28125 C 715.0625 449.28125 700.679688 434.910156 700.679688 417.179688 C 700.679688 399.445312 715.0625 385.074219 732.792969 385.074219 C 750.523438 385.074219 764.894531 399.445312 764.894531 417.179688 " fill-opacity="1" fill-rule="nonzero"/><path fill="rgb(100%, 51.759338%, 0%)" d="M 734.445312 427.765625 C 728.730469 427.765625 724.128906 422.679688 724.128906 416.40625 C 724.128906 410.144531 728.730469 405.054688 734.445312 405.054688 L 902.167969 405.054688 C 907.863281 405.054688 912.484375 410.144531 912.484375 416.40625 C 912.484375 422.679688 907.863281 427.765625 902.167969 427.765625 L 734.445312 427.765625 " fill-opacity="1" fill-rule="nonzero"/><path fill="rgb(100%, 51.759338%, 0%)" d="M 739.640625 412.441406 C 735.542969 416.398438 730.90625 418.234375 729.277344 416.554688 C 727.652344 414.875 729.660156 410.308594 733.75 406.339844 L 854.410156 289.863281 C 858.507812 285.886719 863.15625 284.050781 864.773438 285.722656 C 866.398438 287.402344 864.390625 291.976562 860.300781 295.933594 L 739.640625 412.441406 " fill-opacity="1" fill-rule="nonzero"/><path fill="rgb(100%, 51.759338%, 0%)" d="M 740.683594 408.550781 C 743.859375 411.726562 742.839844 417.886719 738.414062 422.320312 C 733.984375 426.757812 727.808594 427.777344 724.640625 424.609375 L 631.226562 331.191406 C 628.042969 328.023438 629.070312 321.867188 633.5 317.429688 C 637.9375 312.992188 644.09375 311.96875 647.269531 315.140625 L 740.683594 408.550781 " fill-opacity="1" fill-rule="nonzero"/><g clip-path="url(#clip-0)"><path fill="rgb(100%, 51.759338%, 0%)" d="M 757.753906 689.65625 C 592.242188 690.273438 455.835938 592.429688 453.71875 394.460938 C 452.144531 247.273438 594.714844 118.09375 739.5625 108.707031 C 733.113281 108.316406 726.617188 108.054688 720.066406 108.054688 C 545.898438 108.054688 404.710938 249.214844 404.710938 423.355469 C 404.710938 597.492188 545.898438 738.65625 720.066406 738.65625 C 894.222656 738.65625 1035.410156 597.492188 1035.410156 423.355469 C 1035.410156 416.804688 1035.148438 410.316406 1034.753906 403.855469 C 1025.367188 548.683594 904.976562 689.125 757.753906 689.65625 " fill-opacity="1" fill-rule="nonzero"/></g><path fill="rgb(100%, 51.759338%, 0%)" d="M 686.71875 71.589844 L 752.726562 112.464844 L 693.234375 153.308594 L 708.207031 110.613281 L 686.71875 71.589844 " fill-opacity="1" fill-rule="nonzero"/><g clip-path="url(#clip-1)"><path fill="rgb(0%, 24.308777%, 32.159424%)" d="M 935.988281 296.535156 L 941.339844 306.703125 L 918.957031 318.492188 L 913.597656 308.320312 L 935.988281 296.535156 " fill-opacity="1" fill-rule="nonzero"/></g><path fill="rgb(0%, 24.308777%, 32.159424%)" d="M 764.347656 417.441406 C 764.347656 435.167969 749.972656 449.539062 732.242188 449.539062 C 714.511719 449.539062 700.128906 435.167969 700.128906 417.441406 C 700.128906 399.703125 714.511719 385.332031 732.242188 385.332031 C 749.972656 385.332031 764.347656 399.703125 764.347656 417.441406 " fill-opacity="1" fill-rule="nonzero"/><path fill="rgb(0%, 24.308777%, 32.159424%)" d="M 733.894531 428.027344 C 728.179688 428.027344 723.578125 422.9375 723.578125 416.667969 C 723.578125 410.402344 728.179688 405.316406 733.894531 405.316406 L 901.617188 405.316406 C 907.316406 405.316406 911.933594 410.402344 911.933594 416.667969 C 911.933594 422.9375 907.316406 428.027344 901.617188 428.027344 L 733.894531 428.027344 " fill-opacity="1" fill-rule="nonzero"/><path fill="rgb(0%, 24.308777%, 32.159424%)" d="M 739.089844 412.699219 C 734.992188 416.660156 730.355469 418.492188 728.726562 416.816406 C 727.101562 415.136719 729.109375 410.570312 733.199219 406.601562 L 853.859375 290.125 C 857.960938 286.148438 862.605469 284.3125 864.222656 285.984375 C 865.851562 287.664062 863.839844 292.238281 859.75 296.195312 L 739.089844 412.699219 " fill-opacity="1" fill-rule="nonzero"/><path fill="rgb(0%, 24.308777%, 32.159424%)" d="M 740.132812 408.8125 C 743.308594 411.988281 742.292969 418.144531 737.863281 422.582031 C 733.433594 427.019531 727.257812 428.035156 724.089844 424.871094 L 630.675781 331.453125 C 627.492188 328.285156 628.519531 322.128906 632.949219 317.691406 C 637.386719 313.253906 643.546875 312.226562 646.722656 315.402344 L 740.132812 408.8125 " fill-opacity="1" fill-rule="nonzero"/><g clip-path="url(#clip-2)"><path fill="rgb(0%, 24.308777%, 32.159424%)" d="M 757.203125 689.917969 C 591.691406 690.535156 455.285156 592.691406 453.167969 394.71875 C 451.59375 247.535156 594.164062 118.355469 739.011719 108.96875 C 732.566406 108.578125 726.066406 108.316406 719.515625 108.316406 C 545.347656 108.316406 404.160156 249.472656 404.160156 423.617188 C 404.160156 597.753906 545.347656 738.917969 719.515625 738.917969 C 893.671875 738.917969 1034.859375 597.753906 1034.859375 423.617188 C 1034.859375 417.066406 1034.597656 410.578125 1034.207031 404.113281 C 1024.816406 548.941406 904.425781 689.386719 757.203125 689.917969 " fill-opacity="1" fill-rule="nonzero"/></g></svg>