<?xml version="1.0" encoding="UTF-8"?><svg xmlns="http://www.w3.org/2000/svg" xmlns:xlink="http://www.w3.org/1999/xlink" width="1440" zoomAndPan="magnify" viewBox="0 0 1440 809.999993" height="809.999993" preserveAspectRatio="xMidYMid meet" version="1.0"><defs><clipPath id="clip-0"><path d="M 383.832031 125 L 1055.832031 125 L 1055.832031 686 L 383.832031 686 Z M 383.832031 125 " clip-rule="nonzero"/></clipPath><clipPath id="clip-1"><path d="M 488.078125 216.300781 L 950.078125 216.300781 L 950.078125 479.550781 L 488.078125 479.550781 Z M 488.078125 216.300781 " clip-rule="nonzero"/></clipPath></defs><g clip-path="url(#clip-0)"><path fill="rgb(100%, 100%, 100%)" d="M 513.648438 418.679688 C 513.648438 401.671875 527.421875 387.890625 544.425781 387.890625 C 547.167969 387.890625 549.761719 388.359375 552.289062 389.03125 L 612.726562 328.578125 C 612.054688 326.050781 611.585938 323.441406 611.585938 320.699219 C 611.585938 303.6875 625.359375 289.90625 642.363281 289.90625 C 659.363281 289.90625 673.140625 303.6875 673.140625 320.699219 C 673.140625 323.441406 672.667969 326.035156 671.996094 328.5625 L 732.425781 389.03125 C 734.949219 388.359375 737.558594 387.890625 740.300781 387.890625 C 743.042969 387.890625 745.648438 388.359375 748.175781 389.03125 L 865.601562 271.539062 C 864.929688 269.011719 864.457031 266.402344 864.457031 263.671875 C 864.457031 246.664062 878.234375 232.878906 895.234375 232.878906 C 912.238281 232.878906 926.015625 246.664062 926.015625 263.671875 C 926.015625 280.683594 912.238281 294.464844 895.234375 294.464844 C 892.496094 294.464844 889.902344 293.992188 887.375 293.320312 L 769.933594 410.800781 C 770.605469 413.328125 771.078125 415.9375 771.078125 418.679688 C 771.078125 435.691406 757.300781 449.472656 740.300781 449.472656 C 723.296875 449.472656 709.523438 435.691406 709.523438 418.679688 C 709.523438 415.9375 709.992188 413.34375 710.664062 410.816406 L 650.226562 350.347656 C 647.699219 351.019531 645.089844 351.488281 642.363281 351.488281 C 639.632812 351.488281 637.027344 351.019531 634.5 350.347656 L 574.058594 410.816406 C 574.734375 413.34375 575.203125 415.953125 575.203125 418.679688 C 575.203125 435.691406 561.425781 449.472656 544.425781 449.472656 C 527.421875 449.472656 513.648438 435.691406 513.648438 418.679688 Z M 1055.832031 153.535156 L 1055.832031 528.820312 C 1055.832031 544.390625 1043.171875 557.042969 1027.621094 557.042969 L 809.609375 557.042969 L 809.609375 654.554688 L 848.074219 654.554688 C 856.570312 654.554688 863.464844 661.453125 863.464844 669.953125 C 863.464844 678.464844 856.570312 685.347656 848.074219 685.347656 L 591.585938 685.347656 C 583.09375 685.347656 576.199219 678.449219 576.199219 669.953125 C 576.199219 661.453125 583.09375 654.554688 591.585938 654.554688 L 630.066406 654.554688 L 630.066406 557.042969 L 412.042969 557.042969 C 396.492188 557.042969 383.832031 544.375 383.832031 528.820312 L 383.832031 153.535156 C 383.832031 137.976562 396.492188 125.308594 412.042969 125.308594 L 1027.621094 125.308594 C 1043.171875 125.308594 1055.832031 137.976562 1055.832031 153.535156 Z M 1025.054688 156.089844 L 414.609375 156.089844 L 414.609375 526.25 L 1025.054688 526.25 Z M 1025.054688 156.089844 " fill-opacity="1" fill-rule="nonzero"/></g><g clip-path="url(#clip-1)"><path fill="rgb(100%, 51.759338%, 0%)" d="M 513.820312 418.679688 C 513.820312 401.671875 527.59375 387.890625 544.597656 387.890625 C 547.339844 387.890625 549.933594 388.359375 552.460938 389.03125 L 612.898438 328.578125 C 612.226562 326.050781 611.757812 323.441406 611.757812 320.699219 C 611.757812 303.6875 625.53125 289.90625 642.535156 289.90625 C 659.535156 289.90625 673.3125 303.6875 673.3125 320.699219 C 673.3125 323.441406 672.839844 326.035156 672.167969 328.5625 L 732.59375 389.03125 C 735.121094 388.359375 737.730469 387.890625 740.472656 387.890625 C 743.214844 387.890625 745.820312 388.359375 748.347656 389.03125 L 865.773438 271.539062 C 865.101562 269.011719 864.628906 266.402344 864.628906 263.671875 C 864.628906 246.664062 878.40625 232.878906 895.40625 232.878906 C 912.410156 232.878906 926.183594 246.664062 926.183594 263.671875 C 926.183594 280.683594 912.410156 294.464844 895.40625 294.464844 C 892.664062 294.464844 890.070312 293.992188 887.546875 293.320312 L 770.105469 410.800781 C 770.777344 413.328125 771.25 415.9375 771.25 418.679688 C 771.25 435.691406 757.472656 449.472656 740.472656 449.472656 C 723.46875 449.472656 709.695312 435.691406 709.695312 418.679688 C 709.695312 415.9375 710.164062 413.34375 710.835938 410.816406 L 650.394531 350.347656 C 647.871094 351.019531 645.261719 351.488281 642.535156 351.488281 C 639.804688 351.488281 637.199219 351.019531 634.671875 350.347656 L 574.230469 410.816406 C 574.902344 413.34375 575.375 415.953125 575.375 418.679688 C 575.375 435.691406 561.597656 449.472656 544.597656 449.472656 C 527.59375 449.472656 513.820312 435.691406 513.820312 418.679688 Z M 1056.003906 153.535156 L 1056.003906 528.820312 C 1056.003906 544.390625 1043.339844 557.042969 1027.792969 557.042969 L 809.78125 557.042969 L 809.78125 654.554688 L 848.246094 654.554688 C 856.742188 654.554688 863.636719 661.453125 863.636719 669.953125 C 863.636719 678.464844 856.742188 685.347656 848.246094 685.347656 L 591.757812 685.347656 C 583.261719 685.347656 576.367188 678.449219 576.367188 669.953125 C 576.367188 661.453125 583.261719 654.554688 591.757812 654.554688 L 630.238281 654.554688 L 630.238281 557.042969 L 412.210938 557.042969 C 396.664062 557.042969 384.003906 544.375 384.003906 528.820312 L 384.003906 153.535156 C 384.003906 137.976562 396.664062 125.308594 412.210938 125.308594 L 1027.792969 125.308594 C 1043.339844 125.308594 1056.003906 137.976562 1056.003906 153.535156 Z M 1025.222656 156.089844 L 414.78125 156.089844 L 414.78125 526.25 L 1025.222656 526.25 Z M 1025.222656 156.089844 " fill-opacity="1" fill-rule="nonzero"/></g></svg>