<?xml version="1.0" encoding="utf-8"?>
<!-- Generator: Adobe Illustrator 25.4.1, SVG Export Plug-In . SVG Version: 6.00 Build 0)  -->
<svg version="1.1" id="Layer_1" xmlns="http://www.w3.org/2000/svg" xmlns:xlink="http://www.w3.org/1999/xlink" x="0px" y="0px"
	 viewBox="0 0 1000 700" style="enable-background:new 0 0 1000 700;" xml:space="preserve">
<style type="text/css">
	.st0{clip-path:url(#SVGID_00000084492856914958817090000006746772708786232765_);}
	.st1{fill:#FFFFFF;}
	.st2{clip-path:url(#SVGID_00000052105589199664783880000003938451756032197801_);}
	.st3{clip-path:url(#SVGID_00000057848790039732081760000005293293000993138826_);}
	.st4{clip-path:url(#SVGID_00000031892375336741336750000017314461129383977609_);}
	.st5{clip-path:url(#SVGID_00000142895410422940332680000004202221789672998847_);}
	.st6{clip-path:url(#SVGID_00000015338626882608162210000005308604173018151841_);}
	.st7{clip-path:url(#SVGID_00000178926899520913075260000015411510970654953884_);}
	.st8{fill:#FF8400;}
	.st9{clip-path:url(#SVGID_00000125566193037169222590000009055804761007702165_);}
	.st10{clip-path:url(#SVGID_00000035493447302025278200000011618933173721374595_);}
	.st11{clip-path:url(#SVGID_00000031902179681134432510000007982125707117905574_);}
	.st12{clip-path:url(#SVGID_00000120524935881196931010000010637919035359217037_);}
	.st13{clip-path:url(#SVGID_00000040562932892570222850000005747026475169923729_);}
	.st14{clip-path:url(#SVGID_00000111189515058318670910000004866763718007339683_);}
	.st15{clip-path:url(#SVGID_00000047752928043423498420000002049290003643750031_);}
	.st16{clip-path:url(#SVGID_00000156589251645190897490000009778110804415285393_);}
	.st17{clip-path:url(#SVGID_00000109004978960614328090000001133325607544681866_);}
	.st18{clip-path:url(#SVGID_00000077283845819117641480000000698837988614685588_);}
	.st19{clip-path:url(#SVGID_00000026122288322697999250000001497939260549452941_);}
	.st20{clip-path:url(#SVGID_00000081634464815356929830000010583107418874812080_);}
	.st21{clip-path:url(#SVGID_00000075881626614298278890000016723162453701677742_);}
	.st22{clip-path:url(#SVGID_00000147909508045469507260000000424242225128522943_);}
	.st23{clip-path:url(#SVGID_00000150784707451231676020000009909578750602814133_);}
</style>
<g>
	<g>
		<defs>
			<rect id="SVGID_1_" x="156.6" y="7" width="687" height="686"/>
		</defs>
		<clipPath id="SVGID_00000065040911265927440500000002182972358287707582_">
			<use xlink:href="#SVGID_1_"  style="overflow:visible;"/>
		</clipPath>
		<g style="clip-path:url(#SVGID_00000065040911265927440500000002182972358287707582_);">
			<path class="st1" d="M733.3,194.5l27.3,15.9c5.1,3,11.8,4.5,18.5,4.5s13.4-1.5,18.5-4.5l27.3-15.9c10.2-5.9,18.5-20.5,18.5-32.3
				V130c0-11.8-8.3-26.3-18.5-32.3l-27.3-15.9c-5.1-3-11.8-4.5-18.5-4.5s-13.4,1.5-18.5,4.5l-27.3,15.9c-10.2,6-18.5,20.5-18.5,32.3
				v32.2c0,3.5,0.8,7.2,2.1,10.9l-179.1,103c-2.4-2.8-5.1-5.1-7.9-6.8l-81.1-47.9c-1.7-1-3.7-1.8-5.7-2.5v-75.2
				c2.8-0.7,5.5-1.7,7.8-3.1l27.3-15.9c10.2-5.9,18.5-20.5,18.5-32.3V60.2c0-11.8-8.3-26.3-18.5-32.3L450.9,12
				c-5.1-3-11.8-4.5-18.5-4.5S419,9,413.9,12l-27.4,16C376.3,33.9,368,48.5,368,60.3v32.2c0,11.8,8.3,26.3,18.5,32.3l27.3,15.9
				c2.3,1.3,5,2.3,7.8,3.1v74.1c-3.6,0.7-6.9,1.9-9.8,3.6l-81.1,47.9c-10.2,6-18.5,20.6-18.5,32.4v96.6c0,2.2,0.4,4.6,0.9,7l-40,23
				c-2-2-4.1-3.8-6.3-5l-27.3-15.9c-5.1-3-11.8-4.5-18.5-4.5s-13.4,1.5-18.5,4.5l-27.3,15.9c-10.2,5.9-18.5,20.5-18.5,32.3v32.2
				c0,11.8,8.3,26.3,18.5,32.3l27.3,15.9c5.1,3,11.8,4.5,18.5,4.5s13.4-1.5,18.5-4.5l27.3-15.9c10.2-5.9,18.5-20.5,18.5-32.3v-32.2
				c0-2.8-0.5-5.8-1.4-8.7l39.1-22.5c2.3,2.6,4.9,4.8,7.5,6.4l81.1,47.9c2.8,1.7,6.2,2.8,9.8,3.6v74.1c-2.8,0.7-5.5,1.7-7.8,3.1
				l-27.3,15.9c-10.2,5.9-18.5,20.5-18.5,32.3V640c0,11.8,8.3,26.3,18.5,32.3l27.3,15.9c5.1,3,11.8,4.5,18.5,4.5s13.4-1.5,18.5-4.5
				l27.3-15.9c10.2-6,18.5-20.5,18.5-32.3v-32.2c0-11.8-8.3-26.3-18.5-32.3l-27.3-15.9c-2.3-1.4-5-2.3-7.8-3.1v-75.2
				c2-0.7,4-1.5,5.7-2.5l81.1-47.9c2.2-1.3,4.3-3.1,6.3-5.1L710,499.3c-0.5,2.2-0.8,4.4-0.8,6.5V538c0,11.8,8.3,26.3,18.5,32.3
				l27.3,15.9c5.1,3,11.8,4.5,18.5,4.5s13.4-1.5,18.5-4.5l27.3-15.9c10.2-5.9,18.5-20.5,18.5-32.3v-32.2c0-11.8-8.3-26.3-18.5-32.3
				L792,457.6c-5.1-3-11.8-4.5-18.5-4.5s-13.4,1.5-18.5,4.5l-27.3,15.9c-2.8,1.6-5.4,3.9-7.8,6.6L547.1,407c0.8-2.9,1.3-5.9,1.3-8.6
				v-96.6c0-2.1-0.3-4.3-0.8-6.4l181.2-104.2C730.2,192.4,731.7,193.6,733.3,194.5z M263.9,487.8c0,4.2-4.3,11.6-7.9,13.7
				l-27.3,15.9c-1,0.6-3.7,1.5-7.7,1.5s-6.7-1-7.7-1.5L186,501.5c-3.6-2.1-7.9-9.6-7.9-13.7v-32.2c0-4.2,4.3-11.6,7.9-13.7
				l27.3-15.9c1-0.6,3.7-1.5,7.7-1.5s6.7,1,7.7,1.5l27.3,15.9c3.6,2.1,7.9,9.6,7.9,13.7V487.8z M730.9,505.7
				c0-4.2,4.3-11.6,7.9-13.7l27.3-15.9c1-0.6,3.7-1.5,7.7-1.5s6.7,1,7.7,1.5l27.3,15.9c3.6,2.1,7.9,9.6,7.9,13.7v32.2
				c0,4.2-4.3,11.6-7.9,13.7l-27.3,15.9c-1,0.6-3.7,1.5-7.7,1.5s-6.7-1-7.7-1.5l-27.3-15.9c-3.6-2.1-7.9-9.6-7.9-13.7V505.7z
				 M397.3,106.2c-3.6-2.1-7.9-9.6-7.9-13.7V60.3c0-4.2,4.3-11.6,7.9-13.7l27.3-15.9c1-0.6,3.7-1.5,7.7-1.5s6.7,1,7.7,1.5l27.3,15.9
				c3.6,2.1,7.9,9.6,7.9,13.7v32.2c0,4.2-4.3,11.6-7.9,13.7L440,122.1c-1,0.6-3.7,1.5-7.7,1.5s-6.8-1-7.7-1.5L397.3,106.2z
				 M467.4,594c3.6,2.1,7.9,9.6,7.9,13.7v32.2c0,4.2-4.3,11.6-7.9,13.7l-27.4,16c-1,0.6-3.7,1.5-7.7,1.5s-6.7-1-7.7-1.5l-27.3-15.9
				c-3.6-2.1-7.9-9.6-7.9-13.7v-32.2c0-4.2,4.3-11.6,7.9-13.7l27.3-15.9c1-0.6,3.7-1.5,7.7-1.5s6.7,1,7.7,1.5L467.4,594z
				 M526.9,398.4c0,4.2-4.3,11.8-7.9,13.9l-81.1,47.9c-1,0.6-3.6,1.5-7.6,1.5c-3.9,0-6.6-1-7.6-1.5l-81.1-47.9
				c-3.6-2.1-7.9-9.7-7.9-13.9v-96.6c0-4.2,4.3-11.8,7.9-13.9l81.1-47.9c1-0.6,3.6-1.5,7.6-1.5c3.9,0,6.6,1,7.6,1.5l81.1,47.9
				c3.6,2.1,7.9,9.7,7.9,13.9V398.4z M736.2,130c0-4.2,4.3-11.6,7.9-13.7l27.3-15.9c1-0.6,3.7-1.5,7.7-1.5s6.7,1,7.7,1.5l27.3,15.9
				c3.6,2.1,7.9,9.6,7.9,13.7v32.2c0,4.2-4.3,11.6-7.9,13.7l-27.3,15.9c-1,0.6-3.7,1.5-7.7,1.5s-6.8-1-7.7-1.5L744.1,176
				c-3.6-2.1-7.9-9.6-7.9-13.7L736.2,130L736.2,130z"/>
		</g>
	</g>
</g>
<g>
	<g>
		<defs>
			<rect id="SVGID_00000031193399036134589360000007317999884807773830_" x="371" y="265" width="125" height="170"/>
		</defs>
		<clipPath id="SVGID_00000081623406348318616570000012435051049006107013_">
			<use xlink:href="#SVGID_00000031193399036134589360000007317999884807773830_"  style="overflow:visible;"/>
		</clipPath>
		<g style="clip-path:url(#SVGID_00000081623406348318616570000012435051049006107013_);">
			<g>
				<g>
					<defs>
						
							<rect id="SVGID_00000042732454268280981520000004173456530728135596_" x="353.9" y="306.5" transform="matrix(0.318 -0.9481 0.9481 0.318 -36.2682 649.6454)" width="159" height="87"/>
					</defs>
					<clipPath id="SVGID_00000143619094840352246530000010560313421607313537_">
						<use xlink:href="#SVGID_00000042732454268280981520000004173456530728135596_"  style="overflow:visible;"/>
					</clipPath>
					<g style="clip-path:url(#SVGID_00000143619094840352246530000010560313421607313537_);">
						<g>
							<g>
								<defs>
									
										<rect id="SVGID_00000173857464830622193470000000177451966994682787_" x="353.9" y="306.5" transform="matrix(0.318 -0.9481 0.9481 0.318 -36.2682 649.6454)" width="159" height="87"/>
								</defs>
								<clipPath id="SVGID_00000072982073775614111190000000840173076455122876_">
									<use xlink:href="#SVGID_00000173857464830622193470000000177451966994682787_"  style="overflow:visible;"/>
								</clipPath>
								<g style="clip-path:url(#SVGID_00000072982073775614111190000000840173076455122876_);">
									<path class="st1" d="M382.8,416.6l50.8,17c8.7,2.9,18.1-1.8,21-10.3l40-118.9c2.8-8.7-1.9-18.1-10.6-21l-50.7-17
										c-8.7-2.9-18.3,1.7-21.2,10.3l-39.9,118.9C369.4,404.3,374.2,413.7,382.8,416.6z M409.4,420.3c-3.9-1.3-6-5.5-4.7-9.4
										s5.5-6,9.4-4.7s6,5.5,4.7,9.4C417.5,419.6,413.3,421.6,409.4,420.3z M448.3,281.8l14.7,4.9c1.3,0.4,2,1.8,1.6,3.1
										c-0.4,1.3-1.8,2-3.1,1.6l-14.7-4.9c-1.3-0.4-2-1.8-1.6-3.1C445.6,282.1,447,281.4,448.3,281.8z M439.1,279.6
										c1.1-0.5,2.8-0.1,3.3,1.1c0.3,0.6,0.3,1.3,0.2,1.9c-0.2,0.6-0.6,1.1-1.3,1.4c-0.6,0.3-1.3,0.3-1.9,0.2
										c-0.6-0.2-1.1-0.6-1.4-1.3c-0.3-0.6-0.3-1.3-0.2-1.9C438.2,280.4,438.6,279.9,439.1,279.6z M418.1,286.1l66.9,22.4L450,413
										l-66.9-22.4L418.1,286.1z"/>
								</g>
							</g>
						</g>
					</g>
				</g>
			</g>
		</g>
	</g>
</g>
<g>
	<g>
		<defs>
			<rect id="SVGID_00000009576466199289159590000014610064162634742949_" x="429" y="346" width="9" height="9"/>
		</defs>
		<clipPath id="SVGID_00000065756012050063342070000017790205440833985710_">
			<use xlink:href="#SVGID_00000009576466199289159590000014610064162634742949_"  style="overflow:visible;"/>
		</clipPath>
		<g style="clip-path:url(#SVGID_00000065756012050063342070000017790205440833985710_);">
			<g>
				<g>
					<defs>
						
							<rect id="SVGID_00000166651319115183927280000001753168463569071524_" x="408.4" y="324.9" transform="matrix(0.3124 -0.95 0.95 0.3124 -34.3854 652.506)" width="50.3" height="50.3"/>
					</defs>
					<clipPath id="SVGID_00000074430328098335531720000014362730534257018504_">
						<use xlink:href="#SVGID_00000166651319115183927280000001753168463569071524_"  style="overflow:visible;"/>
					</clipPath>
					<g style="clip-path:url(#SVGID_00000074430328098335531720000014362730534257018504_);">
						<g>
							<g>
								<defs>
									
										<rect id="SVGID_00000008838820523597933470000004126285667159346333_" x="408.4" y="324.9" transform="matrix(0.3124 -0.95 0.95 0.3124 -34.3854 652.506)" width="50.3" height="50.3"/>
								</defs>
								<clipPath id="SVGID_00000044166948395848136360000004899113239289232024_">
									<use xlink:href="#SVGID_00000008838820523597933470000004126285667159346333_"  style="overflow:visible;"/>
								</clipPath>
								<g style="clip-path:url(#SVGID_00000044166948395848136360000004899113239289232024_);">
									<path class="st8" d="M437.1,351.4c-0.2,0.5-0.4,0.9-0.7,1.3c-0.3,0.4-0.7,0.7-1.2,0.9c-0.5,0.2-0.9,0.4-1.5,0.4
										s-1,0-1.5-0.2s-0.9-0.4-1.3-0.7c-0.4-0.3-0.7-0.7-0.9-1.2c-0.2-0.5-0.4-0.9-0.4-1.5c0-0.5,0-1,0.2-1.5s0.4-0.9,0.7-1.3
										s0.7-0.7,1.2-0.9s0.9-0.4,1.5-0.4c0.5,0,1,0,1.5,0.2s0.9,0.4,1.3,0.7c0.4,0.3,0.7,0.7,0.9,1.2c0.2,0.5,0.4,0.9,0.4,1.5
										S437.3,351,437.1,351.4z"/>
								</g>
							</g>
						</g>
					</g>
				</g>
			</g>
		</g>
	</g>
</g>
<g>
	<g>
		<defs>
			<rect id="SVGID_00000157287447520191538930000003220599879375745704_" x="423" y="340" width="21" height="20"/>
		</defs>
		<clipPath id="SVGID_00000158029455117080961430000007959981906258300804_">
			<use xlink:href="#SVGID_00000157287447520191538930000003220599879375745704_"  style="overflow:visible;"/>
		</clipPath>
		<g style="clip-path:url(#SVGID_00000158029455117080961430000007959981906258300804_);">
			<g>
				<g>
					<defs>
						
							<rect id="SVGID_00000182517391364399406020000012173608318242727819_" x="408.4" y="324.9" transform="matrix(0.3124 -0.95 0.95 0.3124 -34.3854 652.506)" width="50.3" height="50.3"/>
					</defs>
					<clipPath id="SVGID_00000102544991912020385530000007394492365832927370_">
						<use xlink:href="#SVGID_00000182517391364399406020000012173608318242727819_"  style="overflow:visible;"/>
					</clipPath>
					<g style="clip-path:url(#SVGID_00000102544991912020385530000007394492365832927370_);">
						<g>
							<g>
								<defs>
									
										<rect id="SVGID_00000070108014989329038120000012555717428268425649_" x="408.4" y="324.9" transform="matrix(0.3124 -0.95 0.95 0.3124 -34.3854 652.506)" width="50.3" height="50.3"/>
								</defs>
								<clipPath id="SVGID_00000103253362569376033440000003865253134473020078_">
									<use xlink:href="#SVGID_00000070108014989329038120000012555717428268425649_"  style="overflow:visible;"/>
								</clipPath>
								<g style="clip-path:url(#SVGID_00000103253362569376033440000003865253134473020078_);">
									<path class="st8" d="M442.6,353.3c1.7-5.1-1-10.5-6.2-12.2c-5.1-1.7-10.5,1-12.2,6.2c-1.2,3.7-0.1,7.7,2.7,10.3l0.7-2
										c-1.8-2-2.5-4.9-1.6-7.4c1.3-4,5.7-6.3,9.8-4.9s6.3,5.7,4.9,9.8c-0.9,2.8-3.1,4.5-5.7,5l-0.7,2
										C438.1,359.5,441.4,356.9,442.6,353.3z"/>
								</g>
							</g>
						</g>
					</g>
				</g>
			</g>
		</g>
	</g>
</g>
<g>
	<g>
		<defs>
			<rect id="SVGID_00000164503862374656208970000015564595235106899374_" x="419" y="336" width="28" height="28"/>
		</defs>
		<clipPath id="SVGID_00000174571718424080778250000012360601058439203519_">
			<use xlink:href="#SVGID_00000164503862374656208970000015564595235106899374_"  style="overflow:visible;"/>
		</clipPath>
		<g style="clip-path:url(#SVGID_00000174571718424080778250000012360601058439203519_);">
			<g>
				<g>
					<defs>
						
							<rect id="SVGID_00000008130500575321650760000003981021539278025150_" x="408.4" y="324.9" transform="matrix(0.3124 -0.95 0.95 0.3124 -34.3854 652.506)" width="50.3" height="50.3"/>
					</defs>
					<clipPath id="SVGID_00000016058409678610176240000006566262733297584820_">
						<use xlink:href="#SVGID_00000008130500575321650760000003981021539278025150_"  style="overflow:visible;"/>
					</clipPath>
					<g style="clip-path:url(#SVGID_00000016058409678610176240000006566262733297584820_);">
						<g>
							<g>
								<defs>
									
										<rect id="SVGID_00000062878473245552218540000015061861291626238372_" x="408.4" y="324.9" transform="matrix(0.3124 -0.95 0.95 0.3124 -34.3854 652.506)" width="50.3" height="50.3"/>
								</defs>
								<clipPath id="SVGID_00000047045069334234795810000001955162304076743575_">
									<use xlink:href="#SVGID_00000062878473245552218540000015061861291626238372_"  style="overflow:visible;"/>
								</clipPath>
								<g style="clip-path:url(#SVGID_00000047045069334234795810000001955162304076743575_);">
									<path class="st8" d="M446.3,354.5c2.4-7.2-1.5-14.7-8.6-17.1s-14.7,1.5-17.1,8.6c-1.9,5.9,0.4,11.9,5.1,15.3l0.7-2
										c-3.7-2.9-5.5-7.9-4-12.7c2-6.1,8.6-9.4,14.6-7.4s9.4,8.6,7.4,14.6c-1.6,4.8-6,7.8-10.7,7.9l-0.7,2
										C438.9,363.8,444.4,360.3,446.3,354.5z"/>
								</g>
							</g>
						</g>
					</g>
				</g>
			</g>
		</g>
	</g>
</g>
<g>
	<g>
		<defs>
			<rect id="SVGID_00000002356920502647823830000006926395904836839059_" x="408" y="325" width="51" height="51"/>
		</defs>
		<clipPath id="SVGID_00000072976165136185135650000013853652016155863177_">
			<use xlink:href="#SVGID_00000002356920502647823830000006926395904836839059_"  style="overflow:visible;"/>
		</clipPath>
		<g style="clip-path:url(#SVGID_00000072976165136185135650000013853652016155863177_);">
			<g>
				<g>
					<defs>
						
							<rect id="SVGID_00000002366672053437243030000016126489360425134752_" x="408.4" y="324.9" transform="matrix(0.3124 -0.95 0.95 0.3124 -34.3854 652.506)" width="50.3" height="50.3"/>
					</defs>
					<clipPath id="SVGID_00000045607503765442761280000000014284058234199996_">
						<use xlink:href="#SVGID_00000002366672053437243030000016126489360425134752_"  style="overflow:visible;"/>
					</clipPath>
					<g style="clip-path:url(#SVGID_00000045607503765442761280000000014284058234199996_);">
						<g>
							<g>
								<defs>
									
										<rect id="SVGID_00000160171014407576636870000011195176064156058273_" x="408.4" y="324.9" transform="matrix(0.3124 -0.95 0.95 0.3124 -34.3854 652.506)" width="50.3" height="50.3"/>
								</defs>
								<clipPath id="SVGID_00000160157622347979852390000001443877065321290634_">
									<use xlink:href="#SVGID_00000160171014407576636870000011195176064156058273_"  style="overflow:visible;"/>
								</clipPath>
								<g style="clip-path:url(#SVGID_00000160157622347979852390000001443877065321290634_);">
									<path class="st8" d="M441.3,326.4c-13.2-4.3-27.4,2.8-31.7,16c-3.9,11.9,1.6,24.7,12.5,30.1l0.6-1.8
										c-9.9-5.1-14.8-16.9-11.2-27.7c4-12.1,17.2-18.8,29.3-14.8s18.8,17.2,14.8,29.3c-3.6,10.8-14.5,17.4-25.5,15.6l-0.6,1.8
										c12,1.9,24-4.9,27.9-16.9C461.6,344.9,454.5,330.7,441.3,326.4z"/>
								</g>
							</g>
						</g>
					</g>
				</g>
			</g>
		</g>
	</g>
</g>
<g>
	<g>
		<defs>
			<rect id="SVGID_00000157986594282898897050000004089121269681991090_" x="412" y="328" width="43" height="44"/>
		</defs>
		<clipPath id="SVGID_00000046316278977522535690000016185743328296776332_">
			<use xlink:href="#SVGID_00000157986594282898897050000004089121269681991090_"  style="overflow:visible;"/>
		</clipPath>
		<g style="clip-path:url(#SVGID_00000046316278977522535690000016185743328296776332_);">
			<g>
				<g>
					<defs>
						
							<rect id="SVGID_00000024683619388933680940000017802615259755837882_" x="408.4" y="324.9" transform="matrix(0.3124 -0.95 0.95 0.3124 -34.3854 652.506)" width="50.3" height="50.3"/>
					</defs>
					<clipPath id="SVGID_00000078737658104598497280000005225938998913809593_">
						<use xlink:href="#SVGID_00000024683619388933680940000017802615259755837882_"  style="overflow:visible;"/>
					</clipPath>
					<g style="clip-path:url(#SVGID_00000078737658104598497280000005225938998913809593_);">
						<g>
							<g>
								<defs>
									
										<rect id="SVGID_00000179637640148483880420000009489577378141946516_" x="408.4" y="324.9" transform="matrix(0.3124 -0.95 0.95 0.3124 -34.3854 652.506)" width="50.3" height="50.3"/>
								</defs>
								<clipPath id="SVGID_00000110461103574414085390000012188938319242941584_">
									<use xlink:href="#SVGID_00000179637640148483880420000009489577378141946516_"  style="overflow:visible;"/>
								</clipPath>
								<g style="clip-path:url(#SVGID_00000110461103574414085390000012188938319242941584_);">
									<path class="st8" d="M453.6,356.9c3.7-11.2-2.4-23.2-13.6-26.8s-23.2,2.4-26.8,13.6c-3.3,9.9,1.2,20.5,10,25.3l0.6-1.8
										c-7.9-4.4-11.7-14-8.8-22.8c3.3-10.1,14.3-15.6,24.4-12.3s15.6,14.3,12.3,24.4c-2.9,8.8-11.6,14.3-20.6,13.2l-0.6,1.8
										C440.5,372.7,450.4,366.8,453.6,356.9z"/>
								</g>
							</g>
						</g>
					</g>
				</g>
			</g>
		</g>
	</g>
</g>
<g>
	<g>
		<defs>
			<rect id="SVGID_00000150798192542821691860000004963515385639438210_" x="416" y="332" width="35" height="36"/>
		</defs>
		<clipPath id="SVGID_00000088093701619876773090000015382762373818575033_">
			<use xlink:href="#SVGID_00000150798192542821691860000004963515385639438210_"  style="overflow:visible;"/>
		</clipPath>
		<g style="clip-path:url(#SVGID_00000088093701619876773090000015382762373818575033_);">
			<g>
				<g>
					<defs>
						
							<rect id="SVGID_00000095338342166223948380000000501062624322531719_" x="408.4" y="324.9" transform="matrix(0.3124 -0.95 0.95 0.3124 -34.3854 652.506)" width="50.3" height="50.3"/>
					</defs>
					<clipPath id="SVGID_00000109716934169754534290000002889803022630738321_">
						<use xlink:href="#SVGID_00000095338342166223948380000000501062624322531719_"  style="overflow:visible;"/>
					</clipPath>
					<g style="clip-path:url(#SVGID_00000109716934169754534290000002889803022630738321_);">
						<g>
							<g>
								<defs>
									
										<rect id="SVGID_00000134971794961621358230000013131300001037366964_" x="408.4" y="324.9" transform="matrix(0.3124 -0.95 0.95 0.3124 -34.3854 652.506)" width="50.3" height="50.3"/>
								</defs>
								<clipPath id="SVGID_00000003793849656005288530000007268749898675915392_">
									<use xlink:href="#SVGID_00000134971794961621358230000013131300001037366964_"  style="overflow:visible;"/>
								</clipPath>
								<g style="clip-path:url(#SVGID_00000003793849656005288530000007268749898675915392_);">
									<path class="st8" d="M450,355.7c3-9.2-1.9-18.9-11.1-22s-18.9,1.9-22,11.1c-2.6,7.9,0.7,16.3,7.5,20.4l0.6-1.8
										c-5.7-3.7-8.6-11-6.4-17.8c2.7-8.1,11.4-12.5,19.5-9.9s12.5,11.4,9.9,19.5c-2.2,6.8-8.9,10.9-15.7,10.5l-0.6,1.8
										C439.7,368.4,447.4,363.6,450,355.7z"/>
								</g>
							</g>
						</g>
					</g>
				</g>
			</g>
		</g>
	</g>
</g>
</svg>
