<?xml version="1.0" encoding="UTF-8"?><svg xmlns="http://www.w3.org/2000/svg" xmlns:xlink="http://www.w3.org/1999/xlink" width="1440" zoomAndPan="magnify" viewBox="0 0 1440 809.999993" height="809.999993" preserveAspectRatio="xMidYMid meet" version="1.0"><defs><clipPath id="clip-0"><path d="M 379 92 L 1061 92 L 1061 718.03125 L 379 718.03125 Z M 379 92 " clip-rule="nonzero"/></clipPath><clipPath id="clip-1"><path d="M 492.714844 324.269531 L 939.714844 324.269531 L 939.714844 569.519531 L 492.714844 569.519531 Z M 492.714844 324.269531 " clip-rule="nonzero"/></clipPath></defs><g clip-path="url(#clip-0)"><path fill="rgb(0%, 24.308777%, 32.159424%)" d="M 719.96875 92.121094 C 711.859375 92.121094 703.703125 94.960938 697.058594 100.644531 L 400.285156 354.984375 C 387.273438 366.117188 379.804688 382.378906 379.804688 399.511719 L 379.804688 682.851562 C 379.804688 702.230469 395.613281 718.03125 414.992188 718.03125 L 1024.945312 718.03125 C 1044.324219 718.03125 1060.132812 702.230469 1060.132812 682.851562 L 1060.132812 399.511719 C 1060.132812 382.378906 1052.664062 366.117188 1039.652344 354.984375 L 742.878906 100.644531 C 736.234375 94.960938 728.078125 92.121094 719.96875 92.121094 Z M 719.96875 115.625 C 722.671875 115.625 725.375 116.585938 727.621094 118.464844 L 1024.394531 372.804688 C 1032.183594 379.492188 1036.671875 389.203125 1036.671875 399.511719 L 1036.671875 682.851562 C 1036.671875 689.308594 1031.402344 694.578125 1024.945312 694.578125 L 414.992188 694.578125 C 408.53125 694.578125 403.261719 689.308594 403.261719 682.851562 L 403.261719 399.511719 C 403.261719 389.203125 407.753906 379.492188 415.542969 372.804688 L 712.316406 118.464844 C 714.5625 116.585938 717.265625 115.625 719.96875 115.625 Z M 626.128906 342.753906 C 593.734375 342.753906 567.480469 369 567.480469 401.390625 L 567.480469 424.84375 C 567.480469 436.433594 570.871094 447.246094 576.644531 456.363281 C 544.480469 470.335938 519.277344 501.441406 512.128906 539.417969 C 510.9375 545.738281 515.15625 551.832031 521.476562 553.023438 C 527.847656 554.304688 534.03125 550.089844 535.222656 543.632812 C 541.546875 509.871094 565.695312 482.886719 595.15625 474.550781 C 604.183594 480.183594 614.765625 483.484375 626.128906 483.484375 C 637.492188 483.484375 648.078125 480.183594 657.105469 474.550781 C 686.566406 482.886719 710.710938 509.871094 717.035156 543.632812 C 718.089844 549.402344 723.039062 553.253906 728.535156 553.253906 C 729.222656 553.253906 730.046875 553.253906 730.78125 553.023438 C 737.105469 551.832031 741.320312 545.738281 740.128906 539.417969 C 738.617188 531.21875 736.140625 523.339844 732.84375 515.871094 C 744.113281 495.210938 762.304688 480.320312 782.695312 474.550781 C 791.765625 480.183594 802.445312 483.484375 813.808594 483.484375 C 825.171875 483.484375 835.753906 480.183594 844.78125 474.550781 C 874.242188 482.886719 898.390625 509.871094 904.710938 543.632812 C 905.765625 549.402344 910.714844 553.253906 916.214844 553.253906 C 916.902344 553.253906 917.726562 553.253906 918.457031 553.023438 C 924.78125 551.832031 928.996094 545.738281 927.804688 539.417969 C 920.65625 501.441406 895.457031 470.335938 863.292969 456.363281 C 869.066406 447.246094 872.457031 436.433594 872.457031 424.84375 L 872.457031 401.390625 C 872.457031 369 846.203125 342.753906 813.808594 342.753906 C 781.414062 342.753906 755.15625 369 755.15625 401.390625 L 755.15625 424.84375 C 755.15625 436.433594 758.546875 447.246094 764.320312 456.363281 C 747.046875 463.785156 731.5625 476.335938 719.832031 492.507812 C 708.375 476.566406 692.980469 463.875 675.613281 456.363281 C 681.386719 447.246094 684.777344 436.433594 684.777344 424.84375 L 684.777344 401.390625 C 684.777344 369 658.523438 342.753906 626.128906 342.753906 Z M 626.128906 366.207031 C 645.464844 366.207031 661.320312 382.058594 661.320312 401.390625 L 661.320312 424.84375 C 661.320312 434.328125 657.46875 443.03125 651.238281 449.355469 C 644.914062 455.90625 635.980469 460.027344 626.128906 460.027344 C 616.277344 460.027344 607.34375 455.90625 601.019531 449.355469 C 594.789062 443.03125 590.941406 434.328125 590.941406 424.84375 L 590.941406 401.390625 C 590.941406 382.058594 606.792969 366.207031 626.128906 366.207031 Z M 813.808594 366.207031 C 833.144531 366.207031 848.996094 382.058594 848.996094 401.390625 L 848.996094 424.84375 C 848.996094 434.328125 845.148438 443.03125 838.914062 449.355469 C 832.59375 455.90625 823.65625 460.027344 813.808594 460.027344 C 803.957031 460.027344 795.019531 455.90625 788.558594 449.355469 C 782.464844 443.03125 778.617188 434.328125 778.617188 424.84375 L 778.617188 401.390625 C 778.617188 382.058594 794.472656 366.207031 813.808594 366.207031 Z M 426.722656 624.214844 C 420.214844 624.214844 414.992188 629.480469 414.992188 635.941406 L 414.992188 659.394531 C 414.992188 665.855469 420.214844 671.125 426.722656 671.125 C 433.230469 671.125 438.453125 665.855469 438.453125 659.394531 L 438.453125 635.941406 C 438.453125 629.480469 433.230469 624.214844 426.722656 624.214844 Z M 485.371094 624.214844 C 478.867188 624.214844 473.640625 629.480469 473.640625 635.941406 L 473.640625 659.394531 C 473.640625 665.855469 478.867188 671.125 485.371094 671.125 C 491.878906 671.125 497.101562 665.855469 497.101562 659.394531 L 497.101562 635.941406 C 497.101562 629.480469 491.878906 624.214844 485.371094 624.214844 Z M 544.019531 624.214844 C 537.515625 624.214844 532.292969 629.480469 532.292969 635.941406 L 532.292969 659.394531 C 532.292969 665.855469 537.515625 671.125 544.019531 671.125 C 550.527344 671.125 555.75 665.855469 555.75 659.394531 L 555.75 635.941406 C 555.75 629.480469 550.527344 624.214844 544.019531 624.214844 Z M 602.671875 624.214844 C 596.164062 624.214844 590.941406 629.480469 590.941406 635.941406 L 590.941406 659.394531 C 590.941406 665.855469 596.164062 671.125 602.671875 671.125 C 609.175781 671.125 614.398438 665.855469 614.398438 659.394531 L 614.398438 635.941406 C 614.398438 629.480469 609.175781 624.214844 602.671875 624.214844 Z M 661.320312 624.214844 C 654.8125 624.214844 649.589844 629.480469 649.589844 635.941406 L 649.589844 659.394531 C 649.589844 665.855469 654.8125 671.125 661.320312 671.125 C 667.824219 671.125 673.050781 665.855469 673.050781 659.394531 L 673.050781 635.941406 C 673.050781 629.480469 667.824219 624.214844 661.320312 624.214844 Z M 719.96875 624.214844 C 713.460938 624.214844 708.238281 629.480469 708.238281 635.941406 L 708.238281 659.394531 C 708.238281 665.855469 713.460938 671.125 719.96875 671.125 C 726.476562 671.125 731.699219 665.855469 731.699219 659.394531 L 731.699219 635.941406 C 731.699219 629.480469 726.476562 624.214844 719.96875 624.214844 Z M 778.617188 624.214844 C 772.109375 624.214844 766.886719 629.480469 766.886719 635.941406 L 766.886719 659.394531 C 766.886719 665.855469 772.109375 671.125 778.617188 671.125 C 785.125 671.125 790.347656 665.855469 790.347656 659.394531 L 790.347656 635.941406 C 790.347656 629.480469 785.125 624.214844 778.617188 624.214844 Z M 837.265625 624.214844 C 830.761719 624.214844 825.535156 629.480469 825.535156 635.941406 L 825.535156 659.394531 C 825.535156 665.855469 830.761719 671.125 837.265625 671.125 C 843.773438 671.125 848.996094 665.855469 848.996094 659.394531 L 848.996094 635.941406 C 848.996094 629.480469 843.773438 624.214844 837.265625 624.214844 Z M 895.914062 624.214844 C 889.410156 624.214844 884.1875 629.480469 884.1875 635.941406 L 884.1875 659.394531 C 884.1875 665.855469 889.410156 671.125 895.914062 671.125 C 902.421875 671.125 907.644531 665.855469 907.644531 659.394531 L 907.644531 635.941406 C 907.644531 629.480469 902.421875 624.214844 895.914062 624.214844 Z M 954.566406 624.214844 C 948.058594 624.214844 942.835938 629.480469 942.835938 635.941406 L 942.835938 659.394531 C 942.835938 665.855469 948.058594 671.125 954.566406 671.125 C 961.070312 671.125 966.292969 665.855469 966.292969 659.394531 L 966.292969 635.941406 C 966.292969 629.480469 961.070312 624.214844 954.566406 624.214844 Z M 1013.214844 624.214844 C 1006.707031 624.214844 1001.484375 629.480469 1001.484375 635.941406 L 1001.484375 659.394531 C 1001.484375 665.855469 1006.707031 671.125 1013.214844 671.125 C 1019.71875 671.125 1024.945312 665.855469 1024.945312 659.394531 L 1024.945312 635.941406 C 1024.945312 629.480469 1019.71875 624.214844 1013.214844 624.214844 Z M 1013.214844 624.214844 " fill-opacity="1" fill-rule="nonzero"/></g><g clip-path="url(#clip-1)"><path fill="rgb(100%, 51.759338%, 0%)" d="M 719.289062 92.121094 C 711.179688 92.121094 703.023438 94.960938 696.382812 100.644531 L 399.609375 354.984375 C 386.59375 366.117188 379.125 382.378906 379.125 399.511719 L 379.125 682.851562 C 379.125 702.230469 394.933594 718.03125 414.316406 718.03125 L 1024.265625 718.03125 C 1043.648438 718.03125 1059.457031 702.230469 1059.457031 682.851562 L 1059.457031 399.511719 C 1059.457031 382.378906 1051.988281 366.117188 1038.972656 354.984375 L 742.199219 100.644531 C 735.558594 94.960938 727.402344 92.121094 719.289062 92.121094 Z M 719.289062 115.625 C 721.996094 115.625 724.699219 116.585938 726.941406 118.464844 L 1023.714844 372.804688 C 1031.503906 379.492188 1035.996094 389.203125 1035.996094 399.511719 L 1035.996094 682.851562 C 1035.996094 689.308594 1030.726562 694.578125 1024.265625 694.578125 L 414.316406 694.578125 C 407.855469 694.578125 402.585938 689.308594 402.585938 682.851562 L 402.585938 399.511719 C 402.585938 389.203125 407.078125 379.492188 414.867188 372.804688 L 711.640625 118.464844 C 713.882812 116.585938 716.585938 115.625 719.289062 115.625 Z M 625.453125 342.753906 C 593.058594 342.753906 566.804688 369 566.804688 401.390625 L 566.804688 424.84375 C 566.804688 436.433594 570.195312 447.246094 575.96875 456.363281 C 543.800781 470.335938 518.601562 501.441406 511.453125 539.417969 C 510.261719 545.738281 514.476562 551.832031 520.800781 553.023438 C 527.167969 554.304688 533.355469 550.089844 534.546875 543.632812 C 540.871094 509.871094 565.015625 482.886719 594.476562 474.550781 C 603.503906 480.183594 614.089844 483.484375 625.453125 483.484375 C 636.816406 483.484375 647.398438 480.183594 656.425781 474.550781 C 685.886719 482.886719 710.035156 509.871094 716.359375 543.632812 C 717.414062 549.402344 722.359375 553.253906 727.859375 553.253906 C 728.546875 553.253906 729.371094 553.253906 730.105469 553.023438 C 736.425781 551.832031 740.644531 545.738281 739.453125 539.417969 C 737.941406 531.21875 735.464844 523.339844 732.167969 515.871094 C 743.4375 495.210938 761.628906 480.320312 782.019531 474.550781 C 791.089844 480.183594 801.765625 483.484375 813.128906 483.484375 C 824.492188 483.484375 835.078125 480.183594 844.101562 474.550781 C 873.566406 482.886719 897.710938 509.871094 904.035156 543.632812 C 905.089844 549.402344 910.039062 553.253906 915.535156 553.253906 C 916.222656 553.253906 917.046875 553.253906 917.78125 553.023438 C 924.105469 551.832031 928.320312 545.738281 927.128906 539.417969 C 919.980469 501.441406 894.78125 470.335938 862.613281 456.363281 C 868.386719 447.246094 871.777344 436.433594 871.777344 424.84375 L 871.777344 401.390625 C 871.777344 369 845.523438 342.753906 813.128906 342.753906 C 780.734375 342.753906 754.480469 369 754.480469 401.390625 L 754.480469 424.84375 C 754.480469 436.433594 757.871094 447.246094 763.644531 456.363281 C 746.371094 463.785156 730.882812 476.335938 719.152344 492.507812 C 707.699219 476.566406 692.304688 463.875 674.9375 456.363281 C 680.710938 447.246094 684.101562 436.433594 684.101562 424.84375 L 684.101562 401.390625 C 684.101562 369 657.847656 342.753906 625.453125 342.753906 Z M 625.453125 366.207031 C 644.789062 366.207031 660.640625 382.058594 660.640625 401.390625 L 660.640625 424.84375 C 660.640625 434.328125 656.792969 443.03125 650.5625 449.355469 C 644.238281 455.90625 635.304688 460.027344 625.453125 460.027344 C 615.601562 460.027344 606.667969 455.90625 600.34375 449.355469 C 594.113281 443.03125 590.261719 434.328125 590.261719 424.84375 L 590.261719 401.390625 C 590.261719 382.058594 606.117188 366.207031 625.453125 366.207031 Z M 813.128906 366.207031 C 832.464844 366.207031 848.320312 382.058594 848.320312 401.390625 L 848.320312 424.84375 C 848.320312 434.328125 844.46875 443.03125 838.238281 449.355469 C 831.914062 455.90625 822.980469 460.027344 813.128906 460.027344 C 803.277344 460.027344 794.34375 455.90625 787.882812 449.355469 C 781.789062 443.03125 777.941406 434.328125 777.941406 424.84375 L 777.941406 401.390625 C 777.941406 382.058594 793.792969 366.207031 813.128906 366.207031 Z M 426.046875 624.214844 C 419.539062 624.214844 414.316406 629.480469 414.316406 635.941406 L 414.316406 659.394531 C 414.316406 665.855469 419.539062 671.125 426.046875 671.125 C 432.550781 671.125 437.773438 665.855469 437.773438 659.394531 L 437.773438 635.941406 C 437.773438 629.480469 432.550781 624.214844 426.046875 624.214844 Z M 484.695312 624.214844 C 478.1875 624.214844 472.964844 629.480469 472.964844 635.941406 L 472.964844 659.394531 C 472.964844 665.855469 478.1875 671.125 484.695312 671.125 C 491.199219 671.125 496.425781 665.855469 496.425781 659.394531 L 496.425781 635.941406 C 496.425781 629.480469 491.199219 624.214844 484.695312 624.214844 Z M 543.34375 624.214844 C 536.835938 624.214844 531.613281 629.480469 531.613281 635.941406 L 531.613281 659.394531 C 531.613281 665.855469 536.835938 671.125 543.34375 671.125 C 549.851562 671.125 555.074219 665.855469 555.074219 659.394531 L 555.074219 635.941406 C 555.074219 629.480469 549.851562 624.214844 543.34375 624.214844 Z M 601.992188 624.214844 C 595.488281 624.214844 590.261719 629.480469 590.261719 635.941406 L 590.261719 659.394531 C 590.261719 665.855469 595.488281 671.125 601.992188 671.125 C 608.5 671.125 613.722656 665.855469 613.722656 659.394531 L 613.722656 635.941406 C 613.722656 629.480469 608.5 624.214844 601.992188 624.214844 Z M 660.640625 624.214844 C 654.136719 624.214844 648.910156 629.480469 648.910156 635.941406 L 648.910156 659.394531 C 648.910156 665.855469 654.136719 671.125 660.640625 671.125 C 667.148438 671.125 672.371094 665.855469 672.371094 659.394531 L 672.371094 635.941406 C 672.371094 629.480469 667.148438 624.214844 660.640625 624.214844 Z M 719.289062 624.214844 C 712.785156 624.214844 707.5625 629.480469 707.5625 635.941406 L 707.5625 659.394531 C 707.5625 665.855469 712.785156 671.125 719.289062 671.125 C 725.796875 671.125 731.019531 665.855469 731.019531 659.394531 L 731.019531 635.941406 C 731.019531 629.480469 725.796875 624.214844 719.289062 624.214844 Z M 777.941406 624.214844 C 771.433594 624.214844 766.210938 629.480469 766.210938 635.941406 L 766.210938 659.394531 C 766.210938 665.855469 771.433594 671.125 777.941406 671.125 C 784.445312 671.125 789.667969 665.855469 789.667969 659.394531 L 789.667969 635.941406 C 789.667969 629.480469 784.445312 624.214844 777.941406 624.214844 Z M 836.589844 624.214844 C 830.082031 624.214844 824.859375 629.480469 824.859375 635.941406 L 824.859375 659.394531 C 824.859375 665.855469 830.082031 671.125 836.589844 671.125 C 843.09375 671.125 848.320312 665.855469 848.320312 659.394531 L 848.320312 635.941406 C 848.320312 629.480469 843.09375 624.214844 836.589844 624.214844 Z M 895.238281 624.214844 C 888.730469 624.214844 883.507812 629.480469 883.507812 635.941406 L 883.507812 659.394531 C 883.507812 665.855469 888.730469 671.125 895.238281 671.125 C 901.746094 671.125 906.96875 665.855469 906.96875 659.394531 L 906.96875 635.941406 C 906.96875 629.480469 901.746094 624.214844 895.238281 624.214844 Z M 953.886719 624.214844 C 947.382812 624.214844 942.15625 629.480469 942.15625 635.941406 L 942.15625 659.394531 C 942.15625 665.855469 947.382812 671.125 953.886719 671.125 C 960.394531 671.125 965.617188 665.855469 965.617188 659.394531 L 965.617188 635.941406 C 965.617188 629.480469 960.394531 624.214844 953.886719 624.214844 Z M 1012.535156 624.214844 C 1006.03125 624.214844 1000.804688 629.480469 1000.804688 635.941406 L 1000.804688 659.394531 C 1000.804688 665.855469 1006.03125 671.125 1012.535156 671.125 C 1019.042969 671.125 1024.265625 665.855469 1024.265625 659.394531 L 1024.265625 635.941406 C 1024.265625 629.480469 1019.042969 624.214844 1012.535156 624.214844 Z M 1012.535156 624.214844 " fill-opacity="1" fill-rule="nonzero"/></g></svg>