<svg xmlns="http://www.w3.org/2000/svg" xmlns:xlink="http://www.w3.org/1999/xlink" width="1920" zoomAndPan="magnify" viewBox="0 0 1440 809.999993" height="1080" preserveAspectRatio="xMidYMid meet" version="1.0"><defs><clipPath id="d56801ad9d"><path d="M 309 595 L 474 595 L 474 760.390625 L 309 760.390625 Z M 309 595 " clip-rule="nonzero"/></clipPath><clipPath id="7df75b86b3"><path d="M 918 257 L 1130.894531 257 L 1130.894531 470 L 918 470 Z M 918 257 " clip-rule="nonzero"/></clipPath><clipPath id="99a32a9c72"><path d="M 397 50 L 890 50 L 890 244.390625 L 397 244.390625 Z M 397 50 " clip-rule="nonzero"/></clipPath><clipPath id="bbaa20f87b"><path d="M 397 50 L 794.644531 50 L 794.644531 359.140625 L 397 359.140625 Z M 397 50 " clip-rule="nonzero"/></clipPath><clipPath id="94927d210c"><path d="M 396 51 L 682.890625 51 L 682.890625 434 L 396 434 Z M 396 51 " clip-rule="nonzero"/></clipPath></defs><g clip-path="url(#d56801ad9d)"><path fill="#003e52" d="M 472.226562 684.789062 L 455.34375 673.785156 L 453.558594 662.546875 L 466.21875 646.871094 C 467.125 645.75 467.230469 644.179688 466.476562 642.929688 L 456.917969 627.320312 C 456.164062 626.089844 454.699219 625.46875 453.300781 625.769531 L 433.597656 629.925781 L 424.402344 623.226562 L 422.273438 603.203125 C 422.121094 601.761719 421.066406 600.574219 419.667969 600.230469 L 401.878906 595.96875 C 400.480469 595.625 398.996094 596.203125 398.21875 597.433594 L 387.21875 614.3125 L 375.976562 616.101562 L 360.300781 603.4375 C 359.183594 602.535156 357.609375 602.425781 356.363281 603.179688 L 340.75 612.742188 C 339.523438 613.496094 338.898438 614.9375 339.199219 616.359375 L 343.355469 636.0625 L 336.660156 645.253906 L 316.632812 647.386719 C 315.191406 647.539062 314.007812 648.59375 313.664062 649.992188 L 309.398438 667.777344 C 309.054688 669.175781 309.636719 670.664062 310.863281 671.4375 L 327.746094 682.441406 L 329.53125 693.679688 L 316.871094 709.355469 C 315.96875 710.476562 315.859375 712.046875 316.613281 713.296875 L 326.171875 728.90625 C 326.925781 730.136719 328.371094 730.757812 329.789062 730.457031 L 349.492188 726.300781 L 358.6875 733 L 360.820312 753.023438 C 360.96875 754.464844 362.023438 755.652344 363.425781 755.996094 L 381.230469 760.257812 C 382.632812 760.601562 384.117188 760.023438 384.890625 758.792969 L 395.894531 741.914062 L 407.132812 740.125 L 422.808594 752.789062 C 423.585938 753.410156 424.554688 753.648438 425.5 753.496094 C 425.933594 753.433594 426.363281 753.28125 426.75 753.046875 L 442.363281 743.484375 C 443.589844 742.730469 444.214844 741.289062 443.910156 739.867188 L 439.757812 720.164062 L 446.453125 710.972656 L 466.476562 708.839844 C 467.921875 708.6875 469.105469 707.632812 469.449219 706.234375 L 473.710938 688.449219 C 474.015625 687.050781 473.433594 685.585938 472.226562 684.789062 Z M 395.613281 703.84375 C 381.402344 706.082031 368.074219 696.394531 365.835938 682.203125 C 363.597656 667.992188 373.285156 654.664062 387.476562 652.425781 C 401.6875 650.1875 415.015625 659.875 417.253906 674.066406 C 419.496094 688.253906 409.804688 701.605469 395.613281 703.84375 Z M 395.613281 703.84375 " fill-opacity="1" fill-rule="nonzero"/></g><g clip-path="url(#7df75b86b3)"><path fill="#003e52" d="M 1128.636719 371.988281 L 1106.890625 357.820312 L 1104.609375 343.328125 L 1120.929688 323.132812 C 1122.09375 321.691406 1122.242188 319.644531 1121.253906 318.050781 L 1108.9375 297.941406 C 1107.96875 296.347656 1106.09375 295.550781 1104.261719 295.9375 L 1078.855469 301.296875 L 1066.992188 292.6875 L 1064.257812 266.867188 C 1064.0625 265.015625 1062.707031 263.488281 1060.898438 263.058594 L 1037.964844 257.546875 C 1036.15625 257.113281 1034.261719 257.867188 1033.25 259.417969 L 1019.082031 281.164062 L 1004.589844 283.449219 L 984.394531 267.125 C 982.949219 265.964844 980.90625 265.8125 979.3125 266.804688 L 959.199219 279.121094 C 957.605469 280.089844 956.808594 281.960938 957.199219 283.792969 L 962.558594 309.199219 L 953.945312 321.066406 L 928.128906 323.800781 C 926.277344 323.992188 924.75 325.351562 924.316406 327.160156 L 918.804688 350.089844 C 918.375 351.898438 919.128906 353.792969 920.679688 354.804688 L 942.425781 368.972656 L 944.710938 383.464844 L 928.367188 403.683594 C 927.203125 405.128906 927.054688 407.171875 928.042969 408.765625 L 940.359375 428.878906 C 941.328125 430.46875 943.203125 431.265625 945.03125 430.878906 L 970.441406 425.519531 L 982.304688 434.132812 L 985.039062 459.949219 C 985.234375 461.800781 986.589844 463.328125 988.398438 463.757812 L 1011.332031 469.273438 C 1013.140625 469.703125 1015.035156 468.949219 1016.046875 467.398438 L 1030.214844 445.652344 L 1044.707031 443.367188 L 1064.902344 459.691406 C 1065.894531 460.488281 1067.164062 460.808594 1068.371094 460.617188 C 1068.929688 460.53125 1069.46875 460.335938 1069.984375 460.011719 L 1090.09375 447.695312 C 1091.6875 446.726562 1092.484375 444.855469 1092.097656 443.023438 L 1086.734375 417.617188 L 1095.347656 405.75 L 1121.167969 403.015625 C 1123.019531 402.824219 1124.546875 401.464844 1124.976562 399.65625 L 1130.488281 376.726562 C 1130.941406 374.894531 1130.1875 373 1128.636719 371.988281 Z M 1029.871094 396.558594 C 1011.566406 399.464844 994.382812 386.953125 991.476562 368.652344 C 988.570312 350.347656 1001.082031 333.167969 1019.382812 330.257812 C 1037.6875 327.351562 1054.867188 339.863281 1057.773438 358.164062 C 1060.683594 376.46875 1048.195312 393.671875 1029.871094 396.558594 Z M 1029.871094 396.558594 " fill-opacity="1" fill-rule="nonzero"/></g><path fill="#003e52" d="M 568.734375 445.824219 C 564.75 445.824219 561.519531 449.054688 561.519531 453.035156 L 561.519531 662.652344 C 561.519531 666.636719 564.75 669.867188 568.734375 669.867188 L 665.628906 669.867188 C 669.613281 669.867188 672.84375 666.636719 672.84375 662.652344 L 672.84375 453.035156 C 672.84375 449.054688 669.613281 445.824219 665.628906 445.824219 Z M 568.734375 445.824219 " fill-opacity="1" fill-rule="nonzero"/><path fill="#003e52" d="M 713.300781 363.417969 C 709.320312 363.417969 706.089844 366.648438 706.089844 370.632812 L 706.089844 662.652344 C 706.089844 666.636719 709.320312 669.867188 713.300781 669.867188 L 810.195312 669.867188 C 814.179688 669.867188 817.410156 666.636719 817.410156 662.652344 L 817.410156 370.632812 C 817.410156 366.648438 814.179688 363.417969 810.195312 363.417969 Z M 713.300781 363.417969 " fill-opacity="1" fill-rule="nonzero"/><path fill="#003e52" d="M 469.339844 426.984375 C 493.285156 423.300781 517.101562 417.917969 540.503906 410.875 C 563.910156 403.835938 586.949219 395.113281 609.34375 384.777344 C 631.738281 374.445312 653.527344 362.492188 674.457031 349.035156 C 716.316406 322.121094 754.773438 289.109375 788.191406 251.042969 C 804.898438 232.007812 820.359375 211.746094 834.378906 190.386719 C 841.398438 179.707031 848.03125 168.765625 854.316406 157.59375 C 854.789062 156.773438 855.242188 155.957031 855.695312 155.136719 L 880.347656 167.476562 C 885.085938 169.84375 890.46875 165.796875 889.542969 160.605469 L 870.898438 55.9375 C 870.144531 51.695312 865.511719 49.390625 861.679688 51.332031 L 766.765625 99.261719 C 762.050781 101.652344 762.074219 108.390625 766.789062 110.738281 L 792.089844 123.378906 C 791.636719 124.539062 791.183594 125.722656 790.710938 126.886719 C 786.554688 137.289062 782.03125 147.558594 777.144531 157.679688 C 767.371094 177.941406 756.128906 197.597656 743.511719 216.484375 C 718.277344 254.230469 687.484375 288.808594 652.128906 318.71875 C 634.472656 333.683594 615.675781 347.464844 595.929688 359.929688 C 576.164062 372.398438 555.449219 383.53125 533.960938 393.21875 C 512.46875 402.910156 490.183594 411.132812 467.339844 417.789062 C 455.90625 421.125 444.34375 424.054688 432.671875 426.59375 C 421 429.136719 409.203125 431.246094 397.316406 432.988281 C 409.308594 432.816406 421.347656 432.257812 433.359375 431.246094 C 445.355469 430.253906 457.371094 428.835938 469.339844 426.984375 Z M 469.339844 426.984375 " fill-opacity="1" fill-rule="nonzero"/><path fill="#003e52" d="M 944.128906 450.34375 C 940.101562 450.34375 936.097656 449.3125 932.585938 447.351562 C 929.011719 445.371094 925.976562 442.464844 923.84375 438.976562 L 911.527344 418.863281 C 906.273438 410.296875 907.007812 399.292969 913.316406 391.496094 L 923.027344 379.480469 L 910.085938 371.0625 C 901.667969 365.574219 897.597656 355.34375 899.945312 345.570312 L 905.457031 322.636719 C 907.804688 312.863281 916.09375 305.582031 926.082031 304.527344 L 941.414062 302.890625 L 938.226562 287.777344 C 936.160156 277.957031 940.511719 267.816406 949.082031 262.582031 L 957.003906 257.71875 C 956.316406 257.503906 955.5625 257.371094 954.808594 257.371094 L 857.914062 257.371094 C 853.929688 257.371094 850.699219 260.601562 850.699219 264.585938 L 850.699219 662.609375 C 850.699219 666.59375 853.929688 669.824219 857.914062 669.824219 L 954.808594 669.824219 C 958.792969 669.824219 962.019531 666.59375 962.019531 662.609375 L 962.019531 447.070312 L 949.039062 449.808594 C 947.402344 450.195312 945.765625 450.34375 944.128906 450.34375 Z M 944.128906 450.34375 " fill-opacity="1" fill-rule="nonzero"/><path fill="#003e52" d="M 528.273438 662.652344 L 528.273438 523.273438 C 528.273438 519.292969 525.046875 516.0625 521.0625 516.0625 L 424.167969 516.0625 C 420.183594 516.0625 416.953125 519.292969 416.953125 523.273438 L 416.953125 579.6875 L 424.1875 581.433594 C 433.554688 583.671875 440.507812 591.617188 441.542969 601.199219 L 442.296875 608.328125 L 449.292969 606.839844 C 450.84375 606.519531 452.417969 606.347656 454.011719 606.347656 C 461.890625 606.347656 469.339844 610.523438 473.453125 617.242188 L 483.015625 632.851562 C 488.054688 641.054688 487.363281 651.605469 481.3125 659.101562 L 476.8125 664.675781 L 482.820312 668.597656 C 483.445312 669.003906 484.046875 669.4375 484.628906 669.910156 L 521.082031 669.910156 C 525.046875 669.867188 528.273438 666.636719 528.273438 662.652344 Z M 528.273438 662.652344 " fill-opacity="1" fill-rule="nonzero"/><path fill="#003e52" d="M 485.210938 693.402344 L 962 693.402344 L 962 714.933594 L 485.210938 714.933594 Z M 485.210938 693.402344 " fill-opacity="1" fill-rule="nonzero"/><g clip-path="url(#99a32a9c72)"><path fill="#ff914d" d="M 469.339844 426.984375 C 493.285156 423.300781 517.101562 417.917969 540.503906 410.875 C 563.910156 403.835938 586.949219 395.113281 609.34375 384.777344 C 631.738281 374.445312 653.527344 362.492188 674.457031 349.035156 C 716.316406 322.121094 754.773438 289.109375 788.191406 251.042969 C 804.898438 232.007812 820.359375 211.746094 834.378906 190.386719 C 841.398438 179.707031 848.03125 168.765625 854.316406 157.59375 C 854.789062 156.773438 855.242188 155.957031 855.695312 155.136719 L 880.347656 167.476562 C 885.085938 169.84375 890.46875 165.796875 889.542969 160.605469 L 870.898438 55.9375 C 870.144531 51.695312 865.511719 49.390625 861.679688 51.332031 L 766.765625 99.261719 C 762.050781 101.652344 762.074219 108.390625 766.789062 110.738281 L 792.089844 123.378906 C 791.636719 124.539062 791.183594 125.722656 790.710938 126.886719 C 786.554688 137.289062 782.03125 147.558594 777.144531 157.679688 C 767.371094 177.941406 756.128906 197.597656 743.511719 216.484375 C 718.277344 254.230469 687.484375 288.808594 652.128906 318.71875 C 634.472656 333.683594 615.675781 347.464844 595.929688 359.929688 C 576.164062 372.398438 555.449219 383.53125 533.960938 393.21875 C 512.46875 402.910156 490.183594 411.132812 467.339844 417.789062 C 455.90625 421.125 444.34375 424.054688 432.671875 426.59375 C 421 429.136719 409.203125 431.246094 397.316406 432.988281 C 409.308594 432.816406 421.347656 432.257812 433.359375 431.246094 C 445.355469 430.253906 457.371094 428.835938 469.339844 426.984375 Z M 469.339844 426.984375 " fill-opacity="1" fill-rule="nonzero"/></g><g clip-path="url(#bbaa20f87b)"><path fill="#ff914d" d="M 469.339844 426.984375 C 493.285156 423.300781 517.101562 417.917969 540.503906 410.875 C 563.910156 403.835938 586.949219 395.113281 609.34375 384.777344 C 631.738281 374.445312 653.527344 362.492188 674.457031 349.035156 C 716.316406 322.121094 754.773438 289.109375 788.191406 251.042969 C 804.898438 232.007812 820.359375 211.746094 834.378906 190.386719 C 841.398438 179.707031 848.03125 168.765625 854.316406 157.59375 C 854.789062 156.773438 855.242188 155.957031 855.695312 155.136719 L 880.347656 167.476562 C 885.085938 169.84375 890.46875 165.796875 889.542969 160.605469 L 870.898438 55.9375 C 870.144531 51.695312 865.511719 49.390625 861.679688 51.332031 L 766.765625 99.261719 C 762.050781 101.652344 762.074219 108.390625 766.789062 110.738281 L 792.089844 123.378906 C 791.636719 124.539062 791.183594 125.722656 790.710938 126.886719 C 786.554688 137.289062 782.03125 147.558594 777.144531 157.679688 C 767.371094 177.941406 756.128906 197.597656 743.511719 216.484375 C 718.277344 254.230469 687.484375 288.808594 652.128906 318.71875 C 634.472656 333.683594 615.675781 347.464844 595.929688 359.929688 C 576.164062 372.398438 555.449219 383.53125 533.960938 393.21875 C 512.46875 402.910156 490.183594 411.132812 467.339844 417.789062 C 455.90625 421.125 444.34375 424.054688 432.671875 426.59375 C 421 429.136719 409.203125 431.246094 397.316406 432.988281 C 409.308594 432.816406 421.347656 432.257812 433.359375 431.246094 C 445.355469 430.253906 457.371094 428.835938 469.339844 426.984375 Z M 469.339844 426.984375 " fill-opacity="1" fill-rule="nonzero"/></g><g clip-path="url(#94927d210c)"><path fill="#ff914d" d="M 468.589844 427.734375 C 492.535156 424.050781 516.351562 418.667969 539.753906 411.625 C 563.160156 404.585938 586.199219 395.863281 608.59375 385.527344 C 630.988281 375.195312 652.777344 363.242188 673.707031 349.785156 C 715.566406 322.871094 754.023438 289.859375 787.441406 251.792969 C 804.148438 232.757812 819.609375 212.496094 833.628906 191.136719 C 840.648438 180.457031 847.28125 169.515625 853.566406 158.34375 C 854.039062 157.523438 854.492188 156.707031 854.945312 155.886719 L 879.597656 168.226562 C 884.335938 170.59375 889.71875 166.546875 888.792969 161.355469 L 870.148438 56.6875 C 869.394531 52.445312 864.761719 50.140625 860.929688 52.082031 L 766.015625 100.011719 C 761.300781 102.402344 761.324219 109.140625 766.039062 111.488281 L 791.339844 124.128906 C 790.886719 125.289062 790.433594 126.472656 789.960938 127.636719 C 785.804688 138.039062 781.28125 148.308594 776.394531 158.429688 C 766.621094 178.691406 755.378906 198.347656 742.761719 217.234375 C 717.527344 254.980469 686.734375 289.558594 651.378906 319.46875 C 633.722656 334.433594 614.925781 348.214844 595.179688 360.679688 C 575.414062 373.148438 554.699219 384.28125 533.210938 393.96875 C 511.71875 403.660156 489.433594 411.882812 466.589844 418.539062 C 455.15625 421.875 443.59375 424.804688 431.921875 427.34375 C 420.25 429.886719 408.453125 431.996094 396.566406 433.738281 C 408.558594 433.566406 420.597656 433.007812 432.609375 431.996094 C 444.605469 431.003906 456.621094 429.585938 468.589844 427.734375 Z M 468.589844 427.734375 " fill-opacity="1" fill-rule="nonzero"/></g><path fill="#ff914d" d="M 485.210938 693.402344 L 962 693.402344 L 962 714.933594 L 485.210938 714.933594 Z M 485.210938 693.402344 " fill-opacity="1" fill-rule="nonzero"/></svg>