<?xml version="1.0" encoding="UTF-8"?><svg xmlns="http://www.w3.org/2000/svg" xmlns:xlink="http://www.w3.org/1999/xlink" width="1440" zoomAndPan="magnify" viewBox="0 0 1440 809.999993" height="809.999993" preserveAspectRatio="xMidYMid meet" version="1.0"><defs><clipPath id="clip-0"><path d="M 390 71.210938 L 1050 71.210938 L 1050 731 L 390 731 Z M 390 71.210938 " clip-rule="nonzero"/></clipPath><clipPath id="clip-1"><path d="M 712.21875 73.394531 L 1049 73.394531 L 1049 404.144531 L 712.21875 404.144531 Z M 712.21875 73.394531 " clip-rule="nonzero"/></clipPath></defs><path fill="rgb(100%, 100%, 100%)" d="M 710.644531 322.179688 C 709.226562 322.179688 707.8125 322.214844 706.394531 322.285156 C 704.980469 322.355469 703.566406 322.457031 702.15625 322.597656 C 700.746094 322.738281 699.339844 322.910156 697.9375 323.117188 C 696.535156 323.324219 695.136719 323.570312 693.746094 323.84375 C 692.355469 324.121094 690.972656 324.433594 689.597656 324.777344 C 688.222656 325.121094 686.855469 325.5 685.5 325.910156 C 684.144531 326.320312 682.796875 326.765625 681.464844 327.246094 C 680.128906 327.722656 678.804688 328.230469 677.496094 328.773438 C 676.1875 329.316406 674.890625 329.890625 673.609375 330.496094 C 672.328125 331.105469 671.0625 331.742188 669.8125 332.410156 C 668.5625 333.078125 667.328125 333.777344 666.113281 334.503906 C 664.894531 335.234375 663.699219 335.992188 662.519531 336.78125 C 661.339844 337.566406 660.183594 338.382812 659.042969 339.226562 C 657.90625 340.070312 656.789062 340.945312 655.691406 341.84375 C 654.597656 342.742188 653.523438 343.667969 652.472656 344.621094 C 651.421875 345.574219 650.394531 346.550781 649.394531 347.550781 C 648.390625 348.554688 647.414062 349.582031 646.460938 350.632812 C 645.507812 351.683594 644.582031 352.753906 643.683594 353.851562 C 642.785156 354.945312 641.914062 356.0625 641.066406 357.203125 C 640.222656 358.339844 639.40625 359.5 638.621094 360.679688 C 637.832031 361.859375 637.074219 363.054688 636.34375 364.269531 C 635.617188 365.488281 634.917969 366.71875 634.25 367.972656 C 633.582031 369.222656 632.945312 370.488281 632.339844 371.769531 C 631.730469 373.050781 631.15625 374.347656 630.613281 375.65625 C 630.074219 376.964844 629.5625 378.289062 629.085938 379.621094 C 628.605469 380.957031 628.164062 382.304688 627.75 383.660156 C 627.339844 385.015625 626.960938 386.382812 626.617188 387.757812 C 626.273438 389.132812 625.960938 390.515625 625.6875 391.90625 C 625.410156 393.296875 625.167969 394.691406 624.957031 396.09375 C 624.75 397.496094 624.578125 398.902344 624.4375 400.316406 C 624.300781 401.726562 624.195312 403.140625 624.125 404.554688 C 624.054688 405.972656 624.019531 407.386719 624.019531 408.804688 C 624.019531 410.222656 624.054688 411.640625 624.125 413.054688 C 624.195312 414.472656 624.300781 415.886719 624.4375 417.296875 C 624.578125 418.707031 624.75 420.113281 624.957031 421.515625 C 625.167969 422.917969 625.410156 424.316406 625.6875 425.707031 C 625.960938 427.09375 626.273438 428.476562 626.617188 429.855469 C 626.960938 431.230469 627.339844 432.59375 627.75 433.953125 C 628.164062 435.308594 628.605469 436.652344 629.085938 437.988281 C 629.5625 439.324219 630.074219 440.644531 630.613281 441.957031 C 631.15625 443.265625 631.730469 444.5625 632.339844 445.84375 C 632.945312 447.125 633.582031 448.390625 634.25 449.640625 C 634.917969 450.890625 635.617188 452.125 636.34375 453.339844 C 637.074219 454.554688 637.832031 455.753906 638.621094 456.933594 C 639.40625 458.109375 640.222656 459.269531 641.066406 460.40625 C 641.914062 461.546875 642.785156 462.664062 643.683594 463.761719 C 644.582031 464.855469 645.507812 465.929688 646.460938 466.980469 C 647.414062 468.03125 648.390625 469.054688 649.394531 470.058594 C 650.394531 471.0625 651.421875 472.039062 652.472656 472.992188 C 653.523438 473.941406 654.597656 474.867188 655.691406 475.765625 C 656.789062 476.667969 657.90625 477.539062 659.042969 478.382812 C 660.183594 479.226562 661.339844 480.042969 662.519531 480.832031 C 663.699219 481.621094 664.894531 482.378906 666.113281 483.105469 C 667.328125 483.835938 668.5625 484.535156 669.8125 485.203125 C 671.0625 485.871094 672.328125 486.507812 673.609375 487.113281 C 674.890625 487.71875 676.1875 488.292969 677.496094 488.835938 C 678.804688 489.378906 680.128906 489.890625 681.464844 490.367188 C 682.796875 490.84375 684.144531 491.289062 685.5 491.699219 C 686.855469 492.113281 688.222656 492.488281 689.597656 492.835938 C 690.972656 493.179688 692.355469 493.488281 693.746094 493.765625 C 695.136719 494.042969 696.535156 494.285156 697.9375 494.492188 C 699.339844 494.699219 700.746094 494.875 702.15625 495.011719 C 703.566406 495.152344 704.980469 495.257812 706.394531 495.328125 C 707.8125 495.394531 709.226562 495.429688 710.644531 495.429688 C 712.0625 495.429688 713.480469 495.394531 714.898438 495.328125 C 716.3125 495.257812 717.726562 495.152344 719.136719 495.011719 C 720.546875 494.875 721.953125 494.699219 723.355469 494.492188 C 724.757812 494.285156 726.15625 494.042969 727.546875 493.765625 C 728.9375 493.488281 730.320312 493.179688 731.695312 492.835938 C 733.070312 492.488281 734.433594 492.113281 735.792969 491.699219 C 737.148438 491.289062 738.496094 490.84375 739.828125 490.367188 C 741.164062 489.890625 742.484375 489.378906 743.796875 488.835938 C 745.105469 488.292969 746.402344 487.71875 747.683594 487.113281 C 748.964844 486.507812 750.230469 485.871094 751.480469 485.203125 C 752.730469 484.535156 753.964844 483.835938 755.179688 483.105469 C 756.394531 482.378906 757.59375 481.621094 758.773438 480.832031 C 759.949219 480.042969 761.109375 479.226562 762.25 478.382812 C 763.386719 477.539062 764.503906 476.667969 765.601562 475.765625 C 766.695312 474.867188 767.769531 473.941406 768.820312 472.992188 C 769.871094 472.039062 770.898438 471.0625 771.898438 470.058594 C 772.902344 469.054688 773.878906 468.03125 774.832031 466.980469 C 775.78125 465.929688 776.707031 464.855469 777.609375 463.761719 C 778.507812 462.664062 779.378906 461.546875 780.222656 460.40625 C 781.070312 459.269531 781.882812 458.109375 782.671875 456.933594 C 783.460938 455.753906 784.21875 454.554688 784.945312 453.339844 C 785.675781 452.125 786.375 450.890625 787.042969 449.640625 C 787.710938 448.390625 788.347656 447.125 788.953125 445.84375 C 789.558594 444.5625 790.132812 443.265625 790.675781 441.957031 C 791.21875 440.644531 791.730469 439.324219 792.207031 437.988281 C 792.683594 436.652344 793.128906 435.308594 793.542969 433.953125 C 793.953125 432.59375 794.332031 431.230469 794.675781 429.855469 C 795.019531 428.476562 795.328125 427.09375 795.605469 425.707031 C 795.882812 424.316406 796.125 422.917969 796.332031 421.515625 C 796.542969 420.113281 796.714844 418.707031 796.855469 417.296875 C 796.992188 415.886719 797.097656 414.472656 797.167969 413.054688 C 797.234375 411.640625 797.269531 410.222656 797.269531 408.804688 C 797.269531 407.386719 797.234375 405.972656 797.167969 404.554688 C 797.097656 403.140625 796.992188 401.726562 796.855469 400.316406 C 796.714844 398.902344 796.542969 397.496094 796.332031 396.09375 C 796.125 394.691406 795.882812 393.296875 795.605469 391.90625 C 795.328125 390.515625 795.019531 389.132812 794.675781 387.757812 C 794.332031 386.382812 793.953125 385.015625 793.542969 383.660156 C 793.128906 382.304688 792.683594 380.957031 792.207031 379.621094 C 791.730469 378.289062 791.21875 376.964844 790.675781 375.65625 C 790.132812 374.347656 789.558594 373.050781 788.953125 371.769531 C 788.347656 370.488281 787.710938 369.222656 787.042969 367.972656 C 786.375 366.71875 785.675781 365.488281 784.945312 364.269531 C 784.21875 363.054688 783.460938 361.859375 782.671875 360.679688 C 781.882812 359.5 781.070312 358.339844 780.222656 357.203125 C 779.378906 356.0625 778.507812 354.945312 777.609375 353.851562 C 776.707031 352.753906 775.78125 351.683594 774.832031 350.632812 C 773.878906 349.582031 772.902344 348.554688 771.898438 347.550781 C 770.898438 346.550781 769.871094 345.574219 768.820312 344.621094 C 767.769531 343.667969 766.695312 342.742188 765.601562 341.84375 C 764.503906 340.945312 763.386719 340.070312 762.25 339.226562 C 761.109375 338.382812 759.949219 337.566406 758.773438 336.78125 C 757.59375 335.992188 756.394531 335.234375 755.179688 334.503906 C 753.964844 333.777344 752.730469 333.078125 751.480469 332.410156 C 750.230469 331.742188 748.964844 331.105469 747.683594 330.496094 C 746.402344 329.890625 745.105469 329.316406 743.796875 328.773438 C 742.484375 328.230469 741.164062 327.722656 739.828125 327.246094 C 738.496094 326.765625 737.148438 326.320312 735.792969 325.910156 C 734.433594 325.5 733.070312 325.121094 731.695312 324.777344 C 730.320312 324.433594 728.9375 324.121094 727.546875 323.84375 C 726.15625 323.570312 724.757812 323.324219 723.355469 323.117188 C 721.953125 322.910156 720.546875 322.738281 719.136719 322.597656 C 717.726562 322.457031 716.3125 322.355469 714.898438 322.285156 C 713.480469 322.214844 712.0625 322.179688 710.644531 322.179688 Z M 710.644531 322.179688 " fill-opacity="1" fill-rule="nonzero"/><g clip-path="url(#clip-0)"><path fill="rgb(100%, 51.759338%, 0%)" d="M 719.71875 71.210938 C 537.953125 71.210938 390.074219 219.121094 390.074219 400.929688 C 390.074219 582.734375 537.953125 730.648438 719.71875 730.648438 C 901.480469 730.648438 1049.359375 582.734375 1049.359375 400.929688 C 1049.359375 219.121094 901.480469 71.210938 719.71875 71.210938 Z M 887.117188 222.621094 C 845.007812 181.164062 790.929688 154.777344 723.71875 152.214844 L 723.71875 84.839844 C 810.132812 86.570312 880.960938 119.714844 936.28125 172.761719 Z M 723.71875 246.335938 C 763.722656 247.953125 795.472656 263.039062 821.484375 286.902344 L 723.71875 384.6875 Z M 709.316406 396.929688 L 565.15625 396.929688 C 568.597656 316.898438 635.707031 249.777344 709.316406 246.335938 Z M 709.316406 411.332031 L 709.316406 555.523438 C 635.707031 552.082031 568.597656 484.960938 565.15625 411.332031 Z M 723.71875 411.332031 L 874.277344 411.332031 C 870.835938 484.960938 803.726562 552.082031 723.71875 555.523438 Z M 832.351562 277.390625 C 803.898438 251.101562 770.125 234.511719 723.71875 232.878906 L 723.71875 165.671875 C 782.925781 168.226562 837.253906 193.113281 876.921875 232.128906 Z M 709.316406 232.878906 C 629.304688 236.339844 555.160156 310.496094 551.703125 396.929688 L 484.34375 396.929688 C 486.140625 270.484375 589.300781 167.300781 709.316406 165.503906 Z M 551.703125 411.332031 C 555.160156 491.363281 629.304688 565.519531 709.316406 568.984375 L 709.316406 629.628906 C 589.300781 627.863281 489.773438 531.375 484.515625 411.332031 Z M 723.71875 568.984375 C 810.128906 565.519531 884.269531 491.363281 887.730469 411.332031 L 948.191406 411.332031 C 943.027344 524.976562 843.734375 624.292969 723.71875 629.457031 Z M 709.316406 84.839844 L 709.316406 152.042969 C 581.296875 153.84375 472.6875 262.480469 470.886719 396.929688 L 403.699219 396.929688 C 407.257812 222.464844 541.292969 88.398438 709.316406 84.839844 Z M 403.699219 411.332031 L 471.058594 411.332031 C 476.332031 539.378906 581.300781 641.320312 709.316406 643.085938 L 709.316406 717.019531 C 541.292969 713.457031 407.257812 579.394531 403.699219 411.332031 Z M 723.71875 717.019531 L 723.71875 642.914062 C 850.132812 637.730469 956.464844 531.375 961.648438 411.332031 L 1035.738281 411.332031 C 1032.175781 579.394531 898.140625 713.457031 723.71875 717.019531 Z M 723.71875 717.019531 " fill-opacity="1" fill-rule="nonzero"/></g><g clip-path="url(#clip-1)"><path fill="rgb(0%, 24.308777%, 32.159424%)" d="M 718.863281 71.210938 C 537.101562 71.210938 389.222656 219.121094 389.222656 400.929688 C 389.222656 582.734375 537.101562 730.648438 718.863281 730.648438 C 900.628906 730.648438 1048.507812 582.734375 1048.507812 400.929688 C 1048.507812 219.121094 900.628906 71.210938 718.863281 71.210938 Z M 886.265625 222.621094 C 844.15625 181.164062 790.074219 154.777344 722.867188 152.214844 L 722.867188 84.839844 C 809.277344 86.570312 880.105469 119.714844 935.429688 172.761719 Z M 722.867188 246.335938 C 762.871094 247.953125 794.621094 263.039062 820.628906 286.902344 L 722.867188 384.6875 Z M 708.464844 396.929688 L 564.304688 396.929688 C 567.746094 316.898438 634.855469 249.777344 708.464844 246.335938 Z M 708.464844 411.332031 L 708.464844 555.523438 C 634.855469 552.082031 567.746094 484.960938 564.304688 411.332031 Z M 722.867188 411.332031 L 873.425781 411.332031 C 869.984375 484.960938 802.875 552.082031 722.867188 555.523438 Z M 831.5 277.390625 C 803.046875 251.101562 769.273438 234.511719 722.867188 232.878906 L 722.867188 165.671875 C 782.074219 168.226562 836.402344 193.113281 876.070312 232.128906 Z M 708.464844 232.878906 C 628.453125 236.339844 554.308594 310.496094 550.851562 396.929688 L 483.488281 396.929688 C 485.285156 270.484375 588.449219 167.300781 708.464844 165.503906 Z M 550.851562 411.332031 C 554.308594 491.363281 628.453125 565.519531 708.464844 568.984375 L 708.464844 629.628906 C 588.449219 627.863281 488.921875 531.378906 483.664062 411.332031 Z M 722.867188 568.984375 C 809.277344 565.519531 883.417969 491.363281 886.878906 411.332031 L 947.339844 411.332031 C 942.175781 524.976562 842.882812 624.292969 722.867188 629.457031 Z M 708.464844 84.839844 L 708.464844 152.042969 C 580.445312 153.84375 471.835938 262.480469 470.035156 396.929688 L 402.847656 396.929688 C 406.40625 222.464844 540.441406 88.398438 708.464844 84.839844 Z M 402.847656 411.332031 L 470.207031 411.332031 C 475.480469 539.378906 580.449219 641.320312 708.464844 643.085938 L 708.464844 717.019531 C 540.441406 713.457031 406.40625 579.394531 402.847656 411.332031 Z M 722.867188 717.019531 L 722.867188 642.914062 C 849.28125 637.730469 955.613281 531.375 960.796875 411.332031 L 1034.882812 411.332031 C 1031.324219 579.394531 897.289062 713.457031 722.867188 717.019531 Z M 722.867188 717.019531 " fill-opacity="1" fill-rule="nonzero"/></g></svg>