<svg xmlns="http://www.w3.org/2000/svg" xmlns:xlink="http://www.w3.org/1999/xlink" width="1920" zoomAndPan="magnify" viewBox="0 0 1440 809.999993" height="1080" preserveAspectRatio="xMidYMid meet" version="1.0"><defs><clipPath id="8ce7084b90"><path d="M 314.078125 495 L 367 495 L 367 523 L 314.078125 523 Z M 314.078125 495 " clip-rule="nonzero"/></clipPath><clipPath id="55aa91308b"><path d="M 821 347 L 1125.578125 347 L 1125.578125 640 L 821 640 Z M 821 347 " clip-rule="nonzero"/></clipPath><clipPath id="449263371f"><path d="M 602.804688 454 L 816 454 L 816 682.332031 L 602.804688 682.332031 Z M 602.804688 454 " clip-rule="nonzero"/></clipPath><clipPath id="217dfb60d7"><path d="M 750 639 L 828.554688 639 L 828.554688 682.332031 L 750 682.332031 Z M 750 639 " clip-rule="nonzero"/></clipPath><clipPath id="dd9a638d17"><path d="M 821 436.332031 L 828.554688 436.332031 L 828.554688 639 L 821 639 Z M 821 436.332031 " clip-rule="nonzero"/></clipPath></defs><path fill="#ff914d" d="M 431.863281 366.054688 C 435.664062 367.320312 439.464844 369.21875 442.628906 371.753906 C 447.695312 366.6875 454.03125 362.886719 460.363281 360.988281 C 481.894531 307.792969 519.886719 262.832031 568.015625 232.4375 C 568.015625 227.371094 568.015625 222.9375 568.015625 218.503906 C 568.015625 213.4375 568.648438 207.738281 569.28125 202.039062 C 505.324219 238.136719 455.929688 296.394531 431.863281 366.054688 Z M 431.863281 366.054688 " fill-opacity="1" fill-rule="nonzero"/><path fill="#ff914d" d="M 685.167969 53.222656 C 675.671875 63.988281 593.347656 162.144531 593.347656 218.503906 C 593.347656 278.664062 638.941406 328.058594 694.667969 328.058594 C 750.394531 328.058594 795.988281 279.296875 795.988281 218.503906 C 795.988281 162.144531 713.667969 63.988281 704.167969 53.222656 C 699.734375 47.523438 689.601562 47.523438 685.167969 53.222656 Z M 669.335938 270.429688 C 666.804688 270.429688 663.636719 269.796875 661.105469 267.265625 C 643.375 251.433594 639.574219 228.003906 649.707031 202.039062 C 652.238281 195.707031 659.839844 192.539062 666.171875 195.074219 C 672.503906 197.605469 675.671875 205.207031 673.136719 211.539062 C 668.703125 222.304688 666.171875 237.5 677.570312 248.265625 C 687.703125 257.132812 678.835938 270.429688 669.335938 270.429688 Z M 669.335938 270.429688 " fill-opacity="1" fill-rule="nonzero"/><path fill="#ff914d" d="M 659.207031 753.609375 C 680.101562 758.042969 716.832031 762.476562 730.765625 740.945312 C 732.03125 739.042969 732.664062 736.511719 732.664062 733.976562 L 732.664062 683.316406 C 778.257812 683.316406 814.988281 646.589844 814.988281 600.992188 L 814.988281 531.335938 C 814.988281 524.367188 809.289062 518.667969 802.324219 518.667969 L 776.992188 518.667969 L 776.992188 468.007812 C 776.992188 461.042969 771.292969 455.34375 764.328125 455.34375 C 757.359375 455.34375 751.660156 461.042969 751.660156 468.007812 L 751.660156 518.667969 L 688.335938 518.667969 L 688.335938 468.007812 C 688.335938 461.042969 682.636719 455.34375 675.671875 455.34375 C 668.703125 455.34375 663.003906 461.042969 663.003906 468.007812 L 663.003906 518.667969 L 637.675781 518.667969 C 630.710938 518.667969 625.007812 524.367188 625.007812 531.335938 L 625.007812 600.992188 C 625.007812 646.589844 661.738281 683.316406 707.332031 683.316406 C 707.332031 683.316406 707.332031 728.277344 707.332031 728.277344 C 707.332031 735.878906 663.003906 728.277344 660.472656 727.644531 C 545.21875 702.949219 459.09375 609.859375 443.898438 497.773438 C 433.132812 502.203125 426.800781 511.703125 427.433594 522.46875 C 427.433594 526.902344 426.800781 531.335938 426.164062 535.132812 C 454.03125 643.421875 543.953125 730.8125 659.207031 753.609375 Z M 659.207031 753.609375 " fill-opacity="1" fill-rule="nonzero"/><path fill="#ff914d" d="M 416.667969 390.117188 C 409.699219 392.015625 405.902344 398.984375 407.800781 405.949219 C 407.800781 405.949219 416.035156 433.8125 416.035156 433.8125 C 417.933594 440.144531 425.53125 444.578125 431.863281 442.679688 C 438.832031 440.777344 442.628906 433.8125 440.730469 426.847656 L 432.5 398.984375 C 429.964844 392.015625 423 388.21875 416.667969 390.117188 Z M 416.667969 390.117188 " fill-opacity="1" fill-rule="nonzero"/><path fill="#ff914d" d="M 377.40625 478.140625 C 380.570312 471.808594 378.039062 464.210938 371.707031 461.042969 L 348.90625 449.011719 C 342.574219 445.84375 334.976562 448.378906 331.808594 454.710938 C 328.644531 461.042969 331.175781 468.640625 337.507812 471.808594 C 337.507812 471.808594 360.308594 483.839844 360.308594 483.839844 C 366.640625 486.375 374.238281 483.839844 377.40625 478.140625 Z M 377.40625 478.140625 " fill-opacity="1" fill-rule="nonzero"/><path fill="#ff914d" d="M 524.320312 400.882812 C 518.621094 397.082031 510.390625 398.984375 507.222656 405.316406 L 493.925781 427.480469 C 490.125 433.8125 492.023438 441.410156 498.359375 444.578125 C 504.058594 447.746094 512.289062 445.84375 515.457031 440.144531 L 528.753906 417.980469 C 532.554688 412.28125 530.652344 404.050781 524.320312 400.882812 Z M 524.320312 400.882812 " fill-opacity="1" fill-rule="nonzero"/><path fill="#ff914d" d="M 367.90625 414.179688 C 362.839844 418.613281 361.574219 426.847656 366.640625 431.914062 C 366.640625 431.914062 383.105469 451.542969 383.105469 451.542969 C 387.535156 456.609375 395.769531 457.242188 400.835938 452.808594 C 405.902344 448.378906 407.167969 440.144531 402.101562 435.078125 L 385.636719 415.449219 C 381.203125 410.382812 372.972656 409.75 367.90625 414.179688 Z M 367.90625 414.179688 " fill-opacity="1" fill-rule="nonzero"/><path fill="#ff914d" d="M 458.460938 395.816406 L 455.296875 420.515625 C 454.664062 427.480469 459.09375 433.8125 466.0625 435.078125 C 473.027344 435.710938 479.359375 431.28125 479.992188 424.3125 L 483.160156 399.617188 C 483.792969 392.652344 479.359375 386.316406 472.394531 385.050781 C 465.429688 384.417969 459.09375 388.851562 458.460938 395.816406 Z M 458.460938 395.816406 " fill-opacity="1" fill-rule="nonzero"/><path fill="#ff914d" d="M 534.453125 469.910156 C 536.988281 469.910156 539.519531 469.273438 542.050781 467.375 L 562.949219 451.542969 C 568.648438 447.109375 569.914062 439.511719 565.484375 433.8125 C 561.050781 428.113281 553.453125 426.847656 547.75 431.28125 C 547.75 431.28125 526.855469 447.109375 526.855469 447.109375 C 517.355469 454.078125 523.054688 469.910156 534.453125 469.910156 Z M 534.453125 469.910156 " fill-opacity="1" fill-rule="nonzero"/><g clip-path="url(#8ce7084b90)"><path fill="#ff914d" d="M 326.109375 520.570312 C 326.109375 520.570312 353.339844 522.46875 353.339844 522.46875 C 359.671875 522.46875 365.371094 517.402344 366.007812 511.070312 C 366.640625 504.105469 361.574219 497.773438 354.609375 497.136719 L 328.011719 495.238281 C 321.042969 494.605469 315.34375 499.671875 314.710938 506.636719 C 314.078125 513.601562 319.144531 519.9375 326.109375 520.570312 Z M 326.109375 520.570312 " fill-opacity="1" fill-rule="nonzero"/></g><path fill="#ff914d" d="M 440.730469 471.808594 C 464.160156 465.476562 488.859375 474.972656 501.523438 495.238281 C 505.324219 500.9375 512.921875 502.835938 519.253906 499.671875 C 524.953125 495.871094 526.855469 488.273438 523.054688 481.941406 C 504.691406 452.175781 467.960938 438.246094 433.765625 447.746094 C 398.300781 457.875 374.871094 489.539062 376.773438 525 C 377.40625 531.96875 383.105469 537.035156 390.070312 537.035156 C 397.035156 536.402344 402.734375 530.703125 402.101562 523.734375 C 400.835938 500.304688 416.667969 478.773438 440.730469 471.808594 Z M 440.730469 471.808594 " fill-opacity="1" fill-rule="nonzero"/><path fill="#ff914d" d="M 963.171875 640.886719 C 942.90625 645.320312 928.972656 654.820312 926.441406 656.71875 C 920.742188 661.152344 913.777344 663.050781 907.445312 663.6875 C 866.914062 699.148438 815.621094 723.847656 758.628906 731.445312 C 758.628906 740.945312 756.09375 750.441406 749.761719 758.042969 C 837.152344 749.808594 913.144531 706.113281 963.171875 640.886719 Z M 963.171875 640.886719 " fill-opacity="1" fill-rule="nonzero"/><path fill="#ff914d" d="M 979.636719 362.253906 C 985.335938 355.289062 991.667969 348.957031 999.265625 343.257812 C 964.4375 264.730469 896.679688 203.9375 813.089844 177.34375 C 816.886719 187.472656 819.421875 197.605469 820.6875 207.105469 C 892.878906 234.335938 951.140625 290.695312 979.636719 362.253906 Z M 979.636719 362.253906 " fill-opacity="1" fill-rule="nonzero"/><g clip-path="url(#55aa91308b)"><path fill="#ff914d" d="M 1035.363281 473.707031 C 1051.195312 475.609375 1067.023438 471.175781 1079.691406 461.675781 C 1100.589844 445.210938 1105.652344 419.246094 1113.253906 395.183594 C 1116.417969 385.050781 1120.21875 375.550781 1124.019531 367.320312 C 1125.917969 363.519531 1125.285156 359.085938 1123.386719 355.921875 C 1121.484375 352.753906 1117.6875 350.222656 1113.886719 349.589844 C 1049.925781 342.621094 1023.332031 357.820312 1018.265625 361.621094 C 993.566406 376.820312 981.535156 402.78125 986.601562 430.011719 C 987.867188 436.980469 989.769531 443.3125 992.933594 448.378906 C 988.5 453.445312 973.9375 473.074219 972.667969 474.972656 C 971.402344 473.707031 970.769531 471.808594 969.503906 470.542969 C 964.4375 463.574219 958.738281 457.875 953.671875 452.808594 C 956.203125 447.746094 958.105469 442.042969 959.371094 435.710938 C 964.4375 408.480469 953.039062 383.152344 927.707031 367.320312 C 922.640625 364.152344 896.046875 348.324219 832.085938 355.289062 C 823.851562 355.921875 818.789062 365.421875 821.953125 373.019531 C 827.652344 386.316406 832.71875 400.25 836.519531 414.816406 C 846.652344 447.746094 865.648438 480.039062 904.277344 480.039062 C 915.675781 480.039062 927.707031 477.507812 937.207031 471.175781 C 940.375 469.273438 959.371094 499.671875 960.636719 501.570312 C 973.304688 525.003906 973.304688 550.332031 972.667969 576.296875 C 972.667969 580.09375 972.667969 584.527344 972.667969 588.960938 C 927.707031 593.394531 896.679688 615.558594 896.046875 616.191406 C 890.34375 620.625 889.078125 628.222656 893.511719 633.921875 C 897.945312 639.621094 905.542969 640.886719 911.242188 636.457031 C 929.609375 622.523438 954.304688 615.558594 977.101562 613.660156 C 1006.867188 611.757812 1035.996094 620.625 1061.324219 637.089844 C 1067.023438 640.886719 1075.257812 638.988281 1079.058594 633.289062 C 1082.855469 627.589844 1080.957031 619.359375 1075.257812 615.558594 C 1048.027344 597.828125 1022.0625 590.226562 998 588.960938 C 998 585.160156 998 581.363281 998 577.5625 C 998.632812 550.332031 999.265625 525.636719 987.234375 499.039062 C 990.402344 493.339844 1006.867188 470.542969 1010.03125 466.109375 C 1017.632812 469.910156 1025.863281 472.441406 1035.363281 473.707031 Z M 1035.996094 379.984375 C 1049.925781 373.652344 1067.660156 372.386719 1082.855469 372.386719 C 1086.65625 372.386719 1090.457031 372.386719 1094.253906 372.386719 C 1092.355469 376.820312 1091.089844 381.25 1089.191406 386.316406 C 1082.855469 404.683594 1080.324219 428.113281 1063.859375 440.777344 C 1054.359375 448.378906 1041.0625 449.644531 1029.664062 445.84375 C 1030.929688 444.578125 1041.0625 435.710938 1045.496094 431.914062 C 1050.5625 427.480469 1051.195312 419.246094 1046.128906 414.179688 C 1041.695312 409.117188 1033.460938 408.480469 1028.394531 413.546875 C 1023.332031 417.980469 1018.265625 422.414062 1013.199219 427.480469 C 1005.597656 409.117188 1019.53125 387.585938 1035.996094 379.984375 Z M 933.40625 435.078125 C 932.140625 433.8125 913.777344 421.148438 905.542969 413.546875 C 900.476562 409.117188 892.246094 409.75 887.8125 414.816406 C 883.378906 419.878906 884.011719 428.113281 889.078125 432.546875 C 898.578125 440.777344 915.042969 452.808594 915.675781 453.445312 C 913.777344 454.078125 911.242188 454.710938 908.710938 454.710938 C 879.582031 457.875 868.179688 430.644531 861.847656 407.214844 C 859.316406 397.714844 856.148438 388.21875 852.351562 378.71875 C 872.613281 377.453125 896.679688 376.820312 914.410156 388.21875 C 930.242188 398.351562 938.472656 416.714844 933.40625 435.078125 Z M 933.40625 435.078125 " fill-opacity="1" fill-rule="nonzero"/></g><path fill="#003e52" d="M 685.683594 53.222656 C 676.1875 63.988281 593.863281 162.144531 593.863281 218.503906 C 593.863281 278.664062 639.457031 328.058594 695.183594 328.058594 C 750.910156 328.058594 796.503906 279.296875 796.503906 218.503906 C 796.503906 162.144531 714.179688 63.988281 704.683594 53.222656 C 700.25 47.523438 690.117188 47.523438 685.683594 53.222656 Z M 669.851562 270.429688 C 667.320312 270.429688 664.152344 269.796875 661.621094 267.265625 C 643.890625 251.433594 640.089844 228.003906 650.222656 202.039062 C 652.753906 195.707031 660.355469 192.539062 666.6875 195.074219 C 673.019531 197.605469 676.1875 205.207031 673.652344 211.539062 C 669.21875 222.304688 666.6875 237.5 678.085938 248.265625 C 688.21875 257.132812 679.351562 270.429688 669.851562 270.429688 Z M 669.851562 270.429688 " fill-opacity="1" fill-rule="nonzero"/><g clip-path="url(#449263371f)"><path fill="#003e52" d="M 659.625 752.628906 C 680.523438 757.0625 717.25 761.496094 731.183594 739.964844 C 732.449219 738.066406 733.082031 735.53125 733.082031 733 L 733.082031 682.339844 C 778.675781 682.339844 815.40625 645.609375 815.40625 600.015625 L 815.40625 530.355469 C 815.40625 523.390625 809.707031 517.691406 802.742188 517.691406 L 777.410156 517.691406 L 777.410156 467.03125 C 777.410156 460.0625 771.710938 454.363281 764.746094 454.363281 C 757.78125 454.363281 752.082031 460.0625 752.082031 467.03125 L 752.082031 517.691406 L 688.753906 517.691406 L 688.753906 467.03125 C 688.753906 460.0625 683.054688 454.363281 676.089844 454.363281 C 669.125 454.363281 663.425781 460.0625 663.425781 467.03125 L 663.425781 517.691406 L 638.09375 517.691406 C 631.128906 517.691406 625.429688 523.390625 625.429688 530.355469 L 625.429688 600.015625 C 625.429688 645.609375 662.15625 682.339844 707.753906 682.339844 C 707.753906 682.339844 707.753906 727.300781 707.753906 727.300781 C 707.753906 734.898438 663.425781 727.300781 660.890625 726.667969 C 545.636719 701.96875 459.515625 608.878906 444.316406 496.792969 C 433.550781 501.226562 427.21875 510.722656 427.851562 521.488281 C 427.851562 525.921875 427.21875 530.355469 426.585938 534.15625 C 454.449219 642.441406 544.371094 729.832031 659.625 752.628906 Z M 659.625 752.628906 " fill-opacity="1" fill-rule="nonzero"/></g><g clip-path="url(#217dfb60d7)"><path fill="#003e52" d="M 963.589844 639.910156 C 943.324219 644.34375 929.394531 653.839844 926.859375 655.742188 C 921.160156 660.175781 914.195312 662.074219 907.863281 662.707031 C 867.332031 698.167969 816.039062 722.867188 759.046875 730.464844 C 759.046875 739.964844 756.511719 749.464844 750.179688 757.0625 C 837.570312 748.832031 913.5625 705.136719 963.589844 639.910156 Z M 963.589844 639.910156 " fill-opacity="1" fill-rule="nonzero"/></g><g clip-path="url(#dd9a638d17)"><path fill="#003e52" d="M 1035.78125 472.730469 C 1051.613281 474.628906 1067.445312 470.195312 1080.109375 460.695312 C 1101.007812 444.230469 1106.074219 418.269531 1113.671875 394.203125 C 1116.839844 384.074219 1120.636719 374.574219 1124.4375 366.339844 C 1126.335938 362.542969 1125.703125 358.109375 1123.804688 354.941406 C 1121.90625 351.777344 1118.105469 349.242188 1114.304688 348.609375 C 1050.347656 341.644531 1023.75 356.84375 1018.683594 360.640625 C 993.984375 375.839844 981.953125 401.804688 987.019531 429.035156 C 988.285156 436 990.1875 442.332031 993.351562 447.398438 C 988.921875 452.464844 974.355469 472.09375 973.089844 473.996094 C 971.820312 472.730469 971.1875 470.828125 969.921875 469.5625 C 964.855469 462.597656 959.15625 456.898438 954.089844 451.832031 C 956.625 446.765625 958.523438 441.066406 959.789062 434.734375 C 964.855469 407.503906 953.457031 382.171875 928.128906 366.339844 C 923.0625 363.175781 896.464844 347.34375 832.503906 354.308594 C 824.273438 354.941406 819.207031 364.441406 822.371094 372.039062 C 828.070312 385.339844 833.136719 399.269531 836.9375 413.835938 C 847.070312 446.765625 866.066406 479.0625 904.695312 479.0625 C 916.09375 479.0625 928.125 476.527344 937.625 470.195312 C 940.792969 468.296875 959.789062 498.691406 961.054688 500.59375 C 973.722656 524.023438 973.722656 549.351562 973.089844 575.316406 C 973.089844 579.117188 973.089844 583.550781 973.089844 587.980469 C 928.125 592.414062 897.097656 614.578125 896.464844 615.210938 C 890.765625 619.644531 889.496094 627.246094 893.929688 632.945312 C 898.363281 638.644531 905.960938 639.910156 911.664062 635.476562 C 930.027344 621.546875 954.722656 614.578125 977.519531 612.679688 C 1007.285156 610.78125 1036.414062 619.644531 1061.746094 636.109375 C 1067.445312 639.910156 1075.675781 638.011719 1079.476562 632.3125 C 1083.277344 626.609375 1081.375 618.378906 1075.675781 614.578125 C 1048.445312 596.847656 1022.484375 589.25 998.417969 587.980469 C 998.417969 584.183594 998.417969 580.382812 998.417969 576.582031 C 999.050781 549.351562 999.683594 524.65625 987.652344 498.058594 C 990.820312 492.359375 1007.285156 469.5625 1010.449219 465.128906 C 1018.050781 468.929688 1026.28125 471.460938 1035.78125 472.730469 Z M 1036.414062 379.007812 C 1050.347656 372.671875 1068.078125 371.40625 1083.277344 371.40625 C 1087.074219 371.40625 1090.875 371.40625 1094.675781 371.40625 C 1092.773438 375.839844 1091.507812 380.273438 1089.609375 385.339844 C 1083.277344 403.703125 1080.742188 427.132812 1064.277344 439.800781 C 1054.777344 447.398438 1041.480469 448.664062 1030.082031 444.867188 C 1031.347656 443.597656 1041.480469 434.734375 1045.914062 430.933594 C 1050.980469 426.5 1051.613281 418.269531 1046.546875 413.203125 C 1042.113281 408.136719 1033.882812 407.503906 1028.816406 412.570312 C 1023.75 417.003906 1018.683594 421.433594 1013.617188 426.5 C 1006.019531 408.136719 1019.949219 386.605469 1036.414062 379.007812 Z M 933.828125 434.101562 C 932.558594 432.832031 914.195312 420.167969 905.960938 412.570312 C 900.898438 408.136719 892.664062 408.769531 888.230469 413.835938 C 883.796875 418.902344 884.433594 427.132812 889.496094 431.566406 C 898.996094 439.800781 915.460938 451.832031 916.09375 452.464844 C 914.195312 453.097656 911.660156 453.730469 909.128906 453.730469 C 880 456.898438 868.601562 429.667969 862.269531 406.238281 C 859.734375 396.738281 856.570312 387.238281 852.769531 377.738281 C 873.03125 376.472656 897.097656 375.839844 914.828125 387.238281 C 930.660156 397.371094 938.890625 415.734375 933.828125 434.101562 Z M 933.828125 434.101562 " fill-opacity="1" fill-rule="nonzero"/></g></svg>