<svg xmlns="http://www.w3.org/2000/svg" xmlns:xlink="http://www.w3.org/1999/xlink" width="1920" zoomAndPan="magnify" viewBox="0 0 1440 809.999993" height="1080" preserveAspectRatio="xMidYMid meet" version="1.0"><defs><clipPath id="05738f4b29"><path d="M 351.019531 51.238281 L 675.019531 51.238281 L 675.019531 375.238281 L 351.019531 375.238281 Z M 351.019531 51.238281 " clip-rule="nonzero"/></clipPath></defs><path fill="#ffffff" d="M 360.078125 753.679688 C 355.636719 749.242188 355.472656 745.59375 359.472656 740.507812 C 362.398438 736.789062 363.167969 736.628906 379.875 736.226562 L 397.234375 735.8125 L 397.976562 683.074219 C 398.644531 635.523438 398.980469 629.933594 401.394531 626.257812 C 402.863281 624.015625 405.535156 621.640625 407.328125 620.976562 C 409.121094 620.316406 431.617188 620.300781 457.324219 620.921875 C 483.027344 621.5625 507.824219 622.136719 512.425781 622.191406 C 518.335938 622.261719 521.820312 623.121094 524.292969 625.125 L 527.796875 627.960938 L 529.28125 735.789062 L 553.5625 736.199219 C 570.210938 736.480469 578.492188 736.070312 579.898438 734.90625 C 581.601562 733.492188 581.949219 718.890625 581.949219 649.144531 C 581.949219 556.328125 581.628906 559.441406 591.265625 557.796875 C 599.816406 556.339844 687.773438 559.289062 691.195312 561.144531 C 692.933594 562.089844 694.9375 564.050781 695.644531 565.5 C 696.351562 566.953125 697.265625 605.859375 697.675781 651.964844 L 698.417969 735.789062 L 719.726562 736.207031 C 734.175781 736.488281 741.699219 736.070312 743.09375 734.910156 C 744.820312 733.480469 745.152344 712.695312 745.152344 606.464844 L 745.152344 479.730469 L 748.902344 475.976562 L 752.65625 472.222656 L 803.425781 473.125 C 831.351562 473.617188 858.308594 474.382812 863.328125 474.824219 C 879.542969 476.234375 877.832031 461.425781 878.679688 607.707031 L 879.421875 735.792969 L 920.964844 735.792969 L 921.707031 540.695312 C 922.390625 360.125 922.636719 345.246094 924.988281 340.953125 C 926.386719 338.398438 928.609375 335.894531 929.933594 335.386719 C 933.0625 334.1875 965.09375 334.214844 1004.914062 335.453125 L 1036.667969 336.441406 L 1044.847656 344.621094 L 1044.847656 539.675781 C 1044.847656 716.175781 1045.074219 734.820312 1047.195312 735.632812 C 1048.484375 736.128906 1056.785156 736.535156 1065.632812 736.535156 C 1081.25 736.535156 1081.816406 736.652344 1084.800781 740.441406 C 1088.835938 745.578125 1088.679688 749.214844 1084.234375 753.664062 L 1080.589844 757.304688 L 363.71875 757.304688 Z M 505.542969 689.816406 L 505.542969 643.824219 L 464.929688 642.621094 C 442.59375 641.960938 423.398438 641.773438 422.277344 642.207031 C 420.601562 642.847656 420.230469 651.257812 420.230469 688.785156 C 420.230469 713.96875 420.6875 735.03125 421.242188 735.585938 C 421.800781 736.140625 440.996094 736.421875 463.898438 736.207031 L 505.542969 735.8125 Z M 675.0625 658.453125 L 675.449219 581.09375 L 646.875 580.058594 C 631.160156 579.488281 614.964844 579.246094 610.882812 579.523438 L 603.464844 580.03125 L 603.078125 657.082031 C 602.777344 717.738281 603.078125 734.394531 604.5625 735.339844 C 605.589844 736 621.785156 736.375 640.554688 736.175781 L 674.679688 735.8125 Z M 856.0625 616.703125 C 856.394531 512.59375 856.164062 497.492188 854.242188 496.753906 C 853.035156 496.289062 832.832031 495.808594 809.355469 495.683594 L 766.664062 495.460938 L 766.28125 613.988281 C 766.003906 701.078125 766.351562 733.058594 767.597656 734.558594 C 768.976562 736.21875 777.289062 736.523438 812.484375 736.203125 L 855.683594 735.8125 Z M 1022.296875 734.769531 C 1024.949219 732.117188 1024.875 360.714844 1022.222656 358.570312 C 1021.128906 357.6875 1004.914062 356.855469 982.535156 356.535156 L 944.703125 355.996094 L 944.324219 544.417969 C 944.113281 648.050781 944.261719 733.675781 944.648438 734.699219 C 945.644531 737.308594 1019.691406 737.378906 1022.300781 734.769531 Z M 355.625 541.519531 C 351.097656 536.992188 351.007812 533.070312 355.324219 528.214844 C 358.148438 525.03125 362.867188 523.515625 386.109375 518.320312 C 459.007812 502.027344 529.421875 477.546875 595.167969 445.632812 C 679.753906 404.578125 748.371094 359.921875 814.878906 302.644531 C 857.96875 265.535156 921.953125 197.695312 974.886719 132.992188 C 985.773438 119.683594 1000.011719 102.65625 1006.527344 95.15625 C 1020.152344 79.480469 1020.003906 79.1875 1000.320312 82.921875 C 984.480469 85.925781 958.757812 85.941406 948.691406 82.976562 C 939.808594 80.339844 935.558594 74.683594 937.875 68.585938 C 940.269531 62.292969 943.222656 60.980469 951.777344 62.402344 C 967.332031 64.992188 989.40625 63.644531 1011.890625 58.730469 C 1036.738281 53.300781 1046.558594 52.890625 1053.296875 57.003906 C 1059.269531 60.640625 1059.472656 61.902344 1060.15625 99.351562 C 1060.566406 121.828125 1061.359375 131.601562 1063.414062 139.652344 C 1065.929688 149.480469 1065.953125 150.550781 1063.734375 153.933594 C 1060.339844 159.113281 1054.1875 160.339844 1049.410156 156.792969 C 1043.242188 152.222656 1040.183594 139.535156 1038.152344 110.109375 C 1037.601562 102.152344 1036.5625 95.640625 1035.839844 95.640625 C 1034.441406 95.640625 1012.449219 121.152344 979.316406 161.203125 C 909.542969 245.550781 843.410156 310.9375 778.535156 359.726562 C 679.496094 434.199219 563.023438 492.15625 446.195312 525.097656 C 416.730469 533.402344 409.609375 535.207031 381.828125 541.414062 C 361.050781 546.054688 360.140625 546.0625 355.625 541.542969 Z M 355.625 541.519531 " fill-opacity="1" fill-rule="nonzero"/><g clip-path="url(#05738f4b29)"><path fill="#ff914d" d="M 513.019531 80.695312 C 439.816406 80.695312 380.472656 140.035156 380.472656 213.238281 C 380.472656 286.441406 439.816406 345.785156 513.019531 345.785156 C 586.222656 345.785156 645.5625 286.441406 645.5625 213.238281 C 645.5625 140.035156 586.222656 80.695312 513.019531 80.695312 Z M 351.019531 213.238281 C 351.019531 123.769531 423.546875 51.238281 513.019531 51.238281 C 602.488281 51.238281 675.019531 123.769531 675.019531 213.238281 C 675.019531 302.707031 602.488281 375.238281 513.019531 375.238281 C 423.546875 375.238281 351.019531 302.707031 351.019531 213.238281 Z M 351.019531 213.238281 " fill-opacity="1" fill-rule="evenodd"/></g><path fill="#ff914d" d="M 532.066406 154.328125 C 501.792969 154.328125 476.199219 180.113281 476.199219 213.238281 C 476.199219 246.363281 501.792969 272.148438 532.066406 272.148438 C 541.253906 272.148438 549.902344 269.820312 557.546875 265.675781 L 571.578125 291.574219 C 559.773438 297.972656 546.316406 301.601562 532.066406 301.601562 C 484.363281 301.601562 446.746094 261.449219 446.746094 213.238281 C 446.746094 165.027344 484.363281 124.875 532.066406 124.875 C 546.316406 124.875 559.773438 128.503906 571.578125 134.902344 L 557.546875 160.800781 C 549.902344 156.65625 541.253906 154.328125 532.066406 154.328125 Z M 532.066406 154.328125 " fill-opacity="1" fill-rule="evenodd"/><path fill="#ff914d" d="M 432.019531 227.964844 L 535.109375 227.964844 L 535.109375 257.421875 L 432.019531 257.421875 Z M 432.019531 227.964844 " fill-opacity="1" fill-rule="evenodd"/><path fill="#ff914d" d="M 432.019531 169.058594 L 535.109375 169.058594 L 535.109375 198.511719 L 432.019531 198.511719 Z M 432.019531 169.058594 " fill-opacity="1" fill-rule="evenodd"/></svg>