<svg xmlns="http://www.w3.org/2000/svg" xmlns:xlink="http://www.w3.org/1999/xlink" width="1920" zoomAndPan="magnify" viewBox="0 0 1440 809.999993" height="1080" preserveAspectRatio="xMidYMid meet" version="1.0"><defs><clipPath id="4e92026a59"><path d="M 376 44.5625 L 1064 44.5625 L 1064 765.3125 L 376 765.3125 Z M 376 44.5625 " clip-rule="nonzero"/></clipPath><clipPath id="1cad92631b"><path d="M 424.910156 211.144531 L 661.910156 211.144531 L 661.910156 459.394531 L 424.910156 459.394531 Z M 424.910156 211.144531 " clip-rule="nonzero"/></clipPath><clipPath id="2cf3466bd4"><path d="M 817.308594 215.289062 L 956.058594 215.289062 L 956.058594 594.789062 L 817.308594 594.789062 Z M 817.308594 215.289062 " clip-rule="nonzero"/></clipPath></defs><g clip-path="url(#4e92026a59)"><path fill="#003e52" d="M 719.996094 44.957031 L 376.726562 170.804688 L 376.726562 628.980469 L 719.996094 766.273438 L 1063.265625 628.980469 L 1063.265625 170.804688 L 1056 168.144531 Z M 719.996094 68.53125 L 1041.121094 186.289062 L 1041.121094 613.972656 L 719.996094 742.4375 L 398.871094 613.972656 L 398.871094 186.289062 Z M 719.996094 78.890625 C 719.269531 78.890625 718.550781 78.960938 717.835938 79.101562 C 717.125 79.242188 716.429688 79.453125 715.757812 79.730469 C 715.085938 80.011719 714.449219 80.351562 713.84375 80.753906 C 713.238281 81.160156 712.679688 81.617188 712.167969 82.132812 C 711.652344 82.644531 711.191406 83.207031 710.789062 83.808594 C 710.386719 84.414062 710.042969 85.054688 709.765625 85.726562 C 709.488281 86.394531 709.277344 87.089844 709.136719 87.800781 C 708.996094 88.515625 708.921875 89.234375 708.921875 89.960938 C 708.921875 90.6875 708.992188 91.410156 709.136719 92.121094 C 709.277344 92.835938 709.488281 93.527344 709.765625 94.199219 C 710.042969 94.871094 710.386719 95.507812 710.789062 96.113281 C 711.191406 96.71875 711.652344 97.277344 712.167969 97.792969 C 712.679688 98.304688 713.238281 98.765625 713.84375 99.167969 C 714.449219 99.574219 715.085938 99.914062 715.757812 100.191406 C 716.429688 100.472656 717.121094 100.679688 717.835938 100.824219 C 718.550781 100.964844 719.269531 101.035156 719.996094 101.035156 C 720.722656 101.035156 721.445312 100.964844 722.15625 100.824219 C 722.871094 100.679688 723.5625 100.472656 724.234375 100.191406 C 724.90625 99.914062 725.542969 99.574219 726.148438 99.167969 C 726.753906 98.765625 727.3125 98.304688 727.828125 97.792969 C 728.339844 97.277344 728.800781 96.71875 729.203125 96.113281 C 729.605469 95.507812 729.949219 94.871094 730.226562 94.199219 C 730.503906 93.527344 730.714844 92.835938 730.855469 92.121094 C 731 91.410156 731.070312 90.6875 731.070312 89.960938 C 731.070312 89.234375 731 88.515625 730.855469 87.800781 C 730.714844 87.089844 730.503906 86.394531 730.226562 85.726562 C 729.949219 85.054688 729.605469 84.414062 729.203125 83.808594 C 728.800781 83.207031 728.339844 82.644531 727.828125 82.132812 C 727.3125 81.617188 726.753906 81.160156 726.148438 80.753906 C 725.542969 80.351562 724.90625 80.011719 724.234375 79.730469 C 723.5625 79.453125 722.871094 79.242188 722.15625 79.101562 C 721.445312 78.960938 720.722656 78.890625 719.996094 78.890625 Z M 719.996094 123.183594 C 719.269531 123.183594 718.550781 123.253906 717.835938 123.394531 C 717.125 123.535156 716.429688 123.746094 715.757812 124.023438 C 715.085938 124.304688 714.449219 124.644531 713.84375 125.046875 C 713.238281 125.453125 712.679688 125.910156 712.167969 126.425781 C 711.652344 126.9375 711.191406 127.5 710.789062 128.101562 C 710.386719 128.707031 710.042969 129.347656 709.765625 130.015625 C 709.488281 130.6875 709.277344 131.382812 709.136719 132.09375 C 708.996094 132.808594 708.921875 133.527344 708.921875 134.253906 C 708.921875 134.980469 708.992188 135.703125 709.136719 136.414062 C 709.277344 137.128906 709.488281 137.820312 709.765625 138.492188 C 710.042969 139.164062 710.386719 139.800781 710.789062 140.40625 C 711.191406 141.011719 711.652344 141.570312 712.167969 142.085938 C 712.679688 142.597656 713.238281 143.058594 713.84375 143.460938 C 714.449219 143.867188 715.085938 144.207031 715.757812 144.484375 C 716.429688 144.761719 717.121094 144.972656 717.835938 145.117188 C 718.550781 145.257812 719.269531 145.328125 719.996094 145.328125 C 720.722656 145.328125 721.445312 145.257812 722.15625 145.117188 C 722.871094 144.972656 723.5625 144.761719 724.234375 144.484375 C 724.90625 144.207031 725.542969 143.867188 726.148438 143.460938 C 726.753906 143.058594 727.3125 142.597656 727.828125 142.085938 C 728.339844 141.570312 728.800781 141.011719 729.203125 140.40625 C 729.605469 139.800781 729.949219 139.164062 730.226562 138.492188 C 730.503906 137.820312 730.714844 137.128906 730.855469 136.414062 C 731 135.703125 731.070312 134.980469 731.070312 134.253906 C 731.070312 133.527344 731 132.808594 730.855469 132.09375 C 730.714844 131.382812 730.503906 130.6875 730.226562 130.015625 C 729.949219 129.347656 729.605469 128.707031 729.203125 128.101562 C 728.800781 127.5 728.339844 126.9375 727.828125 126.425781 C 727.3125 125.910156 726.753906 125.453125 726.148438 125.046875 C 725.542969 124.644531 724.90625 124.304688 724.234375 124.023438 C 723.5625 123.746094 722.871094 123.535156 722.15625 123.394531 C 721.445312 123.253906 720.722656 123.183594 719.996094 123.183594 Z M 719.996094 167.476562 C 719.269531 167.476562 718.550781 167.546875 717.835938 167.6875 C 717.125 167.828125 716.429688 168.039062 715.757812 168.316406 C 715.085938 168.597656 714.449219 168.9375 713.84375 169.339844 C 713.238281 169.746094 712.679688 170.203125 712.167969 170.71875 C 711.652344 171.230469 711.191406 171.792969 710.789062 172.394531 C 710.386719 173 710.042969 173.640625 709.765625 174.308594 C 709.488281 174.980469 709.277344 175.675781 709.136719 176.386719 C 708.996094 177.101562 708.921875 177.820312 708.921875 178.546875 C 708.921875 179.273438 708.992188 179.996094 709.136719 180.707031 C 709.277344 181.421875 709.488281 182.113281 709.765625 182.785156 C 710.042969 183.457031 710.386719 184.09375 710.789062 184.699219 C 711.191406 185.304688 711.652344 185.863281 712.167969 186.378906 C 712.679688 186.890625 713.238281 187.351562 713.84375 187.753906 C 714.449219 188.160156 715.085938 188.5 715.757812 188.777344 C 716.429688 189.054688 717.121094 189.265625 717.835938 189.410156 C 718.550781 189.550781 719.269531 189.621094 719.996094 189.621094 C 720.722656 189.621094 721.445312 189.550781 722.15625 189.410156 C 722.871094 189.265625 723.5625 189.054688 724.234375 188.777344 C 724.90625 188.5 725.542969 188.160156 726.148438 187.753906 C 726.753906 187.351562 727.3125 186.890625 727.828125 186.378906 C 728.339844 185.863281 728.800781 185.304688 729.203125 184.699219 C 729.605469 184.09375 729.949219 183.457031 730.226562 182.785156 C 730.503906 182.113281 730.714844 181.421875 730.855469 180.707031 C 731 179.996094 731.070312 179.273438 731.070312 178.546875 C 731.070312 177.820312 731 177.101562 730.855469 176.386719 C 730.714844 175.675781 730.503906 174.980469 730.226562 174.308594 C 729.949219 173.640625 729.605469 173 729.203125 172.394531 C 728.800781 171.792969 728.339844 171.230469 727.828125 170.71875 C 727.3125 170.203125 726.753906 169.746094 726.148438 169.339844 C 725.542969 168.9375 724.90625 168.597656 724.234375 168.316406 C 723.5625 168.039062 722.871094 167.828125 722.15625 167.6875 C 721.445312 167.546875 720.722656 167.476562 719.996094 167.476562 Z M 719.996094 211.769531 C 719.269531 211.769531 718.550781 211.839844 717.835938 211.980469 C 717.125 212.121094 716.429688 212.332031 715.757812 212.609375 C 715.085938 212.890625 714.449219 213.230469 713.84375 213.632812 C 713.238281 214.039062 712.679688 214.496094 712.167969 215.011719 C 711.652344 215.523438 711.191406 216.085938 710.789062 216.6875 C 710.386719 217.292969 710.042969 217.933594 709.765625 218.601562 C 709.488281 219.273438 709.277344 219.96875 709.136719 220.679688 C 708.996094 221.394531 708.921875 222.113281 708.921875 222.839844 C 708.921875 223.566406 708.992188 224.289062 709.136719 225 C 709.277344 225.714844 709.488281 226.40625 709.765625 227.078125 C 710.042969 227.75 710.386719 228.386719 710.789062 228.992188 C 711.191406 229.597656 711.652344 230.15625 712.167969 230.671875 C 712.679688 231.183594 713.238281 231.644531 713.84375 232.046875 C 714.449219 232.453125 715.085938 232.792969 715.757812 233.070312 C 716.429688 233.347656 717.121094 233.558594 717.835938 233.703125 C 718.550781 233.84375 719.269531 233.914062 719.996094 233.914062 C 720.722656 233.914062 721.445312 233.84375 722.15625 233.703125 C 722.871094 233.558594 723.5625 233.347656 724.234375 233.070312 C 724.90625 232.792969 725.542969 232.453125 726.148438 232.046875 C 726.753906 231.644531 727.3125 231.183594 727.828125 230.671875 C 728.339844 230.15625 728.800781 229.597656 729.203125 228.992188 C 729.605469 228.386719 729.949219 227.75 730.226562 227.078125 C 730.503906 226.40625 730.714844 225.714844 730.855469 225 C 731 224.289062 731.070312 223.566406 731.070312 222.839844 C 731.070312 222.113281 731 221.394531 730.855469 220.679688 C 730.714844 219.96875 730.503906 219.273438 730.226562 218.601562 C 729.949219 217.929688 729.605469 217.292969 729.203125 216.6875 C 728.800781 216.085938 728.339844 215.523438 727.828125 215.011719 C 727.3125 214.496094 726.753906 214.039062 726.148438 213.632812 C 725.542969 213.230469 724.90625 212.890625 724.234375 212.609375 C 723.5625 212.332031 722.871094 212.121094 722.15625 211.980469 C 721.445312 211.839844 720.722656 211.769531 719.996094 211.769531 Z M 642.484375 231.339844 L 465.3125 300.871094 L 465.3125 451.679688 L 480.601562 445.367188 L 642.484375 378.710938 Z M 819.65625 251.195312 L 819.65625 540.394531 L 842.34375 549.457031 L 843.378906 549.867188 L 884.496094 566.328125 L 884.992188 566.523438 L 885.53125 566.738281 L 926.644531 583.175781 L 927.707031 583.609375 L 952.535156 593.535156 L 952.535156 300.722656 Z M 719.996094 256.0625 C 719.269531 256.0625 718.550781 256.132812 717.835938 256.273438 C 717.125 256.414062 716.429688 256.625 715.757812 256.902344 C 715.085938 257.183594 714.449219 257.523438 713.84375 257.925781 C 713.238281 258.332031 712.679688 258.789062 712.167969 259.304688 C 711.652344 259.816406 711.191406 260.378906 710.789062 260.980469 C 710.386719 261.585938 710.042969 262.222656 709.765625 262.894531 C 709.488281 263.566406 709.277344 264.261719 709.136719 264.972656 C 708.996094 265.6875 708.921875 266.40625 708.921875 267.132812 C 708.921875 267.859375 708.992188 268.582031 709.136719 269.292969 C 709.277344 270.007812 709.488281 270.699219 709.765625 271.371094 C 710.042969 272.042969 710.386719 272.679688 710.789062 273.285156 C 711.191406 273.890625 711.652344 274.449219 712.167969 274.964844 C 712.679688 275.476562 713.238281 275.9375 713.84375 276.339844 C 714.449219 276.746094 715.085938 277.085938 715.757812 277.363281 C 716.429688 277.640625 717.121094 277.851562 717.835938 277.996094 C 718.550781 278.136719 719.269531 278.207031 719.996094 278.207031 C 720.722656 278.207031 721.445312 278.136719 722.15625 277.996094 C 722.871094 277.851562 723.5625 277.640625 724.234375 277.363281 C 724.90625 277.085938 725.542969 276.746094 726.148438 276.339844 C 726.753906 275.9375 727.3125 275.476562 727.828125 274.964844 C 728.339844 274.449219 728.800781 273.890625 729.203125 273.285156 C 729.605469 272.679688 729.949219 272.042969 730.226562 271.371094 C 730.503906 270.699219 730.714844 270.007812 730.855469 269.292969 C 731 268.582031 731.070312 267.859375 731.070312 267.132812 C 731.070312 266.40625 731 265.6875 730.855469 264.972656 C 730.714844 264.261719 730.503906 263.566406 730.226562 262.894531 C 729.949219 262.222656 729.605469 261.585938 729.203125 260.980469 C 728.800781 260.378906 728.339844 259.816406 727.828125 259.304688 C 727.3125 258.789062 726.753906 258.332031 726.148438 257.925781 C 725.542969 257.523438 724.90625 257.183594 724.234375 256.902344 C 723.5625 256.625 722.871094 256.414062 722.15625 256.273438 C 721.445312 256.132812 720.722656 256.0625 719.996094 256.0625 Z M 620.335938 263.824219 L 620.335938 363.894531 L 487.457031 418.613281 L 487.457031 315.96875 Z M 841.800781 283.09375 L 930.386719 316.097656 L 930.386719 560.832031 L 893.773438 546.171875 L 893.75 546.171875 L 892.710938 545.757812 L 850.648438 528.910156 L 850.5625 528.890625 L 841.800781 525.386719 Z M 719.996094 300.355469 C 719.269531 300.355469 718.550781 300.425781 717.835938 300.566406 C 717.125 300.707031 716.429688 300.917969 715.757812 301.195312 C 715.085938 301.476562 714.449219 301.816406 713.84375 302.21875 C 713.238281 302.625 712.679688 303.082031 712.167969 303.597656 C 711.652344 304.109375 711.191406 304.671875 710.789062 305.273438 C 710.386719 305.878906 710.042969 306.515625 709.765625 307.1875 C 709.488281 307.859375 709.277344 308.554688 709.136719 309.265625 C 708.996094 309.980469 708.921875 310.699219 708.921875 311.425781 C 708.921875 312.152344 708.992188 312.875 709.136719 313.585938 C 709.277344 314.300781 709.488281 314.992188 709.765625 315.664062 C 710.042969 316.335938 710.386719 316.972656 710.789062 317.578125 C 711.191406 318.183594 711.652344 318.742188 712.167969 319.257812 C 712.679688 319.769531 713.238281 320.230469 713.84375 320.632812 C 714.449219 321.039062 715.085938 321.378906 715.757812 321.65625 C 716.429688 321.933594 717.121094 322.144531 717.835938 322.289062 C 718.550781 322.429688 719.269531 322.5 719.996094 322.5 C 720.722656 322.5 721.445312 322.429688 722.15625 322.289062 C 722.871094 322.144531 723.5625 321.933594 724.234375 321.65625 C 724.90625 321.378906 725.542969 321.039062 726.148438 320.632812 C 726.753906 320.230469 727.3125 319.769531 727.828125 319.257812 C 728.339844 318.742188 728.800781 318.183594 729.203125 317.578125 C 729.605469 316.972656 729.949219 316.335938 730.226562 315.664062 C 730.503906 314.992188 730.714844 314.300781 730.855469 313.585938 C 731 312.875 731.070312 312.152344 731.070312 311.425781 C 731.070312 310.699219 731 309.980469 730.855469 309.265625 C 730.714844 308.554688 730.503906 307.859375 730.226562 307.1875 C 729.949219 306.515625 729.605469 305.878906 729.203125 305.273438 C 728.800781 304.671875 728.339844 304.109375 727.828125 303.597656 C 727.3125 303.082031 726.753906 302.625 726.148438 302.21875 C 725.542969 301.816406 724.90625 301.476562 724.234375 301.195312 C 723.5625 300.917969 722.871094 300.707031 722.15625 300.566406 C 721.445312 300.425781 720.722656 300.355469 719.996094 300.355469 Z M 719.996094 344.644531 C 719.269531 344.644531 718.550781 344.71875 717.835938 344.859375 C 717.125 345 716.429688 345.210938 715.757812 345.488281 C 715.085938 345.765625 714.449219 346.109375 713.84375 346.511719 C 713.238281 346.917969 712.679688 347.375 712.167969 347.890625 C 711.652344 348.402344 711.191406 348.964844 710.789062 349.566406 C 710.386719 350.171875 710.042969 350.808594 709.765625 351.480469 C 709.488281 352.152344 709.277344 352.847656 709.136719 353.558594 C 708.996094 354.273438 708.921875 354.992188 708.921875 355.71875 C 708.921875 356.445312 708.992188 357.167969 709.136719 357.878906 C 709.277344 358.59375 709.488281 359.285156 709.765625 359.957031 C 710.042969 360.628906 710.386719 361.265625 710.789062 361.871094 C 711.191406 362.476562 711.652344 363.035156 712.167969 363.550781 C 712.679688 364.0625 713.238281 364.523438 713.84375 364.925781 C 714.449219 365.332031 715.085938 365.671875 715.757812 365.949219 C 716.429688 366.226562 717.121094 366.4375 717.835938 366.578125 C 718.550781 366.722656 719.269531 366.792969 719.996094 366.792969 C 720.722656 366.792969 721.445312 366.722656 722.15625 366.578125 C 722.871094 366.4375 723.5625 366.226562 724.234375 365.949219 C 724.90625 365.671875 725.542969 365.332031 726.148438 364.925781 C 726.753906 364.523438 727.3125 364.0625 727.828125 363.550781 C 728.339844 363.035156 728.800781 362.476562 729.203125 361.871094 C 729.605469 361.265625 729.949219 360.628906 730.226562 359.957031 C 730.503906 359.285156 730.714844 358.59375 730.855469 357.878906 C 731 357.167969 731.070312 356.445312 731.070312 355.71875 C 731.070312 354.992188 731 354.273438 730.855469 353.558594 C 730.714844 352.847656 730.503906 352.152344 730.226562 351.480469 C 729.949219 350.808594 729.605469 350.171875 729.203125 349.566406 C 728.800781 348.964844 728.339844 348.402344 727.828125 347.890625 C 727.3125 347.375 726.753906 346.917969 726.148438 346.511719 C 725.542969 346.109375 724.90625 345.765625 724.234375 345.488281 C 723.5625 345.210938 722.871094 345 722.15625 344.859375 C 721.445312 344.71875 720.722656 344.644531 719.996094 344.644531 Z M 719.996094 388.9375 C 719.269531 388.9375 718.550781 389.011719 717.835938 389.152344 C 717.125 389.292969 716.429688 389.503906 715.757812 389.78125 C 715.085938 390.058594 714.449219 390.402344 713.84375 390.804688 C 713.238281 391.210938 712.679688 391.667969 712.167969 392.183594 C 711.652344 392.695312 711.191406 393.257812 710.789062 393.859375 C 710.386719 394.464844 710.042969 395.101562 709.765625 395.773438 C 709.488281 396.445312 709.277344 397.140625 709.136719 397.851562 C 708.996094 398.566406 708.921875 399.285156 708.921875 400.011719 C 708.921875 400.738281 708.992188 401.460938 709.136719 402.171875 C 709.277344 402.886719 709.488281 403.578125 709.765625 404.25 C 710.042969 404.921875 710.386719 405.558594 710.789062 406.164062 C 711.191406 406.769531 711.652344 407.328125 712.167969 407.84375 C 712.679688 408.355469 713.238281 408.816406 713.84375 409.21875 C 714.449219 409.625 715.085938 409.964844 715.757812 410.242188 C 716.429688 410.519531 717.121094 410.730469 717.835938 410.871094 C 718.550781 411.015625 719.269531 411.085938 719.996094 411.085938 C 720.722656 411.085938 721.445312 411.015625 722.15625 410.871094 C 722.871094 410.730469 723.5625 410.519531 724.234375 410.242188 C 724.90625 409.964844 725.542969 409.625 726.148438 409.21875 C 726.753906 408.816406 727.3125 408.355469 727.828125 407.84375 C 728.339844 407.328125 728.800781 406.769531 729.203125 406.164062 C 729.605469 405.558594 729.949219 404.921875 730.226562 404.25 C 730.503906 403.578125 730.714844 402.886719 730.855469 402.171875 C 731 401.460938 731.070312 400.738281 731.070312 400.011719 C 731.070312 399.285156 731 398.566406 730.855469 397.851562 C 730.714844 397.140625 730.503906 396.445312 730.226562 395.773438 C 729.949219 395.101562 729.605469 394.464844 729.203125 393.859375 C 728.800781 393.257812 728.339844 392.695312 727.828125 392.183594 C 727.3125 391.667969 726.753906 391.210938 726.148438 390.804688 C 725.542969 390.402344 724.90625 390.058594 724.234375 389.78125 C 723.5625 389.503906 722.871094 389.292969 722.15625 389.152344 C 721.445312 389.011719 720.722656 388.9375 719.996094 388.9375 Z M 719.996094 433.230469 C 719.269531 433.230469 718.550781 433.304688 717.835938 433.445312 C 717.125 433.585938 716.429688 433.796875 715.757812 434.074219 C 715.085938 434.351562 714.449219 434.695312 713.84375 435.097656 C 713.238281 435.503906 712.679688 435.960938 712.167969 436.476562 C 711.652344 436.988281 711.191406 437.550781 710.789062 438.152344 C 710.386719 438.757812 710.042969 439.394531 709.765625 440.066406 C 709.488281 440.738281 709.277344 441.433594 709.136719 442.144531 C 708.996094 442.859375 708.921875 443.578125 708.921875 444.304688 C 708.921875 445.03125 708.992188 445.753906 709.136719 446.464844 C 709.277344 447.179688 709.488281 447.871094 709.765625 448.542969 C 710.042969 449.214844 710.386719 449.851562 710.789062 450.457031 C 711.191406 451.0625 711.652344 451.621094 712.167969 452.136719 C 712.679688 452.648438 713.238281 453.109375 713.84375 453.511719 C 714.449219 453.917969 715.085938 454.257812 715.757812 454.535156 C 716.429688 454.8125 717.121094 455.023438 717.835938 455.164062 C 718.550781 455.308594 719.269531 455.378906 719.996094 455.378906 C 720.722656 455.378906 721.445312 455.308594 722.15625 455.164062 C 722.871094 455.023438 723.5625 454.8125 724.234375 454.535156 C 724.90625 454.257812 725.542969 453.917969 726.148438 453.511719 C 726.753906 453.109375 727.3125 452.648438 727.828125 452.136719 C 728.339844 451.621094 728.800781 451.0625 729.203125 450.457031 C 729.605469 449.851562 729.949219 449.214844 730.226562 448.542969 C 730.503906 447.871094 730.714844 447.179688 730.855469 446.464844 C 731 445.753906 731.070312 445.03125 731.070312 444.304688 C 731.070312 443.578125 731 442.859375 730.855469 442.144531 C 730.714844 441.433594 730.503906 440.738281 730.226562 440.066406 C 729.949219 439.394531 729.605469 438.757812 729.203125 438.152344 C 728.800781 437.550781 728.339844 436.988281 727.828125 436.476562 C 727.3125 435.960938 726.753906 435.503906 726.148438 435.097656 C 725.542969 434.695312 724.90625 434.351562 724.234375 434.074219 C 723.5625 433.796875 722.871094 433.585938 722.15625 433.445312 C 721.445312 433.304688 720.722656 433.230469 719.996094 433.230469 Z M 719.714844 477.523438 L 715.886719 478.324219 L 714.847656 478.734375 L 714.503906 479.125 L 714.222656 479.148438 L 713.59375 480.140625 L 708.273438 486.15625 L 710.265625 495.863281 L 713.445312 497.359375 L 715.886719 498.871094 L 716.902344 499.28125 L 717.464844 499.238281 L 719.261719 500.082031 L 723.089844 499.28125 L 724.105469 498.871094 L 724.277344 498.675781 L 726.808594 498.460938 L 732.042969 490.046875 L 728.453125 480.789062 L 725.144531 478.734375 L 724.105469 478.324219 L 721.8125 478.519531 Z M 677.5625 494.394531 L 673.734375 495.171875 L 672.699219 495.585938 L 666.121094 503.003906 L 668.113281 512.734375 L 677.109375 516.929688 L 680.9375 516.152344 L 681.953125 515.742188 L 688.550781 508.324219 L 686.539062 498.613281 Z M 766.257812 495.171875 L 756.375 496.015625 L 751.117188 504.429688 L 754.730469 513.6875 L 758.039062 515.742188 L 759.054688 516.152344 L 768.960938 515.328125 L 774.195312 506.894531 L 770.605469 497.660156 L 767.296875 495.585938 Z M 635.390625 511.242188 L 631.582031 512.042969 L 630.546875 512.453125 L 623.972656 519.871094 L 625.960938 529.582031 L 634.957031 533.800781 L 638.765625 533.019531 L 639.800781 532.609375 L 646.398438 525.171875 L 644.386719 515.460938 Z M 808.410156 512.042969 L 798.527344 512.863281 L 793.269531 521.300781 L 796.882812 530.535156 L 800.191406 532.609375 L 801.230469 533.019531 L 811.113281 532.175781 L 816.347656 523.765625 L 812.757812 514.507812 L 809.449219 512.453125 Z M 593.238281 528.113281 L 589.433594 528.890625 L 588.394531 529.324219 L 581.820312 536.742188 L 583.808594 546.453125 L 592.804688 550.667969 L 596.613281 549.867188 L 597.648438 549.457031 L 604.226562 542.039062 L 602.234375 532.328125 Z M 551.085938 544.980469 L 547.28125 545.757812 L 546.242188 546.171875 L 539.667969 553.589844 L 541.65625 563.320312 L 550.652344 567.515625 L 554.460938 566.738281 L 555.5 566.328125 L 562.074219 558.910156 L 560.082031 549.175781 Z M 508.933594 561.828125 L 505.128906 562.628906 L 504.089844 563.039062 L 497.515625 570.457031 L 499.503906 580.167969 L 508.503906 584.386719 L 512.308594 583.609375 L 513.347656 583.175781 L 519.921875 575.757812 L 517.933594 566.046875 Z M 466.78125 578.699219 L 462.953125 579.476562 L 461.9375 579.886719 L 455.34375 587.328125 L 457.351562 597.039062 L 466.351562 601.253906 L 470.15625 600.457031 L 471.195312 600.042969 L 477.769531 592.625 L 475.78125 582.914062 Z M 977.039062 579.476562 L 967.132812 580.320312 L 961.898438 588.734375 L 965.488281 597.988281 L 968.796875 600.042969 L 969.835938 600.457031 L 979.71875 599.632812 L 984.976562 591.199219 L 981.363281 581.964844 L 978.054688 579.886719 Z M 424.632812 595.566406 L 420.804688 596.347656 L 419.785156 596.757812 L 413.191406 604.175781 L 415.203125 613.886719 L 424.175781 618.101562 L 428.003906 617.324219 L 429.042969 616.914062 L 435.617188 609.496094 L 433.628906 599.761719 Z M 1019.191406 596.347656 L 1009.285156 597.167969 L 1004.050781 605.601562 L 1007.640625 614.835938 L 1010.949219 616.914062 L 1011.988281 617.324219 L 1021.871094 616.480469 L 1027.128906 608.066406 L 1023.515625 598.832031 L 1020.207031 596.757812 Z M 1019.191406 596.347656 " fill-opacity="1" fill-rule="nonzero"/></g><g clip-path="url(#1cad92631b)"><path fill="#ff914d" d="M 720.265625 45.226562 L 376.996094 171.074219 L 376.996094 629.25 L 720.265625 766.542969 L 1063.535156 629.25 L 1063.535156 171.074219 L 1056.269531 168.414062 Z M 720.265625 68.796875 L 1041.390625 186.558594 L 1041.390625 614.242188 L 720.265625 742.707031 L 399.140625 614.242188 L 399.140625 186.558594 Z M 720.265625 79.15625 C 719.539062 79.15625 718.820312 79.230469 718.105469 79.371094 C 717.390625 79.511719 716.699219 79.722656 716.027344 80 C 715.355469 80.277344 714.71875 80.621094 714.113281 81.023438 C 713.507812 81.429688 712.949219 81.886719 712.4375 82.402344 C 711.921875 82.914062 711.460938 83.476562 711.058594 84.078125 C 710.65625 84.683594 710.3125 85.320312 710.035156 85.992188 C 709.757812 86.664062 709.546875 87.359375 709.40625 88.070312 C 709.261719 88.785156 709.191406 89.503906 709.191406 90.230469 C 709.191406 90.957031 709.261719 91.679688 709.40625 92.390625 C 709.546875 93.105469 709.757812 93.796875 710.035156 94.46875 C 710.3125 95.140625 710.65625 95.777344 711.058594 96.382812 C 711.460938 96.988281 711.921875 97.546875 712.4375 98.0625 C 712.949219 98.574219 713.507812 99.035156 714.113281 99.4375 C 714.71875 99.84375 715.355469 100.183594 716.027344 100.460938 C 716.699219 100.738281 717.390625 100.949219 718.105469 101.089844 C 718.820312 101.234375 719.539062 101.304688 720.265625 101.304688 C 720.992188 101.304688 721.710938 101.234375 722.425781 101.089844 C 723.140625 100.949219 723.832031 100.738281 724.503906 100.460938 C 725.175781 100.183594 725.8125 99.84375 726.417969 99.4375 C 727.023438 99.035156 727.582031 98.574219 728.09375 98.0625 C 728.609375 97.546875 729.070312 96.988281 729.472656 96.382812 C 729.875 95.777344 730.21875 95.140625 730.496094 94.46875 C 730.773438 93.796875 730.984375 93.105469 731.125 92.390625 C 731.269531 91.679688 731.339844 90.957031 731.339844 90.230469 C 731.339844 89.503906 731.269531 88.785156 731.125 88.070312 C 730.984375 87.359375 730.773438 86.664062 730.496094 85.992188 C 730.21875 85.320312 729.875 84.683594 729.472656 84.078125 C 729.070312 83.476562 728.609375 82.914062 728.09375 82.402344 C 727.582031 81.886719 727.023438 81.429688 726.417969 81.023438 C 725.8125 80.621094 725.175781 80.277344 724.503906 80 C 723.832031 79.722656 723.140625 79.511719 722.425781 79.371094 C 721.710938 79.230469 720.992188 79.15625 720.265625 79.15625 Z M 720.265625 123.449219 C 719.539062 123.449219 718.820312 123.523438 718.105469 123.664062 C 717.390625 123.804688 716.699219 124.015625 716.027344 124.292969 C 715.355469 124.570312 714.71875 124.914062 714.113281 125.316406 C 713.507812 125.722656 712.949219 126.179688 712.4375 126.695312 C 711.921875 127.207031 711.460938 127.769531 711.058594 128.371094 C 710.65625 128.976562 710.3125 129.613281 710.035156 130.285156 C 709.757812 130.957031 709.546875 131.652344 709.40625 132.363281 C 709.261719 133.078125 709.191406 133.796875 709.191406 134.523438 C 709.191406 135.25 709.261719 135.972656 709.40625 136.683594 C 709.546875 137.398438 709.757812 138.089844 710.035156 138.761719 C 710.3125 139.433594 710.65625 140.070312 711.058594 140.675781 C 711.460938 141.28125 711.921875 141.839844 712.4375 142.355469 C 712.949219 142.867188 713.507812 143.328125 714.113281 143.730469 C 714.71875 144.136719 715.355469 144.476562 716.027344 144.753906 C 716.699219 145.03125 717.390625 145.242188 718.105469 145.382812 C 718.820312 145.527344 719.539062 145.597656 720.265625 145.597656 C 720.992188 145.597656 721.710938 145.527344 722.425781 145.382812 C 723.140625 145.242188 723.832031 145.03125 724.503906 144.753906 C 725.175781 144.476562 725.8125 144.136719 726.417969 143.730469 C 727.023438 143.328125 727.582031 142.867188 728.09375 142.355469 C 728.609375 141.839844 729.070312 141.28125 729.472656 140.675781 C 729.875 140.070312 730.21875 139.433594 730.496094 138.761719 C 730.773438 138.089844 730.984375 137.398438 731.125 136.683594 C 731.269531 135.972656 731.339844 135.25 731.339844 134.523438 C 731.339844 133.796875 731.269531 133.078125 731.125 132.363281 C 730.984375 131.652344 730.773438 130.957031 730.496094 130.285156 C 730.21875 129.613281 729.875 128.976562 729.472656 128.371094 C 729.070312 127.769531 728.609375 127.207031 728.09375 126.695312 C 727.582031 126.179688 727.023438 125.722656 726.417969 125.316406 C 725.8125 124.914062 725.175781 124.570312 724.503906 124.292969 C 723.832031 124.015625 723.140625 123.804688 722.425781 123.664062 C 721.710938 123.523438 720.992188 123.449219 720.265625 123.449219 Z M 720.265625 167.742188 C 719.539062 167.742188 718.820312 167.816406 718.105469 167.957031 C 717.390625 168.097656 716.699219 168.308594 716.027344 168.585938 C 715.355469 168.863281 714.71875 169.207031 714.113281 169.609375 C 713.507812 170.015625 712.949219 170.472656 712.4375 170.988281 C 711.921875 171.5 711.460938 172.0625 711.058594 172.664062 C 710.65625 173.269531 710.3125 173.90625 710.035156 174.578125 C 709.757812 175.25 709.546875 175.945312 709.40625 176.65625 C 709.261719 177.371094 709.191406 178.089844 709.191406 178.816406 C 709.191406 179.542969 709.261719 180.265625 709.40625 180.976562 C 709.546875 181.691406 709.757812 182.382812 710.035156 183.054688 C 710.3125 183.726562 710.65625 184.363281 711.058594 184.96875 C 711.460938 185.574219 711.921875 186.132812 712.4375 186.648438 C 712.949219 187.160156 713.507812 187.621094 714.113281 188.023438 C 714.71875 188.429688 715.355469 188.769531 716.027344 189.046875 C 716.699219 189.324219 717.390625 189.535156 718.105469 189.675781 C 718.820312 189.820312 719.539062 189.890625 720.265625 189.890625 C 720.992188 189.890625 721.710938 189.820312 722.425781 189.675781 C 723.140625 189.535156 723.832031 189.324219 724.503906 189.046875 C 725.175781 188.769531 725.8125 188.429688 726.417969 188.023438 C 727.023438 187.621094 727.582031 187.160156 728.09375 186.648438 C 728.609375 186.132812 729.070312 185.574219 729.472656 184.96875 C 729.875 184.363281 730.21875 183.726562 730.496094 183.054688 C 730.773438 182.382812 730.984375 181.691406 731.125 180.976562 C 731.269531 180.265625 731.339844 179.542969 731.339844 178.816406 C 731.339844 178.089844 731.269531 177.371094 731.125 176.65625 C 730.984375 175.945312 730.773438 175.25 730.496094 174.578125 C 730.21875 173.90625 729.875 173.269531 729.472656 172.664062 C 729.070312 172.0625 728.609375 171.5 728.09375 170.988281 C 727.582031 170.472656 727.023438 170.015625 726.417969 169.609375 C 725.8125 169.207031 725.175781 168.863281 724.503906 168.585938 C 723.832031 168.308594 723.140625 168.097656 722.425781 167.957031 C 721.710938 167.816406 720.992188 167.742188 720.265625 167.742188 Z M 720.265625 212.035156 C 719.539062 212.035156 718.820312 212.109375 718.105469 212.25 C 717.390625 212.390625 716.699219 212.601562 716.027344 212.878906 C 715.355469 213.15625 714.71875 213.5 714.113281 213.902344 C 713.507812 214.308594 712.949219 214.765625 712.4375 215.28125 C 711.921875 215.792969 711.460938 216.355469 711.058594 216.957031 C 710.65625 217.5625 710.3125 218.199219 710.035156 218.871094 C 709.757812 219.542969 709.546875 220.238281 709.40625 220.949219 C 709.261719 221.664062 709.191406 222.382812 709.191406 223.109375 C 709.191406 223.835938 709.261719 224.558594 709.40625 225.269531 C 709.546875 225.984375 709.757812 226.675781 710.035156 227.347656 C 710.3125 228.019531 710.65625 228.65625 711.058594 229.261719 C 711.460938 229.867188 711.921875 230.425781 712.4375 230.941406 C 712.949219 231.453125 713.507812 231.914062 714.113281 232.316406 C 714.71875 232.722656 715.355469 233.0625 716.027344 233.339844 C 716.699219 233.617188 717.390625 233.828125 718.105469 233.96875 C 718.820312 234.113281 719.539062 234.183594 720.265625 234.183594 C 720.992188 234.183594 721.710938 234.113281 722.425781 233.96875 C 723.140625 233.828125 723.832031 233.617188 724.503906 233.339844 C 725.175781 233.0625 725.8125 232.722656 726.417969 232.316406 C 727.023438 231.914062 727.582031 231.453125 728.09375 230.941406 C 728.609375 230.425781 729.070312 229.867188 729.472656 229.261719 C 729.875 228.65625 730.21875 228.019531 730.496094 227.347656 C 730.773438 226.675781 730.984375 225.984375 731.125 225.269531 C 731.269531 224.558594 731.339844 223.835938 731.339844 223.109375 C 731.339844 222.382812 731.269531 221.664062 731.125 220.949219 C 730.984375 220.238281 730.773438 219.542969 730.496094 218.871094 C 730.21875 218.199219 729.875 217.5625 729.472656 216.957031 C 729.070312 216.355469 728.609375 215.792969 728.09375 215.28125 C 727.582031 214.765625 727.023438 214.308594 726.417969 213.902344 C 725.8125 213.5 725.175781 213.15625 724.503906 212.878906 C 723.832031 212.601562 723.140625 212.390625 722.425781 212.25 C 721.710938 212.109375 720.992188 212.035156 720.265625 212.035156 Z M 642.753906 231.609375 L 465.582031 301.140625 L 465.582031 451.949219 L 480.871094 445.632812 L 642.753906 378.980469 Z M 819.925781 251.464844 L 819.925781 540.664062 L 842.613281 549.726562 L 843.648438 550.136719 L 884.761719 566.597656 L 885.261719 566.792969 L 885.800781 567.007812 L 926.914062 583.445312 L 927.976562 583.875 L 952.804688 593.804688 L 952.804688 300.992188 Z M 720.265625 256.328125 C 719.539062 256.328125 718.820312 256.402344 718.105469 256.542969 C 717.390625 256.683594 716.699219 256.894531 716.027344 257.171875 C 715.355469 257.449219 714.71875 257.792969 714.113281 258.195312 C 713.507812 258.601562 712.949219 259.058594 712.4375 259.574219 C 711.921875 260.085938 711.460938 260.644531 711.058594 261.25 C 710.65625 261.855469 710.3125 262.492188 710.035156 263.164062 C 709.757812 263.835938 709.546875 264.53125 709.40625 265.242188 C 709.261719 265.957031 709.191406 266.675781 709.191406 267.402344 C 709.191406 268.128906 709.261719 268.851562 709.40625 269.5625 C 709.546875 270.277344 709.757812 270.96875 710.035156 271.640625 C 710.3125 272.3125 710.65625 272.949219 711.058594 273.554688 C 711.460938 274.160156 711.921875 274.71875 712.4375 275.234375 C 712.949219 275.746094 713.507812 276.207031 714.113281 276.609375 C 714.71875 277.015625 715.355469 277.355469 716.027344 277.632812 C 716.699219 277.910156 717.390625 278.121094 718.105469 278.261719 C 718.820312 278.40625 719.539062 278.476562 720.265625 278.476562 C 720.992188 278.476562 721.710938 278.40625 722.425781 278.261719 C 723.140625 278.121094 723.832031 277.910156 724.503906 277.632812 C 725.175781 277.355469 725.8125 277.015625 726.417969 276.609375 C 727.023438 276.207031 727.582031 275.746094 728.09375 275.234375 C 728.609375 274.71875 729.070312 274.160156 729.472656 273.554688 C 729.875 272.949219 730.21875 272.3125 730.496094 271.640625 C 730.773438 270.96875 730.984375 270.277344 731.125 269.5625 C 731.269531 268.851562 731.339844 268.128906 731.339844 267.402344 C 731.339844 266.675781 731.269531 265.957031 731.125 265.242188 C 730.984375 264.53125 730.773438 263.835938 730.496094 263.164062 C 730.21875 262.492188 729.875 261.855469 729.472656 261.25 C 729.070312 260.644531 728.609375 260.085938 728.09375 259.574219 C 727.582031 259.058594 727.023438 258.601562 726.417969 258.195312 C 725.8125 257.792969 725.175781 257.449219 724.503906 257.171875 C 723.832031 256.894531 723.140625 256.683594 722.425781 256.542969 C 721.710938 256.402344 720.992188 256.328125 720.265625 256.328125 Z M 620.605469 264.09375 L 620.605469 364.164062 L 487.726562 418.882812 L 487.726562 316.238281 Z M 842.070312 283.363281 L 930.65625 316.367188 L 930.65625 561.101562 L 894.042969 546.441406 L 894.019531 546.441406 L 892.980469 546.027344 L 850.917969 529.179688 L 850.832031 529.160156 L 842.070312 525.65625 Z M 720.265625 300.621094 C 719.539062 300.621094 718.820312 300.695312 718.105469 300.835938 C 717.390625 300.976562 716.699219 301.1875 716.027344 301.464844 C 715.355469 301.742188 714.71875 302.085938 714.113281 302.488281 C 713.507812 302.894531 712.949219 303.351562 712.4375 303.867188 C 711.921875 304.378906 711.460938 304.9375 711.058594 305.542969 C 710.65625 306.148438 710.3125 306.785156 710.035156 307.457031 C 709.757812 308.128906 709.546875 308.824219 709.40625 309.535156 C 709.261719 310.25 709.191406 310.96875 709.191406 311.695312 C 709.191406 312.421875 709.261719 313.144531 709.40625 313.855469 C 709.546875 314.570312 709.757812 315.261719 710.035156 315.933594 C 710.3125 316.605469 710.65625 317.242188 711.058594 317.847656 C 711.460938 318.453125 711.921875 319.011719 712.4375 319.527344 C 712.949219 320.039062 713.507812 320.5 714.113281 320.902344 C 714.71875 321.308594 715.355469 321.648438 716.027344 321.925781 C 716.699219 322.203125 717.390625 322.414062 718.105469 322.554688 C 718.820312 322.699219 719.539062 322.769531 720.265625 322.769531 C 720.992188 322.769531 721.710938 322.699219 722.425781 322.554688 C 723.140625 322.414062 723.832031 322.203125 724.503906 321.925781 C 725.175781 321.648438 725.8125 321.308594 726.417969 320.902344 C 727.023438 320.5 727.582031 320.039062 728.09375 319.527344 C 728.609375 319.011719 729.070312 318.453125 729.472656 317.847656 C 729.875 317.242188 730.21875 316.605469 730.496094 315.933594 C 730.773438 315.261719 730.984375 314.570312 731.125 313.855469 C 731.269531 313.144531 731.339844 312.421875 731.339844 311.695312 C 731.339844 310.96875 731.269531 310.25 731.125 309.535156 C 730.984375 308.824219 730.773438 308.128906 730.496094 307.457031 C 730.21875 306.785156 729.875 306.148438 729.472656 305.542969 C 729.070312 304.9375 728.609375 304.378906 728.09375 303.867188 C 727.582031 303.351562 727.023438 302.894531 726.417969 302.488281 C 725.8125 302.085938 725.175781 301.742188 724.503906 301.464844 C 723.832031 301.1875 723.140625 300.976562 722.425781 300.835938 C 721.710938 300.695312 720.992188 300.621094 720.265625 300.621094 Z M 720.265625 344.914062 C 719.539062 344.914062 718.820312 344.988281 718.105469 345.128906 C 717.390625 345.269531 716.699219 345.480469 716.027344 345.757812 C 715.355469 346.035156 714.71875 346.378906 714.113281 346.78125 C 713.507812 347.1875 712.949219 347.644531 712.4375 348.160156 C 711.921875 348.671875 711.460938 349.230469 711.058594 349.835938 C 710.65625 350.441406 710.3125 351.078125 710.035156 351.75 C 709.757812 352.421875 709.546875 353.117188 709.40625 353.828125 C 709.261719 354.542969 709.191406 355.261719 709.191406 355.988281 C 709.191406 356.714844 709.261719 357.4375 709.40625 358.148438 C 709.546875 358.863281 709.757812 359.554688 710.035156 360.226562 C 710.3125 360.898438 710.65625 361.535156 711.058594 362.140625 C 711.460938 362.746094 711.921875 363.304688 712.4375 363.820312 C 712.949219 364.332031 713.507812 364.792969 714.113281 365.195312 C 714.71875 365.601562 715.355469 365.941406 716.027344 366.21875 C 716.699219 366.496094 717.390625 366.707031 718.105469 366.847656 C 718.820312 366.992188 719.539062 367.0625 720.265625 367.0625 C 720.992188 367.0625 721.710938 366.992188 722.425781 366.847656 C 723.140625 366.707031 723.832031 366.496094 724.503906 366.21875 C 725.175781 365.941406 725.8125 365.601562 726.417969 365.195312 C 727.023438 364.792969 727.582031 364.332031 728.09375 363.820312 C 728.609375 363.304688 729.070312 362.746094 729.472656 362.140625 C 729.875 361.535156 730.21875 360.898438 730.496094 360.226562 C 730.773438 359.554688 730.984375 358.863281 731.125 358.148438 C 731.269531 357.4375 731.339844 356.714844 731.339844 355.988281 C 731.339844 355.261719 731.269531 354.542969 731.125 353.828125 C 730.984375 353.117188 730.773438 352.421875 730.496094 351.75 C 730.21875 351.078125 729.875 350.441406 729.472656 349.835938 C 729.070312 349.230469 728.609375 348.671875 728.09375 348.160156 C 727.582031 347.644531 727.023438 347.1875 726.417969 346.78125 C 725.8125 346.378906 725.175781 346.035156 724.503906 345.757812 C 723.832031 345.480469 723.140625 345.269531 722.425781 345.128906 C 721.710938 344.988281 720.992188 344.914062 720.265625 344.914062 Z M 720.265625 389.207031 C 719.539062 389.207031 718.820312 389.28125 718.105469 389.421875 C 717.390625 389.5625 716.699219 389.773438 716.027344 390.050781 C 715.355469 390.328125 714.71875 390.671875 714.113281 391.074219 C 713.507812 391.480469 712.949219 391.9375 712.4375 392.453125 C 711.921875 392.964844 711.460938 393.523438 711.058594 394.128906 C 710.65625 394.734375 710.3125 395.371094 710.035156 396.042969 C 709.757812 396.714844 709.546875 397.410156 709.40625 398.121094 C 709.261719 398.835938 709.191406 399.554688 709.191406 400.28125 C 709.191406 401.007812 709.261719 401.730469 709.40625 402.441406 C 709.546875 403.15625 709.757812 403.847656 710.035156 404.519531 C 710.3125 405.191406 710.65625 405.828125 711.058594 406.433594 C 711.460938 407.039062 711.921875 407.597656 712.4375 408.113281 C 712.949219 408.625 713.507812 409.085938 714.113281 409.488281 C 714.71875 409.894531 715.355469 410.234375 716.027344 410.511719 C 716.699219 410.789062 717.390625 411 718.105469 411.140625 C 718.820312 411.285156 719.539062 411.355469 720.265625 411.355469 C 720.992188 411.355469 721.710938 411.285156 722.425781 411.140625 C 723.140625 411 723.832031 410.789062 724.503906 410.511719 C 725.175781 410.234375 725.8125 409.894531 726.417969 409.488281 C 727.023438 409.085938 727.582031 408.625 728.09375 408.113281 C 728.609375 407.597656 729.070312 407.039062 729.472656 406.433594 C 729.875 405.828125 730.21875 405.191406 730.496094 404.519531 C 730.773438 403.847656 730.984375 403.15625 731.125 402.441406 C 731.269531 401.730469 731.339844 401.007812 731.339844 400.28125 C 731.339844 399.554688 731.269531 398.835938 731.125 398.121094 C 730.984375 397.410156 730.773438 396.714844 730.496094 396.042969 C 730.21875 395.371094 729.875 394.734375 729.472656 394.128906 C 729.070312 393.523438 728.609375 392.964844 728.09375 392.453125 C 727.582031 391.9375 727.023438 391.480469 726.417969 391.074219 C 725.8125 390.671875 725.175781 390.328125 724.503906 390.050781 C 723.832031 389.773438 723.140625 389.5625 722.425781 389.421875 C 721.710938 389.28125 720.992188 389.207031 720.265625 389.207031 Z M 720.265625 433.5 C 719.539062 433.5 718.820312 433.574219 718.105469 433.714844 C 717.390625 433.855469 716.699219 434.066406 716.027344 434.34375 C 715.355469 434.621094 714.71875 434.964844 714.113281 435.367188 C 713.507812 435.773438 712.949219 436.230469 712.4375 436.746094 C 711.921875 437.257812 711.460938 437.816406 711.058594 438.421875 C 710.65625 439.027344 710.3125 439.664062 710.035156 440.335938 C 709.757812 441.007812 709.546875 441.703125 709.40625 442.414062 C 709.261719 443.128906 709.191406 443.847656 709.191406 444.574219 C 709.191406 445.300781 709.261719 446.023438 709.40625 446.734375 C 709.546875 447.449219 709.757812 448.140625 710.035156 448.8125 C 710.3125 449.484375 710.65625 450.121094 711.058594 450.726562 C 711.460938 451.332031 711.921875 451.890625 712.4375 452.40625 C 712.949219 452.917969 713.507812 453.378906 714.113281 453.78125 C 714.71875 454.1875 715.355469 454.527344 716.027344 454.804688 C 716.699219 455.082031 717.390625 455.292969 718.105469 455.433594 C 718.820312 455.578125 719.539062 455.648438 720.265625 455.648438 C 720.992188 455.648438 721.710938 455.578125 722.425781 455.433594 C 723.140625 455.292969 723.832031 455.082031 724.503906 454.804688 C 725.175781 454.527344 725.8125 454.1875 726.417969 453.78125 C 727.023438 453.378906 727.582031 452.917969 728.09375 452.40625 C 728.609375 451.890625 729.070312 451.332031 729.472656 450.726562 C 729.875 450.121094 730.21875 449.484375 730.496094 448.8125 C 730.773438 448.140625 730.984375 447.449219 731.125 446.734375 C 731.269531 446.023438 731.339844 445.300781 731.339844 444.574219 C 731.339844 443.847656 731.269531 443.128906 731.125 442.414062 C 730.984375 441.703125 730.773438 441.007812 730.496094 440.335938 C 730.21875 439.664062 729.875 439.027344 729.472656 438.421875 C 729.070312 437.816406 728.609375 437.257812 728.09375 436.746094 C 727.582031 436.230469 727.023438 435.773438 726.417969 435.367188 C 725.8125 434.964844 725.175781 434.621094 724.503906 434.34375 C 723.832031 434.066406 723.140625 433.855469 722.425781 433.714844 C 721.710938 433.574219 720.992188 433.5 720.265625 433.5 Z M 719.984375 477.792969 L 716.15625 478.59375 L 715.117188 479.003906 L 714.773438 479.394531 L 714.492188 479.417969 L 713.863281 480.410156 L 708.542969 486.421875 L 710.535156 496.132812 L 713.710938 497.625 L 716.15625 499.140625 L 717.171875 499.550781 L 717.734375 499.507812 L 719.53125 500.351562 L 723.359375 499.550781 L 724.375 499.140625 L 724.546875 498.945312 L 727.078125 498.730469 L 732.3125 490.316406 L 728.722656 481.058594 L 725.414062 479.003906 L 724.375 478.59375 L 722.082031 478.789062 Z M 677.832031 494.664062 L 674.003906 495.441406 L 672.964844 495.851562 L 666.390625 503.269531 L 668.382812 513.003906 L 677.378906 517.199219 L 681.207031 516.421875 L 682.222656 516.011719 L 688.820312 508.589844 L 686.808594 498.882812 Z M 766.527344 495.441406 L 756.644531 496.285156 L 751.386719 504.699219 L 755 513.957031 L 758.308594 516.011719 L 759.324219 516.421875 L 769.230469 515.597656 L 774.464844 507.164062 L 770.875 497.929688 L 767.566406 495.851562 Z M 635.660156 511.511719 L 631.851562 512.3125 L 630.816406 512.722656 L 624.238281 520.140625 L 626.230469 529.851562 L 635.226562 534.070312 L 639.03125 533.289062 L 640.070312 532.878906 L 646.667969 525.441406 L 644.65625 515.730469 Z M 808.679688 512.3125 L 798.792969 513.132812 L 793.539062 521.566406 L 797.152344 530.804688 L 800.460938 532.878906 L 801.5 533.289062 L 811.382812 532.445312 L 816.617188 524.035156 L 813.027344 514.777344 L 809.714844 512.722656 Z M 593.507812 528.378906 L 589.699219 529.160156 L 588.664062 529.59375 L 582.089844 537.011719 L 584.078125 546.722656 L 593.074219 550.9375 L 596.882812 550.136719 L 597.917969 549.726562 L 604.492188 542.308594 L 602.503906 532.597656 Z M 551.355469 545.25 L 547.550781 546.027344 L 546.511719 546.441406 L 539.9375 553.859375 L 541.925781 563.589844 L 550.921875 567.785156 L 554.730469 567.007812 L 555.769531 566.597656 L 562.34375 559.179688 L 560.351562 549.445312 Z M 509.203125 562.097656 L 505.398438 562.898438 L 504.359375 563.308594 L 497.785156 570.726562 L 499.773438 580.4375 L 508.769531 584.65625 L 512.578125 583.875 L 513.617188 583.445312 L 520.191406 576.027344 L 518.199219 566.316406 Z M 467.050781 578.96875 L 463.222656 579.746094 L 462.207031 580.15625 L 455.609375 587.597656 L 457.621094 597.308594 L 466.621094 601.523438 L 470.425781 600.722656 L 471.464844 600.3125 L 478.039062 592.894531 L 476.050781 583.183594 Z M 977.308594 579.746094 L 967.402344 580.589844 L 962.167969 589.003906 L 965.757812 598.257812 L 969.066406 600.3125 L 970.105469 600.722656 L 979.988281 599.902344 L 985.246094 591.46875 L 981.632812 582.234375 L 978.324219 580.15625 Z M 424.898438 595.835938 L 421.070312 596.617188 L 420.054688 597.027344 L 413.460938 604.445312 L 415.46875 614.15625 L 424.445312 618.371094 L 428.273438 617.59375 L 429.3125 617.183594 L 435.886719 609.765625 L 433.898438 600.03125 Z M 1019.460938 596.617188 L 1009.554688 597.4375 L 1004.320312 605.871094 L 1007.910156 615.105469 L 1011.21875 617.183594 L 1012.257812 617.59375 L 1022.140625 616.75 L 1027.394531 608.335938 L 1023.785156 599.101562 L 1020.476562 597.027344 Z M 1019.460938 596.617188 " fill-opacity="1" fill-rule="nonzero"/></g><g clip-path="url(#2cf3466bd4)"><path fill="#ff914d" d="M 719.785156 44.648438 L 376.515625 170.496094 L 376.515625 628.675781 L 719.785156 765.964844 L 1063.054688 628.675781 L 1063.054688 170.496094 L 1055.789062 167.835938 Z M 719.785156 68.222656 L 1040.910156 185.984375 L 1040.910156 613.664062 L 719.785156 742.132812 L 398.660156 613.664062 L 398.660156 185.984375 Z M 719.785156 78.582031 C 719.058594 78.582031 718.335938 78.652344 717.625 78.792969 C 716.910156 78.9375 716.21875 79.144531 715.546875 79.425781 C 714.875 79.703125 714.238281 80.042969 713.632812 80.449219 C 713.027344 80.851562 712.46875 81.3125 711.953125 81.824219 C 711.441406 82.339844 710.980469 82.898438 710.578125 83.503906 C 710.171875 84.105469 709.832031 84.746094 709.554688 85.417969 C 709.277344 86.089844 709.066406 86.78125 708.925781 87.496094 C 708.78125 88.207031 708.710938 88.925781 708.710938 89.65625 C 708.710938 90.382812 708.78125 91.101562 708.925781 91.816406 C 709.066406 92.527344 709.277344 93.21875 709.554688 93.890625 C 709.832031 94.5625 710.171875 95.203125 710.578125 95.808594 C 710.980469 96.410156 711.441406 96.96875 711.953125 97.484375 C 712.46875 98 713.027344 98.457031 713.632812 98.863281 C 714.238281 99.265625 714.875 99.605469 715.546875 99.886719 C 716.21875 100.164062 716.910156 100.375 717.625 100.515625 C 718.335938 100.65625 719.058594 100.726562 719.785156 100.726562 C 720.511719 100.726562 721.230469 100.65625 721.945312 100.515625 C 722.65625 100.375 723.351562 100.164062 724.023438 99.886719 C 724.695312 99.605469 725.332031 99.265625 725.9375 98.863281 C 726.542969 98.457031 727.101562 98 727.613281 97.484375 C 728.128906 96.96875 728.585938 96.410156 728.992188 95.808594 C 729.394531 95.203125 729.738281 94.5625 730.015625 93.890625 C 730.292969 93.21875 730.503906 92.527344 730.644531 91.816406 C 730.785156 91.101562 730.859375 90.382812 730.859375 89.65625 C 730.859375 88.925781 730.785156 88.207031 730.644531 87.496094 C 730.503906 86.78125 730.292969 86.089844 730.015625 85.417969 C 729.738281 84.746094 729.394531 84.105469 728.992188 83.503906 C 728.585938 82.898438 728.128906 82.339844 727.613281 81.824219 C 727.101562 81.3125 726.542969 80.851562 725.9375 80.449219 C 725.332031 80.042969 724.695312 79.703125 724.023438 79.425781 C 723.351562 79.144531 722.65625 78.9375 721.945312 78.792969 C 721.230469 78.652344 720.511719 78.582031 719.785156 78.582031 Z M 719.785156 122.875 C 719.058594 122.875 718.335938 122.945312 717.625 123.085938 C 716.910156 123.230469 716.21875 123.4375 715.546875 123.71875 C 714.875 123.996094 714.238281 124.335938 713.632812 124.742188 C 713.027344 125.144531 712.46875 125.605469 711.953125 126.117188 C 711.441406 126.632812 710.980469 127.191406 710.578125 127.796875 C 710.171875 128.398438 709.832031 129.039062 709.554688 129.710938 C 709.277344 130.382812 709.066406 131.074219 708.925781 131.789062 C 708.78125 132.5 708.710938 133.21875 708.710938 133.949219 C 708.710938 134.675781 708.78125 135.394531 708.925781 136.109375 C 709.066406 136.820312 709.277344 137.511719 709.554688 138.183594 C 709.832031 138.855469 710.171875 139.496094 710.578125 140.101562 C 710.980469 140.703125 711.441406 141.261719 711.953125 141.777344 C 712.46875 142.292969 713.027344 142.75 713.632812 143.15625 C 714.238281 143.558594 714.875 143.898438 715.546875 144.179688 C 716.21875 144.457031 716.910156 144.667969 717.625 144.808594 C 718.335938 144.949219 719.058594 145.019531 719.785156 145.019531 C 720.511719 145.019531 721.230469 144.949219 721.945312 144.808594 C 722.65625 144.667969 723.351562 144.457031 724.023438 144.179688 C 724.695312 143.898438 725.332031 143.558594 725.9375 143.15625 C 726.542969 142.75 727.101562 142.292969 727.613281 141.777344 C 728.128906 141.261719 728.585938 140.703125 728.992188 140.101562 C 729.394531 139.496094 729.738281 138.855469 730.015625 138.183594 C 730.292969 137.511719 730.503906 136.820312 730.644531 136.109375 C 730.785156 135.394531 730.859375 134.675781 730.859375 133.949219 C 730.859375 133.21875 730.785156 132.5 730.644531 131.789062 C 730.503906 131.074219 730.292969 130.382812 730.015625 129.710938 C 729.738281 129.039062 729.394531 128.398438 728.992188 127.796875 C 728.585938 127.191406 728.128906 126.632812 727.613281 126.117188 C 727.101562 125.605469 726.542969 125.144531 725.9375 124.742188 C 725.332031 124.335938 724.695312 123.996094 724.023438 123.71875 C 723.351562 123.4375 722.65625 123.230469 721.945312 123.085938 C 721.230469 122.945312 720.511719 122.875 719.785156 122.875 Z M 719.785156 167.167969 C 719.058594 167.167969 718.335938 167.238281 717.625 167.378906 C 716.910156 167.523438 716.21875 167.730469 715.546875 168.011719 C 714.875 168.289062 714.238281 168.628906 713.632812 169.035156 C 713.027344 169.4375 712.46875 169.898438 711.953125 170.410156 C 711.441406 170.925781 710.980469 171.484375 710.578125 172.089844 C 710.171875 172.691406 709.832031 173.332031 709.554688 174.003906 C 709.277344 174.675781 709.066406 175.367188 708.925781 176.082031 C 708.78125 176.792969 708.710938 177.511719 708.710938 178.242188 C 708.710938 178.96875 708.78125 179.6875 708.925781 180.402344 C 709.066406 181.113281 709.277344 181.804688 709.554688 182.476562 C 709.832031 183.148438 710.171875 183.789062 710.578125 184.390625 C 710.980469 184.996094 711.441406 185.554688 711.953125 186.070312 C 712.46875 186.585938 713.027344 187.042969 713.632812 187.449219 C 714.238281 187.851562 714.875 188.191406 715.546875 188.472656 C 716.21875 188.75 716.910156 188.960938 717.625 189.101562 C 718.335938 189.242188 719.058594 189.3125 719.785156 189.3125 C 720.511719 189.3125 721.230469 189.242188 721.945312 189.101562 C 722.65625 188.960938 723.351562 188.75 724.023438 188.472656 C 724.695312 188.191406 725.332031 187.851562 725.9375 187.449219 C 726.542969 187.042969 727.101562 186.585938 727.613281 186.070312 C 728.128906 185.554688 728.585938 184.996094 728.992188 184.390625 C 729.394531 183.789062 729.738281 183.148438 730.015625 182.476562 C 730.292969 181.804688 730.503906 181.113281 730.644531 180.402344 C 730.785156 179.6875 730.859375 178.96875 730.859375 178.242188 C 730.859375 177.511719 730.785156 176.792969 730.644531 176.082031 C 730.503906 175.367188 730.292969 174.675781 730.015625 174.003906 C 729.738281 173.332031 729.394531 172.691406 728.992188 172.089844 C 728.585938 171.484375 728.128906 170.925781 727.613281 170.410156 C 727.101562 169.898438 726.542969 169.4375 725.9375 169.035156 C 725.332031 168.628906 724.695312 168.289062 724.023438 168.011719 C 723.351562 167.730469 722.65625 167.523438 721.945312 167.378906 C 721.230469 167.238281 720.511719 167.167969 719.785156 167.167969 Z M 719.785156 211.460938 C 719.058594 211.460938 718.335938 211.53125 717.625 211.671875 C 716.910156 211.816406 716.21875 212.023438 715.546875 212.304688 C 714.875 212.582031 714.238281 212.921875 713.632812 213.328125 C 713.027344 213.730469 712.46875 214.191406 711.953125 214.703125 C 711.441406 215.21875 710.980469 215.777344 710.578125 216.382812 C 710.171875 216.984375 709.832031 217.625 709.554688 218.296875 C 709.277344 218.96875 709.066406 219.660156 708.925781 220.375 C 708.78125 221.085938 708.710938 221.804688 708.710938 222.535156 C 708.710938 223.261719 708.78125 223.980469 708.925781 224.695312 C 709.066406 225.40625 709.277344 226.097656 709.554688 226.769531 C 709.832031 227.441406 710.171875 228.082031 710.578125 228.683594 C 710.980469 229.289062 711.441406 229.847656 711.953125 230.363281 C 712.46875 230.878906 713.027344 231.335938 713.632812 231.742188 C 714.238281 232.144531 714.875 232.484375 715.546875 232.765625 C 716.21875 233.042969 716.910156 233.253906 717.625 233.394531 C 718.335938 233.535156 719.058594 233.605469 719.785156 233.605469 C 720.511719 233.605469 721.230469 233.535156 721.945312 233.394531 C 722.65625 233.253906 723.351562 233.042969 724.023438 232.765625 C 724.695312 232.484375 725.332031 232.144531 725.9375 231.742188 C 726.542969 231.335938 727.101562 230.878906 727.613281 230.363281 C 728.128906 229.847656 728.585938 229.289062 728.992188 228.683594 C 729.394531 228.082031 729.738281 227.441406 730.015625 226.769531 C 730.292969 226.097656 730.503906 225.40625 730.644531 224.695312 C 730.785156 223.980469 730.859375 223.261719 730.859375 222.535156 C 730.859375 221.804688 730.785156 221.085938 730.644531 220.375 C 730.503906 219.660156 730.292969 218.96875 730.015625 218.296875 C 729.738281 217.625 729.394531 216.984375 728.992188 216.382812 C 728.585938 215.777344 728.128906 215.21875 727.613281 214.703125 C 727.101562 214.1875 726.542969 213.730469 725.9375 213.328125 C 725.332031 212.921875 724.695312 212.582031 724.023438 212.304688 C 723.351562 212.023438 722.65625 211.816406 721.945312 211.671875 C 721.230469 211.53125 720.511719 211.460938 719.785156 211.460938 Z M 642.273438 231.03125 L 465.101562 300.566406 L 465.101562 451.371094 L 480.390625 445.058594 L 642.273438 378.402344 Z M 819.445312 250.886719 L 819.445312 540.089844 L 842.132812 549.152344 L 843.167969 549.5625 L 884.28125 566.019531 L 884.78125 566.214844 L 885.320312 566.429688 L 926.433594 582.867188 L 927.496094 583.300781 L 952.324219 593.226562 L 952.324219 300.414062 Z M 719.785156 255.753906 C 719.058594 255.753906 718.335938 255.824219 717.625 255.964844 C 716.910156 256.109375 716.21875 256.316406 715.546875 256.597656 C 714.875 256.875 714.238281 257.214844 713.632812 257.621094 C 713.027344 258.023438 712.46875 258.480469 711.953125 258.996094 C 711.441406 259.511719 710.980469 260.070312 710.578125 260.675781 C 710.171875 261.277344 709.832031 261.917969 709.554688 262.589844 C 709.277344 263.261719 709.066406 263.953125 708.925781 264.667969 C 708.78125 265.378906 708.710938 266.097656 708.710938 266.828125 C 708.710938 267.554688 708.78125 268.273438 708.925781 268.988281 C 709.066406 269.699219 709.277344 270.390625 709.554688 271.0625 C 709.832031 271.734375 710.171875 272.375 710.578125 272.976562 C 710.980469 273.582031 711.441406 274.140625 711.953125 274.65625 C 712.46875 275.171875 713.027344 275.628906 713.632812 276.035156 C 714.238281 276.4375 714.875 276.777344 715.546875 277.058594 C 716.21875 277.335938 716.910156 277.546875 717.625 277.6875 C 718.335938 277.828125 719.058594 277.898438 719.785156 277.898438 C 720.511719 277.898438 721.230469 277.828125 721.945312 277.6875 C 722.65625 277.546875 723.351562 277.335938 724.023438 277.058594 C 724.695312 276.777344 725.332031 276.4375 725.9375 276.035156 C 726.542969 275.628906 727.101562 275.171875 727.613281 274.65625 C 728.128906 274.140625 728.585938 273.582031 728.992188 272.976562 C 729.394531 272.375 729.738281 271.734375 730.015625 271.0625 C 730.292969 270.390625 730.503906 269.699219 730.644531 268.988281 C 730.785156 268.273438 730.859375 267.554688 730.859375 266.828125 C 730.859375 266.097656 730.785156 265.378906 730.644531 264.667969 C 730.503906 263.953125 730.292969 263.261719 730.015625 262.589844 C 729.738281 261.917969 729.394531 261.277344 728.992188 260.675781 C 728.585938 260.070312 728.128906 259.511719 727.613281 258.996094 C 727.101562 258.480469 726.542969 258.023438 725.9375 257.621094 C 725.332031 257.214844 724.695312 256.875 724.023438 256.597656 C 723.351562 256.316406 722.65625 256.109375 721.945312 255.964844 C 721.230469 255.824219 720.511719 255.753906 719.785156 255.753906 Z M 620.125 263.515625 L 620.125 363.585938 L 487.246094 418.304688 L 487.246094 315.660156 Z M 841.589844 282.789062 L 930.175781 315.789062 L 930.175781 560.527344 L 893.5625 545.863281 L 893.539062 545.863281 L 892.5 545.453125 L 850.4375 528.605469 L 850.347656 528.582031 L 841.589844 525.078125 Z M 719.785156 300.046875 C 719.058594 300.046875 718.335938 300.117188 717.625 300.257812 C 716.910156 300.402344 716.21875 300.609375 715.546875 300.890625 C 714.875 301.167969 714.238281 301.507812 713.632812 301.914062 C 713.027344 302.316406 712.46875 302.773438 711.953125 303.289062 C 711.441406 303.804688 710.980469 304.363281 710.578125 304.96875 C 710.171875 305.570312 709.832031 306.210938 709.554688 306.882812 C 709.277344 307.554688 709.066406 308.246094 708.925781 308.960938 C 708.78125 309.671875 708.710938 310.390625 708.710938 311.121094 C 708.710938 311.847656 708.78125 312.566406 708.925781 313.28125 C 709.066406 313.992188 709.277344 314.683594 709.554688 315.355469 C 709.832031 316.027344 710.171875 316.667969 710.578125 317.269531 C 710.980469 317.875 711.441406 318.433594 711.953125 318.949219 C 712.46875 319.464844 713.027344 319.921875 713.632812 320.328125 C 714.238281 320.730469 714.875 321.070312 715.546875 321.351562 C 716.21875 321.628906 716.910156 321.839844 717.625 321.980469 C 718.335938 322.121094 719.058594 322.191406 719.785156 322.191406 C 720.511719 322.191406 721.230469 322.121094 721.945312 321.980469 C 722.65625 321.839844 723.351562 321.628906 724.023438 321.351562 C 724.695312 321.070312 725.332031 320.730469 725.9375 320.328125 C 726.542969 319.921875 727.101562 319.464844 727.613281 318.949219 C 728.128906 318.433594 728.585938 317.875 728.992188 317.269531 C 729.394531 316.667969 729.738281 316.027344 730.015625 315.355469 C 730.292969 314.683594 730.503906 313.992188 730.644531 313.28125 C 730.785156 312.566406 730.859375 311.847656 730.859375 311.121094 C 730.859375 310.390625 730.785156 309.671875 730.644531 308.960938 C 730.503906 308.246094 730.292969 307.554688 730.015625 306.882812 C 729.738281 306.210938 729.394531 305.570312 728.992188 304.96875 C 728.585938 304.363281 728.128906 303.804688 727.613281 303.289062 C 727.101562 302.773438 726.542969 302.316406 725.9375 301.914062 C 725.332031 301.507812 724.695312 301.167969 724.023438 300.890625 C 723.351562 300.609375 722.65625 300.402344 721.945312 300.257812 C 721.230469 300.117188 720.511719 300.046875 719.785156 300.046875 Z M 719.785156 344.339844 C 719.058594 344.339844 718.335938 344.410156 717.625 344.550781 C 716.910156 344.695312 716.21875 344.902344 715.546875 345.183594 C 714.875 345.460938 714.238281 345.800781 713.632812 346.207031 C 713.027344 346.609375 712.46875 347.066406 711.953125 347.582031 C 711.441406 348.097656 710.980469 348.65625 710.578125 349.261719 C 710.171875 349.863281 709.832031 350.503906 709.554688 351.175781 C 709.277344 351.847656 709.066406 352.539062 708.925781 353.253906 C 708.78125 353.964844 708.710938 354.683594 708.710938 355.414062 C 708.710938 356.140625 708.78125 356.859375 708.925781 357.574219 C 709.066406 358.285156 709.277344 358.976562 709.554688 359.648438 C 709.832031 360.320312 710.171875 360.960938 710.578125 361.5625 C 710.980469 362.167969 711.441406 362.726562 711.953125 363.242188 C 712.46875 363.757812 713.027344 364.214844 713.632812 364.621094 C 714.238281 365.023438 714.875 365.363281 715.546875 365.640625 C 716.21875 365.921875 716.910156 366.128906 717.625 366.273438 C 718.335938 366.414062 719.058594 366.484375 719.785156 366.484375 C 720.511719 366.484375 721.230469 366.414062 721.945312 366.273438 C 722.65625 366.128906 723.351562 365.921875 724.023438 365.640625 C 724.695312 365.363281 725.332031 365.023438 725.9375 364.621094 C 726.542969 364.214844 727.101562 363.757812 727.613281 363.242188 C 728.128906 362.726562 728.585938 362.167969 728.992188 361.5625 C 729.394531 360.960938 729.738281 360.320312 730.015625 359.648438 C 730.292969 358.976562 730.503906 358.285156 730.644531 357.574219 C 730.785156 356.859375 730.859375 356.140625 730.859375 355.414062 C 730.859375 354.683594 730.785156 353.964844 730.644531 353.253906 C 730.503906 352.539062 730.292969 351.847656 730.015625 351.175781 C 729.738281 350.503906 729.394531 349.863281 728.992188 349.261719 C 728.585938 348.65625 728.128906 348.097656 727.613281 347.582031 C 727.101562 347.066406 726.542969 346.609375 725.9375 346.207031 C 725.332031 345.800781 724.695312 345.460938 724.023438 345.183594 C 723.351562 344.902344 722.65625 344.695312 721.945312 344.550781 C 721.230469 344.410156 720.511719 344.339844 719.785156 344.339844 Z M 719.785156 388.632812 C 719.058594 388.632812 718.335938 388.703125 717.625 388.84375 C 716.910156 388.988281 716.21875 389.195312 715.546875 389.476562 C 714.875 389.753906 714.238281 390.09375 713.632812 390.5 C 713.027344 390.902344 712.46875 391.359375 711.953125 391.875 C 711.441406 392.390625 710.980469 392.949219 710.578125 393.554688 C 710.171875 394.15625 709.832031 394.796875 709.554688 395.46875 C 709.277344 396.140625 709.066406 396.832031 708.925781 397.542969 C 708.78125 398.257812 708.710938 398.976562 708.710938 399.707031 C 708.710938 400.433594 708.78125 401.152344 708.925781 401.867188 C 709.066406 402.578125 709.277344 403.269531 709.554688 403.941406 C 709.832031 404.613281 710.171875 405.253906 710.578125 405.855469 C 710.980469 406.460938 711.441406 407.019531 711.953125 407.535156 C 712.46875 408.050781 713.027344 408.507812 713.632812 408.914062 C 714.238281 409.316406 714.875 409.65625 715.546875 409.933594 C 716.21875 410.214844 716.910156 410.421875 717.625 410.566406 C 718.335938 410.707031 719.058594 410.777344 719.785156 410.777344 C 720.511719 410.777344 721.230469 410.707031 721.945312 410.566406 C 722.65625 410.421875 723.351562 410.214844 724.023438 409.933594 C 724.695312 409.65625 725.332031 409.316406 725.9375 408.914062 C 726.542969 408.507812 727.101562 408.050781 727.613281 407.535156 C 728.128906 407.019531 728.585938 406.460938 728.992188 405.855469 C 729.394531 405.253906 729.738281 404.613281 730.015625 403.941406 C 730.292969 403.269531 730.503906 402.578125 730.644531 401.867188 C 730.785156 401.152344 730.859375 400.433594 730.859375 399.707031 C 730.859375 398.976562 730.785156 398.257812 730.644531 397.542969 C 730.503906 396.832031 730.292969 396.140625 730.015625 395.46875 C 729.738281 394.796875 729.394531 394.15625 728.992188 393.554688 C 728.585938 392.949219 728.128906 392.390625 727.613281 391.875 C 727.101562 391.359375 726.542969 390.902344 725.9375 390.5 C 725.332031 390.09375 724.695312 389.753906 724.023438 389.476562 C 723.351562 389.195312 722.65625 388.988281 721.945312 388.84375 C 721.230469 388.703125 720.511719 388.632812 719.785156 388.632812 Z M 719.785156 432.925781 C 719.058594 432.925781 718.335938 432.996094 717.625 433.136719 C 716.910156 433.28125 716.21875 433.488281 715.546875 433.769531 C 714.875 434.046875 714.238281 434.386719 713.632812 434.792969 C 713.027344 435.195312 712.46875 435.652344 711.953125 436.167969 C 711.441406 436.683594 710.980469 437.242188 710.578125 437.847656 C 710.171875 438.449219 709.832031 439.089844 709.554688 439.761719 C 709.277344 440.433594 709.066406 441.125 708.925781 441.835938 C 708.78125 442.550781 708.710938 443.269531 708.710938 444 C 708.710938 444.726562 708.78125 445.445312 708.925781 446.160156 C 709.066406 446.871094 709.277344 447.5625 709.554688 448.234375 C 709.832031 448.90625 710.171875 449.546875 710.578125 450.148438 C 710.980469 450.753906 711.441406 451.3125 711.953125 451.828125 C 712.46875 452.34375 713.027344 452.800781 713.632812 453.203125 C 714.238281 453.609375 714.875 453.949219 715.546875 454.226562 C 716.21875 454.507812 716.910156 454.714844 717.625 454.859375 C 718.335938 455 719.058594 455.070312 719.785156 455.070312 C 720.511719 455.070312 721.230469 455 721.945312 454.859375 C 722.65625 454.714844 723.351562 454.507812 724.023438 454.226562 C 724.695312 453.949219 725.332031 453.609375 725.9375 453.207031 C 726.542969 452.800781 727.101562 452.34375 727.613281 451.828125 C 728.128906 451.3125 728.585938 450.753906 728.992188 450.148438 C 729.394531 449.546875 729.738281 448.90625 730.015625 448.234375 C 730.292969 447.5625 730.503906 446.871094 730.644531 446.160156 C 730.785156 445.445312 730.859375 444.726562 730.859375 444 C 730.859375 443.269531 730.785156 442.550781 730.644531 441.835938 C 730.503906 441.125 730.292969 440.433594 730.015625 439.761719 C 729.738281 439.089844 729.394531 438.449219 728.992188 437.847656 C 728.585938 437.242188 728.128906 436.683594 727.613281 436.167969 C 727.101562 435.652344 726.542969 435.195312 725.9375 434.792969 C 725.332031 434.386719 724.695312 434.046875 724.023438 433.769531 C 723.351562 433.488281 722.65625 433.28125 721.945312 433.136719 C 721.230469 432.996094 720.511719 432.925781 719.785156 432.925781 Z M 719.503906 477.21875 L 715.675781 478.019531 L 714.636719 478.429688 L 714.292969 478.816406 L 714.011719 478.839844 L 713.382812 479.835938 L 708.0625 485.847656 L 710.050781 495.558594 L 713.230469 497.050781 L 715.675781 498.5625 L 716.691406 498.976562 L 717.253906 498.933594 L 719.050781 499.773438 L 722.878906 498.976562 L 723.894531 498.5625 L 724.066406 498.371094 L 726.597656 498.152344 L 731.832031 489.738281 L 728.242188 480.484375 L 724.933594 478.429688 L 723.894531 478.019531 L 721.601562 478.210938 Z M 677.351562 494.085938 L 673.523438 494.867188 L 672.484375 495.277344 L 665.910156 502.695312 L 667.902344 512.425781 L 676.898438 516.621094 L 680.726562 515.84375 L 681.742188 515.433594 L 688.339844 508.015625 L 686.328125 498.304688 Z M 766.046875 494.867188 L 756.160156 495.710938 L 750.90625 504.121094 L 754.519531 513.378906 L 757.828125 515.433594 L 758.84375 515.84375 L 768.75 515.023438 L 773.984375 506.585938 L 770.394531 497.351562 L 767.082031 495.277344 Z M 635.179688 510.933594 L 631.371094 511.734375 L 630.332031 512.144531 L 623.757812 519.5625 L 625.75 529.273438 L 634.746094 533.492188 L 638.550781 532.714844 L 639.589844 532.304688 L 646.1875 524.863281 L 644.175781 515.152344 Z M 808.199219 511.734375 L 798.3125 512.558594 L 793.058594 520.992188 L 796.671875 530.226562 L 799.980469 532.304688 L 801.015625 532.714844 L 810.902344 531.871094 L 816.136719 523.457031 L 812.542969 514.199219 L 809.234375 512.144531 Z M 593.027344 527.804688 L 589.21875 528.582031 L 588.183594 529.015625 L 581.605469 536.433594 L 583.597656 546.144531 L 592.59375 550.363281 L 596.402344 549.5625 L 597.4375 549.152344 L 604.011719 541.730469 L 602.023438 532.023438 Z M 550.875 544.671875 L 547.066406 545.453125 L 546.03125 545.863281 L 539.457031 553.28125 L 541.445312 563.011719 L 550.441406 567.210938 L 554.25 566.429688 L 555.285156 566.019531 L 561.863281 558.601562 L 559.871094 548.871094 Z M 508.722656 561.519531 L 504.917969 562.320312 L 503.878906 562.734375 L 497.304688 570.152344 L 499.292969 579.863281 L 508.289062 584.078125 L 512.097656 583.300781 L 513.136719 582.867188 L 519.710938 575.449219 L 517.71875 565.738281 Z M 466.570312 578.390625 L 462.742188 579.167969 L 461.726562 579.582031 L 455.128906 587.019531 L 457.140625 596.730469 L 466.136719 600.949219 L 469.945312 600.148438 L 470.984375 599.738281 L 477.558594 592.320312 L 475.566406 582.609375 Z M 976.828125 579.167969 L 966.921875 580.011719 L 961.6875 588.425781 L 965.277344 597.683594 L 968.585938 599.738281 L 969.625 600.148438 L 979.507812 599.324219 L 984.761719 590.890625 L 981.152344 581.65625 L 977.84375 579.582031 Z M 424.417969 595.261719 L 420.589844 596.039062 L 419.574219 596.449219 L 412.976562 603.867188 L 414.988281 613.578125 L 423.964844 617.796875 L 427.792969 617.015625 L 428.832031 616.605469 L 435.40625 609.1875 L 433.417969 599.457031 Z M 1018.976562 596.039062 L 1009.074219 596.859375 L 1003.839844 605.296875 L 1007.429688 614.53125 L 1010.738281 616.605469 L 1011.777344 617.015625 L 1021.660156 616.171875 L 1026.914062 607.761719 L 1023.304688 598.527344 L 1019.996094 596.449219 Z M 1018.976562 596.039062 " fill-opacity="1" fill-rule="nonzero"/></g></svg>