<?xml version="1.0" encoding="UTF-8"?><svg xmlns="http://www.w3.org/2000/svg" xmlns:xlink="http://www.w3.org/1999/xlink" width="1440" zoomAndPan="magnify" viewBox="0 0 1440 809.999993" height="809.999993" preserveAspectRatio="xMidYMid meet" version="1.0"><defs><clipPath id="clip-0"><path d="M 401 71 L 1039 71 L 1039 739.105469 L 401 739.105469 Z M 401 71 " clip-rule="nonzero"/></clipPath><clipPath id="clip-1"><path d="M 585.71875 173.804688 L 695.96875 173.804688 L 695.96875 232.304688 L 585.71875 232.304688 Z M 585.71875 173.804688 " clip-rule="nonzero"/></clipPath><clipPath id="clip-2"><path d="M 664.777344 574.679688 L 775.027344 574.679688 L 775.027344 633.179688 L 664.777344 633.179688 Z M 664.777344 574.679688 " clip-rule="nonzero"/></clipPath><clipPath id="clip-3"><path d="M 897.652344 232.339844 L 1007.902344 232.339844 L 1007.902344 290.839844 L 897.652344 290.839844 Z M 897.652344 232.339844 " clip-rule="nonzero"/></clipPath><clipPath id="clip-4"><path d="M 426.996094 449.566406 L 537.246094 449.566406 L 537.246094 508.066406 L 426.996094 508.066406 Z M 426.996094 449.566406 " clip-rule="nonzero"/></clipPath></defs><g clip-path="url(#clip-0)"><path fill="rgb(100%, 51.759338%, 0%)" d="M 720.015625 71.21875 L 401.765625 187.882812 L 401.765625 612.617188 L 720.015625 739.886719 L 1038.265625 612.617188 L 1038.265625 187.882812 L 1031.527344 185.417969 Z M 720.015625 93.070312 L 1017.730469 202.238281 L 1017.730469 598.703125 L 720.015625 717.792969 L 422.300781 598.703125 L 422.300781 202.238281 Z M 720.015625 102.675781 C 719.339844 102.675781 718.671875 102.742188 718.011719 102.871094 C 717.351562 103.003906 716.710938 103.199219 716.085938 103.457031 C 715.464844 103.714844 714.871094 104.03125 714.3125 104.40625 C 713.75 104.78125 713.234375 105.207031 712.757812 105.683594 C 712.28125 106.160156 711.855469 106.675781 711.480469 107.238281 C 711.105469 107.796875 710.789062 108.390625 710.53125 109.011719 C 710.273438 109.632812 710.078125 110.277344 709.945312 110.9375 C 709.816406 111.597656 709.75 112.265625 709.75 112.941406 C 709.75 113.613281 709.816406 114.28125 709.945312 114.941406 C 710.078125 115.605469 710.273438 116.246094 710.53125 116.867188 C 710.789062 117.492188 711.105469 118.082031 711.480469 118.644531 C 711.855469 119.203125 712.28125 119.722656 712.757812 120.199219 C 713.234375 120.675781 713.75 121.101562 714.3125 121.476562 C 714.871094 121.851562 715.464844 122.164062 716.085938 122.421875 C 716.710938 122.683594 717.351562 122.875 718.011719 123.007812 C 718.671875 123.140625 719.339844 123.207031 720.015625 123.207031 C 720.6875 123.207031 721.355469 123.140625 722.019531 123.007812 C 722.679688 122.875 723.320312 122.683594 723.945312 122.421875 C 724.566406 122.164062 725.160156 121.851562 725.71875 121.476562 C 726.277344 121.101562 726.796875 120.675781 727.273438 120.199219 C 727.75 119.722656 728.175781 119.203125 728.550781 118.644531 C 728.925781 118.082031 729.242188 117.492188 729.5 116.867188 C 729.757812 116.246094 729.953125 115.605469 730.085938 114.941406 C 730.214844 114.28125 730.28125 113.613281 730.28125 112.941406 C 730.28125 112.265625 730.214844 111.597656 730.085938 110.9375 C 729.953125 110.277344 729.757812 109.632812 729.5 109.011719 C 729.242188 108.390625 728.925781 107.796875 728.550781 107.238281 C 728.175781 106.675781 727.75 106.160156 727.273438 105.683594 C 726.796875 105.207031 726.277344 104.78125 725.71875 104.40625 C 725.160156 104.03125 724.566406 103.714844 723.945312 103.457031 C 723.320312 103.199219 722.679688 103.003906 722.019531 102.871094 C 721.355469 102.742188 720.6875 102.675781 720.015625 102.675781 Z M 720.015625 143.734375 C 719.339844 143.734375 718.671875 143.800781 718.011719 143.933594 C 717.351562 144.0625 716.710938 144.257812 716.085938 144.515625 C 715.464844 144.773438 714.871094 145.089844 714.3125 145.464844 C 713.75 145.839844 713.234375 146.265625 712.757812 146.742188 C 712.28125 147.21875 711.855469 147.738281 711.480469 148.296875 C 711.105469 148.859375 710.789062 149.449219 710.53125 150.070312 C 710.273438 150.695312 710.078125 151.335938 709.945312 151.996094 C 709.816406 152.660156 709.75 153.324219 709.75 154 C 709.75 154.675781 709.816406 155.339844 709.945312 156.003906 C 710.078125 156.664062 710.273438 157.304688 710.53125 157.929688 C 710.789062 158.550781 711.105469 159.140625 711.480469 159.703125 C 711.855469 160.261719 712.28125 160.78125 712.757812 161.257812 C 713.234375 161.734375 713.75 162.160156 714.3125 162.535156 C 714.871094 162.910156 715.464844 163.226562 716.085938 163.484375 C 716.710938 163.742188 717.351562 163.9375 718.011719 164.066406 C 718.671875 164.199219 719.339844 164.265625 720.015625 164.265625 C 720.6875 164.265625 721.355469 164.199219 722.019531 164.066406 C 722.679688 163.9375 723.320312 163.742188 723.945312 163.484375 C 724.566406 163.226562 725.160156 162.910156 725.71875 162.535156 C 726.277344 162.160156 726.796875 161.734375 727.273438 161.257812 C 727.75 160.78125 728.175781 160.261719 728.550781 159.703125 C 728.925781 159.140625 729.242188 158.550781 729.5 157.929688 C 729.757812 157.304688 729.953125 156.664062 730.085938 156.003906 C 730.214844 155.339844 730.28125 154.675781 730.28125 154 C 730.28125 153.324219 730.214844 152.660156 730.085938 151.996094 C 729.953125 151.335938 729.757812 150.695312 729.5 150.070312 C 729.242188 149.449219 728.925781 148.859375 728.550781 148.296875 C 728.175781 147.738281 727.75 147.21875 727.273438 146.742188 C 726.796875 146.265625 726.277344 145.839844 725.71875 145.464844 C 725.160156 145.089844 724.566406 144.773438 723.945312 144.515625 C 723.320312 144.257812 722.679688 144.0625 722.019531 143.933594 C 721.355469 143.800781 720.6875 143.734375 720.015625 143.734375 Z M 720.015625 184.796875 C 719.339844 184.796875 718.671875 184.859375 718.011719 184.992188 C 717.351562 185.125 716.710938 185.320312 716.085938 185.578125 C 715.464844 185.835938 714.871094 186.152344 714.3125 186.523438 C 713.75 186.898438 713.234375 187.324219 712.757812 187.800781 C 712.28125 188.277344 711.855469 188.796875 711.480469 189.355469 C 711.105469 189.917969 710.789062 190.507812 710.53125 191.132812 C 710.273438 191.753906 710.078125 192.394531 709.945312 193.058594 C 709.816406 193.71875 709.75 194.386719 709.75 195.058594 C 709.75 195.734375 709.816406 196.402344 709.945312 197.0625 C 710.078125 197.722656 710.273438 198.367188 710.53125 198.988281 C 710.789062 199.609375 711.105469 200.203125 711.480469 200.761719 C 711.855469 201.324219 712.28125 201.839844 712.757812 202.320312 C 713.234375 202.796875 713.75 203.21875 714.3125 203.59375 C 714.871094 203.96875 715.464844 204.285156 716.085938 204.542969 C 716.710938 204.800781 717.351562 204.996094 718.011719 205.128906 C 718.671875 205.257812 719.339844 205.324219 720.015625 205.324219 C 720.6875 205.324219 721.355469 205.257812 722.019531 205.128906 C 722.679688 204.996094 723.320312 204.800781 723.945312 204.542969 C 724.566406 204.285156 725.160156 203.96875 725.71875 203.59375 C 726.277344 203.21875 726.796875 202.796875 727.273438 202.320312 C 727.75 201.839844 728.175781 201.324219 728.550781 200.761719 C 728.925781 200.203125 729.242188 199.609375 729.5 198.988281 C 729.757812 198.367188 729.953125 197.722656 730.085938 197.0625 C 730.214844 196.402344 730.28125 195.734375 730.28125 195.058594 C 730.28125 194.386719 730.214844 193.71875 730.085938 193.058594 C 729.953125 192.394531 729.757812 191.753906 729.5 191.132812 C 729.242188 190.507812 728.925781 189.917969 728.550781 189.355469 C 728.175781 188.796875 727.75 188.277344 727.273438 187.800781 C 726.796875 187.324219 726.277344 186.898438 725.71875 186.523438 C 725.160156 186.152344 724.566406 185.835938 723.945312 185.578125 C 723.320312 185.320312 722.679688 185.125 722.019531 184.992188 C 721.355469 184.859375 720.6875 184.796875 720.015625 184.796875 Z M 720.015625 225.855469 C 719.339844 225.855469 718.671875 225.921875 718.011719 226.050781 C 717.351562 226.183594 716.710938 226.378906 716.085938 226.636719 C 715.464844 226.894531 714.871094 227.210938 714.3125 227.585938 C 713.75 227.960938 713.234375 228.386719 712.757812 228.863281 C 712.28125 229.339844 711.855469 229.855469 711.480469 230.417969 C 711.105469 230.976562 710.789062 231.570312 710.53125 232.191406 C 710.273438 232.8125 710.078125 233.457031 709.945312 234.117188 C 709.816406 234.777344 709.75 235.445312 709.75 236.121094 C 709.75 236.792969 709.816406 237.460938 709.945312 238.121094 C 710.078125 238.785156 710.273438 239.425781 710.53125 240.046875 C 710.789062 240.671875 711.105469 241.261719 711.480469 241.824219 C 711.855469 242.382812 712.28125 242.902344 712.757812 243.378906 C 713.234375 243.855469 713.75 244.28125 714.3125 244.65625 C 714.871094 245.03125 715.464844 245.34375 716.085938 245.601562 C 716.710938 245.863281 717.351562 246.054688 718.011719 246.1875 C 718.671875 246.320312 719.339844 246.386719 720.015625 246.386719 C 720.6875 246.386719 721.355469 246.320312 722.019531 246.1875 C 722.679688 246.054688 723.320312 245.863281 723.945312 245.601562 C 724.566406 245.34375 725.160156 245.03125 725.71875 244.65625 C 726.277344 244.28125 726.796875 243.855469 727.273438 243.378906 C 727.75 242.902344 728.175781 242.382812 728.550781 241.824219 C 728.925781 241.261719 729.242188 240.671875 729.5 240.046875 C 729.757812 239.425781 729.953125 238.785156 730.085938 238.121094 C 730.214844 237.460938 730.28125 236.792969 730.28125 236.121094 C 730.28125 235.445312 730.214844 234.777344 730.085938 234.117188 C 729.953125 233.457031 729.757812 232.8125 729.5 232.191406 C 729.242188 231.570312 728.925781 230.976562 728.550781 230.417969 C 728.175781 229.855469 727.75 229.339844 727.273438 228.863281 C 726.796875 228.386719 726.277344 227.960938 725.71875 227.585938 C 725.160156 227.210938 724.566406 226.894531 723.945312 226.636719 C 723.320312 226.378906 722.679688 226.183594 722.019531 226.050781 C 721.355469 225.921875 720.6875 225.855469 720.015625 225.855469 Z M 648.152344 244 L 483.894531 308.457031 L 483.894531 448.257812 L 498.070312 442.402344 L 648.152344 380.613281 Z M 812.410156 262.402344 L 812.410156 530.496094 L 833.445312 538.898438 L 834.40625 539.277344 L 872.523438 554.535156 L 872.984375 554.714844 L 873.484375 554.914062 L 911.601562 570.152344 L 912.585938 570.554688 L 935.601562 579.757812 L 935.601562 308.316406 Z M 720.015625 266.914062 C 719.339844 266.914062 718.671875 266.980469 718.011719 267.113281 C 717.351562 267.242188 716.710938 267.4375 716.085938 267.695312 C 715.464844 267.953125 714.871094 268.269531 714.3125 268.644531 C 713.75 269.019531 713.234375 269.445312 712.757812 269.921875 C 712.28125 270.398438 711.855469 270.917969 711.480469 271.476562 C 711.105469 272.039062 710.789062 272.628906 710.53125 273.25 C 710.273438 273.875 710.078125 274.515625 709.945312 275.175781 C 709.816406 275.839844 709.75 276.503906 709.75 277.179688 C 709.75 277.855469 709.816406 278.519531 709.945312 279.183594 C 710.078125 279.84375 710.273438 280.484375 710.53125 281.109375 C 710.789062 281.730469 711.105469 282.320312 711.480469 282.882812 C 711.855469 283.441406 712.28125 283.960938 712.757812 284.4375 C 713.234375 284.914062 713.75 285.339844 714.3125 285.714844 C 714.871094 286.089844 715.464844 286.40625 716.085938 286.664062 C 716.710938 286.921875 717.351562 287.117188 718.011719 287.246094 C 718.671875 287.378906 719.339844 287.445312 720.015625 287.445312 C 720.6875 287.445312 721.355469 287.378906 722.019531 287.246094 C 722.679688 287.117188 723.320312 286.921875 723.945312 286.664062 C 724.566406 286.40625 725.160156 286.089844 725.71875 285.714844 C 726.277344 285.339844 726.796875 284.914062 727.273438 284.4375 C 727.75 283.960938 728.175781 283.441406 728.550781 282.882812 C 728.925781 282.320312 729.242188 281.730469 729.5 281.109375 C 729.757812 280.484375 729.953125 279.84375 730.085938 279.183594 C 730.214844 278.519531 730.28125 277.855469 730.28125 277.179688 C 730.28125 276.503906 730.214844 275.839844 730.085938 275.175781 C 729.953125 274.515625 729.757812 273.875 729.5 273.25 C 729.242188 272.628906 728.925781 272.039062 728.550781 271.476562 C 728.175781 270.917969 727.75 270.398438 727.273438 269.921875 C 726.796875 269.445312 726.277344 269.019531 725.71875 268.644531 C 725.160156 268.269531 724.566406 267.953125 723.945312 267.695312 C 723.320312 267.4375 722.679688 267.242188 722.019531 267.113281 C 721.355469 266.980469 720.6875 266.914062 720.015625 266.914062 Z M 627.621094 274.113281 L 627.621094 366.878906 L 504.425781 417.601562 L 504.425781 322.449219 Z M 832.941406 291.976562 L 915.070312 322.570312 L 915.070312 549.441406 L 881.125 535.847656 L 881.105469 535.847656 L 880.140625 535.46875 L 841.144531 519.851562 L 841.0625 519.832031 L 832.941406 516.582031 Z M 720.015625 307.976562 C 719.339844 307.976562 718.671875 308.039062 718.011719 308.171875 C 717.351562 308.304688 716.710938 308.5 716.085938 308.757812 C 715.464844 309.015625 714.871094 309.332031 714.3125 309.703125 C 713.75 310.078125 713.234375 310.503906 712.757812 310.980469 C 712.28125 311.457031 711.855469 311.976562 711.480469 312.535156 C 711.105469 313.097656 710.789062 313.6875 710.53125 314.3125 C 710.273438 314.933594 710.078125 315.574219 709.945312 316.238281 C 709.816406 316.898438 709.75 317.566406 709.75 318.238281 C 709.75 318.914062 709.816406 319.582031 709.945312 320.242188 C 710.078125 320.902344 710.273438 321.546875 710.53125 322.167969 C 710.789062 322.789062 711.105469 323.382812 711.480469 323.941406 C 711.855469 324.503906 712.28125 325.023438 712.757812 325.5 C 713.234375 325.976562 713.75 326.398438 714.3125 326.773438 C 714.871094 327.148438 715.464844 327.464844 716.085938 327.722656 C 716.710938 327.980469 717.351562 328.175781 718.011719 328.308594 C 718.671875 328.4375 719.339844 328.503906 720.015625 328.503906 C 720.6875 328.503906 721.355469 328.4375 722.019531 328.308594 C 722.679688 328.175781 723.320312 327.980469 723.945312 327.722656 C 724.566406 327.464844 725.160156 327.148438 725.71875 326.773438 C 726.277344 326.398438 726.796875 325.976562 727.273438 325.5 C 727.75 325.023438 728.175781 324.503906 728.550781 323.941406 C 728.925781 323.382812 729.242188 322.789062 729.5 322.167969 C 729.757812 321.546875 729.953125 320.902344 730.085938 320.242188 C 730.214844 319.582031 730.28125 318.914062 730.28125 318.238281 C 730.28125 317.566406 730.214844 316.898438 730.085938 316.238281 C 729.953125 315.574219 729.757812 314.933594 729.5 314.3125 C 729.242188 313.6875 728.925781 313.097656 728.550781 312.535156 C 728.175781 311.976562 727.75 311.457031 727.273438 310.980469 C 726.796875 310.503906 726.277344 310.078125 725.71875 309.703125 C 725.160156 309.332031 724.566406 309.015625 723.945312 308.757812 C 723.320312 308.5 722.679688 308.304688 722.019531 308.171875 C 721.355469 308.039062 720.6875 307.976562 720.015625 307.976562 Z M 720.015625 349.035156 C 719.339844 349.035156 718.671875 349.101562 718.011719 349.230469 C 717.351562 349.363281 716.710938 349.558594 716.085938 349.816406 C 715.464844 350.074219 714.871094 350.390625 714.3125 350.765625 C 713.75 351.140625 713.234375 351.566406 712.757812 352.042969 C 712.28125 352.519531 711.855469 353.035156 711.480469 353.597656 C 711.105469 354.15625 710.789062 354.75 710.53125 355.371094 C 710.273438 355.992188 710.078125 356.636719 709.945312 357.296875 C 709.816406 357.957031 709.75 358.625 709.75 359.300781 C 709.75 359.972656 709.816406 360.640625 709.945312 361.300781 C 710.078125 361.964844 710.273438 362.605469 710.53125 363.226562 C 710.789062 363.851562 711.105469 364.441406 711.480469 365.003906 C 711.855469 365.5625 712.28125 366.082031 712.757812 366.558594 C 713.234375 367.035156 713.75 367.460938 714.3125 367.835938 C 714.871094 368.210938 715.464844 368.523438 716.085938 368.78125 C 716.710938 369.042969 717.351562 369.234375 718.011719 369.367188 C 718.671875 369.5 719.339844 369.566406 720.015625 369.566406 C 720.6875 369.566406 721.355469 369.5 722.019531 369.367188 C 722.679688 369.234375 723.320312 369.042969 723.945312 368.78125 C 724.566406 368.523438 725.160156 368.210938 725.71875 367.835938 C 726.277344 367.460938 726.796875 367.035156 727.273438 366.558594 C 727.75 366.082031 728.175781 365.5625 728.550781 365.003906 C 728.925781 364.441406 729.242188 363.851562 729.5 363.226562 C 729.757812 362.605469 729.953125 361.964844 730.085938 361.300781 C 730.214844 360.640625 730.28125 359.972656 730.28125 359.300781 C 730.28125 358.625 730.214844 357.957031 730.085938 357.296875 C 729.953125 356.636719 729.757812 355.992188 729.5 355.371094 C 729.242188 354.75 728.925781 354.15625 728.550781 353.597656 C 728.175781 353.035156 727.75 352.519531 727.273438 352.042969 C 726.796875 351.566406 726.277344 351.140625 725.71875 350.765625 C 725.160156 350.390625 724.566406 350.074219 723.945312 349.816406 C 723.320312 349.558594 722.679688 349.363281 722.019531 349.230469 C 721.355469 349.101562 720.6875 349.035156 720.015625 349.035156 Z M 720.015625 390.09375 C 719.339844 390.09375 718.671875 390.160156 718.011719 390.292969 C 717.351562 390.421875 716.710938 390.617188 716.085938 390.875 C 715.464844 391.132812 714.871094 391.449219 714.3125 391.824219 C 713.75 392.199219 713.234375 392.625 712.757812 393.101562 C 712.28125 393.578125 711.855469 394.097656 711.480469 394.65625 C 711.105469 395.21875 710.789062 395.808594 710.53125 396.429688 C 710.273438 397.054688 710.078125 397.695312 709.945312 398.355469 C 709.816406 399.019531 709.75 399.683594 709.75 400.359375 C 709.75 401.035156 709.816406 401.699219 709.945312 402.363281 C 710.078125 403.023438 710.273438 403.664062 710.53125 404.289062 C 710.789062 404.910156 711.105469 405.5 711.480469 406.0625 C 711.855469 406.621094 712.28125 407.140625 712.757812 407.617188 C 713.234375 408.09375 713.75 408.519531 714.3125 408.894531 C 714.871094 409.269531 715.464844 409.585938 716.085938 409.84375 C 716.710938 410.101562 717.351562 410.296875 718.011719 410.425781 C 718.671875 410.558594 719.339844 410.625 720.015625 410.625 C 720.6875 410.625 721.355469 410.558594 722.019531 410.425781 C 722.679688 410.296875 723.320312 410.101562 723.945312 409.84375 C 724.566406 409.585938 725.160156 409.269531 725.71875 408.894531 C 726.277344 408.519531 726.796875 408.09375 727.273438 407.617188 C 727.75 407.140625 728.175781 406.621094 728.550781 406.0625 C 728.925781 405.5 729.242188 404.910156 729.5 404.289062 C 729.757812 403.664062 729.953125 403.023438 730.085938 402.363281 C 730.214844 401.699219 730.28125 401.035156 730.28125 400.359375 C 730.28125 399.683594 730.214844 399.019531 730.085938 398.355469 C 729.953125 397.695312 729.757812 397.054688 729.5 396.429688 C 729.242188 395.808594 728.925781 395.21875 728.550781 394.65625 C 728.175781 394.097656 727.75 393.578125 727.273438 393.101562 C 726.796875 392.625 726.277344 392.199219 725.71875 391.824219 C 725.160156 391.449219 724.566406 391.132812 723.945312 390.875 C 723.320312 390.617188 722.679688 390.421875 722.019531 390.292969 C 721.355469 390.160156 720.6875 390.09375 720.015625 390.09375 Z M 720.015625 431.15625 C 719.339844 431.15625 718.671875 431.21875 718.011719 431.351562 C 717.351562 431.484375 716.710938 431.679688 716.085938 431.9375 C 715.464844 432.195312 714.871094 432.511719 714.3125 432.882812 C 713.75 433.257812 713.234375 433.683594 712.757812 434.160156 C 712.28125 434.636719 711.855469 435.15625 711.480469 435.714844 C 711.105469 436.277344 710.789062 436.867188 710.53125 437.492188 C 710.273438 438.113281 710.078125 438.753906 709.945312 439.417969 C 709.816406 440.078125 709.75 440.746094 709.75 441.417969 C 709.75 442.09375 709.816406 442.761719 709.945312 443.421875 C 710.078125 444.082031 710.273438 444.726562 710.53125 445.347656 C 710.789062 445.96875 711.105469 446.5625 711.480469 447.121094 C 711.855469 447.683594 712.28125 448.203125 712.757812 448.679688 C 713.234375 449.15625 713.75 449.578125 714.3125 449.953125 C 714.871094 450.328125 715.464844 450.644531 716.085938 450.902344 C 716.710938 451.160156 717.351562 451.355469 718.011719 451.488281 C 718.671875 451.617188 719.339844 451.683594 720.015625 451.683594 C 720.6875 451.683594 721.355469 451.617188 722.019531 451.488281 C 722.679688 451.355469 723.320312 451.160156 723.945312 450.902344 C 724.566406 450.644531 725.160156 450.328125 725.71875 449.953125 C 726.277344 449.578125 726.796875 449.15625 727.273438 448.679688 C 727.75 448.203125 728.175781 447.683594 728.550781 447.121094 C 728.925781 446.5625 729.242188 445.96875 729.5 445.347656 C 729.757812 444.726562 729.953125 444.082031 730.085938 443.421875 C 730.214844 442.761719 730.28125 442.09375 730.28125 441.417969 C 730.28125 440.746094 730.214844 440.078125 730.085938 439.417969 C 729.953125 438.753906 729.757812 438.113281 729.5 437.492188 C 729.242188 436.867188 728.925781 436.277344 728.550781 435.714844 C 728.175781 435.15625 727.75 434.636719 727.273438 434.160156 C 726.796875 433.683594 726.277344 433.257812 725.71875 432.882812 C 725.160156 432.511719 724.566406 432.195312 723.945312 431.9375 C 723.320312 431.679688 722.679688 431.484375 722.019531 431.351562 C 721.355469 431.21875 720.6875 431.15625 720.015625 431.15625 Z M 719.753906 472.214844 L 716.207031 472.957031 L 715.242188 473.335938 L 714.921875 473.699219 L 714.660156 473.71875 L 714.082031 474.640625 L 709.148438 480.214844 L 710.992188 489.214844 L 713.941406 490.597656 L 716.207031 492.003906 L 717.148438 492.382812 L 717.667969 492.34375 L 719.332031 493.125 L 722.882812 492.382812 L 723.824219 492.003906 L 723.984375 491.820312 L 726.332031 491.621094 L 731.183594 483.824219 L 727.855469 475.242188 L 724.789062 473.335938 L 723.824219 472.957031 L 721.699219 473.136719 Z M 680.675781 487.851562 L 677.125 488.574219 L 676.164062 488.953125 L 670.070312 495.832031 L 671.914062 504.855469 L 680.253906 508.742188 L 683.804688 508.019531 L 684.746094 507.640625 L 690.859375 500.765625 L 688.996094 491.761719 Z M 762.902344 488.574219 L 753.742188 489.355469 L 748.867188 497.15625 L 752.21875 505.734375 L 755.285156 507.640625 L 756.226562 508.019531 L 765.410156 507.257812 L 770.261719 499.441406 L 766.933594 490.878906 L 763.867188 488.953125 Z M 641.574219 503.46875 L 638.046875 504.210938 L 637.085938 504.59375 L 630.988281 511.46875 L 632.832031 520.472656 L 641.175781 524.382812 L 644.703125 523.660156 L 645.667969 523.277344 L 651.78125 516.382812 L 649.917969 507.378906 Z M 801.984375 504.210938 L 792.820312 504.972656 L 787.949219 512.792969 L 791.296875 521.355469 L 794.363281 523.277344 L 795.328125 523.660156 L 804.488281 522.878906 L 809.34375 515.078125 L 806.015625 506.496094 L 802.945312 504.59375 Z M 602.496094 519.109375 L 598.96875 519.832031 L 598.003906 520.230469 L 591.910156 527.109375 L 593.753906 536.109375 L 602.09375 540.019531 L 605.625 539.277344 L 606.585938 538.898438 L 612.683594 532.019531 L 610.835938 523.019531 Z M 563.417969 534.746094 L 559.886719 535.46875 L 558.925781 535.847656 L 552.832031 542.726562 L 554.675781 551.746094 L 563.015625 555.636719 L 566.546875 554.914062 L 567.507812 554.535156 L 573.601562 547.65625 L 571.757812 538.636719 Z M 524.339844 550.363281 L 520.808594 551.105469 L 519.847656 551.488281 L 513.75 558.363281 L 515.597656 567.367188 L 523.9375 571.273438 L 527.464844 570.554688 L 528.429688 570.152344 L 534.523438 563.277344 L 532.679688 554.273438 Z M 485.257812 566.003906 L 481.710938 566.722656 L 480.765625 567.105469 L 474.652344 574.003906 L 476.515625 583.003906 L 484.859375 586.914062 L 488.386719 586.171875 L 489.347656 585.789062 L 495.445312 578.914062 L 493.601562 569.910156 Z M 958.320312 566.722656 L 949.136719 567.507812 L 944.285156 575.304688 L 947.613281 583.886719 L 950.679688 585.789062 L 951.644531 586.171875 L 960.808594 585.410156 L 965.679688 577.589844 L 962.332031 569.03125 L 959.261719 567.105469 Z M 446.179688 581.640625 L 442.628906 582.363281 L 441.6875 582.742188 L 435.574219 589.621094 L 437.4375 598.621094 L 445.757812 602.53125 L 449.308594 601.808594 L 450.269531 601.429688 L 456.367188 594.550781 L 454.519531 585.53125 Z M 997.398438 582.363281 L 988.214844 583.125 L 983.363281 590.941406 L 986.691406 599.503906 L 989.761719 601.429688 L 990.722656 601.808594 L 999.886719 601.027344 L 1004.757812 593.230469 L 1001.410156 584.667969 L 998.34375 582.742188 Z M 997.398438 582.363281 " fill-opacity="1" fill-rule="nonzero"/></g><g clip-path="url(#clip-1)"><path fill="rgb(0%, 24.308777%, 32.159424%)" d="M 640.320312 210.308594 C 636.507812 210.308594 633.398438 207.183594 633.398438 203.363281 C 633.398438 199.535156 636.507812 196.414062 640.320312 196.414062 C 644.144531 196.414062 647.273438 199.535156 647.273438 203.363281 C 647.273438 207.183594 644.144531 210.308594 640.320312 210.308594 Z M 685.171875 232.265625 C 684.417969 232.265625 683.683594 232.066406 683.027344 231.699219 C 681.996094 231.113281 681.261719 230.1875 680.9375 229.054688 C 680.617188 227.921875 680.769531 226.722656 681.347656 225.6875 C 686.644531 216.214844 688.40625 205.113281 686.28125 194.429688 C 685.304688 189.46875 683.550781 184.769531 681.054688 180.460938 C 679.863281 178.347656 680.582031 175.65625 682.667969 174.4375 C 683.355469 174.042969 684.109375 173.839844 684.875 173.839844 C 686.433594 173.839844 687.902344 174.683594 688.691406 176.050781 C 691.660156 181.21875 693.765625 186.820312 694.925781 192.730469 C 697.453125 205.457031 695.359375 218.703125 689.015625 230.015625 C 688.226562 231.402344 686.761719 232.265625 685.171875 232.265625 Z M 655.246094 220.511719 C 654.144531 220.511719 653.082031 220.109375 652.261719 219.355469 C 651.390625 218.558594 650.890625 217.472656 650.847656 216.292969 C 650.800781 215.121094 651.207031 213.996094 652 213.121094 C 655.105469 209.734375 656.429688 205.023438 655.550781 200.53125 C 654.996094 197.789062 653.707031 195.296875 651.777344 193.300781 C 650.085938 191.542969 650.128906 188.746094 651.867188 187.074219 C 652.691406 186.265625 653.792969 185.820312 654.933594 185.820312 C 656.136719 185.820312 657.253906 186.296875 658.09375 187.15625 C 661.210938 190.363281 663.316406 194.390625 664.191406 198.816406 C 665.628906 206.074219 663.46875 213.667969 658.472656 219.097656 C 657.644531 219.996094 656.46875 220.511719 655.246094 220.511719 Z M 670.359375 226.496094 C 669.515625 226.496094 668.691406 226.253906 667.96875 225.800781 C 666.996094 225.160156 666.304688 224.191406 666.0625 223.03125 C 665.804688 221.882812 666.042969 220.691406 666.664062 219.703125 C 670.9375 213.082031 672.445312 205.191406 670.917969 197.480469 C 670.160156 193.550781 668.644531 189.886719 666.421875 186.566406 C 665.753906 185.589844 665.523438 184.414062 665.753906 183.253906 C 665.984375 182.101562 666.632812 181.105469 667.617188 180.449219 C 668.347656 179.964844 669.191406 179.710938 670.0625 179.710938 C 671.539062 179.710938 672.914062 180.4375 673.722656 181.652344 C 676.59375 185.949219 678.5625 190.695312 679.5625 195.773438 C 681.527344 205.742188 679.574219 215.945312 674.058594 224.480469 C 673.246094 225.746094 671.863281 226.496094 670.359375 226.496094 Z M 596.53125 232.265625 C 594.933594 232.265625 593.457031 231.402344 592.683594 230.015625 C 586.335938 218.703125 584.234375 205.457031 586.765625 192.730469 C 587.925781 186.820312 590.035156 181.21875 593.003906 176.050781 C 593.789062 174.683594 595.261719 173.839844 596.816406 173.839844 C 597.578125 173.839844 598.347656 174.042969 599.023438 174.4375 C 601.109375 175.65625 601.828125 178.347656 600.636719 180.460938 C 598.140625 184.773438 596.378906 189.46875 595.417969 194.433594 C 593.285156 205.113281 595.042969 216.214844 600.347656 225.6875 C 600.925781 226.726562 601.070312 227.925781 600.757812 229.058594 C 600.4375 230.1875 599.695312 231.113281 598.664062 231.699219 C 598 232.066406 597.273438 232.265625 596.53125 232.265625 Z M 626.449219 220.511719 C 625.222656 220.511719 624.039062 219.996094 623.21875 219.097656 C 618.214844 213.664062 616.070312 206.074219 617.503906 198.816406 C 618.382812 194.390625 620.484375 190.363281 623.597656 187.15625 C 624.441406 186.296875 625.5625 185.820312 626.761719 185.820312 C 627.898438 185.820312 629.003906 186.265625 629.820312 187.070312 C 631.566406 188.746094 631.605469 191.542969 629.910156 193.300781 C 627.988281 195.296875 626.695312 197.789062 626.144531 200.53125 C 625.261719 205.023438 626.589844 209.734375 629.6875 213.121094 C 630.492188 213.996094 630.894531 215.121094 630.84375 216.292969 C 630.800781 217.472656 630.296875 218.558594 629.429688 219.351562 C 628.605469 220.109375 627.546875 220.511719 626.449219 220.511719 Z M 611.335938 226.496094 C 609.828125 226.496094 608.445312 225.746094 607.632812 224.480469 C 602.121094 215.945312 600.164062 205.742188 602.132812 195.773438 C 603.128906 190.695312 605.101562 185.949219 607.972656 181.652344 C 608.78125 180.4375 610.160156 179.710938 611.625 179.710938 C 612.5 179.710938 613.34375 179.964844 614.078125 180.449219 C 615.058594 181.105469 615.710938 182.101562 615.941406 183.253906 C 616.171875 184.414062 615.941406 185.589844 615.273438 186.566406 C 613.046875 189.886719 611.53125 193.550781 610.777344 197.480469 C 609.246094 205.191406 610.757812 213.082031 615.027344 219.703125 C 615.652344 220.691406 615.886719 221.882812 615.628906 223.03125 C 615.386719 224.191406 614.695312 225.160156 613.714844 225.800781 C 613 226.253906 612.175781 226.496094 611.335938 226.496094 Z M 611.335938 226.496094 " fill-opacity="1" fill-rule="nonzero"/></g><g clip-path="url(#clip-2)"><path fill="rgb(0%, 24.308777%, 32.159424%)" d="M 719.375 611.1875 C 715.5625 611.1875 712.457031 608.0625 712.457031 604.238281 C 712.457031 600.410156 715.5625 597.289062 719.375 597.289062 C 723.199219 597.289062 726.328125 600.410156 726.328125 604.238281 C 726.328125 608.0625 723.199219 611.1875 719.375 611.1875 Z M 764.230469 633.140625 C 763.476562 633.140625 762.738281 632.941406 762.085938 632.578125 C 761.050781 631.992188 760.316406 631.0625 759.992188 629.933594 C 759.675781 628.800781 759.824219 627.601562 760.402344 626.5625 C 765.699219 617.089844 767.464844 605.988281 765.335938 595.308594 C 764.363281 590.347656 762.609375 585.648438 760.109375 581.335938 C 758.917969 579.226562 759.636719 576.53125 761.722656 575.3125 C 762.410156 574.917969 763.164062 574.714844 763.929688 574.714844 C 765.492188 574.714844 766.957031 575.558594 767.746094 576.925781 C 770.714844 582.09375 772.820312 587.699219 773.980469 593.605469 C 776.507812 606.335938 774.414062 619.578125 768.070312 630.890625 C 767.28125 632.28125 765.820312 633.140625 764.230469 633.140625 Z M 734.300781 621.386719 C 733.203125 621.386719 732.140625 620.984375 731.320312 620.230469 C 730.445312 619.433594 729.949219 618.347656 729.90625 617.167969 C 729.855469 615.996094 730.261719 614.871094 731.054688 613.996094 C 734.160156 610.609375 735.484375 605.898438 734.605469 601.410156 C 734.050781 598.667969 732.765625 596.171875 730.832031 594.175781 C 729.140625 592.417969 729.183594 589.621094 730.921875 587.949219 C 731.746094 587.140625 732.847656 586.699219 733.988281 586.699219 C 735.191406 586.699219 736.308594 587.171875 737.148438 588.03125 C 740.269531 591.238281 742.371094 595.269531 743.25 599.691406 C 744.683594 606.953125 742.527344 614.542969 737.527344 619.972656 C 736.699219 620.871094 735.523438 621.386719 734.300781 621.386719 Z M 749.414062 627.371094 C 748.570312 627.371094 747.746094 627.128906 747.027344 626.675781 C 746.054688 626.035156 745.363281 625.066406 745.121094 623.90625 C 744.859375 622.757812 745.097656 621.566406 745.71875 620.578125 C 749.992188 613.957031 751.5 606.070312 749.976562 598.355469 C 749.214844 594.429688 747.699219 590.765625 745.476562 587.441406 C 744.808594 586.464844 744.578125 585.289062 744.808594 584.132812 C 745.039062 582.976562 745.691406 581.980469 746.671875 581.328125 C 747.402344 580.839844 748.246094 580.585938 749.117188 580.585938 C 750.59375 580.585938 751.96875 581.316406 752.78125 582.527344 C 755.652344 586.828125 757.617188 591.570312 758.621094 596.648438 C 760.582031 606.617188 758.632812 616.820312 753.113281 625.355469 C 752.300781 626.625 750.917969 627.371094 749.414062 627.371094 Z M 675.585938 633.140625 C 673.988281 633.140625 672.511719 632.28125 671.738281 630.890625 C 665.390625 619.578125 663.289062 606.335938 665.820312 593.605469 C 666.980469 587.699219 669.09375 582.09375 672.058594 576.925781 C 672.84375 575.558594 674.320312 574.714844 675.871094 574.714844 C 676.632812 574.714844 677.402344 574.917969 678.078125 575.3125 C 680.167969 576.53125 680.882812 579.226562 679.695312 581.339844 C 677.195312 585.648438 675.4375 590.347656 674.472656 595.308594 C 672.339844 605.988281 674.101562 617.089844 679.40625 626.5625 C 679.984375 627.601562 680.125 628.800781 679.8125 629.933594 C 679.492188 631.0625 678.75 631.992188 677.722656 632.578125 C 677.054688 632.941406 676.328125 633.140625 675.585938 633.140625 Z M 705.503906 621.386719 C 704.277344 621.386719 703.09375 620.871094 702.273438 619.972656 C 697.273438 614.542969 695.125 606.953125 696.558594 599.691406 C 697.441406 595.269531 699.539062 591.238281 702.652344 588.03125 C 703.5 587.171875 704.617188 586.699219 705.816406 586.699219 C 706.953125 586.699219 708.0625 587.140625 708.878906 587.949219 C 710.625 589.621094 710.660156 592.417969 708.96875 594.175781 C 707.042969 596.171875 705.75 598.667969 705.199219 601.40625 C 704.316406 605.898438 705.644531 610.609375 708.742188 613.996094 C 709.546875 614.871094 709.953125 615.996094 709.898438 617.167969 C 709.859375 618.347656 709.351562 619.433594 708.484375 620.230469 C 707.664062 620.984375 706.601562 621.386719 705.503906 621.386719 Z M 690.394531 627.371094 C 688.882812 627.371094 687.5 626.625 686.6875 625.355469 C 681.175781 616.820312 679.222656 606.617188 681.1875 596.648438 C 682.1875 591.570312 684.15625 586.828125 687.027344 582.527344 C 687.835938 581.316406 689.214844 580.585938 690.683594 580.585938 C 691.554688 580.585938 692.398438 580.839844 693.132812 581.328125 C 694.113281 581.980469 694.769531 582.976562 695 584.132812 C 695.230469 585.289062 695 586.464844 694.332031 587.441406 C 692.101562 590.765625 690.589844 594.429688 689.832031 598.355469 C 688.300781 606.070312 689.8125 613.957031 694.082031 620.578125 C 694.710938 621.566406 694.941406 622.757812 694.6875 623.90625 C 694.441406 625.066406 693.75 626.035156 692.769531 626.675781 C 692.058594 627.128906 691.234375 627.371094 690.394531 627.371094 Z M 690.394531 627.371094 " fill-opacity="1" fill-rule="nonzero"/></g><g clip-path="url(#clip-3)"><path fill="rgb(0%, 24.308777%, 32.159424%)" d="M 952.253906 268.847656 C 948.441406 268.847656 945.332031 265.722656 945.332031 261.902344 C 945.332031 258.070312 948.441406 254.949219 952.253906 254.949219 C 956.078125 254.949219 959.207031 258.070312 959.207031 261.902344 C 959.207031 265.722656 956.078125 268.847656 952.253906 268.847656 Z M 997.105469 290.804688 C 996.351562 290.804688 995.613281 290.605469 994.960938 290.238281 C 993.929688 289.652344 993.195312 288.726562 992.871094 287.59375 C 992.550781 286.460938 992.703125 285.261719 993.28125 284.222656 C 998.578125 274.75 1000.339844 263.648438 998.214844 252.96875 C 997.238281 248.007812 995.484375 243.308594 992.988281 239 C 991.796875 236.886719 992.515625 234.195312 994.601562 232.972656 C 995.285156 232.578125 996.042969 232.378906 996.808594 232.378906 C 998.367188 232.378906 999.835938 233.21875 1000.625 234.589844 C 1003.59375 239.753906 1005.699219 245.359375 1006.859375 251.269531 C 1009.386719 263.996094 1007.292969 277.238281 1000.949219 288.550781 C 1000.160156 289.941406 998.695312 290.804688 997.105469 290.804688 Z M 967.179688 279.050781 C 966.078125 279.050781 965.015625 278.648438 964.195312 277.890625 C 963.324219 277.09375 962.824219 276.007812 962.78125 274.828125 C 962.734375 273.660156 963.140625 272.53125 963.933594 271.660156 C 967.039062 268.273438 968.363281 263.5625 967.484375 259.070312 C 966.929688 256.328125 965.640625 253.835938 963.710938 251.835938 C 962.019531 250.082031 962.0625 247.28125 963.800781 245.609375 C 964.625 244.804688 965.726562 244.359375 966.867188 244.359375 C 968.070312 244.359375 969.1875 244.835938 970.027344 245.695312 C 973.144531 248.898438 975.25 252.929688 976.125 257.355469 C 977.5625 264.613281 975.402344 272.203125 970.40625 277.636719 C 969.578125 278.535156 968.402344 279.050781 967.179688 279.050781 Z M 982.292969 285.035156 C 981.449219 285.035156 980.625 284.789062 979.902344 284.335938 C 978.929688 283.695312 978.238281 282.726562 977.996094 281.570312 C 977.738281 280.417969 977.976562 279.230469 978.597656 278.238281 C 982.871094 271.617188 984.378906 263.730469 982.851562 256.015625 C 982.09375 252.089844 980.578125 248.425781 978.355469 245.101562 C 977.6875 244.128906 977.457031 242.953125 977.6875 241.792969 C 977.917969 240.640625 978.566406 239.640625 979.550781 238.988281 C 980.28125 238.5 981.125 238.246094 981.996094 238.246094 C 983.472656 238.246094 984.847656 238.976562 985.65625 240.191406 C 988.527344 244.488281 990.496094 249.234375 991.496094 254.308594 C 993.460938 264.277344 991.507812 274.484375 985.992188 283.015625 C 985.179688 284.285156 983.796875 285.035156 982.292969 285.035156 Z M 908.464844 290.804688 C 906.867188 290.804688 905.390625 289.941406 904.617188 288.550781 C 898.269531 277.238281 896.167969 263.996094 898.699219 251.269531 C 899.859375 245.359375 901.96875 239.753906 904.9375 234.589844 C 905.722656 233.21875 907.195312 232.378906 908.75 232.378906 C 909.511719 232.378906 910.28125 232.578125 910.957031 232.976562 C 913.042969 234.195312 913.761719 236.886719 912.570312 239 C 910.074219 243.308594 908.3125 248.007812 907.347656 252.96875 C 905.21875 263.648438 906.976562 274.75 912.28125 284.222656 C 912.859375 285.261719 913.003906 286.460938 912.691406 287.59375 C 912.371094 288.726562 911.628906 289.652344 910.597656 290.238281 C 909.933594 290.605469 909.207031 290.804688 908.464844 290.804688 Z M 938.382812 279.050781 C 937.15625 279.050781 935.972656 278.535156 935.152344 277.632812 C 930.148438 272.203125 928.003906 264.613281 929.4375 257.355469 C 930.316406 252.929688 932.417969 248.898438 935.53125 245.695312 C 936.375 244.835938 937.496094 244.359375 938.695312 244.359375 C 939.832031 244.359375 940.9375 244.804688 941.753906 245.609375 C 943.5 247.28125 943.539062 250.082031 941.84375 251.835938 C 939.921875 253.835938 938.628906 256.328125 938.078125 259.070312 C 937.195312 263.5625 938.523438 268.269531 941.621094 271.660156 C 942.425781 272.53125 942.828125 273.660156 942.777344 274.828125 C 942.734375 276.007812 942.230469 277.09375 941.363281 277.890625 C 940.539062 278.648438 939.480469 279.050781 938.382812 279.050781 Z M 923.269531 285.035156 C 921.761719 285.035156 920.378906 284.285156 919.566406 283.015625 C 914.054688 274.484375 912.097656 264.277344 914.066406 254.308594 C 915.0625 249.234375 917.035156 244.488281 919.90625 240.191406 C 920.714844 238.976562 922.09375 238.246094 923.558594 238.246094 C 924.433594 238.246094 925.277344 238.5 926.011719 238.988281 C 926.992188 239.640625 927.644531 240.640625 927.875 241.792969 C 928.105469 242.953125 927.875 244.128906 927.207031 245.101562 C 924.980469 248.425781 923.464844 252.089844 922.707031 256.015625 C 921.179688 263.730469 922.691406 271.617188 926.960938 278.238281 C 927.585938 279.230469 927.820312 280.417969 927.5625 281.570312 C 927.320312 282.726562 926.628906 283.695312 925.648438 284.335938 C 924.933594 284.789062 924.109375 285.035156 923.269531 285.035156 Z M 923.269531 285.035156 " fill-opacity="1" fill-rule="nonzero"/></g><g clip-path="url(#clip-4)"><path fill="rgb(0%, 24.308777%, 32.159424%)" d="M 481.59375 486.074219 C 477.785156 486.074219 474.675781 482.949219 474.675781 479.125 C 474.675781 475.296875 477.785156 472.175781 481.59375 472.175781 C 485.421875 472.175781 488.546875 475.296875 488.546875 479.125 C 488.546875 482.949219 485.421875 486.074219 481.59375 486.074219 Z M 526.449219 508.027344 C 525.695312 508.027344 524.957031 507.828125 524.304688 507.464844 C 523.269531 506.878906 522.535156 505.949219 522.214844 504.820312 C 521.894531 503.6875 522.042969 502.488281 522.621094 501.449219 C 527.917969 491.976562 529.683594 480.875 527.554688 470.195312 C 526.582031 465.234375 524.828125 460.535156 522.328125 456.226562 C 521.140625 454.113281 521.855469 451.417969 523.945312 450.199219 C 524.628906 449.804688 525.382812 449.605469 526.148438 449.605469 C 527.710938 449.605469 529.179688 450.445312 529.964844 451.816406 C 532.933594 456.980469 535.042969 462.585938 536.203125 468.496094 C 538.726562 481.222656 536.632812 494.464844 530.289062 505.777344 C 529.5 507.167969 528.039062 508.027344 526.449219 508.027344 Z M 496.519531 496.277344 C 495.421875 496.277344 494.359375 495.871094 493.539062 495.117188 C 492.664062 494.320312 492.167969 493.234375 492.125 492.054688 C 492.074219 490.886719 492.480469 489.757812 493.277344 488.882812 C 496.378906 485.496094 497.703125 480.785156 496.828125 476.296875 C 496.269531 473.554688 494.984375 471.058594 493.050781 469.0625 C 491.363281 467.308594 491.40625 464.507812 493.140625 462.835938 C 493.96875 462.027344 495.066406 461.585938 496.207031 461.585938 C 497.410156 461.585938 498.527344 462.0625 499.371094 462.917969 C 502.488281 466.125 504.589844 470.15625 505.46875 474.582031 C 506.902344 481.839844 504.746094 489.429688 499.746094 494.859375 C 498.917969 495.757812 497.746094 496.277344 496.519531 496.277344 Z M 511.632812 502.261719 C 510.789062 502.261719 509.964844 502.015625 509.246094 501.5625 C 508.273438 500.921875 507.582031 499.953125 507.339844 498.796875 C 507.082031 497.644531 507.316406 496.453125 507.9375 495.464844 C 512.210938 488.84375 513.722656 480.957031 512.195312 473.242188 C 511.433594 469.316406 509.921875 465.652344 507.695312 462.328125 C 507.027344 461.355469 506.800781 460.175781 507.027344 459.019531 C 507.257812 457.867188 507.910156 456.867188 508.890625 456.214844 C 509.625 455.726562 510.46875 455.472656 511.335938 455.472656 C 512.8125 455.472656 514.1875 456.203125 515 457.414062 C 517.871094 461.714844 519.835938 466.460938 520.839844 471.535156 C 522.804688 481.503906 520.851562 491.710938 515.332031 500.242188 C 514.519531 501.511719 513.140625 502.261719 511.632812 502.261719 Z M 437.804688 508.027344 C 436.207031 508.027344 434.734375 507.167969 433.957031 505.777344 C 427.613281 494.464844 425.511719 481.222656 428.039062 468.496094 C 429.203125 462.585938 431.3125 456.980469 434.28125 451.816406 C 435.0625 450.445312 436.539062 449.605469 438.089844 449.605469 C 438.851562 449.605469 439.621094 449.804688 440.296875 450.199219 C 442.386719 451.417969 443.101562 454.113281 441.914062 456.226562 C 439.417969 460.535156 437.65625 465.234375 436.691406 470.195312 C 434.558594 480.875 436.320312 491.976562 441.625 501.449219 C 442.203125 502.488281 442.34375 503.6875 442.03125 504.820312 C 441.714844 505.949219 440.96875 506.878906 439.941406 507.464844 C 439.277344 507.828125 438.546875 508.027344 437.804688 508.027344 Z M 467.722656 496.277344 C 466.5 496.277344 465.3125 495.757812 464.492188 494.859375 C 459.492188 489.429688 457.34375 481.839844 458.78125 474.578125 C 459.660156 470.15625 461.757812 466.125 464.871094 462.917969 C 465.71875 462.058594 466.835938 461.585938 468.035156 461.585938 C 469.171875 461.585938 470.28125 462.027344 471.097656 462.835938 C 472.84375 464.507812 472.882812 467.308594 471.1875 469.0625 C 469.261719 471.058594 467.96875 473.554688 467.417969 476.296875 C 466.535156 480.785156 467.863281 485.496094 470.964844 488.882812 C 471.765625 489.757812 472.171875 490.882812 472.121094 492.054688 C 472.078125 493.234375 471.574219 494.320312 470.703125 495.117188 C 469.882812 495.871094 468.820312 496.277344 467.722656 496.277344 Z M 452.613281 502.261719 C 451.105469 502.261719 449.722656 501.511719 448.90625 500.242188 C 443.398438 491.710938 441.441406 481.503906 443.40625 471.535156 C 444.40625 466.457031 446.375 461.714844 449.246094 457.414062 C 450.058594 456.203125 451.433594 455.472656 452.902344 455.472656 C 453.773438 455.472656 454.617188 455.726562 455.355469 456.214844 C 456.335938 456.867188 456.988281 457.867188 457.21875 459.019531 C 457.449219 460.175781 457.21875 461.355469 456.550781 462.328125 C 454.320312 465.652344 452.808594 469.316406 452.050781 473.242188 C 450.519531 480.957031 452.03125 488.84375 456.300781 495.464844 C 456.929688 496.453125 457.164062 497.644531 456.90625 498.796875 C 456.660156 499.953125 455.96875 500.921875 454.988281 501.5625 C 454.277344 502.015625 453.453125 502.261719 452.613281 502.261719 Z M 452.613281 502.261719 " fill-opacity="1" fill-rule="nonzero"/></g></svg>