<svg xmlns="http://www.w3.org/2000/svg" xmlns:xlink="http://www.w3.org/1999/xlink" width="1920" zoomAndPan="magnify" viewBox="0 0 1440 809.999993" height="1080" preserveAspectRatio="xMidYMid meet" version="1.0"><defs><clipPath id="1092cd1a12"><path d="M 468 406 L 972 406 L 972 727.003906 L 468 727.003906 Z M 468 406 " clip-rule="nonzero"/></clipPath><clipPath id="b3b42d0a68"><path d="M 468 406 L 972 406 L 972 727.003906 L 468 727.003906 Z M 468 406 " clip-rule="nonzero"/></clipPath></defs><rect x="-144" width="1728" fill="#ffffff" y="-80.999999" height="971.999992" fill-opacity="1"/><rect x="-144" width="1728" fill="#003e52" y="-80.999999" height="971.999992" fill-opacity="1"/><path fill="#ff914d" d="M 622.347656 504.039062 C 620.226562 504.039062 618.105469 503.539062 616.097656 502.5625 L 392.898438 390.964844 C 388.378906 388.703125 385.421875 384.183594 385.226562 379.132812 C 384.976562 374.082031 387.488281 369.3125 391.753906 366.664062 L 503.355469 296.914062 C 507.429688 294.316406 512.644531 294.066406 516.96875 296.269531 L 726.21875 400.894531 C 730.484375 403.015625 733.386719 407.230469 733.835938 411.945312 C 734.335938 416.714844 732.328125 421.375 728.589844 424.332031 L 630.941406 501.054688 C 628.457031 503.035156 625.414062 504.039062 622.347656 504.039062 Z M 427.632812 377.125 L 620.671875 473.65625 L 694.050781 416.015625 L 511.5 324.699219 Z M 427.632812 377.125 " fill-opacity="1" fill-rule="nonzero"/><path fill="#ff914d" d="M 817.644531 504.039062 C 814.574219 504.039062 811.535156 503.035156 809.023438 501.082031 L 711.375 424.359375 C 707.609375 421.402344 705.628906 416.742188 706.128906 411.972656 C 706.605469 407.230469 709.476562 403.042969 713.746094 400.921875 L 922.996094 296.300781 C 927.292969 294.121094 932.507812 294.375 936.609375 296.941406 L 1048.207031 366.691406 C 1052.476562 369.367188 1054.988281 374.140625 1054.738281 379.160156 C 1054.515625 384.210938 1051.585938 388.730469 1047.066406 390.992188 L 823.867188 502.589844 C 821.886719 503.539062 819.765625 504.039062 817.644531 504.039062 Z M 745.941406 416.015625 L 819.320312 473.65625 L 1012.359375 377.125 L 928.492188 324.699219 Z M 745.941406 416.015625 " fill-opacity="1" fill-rule="nonzero"/><g clip-path="url(#1092cd1a12)"><path fill="#ff914d" d="M 719.996094 727.238281 C 718.210938 727.238281 716.367188 726.875 714.695312 726.179688 L 477.546875 628.53125 C 472.300781 626.382812 468.898438 621.277344 468.898438 615.640625 L 468.898438 420.339844 C 468.898438 412.640625 475.148438 406.390625 482.847656 406.390625 C 490.546875 406.390625 496.796875 412.640625 496.796875 420.339844 L 496.796875 606.292969 L 719.996094 698.195312 L 943.195312 606.292969 L 943.195312 420.339844 C 943.195312 412.640625 949.445312 406.390625 957.144531 406.390625 C 964.84375 406.390625 971.09375 412.640625 971.09375 420.339844 L 971.09375 615.640625 C 971.09375 621.277344 967.691406 626.382812 962.445312 628.53125 L 725.296875 726.179688 C 723.621094 726.875 721.78125 727.238281 719.996094 727.238281 Z M 719.996094 727.238281 " fill-opacity="1" fill-rule="nonzero"/></g><path fill="#ff914d" d="M 587.472656 252.941406 L 538.648438 252.941406 C 530.945312 252.941406 524.699219 246.695312 524.699219 238.992188 C 524.699219 231.292969 530.945312 225.042969 538.648438 225.042969 L 587.472656 225.042969 C 598.996094 225.042969 608.398438 215.640625 608.398438 204.117188 C 608.398438 192.597656 598.996094 183.195312 587.472656 183.195312 L 573.523438 183.195312 C 546.597656 183.195312 524.699219 161.292969 524.699219 134.367188 C 524.699219 107.445312 546.597656 85.542969 573.523438 85.542969 L 622.347656 85.542969 C 630.046875 85.542969 636.296875 91.792969 636.296875 99.496094 C 636.296875 107.195312 630.046875 113.445312 622.347656 113.445312 L 573.523438 113.445312 C 562 113.445312 552.597656 122.847656 552.597656 134.367188 C 552.597656 145.890625 562 155.292969 573.523438 155.292969 L 587.472656 155.292969 C 614.394531 155.292969 636.296875 177.195312 636.296875 204.117188 C 636.296875 231.042969 614.394531 252.941406 587.472656 252.941406 Z M 587.472656 252.941406 " fill-opacity="1" fill-rule="nonzero"/><path fill="#ff914d" d="M 733.945312 252.941406 L 678.144531 252.941406 C 670.445312 252.941406 664.195312 246.695312 664.195312 238.992188 L 664.195312 99.496094 C 664.195312 91.792969 670.445312 85.542969 678.144531 85.542969 L 733.945312 85.542969 C 757.019531 85.542969 775.796875 104.320312 775.796875 127.394531 L 775.796875 211.09375 C 775.796875 234.167969 757.019531 252.941406 733.945312 252.941406 Z M 692.097656 225.042969 L 733.945312 225.042969 C 741.617188 225.042969 747.894531 218.765625 747.894531 211.09375 L 747.894531 127.394531 C 747.894531 119.722656 741.617188 113.445312 733.945312 113.445312 L 692.097656 113.445312 Z M 692.097656 225.042969 " fill-opacity="1" fill-rule="nonzero"/><path fill="#ff914d" d="M 817.644531 252.941406 C 809.945312 252.941406 803.695312 246.695312 803.695312 238.992188 L 803.695312 99.496094 C 803.695312 91.792969 809.945312 85.542969 817.644531 85.542969 C 825.34375 85.542969 831.59375 91.792969 831.59375 99.496094 L 831.59375 238.992188 C 831.59375 246.695312 825.34375 252.941406 817.644531 252.941406 Z M 817.644531 252.941406 " fill-opacity="1" fill-rule="nonzero"/><path fill="#ff914d" d="M 901.34375 252.941406 C 898.191406 252.941406 895.011719 251.882812 892.417969 249.707031 L 808.71875 179.957031 C 805.507812 177.308594 803.695312 173.371094 803.695312 169.242188 C 803.695312 165.113281 805.507812 161.179688 808.71875 158.53125 L 892.417969 88.78125 C 898.332031 83.84375 907.089844 84.625 912.058594 90.539062 C 916.996094 96.453125 916.1875 105.242188 910.300781 110.179688 L 839.433594 169.242188 L 910.273438 228.28125 C 916.1875 233.21875 916.96875 242.007812 912.03125 247.921875 C 909.296875 251.214844 905.335938 252.941406 901.34375 252.941406 Z M 901.34375 252.941406 " fill-opacity="1" fill-rule="nonzero"/><path fill="#ffffff" d="M 622.347656 504.039062 C 620.226562 504.039062 618.105469 503.539062 616.097656 502.5625 L 392.898438 390.964844 C 388.378906 388.703125 385.421875 384.183594 385.226562 379.132812 C 384.976562 374.082031 387.488281 369.3125 391.753906 366.664062 L 503.355469 296.914062 C 507.429688 294.316406 512.644531 294.066406 516.96875 296.269531 L 726.21875 400.894531 C 730.484375 403.015625 733.386719 407.230469 733.835938 411.945312 C 734.335938 416.714844 732.328125 421.375 728.589844 424.332031 L 630.941406 501.054688 C 628.457031 503.035156 625.414062 504.039062 622.347656 504.039062 Z M 427.632812 377.125 L 620.671875 473.65625 L 694.050781 416.015625 L 511.5 324.699219 Z M 427.632812 377.125 " fill-opacity="1" fill-rule="nonzero"/><path fill="#ffffff" d="M 817.644531 504.039062 C 814.574219 504.039062 811.535156 503.035156 809.023438 501.082031 L 711.375 424.359375 C 707.609375 421.402344 705.628906 416.742188 706.128906 411.972656 C 706.605469 407.230469 709.476562 403.042969 713.746094 400.921875 L 922.996094 296.300781 C 927.292969 294.121094 932.507812 294.375 936.609375 296.941406 L 1048.207031 366.691406 C 1052.476562 369.367188 1054.988281 374.140625 1054.738281 379.160156 C 1054.515625 384.210938 1051.585938 388.730469 1047.066406 390.992188 L 823.867188 502.589844 C 821.886719 503.539062 819.765625 504.039062 817.644531 504.039062 Z M 745.941406 416.015625 L 819.320312 473.65625 L 1012.359375 377.125 L 928.492188 324.699219 Z M 745.941406 416.015625 " fill-opacity="1" fill-rule="nonzero"/><g clip-path="url(#b3b42d0a68)"><path fill="#ffffff" d="M 719.996094 727.238281 C 718.210938 727.238281 716.367188 726.875 714.695312 726.179688 L 477.546875 628.53125 C 472.300781 626.382812 468.898438 621.277344 468.898438 615.640625 L 468.898438 420.339844 C 468.898438 412.640625 475.148438 406.390625 482.847656 406.390625 C 490.546875 406.390625 496.796875 412.640625 496.796875 420.339844 L 496.796875 606.292969 L 719.996094 698.195312 L 943.195312 606.292969 L 943.195312 420.339844 C 943.195312 412.640625 949.445312 406.390625 957.144531 406.390625 C 964.84375 406.390625 971.09375 412.640625 971.09375 420.339844 L 971.09375 615.640625 C 971.09375 621.277344 967.691406 626.382812 962.445312 628.53125 L 725.296875 726.179688 C 723.621094 726.875 721.78125 727.238281 719.996094 727.238281 Z M 719.996094 727.238281 " fill-opacity="1" fill-rule="nonzero"/></g></svg>