<?xml version="1.0" encoding="UTF-8"?><svg xmlns="http://www.w3.org/2000/svg" xmlns:xlink="http://www.w3.org/1999/xlink" width="1440" zoomAndPan="magnify" viewBox="0 0 1440 809.999993" height="809.999993" preserveAspectRatio="xMidYMid meet" version="1.0"><defs><clipPath id="clip-0"><path d="M 537.988281 95 L 901.738281 95 L 901.738281 484 L 537.988281 484 Z M 537.988281 95 " clip-rule="nonzero"/></clipPath><clipPath id="clip-1"><path d="M 439.410156 439 L 580 439 L 580 672 L 439.410156 672 Z M 439.410156 439 " clip-rule="nonzero"/></clipPath></defs><g clip-path="url(#clip-0)"><path fill="rgb(100%, 51.759338%, 0%)" d="M 719.863281 483.308594 C 713.035156 483.308594 706.222656 481.589844 700.007812 478.179688 L 559.46875 401.175781 C 546.222656 393.894531 537.988281 380.011719 537.988281 364.886719 L 537.988281 213.820312 C 537.988281 198.714844 546.222656 184.8125 559.46875 177.550781 L 700.007812 100.542969 C 712.441406 93.726562 727.273438 93.726562 739.722656 100.542969 L 880.261719 177.550781 C 893.503906 184.8125 901.738281 198.695312 901.738281 213.820312 L 901.738281 364.90625 C 901.738281 380.011719 893.503906 393.910156 880.261719 401.175781 L 739.722656 478.179688 C 733.503906 481.589844 726.691406 483.308594 719.863281 483.308594 Z M 719.863281 111.960938 C 715.765625 111.960938 711.679688 112.988281 707.960938 115.039062 L 567.421875 192.042969 C 559.46875 196.414062 554.523438 204.753906 554.523438 213.820312 L 554.523438 364.90625 C 554.523438 373.972656 559.46875 382.3125 567.421875 386.664062 L 707.960938 463.667969 C 715.433594 467.789062 724.328125 467.757812 731.769531 463.667969 L 872.308594 386.664062 C 880.261719 382.292969 885.207031 373.957031 885.207031 364.90625 L 885.207031 213.820312 C 885.207031 204.753906 880.261719 196.414062 872.308594 192.0625 L 731.769531 115.054688 C 728.050781 112.988281 723.949219 111.960938 719.863281 111.960938 Z M 703.992188 107.773438 L 704.15625 107.773438 Z M 703.992188 107.773438 " fill-opacity="1" fill-rule="nonzero"/></g><path fill="rgb(100%, 51.759338%, 0%)" d="M 641.328125 338.992188 L 612.394531 338.992188 C 607.828125 338.992188 604.125 335.285156 604.125 330.71875 C 604.125 326.152344 607.828125 322.445312 612.394531 322.445312 L 641.328125 322.445312 C 648.171875 322.445312 653.726562 316.871094 653.726562 310.035156 C 653.726562 303.203125 648.171875 297.628906 641.328125 297.628906 L 633.0625 297.628906 C 617.105469 297.628906 604.125 284.636719 604.125 268.671875 C 604.125 252.703125 617.105469 239.714844 633.0625 239.714844 L 661.996094 239.714844 C 666.558594 239.714844 670.261719 243.421875 670.261719 247.988281 C 670.261719 252.554688 666.558594 256.261719 661.996094 256.261719 L 633.0625 256.261719 C 626.214844 256.261719 620.660156 261.835938 620.660156 268.671875 C 620.660156 275.503906 626.214844 281.082031 633.0625 281.082031 L 641.328125 281.082031 C 657.28125 281.082031 670.261719 294.070312 670.261719 310.035156 C 670.261719 326.003906 657.28125 338.992188 641.328125 338.992188 Z M 641.328125 338.992188 " fill-opacity="1" fill-rule="nonzero"/><path fill="rgb(100%, 51.759338%, 0%)" d="M 728.132812 338.992188 L 695.0625 338.992188 C 690.5 338.992188 686.796875 335.285156 686.796875 330.71875 L 686.796875 247.988281 C 686.796875 243.421875 690.5 239.714844 695.0625 239.714844 L 728.132812 239.714844 C 741.804688 239.714844 752.933594 250.851562 752.933594 264.535156 L 752.933594 314.171875 C 752.933594 327.855469 741.804688 338.992188 728.132812 338.992188 Z M 703.332031 322.445312 L 728.132812 322.445312 C 732.695312 322.445312 736.398438 318.722656 736.398438 314.171875 L 736.398438 264.535156 C 736.398438 259.984375 732.695312 256.261719 728.132812 256.261719 L 703.332031 256.261719 Z M 703.332031 322.445312 " fill-opacity="1" fill-rule="nonzero"/><path fill="rgb(100%, 51.759338%, 0%)" d="M 777.734375 338.992188 C 773.171875 338.992188 769.46875 335.285156 769.46875 330.71875 L 769.46875 247.988281 C 769.46875 243.421875 773.171875 239.714844 777.734375 239.714844 C 782.296875 239.714844 786 243.421875 786 247.988281 L 786 330.71875 C 786 335.285156 782.296875 338.992188 777.734375 338.992188 Z M 777.734375 338.992188 " fill-opacity="1" fill-rule="nonzero"/><path fill="rgb(100%, 51.759338%, 0%)" d="M 827.335938 338.992188 C 825.46875 338.992188 823.597656 338.363281 822.046875 337.074219 L 772.441406 295.707031 C 770.558594 294.136719 769.46875 291.804688 769.46875 289.355469 C 769.46875 286.90625 770.558594 284.570312 772.441406 283 L 822.046875 241.632812 C 825.566406 238.6875 830.773438 239.203125 833.703125 242.675781 C 836.628906 246.183594 836.148438 251.398438 832.644531 254.324219 L 790.648438 289.355469 L 832.628906 324.367188 C 836.132812 327.292969 836.613281 332.507812 833.683594 336.015625 C 832.046875 337.96875 829.699219 338.992188 827.335938 338.992188 Z M 827.335938 338.992188 " fill-opacity="1" fill-rule="nonzero"/><g clip-path="url(#clip-1)"><path fill="rgb(0%, 24.308777%, 32.159424%)" d="M 520.886719 671.953125 L 451.050781 671.953125 C 444.625 671.953125 439.410156 666.738281 439.410156 660.3125 L 439.410156 450.8125 C 439.410156 444.386719 444.625 439.171875 451.050781 439.171875 C 530.21875 439.171875 572.050781 465.847656 573.796875 466.988281 C 577.960938 469.714844 579.941406 474.765625 578.730469 479.605469 L 532.175781 663.175781 C 530.847656 668.34375 526.214844 671.953125 520.886719 671.953125 Z M 462.691406 648.675781 L 511.828125 648.675781 L 553.941406 482.703125 C 540.835938 476.417969 509.96875 464.40625 462.691406 462.660156 Z M 462.691406 648.675781 " fill-opacity="1" fill-rule="nonzero"/></g><path fill="rgb(0%, 24.308777%, 32.159424%)" d="M 742.027344 718.507812 C 687.160156 718.507812 580.894531 672.300781 522.445312 644.765625 C 516.625 642.015625 514.132812 635.082031 516.882812 629.285156 C 519.605469 623.464844 526.542969 620.972656 532.359375 623.71875 C 628.847656 669.160156 705.246094 695.230469 742.027344 695.230469 C 798.636719 695.230469 932.089844 628.726562 970.476562 608.9375 C 964.425781 601.046875 951.925781 590.480469 928.25 590.480469 C 906.765625 590.480469 879.53125 599.09375 853.179688 607.402344 C 825.175781 616.25 796.195312 625.398438 771.125 625.398438 C 723.078125 625.398438 659.273438 602.398438 656.574219 601.421875 C 650.542969 599.230469 647.425781 592.550781 649.613281 586.5 C 651.800781 580.46875 658.457031 577.351562 664.535156 579.539062 C 665.140625 579.773438 727.199219 602.117188 771.125 602.117188 C 792.609375 602.117188 819.84375 593.503906 846.195312 585.195312 C 874.199219 576.351562 903.179688 567.203125 928.25 567.203125 C 982.558594 567.203125 996.898438 608.332031 997.480469 610.078125 C 999.269531 615.457031 996.945312 621.371094 991.914062 624.046875 C 984.675781 627.886719 813.933594 718.507812 742.027344 718.507812 Z M 742.027344 718.507812 " fill-opacity="1" fill-rule="nonzero"/><path fill="rgb(0%, 24.308777%, 32.159424%)" d="M 823.5 615.851562 C 817.074219 615.851562 811.859375 610.636719 811.859375 604.214844 L 811.859375 592.574219 C 811.859375 576.328125 800.917969 562.40625 785.230469 558.75 L 566.089844 505.886719 C 559.828125 504.398438 555.988281 498.113281 557.5 491.851562 C 559.015625 485.589844 565.324219 481.75 571.539062 483.261719 L 790.585938 536.101562 C 816.796875 542.199219 835.136719 565.433594 835.136719 592.574219 L 835.136719 604.214844 C 835.136719 610.636719 829.925781 615.851562 823.5 615.851562 Z M 823.5 615.851562 " fill-opacity="1" fill-rule="nonzero"/></svg>