<svg xmlns="http://www.w3.org/2000/svg" xmlns:xlink="http://www.w3.org/1999/xlink" width="1920" zoomAndPan="magnify" viewBox="0 0 1440 809.999993" height="1080" preserveAspectRatio="xMidYMid meet" version="1.0"><defs><clipPath id="2a4e88c414"><path d="M 355.3125 50 L 1084.3125 50 L 1084.3125 760.597656 L 355.3125 760.597656 Z M 355.3125 50 " clip-rule="nonzero"/></clipPath><clipPath id="020cdf0838"><path d="M 583.34375 50 L 860.09375 50 L 860.09375 365.347656 L 583.34375 365.347656 Z M 583.34375 50 " clip-rule="nonzero"/></clipPath></defs><g clip-path="url(#2a4e88c414)"><path fill="#ffffff" d="M 721.824219 363.328125 C 722.949219 363.667969 724.101562 363.839844 725.277344 363.839844 C 726.414062 363.835938 727.53125 363.679688 728.625 363.367188 C 736.945312 360.613281 745.058594 357.351562 752.96875 353.578125 C 760.878906 349.800781 768.519531 345.542969 775.890625 340.804688 C 783.261719 336.066406 790.304688 330.882812 797.023438 325.257812 C 803.742188 319.628906 810.082031 313.601562 816.039062 307.171875 C 841.226562 280.550781 855.101562 252.195312 855.101562 227.316406 L 855.101562 125.0625 C 855.105469 123.972656 854.960938 122.902344 854.667969 121.851562 C 854.378906 120.800781 853.949219 119.808594 853.386719 118.875 C 852.820312 117.945312 852.140625 117.105469 851.347656 116.359375 C 850.550781 115.613281 849.671875 114.988281 848.703125 114.484375 L 730.835938 52.199219 C 729.976562 51.746094 729.074219 51.40625 728.132812 51.171875 C 727.1875 50.9375 726.230469 50.824219 725.261719 50.824219 C 724.289062 50.824219 723.332031 50.9375 722.390625 51.171875 C 721.445312 51.40625 720.542969 51.746094 719.683594 52.199219 L 602.613281 114.101562 C 601.550781 114.574219 600.574219 115.183594 599.691406 115.9375 C 598.804688 116.691406 598.046875 117.554688 597.410156 118.527344 C 596.777344 119.5 596.292969 120.542969 595.957031 121.65625 C 595.625 122.769531 595.457031 123.90625 595.457031 125.070312 L 595.457031 227.328125 C 595.457031 252.207031 609.328125 280.566406 634.519531 307.183594 C 640.472656 313.601562 646.804688 319.621094 653.511719 325.242188 C 660.222656 330.863281 667.261719 336.039062 674.621094 340.773438 C 681.984375 345.507812 689.613281 349.765625 697.511719 353.539062 C 705.410156 357.3125 713.515625 360.574219 721.824219 363.328125 Z M 619.457031 132.273438 L 725.296875 76.316406 L 831.089844 132.273438 L 831.089844 227.328125 C 831.089844 246.109375 819.574219 268.640625 798.664062 290.777344 C 793.617188 296.207031 788.265625 301.320312 782.613281 306.117188 C 776.957031 310.914062 771.042969 315.359375 764.859375 319.453125 C 758.679688 323.546875 752.277344 327.261719 745.65625 330.597656 C 739.035156 333.929688 732.238281 336.863281 725.269531 339.390625 C 718.300781 336.863281 711.503906 333.933594 704.878906 330.597656 C 698.257812 327.265625 691.855469 323.550781 685.671875 319.453125 C 679.492188 315.359375 673.574219 310.914062 667.917969 306.117188 C 662.265625 301.320312 656.914062 296.207031 651.867188 290.777344 C 630.953125 268.65625 619.4375 246.128906 619.4375 227.328125 Z M 659.003906 223.332031 C 658.53125 222.695312 658.125 222.015625 657.789062 221.296875 C 657.449219 220.578125 657.1875 219.832031 656.996094 219.058594 C 656.808594 218.289062 656.695312 217.503906 656.660156 216.710938 C 656.628906 215.914062 656.671875 215.125 656.796875 214.339844 C 656.921875 213.554688 657.121094 212.789062 657.398438 212.046875 C 657.675781 211.300781 658.023438 210.589844 658.441406 209.914062 C 658.859375 209.238281 659.339844 208.609375 659.882812 208.027344 C 660.425781 207.449219 661.019531 206.929688 661.667969 206.464844 C 662.316406 206.003906 663 205.613281 663.726562 205.285156 C 664.453125 204.960938 665.203125 204.710938 665.976562 204.535156 C 666.753906 204.363281 667.539062 204.265625 668.332031 204.246094 C 669.128906 204.226562 669.917969 204.285156 670.699219 204.425781 C 671.480469 204.5625 672.242188 204.777344 672.984375 205.070312 C 673.722656 205.359375 674.425781 205.71875 675.09375 206.148438 C 675.765625 206.582031 676.382812 207.074219 676.953125 207.625 C 677.523438 208.179688 678.03125 208.785156 678.484375 209.441406 L 695.316406 232.957031 L 773.34375 154.820312 C 773.910156 154.28125 774.519531 153.800781 775.171875 153.375 C 775.828125 152.953125 776.515625 152.597656 777.238281 152.304688 C 777.964844 152.011719 778.707031 151.792969 779.472656 151.644531 C 780.238281 151.492188 781.011719 151.417969 781.789062 151.414062 C 782.570312 151.414062 783.34375 151.484375 784.109375 151.628906 C 784.875 151.777344 785.621094 151.992188 786.347656 152.28125 C 787.070312 152.566406 787.761719 152.921875 788.417969 153.339844 C 789.078125 153.761719 789.6875 154.238281 790.253906 154.773438 C 790.8125 155.328125 791.308594 155.933594 791.746094 156.582031 C 792.183594 157.234375 792.554688 157.921875 792.855469 158.648438 C 793.160156 159.371094 793.386719 160.121094 793.542969 160.890625 C 793.699219 161.660156 793.777344 162.4375 793.78125 163.222656 C 793.785156 164.007812 793.710938 164.785156 793.558594 165.554688 C 793.410156 166.328125 793.183594 167.074219 792.886719 167.800781 C 792.589844 168.527344 792.222656 169.21875 791.789062 169.875 C 791.355469 170.527344 790.863281 171.136719 790.308594 171.691406 L 702.28125 259.839844 C 701.726562 260.390625 701.125 260.886719 700.472656 261.324219 C 699.820312 261.761719 699.132812 262.128906 698.40625 262.429688 C 697.683594 262.730469 696.9375 262.957031 696.167969 263.113281 C 695.398438 263.269531 694.621094 263.347656 693.835938 263.347656 C 693.054688 263.351562 692.277344 263.277344 691.507812 263.125 C 690.738281 262.976562 689.988281 262.75 689.261719 262.453125 C 688.535156 262.15625 687.847656 261.792969 687.191406 261.359375 C 686.539062 260.925781 685.933594 260.433594 685.375 259.882812 C 684.882812 259.394531 684.4375 258.867188 684.039062 258.300781 Z M 1084.769531 386.207031 C 1084.777344 382.578125 1084.429688 378.984375 1083.730469 375.425781 C 1083.03125 371.867188 1081.988281 368.414062 1080.605469 365.058594 C 1079.222656 361.707031 1077.527344 358.519531 1075.515625 355.503906 C 1073.503906 352.484375 1071.21875 349.691406 1068.65625 347.125 L 1068.65625 347.070312 C 1066.15625 344.578125 1063.445312 342.347656 1060.519531 340.378906 C 1057.59375 338.40625 1054.507812 336.734375 1051.261719 335.355469 C 1048.015625 333.976562 1044.667969 332.921875 1041.214844 332.183594 C 1037.765625 331.449219 1034.277344 331.050781 1030.753906 330.984375 C 1030.363281 327.355469 1029.601562 323.804688 1028.476562 320.335938 C 1027.09375 316.175781 1025.242188 312.234375 1022.925781 308.511719 C 1020.609375 304.792969 1017.890625 301.394531 1014.765625 298.316406 L 1014.710938 298.316406 C 1012.144531 295.753906 1009.351562 293.46875 1006.332031 291.460938 C 1003.316406 289.449219 1000.128906 287.753906 996.773438 286.371094 C 993.421875 284.992188 989.964844 283.953125 986.40625 283.253906 C 982.847656 282.554688 979.257812 282.210938 975.628906 282.222656 L 975.628906 282.15625 C 971.996094 282.152344 968.402344 282.5 964.839844 283.203125 C 961.273438 283.90625 957.816406 284.953125 954.460938 286.339844 C 951.101562 287.722656 947.914062 289.425781 944.894531 291.441406 C 941.875 293.457031 939.078125 295.75 936.511719 298.316406 L 796.671875 438.15625 L 543.195312 438.359375 C 542.875 438.304688 542.554688 438.265625 542.234375 438.25 C 534.242188 437.699219 526.496094 438.824219 518.992188 441.621094 C 511.832031 444.28125 505.503906 448.261719 500.007812 453.566406 L 499.277344 454.242188 L 358.761719 594.796875 C 357.558594 596 356.660156 597.402344 356.066406 598.996094 C 355.476562 600.59375 355.242188 602.238281 355.367188 603.9375 L 355.367188 747.679688 L 355.3125 748.722656 C 355.3125 749.492188 355.390625 750.253906 355.539062 751.007812 C 355.691406 751.765625 355.914062 752.496094 356.207031 753.210938 C 356.5 753.921875 356.863281 754.597656 357.289062 755.238281 C 357.71875 755.875 358.203125 756.46875 358.75 757.011719 C 359.292969 757.558594 359.886719 758.042969 360.527344 758.472656 C 361.167969 758.898438 361.84375 759.261719 362.554688 759.554688 C 363.265625 759.851562 363.996094 760.074219 364.753906 760.222656 C 365.507812 760.371094 366.269531 760.449219 367.039062 760.449219 L 495 760.449219 C 496.589844 760.449219 498.117188 760.136719 499.582031 759.515625 C 501.042969 758.890625 502.324219 758.003906 503.425781 756.855469 L 535.289062 723.714844 L 828.347656 649.945312 C 838.664062 646.398438 848.109375 641.25 856.683594 634.5 C 865.859375 627.476562 874.445312 619.789062 882.4375 611.441406 L 882.578125 611.277344 C 882.9375 611 883.273438 610.695312 883.582031 610.363281 L 1068.636719 425.324219 C 1071.203125 422.757812 1073.496094 419.960938 1075.511719 416.941406 C 1077.527344 413.921875 1079.230469 410.734375 1080.617188 407.375 C 1082.003906 404.019531 1083.046875 400.558594 1083.75 396.996094 C 1084.453125 393.433594 1084.804688 389.835938 1084.796875 386.207031 Z M 953.15625 314.914062 C 954.636719 313.4375 956.25 312.121094 957.992188 310.960938 C 959.734375 309.800781 961.574219 308.824219 963.507812 308.027344 C 965.445312 307.234375 967.4375 306.632812 969.492188 306.230469 C 971.546875 305.828125 973.617188 305.632812 975.710938 305.636719 L 975.710938 305.582031 C 977.386719 305.59375 979.050781 305.734375 980.707031 306.003906 C 982.359375 306.273438 983.984375 306.667969 985.578125 307.1875 C 987.167969 307.707031 988.710938 308.347656 990.207031 309.105469 C 991.699219 309.863281 993.128906 310.734375 994.488281 311.710938 C 995.847656 312.691406 997.125 313.769531 998.316406 314.945312 C 999.511719 316.121094 1000.605469 317.382812 1001.605469 318.726562 C 1002.605469 320.074219 1003.492188 321.488281 1004.273438 322.972656 C 1005.054688 324.453125 1005.714844 325.988281 1006.257812 327.574219 C 1007.085938 330.125 1007.554688 332.738281 1007.664062 335.414062 C 1001.1875 338.195312 995.453125 342.074219 990.464844 347.050781 L 856.179688 481.316406 C 855.035156 476.203125 853.199219 471.355469 850.667969 466.765625 C 848.136719 462.179688 845.015625 458.039062 841.300781 454.34375 C 836.546875 449.589844 831.113281 445.820312 824.996094 443.039062 Z M 1061.371094 386.261719 C 1061.375 388.355469 1061.175781 390.425781 1060.773438 392.480469 C 1060.371094 394.535156 1059.769531 396.527344 1058.972656 398.464844 C 1058.175781 400.398438 1057.199219 402.238281 1056.039062 403.980469 C 1054.878906 405.722656 1053.5625 407.335938 1052.085938 408.816406 L 867.058594 593.792969 C 866.882812 593.972656 866.71875 594.175781 866.554688 594.375 C 866.390625 594.578125 866.003906 594.871094 865.730469 595.125 C 858.597656 602.605469 850.929688 609.5 842.734375 615.800781 C 836.457031 620.78125 829.558594 624.644531 822.035156 627.398438 L 526.375 701.796875 C 523.976562 702.390625 521.972656 703.625 520.363281 705.5 L 490.074219 737.011719 L 378.710938 737.011719 L 378.710938 607.976562 L 516.351562 470.347656 C 519.476562 467.355469 523.070312 465.101562 527.125 463.585938 C 531.5 461.980469 536.011719 461.339844 540.660156 461.664062 C 540.882812 461.664062 541.101562 461.664062 541.320312 461.664062 C 541.808594 461.730469 542.300781 461.765625 542.792969 461.773438 L 802.191406 461.554688 L 802.191406 461.609375 C 804.277344 461.609375 806.34375 461.808594 808.390625 462.21875 C 810.441406 462.625 812.425781 463.226562 814.355469 464.027344 C 816.28125 464.828125 818.113281 465.808594 819.847656 466.96875 C 821.582031 468.132812 823.183594 469.453125 824.65625 470.933594 L 824.65625 470.988281 C 826.140625 472.460938 827.46875 474.0625 828.640625 475.796875 C 829.808594 477.53125 830.800781 479.363281 831.609375 481.292969 C 832.417969 483.222656 833.03125 485.210938 833.449219 487.261719 C 833.867188 489.308594 834.078125 491.378906 834.089844 493.472656 L 834.035156 493.472656 C 834.03125 494.515625 833.976562 495.554688 833.871094 496.59375 C 833.765625 497.632812 833.609375 498.660156 833.402344 499.683594 C 833.199219 500.707031 832.941406 501.714844 832.636719 502.714844 C 832.332031 503.710938 831.980469 504.691406 831.578125 505.65625 C 831.175781 506.617188 830.730469 507.558594 830.238281 508.476562 C 829.746094 509.398438 829.207031 510.289062 828.628906 511.15625 C 828.046875 512.023438 827.425781 512.859375 826.765625 513.667969 C 826.101562 514.472656 825.402344 515.246094 824.664062 515.980469 C 823.925781 516.71875 823.15625 517.417969 822.347656 518.082031 C 821.542969 518.742188 820.707031 519.367188 819.839844 519.945312 C 818.972656 520.527344 818.082031 521.0625 817.160156 521.554688 C 816.242188 522.046875 815.300781 522.496094 814.335938 522.894531 C 813.375 523.296875 812.394531 523.648438 811.394531 523.953125 C 810.398438 524.257812 809.390625 524.515625 808.367188 524.722656 C 807.34375 524.925781 806.3125 525.082031 805.277344 525.1875 C 804.238281 525.292969 803.199219 525.347656 802.15625 525.351562 L 621.640625 525.351562 C 620.871094 525.351562 620.105469 525.425781 619.351562 525.574219 C 618.59375 525.722656 617.859375 525.945312 617.148438 526.238281 C 616.433594 526.53125 615.757812 526.890625 615.117188 527.320312 C 614.472656 527.746094 613.878906 528.234375 613.335938 528.777344 C 612.789062 529.324219 612.300781 529.914062 611.875 530.554688 C 611.445312 531.195312 611.082031 531.875 610.785156 532.585938 C 610.492188 533.296875 610.269531 534.03125 610.117188 534.789062 C 609.96875 535.542969 609.890625 536.308594 609.890625 537.078125 C 609.890625 537.847656 609.96875 538.613281 610.117188 539.367188 C 610.269531 540.125 610.492188 540.859375 610.785156 541.570312 C 611.082031 542.28125 611.445312 542.960938 611.875 543.601562 C 612.300781 544.242188 612.789062 544.832031 613.335938 545.378906 C 613.878906 545.921875 614.472656 546.410156 615.117188 546.835938 C 615.757812 547.265625 616.433594 547.625 617.148438 547.917969 C 617.859375 548.210938 618.59375 548.433594 619.351562 548.582031 C 620.105469 548.734375 620.871094 548.804688 621.640625 548.804688 L 802.191406 548.804688 C 804.667969 548.796875 807.132812 548.625 809.585938 548.289062 C 812.035156 547.953125 814.457031 547.453125 816.84375 546.792969 C 819.230469 546.132812 821.558594 545.316406 823.835938 544.34375 C 826.113281 543.367188 828.316406 542.25 830.441406 540.980469 C 832.570312 539.714844 834.601562 538.3125 836.542969 536.773438 C 838.480469 535.230469 840.308594 533.570312 842.027344 531.785156 C 843.742188 530.003906 845.332031 528.113281 846.796875 526.113281 C 848.261719 524.117188 849.585938 522.03125 850.769531 519.859375 L 1006.988281 363.683594 C 1008.472656 362.207031 1010.085938 360.890625 1011.828125 359.730469 C 1013.570312 358.570312 1015.410156 357.59375 1017.347656 356.796875 C 1019.285156 356 1021.277344 355.398438 1023.332031 354.996094 C 1025.386719 354.59375 1027.460938 354.394531 1029.554688 354.398438 L 1029.554688 354.34375 C 1030.601562 354.339844 1031.644531 354.390625 1032.683594 354.488281 C 1033.722656 354.589844 1034.757812 354.742188 1035.78125 354.941406 C 1036.808594 355.144531 1037.820312 355.398438 1038.820312 355.699219 C 1039.824219 356 1040.804688 356.351562 1041.773438 356.75 C 1042.738281 357.148438 1043.683594 357.59375 1044.605469 358.089844 C 1045.527344 358.582031 1046.421875 359.117188 1047.289062 359.699219 C 1048.160156 360.277344 1048.996094 360.902344 1049.804688 361.566406 C 1050.613281 362.226562 1051.386719 362.929688 1052.125 363.671875 C 1052.863281 364.410156 1053.5625 365.183594 1054.222656 365.992188 C 1054.886719 366.800781 1055.507812 367.640625 1056.085938 368.511719 C 1056.664062 369.382812 1057.199219 370.28125 1057.6875 371.203125 C 1058.179688 372.125 1058.621094 373.070312 1059.019531 374.039062 C 1059.417969 375.003906 1059.765625 375.988281 1060.066406 376.992188 C 1060.363281 377.992188 1060.613281 379.003906 1060.8125 380.03125 C 1061.015625 381.058594 1061.164062 382.089844 1061.261719 383.132812 C 1061.359375 384.171875 1061.402344 385.214844 1061.398438 386.261719 Z M 1061.371094 386.261719 " fill-opacity="1" fill-rule="nonzero"/></g><g clip-path="url(#020cdf0838)"><path fill="#ff914d" d="M 721.824219 363.328125 C 722.949219 363.667969 724.101562 363.839844 725.277344 363.839844 C 726.414062 363.835938 727.53125 363.679688 728.625 363.367188 C 736.945312 360.613281 745.058594 357.351562 752.96875 353.578125 C 760.878906 349.800781 768.519531 345.542969 775.890625 340.804688 C 783.261719 336.066406 790.304688 330.882812 797.023438 325.257812 C 803.742188 319.628906 810.082031 313.601562 816.039062 307.171875 C 841.226562 280.550781 855.101562 252.195312 855.101562 227.316406 L 855.101562 125.0625 C 855.105469 123.972656 854.960938 122.902344 854.667969 121.851562 C 854.378906 120.800781 853.949219 119.808594 853.386719 118.875 C 852.820312 117.945312 852.140625 117.105469 851.347656 116.359375 C 850.550781 115.613281 849.671875 114.988281 848.703125 114.484375 L 730.835938 52.199219 C 729.976562 51.746094 729.074219 51.40625 728.132812 51.171875 C 727.1875 50.9375 726.230469 50.824219 725.261719 50.824219 C 724.289062 50.824219 723.332031 50.9375 722.390625 51.171875 C 721.445312 51.40625 720.542969 51.746094 719.683594 52.199219 L 602.613281 114.101562 C 601.550781 114.574219 600.574219 115.183594 599.691406 115.9375 C 598.804688 116.691406 598.046875 117.554688 597.410156 118.527344 C 596.777344 119.5 596.292969 120.542969 595.957031 121.65625 C 595.625 122.769531 595.457031 123.90625 595.457031 125.070312 L 595.457031 227.328125 C 595.457031 252.207031 609.328125 280.566406 634.519531 307.183594 C 640.472656 313.601562 646.804688 319.621094 653.511719 325.242188 C 660.222656 330.863281 667.261719 336.039062 674.621094 340.773438 C 681.984375 345.507812 689.613281 349.765625 697.511719 353.539062 C 705.410156 357.3125 713.515625 360.574219 721.824219 363.328125 Z M 619.457031 132.273438 L 725.296875 76.316406 L 831.089844 132.273438 L 831.089844 227.328125 C 831.089844 246.109375 819.574219 268.640625 798.664062 290.777344 C 793.617188 296.207031 788.265625 301.320312 782.613281 306.117188 C 776.957031 310.914062 771.042969 315.359375 764.859375 319.453125 C 758.679688 323.546875 752.277344 327.261719 745.65625 330.597656 C 739.035156 333.929688 732.238281 336.863281 725.269531 339.390625 C 718.300781 336.863281 711.503906 333.933594 704.878906 330.597656 C 698.257812 327.265625 691.855469 323.550781 685.671875 319.453125 C 679.492188 315.359375 673.574219 310.914062 667.917969 306.117188 C 662.265625 301.320312 656.914062 296.207031 651.867188 290.777344 C 630.953125 268.65625 619.4375 246.128906 619.4375 227.328125 Z M 659.003906 223.332031 C 658.53125 222.695312 658.125 222.015625 657.789062 221.296875 C 657.449219 220.578125 657.1875 219.832031 656.996094 219.058594 C 656.808594 218.289062 656.695312 217.503906 656.660156 216.710938 C 656.628906 215.914062 656.671875 215.125 656.796875 214.339844 C 656.921875 213.554688 657.121094 212.789062 657.398438 212.046875 C 657.675781 211.300781 658.023438 210.589844 658.441406 209.914062 C 658.859375 209.238281 659.339844 208.609375 659.882812 208.027344 C 660.425781 207.449219 661.019531 206.929688 661.667969 206.464844 C 662.316406 206.003906 663 205.613281 663.726562 205.285156 C 664.453125 204.960938 665.203125 204.710938 665.976562 204.535156 C 666.753906 204.363281 667.539062 204.265625 668.332031 204.246094 C 669.128906 204.226562 669.917969 204.285156 670.699219 204.425781 C 671.480469 204.5625 672.242188 204.777344 672.984375 205.070312 C 673.722656 205.359375 674.425781 205.71875 675.09375 206.148438 C 675.765625 206.582031 676.382812 207.074219 676.953125 207.625 C 677.523438 208.179688 678.03125 208.785156 678.484375 209.441406 L 695.316406 232.957031 L 773.34375 154.820312 C 773.910156 154.28125 774.519531 153.800781 775.171875 153.375 C 775.828125 152.953125 776.515625 152.597656 777.238281 152.304688 C 777.964844 152.011719 778.707031 151.792969 779.472656 151.644531 C 780.238281 151.492188 781.011719 151.417969 781.789062 151.414062 C 782.570312 151.414062 783.34375 151.484375 784.109375 151.628906 C 784.875 151.777344 785.621094 151.992188 786.347656 152.28125 C 787.070312 152.566406 787.761719 152.921875 788.417969 153.339844 C 789.078125 153.761719 789.6875 154.238281 790.253906 154.773438 C 790.8125 155.328125 791.308594 155.933594 791.746094 156.582031 C 792.183594 157.234375 792.554688 157.921875 792.855469 158.648438 C 793.160156 159.371094 793.386719 160.121094 793.542969 160.890625 C 793.699219 161.660156 793.777344 162.4375 793.78125 163.222656 C 793.785156 164.007812 793.710938 164.785156 793.558594 165.554688 C 793.410156 166.328125 793.183594 167.074219 792.886719 167.800781 C 792.589844 168.527344 792.222656 169.21875 791.789062 169.875 C 791.355469 170.527344 790.863281 171.136719 790.308594 171.691406 L 702.28125 259.839844 C 701.726562 260.390625 701.125 260.886719 700.472656 261.324219 C 699.820312 261.761719 699.132812 262.128906 698.40625 262.429688 C 697.683594 262.730469 696.9375 262.957031 696.167969 263.113281 C 695.398438 263.269531 694.621094 263.347656 693.835938 263.347656 C 693.054688 263.351562 692.277344 263.277344 691.507812 263.125 C 690.738281 262.976562 689.988281 262.75 689.261719 262.453125 C 688.535156 262.15625 687.847656 261.792969 687.191406 261.359375 C 686.539062 260.925781 685.933594 260.433594 685.375 259.882812 C 684.882812 259.394531 684.4375 258.867188 684.039062 258.300781 Z M 1084.769531 386.207031 C 1084.777344 382.578125 1084.429688 378.984375 1083.730469 375.425781 C 1083.03125 371.867188 1081.988281 368.414062 1080.605469 365.058594 C 1079.222656 361.707031 1077.527344 358.519531 1075.515625 355.503906 C 1073.503906 352.484375 1071.21875 349.691406 1068.65625 347.125 L 1068.65625 347.070312 C 1066.15625 344.578125 1063.445312 342.347656 1060.519531 340.378906 C 1057.59375 338.40625 1054.507812 336.734375 1051.261719 335.355469 C 1048.015625 333.976562 1044.667969 332.921875 1041.214844 332.183594 C 1037.765625 331.449219 1034.277344 331.050781 1030.753906 330.984375 C 1030.363281 327.355469 1029.601562 323.804688 1028.476562 320.335938 C 1027.09375 316.175781 1025.242188 312.234375 1022.925781 308.511719 C 1020.609375 304.792969 1017.890625 301.394531 1014.765625 298.316406 L 1014.710938 298.316406 C 1012.144531 295.753906 1009.351562 293.46875 1006.332031 291.460938 C 1003.316406 289.449219 1000.128906 287.753906 996.773438 286.371094 C 993.421875 284.992188 989.964844 283.953125 986.40625 283.253906 C 982.847656 282.554688 979.257812 282.210938 975.628906 282.222656 L 975.628906 282.15625 C 971.996094 282.152344 968.402344 282.5 964.839844 283.203125 C 961.273438 283.90625 957.816406 284.953125 954.460938 286.339844 C 951.101562 287.722656 947.914062 289.425781 944.894531 291.441406 C 941.875 293.457031 939.078125 295.75 936.511719 298.316406 L 796.671875 438.15625 L 543.195312 438.359375 C 542.875 438.304688 542.554688 438.265625 542.234375 438.25 C 534.242188 437.699219 526.496094 438.824219 518.992188 441.621094 C 511.832031 444.28125 505.503906 448.261719 500.007812 453.566406 L 499.277344 454.242188 L 358.761719 594.796875 C 357.558594 596 356.660156 597.402344 356.066406 598.996094 C 355.476562 600.59375 355.242188 602.238281 355.367188 603.9375 L 355.367188 747.679688 L 355.3125 748.722656 C 355.3125 749.492188 355.390625 750.253906 355.539062 751.007812 C 355.691406 751.765625 355.914062 752.496094 356.207031 753.210938 C 356.5 753.921875 356.863281 754.597656 357.289062 755.238281 C 357.71875 755.875 358.203125 756.46875 358.75 757.011719 C 359.292969 757.558594 359.886719 758.042969 360.527344 758.472656 C 361.167969 758.898438 361.84375 759.261719 362.554688 759.554688 C 363.265625 759.851562 363.996094 760.074219 364.753906 760.222656 C 365.507812 760.371094 366.269531 760.449219 367.039062 760.449219 L 495 760.449219 C 496.589844 760.449219 498.117188 760.136719 499.582031 759.515625 C 501.042969 758.890625 502.324219 758.003906 503.425781 756.855469 L 535.289062 723.714844 L 828.347656 649.945312 C 838.664062 646.398438 848.109375 641.25 856.683594 634.5 C 865.859375 627.476562 874.445312 619.789062 882.4375 611.441406 L 882.578125 611.277344 C 882.9375 611 883.273438 610.695312 883.582031 610.363281 L 1068.636719 425.324219 C 1071.203125 422.757812 1073.496094 419.960938 1075.511719 416.941406 C 1077.527344 413.921875 1079.230469 410.734375 1080.617188 407.375 C 1082.003906 404.019531 1083.046875 400.558594 1083.75 396.996094 C 1084.453125 393.433594 1084.804688 389.835938 1084.796875 386.207031 Z M 953.15625 314.914062 C 954.636719 313.4375 956.25 312.121094 957.992188 310.960938 C 959.734375 309.800781 961.574219 308.824219 963.507812 308.027344 C 965.445312 307.234375 967.4375 306.632812 969.492188 306.230469 C 971.546875 305.828125 973.617188 305.632812 975.710938 305.636719 L 975.710938 305.582031 C 977.386719 305.59375 979.050781 305.734375 980.707031 306.003906 C 982.359375 306.273438 983.984375 306.667969 985.578125 307.1875 C 987.167969 307.707031 988.710938 308.347656 990.207031 309.105469 C 991.699219 309.863281 993.128906 310.734375 994.488281 311.710938 C 995.847656 312.691406 997.125 313.769531 998.316406 314.945312 C 999.511719 316.121094 1000.605469 317.382812 1001.605469 318.726562 C 1002.605469 320.074219 1003.492188 321.488281 1004.273438 322.972656 C 1005.054688 324.453125 1005.714844 325.988281 1006.257812 327.574219 C 1007.085938 330.125 1007.554688 332.738281 1007.664062 335.414062 C 1001.1875 338.195312 995.453125 342.074219 990.464844 347.050781 L 856.179688 481.316406 C 855.035156 476.203125 853.199219 471.355469 850.667969 466.765625 C 848.136719 462.179688 845.015625 458.039062 841.300781 454.34375 C 836.546875 449.589844 831.113281 445.820312 824.996094 443.039062 Z M 1061.371094 386.261719 C 1061.375 388.355469 1061.175781 390.425781 1060.773438 392.480469 C 1060.371094 394.535156 1059.769531 396.527344 1058.972656 398.464844 C 1058.175781 400.398438 1057.199219 402.238281 1056.039062 403.980469 C 1054.878906 405.722656 1053.5625 407.335938 1052.085938 408.816406 L 867.058594 593.792969 C 866.882812 593.972656 866.71875 594.175781 866.554688 594.375 C 866.390625 594.578125 866.003906 594.871094 865.730469 595.125 C 858.597656 602.605469 850.929688 609.5 842.734375 615.800781 C 836.457031 620.78125 829.558594 624.644531 822.035156 627.398438 L 526.375 701.796875 C 523.976562 702.390625 521.972656 703.625 520.363281 705.5 L 490.074219 737.011719 L 378.710938 737.011719 L 378.710938 607.976562 L 516.351562 470.347656 C 519.476562 467.355469 523.070312 465.101562 527.125 463.585938 C 531.5 461.980469 536.011719 461.339844 540.660156 461.664062 C 540.882812 461.664062 541.101562 461.664062 541.320312 461.664062 C 541.808594 461.730469 542.300781 461.765625 542.792969 461.773438 L 802.191406 461.554688 L 802.191406 461.609375 C 804.277344 461.609375 806.34375 461.808594 808.390625 462.21875 C 810.441406 462.625 812.425781 463.226562 814.355469 464.027344 C 816.28125 464.828125 818.113281 465.808594 819.847656 466.96875 C 821.582031 468.132812 823.183594 469.453125 824.65625 470.933594 L 824.65625 470.988281 C 826.140625 472.460938 827.46875 474.0625 828.640625 475.796875 C 829.808594 477.53125 830.800781 479.363281 831.609375 481.292969 C 832.417969 483.222656 833.03125 485.210938 833.449219 487.261719 C 833.867188 489.308594 834.078125 491.378906 834.089844 493.472656 L 834.035156 493.472656 C 834.03125 494.515625 833.976562 495.554688 833.871094 496.59375 C 833.765625 497.632812 833.609375 498.660156 833.402344 499.683594 C 833.199219 500.707031 832.941406 501.714844 832.636719 502.714844 C 832.332031 503.710938 831.980469 504.691406 831.578125 505.65625 C 831.175781 506.617188 830.730469 507.558594 830.238281 508.476562 C 829.746094 509.398438 829.207031 510.289062 828.628906 511.15625 C 828.046875 512.023438 827.425781 512.859375 826.765625 513.667969 C 826.101562 514.472656 825.402344 515.246094 824.664062 515.980469 C 823.925781 516.71875 823.15625 517.417969 822.347656 518.082031 C 821.542969 518.742188 820.707031 519.367188 819.839844 519.945312 C 818.972656 520.527344 818.082031 521.0625 817.160156 521.554688 C 816.242188 522.046875 815.300781 522.496094 814.335938 522.894531 C 813.375 523.296875 812.394531 523.648438 811.394531 523.953125 C 810.398438 524.257812 809.390625 524.515625 808.367188 524.722656 C 807.34375 524.925781 806.3125 525.082031 805.277344 525.1875 C 804.238281 525.292969 803.199219 525.347656 802.15625 525.351562 L 621.640625 525.351562 C 620.871094 525.351562 620.105469 525.425781 619.351562 525.574219 C 618.59375 525.722656 617.859375 525.945312 617.148438 526.238281 C 616.433594 526.53125 615.757812 526.890625 615.117188 527.320312 C 614.472656 527.746094 613.878906 528.234375 613.335938 528.777344 C 612.789062 529.324219 612.300781 529.914062 611.875 530.554688 C 611.445312 531.195312 611.082031 531.875 610.785156 532.585938 C 610.492188 533.296875 610.269531 534.03125 610.117188 534.789062 C 609.96875 535.542969 609.890625 536.308594 609.890625 537.078125 C 609.890625 537.847656 609.96875 538.613281 610.117188 539.367188 C 610.269531 540.125 610.492188 540.859375 610.785156 541.570312 C 611.082031 542.28125 611.445312 542.960938 611.875 543.601562 C 612.300781 544.242188 612.789062 544.832031 613.335938 545.378906 C 613.878906 545.921875 614.472656 546.410156 615.117188 546.835938 C 615.757812 547.265625 616.433594 547.625 617.148438 547.917969 C 617.859375 548.210938 618.59375 548.433594 619.351562 548.582031 C 620.105469 548.734375 620.871094 548.804688 621.640625 548.804688 L 802.191406 548.804688 C 804.667969 548.796875 807.132812 548.625 809.585938 548.289062 C 812.035156 547.953125 814.457031 547.453125 816.84375 546.792969 C 819.230469 546.132812 821.558594 545.316406 823.835938 544.34375 C 826.113281 543.367188 828.316406 542.25 830.441406 540.980469 C 832.570312 539.714844 834.601562 538.3125 836.542969 536.773438 C 838.480469 535.230469 840.308594 533.570312 842.027344 531.785156 C 843.742188 530.003906 845.332031 528.113281 846.796875 526.113281 C 848.261719 524.117188 849.585938 522.03125 850.769531 519.859375 L 1006.988281 363.683594 C 1008.472656 362.207031 1010.085938 360.890625 1011.828125 359.730469 C 1013.570312 358.570312 1015.410156 357.59375 1017.347656 356.796875 C 1019.285156 356 1021.277344 355.398438 1023.332031 354.996094 C 1025.386719 354.59375 1027.460938 354.394531 1029.554688 354.398438 L 1029.554688 354.34375 C 1030.601562 354.339844 1031.644531 354.390625 1032.683594 354.488281 C 1033.722656 354.589844 1034.757812 354.742188 1035.78125 354.941406 C 1036.808594 355.144531 1037.820312 355.398438 1038.820312 355.699219 C 1039.824219 356 1040.804688 356.351562 1041.773438 356.75 C 1042.738281 357.148438 1043.683594 357.59375 1044.605469 358.089844 C 1045.527344 358.582031 1046.421875 359.117188 1047.289062 359.699219 C 1048.160156 360.277344 1048.996094 360.902344 1049.804688 361.566406 C 1050.613281 362.226562 1051.386719 362.929688 1052.125 363.671875 C 1052.863281 364.410156 1053.5625 365.183594 1054.222656 365.992188 C 1054.886719 366.800781 1055.507812 367.640625 1056.085938 368.511719 C 1056.664062 369.382812 1057.199219 370.28125 1057.6875 371.203125 C 1058.179688 372.125 1058.621094 373.070312 1059.019531 374.039062 C 1059.417969 375.003906 1059.765625 375.988281 1060.066406 376.992188 C 1060.363281 377.992188 1060.613281 379.003906 1060.8125 380.03125 C 1061.015625 381.058594 1061.164062 382.089844 1061.261719 383.132812 C 1061.359375 384.171875 1061.402344 385.214844 1061.398438 386.261719 Z M 1061.371094 386.261719 " fill-opacity="1" fill-rule="nonzero"/></g></svg>