<?xml version="1.0" encoding="UTF-8"?><svg xmlns="http://www.w3.org/2000/svg" xmlns:xlink="http://www.w3.org/1999/xlink" width="1440" zoomAndPan="magnify" viewBox="0 0 1440 809.999993" height="809.999993" preserveAspectRatio="xMidYMid meet" version="1.0"><defs><clipPath id="clip-0"><path d="M 400.640625 106.351562 L 1039.4375 106.351562 L 1039.4375 259 L 400.640625 259 Z M 400.640625 106.351562 " clip-rule="nonzero"/></clipPath><clipPath id="clip-1"><path d="M 560 575 L 880 575 L 880 703.332031 L 560 703.332031 Z M 560 575 " clip-rule="nonzero"/></clipPath><clipPath id="clip-2"><path d="M 400.640625 106.351562 L 1039.4375 106.351562 L 1039.4375 259 L 400.640625 259 Z M 400.640625 106.351562 " clip-rule="nonzero"/></clipPath></defs><path fill="rgb(100%, 100%, 100%)" d="M 814.390625 470.882812 C 817.632812 470.882812 820.882812 469.640625 823.359375 467.167969 C 828.308594 462.214844 828.308594 454.195312 823.359375 449.246094 C 795.757812 421.660156 759.0625 406.472656 720.035156 406.472656 C 681.007812 406.472656 644.3125 421.660156 616.710938 449.246094 C 611.757812 454.195312 611.757812 462.214844 616.710938 467.167969 C 621.664062 472.117188 629.695312 472.117188 634.648438 467.167969 C 681.726562 420.117188 758.34375 420.117188 805.421875 467.167969 C 807.898438 469.640625 811.148438 470.882812 814.390625 470.882812 " fill-opacity="1" fill-rule="nonzero"/><path fill="rgb(100%, 100%, 100%)" d="M 720.035156 306.433594 C 654.265625 306.433594 592.429688 332.03125 545.925781 378.507812 C 540.972656 383.449219 540.972656 391.476562 545.925781 396.425781 C 550.878906 401.378906 558.90625 401.378906 563.859375 396.425781 C 605.574219 354.738281 661.042969 331.78125 720.035156 331.78125 C 779.03125 331.78125 834.488281 354.738281 876.207031 396.425781 C 878.683594 398.902344 881.933594 400.136719 885.175781 400.136719 C 888.417969 400.136719 891.667969 398.902344 894.144531 396.425781 C 899.097656 391.476562 899.097656 383.449219 894.144531 378.507812 C 847.632812 332.03125 785.804688 306.433594 720.035156 306.433594 " fill-opacity="1" fill-rule="nonzero"/><path fill="rgb(100%, 100%, 100%)" d="M 720.035156 206.386719 C 627.527344 206.386719 540.558594 242.394531 475.144531 307.761719 C 470.1875 312.710938 470.1875 320.738281 475.144531 325.6875 C 480.097656 330.632812 488.121094 330.632812 493.074219 325.6875 C 553.699219 265.097656 634.296875 231.734375 720.035156 231.734375 C 805.773438 231.734375 886.371094 265.097656 946.996094 325.6875 C 949.472656 328.164062 952.714844 329.398438 955.957031 329.398438 C 959.207031 329.398438 962.453125 328.164062 964.929688 325.6875 C 969.882812 320.738281 969.882812 312.710938 964.929688 307.761719 C 899.515625 242.394531 812.542969 206.386719 720.035156 206.386719 " fill-opacity="1" fill-rule="nonzero"/><g clip-path="url(#clip-0)"><path fill="rgb(100%, 100%, 100%)" d="M 1035.710938 237.019531 C 951.394531 152.753906 839.285156 106.347656 720.035156 106.347656 C 600.785156 106.347656 488.675781 152.753906 404.351562 237.019531 C 399.40625 241.96875 399.40625 249.996094 404.351562 254.941406 C 409.304688 259.890625 417.335938 259.890625 422.292969 254.941406 C 501.820312 175.460938 607.5625 131.691406 720.035156 131.691406 C 832.507812 131.691406 938.25 175.460938 1017.78125 254.941406 C 1020.257812 257.417969 1023.5 258.65625 1026.75 258.65625 C 1029.992188 258.65625 1033.234375 257.417969 1035.710938 254.941406 C 1040.664062 249.996094 1040.664062 241.96875 1035.710938 237.019531 " fill-opacity="1" fill-rule="nonzero"/></g><g clip-path="url(#clip-1)"><path fill="rgb(100%, 100%, 100%)" d="M 813.703125 576.125 C 812.496094 626.085938 771.488281 666.363281 721.210938 666.363281 C 670.757812 666.363281 629.628906 625.796875 628.703125 575.589844 C 589.992188 583.484375 560.875 617.703125 560.875 658.726562 L 560.875 703.332031 L 879.199219 703.332031 L 879.199219 658.726562 C 879.199219 618.542969 851.238281 584.902344 813.703125 576.125 " fill-opacity="1" fill-rule="nonzero"/></g><path fill="rgb(100%, 100%, 100%)" d="M 769.664062 573.875 C 769.664062 601.261719 747.445312 623.464844 720.035156 623.464844 C 692.625 623.464844 670.40625 601.261719 670.40625 573.875 C 670.40625 546.480469 692.625 524.277344 720.035156 524.277344 C 747.445312 524.277344 769.664062 546.480469 769.664062 573.875 Z M 649.851562 573.875 C 649.851562 612.605469 681.273438 644.011719 720.035156 644.011719 C 758.800781 644.011719 790.21875 612.605469 790.21875 573.875 C 790.21875 535.132812 758.800781 503.726562 720.035156 503.726562 C 681.273438 503.726562 649.851562 535.132812 649.851562 573.875 " fill-opacity="1" fill-rule="nonzero"/><path fill="rgb(100%, 51.759338%, 0%)" d="M 814.390625 470.882812 C 817.632812 470.882812 820.882812 469.640625 823.359375 467.167969 C 828.308594 462.214844 828.308594 454.195312 823.359375 449.246094 C 795.757812 421.660156 759.0625 406.472656 720.035156 406.472656 C 681.007812 406.472656 644.3125 421.660156 616.710938 449.246094 C 611.757812 454.195312 611.757812 462.214844 616.710938 467.167969 C 621.664062 472.117188 629.695312 472.117188 634.648438 467.167969 C 681.726562 420.117188 758.34375 420.117188 805.421875 467.167969 C 807.898438 469.640625 811.148438 470.882812 814.390625 470.882812 " fill-opacity="1" fill-rule="nonzero"/><path fill="rgb(100%, 51.759338%, 0%)" d="M 720.035156 306.433594 C 654.265625 306.433594 592.429688 332.03125 545.925781 378.507812 C 540.972656 383.449219 540.972656 391.476562 545.925781 396.425781 C 550.878906 401.378906 558.90625 401.378906 563.859375 396.425781 C 605.574219 354.738281 661.042969 331.78125 720.035156 331.78125 C 779.03125 331.78125 834.488281 354.738281 876.207031 396.425781 C 878.683594 398.902344 881.933594 400.136719 885.175781 400.136719 C 888.417969 400.136719 891.667969 398.902344 894.144531 396.425781 C 899.097656 391.476562 899.097656 383.449219 894.144531 378.507812 C 847.632812 332.03125 785.804688 306.433594 720.035156 306.433594 " fill-opacity="1" fill-rule="nonzero"/><path fill="rgb(100%, 51.759338%, 0%)" d="M 720.035156 206.386719 C 627.527344 206.386719 540.558594 242.394531 475.144531 307.761719 C 470.1875 312.710938 470.1875 320.738281 475.144531 325.6875 C 480.097656 330.632812 488.121094 330.632812 493.074219 325.6875 C 553.699219 265.097656 634.296875 231.734375 720.035156 231.734375 C 805.773438 231.734375 886.371094 265.097656 946.996094 325.6875 C 949.472656 328.164062 952.714844 329.398438 955.957031 329.398438 C 959.207031 329.398438 962.453125 328.164062 964.929688 325.6875 C 969.882812 320.738281 969.882812 312.710938 964.929688 307.761719 C 899.515625 242.394531 812.542969 206.386719 720.035156 206.386719 " fill-opacity="1" fill-rule="nonzero"/><g clip-path="url(#clip-2)"><path fill="rgb(100%, 51.759338%, 0%)" d="M 1035.710938 237.019531 C 951.394531 152.753906 839.285156 106.347656 720.035156 106.347656 C 600.785156 106.347656 488.675781 152.753906 404.351562 237.019531 C 399.40625 241.96875 399.40625 249.996094 404.351562 254.941406 C 409.304688 259.890625 417.335938 259.890625 422.292969 254.941406 C 501.820312 175.460938 607.5625 131.691406 720.035156 131.691406 C 832.507812 131.691406 938.25 175.460938 1017.78125 254.941406 C 1020.257812 257.417969 1023.5 258.65625 1026.75 258.65625 C 1029.992188 258.65625 1033.234375 257.417969 1035.710938 254.941406 C 1040.664062 249.996094 1040.664062 241.96875 1035.710938 237.019531 " fill-opacity="1" fill-rule="nonzero"/></g></svg>