<?xml version="1.0" encoding="utf-8"?>
<!-- Generator: Adobe Illustrator 25.4.1, SVG Export Plug-In . SVG Version: 6.00 Build 0)  -->
<svg version="1.1" id="Layer_1" xmlns="http://www.w3.org/2000/svg" xmlns:xlink="http://www.w3.org/1999/xlink" x="0px" y="0px"
	 viewBox="0 0 1000 700" style="enable-background:new 0 0 1000 700;" xml:space="preserve">
<style type="text/css">
	.st0{clip-path:url(#SVGID_00000170988777982973976320000001448174839495166117_);}
	.st1{clip-path:url(#SVGID_00000120544659632143406360000016554121083917287559_);}
	.st2{clip-path:url(#SVGID_00000076583684121552506190000017451256605058797742_);}
	.st3{fill:#FFFFFF;}
	.st4{clip-path:url(#SVGID_00000034778333274163543640000009456070702068106381_);}
	.st5{clip-path:url(#SVGID_00000181798295703798751580000002665743432825678219_);}
	.st6{clip-path:url(#SVGID_00000176754111000526925290000012893059564394056337_);}
	.st7{fill:#FF8400;}
</style>
<g>
	<g>
		<defs>
			<rect id="SVGID_1_" x="285" y="57.5" width="430" height="585"/>
		</defs>
		<clipPath id="SVGID_00000172420091361081084100000016439526140640693149_">
			<use xlink:href="#SVGID_1_"  style="overflow:visible;"/>
		</clipPath>
		<g style="clip-path:url(#SVGID_00000172420091361081084100000016439526140640693149_);">
			<g>
				<g>
					<defs>
						
							<rect id="SVGID_00000013893781992920220820000000442319824387047610_" x="225" y="199.3" transform="matrix(0.318 -0.9481 0.9481 0.318 9.4234 712.4005)" width="549.7" height="300.7"/>
					</defs>
					<clipPath id="SVGID_00000157271318595539348360000015853153052966629001_">
						<use xlink:href="#SVGID_00000013893781992920220820000000442319824387047610_"  style="overflow:visible;"/>
					</clipPath>
					<g style="clip-path:url(#SVGID_00000157271318595539348360000015853153052966629001_);">
						<g>
							<g>
								<defs>
									
										<rect id="SVGID_00000149341121415970618510000017093294427771971749_" x="225" y="199.3" transform="matrix(0.318 -0.9481 0.9481 0.318 9.4234 712.4005)" width="549.7" height="300.7"/>
								</defs>
								<clipPath id="SVGID_00000060737381850961297980000005911764697983451275_">
									<use xlink:href="#SVGID_00000149341121415970618510000017093294427771971749_"  style="overflow:visible;"/>
								</clipPath>
								<g style="clip-path:url(#SVGID_00000060737381850961297980000005911764697983451275_);">
									<path class="st3" d="M324.9,580l175.6,58.9c30,10.1,62.5-6.1,72.5-35.8L711.3,192c9.7-30.2-6.5-62.7-36.5-72.8L499.6,60.4
										c-30-10.1-63.3,5.9-73.3,35.5L288.4,507.2C278.3,537.2,294.9,569.9,324.9,580z M416.8,592.7c-13.4-4.5-20.7-19.1-16.2-32.5
										s19.1-20.7,32.5-16.2s20.7,19.1,16.2,32.5C444.6,590.3,430.1,597.2,416.8,592.7z M551.2,113.9l50.7,17
										c4.5,1.5,6.9,6.4,5.4,10.8c-1.5,4.5-6.4,6.9-10.8,5.4l-50.7-17c-4.5-1.5-6.9-6.4-5.4-10.8
										C541.8,114.9,546.7,112.5,551.2,113.9z M519.5,106c3.8-1.9,9.6-0.4,11.4,3.8c1.1,2.2,1.2,4.5,0.5,6.5
										c-0.7,2-2.2,3.8-4.3,4.9c-2.2,1.1-4.5,1.2-6.5,0.5s-3.8-2.2-4.9-4.3c-1.1-2.2-1.2-4.5-0.5-6.5
										C516.3,109,517.8,107.3,519.5,106z M447,128.7l231.2,77.5L557,567.5L325.8,490L447,128.7z"/>
								</g>
							</g>
						</g>
					</g>
				</g>
			</g>
		</g>
	</g>
</g>
<g>
	<g>
		<defs>
			<rect id="SVGID_00000132054547183542224290000001552728762307341459_" x="431" y="254.5" width="141" height="182"/>
		</defs>
		<clipPath id="SVGID_00000123415307472380027490000003217736394745141682_">
			<use xlink:href="#SVGID_00000132054547183542224290000001552728762307341459_"  style="overflow:visible;"/>
		</clipPath>
		<g style="clip-path:url(#SVGID_00000123415307472380027490000003217736394745141682_);">
			<g>
				<g>
					<defs>
						
							<rect id="SVGID_00000096741163269510430130000009024176046179580062_" x="405.7" y="286.4" transform="matrix(0.318 -0.9481 0.9481 0.318 14.5711 710.8546)" width="191.3" height="117.8"/>
					</defs>
					<clipPath id="SVGID_00000104685796472636547170000013755267403799749808_">
						<use xlink:href="#SVGID_00000096741163269510430130000009024176046179580062_"  style="overflow:visible;"/>
					</clipPath>
					<g style="clip-path:url(#SVGID_00000104685796472636547170000013755267403799749808_);">
						<g>
							<g>
								<defs>
									
										<rect id="SVGID_00000078038610142704181980000001228243156263835562_" x="405.7" y="286.4" transform="matrix(0.318 -0.9481 0.9481 0.318 14.5712 710.8545)" width="191.3" height="117.8"/>
								</defs>
								<clipPath id="SVGID_00000137128829300956247030000004230076730123158681_">
									<use xlink:href="#SVGID_00000078038610142704181980000001228243156263835562_"  style="overflow:visible;"/>
								</clipPath>
								<g style="clip-path:url(#SVGID_00000137128829300956247030000004230076730123158681_);">
									<path class="st7" d="M571.4,321.4c0.4-1.3,0.3-2.7-0.4-3.8l-36.9-60c-0.9-1.5-2.6-2.3-4.4-2.1c-1.7,0.2-3.2,1.4-3.8,3.1
										L500.3,335l-31.9-51.8c-1.3-2.1-4.1-2.8-6.2-1.5s-2.8,4.1-1.5,6.2l34.1,55.4L434.2,367c-2.3,0.9-3.5,3.5-2.6,5.9
										c0.9,2.3,3.5,3.5,5.8,2.6l56.7-22.1l-25.7,76.5c-0.6,1.7-0.1,3.5,1.2,4.7c0.5,0.5,1.1,0.8,1.7,1c1,0.3,2.1,0.3,3.1-0.1
										l65.6-25.7c1.2-0.5,2.2-1.5,2.6-2.8c0.4-1.3,0.3-2.7-0.4-3.8l-34.1-55.4l60.6-23.7C570,323.7,571,322.6,571.4,321.4z
										 M531.7,403.4l-51.6,20.2l22.6-67.4L531.7,403.4z M508.8,337.9l22.6-67.4l29,47.2L508.8,337.9"/>
								</g>
							</g>
						</g>
					</g>
				</g>
			</g>
		</g>
	</g>
</g>
</svg>
