<?xml version="1.0" encoding="utf-8"?>
<!-- Generator: Adobe Illustrator 25.4.1, SVG Export Plug-In . SVG Version: 6.00 Build 0)  -->
<svg version="1.1" id="Layer_1" xmlns="http://www.w3.org/2000/svg" xmlns:xlink="http://www.w3.org/1999/xlink" x="0px" y="0px"
	 viewBox="0 0 1000 700" style="enable-background:new 0 0 1000 700;" xml:space="preserve">
<style type="text/css">
	.st0{clip-path:url(#SVGID_00000011013743842454799460000004170405958184918692_);}
	.st1{clip-path:url(#SVGID_00000148639187123728387110000017237538673575969457_);}
	.st2{clip-path:url(#SVGID_00000003822770720031818890000005521822716380349343_);}
	.st3{clip-path:url(#SVGID_00000013909696316060740110000016595770099018513330_);}
	.st4{clip-path:url(#SVGID_00000034068403105889440070000017360233815737369019_);}
	.st5{fill:#FFFFFF;}
	.st6{clip-path:url(#SVGID_00000170267413827299732810000000890940410655358102_);}
	.st7{clip-path:url(#SVGID_00000068649348337949092190000004485031813297515138_);}
	.st8{clip-path:url(#SVGID_00000018205507562682726490000010568389832508146076_);}
	.st9{clip-path:url(#SVGID_00000168826148066833318950000011768361555313631386_);}
	.st10{clip-path:url(#SVGID_00000135682841924292477460000009517525136991703193_);}
	.st11{clip-path:url(#SVGID_00000155116602315779698280000017847790965456483981_);}
	.st12{fill:#FF8400;}
	.st13{clip-path:url(#SVGID_00000068667921532803767950000009394326152826433443_);}
	.st14{clip-path:url(#SVGID_00000052093353556090438200000008912710990403694238_);}
	.st15{clip-path:url(#SVGID_00000129197901519612119290000009158831526498494362_);}
	.st16{clip-path:url(#SVGID_00000155856852765022641560000012831804357895339420_);}
	.st17{clip-path:url(#SVGID_00000124870545429762834970000015659738804280103081_);}
	.st18{clip-path:url(#SVGID_00000059273212438690677130000003995175328584466087_);}
	.st19{clip-path:url(#SVGID_00000161601247037407849280000011357256367333502133_);}
	.st20{clip-path:url(#SVGID_00000103259586683751359050000000377625541599051397_);}
	.st21{clip-path:url(#SVGID_00000159445296214874785360000017546638418724710827_);}
	.st22{clip-path:url(#SVGID_00000026858016183277142540000005895532082455751835_);}
	.st23{clip-path:url(#SVGID_00000109719395535229709400000007887071529510458536_);}
	.st24{clip-path:url(#SVGID_00000137824688537874273740000010986056691080421790_);}
	.st25{clip-path:url(#SVGID_00000048485860604069024510000012524883961748756614_);}
	.st26{clip-path:url(#SVGID_00000151536302054843459190000004978088955188917686_);}
	.st27{clip-path:url(#SVGID_00000175284261487776727870000013114208297070209465_);}
	.st28{clip-path:url(#SVGID_00000026878068109868765150000007704416858470106302_);}
	.st29{clip-path:url(#SVGID_00000011731993665076357890000003895931776863509919_);}
</style>
<g>
	<g>
		<defs>
			<rect id="SVGID_1_" x="206" y="55" width="457" height="583"/>
		</defs>
		<clipPath id="SVGID_00000055686951729442202830000001461192917178795187_">
			<use xlink:href="#SVGID_1_"  style="overflow:visible;"/>
		</clipPath>
		<g style="clip-path:url(#SVGID_00000055686951729442202830000001461192917178795187_);">
			<g>
				<g>
					<defs>
						
							<rect id="SVGID_00000109004217511585143910000007134525436910455199_" x="170" y="113.7" transform="matrix(0.9041 -0.4273 0.4273 0.9041 -119.8887 221.8726)" width="528.8" height="528.7"/>
					</defs>
					<clipPath id="SVGID_00000157290948308915098680000005438048837964669103_">
						<use xlink:href="#SVGID_00000109004217511585143910000007134525436910455199_"  style="overflow:visible;"/>
					</clipPath>
					<g style="clip-path:url(#SVGID_00000157290948308915098680000005438048837964669103_);">
						<g>
							<g>
								<defs>
									
										<rect id="SVGID_00000082345817594876517170000011901204745023811206_" x="170" y="113.7" transform="matrix(0.9041 -0.4273 0.4273 0.9041 -119.8887 221.8726)" width="528.8" height="528.7"/>
								</defs>
								<clipPath id="SVGID_00000130615372368590721670000002438542270995305356_">
									<use xlink:href="#SVGID_00000082345817594876517170000011901204745023811206_"  style="overflow:visible;"/>
								</clipPath>
								<g style="clip-path:url(#SVGID_00000130615372368590721670000002438542270995305356_);">
									<g>
										<g>
											<defs>
												
													<rect id="SVGID_00000100349483840662748550000009541871171162034560_" x="170" y="113.7" transform="matrix(0.9041 -0.4273 0.4273 0.9041 -119.8887 221.8726)" width="528.8" height="528.7"/>
											</defs>
											<clipPath id="SVGID_00000129888469767722361400000017840990339870105022_">
												<use xlink:href="#SVGID_00000100349483840662748550000009541871171162034560_"  style="overflow:visible;"/>
											</clipPath>
											<g style="clip-path:url(#SVGID_00000129888469767722361400000017840990339870105022_);">
												<g>
													<g>
														<defs>
															
																<rect id="SVGID_00000127042230719496670910000008708662499771334791_" x="169.9" y="113.7" transform="matrix(0.9041 -0.4273 0.4273 0.9041 -119.8309 221.7674)" width="528.6" height="528.3"/>
														</defs>
														<clipPath id="SVGID_00000167391789204665244560000017316467973413537167_">
															<use xlink:href="#SVGID_00000127042230719496670910000008708662499771334791_"  style="overflow:visible;"/>
														</clipPath>
														<g style="clip-path:url(#SVGID_00000167391789204665244560000017316467973413537167_);">
															<path class="st5" d="M357.2,134.9c0.7-0.4,1.4-0.7,2.1-1l164.1-64.3h0.1c15-5.9,32,0.3,39.8,14.4l85.1,154.5
																c3.1,5.8,3.7,12.7,1.5,18.9l-125.6,347c-6,16.6-24.4,25.2-41,19.2l-243.4-88.1c-16.7-6-25.4-24.3-19.4-41l125.5-347
																C348,142,352,137.5,357.2,134.9z M352,124.6c-7.8,4-13.8,10.8-16.7,19L209.6,490.7c-8.3,22.6,3.3,47.6,25.9,55.9
																L479,634.7c22.6,8.2,47.6-3.5,55.8-26.1l125.6-347.2c3.4-9.3,2.6-19.6-2.2-28.4l-85-154.5
																c-10.5-19.2-33.7-27.5-54-19.5l0.2-0.1L355,123.2C353.9,123.7,352.9,124.1,352,124.6L352,124.6"/>
														</g>
													</g>
												</g>
											</g>
										</g>
									</g>
								</g>
							</g>
						</g>
					</g>
				</g>
			</g>
		</g>
	</g>
</g>
<g>
	<g>
		<defs>
			<rect id="SVGID_00000109749386802080186360000006679292668682134974_" x="458" y="112" width="107" height="107"/>
		</defs>
		<clipPath id="SVGID_00000018937714465413759440000001376637893069513628_">
			<use xlink:href="#SVGID_00000109749386802080186360000006679292668682134974_"  style="overflow:visible;"/>
		</clipPath>
		<g style="clip-path:url(#SVGID_00000018937714465413759440000001376637893069513628_);">
			<g>
				<g>
					<defs>
						
							<rect id="SVGID_00000125573932374678683610000010318512952139454885_" x="170" y="113.7" transform="matrix(0.9041 -0.4273 0.4273 0.9041 -119.8887 221.8726)" width="528.8" height="528.7"/>
					</defs>
					<clipPath id="SVGID_00000160168479928745161870000016941068459314527887_">
						<use xlink:href="#SVGID_00000125573932374678683610000010318512952139454885_"  style="overflow:visible;"/>
					</clipPath>
					<g style="clip-path:url(#SVGID_00000160168479928745161870000016941068459314527887_);">
						<g>
							<g>
								<defs>
									
										<rect id="SVGID_00000083808521860163338620000016225092632577537433_" x="170" y="113.7" transform="matrix(0.9041 -0.4273 0.4273 0.9041 -119.8887 221.8726)" width="528.8" height="528.7"/>
								</defs>
								<clipPath id="SVGID_00000144301028424158869530000002096356834240743860_">
									<use xlink:href="#SVGID_00000083808521860163338620000016225092632577537433_"  style="overflow:visible;"/>
								</clipPath>
								<g style="clip-path:url(#SVGID_00000144301028424158869530000002096356834240743860_);">
									<path class="st5" d="M492.9,127.4c20.5-10.1,45.4-1.6,55.5,19c0.2,0.4,0.3,0.7,0.5,1.1c10.3,20.5,1.9,45.4-18.6,55.7
										c-20.5,10.3-45.4,1.9-55.7-18.6c-0.3-0.6-0.5-1.1-0.8-1.7C463.8,162.3,472.3,137.5,492.9,127.4z M487.3,118
										c-25.5,13-36.1,43.9-23.9,69.9c12.5,26.5,44.1,37.8,70.5,25.3c26.5-12.5,37.8-44.1,25.3-70.5c0,0,0,0,0-0.1
										c-12.5-26.4-44.1-37.8-70.5-25.2C488.2,117.6,487.8,117.8,487.3,118"/>
								</g>
							</g>
						</g>
					</g>
				</g>
			</g>
		</g>
	</g>
</g>
<g>
	<g>
		<defs>
			<rect id="SVGID_00000015318924689715247960000004748992110504930473_" x="318" y="276" width="213" height="268"/>
		</defs>
		<clipPath id="SVGID_00000059286226949411723900000008669305127430220167_">
			<use xlink:href="#SVGID_00000015318924689715247960000004748992110504930473_"  style="overflow:visible;"/>
		</clipPath>
		<g style="clip-path:url(#SVGID_00000059286226949411723900000008669305127430220167_);">
			<g>
				<g>
					<defs>
						
							<rect id="SVGID_00000139261657949211740810000005977989225375532468_" x="281.3" y="321.5" transform="matrix(0.3384 -0.941 0.941 0.3384 -104.7759 670.1093)" width="285.8" height="176.2"/>
					</defs>
					<clipPath id="SVGID_00000080894686207984927390000008666598766129491897_">
						<use xlink:href="#SVGID_00000139261657949211740810000005977989225375532468_"  style="overflow:visible;"/>
					</clipPath>
					<g style="clip-path:url(#SVGID_00000080894686207984927390000008666598766129491897_);">
						<g>
							<g>
								<defs>
									
										<rect id="SVGID_00000152983162203716006360000015049668961199405747_" x="281.3" y="321.5" transform="matrix(0.3384 -0.941 0.941 0.3384 -104.7759 670.1093)" width="285.8" height="176.2"/>
								</defs>
								<clipPath id="SVGID_00000009588436331191993710000016664796094172197525_">
									<use xlink:href="#SVGID_00000152983162203716006360000015049668961199405747_"  style="overflow:visible;"/>
								</clipPath>
								<g style="clip-path:url(#SVGID_00000009588436331191993710000016664796094172197525_);">
									<path class="st12" d="M529.8,376.1c0.7-1.9,0.5-4-0.5-5.7L476,279.5c-1.3-2.3-3.9-3.5-6.4-3.3c-2.6,0.2-4.8,2-5.7,4.4
										L423,394.2l-46-78.5c-1.9-3.2-6-4.3-9.2-2.4s-4.3,6-2.4,9.2l49.2,83.9l-91.4,33.4c-3.5,1.3-5.3,5.2-4,8.7
										c1.3,3.5,5.1,5.3,8.6,4l85.5-31.2l-40.8,113.5c-0.9,2.5-0.3,5.2,1.6,7.1c0.7,0.7,1.6,1.2,2.5,1.6c1.5,0.5,3.1,0.5,4.6,0
										l99-36.2c1.9-0.7,3.4-2.2,4-4.1c0.7-1.9,0.5-4-0.5-5.7l-49.2-83.9l91.4-33.4C527.6,379.5,529.1,378,529.8,376.1z
										 M467.8,497.4L390,525.8l35.9-99.9L467.8,497.4z M435.7,398.7l35.9-99.9l41.9,71.5L435.7,398.7"/>
								</g>
							</g>
						</g>
					</g>
				</g>
			</g>
		</g>
	</g>
</g>
<g>
	<g>
		<defs>
			<rect id="SVGID_00000019650594988132943010000007830380796567679891_" x="655" y="122" width="13" height="247"/>
		</defs>
		<clipPath id="SVGID_00000020392596173501995620000006987989719926224313_">
			<use xlink:href="#SVGID_00000019650594988132943010000007830380796567679891_"  style="overflow:visible;"/>
		</clipPath>
		<g style="clip-path:url(#SVGID_00000020392596173501995620000006987989719926224313_);">
			<g>
				<g>
					<defs>
						
							<rect id="SVGID_00000108289848823510248990000018029541714862665090_" x="667.7" y="130.1" transform="matrix(0.9939 -0.1104 0.1104 0.9939 -22.511 83.9077)" width="157.5" height="230.3"/>
					</defs>
					<clipPath id="SVGID_00000148645434241957603010000004916328776856904621_">
						<use xlink:href="#SVGID_00000108289848823510248990000018029541714862665090_"  style="overflow:visible;"/>
					</clipPath>
					<g style="clip-path:url(#SVGID_00000148645434241957603010000004916328776856904621_);">
						<g>
							<g>
								<defs>
									
										<rect id="SVGID_00000161611661181831155800000015588462743040937124_" x="210.5" y="45.5" transform="matrix(0.9939 -0.1104 0.1104 0.9939 -26.1955 58.8584)" width="615.8" height="441"/>
								</defs>
								<clipPath id="SVGID_00000109022486075065147250000006048034807210461087_">
									<use xlink:href="#SVGID_00000161611661181831155800000015588462743040937124_"  style="overflow:visible;"/>
								</clipPath>
								<g style="clip-path:url(#SVGID_00000109022486075065147250000006048034807210461087_);">
									<g>
										<g>
											<defs>
												
													<rect id="SVGID_00000005242135876702936570000015515935701210883771_" x="386.7" y="44.7" transform="matrix(0.9939 -0.1104 0.1104 0.9939 -26.5016 59.6442)" width="277.3" height="448.9"/>
											</defs>
											<clipPath id="SVGID_00000047045541197387415600000005279971261464592034_">
												<use xlink:href="#SVGID_00000005242135876702936570000015515935701210883771_"  style="overflow:visible;"/>
											</clipPath>
											<g style="clip-path:url(#SVGID_00000047045541197387415600000005279971261464592034_);">
												<g>
													<g>
														<defs>
															
																<rect id="SVGID_00000177471091045250364960000012705100379838091664_" x="386.2" y="44.7" transform="matrix(0.9939 -0.1104 0.1104 0.9939 -26.0414 59.5634)" width="277.3" height="440.5"/>
														</defs>
														<clipPath id="SVGID_00000157285029287490086510000014057486483480526239_">
															<use xlink:href="#SVGID_00000177471091045250364960000012705100379838091664_"  style="overflow:visible;"/>
														</clipPath>
														<g style="clip-path:url(#SVGID_00000157285029287490086510000014057486483480526239_);">
															<path class="st12" d="M495.9,305.9l-49.7,59l61.4,46.7L495.9,305.9z M475.9,125.8l-49.7,59l61.4,46.7L475.9,125.8z
																 M500.1,46.1l20.3,182.6l100.7-104.3l23.6,22.8l-113,116.9l135.9,89.3l-18,27.4l-121.1-79.6l20.3,182.6L399,370.1
																l84.6-100.5L379,190L500.1,46.1"/>
														</g>
													</g>
												</g>
											</g>
										</g>
									</g>
								</g>
							</g>
						</g>
					</g>
				</g>
			</g>
		</g>
	</g>
</g>
<g>
	<g>
		<defs>
			<rect id="SVGID_00000058570107381011003380000011572080031726980746_" x="655" y="238" width="5" height="27"/>
		</defs>
		<clipPath id="SVGID_00000062894869034719479800000011473634195852776377_">
			<use xlink:href="#SVGID_00000058570107381011003380000011572080031726980746_"  style="overflow:visible;"/>
		</clipPath>
		<g style="clip-path:url(#SVGID_00000062894869034719479800000011473634195852776377_);">
			<g>
				<g>
					<defs>
						
							<rect id="SVGID_00000039114379986496383330000000822283820749580471_" x="667.7" y="130.1" transform="matrix(0.9939 -0.1104 0.1104 0.9939 -22.511 83.9077)" width="157.5" height="230.3"/>
					</defs>
					<clipPath id="SVGID_00000088127406438399221930000008928822715733400993_">
						<use xlink:href="#SVGID_00000039114379986496383330000000822283820749580471_"  style="overflow:visible;"/>
					</clipPath>
					<g style="clip-path:url(#SVGID_00000088127406438399221930000008928822715733400993_);">
						<g>
							<g>
								<defs>
									
										<rect id="SVGID_00000051345624532148364410000001186148655442964636_" x="210.5" y="45.5" transform="matrix(0.9939 -0.1104 0.1104 0.9939 -26.1955 58.8584)" width="615.8" height="441"/>
								</defs>
								<clipPath id="SVGID_00000089553065264084863550000012572504689312261523_">
									<use xlink:href="#SVGID_00000051345624532148364410000001186148655442964636_"  style="overflow:visible;"/>
								</clipPath>
								<g style="clip-path:url(#SVGID_00000089553065264084863550000012572504689312261523_);">
									<path class="st12" d="M633.5,252.9c-0.8-7.3,4.4-13.9,11.7-14.7c7.3-0.8,13.9,4.5,14.7,11.8s-4.4,13.9-11.7,14.7
										S634.3,260.2,633.5,252.9"/>
								</g>
							</g>
						</g>
					</g>
				</g>
			</g>
		</g>
	</g>
</g>
<g>
	<g>
		<defs>
			<rect id="SVGID_00000001665353726972959230000009086803271012262569_" x="738" y="129" width="71" height="219"/>
		</defs>
		<clipPath id="SVGID_00000165195163717724511320000008265377455694027922_">
			<use xlink:href="#SVGID_00000001665353726972959230000009086803271012262569_"  style="overflow:visible;"/>
		</clipPath>
		<g style="clip-path:url(#SVGID_00000165195163717724511320000008265377455694027922_);">
			<g>
				<g>
					<defs>
						
							<rect id="SVGID_00000083065109268895709080000010986447374514872480_" x="667.7" y="130.1" transform="matrix(0.9939 -0.1104 0.1104 0.9939 -22.511 83.9077)" width="157.5" height="230.3"/>
					</defs>
					<clipPath id="SVGID_00000093864961789929211060000001955300424706227635_">
						<use xlink:href="#SVGID_00000083065109268895709080000010986447374514872480_"  style="overflow:visible;"/>
					</clipPath>
					<g style="clip-path:url(#SVGID_00000093864961789929211060000001955300424706227635_);">
						<g>
							<g>
								<defs>
									
										<rect id="SVGID_00000074439448959210073490000010432660358613849731_" x="210.5" y="45.5" transform="matrix(0.9939 -0.1104 0.1104 0.9939 -26.1955 58.8584)" width="615.8" height="441"/>
								</defs>
								<clipPath id="SVGID_00000045620306574484978600000005201897823154511012_">
									<use xlink:href="#SVGID_00000074439448959210073490000010432660358613849731_"  style="overflow:visible;"/>
								</clipPath>
								<g style="clip-path:url(#SVGID_00000045620306574484978600000005201897823154511012_);">
									<path class="st12" d="M779.2,343.5c-3.3,4.6-9.6,5.7-14.3,2.5c-4.6-3.2-5.7-9.5-2.6-14.1c40.2-57.9,31.4-136.5-20.4-184.1
										c-4.2-3.8-4.5-10.3-0.6-14.5c3.8-4.2,10.3-4.5,14.5-0.6C815.2,187.2,825.2,277.2,779.2,343.5"/>
								</g>
							</g>
						</g>
					</g>
				</g>
			</g>
		</g>
	</g>
</g>
<g>
	<g>
		<defs>
			<rect id="SVGID_00000034778330676793335900000013354836953875951021_" x="711" y="174" width="46" height="136"/>
		</defs>
		<clipPath id="SVGID_00000152235889898029704660000008335593567938539708_">
			<use xlink:href="#SVGID_00000034778330676793335900000013354836953875951021_"  style="overflow:visible;"/>
		</clipPath>
		<g style="clip-path:url(#SVGID_00000152235889898029704660000008335593567938539708_);">
			<g>
				<g>
					<defs>
						
							<rect id="SVGID_00000078018637831887928380000006750999575385755029_" x="667.7" y="130.1" transform="matrix(0.9939 -0.1104 0.1104 0.9939 -22.511 83.9077)" width="157.5" height="230.3"/>
					</defs>
					<clipPath id="SVGID_00000122684878279766946550000004794963342774630065_">
						<use xlink:href="#SVGID_00000078018637831887928380000006750999575385755029_"  style="overflow:visible;"/>
					</clipPath>
					<g style="clip-path:url(#SVGID_00000122684878279766946550000004794963342774630065_);">
						<g>
							<g>
								<defs>
									
										<rect id="SVGID_00000018926380383955027840000009044902459337142922_" x="210.5" y="45.5" transform="matrix(0.9939 -0.1104 0.1104 0.9939 -26.1955 58.8584)" width="615.8" height="441"/>
								</defs>
								<clipPath id="SVGID_00000020365534693549293090000008641989978265672582_">
									<use xlink:href="#SVGID_00000018926380383955027840000009044902459337142922_"  style="overflow:visible;"/>
								</clipPath>
								<g style="clip-path:url(#SVGID_00000020365534693549293090000008641989978265672582_);">
									<path class="st12" d="M743.2,304.7c-2.8,4.9-9,6.8-13.9,4s-6.8-9-4-13.9c18.3-33.2,13.7-74.4-11.4-102.8
										c-3.8-4.2-3.4-10.7,0.8-14.4c4.3-3.7,10.7-3.4,14.5,0.8C760,213.3,765.7,263.9,743.2,304.7"/>
								</g>
							</g>
						</g>
					</g>
				</g>
			</g>
		</g>
	</g>
</g>
<g>
	<g>
		<defs>
			<rect id="SVGID_00000065761915663449628090000000878204581666052745_" x="676" y="213" width="30" height="68"/>
		</defs>
		<clipPath id="SVGID_00000181777515799407980580000007334094775426524805_">
			<use xlink:href="#SVGID_00000065761915663449628090000000878204581666052745_"  style="overflow:visible;"/>
		</clipPath>
		<g style="clip-path:url(#SVGID_00000181777515799407980580000007334094775426524805_);">
			<g>
				<g>
					<defs>
						
							<rect id="SVGID_00000062893984716857106400000011856558555277623692_" x="667.7" y="130.1" transform="matrix(0.9939 -0.1104 0.1104 0.9939 -22.511 83.9077)" width="157.5" height="230.3"/>
					</defs>
					<clipPath id="SVGID_00000111178823702304574850000005470311053465351856_">
						<use xlink:href="#SVGID_00000062893984716857106400000011856558555277623692_"  style="overflow:visible;"/>
					</clipPath>
					<g style="clip-path:url(#SVGID_00000111178823702304574850000005470311053465351856_);">
						<g>
							<g>
								<defs>
									
										<rect id="SVGID_00000116225389071296718240000012763650502577240997_" x="210.5" y="45.5" transform="matrix(0.9939 -0.1104 0.1104 0.9939 -26.1955 58.8584)" width="615.8" height="441"/>
								</defs>
								<clipPath id="SVGID_00000104692368175580518770000011605506355676074681_">
									<use xlink:href="#SVGID_00000116225389071296718240000012763650502577240997_"  style="overflow:visible;"/>
								</clipPath>
								<g style="clip-path:url(#SVGID_00000104692368175580518770000011605506355676074681_);">
									<path class="st12" d="M701.1,274.1c-2.2,5.2-8.1,7.7-13.4,5.5c-5.2-2.2-7.7-8.1-5.5-13.3c5.1-12.2,3.6-26.2-4.1-37.1
										c-3.3-4.6-2.2-11,2.5-14.3c4.6-3.3,11-2.2,14.2,2.4C706.6,233.9,708.9,255.4,701.1,274.1"/>
								</g>
							</g>
						</g>
					</g>
				</g>
			</g>
		</g>
	</g>
</g>
</svg>
