<svg xmlns="http://www.w3.org/2000/svg" width="1440" viewBox="0 0 1440 810" height="810" version="1.0"><defs><clipPath id="a"><path d="M 373.625 58.625 L 1066.625 58.625 L 1066.625 751.625 L 373.625 751.625 Z M 373.625 58.625"/></clipPath></defs><g clip-path="url(#a)"><path fill="#3B5998" d="M 477.574219 58.625 L 962.675781 58.625 C 964.375 58.625 966.078125 58.667969 967.777344 58.75 C 969.476562 58.832031 971.171875 58.957031 972.863281 59.125 C 974.558594 59.292969 976.246094 59.5 977.925781 59.75 C 979.609375 60 981.285156 60.289062 982.953125 60.621094 C 984.621094 60.953125 986.28125 61.328125 987.933594 61.742188 C 989.582031 62.152344 991.222656 62.605469 992.851562 63.101562 C 994.476562 63.59375 996.09375 64.128906 997.695312 64.703125 C 999.296875 65.273438 1000.882812 65.886719 1002.453125 66.539062 C 1004.027344 67.1875 1005.582031 67.878906 1007.121094 68.605469 C 1008.65625 69.332031 1010.175781 70.097656 1011.675781 70.898438 C 1013.175781 71.703125 1014.65625 72.539062 1016.117188 73.414062 C 1017.574219 74.289062 1019.011719 75.199219 1020.425781 76.144531 C 1021.839844 77.089844 1023.230469 78.066406 1024.597656 79.082031 C 1025.964844 80.09375 1027.304688 81.140625 1028.621094 82.21875 C 1029.933594 83.300781 1031.222656 84.410156 1032.484375 85.554688 C 1033.742188 86.695312 1034.976562 87.867188 1036.179688 89.070312 C 1037.382812 90.273438 1038.554688 91.507812 1039.695312 92.765625 C 1040.839844 94.027344 1041.949219 95.316406 1043.03125 96.628906 C 1044.109375 97.945312 1045.15625 99.285156 1046.167969 100.652344 C 1047.183594 102.019531 1048.160156 103.410156 1049.105469 104.824219 C 1050.050781 106.238281 1050.960938 107.675781 1051.835938 109.132812 C 1052.710938 110.59375 1053.546875 112.074219 1054.351562 113.574219 C 1055.152344 115.074219 1055.917969 116.59375 1056.644531 118.128906 C 1057.371094 119.667969 1058.0625 121.222656 1058.710938 122.796875 C 1059.363281 124.367188 1059.976562 125.953125 1060.546875 127.554688 C 1061.121094 129.15625 1061.65625 130.773438 1062.148438 132.398438 C 1062.644531 134.027344 1063.097656 135.667969 1063.507812 137.316406 C 1063.921875 138.96875 1064.296875 140.625 1064.628906 142.296875 C 1064.960938 143.964844 1065.25 145.640625 1065.5 147.324219 C 1065.75 149.003906 1065.957031 150.691406 1066.125 152.386719 C 1066.292969 154.078125 1066.417969 155.773438 1066.5 157.472656 C 1066.582031 159.171875 1066.625 160.875 1066.625 162.574219 L 1066.625 647.675781 C 1066.625 649.375 1066.582031 651.078125 1066.5 652.777344 C 1066.417969 654.476562 1066.292969 656.171875 1066.125 657.863281 C 1065.957031 659.558594 1065.75 661.246094 1065.5 662.925781 C 1065.25 664.609375 1064.960938 666.285156 1064.628906 667.953125 C 1064.296875 669.625 1063.921875 671.28125 1063.507812 672.933594 C 1063.097656 674.582031 1062.644531 676.222656 1062.148438 677.851562 C 1061.65625 679.476562 1061.121094 681.09375 1060.546875 682.695312 C 1059.976562 684.296875 1059.363281 685.882812 1058.710938 687.453125 C 1058.0625 689.027344 1057.371094 690.582031 1056.644531 692.121094 C 1055.917969 693.65625 1055.152344 695.175781 1054.351562 696.675781 C 1053.546875 698.175781 1052.710938 699.65625 1051.835938 701.117188 C 1050.960938 702.574219 1050.050781 704.011719 1049.105469 705.425781 C 1048.160156 706.839844 1047.183594 708.230469 1046.167969 709.597656 C 1045.15625 710.964844 1044.109375 712.304688 1043.03125 713.621094 C 1041.949219 714.933594 1040.839844 716.222656 1039.695312 717.484375 C 1038.554688 718.742188 1037.382812 719.976562 1036.179688 721.179688 C 1034.976562 722.382812 1033.742188 723.554688 1032.484375 724.695312 C 1031.222656 725.839844 1029.933594 726.949219 1028.621094 728.03125 C 1027.304688 729.109375 1025.964844 730.15625 1024.597656 731.167969 C 1023.230469 732.183594 1021.839844 733.160156 1020.425781 734.105469 C 1019.011719 735.050781 1017.574219 735.960938 1016.117188 736.835938 C 1014.65625 737.710938 1013.175781 738.546875 1011.675781 739.351562 C 1010.175781 740.152344 1008.65625 740.917969 1007.121094 741.644531 C 1005.582031 742.371094 1004.027344 743.0625 1002.453125 743.710938 C 1000.882812 744.363281 999.296875 744.976562 997.695312 745.546875 C 996.09375 746.121094 994.476562 746.65625 992.851562 747.148438 C 991.222656 747.644531 989.582031 748.097656 987.933594 748.507812 C 986.28125 748.921875 984.621094 749.296875 982.953125 749.628906 C 981.285156 749.960938 979.609375 750.25 977.925781 750.5 C 976.246094 750.75 974.558594 750.957031 972.863281 751.125 C 971.171875 751.292969 969.476562 751.417969 967.777344 751.5 C 966.078125 751.582031 964.375 751.625 962.675781 751.625 L 477.574219 751.625 C 475.875 751.625 474.171875 751.582031 472.472656 751.5 C 470.773438 751.417969 469.078125 751.292969 467.386719 751.125 C 465.691406 750.957031 464.003906 750.75 462.324219 750.5 C 460.640625 750.25 458.964844 749.960938 457.296875 749.628906 C 455.625 749.296875 453.96875 748.921875 452.316406 748.507812 C 450.667969 748.097656 449.027344 747.644531 447.398438 747.148438 C 445.773438 746.65625 444.15625 746.121094 442.554688 745.546875 C 440.953125 744.976562 439.367188 744.363281 437.796875 743.710938 C 436.222656 743.0625 434.667969 742.371094 433.128906 741.644531 C 431.59375 740.917969 430.074219 740.152344 428.574219 739.351562 C 427.074219 738.546875 425.59375 737.710938 424.132812 736.835938 C 422.675781 735.960938 421.238281 735.050781 419.824219 734.105469 C 418.410156 733.160156 417.019531 732.183594 415.652344 731.167969 C 414.285156 730.15625 412.945312 729.109375 411.628906 728.03125 C 410.316406 726.949219 409.027344 725.839844 407.765625 724.695312 C 406.507812 723.554688 405.273438 722.382812 404.070312 721.179688 C 402.867188 719.976562 401.695312 718.742188 400.554688 717.484375 C 399.410156 716.222656 398.300781 714.933594 397.21875 713.621094 C 396.140625 712.304688 395.09375 710.964844 394.082031 709.597656 C 393.066406 708.230469 392.089844 706.839844 391.144531 705.425781 C 390.199219 704.011719 389.289062 702.574219 388.414062 701.117188 C 387.539062 699.65625 386.703125 698.175781 385.898438 696.675781 C 385.097656 695.175781 384.332031 693.65625 383.605469 692.121094 C 382.878906 690.582031 382.1875 689.027344 381.539062 687.453125 C 380.886719 685.882812 380.273438 684.296875 379.703125 682.695312 C 379.128906 681.09375 378.59375 679.476562 378.101562 677.851562 C 377.605469 676.222656 377.152344 674.582031 376.738281 672.933594 C 376.328125 671.28125 375.953125 669.625 375.621094 667.953125 C 375.289062 666.285156 375 664.609375 374.75 662.925781 C 374.5 661.246094 374.292969 659.558594 374.125 657.863281 C 373.957031 656.171875 373.832031 654.476562 373.75 652.777344 C 373.667969 651.078125 373.625 649.375 373.625 647.675781 L 373.625 162.574219 C 373.625 160.875 373.667969 159.171875 373.75 157.472656 C 373.832031 155.773438 373.957031 154.078125 374.125 152.386719 C 374.292969 150.691406 374.5 149.003906 374.75 147.324219 C 375 145.640625 375.289062 143.964844 375.621094 142.296875 C 375.953125 140.625 376.328125 138.96875 376.738281 137.316406 C 377.152344 135.667969 377.605469 134.027344 378.101562 132.398438 C 378.59375 130.773438 379.128906 129.15625 379.703125 127.554688 C 380.273438 125.953125 380.886719 124.367188 381.539062 122.796875 C 382.1875 121.222656 382.878906 119.667969 383.605469 118.128906 C 384.332031 116.59375 385.097656 115.074219 385.898438 113.574219 C 386.703125 112.074219 387.539062 110.59375 388.414062 109.132812 C 389.289062 107.675781 390.199219 106.238281 391.144531 104.824219 C 392.089844 103.410156 393.066406 102.019531 394.082031 100.652344 C 395.09375 99.285156 396.140625 97.945312 397.21875 96.628906 C 398.300781 95.316406 399.410156 94.027344 400.554688 92.765625 C 401.695312 91.507812 402.867188 90.273438 404.070312 89.070312 C 405.273438 87.867188 406.507812 86.695312 407.765625 85.554688 C 409.027344 84.410156 410.316406 83.300781 411.628906 82.21875 C 412.945312 81.140625 414.285156 80.09375 415.652344 79.082031 C 417.019531 78.066406 418.410156 77.089844 419.824219 76.144531 C 421.238281 75.199219 422.675781 74.289062 424.132812 73.414062 C 425.59375 72.539062 427.074219 71.703125 428.574219 70.898438 C 430.074219 70.097656 431.59375 69.332031 433.128906 68.605469 C 434.667969 67.878906 436.222656 67.1875 437.796875 66.539062 C 439.367188 65.886719 440.953125 65.273438 442.554688 64.703125 C 444.15625 64.128906 445.773438 63.59375 447.398438 63.101562 C 449.027344 62.605469 450.667969 62.152344 452.316406 61.742188 C 453.96875 61.328125 455.625 60.953125 457.296875 60.621094 C 458.964844 60.289062 460.640625 60 462.324219 59.75 C 464.003906 59.5 465.691406 59.292969 467.386719 59.125 C 469.078125 58.957031 470.773438 58.832031 472.472656 58.75 C 474.171875 58.667969 475.875 58.625 477.574219 58.625 Z M 477.574219 58.625"/></g><path fill="#FFF" d="M 762.082031 675.828125 L 762.082031 271.128906 C 762.082031 242.703125 770.203125 223.753906 809.457031 223.753906 L 860.890625 223.753906 L 860.890625 138.484375 C 851.414062 137.128906 821.636719 134.421875 786.445312 134.421875 C 713.355469 134.421875 663.277344 179.089844 663.277344 261.652344 L 663.277344 675.828125 M 856.828125 332.035156 L 579.359375 332.035156 L 579.359375 429.488281 L 844.648438 429.488281"/></svg>