<svg xmlns="http://www.w3.org/2000/svg" width="1440" viewBox="0 0 1440 810" height="810" version="1.0"><defs><clipPath id="a"><path d="M 372.582031 57.582031 L 1067.082031 57.582031 L 1067.082031 752.082031 L 372.582031 752.082031 Z M 372.582031 57.582031"/></clipPath></defs><g clip-path="url(#a)"><path fill="#0077B5" d="M 476.757812 57.582031 L 962.910156 57.582031 C 964.613281 57.582031 966.316406 57.625 968.019531 57.707031 C 969.722656 57.792969 971.421875 57.917969 973.121094 58.085938 C 974.816406 58.253906 976.507812 58.460938 978.195312 58.710938 C 979.878906 58.960938 981.558594 59.253906 983.230469 59.585938 C 984.902344 59.917969 986.566406 60.292969 988.222656 60.707031 C 989.875 61.121094 991.515625 61.574219 993.148438 62.070312 C 994.78125 62.5625 996.398438 63.097656 998.003906 63.671875 C 999.609375 64.246094 1001.199219 64.859375 1002.773438 65.511719 C 1004.347656 66.164062 1005.90625 66.855469 1007.449219 67.585938 C 1008.988281 68.3125 1010.511719 69.082031 1012.015625 69.882812 C 1013.519531 70.6875 1015.003906 71.527344 1016.464844 72.40625 C 1017.925781 73.28125 1019.367188 74.191406 1020.785156 75.140625 C 1022.203125 76.085938 1023.597656 77.070312 1024.964844 78.085938 C 1026.335938 79.101562 1027.679688 80.148438 1028.996094 81.230469 C 1030.3125 82.3125 1031.605469 83.425781 1032.867188 84.570312 C 1034.132812 85.714844 1035.367188 86.890625 1036.570312 88.09375 C 1037.777344 89.300781 1038.953125 90.535156 1040.097656 91.796875 C 1041.242188 93.0625 1042.355469 94.351562 1043.4375 95.671875 C 1044.519531 96.988281 1045.566406 98.332031 1046.582031 99.703125 C 1047.597656 101.070312 1048.578125 102.464844 1049.527344 103.882812 C 1050.472656 105.300781 1051.386719 106.738281 1052.261719 108.203125 C 1053.136719 109.664062 1053.980469 111.148438 1054.78125 112.652344 C 1055.585938 114.152344 1056.351562 115.675781 1057.082031 117.21875 C 1057.808594 118.757812 1058.5 120.316406 1059.152344 121.890625 C 1059.804688 123.46875 1060.417969 125.058594 1060.992188 126.664062 C 1061.566406 128.269531 1062.101562 129.886719 1062.597656 131.519531 C 1063.09375 133.148438 1063.546875 134.792969 1063.960938 136.445312 C 1064.375 138.101562 1064.75 139.761719 1065.082031 141.433594 C 1065.414062 143.105469 1065.707031 144.785156 1065.957031 146.472656 C 1066.207031 148.160156 1066.414062 149.851562 1066.582031 151.546875 C 1066.75 153.242188 1066.875 154.945312 1066.957031 156.648438 C 1067.042969 158.347656 1067.082031 160.054688 1067.082031 161.757812 L 1067.082031 647.910156 C 1067.082031 649.613281 1067.042969 651.316406 1066.957031 653.019531 C 1066.875 654.722656 1066.75 656.421875 1066.582031 658.121094 C 1066.414062 659.816406 1066.207031 661.507812 1065.957031 663.195312 C 1065.707031 664.878906 1065.414062 666.558594 1065.082031 668.230469 C 1064.75 669.902344 1064.375 671.566406 1063.960938 673.222656 C 1063.546875 674.875 1063.09375 676.515625 1062.597656 678.148438 C 1062.101562 679.78125 1061.566406 681.398438 1060.992188 683.003906 C 1060.417969 684.609375 1059.804688 686.199219 1059.152344 687.773438 C 1058.5 689.347656 1057.808594 690.90625 1057.082031 692.449219 C 1056.351562 693.988281 1055.585938 695.511719 1054.78125 697.015625 C 1053.980469 698.519531 1053.136719 700.003906 1052.261719 701.464844 C 1051.386719 702.925781 1050.472656 704.367188 1049.527344 705.785156 C 1048.578125 707.203125 1047.597656 708.597656 1046.582031 709.964844 C 1045.566406 711.335938 1044.519531 712.679688 1043.4375 713.996094 C 1042.355469 715.3125 1041.242188 716.605469 1040.097656 717.867188 C 1038.953125 719.132812 1037.777344 720.367188 1036.570312 721.570312 C 1035.367188 722.777344 1034.132812 723.953125 1032.867188 725.097656 C 1031.605469 726.242188 1030.3125 727.355469 1028.996094 728.4375 C 1027.679688 729.519531 1026.335938 730.566406 1024.964844 731.582031 C 1023.597656 732.597656 1022.203125 733.578125 1020.785156 734.527344 C 1019.367188 735.472656 1017.925781 736.386719 1016.464844 737.261719 C 1015.003906 738.136719 1013.519531 738.980469 1012.015625 739.78125 C 1010.511719 740.585938 1008.988281 741.351562 1007.449219 742.082031 C 1005.90625 742.808594 1004.347656 743.5 1002.773438 744.152344 C 1001.199219 744.804688 999.609375 745.417969 998.003906 745.992188 C 996.398438 746.566406 994.78125 747.101562 993.148438 747.597656 C 991.515625 748.09375 989.875 748.546875 988.222656 748.960938 C 986.566406 749.375 984.902344 749.75 983.230469 750.082031 C 981.558594 750.414062 979.878906 750.707031 978.195312 750.957031 C 976.507812 751.207031 974.816406 751.414062 973.121094 751.582031 C 971.421875 751.75 969.722656 751.875 968.019531 751.957031 C 966.316406 752.042969 964.613281 752.082031 962.910156 752.082031 L 476.757812 752.082031 C 475.054688 752.082031 473.347656 752.042969 471.648438 751.957031 C 469.945312 751.875 468.242188 751.75 466.546875 751.582031 C 464.851562 751.414062 463.160156 751.207031 461.472656 750.957031 C 459.785156 750.707031 458.105469 750.414062 456.433594 750.082031 C 454.761719 749.75 453.101562 749.375 451.445312 748.960938 C 449.792969 748.546875 448.148438 748.09375 446.519531 747.597656 C 444.886719 747.101562 443.269531 746.566406 441.664062 745.992188 C 440.058594 745.417969 438.46875 744.804688 436.890625 744.152344 C 435.316406 743.5 433.757812 742.808594 432.21875 742.082031 C 430.675781 741.351562 429.152344 740.585938 427.652344 739.78125 C 426.148438 738.980469 424.664062 738.136719 423.203125 737.261719 C 421.738281 736.386719 420.300781 735.472656 418.882812 734.527344 C 417.464844 733.578125 416.070312 732.597656 414.703125 731.582031 C 413.332031 730.566406 411.988281 729.519531 410.671875 728.4375 C 409.351562 727.355469 408.0625 726.242188 406.796875 725.097656 C 405.535156 723.953125 404.300781 722.777344 403.09375 721.570312 C 401.890625 720.367188 400.714844 719.132812 399.570312 717.867188 C 398.425781 716.605469 397.3125 715.3125 396.230469 713.996094 C 395.148438 712.679688 394.101562 711.335938 393.085938 709.964844 C 392.070312 708.597656 391.085938 707.203125 390.140625 705.785156 C 389.191406 704.367188 388.28125 702.925781 387.40625 701.464844 C 386.527344 700.003906 385.6875 698.519531 384.882812 697.015625 C 384.082031 695.511719 383.3125 693.988281 382.585938 692.449219 C 381.855469 690.90625 381.164062 689.347656 380.511719 687.773438 C 379.859375 686.199219 379.246094 684.609375 378.671875 683.003906 C 378.097656 681.398438 377.5625 679.78125 377.070312 678.148438 C 376.574219 676.515625 376.121094 674.875 375.707031 673.222656 C 375.292969 671.566406 374.917969 669.902344 374.585938 668.230469 C 374.253906 666.558594 373.960938 664.878906 373.710938 663.195312 C 373.460938 661.507812 373.253906 659.816406 373.085938 658.121094 C 372.917969 656.421875 372.792969 654.722656 372.707031 653.019531 C 372.625 651.316406 372.582031 649.613281 372.582031 647.910156 L 372.582031 161.757812 C 372.582031 160.054688 372.625 158.347656 372.707031 156.648438 C 372.792969 154.945312 372.917969 153.242188 373.085938 151.546875 C 373.253906 149.851562 373.460938 148.160156 373.710938 146.472656 C 373.960938 144.785156 374.253906 143.105469 374.585938 141.433594 C 374.917969 139.761719 375.292969 138.101562 375.707031 136.445312 C 376.121094 134.792969 376.574219 133.148438 377.070312 131.519531 C 377.5625 129.886719 378.097656 128.269531 378.671875 126.664062 C 379.246094 125.058594 379.859375 123.46875 380.511719 121.890625 C 381.164062 120.316406 381.855469 118.757812 382.585938 117.21875 C 383.3125 115.675781 384.082031 114.152344 384.882812 112.652344 C 385.6875 111.148438 386.527344 109.664062 387.40625 108.203125 C 388.28125 106.738281 389.191406 105.300781 390.140625 103.882812 C 391.085938 102.464844 392.070312 101.070312 393.085938 99.703125 C 394.101562 98.332031 395.148438 96.988281 396.230469 95.671875 C 397.3125 94.351562 398.425781 93.0625 399.570312 91.796875 C 400.714844 90.535156 401.890625 89.300781 403.09375 88.09375 C 404.300781 86.890625 405.535156 85.714844 406.796875 84.570312 C 408.0625 83.425781 409.351562 82.3125 410.671875 81.230469 C 411.988281 80.148438 413.332031 79.101562 414.703125 78.085938 C 416.070312 77.070312 417.464844 76.085938 418.882812 75.140625 C 420.300781 74.191406 421.738281 73.28125 423.203125 72.40625 C 424.664062 71.527344 426.148438 70.6875 427.652344 69.882812 C 429.152344 69.082031 430.675781 68.3125 432.21875 67.585938 C 433.757812 66.855469 435.316406 66.164062 436.890625 65.511719 C 438.46875 64.859375 440.058594 64.246094 441.664062 63.671875 C 443.269531 63.097656 444.886719 62.5625 446.519531 62.070312 C 448.148438 61.574219 449.792969 61.121094 451.445312 60.707031 C 453.101562 60.292969 454.761719 59.917969 456.433594 59.585938 C 458.105469 59.253906 459.785156 58.960938 461.472656 58.710938 C 463.160156 58.460938 464.851562 58.253906 466.546875 58.085938 C 468.242188 57.917969 469.945312 57.792969 471.648438 57.707031 C 473.347656 57.625 475.054688 57.582031 476.757812 57.582031 Z M 476.757812 57.582031"/></g><path fill="#FFF" d="M 615.386719 244.773438 C 615.386719 246.417969 615.304688 248.054688 615.144531 249.691406 C 614.984375 251.328125 614.742188 252.953125 614.421875 254.5625 C 614.101562 256.175781 613.703125 257.769531 613.226562 259.339844 C 612.75 260.914062 612.195312 262.460938 611.566406 263.980469 C 610.9375 265.496094 610.234375 266.980469 609.460938 268.429688 C 608.6875 269.882812 607.84375 271.289062 606.929688 272.65625 C 606.015625 274.023438 605.039062 275.339844 603.996094 276.613281 C 602.953125 277.882812 601.847656 279.097656 600.6875 280.261719 C 599.523438 281.421875 598.308594 282.527344 597.039062 283.570312 C 595.765625 284.613281 594.449219 285.589844 593.082031 286.503906 C 591.714844 287.417969 590.308594 288.261719 588.855469 289.035156 C 587.40625 289.808594 585.921875 290.511719 584.40625 291.140625 C 582.886719 291.769531 581.339844 292.324219 579.765625 292.800781 C 578.195312 293.277344 576.601562 293.675781 574.988281 293.996094 C 573.378906 294.316406 571.753906 294.558594 570.117188 294.71875 C 568.480469 294.878906 566.84375 294.960938 565.199219 294.960938 C 563.554688 294.960938 561.914062 294.878906 560.277344 294.71875 C 558.644531 294.558594 557.019531 294.316406 555.40625 293.996094 C 553.796875 293.675781 552.203125 293.277344 550.628906 292.800781 C 549.058594 292.324219 547.511719 291.769531 545.992188 291.140625 C 544.472656 290.511719 542.988281 289.808594 541.539062 289.035156 C 540.089844 288.261719 538.683594 287.417969 537.316406 286.503906 C 535.949219 285.589844 534.628906 284.613281 533.359375 283.570312 C 532.089844 282.527344 530.871094 281.421875 529.710938 280.261719 C 528.546875 279.097656 527.445312 277.882812 526.402344 276.613281 C 525.359375 275.339844 524.382812 274.023438 523.46875 272.65625 C 522.554688 271.289062 521.710938 269.882812 520.9375 268.429688 C 520.160156 266.980469 519.460938 265.496094 518.832031 263.980469 C 518.203125 262.460938 517.648438 260.914062 517.171875 259.339844 C 516.695312 257.769531 516.296875 256.175781 515.972656 254.5625 C 515.652344 252.953125 515.414062 251.328125 515.25 249.691406 C 515.089844 248.054688 515.011719 246.417969 515.011719 244.773438 C 515.011719 243.128906 515.089844 241.488281 515.25 239.851562 C 515.414062 238.21875 515.652344 236.59375 515.972656 234.980469 C 516.296875 233.371094 516.695312 231.777344 517.171875 230.203125 C 517.648438 228.632812 518.203125 227.085938 518.832031 225.566406 C 519.460938 224.046875 520.160156 222.5625 520.9375 221.113281 C 521.710938 219.664062 522.554688 218.257812 523.46875 216.890625 C 524.382812 215.523438 525.359375 214.203125 526.402344 212.933594 C 527.445312 211.664062 528.546875 210.445312 529.710938 209.285156 C 530.871094 208.121094 532.089844 207.019531 533.359375 205.976562 C 534.628906 204.933594 535.949219 203.957031 537.316406 203.042969 C 538.683594 202.128906 540.089844 201.285156 541.539062 200.511719 C 542.988281 199.734375 544.472656 199.035156 545.992188 198.40625 C 547.511719 197.777344 549.054688 197.222656 550.628906 196.746094 C 552.203125 196.269531 553.796875 195.871094 555.40625 195.546875 C 557.019531 195.226562 558.644531 194.988281 560.277344 194.824219 C 561.914062 194.664062 563.554688 194.585938 565.199219 194.585938 C 566.84375 194.585938 568.480469 194.664062 570.117188 194.824219 C 571.753906 194.988281 573.378906 195.226562 574.988281 195.546875 C 576.601562 195.871094 578.195312 196.269531 579.765625 196.746094 C 581.339844 197.222656 582.886719 197.777344 584.40625 198.40625 C 585.921875 199.035156 587.40625 199.734375 588.855469 200.511719 C 590.308594 201.285156 591.714844 202.128906 593.082031 203.042969 C 594.449219 203.957031 595.765625 204.933594 597.039062 205.976562 C 598.308594 207.019531 599.523438 208.121094 600.6875 209.285156 C 601.847656 210.445312 602.953125 211.664062 603.996094 212.933594 C 605.039062 214.203125 606.015625 215.523438 606.929688 216.890625 C 607.84375 218.257812 608.6875 219.664062 609.460938 221.113281 C 610.234375 222.5625 610.9375 224.046875 611.566406 225.566406 C 612.195312 227.085938 612.75 228.632812 613.226562 230.203125 C 613.703125 231.777344 614.101562 233.371094 614.421875 234.980469 C 614.742188 236.59375 614.984375 238.21875 615.144531 239.851562 C 615.304688 241.488281 615.386719 243.128906 615.386719 244.773438 Z M 615.386719 244.773438"/><path transform="matrix(1.35644 0 0 1.35644 372.583 57.583)" fill="#FFF" d="M 243.999063 194.000475 L 243.999063 391.999044 M 142.000498 194.000475 L 142.000498 391.999044" stroke="#FFF" stroke-width="66"/><path fill="#FFF" d="M 746.960938 440.101562 C 746.960938 412.972656 764.597656 385.84375 795.792969 385.84375 C 828.347656 385.84375 840.558594 410.257812 840.558594 446.882812 L 840.558594 589.308594 L 930.082031 589.308594 L 930.082031 436.03125 C 930.082031 353.289062 886.675781 315.308594 826.992188 315.308594 C 780.875 315.308594 757.8125 341.082031 746.960938 358.714844"/></svg>