<svg xmlns="http://www.w3.org/2000/svg" width="1440" viewBox="0 0 1440 810" height="810" version="1.0"><defs><clipPath id="a"><path d="M 371.800781 56.800781 L 1068.550781 56.800781 L 1068.550781 753.550781 L 371.800781 753.550781 Z M 371.800781 56.800781"/></clipPath></defs><g clip-path="url(#a)"><path fill="#1D9BF0" d="M 981.457031 753.550781 L 458.894531 753.550781 C 410.820312 753.550781 371.800781 714.53125 371.800781 666.457031 L 371.800781 143.894531 C 371.800781 95.820312 410.820312 56.800781 458.894531 56.800781 L 981.457031 56.800781 C 1029.53125 56.800781 1068.550781 95.820312 1068.550781 143.894531 L 1068.550781 666.457031 C 1068.550781 714.53125 1029.53125 753.550781 981.457031 753.550781 Z M 981.457031 753.550781"/></g><path fill="#FFF" d="M 639.351562 582.152344 C 803.613281 582.152344 893.492188 445.9375 893.492188 328.011719 C 893.492188 324.179688 893.492188 320.347656 893.316406 316.515625 C 910.738281 303.972656 925.890625 288.121094 937.910156 270.179688 C 921.886719 277.324219 904.640625 282.027344 886.523438 284.289062 C 904.988281 273.316406 919.097656 255.722656 925.890625 234.820312 C 908.648438 245.097656 889.484375 252.414062 869.105469 256.421875 C 852.734375 239 829.566406 228.203125 803.960938 228.203125 C 754.664062 228.203125 714.601562 268.265625 714.601562 317.558594 C 714.601562 324.527344 715.472656 331.320312 716.867188 337.941406 C 642.664062 334.28125 576.820312 298.574219 532.75 244.574219 C 525.085938 257.8125 520.730469 273.140625 520.730469 289.515625 C 520.730469 320.519531 536.582031 347.867188 560.445312 363.894531 C 545.8125 363.371094 532.054688 359.363281 520.035156 352.746094 C 520.035156 353.09375 520.035156 353.441406 520.035156 353.964844 C 520.035156 397.164062 550.867188 433.394531 591.625 441.582031 C 584.136719 443.671875 576.296875 444.714844 568.109375 444.714844 C 562.363281 444.714844 556.789062 444.195312 551.386719 443.148438 C 562.710938 478.683594 595.804688 504.464844 634.824219 505.160156 C 604.167969 529.199219 565.671875 543.480469 523.867188 543.480469 C 516.726562 543.480469 509.582031 543.132812 502.617188 542.261719 C 541.980469 567.34375 589.011719 582.152344 639.351562 582.152344"/></svg>