<svg xmlns="http://www.w3.org/2000/svg" width="1440" viewBox="0 0 1440 810" height="810" version="1.0"><defs><clipPath id="a"><path d="M 373.832031 58.832031 L 1066.082031 58.832031 L 1066.082031 751.082031 L 373.832031 751.082031 Z M 373.832031 58.832031"/></clipPath></defs><g clip-path="url(#a)"><path fill="#ED1D24" d="M 477.671875 58.832031 L 962.246094 58.832031 C 963.945312 58.832031 965.644531 58.875 967.339844 58.957031 C 969.039062 59.042969 970.734375 59.167969 972.421875 59.332031 C 974.113281 59.5 975.800781 59.707031 977.480469 59.957031 C 979.164062 60.207031 980.835938 60.496094 982.503906 60.828125 C 984.171875 61.160156 985.828125 61.53125 987.476562 61.945312 C 989.125 62.359375 990.761719 62.8125 992.386719 63.304688 C 994.015625 63.796875 995.628906 64.332031 997.226562 64.902344 C 998.828125 65.476562 1000.414062 66.085938 1001.984375 66.738281 C 1003.550781 67.386719 1005.105469 68.078125 1006.640625 68.804688 C 1008.179688 69.53125 1009.695312 70.292969 1011.195312 71.09375 C 1012.691406 71.894531 1014.171875 72.734375 1015.628906 73.605469 C 1017.085938 74.480469 1018.523438 75.390625 1019.933594 76.332031 C 1021.347656 77.277344 1022.738281 78.253906 1024.101562 79.269531 C 1025.464844 80.28125 1026.804688 81.324219 1028.121094 82.402344 C 1029.433594 83.480469 1030.71875 84.589844 1031.980469 85.730469 C 1033.238281 86.875 1034.46875 88.046875 1035.671875 89.246094 C 1036.871094 90.449219 1038.042969 91.679688 1039.183594 92.9375 C 1040.324219 94.195312 1041.433594 95.484375 1042.511719 96.796875 C 1043.589844 98.109375 1044.636719 99.449219 1045.648438 100.816406 C 1046.660156 102.179688 1047.640625 103.570312 1048.582031 104.980469 C 1049.527344 106.394531 1050.4375 107.832031 1051.308594 109.289062 C 1052.183594 110.746094 1053.019531 112.222656 1053.820312 113.722656 C 1054.625 115.222656 1055.386719 116.738281 1056.113281 118.273438 C 1056.839844 119.8125 1057.527344 121.363281 1058.179688 122.933594 C 1058.828125 124.503906 1059.441406 126.089844 1060.011719 127.6875 C 1060.585938 129.289062 1061.117188 130.902344 1061.613281 132.527344 C 1062.105469 134.15625 1062.558594 135.792969 1062.972656 137.441406 C 1063.382812 139.089844 1063.757812 140.746094 1064.089844 142.414062 C 1064.417969 144.078125 1064.710938 145.753906 1064.960938 147.433594 C 1065.207031 149.117188 1065.417969 150.800781 1065.582031 152.492188 C 1065.75 154.183594 1065.875 155.878906 1065.957031 157.574219 C 1066.042969 159.273438 1066.082031 160.972656 1066.082031 162.671875 L 1066.082031 647.246094 C 1066.082031 648.945312 1066.042969 650.644531 1065.957031 652.339844 C 1065.875 654.039062 1065.75 655.734375 1065.582031 657.421875 C 1065.417969 659.113281 1065.207031 660.800781 1064.960938 662.480469 C 1064.710938 664.164062 1064.417969 665.835938 1064.089844 667.503906 C 1063.757812 669.171875 1063.382812 670.828125 1062.972656 672.476562 C 1062.558594 674.125 1062.105469 675.761719 1061.613281 677.386719 C 1061.117188 679.015625 1060.585938 680.628906 1060.011719 682.226562 C 1059.441406 683.828125 1058.828125 685.414062 1058.179688 686.984375 C 1057.527344 688.550781 1056.839844 690.105469 1056.113281 691.640625 C 1055.386719 693.179688 1054.625 694.695312 1053.820312 696.195312 C 1053.019531 697.691406 1052.183594 699.171875 1051.308594 700.628906 C 1050.4375 702.085938 1049.527344 703.523438 1048.582031 704.933594 C 1047.640625 706.347656 1046.660156 707.738281 1045.648438 709.101562 C 1044.636719 710.464844 1043.589844 711.804688 1042.511719 713.121094 C 1041.433594 714.433594 1040.324219 715.71875 1039.183594 716.980469 C 1038.042969 718.238281 1036.871094 719.46875 1035.671875 720.671875 C 1034.46875 721.871094 1033.238281 723.042969 1031.980469 724.183594 C 1030.71875 725.324219 1029.433594 726.433594 1028.121094 727.511719 C 1026.804688 728.589844 1025.464844 729.636719 1024.101562 730.648438 C 1022.738281 731.660156 1021.347656 732.640625 1019.933594 733.582031 C 1018.523438 734.527344 1017.085938 735.4375 1015.628906 736.308594 C 1014.171875 737.183594 1012.691406 738.019531 1011.195312 738.820312 C 1009.695312 739.625 1008.179688 740.386719 1006.640625 741.113281 C 1005.105469 741.839844 1003.550781 742.527344 1001.984375 743.179688 C 1000.414062 743.828125 998.828125 744.441406 997.226562 745.011719 C 995.628906 745.585938 994.015625 746.117188 992.386719 746.613281 C 990.761719 747.105469 989.125 747.558594 987.476562 747.972656 C 985.828125 748.382812 984.171875 748.757812 982.503906 749.089844 C 980.835938 749.417969 979.164062 749.710938 977.480469 749.960938 C 975.800781 750.207031 974.113281 750.417969 972.421875 750.582031 C 970.734375 750.75 969.039062 750.875 967.339844 750.957031 C 965.644531 751.042969 963.945312 751.082031 962.246094 751.082031 L 477.671875 751.082031 C 475.972656 751.082031 474.273438 751.042969 472.574219 750.957031 C 470.878906 750.875 469.183594 750.75 467.492188 750.582031 C 465.800781 750.417969 464.117188 750.207031 462.433594 749.960938 C 460.753906 749.710938 459.078125 749.417969 457.414062 749.089844 C 455.746094 748.757812 454.089844 748.382812 452.441406 747.972656 C 450.792969 747.558594 449.15625 747.105469 447.527344 746.613281 C 445.902344 746.117188 444.289062 745.585938 442.6875 745.011719 C 441.089844 744.441406 439.503906 743.828125 437.933594 743.179688 C 436.363281 742.527344 434.8125 741.839844 433.273438 741.113281 C 431.738281 740.386719 430.222656 739.625 428.722656 738.824219 C 427.222656 738.019531 425.746094 737.183594 424.289062 736.308594 C 422.828125 735.4375 421.394531 734.527344 419.980469 733.582031 C 418.570312 732.640625 417.179688 731.660156 415.816406 730.648438 C 414.449219 729.636719 413.109375 728.589844 411.796875 727.511719 C 410.484375 726.433594 409.195312 725.324219 407.9375 724.183594 C 406.679688 723.042969 405.449219 721.871094 404.246094 720.671875 C 403.046875 719.46875 401.875 718.238281 400.730469 716.980469 C 399.589844 715.71875 398.480469 714.433594 397.402344 713.121094 C 396.324219 711.804688 395.28125 710.464844 394.269531 709.101562 C 393.253906 707.738281 392.277344 706.347656 391.332031 704.933594 C 390.390625 703.523438 389.480469 702.085938 388.605469 700.628906 C 387.734375 699.171875 386.894531 697.691406 386.09375 696.195312 C 385.292969 694.695312 384.53125 693.179688 383.804688 691.640625 C 383.078125 690.105469 382.386719 688.550781 381.738281 686.984375 C 381.085938 685.414062 380.476562 683.828125 379.902344 682.226562 C 379.332031 680.628906 378.796875 679.015625 378.304688 677.386719 C 377.8125 675.761719 377.359375 674.125 376.945312 672.476562 C 376.53125 670.828125 376.160156 669.171875 375.828125 667.503906 C 375.496094 665.835938 375.207031 664.164062 374.957031 662.480469 C 374.707031 660.800781 374.5 659.113281 374.332031 657.421875 C 374.167969 655.734375 374.042969 654.039062 373.957031 652.339844 C 373.875 650.644531 373.832031 648.945312 373.832031 647.246094 L 373.832031 162.671875 C 373.832031 160.972656 373.875 159.273438 373.957031 157.574219 C 374.042969 155.878906 374.167969 154.183594 374.332031 152.492188 C 374.5 150.800781 374.707031 149.117188 374.957031 147.433594 C 375.207031 145.753906 375.496094 144.078125 375.828125 142.414062 C 376.160156 140.746094 376.53125 139.089844 376.945312 137.441406 C 377.359375 135.792969 377.8125 134.15625 378.304688 132.527344 C 378.796875 130.902344 379.332031 129.289062 379.902344 127.6875 C 380.476562 126.089844 381.085938 124.503906 381.738281 122.933594 C 382.386719 121.363281 383.078125 119.8125 383.804688 118.273438 C 384.53125 116.738281 385.292969 115.222656 386.09375 113.722656 C 386.894531 112.222656 387.734375 110.746094 388.605469 109.289062 C 389.480469 107.832031 390.390625 106.394531 391.332031 104.980469 C 392.277344 103.570312 393.253906 102.179688 394.269531 100.816406 C 395.28125 99.449219 396.324219 98.109375 397.402344 96.796875 C 398.480469 95.484375 399.589844 94.195312 400.730469 92.9375 C 401.875 91.679688 403.046875 90.449219 404.246094 89.246094 C 405.449219 88.046875 406.679688 86.875 407.9375 85.730469 C 409.195312 84.589844 410.484375 83.480469 411.796875 82.402344 C 413.109375 81.324219 414.449219 80.28125 415.816406 79.269531 C 417.179688 78.253906 418.570312 77.277344 419.980469 76.332031 C 421.394531 75.390625 422.828125 74.480469 424.289062 73.605469 C 425.746094 72.734375 427.222656 71.894531 428.722656 71.09375 C 430.222656 70.292969 431.738281 69.53125 433.273438 68.804688 C 434.8125 68.078125 436.363281 67.386719 437.933594 66.738281 C 439.503906 66.085938 441.089844 65.476562 442.6875 64.902344 C 444.289062 64.332031 445.902344 63.796875 447.527344 63.304688 C 449.15625 62.8125 450.792969 62.359375 452.441406 61.945312 C 454.089844 61.53125 455.746094 61.160156 457.414062 60.828125 C 459.078125 60.496094 460.753906 60.207031 462.433594 59.957031 C 464.117188 59.707031 465.800781 59.5 467.492188 59.332031 C 469.183594 59.167969 470.878906 59.042969 472.574219 58.957031 C 474.273438 58.875 475.972656 58.832031 477.671875 58.832031 Z M 477.671875 58.832031"/></g><path fill="#FFF" d="M 951.160156 287.328125 C 945.75 267.050781 928.175781 250.824219 907.894531 245.417969 C 861.921875 233.246094 584.753906 231.894531 532.023438 245.417969 C 511.742188 250.824219 494.164062 267.050781 488.757812 287.328125 C 476.589844 338.707031 475.238281 469.855469 488.757812 522.585938 C 494.164062 542.867188 511.742188 559.09375 532.023438 564.5 C 580.695312 578.019531 857.867188 578.019531 907.894531 564.5 C 928.175781 559.09375 945.75 542.867188 951.160156 522.585938 C 963.328125 473.914062 963.328125 337.355469 951.160156 287.328125"/><path fill="#ED1D24" d="M 671.285156 333.300781 L 671.285156 476.617188 L 797.023438 404.957031"/></svg>