<?xml version="1.0" encoding="utf-8"?>
<!-- Generator: Adobe Illustrator 25.2.3, SVG Export Plug-In . SVG Version: 6.00 Build 0)  -->
<svg version="1.1" id="Layer_1" xmlns="http://www.w3.org/2000/svg" xmlns:xlink="http://www.w3.org/1999/xlink" x="0px" y="0px"
	 viewBox="0 0 305.4 305.4" style="enable-background:new 0 0 305.4 305.4;" xml:space="preserve">
<style type="text/css">
	.st0{fill:#FF8400;}
</style>
<g>
	<g>
		<g>
			<path class="st0" d="M133.8,142.9c0,3.3,2.6,5.9,5.9,5.9h52.4c3.3,0,5.9-2.6,5.9-5.9c0-3.3-2.6-5.9-5.9-5.9h-52.4
				C136.5,137,133.8,139.6,133.8,142.9z"/>
			<path class="st0" d="M192.1,169.1h-52.4c-3.3,0-5.9,2.6-5.9,5.9c0,3.3,2.6,5.9,5.9,5.9h52.4c3.3,0,5.9-2.6,5.9-5.9
				C198,171.7,195.4,169.1,192.1,169.1z"/>
			<path class="st0" d="M192.1,201.1h-52.4c-3.3,0-5.9,2.6-5.9,5.9c0,3.3,2.6,5.9,5.9,5.9h52.4c3.3,0,5.9-2.6,5.9-5.9
				C198,203.8,195.4,201.1,192.1,201.1z"/>
			<circle class="st0" cx="119.4" cy="142.9" r="6.2"/>
			<circle class="st0" cx="119.4" cy="175" r="6.2"/>
			<circle class="st0" cx="119.4" cy="207" r="6.2"/>
			<path class="st0" d="M227.6,98.9l-44.5-44.5c-1.1-1.1-2.6-1.7-4.2-1.7H82c-3.3,0-5.9,2.6-5.9,5.9v188.2c0,3.3,2.6,5.9,5.9,5.9
				h141.5c3.3,0,5.9-2.6,5.9-5.9V103.1C229.3,101.5,228.7,100.1,227.6,98.9z M183.5,71.5l27,27h-27L183.5,71.5L183.5,71.5z
				 M217.5,240.9H87.9V64.5h83.8v39.9c0,3.3,2.6,5.9,5.9,5.9h39.9V240.9z"/>
		</g>
	</g>
</g>
</svg>
