<?xml version="1.0" encoding="utf-8"?>
<!-- Generator: Adobe Illustrator 25.2.3, SVG Export Plug-In . SVG Version: 6.00 Build 0)  -->
<svg version="1.1" id="Layer_1" xmlns="http://www.w3.org/2000/svg" xmlns:xlink="http://www.w3.org/1999/xlink" x="0px" y="0px"
	 viewBox="0 0 512 512" style="enable-background:new 0 0 512 512;" xml:space="preserve">
<style type="text/css">
	.st0{fill:#83C341;}
</style>
<g>
	<g>
		<g>
			<path class="st0" d="M141.7,220.7c-1.5,5.7-0.9,109.9-0.8,110.4l70.7-64.8L141.7,220.7z"/>
			<path class="st0" d="M256,289.7c-10.8,0-15.9-4.6-30-13.9l-78,71.5c4.9,5.3,11.9,8.6,19.6,8.6h176.8c7.8,0,14.7-3.3,19.6-8.6
				l-78-71.5C271.9,285.1,266.8,289.7,256,289.7z"/>
			<path class="st0" d="M370.3,220.7l-69.8,45.7l70.7,64.8C371.2,330.6,371.9,226.6,370.3,220.7z"/>
			<path class="st0" d="M270.3,266.2c0.3-0.2,90.7-59.6,90.7-59.6c-8.5-6.7-16.2-5.8-25.6-5.8H327v-36.5c0-4.6-3.8-8.4-8.4-8.4
				H193.3c-4.6,0-8.4,3.8-8.4,8.4v36.5h0h-8.4c-9.4,0-17.1-1-25.6,5.8c0,0,90.5,59.4,90.7,59.6C255,274.9,255.9,275.7,270.3,266.2z
				 M230.1,174.6h51.8c4.6,0,8.4,3.8,8.4,8.4c0,4.6-3.8,8.4-8.4,8.4h-51.8c-4.6,0-8.4-3.8-8.4-8.4
				C221.7,178.4,225.4,174.6,230.1,174.6z M210.5,212.7c0-4.6,3.8-8.4,8.4-8.4h74.2c4.6,0,8.4,3.8,8.4,8.4c0,4.6-3.8,8.4-8.4,8.4
				h-74.2C214.3,221.1,210.5,217.3,210.5,212.7z"/>
		</g>
	</g>
</g>
</svg>
