<?xml version="1.0" encoding="utf-8"?>
<!-- Generator: Adobe Illustrator 25.2.3, SVG Export Plug-In . SVG Version: 6.00 Build 0)  -->
<svg version="1.1" id="Layer_1" xmlns="http://www.w3.org/2000/svg" xmlns:xlink="http://www.w3.org/1999/xlink" x="0px" y="0px"
	 viewBox="0 0 382 382" style="enable-background:new 0 0 382 382;" xml:space="preserve">
<style type="text/css">
	.st0{fill:#0077B7;}
</style>
<path class="st0" d="M272.9,91H109.1c-10,0-18.1,8.1-18.1,18.1v163.8c0,10,8.1,18.1,18.1,18.1h163.8c10,0,18.1-8.1,18.1-18.1V109.1
	C291,99.1,282.9,91,272.9,91z M152.9,263.7c0,2.9-2.4,5.3-5.3,5.3h-22.4c-2.9,0-5.3-2.4-5.3-5.3v-93.9c0-2.9,2.4-5.3,5.3-5.3h22.4
	c2.9,0,5.3,2.4,5.3,5.3V263.7z M136.4,155.6c-11.8,0-21.3-9.5-21.3-21.3c0-11.8,9.5-21.3,21.3-21.3s21.3,9.5,21.3,21.3
	C157.7,146.1,148.2,155.6,136.4,155.6z M270,264.1c0,2.7-2.2,4.8-4.8,4.8h-24c-2.7,0-4.8-2.2-4.8-4.8v-44.1
	c0-6.6,1.9-28.8-17.2-28.8c-14.8,0-17.8,15.2-18.4,22v50.8c0,2.7-2.2,4.8-4.8,4.8h-23.3c-2.7,0-4.8-2.2-4.8-4.8v-94.8
	c0-2.7,2.2-4.8,4.8-4.8h23.3c2.7,0,4.8,2.2,4.8,4.8v8.2c5.5-8.2,13.7-14.6,31.1-14.6c38.5,0,38.3,36,38.3,55.7L270,264.1L270,264.1z
	"/>
</svg>
