<?xml version="1.0" encoding="UTF-8"?>
<svg xmlns="http://www.w3.org/2000/svg" xmlns:xlink="http://www.w3.org/1999/xlink" width="1440pt" height="809.999993pt" viewBox="0 0 1440 809.999993" version="1.2">
<defs>
<clipPath id="clip1">
  <path d="M 449.023438 88 L 988 88 L 988 722 L 449.023438 722 Z M 449.023438 88 "/>
</clipPath>
<clipPath id="clip2">
  <path d="M 535.53125 89 L 712.53125 89 L 712.53125 253.921875 L 535.53125 253.921875 Z M 535.53125 89 "/>
</clipPath>
</defs>
<g id="surface1">
<rect x="0" y="0" width="1440" height="809.999993" style="fill:rgb(100%,100%,100%);fill-opacity:1;stroke:none;"/>
<rect x="0" y="0" width="1440" height="809.999993" style="fill:rgb(100%,100%,100%);fill-opacity:1;stroke:none;"/>
<g clip-path="url(#clip1)" clip-rule="nonzero">
<path style=" stroke:none;fill-rule:nonzero;fill:rgb(0%,24.308777%,32.159424%);fill-opacity:1;" d="M 623.941406 88.976562 C 622.730469 88.976562 621.519531 89.007812 620.308594 89.066406 C 619.101562 89.125 617.894531 89.214844 616.6875 89.332031 C 615.484375 89.453125 614.28125 89.597656 613.082031 89.777344 C 611.886719 89.953125 610.691406 90.160156 609.503906 90.398438 C 608.316406 90.632812 607.132812 90.898438 605.960938 91.195312 C 604.785156 91.488281 603.617188 91.808594 602.460938 92.160156 C 601.300781 92.511719 600.152344 92.894531 599.011719 93.300781 C 597.871094 93.707031 596.738281 94.144531 595.621094 94.609375 C 594.503906 95.070312 593.394531 95.5625 592.300781 96.078125 C 591.207031 96.597656 590.125 97.140625 589.054688 97.710938 C 587.988281 98.28125 586.933594 98.878906 585.894531 99.5 C 584.855469 100.125 583.832031 100.769531 582.828125 101.441406 C 581.820312 102.117188 580.828125 102.8125 579.855469 103.535156 C 578.882812 104.253906 577.929688 105 576.992188 105.769531 C 576.058594 106.535156 575.140625 107.328125 574.242188 108.140625 C 573.347656 108.953125 572.46875 109.785156 571.613281 110.644531 C 570.757812 111.5 569.921875 112.375 569.109375 113.273438 C 568.292969 114.167969 567.503906 115.085938 566.734375 116.023438 C 565.96875 116.957031 565.222656 117.910156 564.5 118.882812 C 563.777344 119.855469 563.082031 120.847656 562.410156 121.851562 C 561.734375 122.859375 561.089844 123.882812 560.464844 124.921875 C 559.84375 125.957031 559.246094 127.011719 558.675781 128.078125 C 558.105469 129.148438 557.558594 130.226562 557.042969 131.324219 C 556.523438 132.417969 556.035156 133.523438 555.570312 134.640625 C 555.105469 135.761719 554.671875 136.890625 554.261719 138.027344 C 553.855469 139.167969 553.476562 140.316406 553.125 141.476562 C 552.773438 142.636719 552.449219 143.800781 552.15625 144.976562 C 551.859375 146.152344 551.59375 147.332031 551.359375 148.519531 C 551.121094 149.707031 550.914062 150.898438 550.738281 152.097656 C 550.558594 153.292969 550.414062 154.496094 550.292969 155.699219 C 550.175781 156.90625 550.085938 158.109375 550.027344 159.320312 C 549.96875 160.53125 549.9375 161.738281 549.9375 162.949219 C 549.9375 164.160156 549.96875 165.371094 550.027344 166.578125 C 550.085938 167.789062 550.175781 168.996094 550.292969 170.199219 C 550.414062 171.40625 550.558594 172.605469 550.738281 173.804688 C 550.914062 175 551.121094 176.195312 551.359375 177.382812 C 551.59375 178.570312 551.859375 179.75 552.15625 180.925781 C 552.449219 182.097656 552.773438 183.265625 553.125 184.421875 C 553.476562 185.582031 553.855469 186.730469 554.261719 187.871094 C 554.671875 189.011719 555.105469 190.140625 555.570312 191.257812 C 556.035156 192.378906 556.523438 193.484375 557.042969 194.578125 C 557.558594 195.671875 558.105469 196.753906 558.675781 197.820312 C 559.246094 198.890625 559.84375 199.941406 560.464844 200.980469 C 561.089844 202.019531 561.734375 203.042969 562.410156 204.046875 C 563.082031 205.054688 563.777344 206.042969 564.5 207.015625 C 565.222656 207.988281 565.96875 208.941406 566.734375 209.878906 C 567.503906 210.8125 568.292969 211.730469 569.109375 212.628906 C 569.921875 213.523438 570.757812 214.402344 571.613281 215.257812 C 572.46875 216.113281 573.347656 216.949219 574.242188 217.761719 C 575.140625 218.574219 576.058594 219.363281 576.992188 220.132812 C 577.929688 220.902344 578.882812 221.644531 579.855469 222.367188 C 580.828125 223.085938 581.820312 223.785156 582.828125 224.457031 C 583.832031 225.128906 584.855469 225.777344 585.894531 226.398438 C 586.933594 227.023438 587.988281 227.617188 589.054688 228.1875 C 590.125 228.761719 591.207031 229.304688 592.300781 229.820312 C 593.394531 230.339844 594.503906 230.828125 595.621094 231.292969 C 596.738281 231.757812 597.871094 232.191406 599.011719 232.601562 C 600.152344 233.007812 601.300781 233.386719 602.460938 233.738281 C 603.617188 234.089844 604.785156 234.414062 605.960938 234.707031 C 607.132812 235 608.316406 235.265625 609.503906 235.503906 C 610.691406 235.738281 611.886719 235.945312 613.082031 236.125 C 614.28125 236.300781 615.484375 236.449219 616.6875 236.566406 C 617.894531 236.6875 619.101562 236.773438 620.308594 236.835938 C 621.519531 236.894531 622.730469 236.925781 623.941406 236.925781 C 625.152344 236.925781 626.363281 236.894531 627.574219 236.835938 C 628.78125 236.773438 629.988281 236.6875 631.195312 236.566406 C 632.402344 236.449219 633.601562 236.300781 634.800781 236.125 C 636 235.945312 637.191406 235.738281 638.378906 235.503906 C 639.566406 235.265625 640.75 235 641.921875 234.707031 C 643.097656 234.414062 644.265625 234.089844 645.421875 233.738281 C 646.582031 233.386719 647.734375 233.007812 648.871094 232.601562 C 650.011719 232.191406 651.144531 231.757812 652.261719 231.292969 C 653.378906 230.828125 654.488281 230.339844 655.582031 229.820312 C 656.675781 229.304688 657.757812 228.761719 658.828125 228.1875 C 659.894531 227.617188 660.949219 227.023438 661.988281 226.398438 C 663.027344 225.777344 664.050781 225.128906 665.054688 224.457031 C 666.0625 223.785156 667.054688 223.085938 668.027344 222.367188 C 669 221.644531 669.953125 220.902344 670.890625 220.132812 C 671.824219 219.363281 672.742188 218.574219 673.640625 217.761719 C 674.539062 216.949219 675.414062 216.113281 676.269531 215.257812 C 677.125 214.402344 677.960938 213.523438 678.773438 212.628906 C 679.589844 211.730469 680.378906 210.8125 681.148438 209.878906 C 681.914062 208.941406 682.660156 207.988281 683.382812 207.015625 C 684.105469 206.042969 684.800781 205.054688 685.472656 204.046875 C 686.148438 203.042969 686.792969 202.019531 687.417969 200.980469 C 688.039062 199.941406 688.636719 198.890625 689.207031 197.820312 C 689.777344 196.753906 690.324219 195.671875 690.839844 194.578125 C 691.359375 193.484375 691.847656 192.378906 692.3125 191.257812 C 692.777344 190.140625 693.210938 189.011719 693.621094 187.871094 C 694.027344 186.730469 694.40625 185.582031 694.757812 184.421875 C 695.109375 183.265625 695.433594 182.097656 695.726562 180.925781 C 696.023438 179.75 696.289062 178.570312 696.523438 177.382812 C 696.761719 176.195312 696.96875 175 697.144531 173.804688 C 697.324219 172.605469 697.472656 171.40625 697.589844 170.199219 C 697.707031 168.996094 697.796875 167.789062 697.855469 166.578125 C 697.917969 165.371094 697.945312 164.160156 697.945312 162.949219 C 697.945312 161.738281 697.917969 160.53125 697.855469 159.320312 C 697.796875 158.109375 697.707031 156.90625 697.589844 155.699219 C 697.472656 154.496094 697.324219 153.292969 697.144531 152.097656 C 696.96875 150.898438 696.761719 149.707031 696.523438 148.519531 C 696.289062 147.332031 696.023438 146.152344 695.726562 144.976562 C 695.433594 143.800781 695.109375 142.636719 694.757812 141.476562 C 694.40625 140.316406 694.027344 139.167969 693.621094 138.027344 C 693.210938 136.890625 692.777344 135.761719 692.3125 134.640625 C 691.847656 133.523438 691.359375 132.417969 690.839844 131.324219 C 690.324219 130.226562 689.777344 129.148438 689.207031 128.078125 C 688.636719 127.011719 688.039062 125.957031 687.417969 124.921875 C 686.792969 123.882812 686.148438 122.859375 685.472656 121.851562 C 684.800781 120.847656 684.105469 119.855469 683.382812 118.882812 C 682.660156 117.910156 681.914062 116.957031 681.148438 116.023438 C 680.378906 115.085938 679.589844 114.167969 678.773438 113.273438 C 677.960938 112.375 677.125 111.5 676.269531 110.644531 C 675.414062 109.785156 674.539062 108.953125 673.640625 108.140625 C 672.742188 107.328125 671.824219 106.535156 670.890625 105.769531 C 669.953125 105 669 104.253906 668.027344 103.535156 C 667.054688 102.8125 666.0625 102.117188 665.054688 101.441406 C 664.050781 100.769531 663.027344 100.125 661.988281 99.5 C 660.949219 98.878906 659.894531 98.28125 658.828125 97.710938 C 657.757812 97.140625 656.675781 96.597656 655.582031 96.078125 C 654.488281 95.5625 653.378906 95.070312 652.261719 94.609375 C 651.144531 94.144531 650.011719 93.707031 648.871094 93.300781 C 647.734375 92.894531 646.582031 92.511719 645.421875 92.160156 C 644.265625 91.808594 643.097656 91.488281 641.921875 91.195312 C 640.75 90.898438 639.566406 90.632812 638.378906 90.398438 C 637.191406 90.160156 636 89.953125 634.800781 89.777344 C 633.601562 89.597656 632.402344 89.453125 631.195312 89.332031 C 629.988281 89.214844 628.78125 89.125 627.574219 89.066406 C 626.363281 89.007812 625.152344 88.976562 623.941406 88.976562 Z M 724.59375 157.695312 C 724.863281 159.445312 724.855469 161.203125 724.855469 162.949219 C 724.855469 181.78125 719.734375 199.269531 710.585938 214.332031 L 710.640625 214.359375 C 710.625 214.386719 710.613281 214.4375 710.585938 214.464844 L 738.835938 235.585938 L 696.527344 263.824219 L 569.804688 263.824219 L 520.871094 233.296875 L 539.03125 217.433594 C 528.941406 201.695312 523.027344 182.992188 523.027344 162.949219 C 523.027344 161.875 523.023438 160.796875 523.15625 159.71875 L 458.167969 216.617188 C 451.84375 222.265625 448.480469 230.605469 449.152344 239.078125 C 449.828125 247.550781 454.398438 255.203125 461.664062 259.777344 L 564.941406 324.292969 L 564.890625 324.898438 L 647.09375 486.007812 C 664.316406 519.363281 677.761719 532.820312 718.128906 532.820312 C 758.496094 532.820312 850.789062 470.824219 850.789062 470.824219 L 929.789062 549.894531 C 936.378906 556.484375 944.984375 559.71875 953.597656 559.71875 C 962.207031 559.71875 970.8125 556.484375 977.40625 549.894531 C 990.457031 536.710938 990.457031 515.472656 977.40625 502.292969 L 883.21875 408.144531 C 873.933594 398.863281 860.222656 395.90625 847.976562 400.34375 L 771.949219 425.21875 L 718.128906 316.414062 L 796.941406 261.511719 C 811.230469 253.644531 820.660156 229.503906 801.542969 215.410156 Z M 559.34375 373.3125 L 597.03125 574.140625 L 597.03125 707.664062 C 597.03125 715.101562 603.058594 721.113281 610.484375 721.113281 C 617.914062 721.113281 623.941406 715.101562 623.941406 707.664062 L 623.941406 586.617188 L 771.949219 586.617188 L 771.949219 707.664062 C 771.949219 715.101562 777.964844 721.113281 785.40625 721.113281 C 792.847656 721.113281 798.859375 715.101562 798.859375 707.664062 L 798.859375 573.167969 C 798.859375 565.730469 792.847656 559.71875 785.40625 559.71875 L 621.601562 559.71875 L 602.550781 457.898438 Z M 846.636719 504.84375 C 832.777344 513.046875 814.59375 523.269531 795.890625 532.820312 L 825.773438 532.820312 L 825.773438 687.492188 C 825.773438 706.050781 840.839844 721.113281 859.410156 721.113281 C 877.976562 721.113281 893.046875 706.050781 893.046875 687.492188 L 893.046875 551.234375 Z M 846.636719 504.84375 "/>
</g>
<g clip-path="url(#clip2)" clip-rule="nonzero">
<path style=" stroke:none;fill-rule:nonzero;fill:rgb(100%,51.759338%,0%);fill-opacity:1;" d="M 622.902344 89.113281 C 621.617188 89.113281 620.328125 89.148438 619.042969 89.210938 C 617.757812 89.273438 616.476562 89.367188 615.195312 89.492188 C 613.917969 89.621094 612.640625 89.777344 611.367188 89.964844 C 610.09375 90.15625 608.828125 90.375 607.566406 90.625 C 606.304688 90.875 605.050781 91.15625 603.800781 91.46875 C 602.554688 91.78125 601.3125 92.125 600.082031 92.5 C 598.851562 92.871094 597.628906 93.277344 596.417969 93.710938 C 595.207031 94.140625 594.007812 94.605469 592.820312 95.097656 C 591.628906 95.589844 590.453125 96.109375 589.292969 96.660156 C 588.128906 97.210938 586.980469 97.789062 585.84375 98.394531 C 584.710938 99 583.589844 99.636719 582.488281 100.296875 C 581.382812 100.957031 580.296875 101.644531 579.226562 102.359375 C 578.160156 103.074219 577.105469 103.816406 576.074219 104.582031 C 575.039062 105.347656 574.027344 106.140625 573.03125 106.953125 C 572.039062 107.769531 571.0625 108.609375 570.109375 109.472656 C 569.15625 110.339844 568.226562 111.226562 567.316406 112.132812 C 566.40625 113.042969 565.519531 113.976562 564.65625 114.929688 C 563.792969 115.882812 562.953125 116.855469 562.136719 117.847656 C 561.320312 118.84375 560.527344 119.855469 559.761719 120.890625 C 558.996094 121.921875 558.253906 122.972656 557.539062 124.042969 C 556.824219 125.113281 556.136719 126.199219 555.476562 127.304688 C 554.8125 128.40625 554.179688 129.523438 553.574219 130.660156 C 552.96875 131.792969 552.390625 132.941406 551.839844 134.105469 C 551.289062 135.269531 550.769531 136.441406 550.273438 137.632812 C 549.78125 138.820312 549.320312 140.019531 548.886719 141.230469 C 548.453125 142.441406 548.050781 143.664062 547.675781 144.894531 C 547.304688 146.125 546.960938 147.363281 546.648438 148.609375 C 546.335938 149.859375 546.054688 151.113281 545.800781 152.375 C 545.550781 153.636719 545.332031 154.902344 545.140625 156.175781 C 544.953125 157.449219 544.796875 158.722656 544.671875 160.003906 C 544.542969 161.285156 544.449219 162.566406 544.386719 163.851562 C 544.324219 165.136719 544.292969 166.421875 544.292969 167.707031 C 544.292969 168.992188 544.324219 170.28125 544.386719 171.5625 C 544.449219 172.847656 544.542969 174.132812 544.671875 175.410156 C 544.796875 176.691406 544.953125 177.96875 545.140625 179.238281 C 545.332031 180.511719 545.550781 181.777344 545.800781 183.039062 C 546.054688 184.300781 546.335938 185.554688 546.648438 186.804688 C 546.960938 188.050781 547.304688 189.292969 547.675781 190.523438 C 548.050781 191.753906 548.453125 192.972656 548.886719 194.183594 C 549.320312 195.394531 549.78125 196.59375 550.273438 197.785156 C 550.769531 198.972656 551.289062 200.148438 551.839844 201.308594 C 552.390625 202.472656 552.96875 203.621094 553.574219 204.757812 C 554.179688 205.890625 554.8125 207.007812 555.476562 208.113281 C 556.136719 209.214844 556.824219 210.300781 557.539062 211.371094 C 558.253906 212.441406 558.996094 213.492188 559.761719 214.527344 C 560.527344 215.558594 561.320312 216.574219 562.136719 217.566406 C 562.953125 218.5625 563.792969 219.535156 564.65625 220.488281 C 565.519531 221.441406 566.40625 222.371094 567.316406 223.28125 C 568.226562 224.191406 569.15625 225.078125 570.109375 225.941406 C 571.0625 226.804688 572.039062 227.644531 573.03125 228.460938 C 574.027344 229.277344 575.039062 230.066406 576.074219 230.835938 C 577.105469 231.601562 578.160156 232.339844 579.226562 233.054688 C 580.296875 233.769531 581.382812 234.457031 582.488281 235.117188 C 583.589844 235.78125 584.710938 236.414062 585.84375 237.019531 C 586.980469 237.625 588.128906 238.203125 589.292969 238.753906 C 590.453125 239.304688 591.628906 239.824219 592.820312 240.316406 C 594.007812 240.808594 595.207031 241.273438 596.417969 241.707031 C 597.628906 242.140625 598.851562 242.542969 600.082031 242.917969 C 601.3125 243.289062 602.554688 243.632812 603.800781 243.945312 C 605.050781 244.257812 606.304688 244.539062 607.566406 244.789062 C 608.828125 245.042969 610.09375 245.261719 611.367188 245.449219 C 612.640625 245.640625 613.917969 245.796875 615.195312 245.921875 C 616.476562 246.046875 617.757812 246.144531 619.042969 246.207031 C 620.328125 246.269531 621.617188 246.300781 622.902344 246.300781 C 624.1875 246.300781 625.472656 246.269531 626.757812 246.207031 C 628.042969 246.144531 629.328125 246.046875 630.605469 245.921875 C 631.886719 245.796875 633.164062 245.640625 634.4375 245.449219 C 635.710938 245.261719 636.976562 245.042969 638.238281 244.789062 C 639.5 244.539062 640.753906 244.257812 642.003906 243.945312 C 643.25 243.632812 644.488281 243.289062 645.722656 242.917969 C 646.953125 242.542969 648.171875 242.140625 649.386719 241.707031 C 650.597656 241.273438 651.796875 240.808594 652.984375 240.316406 C 654.171875 239.824219 655.347656 239.304688 656.511719 238.753906 C 657.675781 238.203125 658.824219 237.625 659.957031 237.019531 C 661.09375 236.414062 662.210938 235.78125 663.316406 235.117188 C 664.417969 234.457031 665.507812 233.769531 666.574219 233.054688 C 667.644531 232.339844 668.695312 231.601562 669.730469 230.835938 C 670.761719 230.066406 671.777344 229.277344 672.773438 228.460938 C 673.765625 227.644531 674.738281 226.804688 675.695312 225.941406 C 676.648438 225.078125 677.578125 224.191406 678.488281 223.28125 C 679.398438 222.371094 680.285156 221.441406 681.148438 220.488281 C 682.011719 219.535156 682.851562 218.5625 683.667969 217.566406 C 684.484375 216.574219 685.277344 215.558594 686.042969 214.527344 C 686.808594 213.492188 687.550781 212.441406 688.265625 211.371094 C 688.980469 210.300781 689.667969 209.214844 690.328125 208.113281 C 690.988281 207.007812 691.625 205.890625 692.230469 204.757812 C 692.835938 203.621094 693.414062 202.472656 693.964844 201.308594 C 694.515625 200.148438 695.035156 198.972656 695.527344 197.785156 C 696.019531 196.59375 696.484375 195.394531 696.917969 194.183594 C 697.351562 192.972656 697.753906 191.753906 698.128906 190.523438 C 698.5 189.292969 698.84375 188.050781 699.15625 186.804688 C 699.46875 185.554688 699.75 184.300781 700 183.039062 C 700.253906 181.777344 700.472656 180.511719 700.660156 179.238281 C 700.851562 177.96875 701.007812 176.691406 701.132812 175.410156 C 701.261719 174.132812 701.355469 172.847656 701.417969 171.5625 C 701.480469 170.28125 701.511719 168.992188 701.511719 167.707031 C 701.511719 166.421875 701.480469 165.136719 701.417969 163.851562 C 701.355469 162.566406 701.261719 161.285156 701.132812 160.003906 C 701.007812 158.722656 700.851562 157.449219 700.660156 156.175781 C 700.472656 154.902344 700.253906 153.636719 700 152.375 C 699.75 151.113281 699.46875 149.859375 699.15625 148.609375 C 698.84375 147.363281 698.5 146.125 698.128906 144.894531 C 697.753906 143.664062 697.351562 142.441406 696.917969 141.230469 C 696.484375 140.019531 696.019531 138.820312 695.527344 137.632812 C 695.035156 136.441406 694.515625 135.269531 693.964844 134.105469 C 693.414062 132.941406 692.835938 131.792969 692.230469 130.660156 C 691.625 129.523438 690.988281 128.40625 690.328125 127.304688 C 689.667969 126.199219 688.980469 125.113281 688.265625 124.042969 C 687.550781 122.972656 686.808594 121.921875 686.042969 120.890625 C 685.277344 119.855469 684.484375 118.84375 683.667969 117.847656 C 682.851562 116.855469 682.011719 115.882812 681.148438 114.929688 C 680.285156 113.976562 679.398438 113.042969 678.488281 112.132812 C 677.578125 111.226562 676.648438 110.339844 675.695312 109.472656 C 674.738281 108.609375 673.765625 107.769531 672.773438 106.953125 C 671.777344 106.140625 670.761719 105.347656 669.730469 104.582031 C 668.695312 103.816406 667.644531 103.074219 666.574219 102.359375 C 665.507812 101.644531 664.417969 100.957031 663.316406 100.296875 C 662.210938 99.636719 661.09375 99 659.957031 98.394531 C 658.824219 97.789062 657.675781 97.210938 656.511719 96.660156 C 655.347656 96.109375 654.171875 95.589844 652.984375 95.097656 C 651.796875 94.605469 650.597656 94.140625 649.386719 93.710938 C 648.171875 93.277344 646.953125 92.871094 645.722656 92.5 C 644.488281 92.125 643.25 91.78125 642.003906 91.46875 C 640.753906 91.15625 639.5 90.875 638.238281 90.625 C 636.976562 90.375 635.710938 90.15625 634.4375 89.964844 C 633.164062 89.777344 631.886719 89.621094 630.605469 89.492188 C 629.328125 89.367188 628.042969 89.273438 626.757812 89.210938 C 625.472656 89.148438 624.1875 89.113281 622.902344 89.113281 Z M 729.820312 162.125 C 730.105469 163.984375 730.097656 165.851562 730.097656 167.707031 C 730.097656 187.714844 724.660156 206.292969 714.941406 222.296875 L 714.996094 222.328125 C 714.980469 222.355469 714.96875 222.410156 714.941406 222.4375 L 744.949219 244.878906 L 700.003906 274.878906 L 565.394531 274.878906 L 513.417969 242.449219 L 532.707031 225.59375 C 521.988281 208.871094 515.707031 189 515.707031 167.707031 C 515.707031 166.566406 515.703125 165.417969 515.84375 164.273438 L 446.808594 224.726562 C 440.09375 230.726562 436.519531 239.585938 437.234375 248.589844 C 437.949219 257.589844 442.804688 265.722656 450.523438 270.582031 L 560.230469 339.128906 L 560.175781 339.769531 L 647.496094 510.9375 C 665.789062 546.375 680.074219 560.671875 722.953125 560.671875 C 765.828125 560.671875 863.871094 494.804688 863.871094 494.804688 L 947.785156 578.8125 C 954.789062 585.816406 963.929688 589.25 973.074219 589.25 C 982.222656 589.25 991.363281 585.816406 998.367188 578.8125 C 1012.230469 564.808594 1012.230469 542.246094 998.367188 528.242188 L 898.316406 428.214844 C 888.457031 418.355469 873.890625 415.210938 860.882812 419.925781 L 780.121094 446.355469 L 722.953125 330.753906 L 806.671875 272.425781 C 821.847656 264.0625 831.867188 238.417969 811.554688 223.441406 Z M 554.285156 391.207031 L 594.316406 604.574219 L 594.316406 746.4375 C 594.316406 754.339844 600.71875 760.726562 608.609375 760.726562 C 616.5 760.726562 622.902344 754.339844 622.902344 746.4375 L 622.902344 617.832031 L 780.121094 617.832031 L 780.121094 746.4375 C 780.121094 754.339844 786.511719 760.726562 794.414062 760.726562 C 802.320312 760.726562 808.707031 754.339844 808.707031 746.4375 L 808.707031 603.539062 C 808.707031 595.640625 802.320312 589.25 794.414062 589.25 L 620.417969 589.25 L 600.179688 481.074219 Z M 859.457031 530.949219 C 844.738281 539.664062 825.421875 550.527344 805.554688 560.671875 L 837.292969 560.671875 L 837.292969 725.003906 C 837.292969 744.722656 853.300781 760.726562 873.027344 760.726562 C 892.75 760.726562 908.757812 744.722656 908.757812 725.003906 L 908.757812 580.238281 Z M 859.457031 530.949219 "/>
</g>
</g>
</svg>
