<?xml version="1.0" encoding="UTF-8"?>
<svg xmlns="http://www.w3.org/2000/svg" xmlns:xlink="http://www.w3.org/1999/xlink" width="1440pt" height="809.999993pt" viewBox="0 0 1440 809.999993" version="1.2">
<defs>
<clipPath id="clip1">
  <path d="M 453.523438 94 L 983 94 L 983 716 L 453.523438 716 Z M 453.523438 94 "/>
</clipPath>
<clipPath id="clip2">
  <path d="M 538.59375 94 L 712.59375 94 L 712.59375 256.210938 L 538.59375 256.210938 Z M 538.59375 94 "/>
</clipPath>
</defs>
<g id="surface1">
<g clip-path="url(#clip1)" clip-rule="nonzero">
<path style=" stroke:none;fill-rule:nonzero;fill:rgb(0%,24.308777%,32.159424%);fill-opacity:1;" d="M 625.539062 94.222656 C 624.347656 94.222656 623.160156 94.25 621.96875 94.308594 C 620.78125 94.367188 619.59375 94.457031 618.40625 94.574219 C 617.222656 94.6875 616.039062 94.835938 614.863281 95.007812 C 613.683594 95.183594 612.511719 95.386719 611.34375 95.621094 C 610.175781 95.851562 609.011719 96.113281 607.855469 96.402344 C 606.703125 96.691406 605.554688 97.007812 604.414062 97.355469 C 603.273438 97.699219 602.144531 98.074219 601.023438 98.476562 C 599.902344 98.875 598.789062 99.304688 597.691406 99.761719 C 596.589844 100.214844 595.5 100.699219 594.425781 101.207031 C 593.347656 101.714844 592.285156 102.25 591.234375 102.8125 C 590.183594 103.375 589.148438 103.960938 588.125 104.574219 C 587.105469 105.183594 586.097656 105.820312 585.109375 106.484375 C 584.117188 107.144531 583.144531 107.832031 582.1875 108.539062 C 581.230469 109.25 580.292969 109.980469 579.371094 110.738281 C 578.449219 111.492188 577.550781 112.269531 576.667969 113.070312 C 575.785156 113.867188 574.921875 114.691406 574.078125 115.53125 C 573.238281 116.375 572.417969 117.234375 571.617188 118.117188 C 570.816406 119 570.039062 119.902344 569.285156 120.820312 C 568.527344 121.742188 567.796875 122.679688 567.085938 123.636719 C 566.375 124.59375 565.691406 125.566406 565.027344 126.558594 C 564.367188 127.546875 563.730469 128.550781 563.117188 129.574219 C 562.503906 130.59375 561.917969 131.628906 561.355469 132.679688 C 560.796875 133.730469 560.261719 134.792969 559.75 135.871094 C 559.242188 136.945312 558.757812 138.035156 558.304688 139.136719 C 557.847656 140.234375 557.417969 141.34375 557.019531 142.464844 C 556.617188 143.585938 556.242188 144.71875 555.898438 145.859375 C 555.550781 146.996094 555.234375 148.144531 554.945312 149.300781 C 554.65625 150.453125 554.394531 151.617188 554.164062 152.785156 C 553.929688 153.953125 553.726562 155.125 553.550781 156.300781 C 553.375 157.480469 553.230469 158.660156 553.113281 159.847656 C 552.996094 161.03125 552.910156 162.21875 552.851562 163.40625 C 552.792969 164.597656 552.765625 165.785156 552.765625 166.976562 C 552.765625 168.167969 552.792969 169.359375 552.851562 170.546875 C 552.910156 171.738281 552.996094 172.921875 553.113281 174.109375 C 553.230469 175.292969 553.375 176.476562 553.550781 177.652344 C 553.726562 178.832031 553.929688 180.003906 554.164062 181.171875 C 554.394531 182.339844 554.65625 183.5 554.945312 184.65625 C 555.234375 185.808594 555.550781 186.957031 555.898438 188.097656 C 556.242188 189.234375 556.617188 190.367188 557.019531 191.488281 C 557.417969 192.609375 557.847656 193.71875 558.304688 194.820312 C 558.757812 195.917969 559.242188 197.007812 559.75 198.082031 C 560.261719 199.160156 560.796875 200.222656 561.355469 201.273438 C 561.917969 202.324219 562.503906 203.359375 563.117188 204.378906 C 563.730469 205.402344 564.367188 206.40625 565.027344 207.398438 C 565.691406 208.386719 566.375 209.359375 567.085938 210.316406 C 567.796875 211.273438 568.527344 212.210938 569.285156 213.132812 C 570.039062 214.054688 570.816406 214.953125 571.617188 215.835938 C 572.417969 216.71875 573.238281 217.582031 574.078125 218.421875 C 574.921875 219.265625 575.785156 220.085938 576.667969 220.886719 C 577.550781 221.683594 578.449219 222.460938 579.371094 223.21875 C 580.292969 223.972656 581.230469 224.707031 582.1875 225.414062 C 583.144531 226.125 584.117188 226.808594 585.109375 227.46875 C 586.097656 228.132812 587.105469 228.769531 588.125 229.382812 C 589.148438 229.992188 590.183594 230.578125 591.234375 231.140625 C 592.285156 231.703125 593.347656 232.238281 594.425781 232.746094 C 595.5 233.257812 596.589844 233.738281 597.691406 234.195312 C 598.789062 234.648438 599.902344 235.078125 601.023438 235.480469 C 602.144531 235.878906 603.273438 236.253906 604.414062 236.597656 C 605.554688 236.945312 606.703125 237.261719 607.855469 237.550781 C 609.011719 237.839844 610.175781 238.101562 611.34375 238.335938 C 612.511719 238.566406 613.683594 238.769531 614.863281 238.945312 C 616.039062 239.121094 617.222656 239.265625 618.40625 239.382812 C 619.59375 239.5 620.78125 239.585938 621.96875 239.644531 C 623.160156 239.703125 624.347656 239.730469 625.539062 239.730469 C 626.730469 239.730469 627.921875 239.703125 629.109375 239.644531 C 630.300781 239.585938 631.488281 239.5 632.671875 239.382812 C 633.859375 239.265625 635.039062 239.121094 636.21875 238.945312 C 637.398438 238.769531 638.570312 238.566406 639.738281 238.335938 C 640.90625 238.101562 642.066406 237.839844 643.222656 237.550781 C 644.378906 237.261719 645.527344 236.945312 646.664062 236.597656 C 647.804688 236.253906 648.9375 235.878906 650.058594 235.480469 C 651.179688 235.078125 652.289062 234.648438 653.390625 234.195312 C 654.492188 233.738281 655.578125 233.257812 656.65625 232.746094 C 657.730469 232.238281 658.796875 231.703125 659.847656 231.140625 C 660.898438 230.578125 661.933594 229.992188 662.953125 229.382812 C 663.976562 228.769531 664.980469 228.132812 665.972656 227.46875 C 666.960938 226.808594 667.9375 226.125 668.894531 225.414062 C 669.847656 224.707031 670.789062 223.972656 671.707031 223.21875 C 672.628906 222.460938 673.53125 221.683594 674.414062 220.886719 C 675.296875 220.085938 676.160156 219.265625 677 218.421875 C 677.84375 217.582031 678.664062 216.71875 679.464844 215.835938 C 680.261719 214.953125 681.042969 214.054688 681.796875 213.132812 C 682.550781 212.210938 683.285156 211.273438 683.996094 210.316406 C 684.703125 209.359375 685.390625 208.386719 686.050781 207.398438 C 686.710938 206.40625 687.351562 205.402344 687.960938 204.378906 C 688.574219 203.359375 689.160156 202.324219 689.722656 201.273438 C 690.285156 200.222656 690.820312 199.160156 691.328125 198.082031 C 691.839844 197.007812 692.320312 195.917969 692.777344 194.820312 C 693.230469 193.71875 693.660156 192.609375 694.0625 191.488281 C 694.464844 190.367188 694.835938 189.234375 695.183594 188.097656 C 695.527344 186.957031 695.84375 185.808594 696.136719 184.65625 C 696.425781 183.5 696.683594 182.339844 696.917969 181.171875 C 697.148438 180.003906 697.355469 178.832031 697.527344 177.652344 C 697.703125 176.476562 697.847656 175.292969 697.964844 174.109375 C 698.082031 172.921875 698.171875 171.738281 698.226562 170.546875 C 698.285156 169.359375 698.316406 168.167969 698.316406 166.976562 C 698.316406 165.785156 698.285156 164.597656 698.226562 163.40625 C 698.171875 162.21875 698.082031 161.03125 697.964844 159.847656 C 697.847656 158.660156 697.703125 157.480469 697.527344 156.300781 C 697.355469 155.125 697.148438 153.953125 696.917969 152.785156 C 696.683594 151.617188 696.425781 150.453125 696.136719 149.300781 C 695.84375 148.144531 695.527344 146.996094 695.183594 145.859375 C 694.835938 144.71875 694.464844 143.585938 694.0625 142.464844 C 693.660156 141.34375 693.230469 140.234375 692.777344 139.136719 C 692.320312 138.035156 691.839844 136.945312 691.328125 135.871094 C 690.820312 134.792969 690.285156 133.730469 689.722656 132.679688 C 689.160156 131.628906 688.574219 130.59375 687.960938 129.574219 C 687.351562 128.550781 686.710938 127.546875 686.050781 126.558594 C 685.390625 125.566406 684.703125 124.59375 683.996094 123.636719 C 683.285156 122.679688 682.550781 121.742188 681.796875 120.820312 C 681.042969 119.902344 680.261719 119 679.464844 118.117188 C 678.664062 117.234375 677.84375 116.375 677 115.53125 C 676.160156 114.691406 675.296875 113.867188 674.414062 113.070312 C 673.53125 112.269531 672.628906 111.492188 671.707031 110.738281 C 670.789062 109.980469 669.847656 109.25 668.894531 108.539062 C 667.9375 107.832031 666.960938 107.144531 665.972656 106.484375 C 664.980469 105.820312 663.976562 105.183594 662.953125 104.574219 C 661.933594 103.960938 660.898438 103.375 659.847656 102.8125 C 658.796875 102.25 657.730469 101.714844 656.65625 101.207031 C 655.578125 100.699219 654.492188 100.214844 653.390625 99.761719 C 652.289062 99.304688 651.179688 98.875 650.058594 98.476562 C 648.9375 98.074219 647.804688 97.699219 646.664062 97.355469 C 645.527344 97.007812 644.378906 96.691406 643.222656 96.402344 C 642.066406 96.113281 640.90625 95.851562 639.738281 95.621094 C 638.570312 95.386719 637.398438 95.183594 636.21875 95.007812 C 635.039062 94.835938 633.859375 94.6875 632.671875 94.574219 C 631.488281 94.457031 630.300781 94.367188 629.109375 94.308594 C 627.921875 94.25 626.730469 94.222656 625.539062 94.222656 Z M 724.523438 161.808594 C 724.785156 163.53125 724.78125 165.257812 724.78125 166.976562 C 724.78125 185.496094 719.746094 202.699219 710.746094 217.511719 L 710.796875 217.539062 C 710.785156 217.566406 710.773438 217.617188 710.746094 217.640625 L 738.527344 238.414062 L 696.921875 266.1875 L 572.300781 266.1875 L 524.179688 236.167969 L 542.039062 220.5625 C 532.113281 205.085938 526.300781 186.6875 526.300781 166.976562 C 526.300781 165.917969 526.296875 164.859375 526.429688 163.800781 L 462.515625 219.761719 C 456.296875 225.316406 452.992188 233.515625 453.652344 241.851562 C 454.316406 250.183594 458.808594 257.710938 465.953125 262.210938 L 567.519531 325.664062 L 567.46875 326.257812 L 648.308594 484.710938 C 665.246094 517.515625 678.46875 530.75 718.164062 530.75 C 757.859375 530.75 848.625 469.777344 848.625 469.777344 L 926.308594 547.546875 C 932.792969 554.027344 941.253906 557.207031 949.722656 557.207031 C 958.191406 557.207031 966.65625 554.027344 973.136719 547.546875 C 985.972656 534.582031 985.972656 513.695312 973.136719 500.730469 L 880.515625 408.132812 C 871.382812 399.003906 857.898438 396.09375 845.859375 400.460938 L 771.09375 424.925781 L 718.164062 317.914062 L 795.667969 263.914062 C 809.722656 256.175781 818.996094 232.433594 800.191406 218.570312 Z M 562.015625 373.875 L 599.074219 571.390625 L 599.074219 702.71875 C 599.074219 710.03125 605.003906 715.945312 612.308594 715.945312 C 619.613281 715.945312 625.539062 710.03125 625.539062 702.71875 L 625.539062 583.664062 L 771.09375 583.664062 L 771.09375 702.71875 C 771.09375 710.03125 777.007812 715.945312 784.324219 715.945312 C 791.640625 715.945312 797.554688 710.03125 797.554688 702.71875 L 797.554688 570.4375 C 797.554688 563.121094 791.640625 557.207031 784.324219 557.207031 L 623.238281 557.207031 L 604.503906 457.066406 Z M 844.539062 503.234375 C 830.910156 511.304688 813.027344 521.359375 794.636719 530.75 L 824.019531 530.75 L 824.019531 682.875 C 824.019531 701.128906 838.839844 715.945312 857.101562 715.945312 C 875.359375 715.945312 890.179688 701.128906 890.179688 682.875 L 890.179688 548.863281 Z M 844.539062 503.234375 "/>
</g>
<g clip-path="url(#clip2)" clip-rule="nonzero">
<path style=" stroke:none;fill-rule:nonzero;fill:rgb(100%,51.759338%,0%);fill-opacity:1;" d="M 624.457031 94.359375 C 623.191406 94.359375 621.929688 94.390625 620.664062 94.453125 C 619.402344 94.515625 618.140625 94.609375 616.882812 94.734375 C 615.625 94.855469 614.367188 95.011719 613.117188 95.199219 C 611.867188 95.382812 610.621094 95.597656 609.378906 95.847656 C 608.140625 96.09375 606.90625 96.371094 605.679688 96.675781 C 604.453125 96.984375 603.234375 97.320312 602.023438 97.6875 C 600.8125 98.054688 599.613281 98.453125 598.421875 98.878906 C 597.230469 99.304688 596.050781 99.761719 594.882812 100.246094 C 593.714844 100.726562 592.558594 101.242188 591.414062 101.78125 C 590.273438 102.324219 589.140625 102.890625 588.027344 103.488281 C 586.910156 104.082031 585.8125 104.707031 584.726562 105.355469 C 583.640625 106.007812 582.574219 106.683594 581.523438 107.386719 C 580.46875 108.089844 579.4375 108.816406 578.421875 109.570312 C 577.40625 110.324219 576.410156 111.101562 575.429688 111.90625 C 574.453125 112.707031 573.496094 113.53125 572.558594 114.382812 C 571.621094 115.230469 570.707031 116.101562 569.8125 116.996094 C 568.917969 117.890625 568.046875 118.808594 567.195312 119.746094 C 566.347656 120.683594 565.519531 121.640625 564.71875 122.617188 C 563.917969 123.59375 563.136719 124.59375 562.386719 125.609375 C 561.632812 126.625 560.902344 127.65625 560.199219 128.710938 C 559.5 129.761719 558.820312 130.828125 558.171875 131.914062 C 557.519531 133 556.898438 134.097656 556.300781 135.214844 C 555.707031 136.332031 555.136719 137.460938 554.597656 138.601562 C 554.054688 139.746094 553.542969 140.902344 553.058594 142.070312 C 552.574219 143.238281 552.121094 144.417969 551.695312 145.609375 C 551.269531 146.800781 550.871094 148.003906 550.503906 149.210938 C 550.136719 150.421875 549.800781 151.640625 549.492188 152.867188 C 549.183594 154.09375 548.910156 155.328125 548.660156 156.570312 C 548.414062 157.808594 548.199219 159.054688 548.011719 160.308594 C 547.828125 161.558594 547.671875 162.8125 547.550781 164.070312 C 547.425781 165.332031 547.332031 166.59375 547.269531 167.855469 C 547.207031 169.117188 547.175781 170.382812 547.175781 171.648438 C 547.175781 172.914062 547.207031 174.175781 547.269531 175.441406 C 547.332031 176.703125 547.425781 177.964844 547.550781 179.222656 C 547.671875 180.480469 547.828125 181.738281 548.011719 182.988281 C 548.199219 184.238281 548.414062 185.484375 548.660156 186.726562 C 548.910156 187.964844 549.183594 189.199219 549.492188 190.425781 C 549.800781 191.652344 550.136719 192.871094 550.503906 194.082031 C 550.871094 195.292969 551.269531 196.492188 551.695312 197.683594 C 552.121094 198.875 552.574219 200.054688 553.058594 201.222656 C 553.542969 202.390625 554.054688 203.546875 554.597656 204.691406 C 555.136719 205.835938 555.707031 206.964844 556.300781 208.078125 C 556.898438 209.195312 557.519531 210.296875 558.171875 211.378906 C 558.820312 212.464844 559.5 213.535156 560.199219 214.585938 C 560.902344 215.636719 561.632812 216.671875 562.386719 217.6875 C 563.136719 218.703125 563.917969 219.699219 564.71875 220.675781 C 565.519531 221.65625 566.347656 222.613281 567.195312 223.550781 C 568.046875 224.488281 568.917969 225.402344 569.8125 226.296875 C 570.707031 227.191406 571.621094 228.0625 572.558594 228.914062 C 573.496094 229.761719 574.453125 230.589844 575.429688 231.390625 C 576.410156 232.191406 577.40625 232.972656 578.421875 233.722656 C 579.4375 234.476562 580.46875 235.207031 581.523438 235.910156 C 582.574219 236.609375 583.640625 237.289062 584.726562 237.9375 C 585.8125 238.589844 586.910156 239.210938 588.027344 239.808594 C 589.140625 240.402344 590.273438 240.972656 591.414062 241.511719 C 592.558594 242.054688 593.714844 242.566406 594.882812 243.050781 C 596.050781 243.535156 597.230469 243.988281 598.421875 244.414062 C 599.613281 244.84375 600.8125 245.238281 602.023438 245.605469 C 603.234375 245.972656 604.453125 246.308594 605.679688 246.617188 C 606.90625 246.925781 608.140625 247.203125 609.378906 247.449219 C 610.621094 247.695312 611.867188 247.910156 613.117188 248.097656 C 614.367188 248.28125 615.625 248.4375 616.882812 248.5625 C 618.140625 248.683594 619.402344 248.777344 620.664062 248.839844 C 621.929688 248.902344 623.191406 248.933594 624.457031 248.933594 C 625.722656 248.933594 626.984375 248.902344 628.25 248.839844 C 629.511719 248.777344 630.773438 248.683594 632.03125 248.5625 C 633.289062 248.4375 634.542969 248.28125 635.796875 248.097656 C 637.046875 247.910156 638.292969 247.695312 639.53125 247.449219 C 640.773438 247.203125 642.007812 246.925781 643.234375 246.617188 C 644.460938 246.308594 645.679688 245.972656 646.890625 245.605469 C 648.101562 245.238281 649.300781 244.84375 650.492188 244.414062 C 651.683594 243.988281 652.863281 243.535156 654.03125 243.050781 C 655.199219 242.566406 656.355469 242.054688 657.496094 241.511719 C 658.640625 240.972656 659.769531 240.402344 660.886719 239.808594 C 662 239.210938 663.101562 238.589844 664.1875 237.9375 C 665.269531 237.289062 666.339844 236.609375 667.390625 235.910156 C 668.441406 235.207031 669.476562 234.476562 670.492188 233.722656 C 671.507812 232.972656 672.503906 232.191406 673.480469 231.390625 C 674.460938 230.589844 675.417969 229.761719 676.355469 228.914062 C 677.292969 228.0625 678.207031 227.191406 679.101562 226.296875 C 679.996094 225.402344 680.867188 224.488281 681.71875 223.550781 C 682.566406 222.613281 683.390625 221.65625 684.195312 220.675781 C 684.996094 219.699219 685.773438 218.703125 686.527344 217.6875 C 687.28125 216.671875 688.007812 215.636719 688.710938 214.585938 C 689.414062 213.535156 690.089844 212.464844 690.742188 211.378906 C 691.390625 210.296875 692.015625 209.195312 692.609375 208.078125 C 693.207031 206.964844 693.777344 205.835938 694.316406 204.691406 C 694.859375 203.546875 695.371094 202.390625 695.855469 201.222656 C 696.335938 200.054688 696.792969 198.875 697.21875 197.683594 C 697.644531 196.492188 698.042969 195.292969 698.410156 194.082031 C 698.777344 192.871094 699.113281 191.652344 699.421875 190.425781 C 699.726562 189.199219 700.003906 187.964844 700.25 186.726562 C 700.5 185.484375 700.714844 184.238281 700.898438 182.988281 C 701.085938 181.738281 701.242188 180.480469 701.363281 179.222656 C 701.488281 177.964844 701.582031 176.703125 701.644531 175.441406 C 701.707031 174.175781 701.738281 172.914062 701.738281 171.648438 C 701.738281 170.382812 701.707031 169.117188 701.644531 167.855469 C 701.582031 166.59375 701.488281 165.332031 701.363281 164.070312 C 701.242188 162.8125 701.085938 161.558594 700.898438 160.308594 C 700.714844 159.054688 700.5 157.808594 700.25 156.570312 C 700.003906 155.328125 699.726562 154.09375 699.421875 152.867188 C 699.113281 151.640625 698.777344 150.421875 698.410156 149.210938 C 698.042969 148.003906 697.644531 146.800781 697.21875 145.609375 C 696.792969 144.417969 696.335938 143.238281 695.855469 142.070312 C 695.371094 140.902344 694.859375 139.746094 694.316406 138.601562 C 693.777344 137.460938 693.207031 136.332031 692.609375 135.214844 C 692.015625 134.097656 691.390625 133 690.742188 131.914062 C 690.089844 130.828125 689.414062 129.761719 688.710938 128.710938 C 688.007812 127.65625 687.28125 126.625 686.527344 125.609375 C 685.773438 124.59375 684.996094 123.59375 684.195312 122.617188 C 683.390625 121.640625 682.566406 120.683594 681.71875 119.746094 C 680.867188 118.808594 679.996094 117.890625 679.101562 116.996094 C 678.207031 116.101562 677.292969 115.230469 676.355469 114.382812 C 675.417969 113.53125 674.460938 112.707031 673.480469 111.90625 C 672.503906 111.101562 671.507812 110.324219 670.492188 109.570312 C 669.476562 108.816406 668.441406 108.089844 667.390625 107.386719 C 666.339844 106.683594 665.269531 106.007812 664.1875 105.355469 C 663.101562 104.707031 662 104.082031 660.886719 103.488281 C 659.769531 102.890625 658.640625 102.324219 657.496094 101.78125 C 656.355469 101.242188 655.199219 100.726562 654.03125 100.246094 C 652.863281 99.761719 651.683594 99.304688 650.492188 98.878906 C 649.300781 98.453125 648.101562 98.054688 646.890625 97.6875 C 645.679688 97.320312 644.460938 96.984375 643.234375 96.675781 C 642.007812 96.371094 640.773438 96.09375 639.53125 95.847656 C 638.292969 95.597656 637.046875 95.382812 635.796875 95.199219 C 634.542969 95.011719 633.289062 94.855469 632.03125 94.734375 C 630.773438 94.609375 629.511719 94.515625 628.25 94.453125 C 626.984375 94.390625 625.722656 94.359375 624.457031 94.359375 Z M 729.5625 166.160156 C 729.84375 167.984375 729.839844 169.820312 729.839844 171.648438 C 729.839844 191.320312 724.492188 209.59375 714.9375 225.332031 L 714.992188 225.359375 C 714.976562 225.386719 714.964844 225.441406 714.9375 225.46875 L 744.4375 247.535156 L 700.253906 277.039062 L 567.921875 277.039062 L 516.824219 245.144531 L 535.789062 228.570312 C 525.25 212.128906 519.074219 192.585938 519.074219 171.648438 C 519.074219 170.523438 519.070312 169.394531 519.210938 168.273438 L 451.34375 227.71875 C 444.742188 233.621094 441.230469 242.332031 441.933594 251.183594 C 442.636719 260.035156 447.40625 268.035156 454.996094 272.8125 L 562.847656 340.21875 L 562.792969 340.847656 L 648.632812 509.171875 C 666.617188 544.019531 680.660156 558.078125 722.8125 558.078125 C 764.964844 558.078125 861.34375 493.308594 861.34375 493.308594 L 943.839844 575.917969 C 950.722656 582.804688 959.710938 586.183594 968.703125 586.183594 C 977.695312 586.183594 986.679688 582.804688 993.566406 575.917969 C 1007.195312 562.148438 1007.195312 539.957031 993.566406 526.1875 L 895.210938 427.824219 C 885.515625 418.125 871.195312 415.035156 858.410156 419.671875 L 779.015625 445.660156 L 722.8125 331.984375 L 805.113281 274.621094 C 820.035156 266.402344 829.882812 241.183594 809.917969 226.457031 Z M 557 391.429688 L 596.355469 601.25 L 596.355469 740.753906 C 596.355469 748.527344 602.648438 754.808594 610.40625 754.808594 C 618.160156 754.808594 624.457031 748.527344 624.457031 740.753906 L 624.457031 614.285156 L 779.015625 614.285156 L 779.015625 740.753906 C 779.015625 748.527344 785.296875 754.808594 793.066406 754.808594 C 800.835938 754.808594 807.117188 748.527344 807.117188 740.753906 L 807.117188 600.234375 C 807.117188 592.464844 800.835938 586.183594 793.066406 586.183594 L 622.015625 586.183594 L 602.117188 479.804688 Z M 857.007812 528.847656 C 842.535156 537.421875 823.546875 548.101562 804.015625 558.078125 L 835.21875 558.078125 L 835.21875 719.675781 C 835.21875 739.070312 850.957031 754.808594 870.347656 754.808594 C 889.738281 754.808594 905.472656 739.070312 905.472656 719.675781 L 905.472656 577.316406 Z M 857.007812 528.847656 "/>
</g>
</g>
</svg>
