<svg id="Layer_1" data-name="Layer 1" xmlns="http://www.w3.org/2000/svg" viewBox="0 0 1236.2 715.4"><defs><style>.cls-1{fill:#fff;}.cls-2{fill:#d9d9d9;}.cls-3{isolation:isolate;font-size:62px;fill:#a3a4a5;font-family:Lato-MediumItalic, Lato;font-weight:500;font-style:italic;}.cls-4{letter-spacing:-0.01em;}.cls-5{letter-spacing:0em;}.cls-6{letter-spacing:-0.01em;}.cls-7{letter-spacing:-0.01em;}.cls-8{letter-spacing:-0.02em;}.cls-9{letter-spacing:-0.01em;}.cls-10{letter-spacing:-0.02em;}.cls-11{letter-spacing:0em;}.cls-12{letter-spacing:-0.01em;}.cls-13{letter-spacing:0em;}.cls-14{letter-spacing:-0.02em;}</style></defs><rect class="cls-1" width="1236.2" height="715.4"/><g id="surface1"><path class="cls-2" d="M765,206.9c-10.1-1-20.4-2.5-30.5-2.7-26.5-.7-52.5,4.4-78.6,8.4-9.4,1.5-13.9,5.6-18.1,13.7-14.4,27.7-30.2,54.7-45.4,82-1,1.9-2.2,4.2-1.9,6.1,1.5,8.6,3.5,17,5.5,26.2,2.5-2,4.5-3.4,6.4-4.8,10.9-8.1,24.5-6.4,31.3,3.9,5,7.4,4.4,15.8-1.7,22.3q-18.9,20.55-38.1,40.9c-6.1,6.5-16.6,7.7-24.6,3-7.5-4.4-11-13.1-8.3-22a34.26,34.26,0,0,1,5.6-10.7c4.5-6,9.7-11.4,14.3-17.3a8.36,8.36,0,0,0,1.8-5.8c-1.2-6.4-2.8-12.8-4.5-19.1a5.33,5.33,0,0,0-2.6-3.1c-4.4-1.8-9.3-2.7-13.4-5-8.8-4.8-17.2-10.2-25.8-15.4a52.77,52.77,0,0,0-7.5-3.8c-6.6-2.7-8.4-5.7-5.8-12.3,3-7.5,6.4-14.9,10.1-22.2A752.14,752.14,0,0,1,582,184.3a96.23,96.23,0,0,1,10.3-12.8c6.1-6.4,11.1-7.1,18.1-1.7,9.5,7.3,18.6,15.2,27.4,23.4,4.3,4,7.9,5.9,14.3,4.6,25.6-5.2,51.4-9.4,77.6-9.5,22-.1,43.7,2.2,63,14.6,4.8,3.1,9.7,1.1,13.1-3.3,10.6-13.7,21.4-27.3,32.6-40.6,4.5-5.4,8.4-5.2,13.8-.6q46.2,39.75,92.3,79.6c4.3,3.7,4.5,7.7.4,12.2-8,8.8-16.1,17.6-24.3,26.2-3.9,4.1-7.1,7.8-8.1,14.1-2.2,15-6.5,29.6-16.7,42.1,2.9,2.3,5.2,4.8,7.9,6.4,11.1,6.9,12.8,17.3,10,28.7-3.8,16-14,26.2-29.9,30.4-2.9.8-3.9,2.1-4.4,5.3-2.6,18-9.9,33.1-27.4,41.3-1.6.7-2.6,3.5-2.8,5.5-.8,9.7-2.9,18.8-9.4,26.5-5.6,6.6-12.8,10.7-21.5,11.1-4.2.2-5.5,2-6.4,5.6-4.3,16.2-22.2,30.1-38.8,29.3a31.93,31.93,0,0,1-16-5.7c-17.7-12.4-34.7-25.5-52.1-38.4a15.35,15.35,0,0,0-1.7-1c-3.4,3.7-6.7,7.6-10.3,11.2-10.1,10.2-26.2,7.5-32.5-5.5-2.9-6.1-2.8-11.9,2.1-17.4,12.1-13.8,24.3-27.4,35.7-41.7,7.3-9.1,19.8-8,26.1-3.2,8,6.1,10.5,18.1,4.8,26.4-3.3,4.9-7.7,9-11.6,13.5-1.2,1.4-2.4,2.7-4,4.5,5.1,4,9.7,7.9,14.5,11.5,12.8,9.3,25.7,18.3,38.5,27.6a12.78,12.78,0,0,0,12.9,1.5c8.6-3.3,15.8-8.1,18.6-17.7.8-2.8.4-4.9-1.8-6.6-16.4-13.3-32.8-26.4-49.3-39.6-3.5-2.7-7.1-5.2-6.7-10.4.4-4.5,3.3-7.2,7.6-6a31.12,31.12,0,0,1,10.8,5.3c14,11.1,27.6,22.5,41.4,33.9,1.4,1.1,2.5,2.2,3.9,3.3,10.5,8.4,24.8,3.6,28.3-9.5.3-1.2.6-2.4.8-3.6,1.7-7.5.6-13.5-6.4-18.6-15.5-11.4-30.3-23.6-45.3-35.7-2.1-1.8-4.6-3.9-5.3-6.3s-.3-6.3,1.4-8,5.3-1.6,8-1.5c1.7.1,3.2,1.8,4.7,2.9,15.6,12.5,31.2,25.1,46.8,37.6,8,6.4,11.3,6.1,17.9-1.9,5.5-6.6,9.5-14.1,9.6-22.8a10.16,10.16,0,0,0-3-6.8c-13.7-11.7-27.5-23.1-41.2-34.8a35.58,35.58,0,0,1-7.1-7.9,5.87,5.87,0,0,1,1.4-8.4c2.1-1.4,5.8-2.1,8.1-1.3,3.4,1.3,6.3,3.9,9.2,6.3,12.5,10.6,25,21.4,37.2,32.3,4.5,4,9,5.2,14,2.1,4.2-2.6,8.7-5.3,11.7-9,7.3-8.8,6.1-17-2.3-24.4q-51.45-45.3-103-90.2a11.46,11.46,0,0,0-8.4-2.4c-15,1.9-30.1,4.1-44.9,6.7-4.8.9-9.4,3.3-14.1,5.2-14,5.7-26.7,3.1-38.4-5.5-7.9-5.8-8.8-13.5-1.8-20.4,6.5-6.4,14.5-11.4,21.2-17.8,8.9-8.5,19.5-11.6,31.4-12.5,10.2-.8,20.4-2.6,30.6-4A2.53,2.53,0,0,1,765,206.9ZM603.2,182.3c-26,34.6-45,71.8-63.6,109.4,11.6,6.7,22.4,13.1,33.7,19.6,17.4-31.6,34.4-62.6,51.4-93.7,1.8-3.2,5.4-6.9,4.8-9.8-.6-3.1-5-5.6-7.8-8.2C616,194.1,610,188.6,603.2,182.3Zm325.9,62.5c-3.3-2.7-6.2-5.1-9-7.5-12.1-10.8-24-21.9-36.4-32.5-11.2-9.7-22.9-18.9-34.4-28.2-1.1-.9-3.9-1.3-4.5-.7-7.8,9.1-15.4,18.3-23.3,27.8,27.6,22.8,54.9,45.5,82.6,68.3C912.5,263,920.7,254.1,929.1,244.8Z" transform="translate(-101.8 -47.21)"/><path class="cls-2" d="M682.5,390.9c10.2,0,18.6,7.4,18.8,17.4a16.64,16.64,0,0,1-3.2,9.8c-14.4,17.3-29.2,34.3-43.8,51.3-8.4,9.8-18.7,11.4-27.5,4.6-9.3-7.3-10.8-19.7-2.8-29.5,10.2-12.4,21.2-24.2,31.8-36.3,2.9-3.3,5.8-6.6,8.8-9.8C670.2,392.8,674.7,390.9,682.5,390.9Z" transform="translate(-101.8 -47.21)"/><path class="cls-2" d="M609.6,447.5c-15.9-1.1-25.3-17.2-17.3-31.3,4.6-8.2,11-15.5,17.3-22.6,8-9.2,16.5-18,24.9-26.8,5.6-5.9,16.3-7.5,23.4-3.7,7.3,3.9,11.7,13.5,9.5,21.6a17,17,0,0,1-3.2,5.7c-15.5,17.8-31,35.5-46.7,53.1C615.4,445.4,612.2,446.1,609.6,447.5Z" transform="translate(-101.8 -47.21)"/></g><text class="cls-3" transform="translate(265.94 614.58)"><tspan class="cls-4">B</tspan><tspan class="cls-5" x="37.08" y="0">e</tspan><tspan class="cls-6" x="66.74" y="0">c</tspan><tspan x="94.27" y="0">ome a </tspan><tspan class="cls-7" x="265.54" y="0">C</tspan><tspan class="cls-8" x="303.83" y="0">r</tspan><tspan class="cls-4" x="324.16" y="0">o</tspan><tspan x="355.97" y="0">wns</tspan><tspan class="cls-9" x="458.92" y="0">t</tspan><tspan x="480.4" y="0">one </tspan><tspan class="cls-10" x="589.71" y="0">r</tspan><tspan class="cls-11" x="610.04" y="0">e</tspan><tspan class="cls-12" x="639.62" y="0">t</tspan><tspan class="cls-13" x="661.19" y="0">aile</tspan><tspan class="cls-14" x="751.49" y="0">r</tspan></text></svg>