<?xml version="1.0" encoding="UTF-8"?>
<svg xmlns="http://www.w3.org/2000/svg" xmlns:xlink="http://www.w3.org/1999/xlink" width="1440pt" height="809.999993pt" viewBox="0 0 1440 809.999993" version="1.2">
<defs>
<clipPath id="clip1">
  <path d="M 753 88.253906 L 889 88.253906 L 889 138 L 753 138 Z M 753 88.253906 "/>
</clipPath>
<clipPath id="clip2">
  <path d="M 556 192 L 1086 192 L 1086 722.003906 L 556 722.003906 Z M 556 192 "/>
</clipPath>
</defs>
<g id="surface1">
<rect x="0" y="0" width="1440" height="809.999993" style="fill:rgb(100%,100%,100%);fill-opacity:1;stroke:none;"/>
<rect x="0" y="0" width="1440" height="809.999993" style="fill:rgb(100%,100%,100%);fill-opacity:1;stroke:none;"/>
<rect x="0" y="0" width="1440" height="809.999993" style="fill:rgb(100%,100%,100%);fill-opacity:1;stroke:none;"/>
<path style=" stroke:none;fill-rule:nonzero;fill:rgb(0%,24.308777%,32.159424%);fill-opacity:1;" d="M 806.761719 126.890625 L 835.175781 126.890625 L 835.175781 203.757812 L 806.761719 203.757812 Z M 806.761719 126.890625 "/>
<path style=" stroke:none;fill-rule:nonzero;fill:rgb(0%,24.308777%,32.159424%);fill-opacity:1;" d="M 835.179688 214.675781 L 806.765625 214.675781 C 800.734375 214.675781 795.851562 209.789062 795.851562 203.757812 L 795.851562 126.890625 C 795.851562 120.859375 800.734375 115.972656 806.765625 115.972656 L 835.179688 115.972656 C 841.207031 115.972656 846.09375 120.859375 846.09375 126.890625 L 846.09375 203.757812 C 846.09375 209.789062 841.207031 214.675781 835.179688 214.675781 Z M 817.675781 192.839844 L 824.261719 192.839844 L 824.261719 137.808594 L 817.675781 137.808594 Z M 817.675781 192.839844 "/>
<path style=" stroke:none;fill-rule:nonzero;fill:rgb(0%,24.308777%,32.159424%);fill-opacity:1;" d="M 877.660156 113.109375 C 877.660156 120.722656 866.75 126.890625 853.273438 126.890625 L 788.660156 126.890625 C 775.1875 126.890625 764.28125 120.722656 764.28125 113.109375 C 764.28125 105.503906 775.1875 99.335938 788.660156 99.335938 L 853.273438 99.335938 C 866.75 99.335938 877.660156 105.503906 877.660156 113.109375 Z M 877.660156 113.109375 "/>
<g clip-path="url(#clip1)" clip-rule="nonzero">
<path style=" stroke:none;fill-rule:nonzero;fill:rgb(0%,24.308777%,32.159424%);fill-opacity:1;" d="M 853.273438 137.808594 L 788.660156 137.808594 C 768.542969 137.808594 753.363281 127.191406 753.363281 113.109375 C 753.363281 99.035156 768.542969 88.417969 788.660156 88.417969 L 853.273438 88.417969 C 873.394531 88.417969 888.570312 99.035156 888.570312 113.109375 C 888.574219 127.191406 873.398438 137.808594 853.273438 137.808594 Z M 776.386719 113.109375 C 778.464844 114.382812 782.605469 115.96875 788.664062 115.96875 L 853.277344 115.96875 C 859.332031 115.96875 863.476562 114.378906 865.558594 113.109375 C 863.476562 111.839844 859.332031 110.253906 853.277344 110.253906 L 788.664062 110.253906 C 782.609375 110.253906 778.464844 111.84375 776.386719 113.109375 Z M 776.386719 113.109375 "/>
</g>
<path style=" stroke:none;fill-rule:nonzero;fill:rgb(0%,24.308777%,32.159424%);fill-opacity:1;" d="M 1040.441406 207.742188 L 1060.832031 227.554688 L 1007.296875 282.6875 L 986.90625 262.875 Z M 1040.441406 207.742188 "/>
<path style=" stroke:none;fill-rule:nonzero;fill:rgb(0%,24.308777%,32.159424%);fill-opacity:1;" d="M 1007.324219 293.558594 C 1004.582031 293.558594 1001.839844 292.53125 999.71875 290.46875 L 979.328125 270.65625 C 977.25 268.640625 976.058594 265.878906 976.019531 262.984375 C 975.972656 260.085938 977.082031 257.292969 979.105469 255.21875 L 1032.644531 200.089844 C 1036.84375 195.761719 1043.753906 195.664062 1048.078125 199.867188 L 1068.464844 219.671875 C 1070.542969 221.691406 1071.734375 224.453125 1071.773438 227.347656 C 1071.816406 230.242188 1070.707031 233.035156 1068.6875 235.113281 L 1015.152344 290.246094 C 1013.011719 292.453125 1010.167969 293.558594 1007.324219 293.558594 Z M 1002.367188 262.605469 L 1007.09375 267.199219 L 1045.421875 227.726562 L 1040.691406 223.132812 Z M 1002.367188 262.605469 "/>
<path style=" stroke:none;fill-rule:nonzero;fill:rgb(0%,24.308777%,32.159424%);fill-opacity:1;" d="M 1100.929688 247.234375 C 1095.628906 252.691406 1083.503906 249.507812 1073.835938 240.117188 L 1027.492188 195.078125 C 1017.828125 185.683594 1014.296875 173.65625 1019.601562 168.199219 C 1024.898438 162.742188 1037.019531 165.925781 1046.6875 175.316406 L 1093.027344 220.351562 C 1102.699219 229.75 1106.226562 241.777344 1100.929688 247.234375 Z M 1100.929688 247.234375 "/>
<path style=" stroke:none;fill-rule:nonzero;fill:rgb(0%,24.308777%,32.159424%);fill-opacity:1;" d="M 1093.753906 260.820312 C 1084.816406 260.820312 1074.527344 256.007812 1066.234375 247.949219 L 1019.890625 202.910156 C 1013.890625 197.078125 1009.476562 190.089844 1007.460938 183.238281 C 1004.851562 174.351562 1006.421875 166.09375 1011.769531 160.585938 C 1015.570312 156.675781 1020.761719 154.609375 1026.777344 154.609375 C 1035.710938 154.609375 1045.996094 159.421875 1054.292969 167.480469 L 1100.636719 212.519531 C 1115.070312 226.542969 1118.5625 244.738281 1108.765625 254.835938 C 1104.960938 258.753906 1099.773438 260.820312 1093.753906 260.820312 Z M 1028.28125 176.632812 C 1028.886719 178.992188 1030.75 183.023438 1035.097656 187.246094 L 1081.441406 232.289062 C 1085.378906 236.113281 1089.472656 238.207031 1092.242188 238.804688 C 1091.632812 236.441406 1089.769531 232.414062 1085.417969 228.1875 L 1039.078125 183.152344 C 1035.144531 179.324219 1031.046875 177.230469 1028.28125 176.632812 Z M 1028.28125 176.632812 "/>
<path style=" stroke:none;fill-rule:nonzero;fill:rgb(0%,24.308777%,32.159424%);fill-opacity:1;" d="M 820.96875 676.800781 C 700.121094 676.800781 601.808594 578.449219 601.808594 457.554688 C 601.808594 336.660156 700.121094 238.3125 820.96875 238.3125 C 941.816406 238.3125 1040.132812 336.660156 1040.132812 457.554688 C 1040.132812 578.449219 941.816406 676.800781 820.96875 676.800781 Z M 820.96875 260.152344 C 712.164062 260.152344 623.636719 348.707031 623.636719 457.558594 C 623.636719 566.410156 712.160156 654.964844 820.96875 654.964844 C 929.777344 654.964844 1018.304688 566.410156 1018.304688 457.558594 C 1018.304688 348.707031 929.777344 260.152344 820.96875 260.152344 Z M 820.96875 260.152344 "/>
<g clip-path="url(#clip2)" clip-rule="nonzero">
<path style=" stroke:none;fill-rule:nonzero;fill:rgb(100%,51.759338%,0%);fill-opacity:1;" d="M 820.96875 722.28125 C 675.054688 722.28125 556.347656 603.527344 556.347656 457.558594 C 556.347656 311.589844 675.054688 192.839844 820.96875 192.839844 C 966.882812 192.839844 1085.597656 311.589844 1085.597656 457.558594 C 1085.597656 603.527344 966.882812 722.28125 820.96875 722.28125 Z M 820.96875 214.675781 C 687.09375 214.675781 578.179688 323.632812 578.179688 457.558594 C 578.179688 591.484375 687.09375 700.441406 820.96875 700.441406 C 954.847656 700.441406 1063.765625 591.484375 1063.765625 457.558594 C 1063.765625 323.632812 954.847656 214.675781 820.96875 214.675781 Z M 820.96875 214.675781 "/>
</g>
<path style=" stroke:none;fill-rule:nonzero;fill:rgb(100%,51.759338%,0%);fill-opacity:1;" d="M 830.886719 468.476562 L 705.765625 468.476562 C 699.738281 468.476562 694.851562 463.589844 694.851562 457.558594 C 694.851562 451.527344 699.738281 446.640625 705.765625 446.640625 L 819.972656 446.640625 L 819.972656 318.851562 C 819.972656 312.820312 824.859375 307.929688 830.886719 307.929688 C 836.917969 307.929688 841.804688 312.820312 841.804688 318.851562 L 841.804688 457.558594 C 841.804688 463.589844 836.917969 468.476562 830.886719 468.476562 Z M 830.886719 468.476562 "/>
<path style=" stroke:none;fill-rule:nonzero;fill:rgb(0%,24.308777%,32.159424%);fill-opacity:1;" d="M 819.074219 642.839844 C 706.957031 642.839844 661.738281 554.664062 661.257812 553.695312 C 658.574219 548.296875 660.773438 541.742188 666.171875 539.054688 C 671.566406 536.375 678.097656 538.566406 680.792969 543.949219 C 682.675781 547.683594 728.28125 635.328125 847.457031 619.015625 C 853.4375 618.207031 858.933594 622.378906 859.75 628.351562 C 860.566406 634.328125 856.386719 639.835938 850.417969 640.652344 C 839.441406 642.144531 828.984375 642.839844 819.074219 642.839844 Z M 819.074219 642.839844 "/>
<path style=" stroke:none;fill-rule:nonzero;fill:rgb(0%,24.308777%,32.159424%);fill-opacity:1;" d="M 553.652344 346.449219 L 391.835938 346.449219 C 385.808594 346.449219 380.921875 341.5625 380.921875 335.53125 C 380.921875 329.5 385.808594 324.613281 391.835938 324.613281 L 553.652344 324.613281 C 559.679688 324.613281 564.566406 329.5 564.566406 335.53125 C 564.566406 341.5625 559.679688 346.449219 553.652344 346.449219 Z M 553.652344 346.449219 "/>
<path style=" stroke:none;fill-rule:nonzero;fill:rgb(0%,24.308777%,32.159424%);fill-opacity:1;" d="M 553.652344 606.121094 L 391.835938 606.121094 C 385.808594 606.121094 380.921875 601.234375 380.921875 595.203125 C 380.921875 589.171875 385.808594 584.28125 391.835938 584.28125 L 553.652344 584.28125 C 559.679688 584.28125 564.566406 589.171875 564.566406 595.203125 C 564.566406 601.234375 559.679688 606.121094 553.652344 606.121094 Z M 553.652344 606.121094 "/>
<path style=" stroke:none;fill-rule:nonzero;fill:rgb(0%,24.308777%,32.159424%);fill-opacity:1;" d="M 521.890625 409.175781 L 360.078125 409.175781 C 354.050781 409.175781 349.164062 404.285156 349.164062 398.253906 C 349.164062 392.222656 354.050781 387.335938 360.078125 387.335938 L 521.890625 387.335938 C 527.921875 387.335938 532.808594 392.222656 532.808594 398.253906 C 532.808594 404.285156 527.921875 409.175781 521.890625 409.175781 Z M 521.890625 409.175781 "/>
<path style=" stroke:none;fill-rule:nonzero;fill:rgb(0%,24.308777%,32.159424%);fill-opacity:1;" d="M 518.539062 543.398438 L 339.636719 543.398438 C 333.609375 543.398438 328.722656 538.507812 328.722656 532.476562 C 328.722656 526.445312 333.609375 521.558594 339.636719 521.558594 L 518.539062 521.558594 C 524.570312 521.558594 529.453125 526.445312 529.453125 532.476562 C 529.453125 538.507812 524.570312 543.398438 518.539062 543.398438 Z M 518.539062 543.398438 "/>
<path style=" stroke:none;fill-rule:nonzero;fill:rgb(0%,24.308777%,32.159424%);fill-opacity:1;" d="M 504.503906 474.539062 L 332.710938 474.539062 C 326.683594 474.539062 321.796875 469.652344 321.796875 463.621094 C 321.796875 457.589844 326.683594 452.703125 332.710938 452.703125 L 504.503906 452.703125 C 510.53125 452.703125 515.417969 457.589844 515.417969 463.621094 C 515.417969 469.652344 510.53125 474.539062 504.503906 474.539062 Z M 504.503906 474.539062 "/>
</g>
</svg>
