<?xml version="1.0" encoding="UTF-8"?>
<svg xmlns="http://www.w3.org/2000/svg" xmlns:xlink="http://www.w3.org/1999/xlink" width="1440pt" height="809.999993pt" viewBox="0 0 1440 809.999993" version="1.2">
<defs>
<clipPath id="clip1">
  <path d="M 720 93.046875 L 854 93.046875 L 854 142 L 720 142 Z M 720 93.046875 "/>
</clipPath>
<clipPath id="clip2">
  <path d="M 526 196 L 1048 196 L 1048 717.046875 L 526 717.046875 Z M 526 196 "/>
</clipPath>
</defs>
<g id="surface1">
<path style=" stroke:none;fill-rule:nonzero;fill:rgb(0%,24.308777%,32.159424%);fill-opacity:1;" d="M 772.9375 131.089844 L 800.925781 131.089844 L 800.925781 206.773438 L 772.9375 206.773438 Z M 772.9375 131.089844 "/>
<path style=" stroke:none;fill-rule:nonzero;fill:rgb(0%,24.308777%,32.159424%);fill-opacity:1;" d="M 800.929688 217.527344 L 772.941406 217.527344 C 767.003906 217.527344 762.191406 212.714844 762.191406 206.773438 L 762.191406 131.089844 C 762.191406 125.152344 767.003906 120.339844 772.941406 120.339844 L 800.929688 120.339844 C 806.871094 120.339844 811.683594 125.152344 811.683594 131.089844 L 811.683594 206.773438 C 811.683594 212.714844 806.871094 217.527344 800.929688 217.527344 Z M 783.691406 196.023438 L 790.175781 196.023438 L 790.175781 141.84375 L 783.691406 141.84375 Z M 783.691406 196.023438 "/>
<path style=" stroke:none;fill-rule:nonzero;fill:rgb(0%,24.308777%,32.159424%);fill-opacity:1;" d="M 842.777344 117.523438 C 842.777344 125.019531 832.027344 131.089844 818.753906 131.089844 L 755.109375 131.089844 C 741.835938 131.089844 731.09375 125.019531 731.09375 117.523438 C 731.09375 110.03125 741.835938 103.960938 755.109375 103.960938 L 818.753906 103.960938 C 832.027344 103.960938 842.777344 110.03125 842.777344 117.523438 Z M 842.777344 117.523438 "/>
<g clip-path="url(#clip1)" clip-rule="nonzero">
<path style=" stroke:none;fill-rule:nonzero;fill:rgb(0%,24.308777%,32.159424%);fill-opacity:1;" d="M 818.753906 141.84375 L 755.109375 141.84375 C 735.289062 141.84375 720.339844 131.386719 720.339844 117.523438 C 720.339844 103.664062 735.289062 93.207031 755.109375 93.207031 L 818.753906 93.207031 C 838.574219 93.207031 853.523438 103.664062 853.523438 117.523438 C 853.527344 131.386719 838.578125 141.84375 818.753906 141.84375 Z M 743.019531 117.523438 C 745.066406 118.773438 749.140625 120.335938 755.113281 120.335938 L 818.757812 120.335938 C 824.722656 120.335938 828.804688 118.769531 830.855469 117.523438 C 828.804688 116.269531 824.722656 114.710938 818.757812 114.710938 L 755.113281 114.710938 C 749.148438 114.710938 745.066406 116.277344 743.019531 117.523438 Z M 743.019531 117.523438 "/>
</g>
<path style=" stroke:none;fill-rule:nonzero;fill:rgb(0%,24.308777%,32.159424%);fill-opacity:1;" d="M 1003.121094 210.695312 L 1023.203125 230.207031 L 970.472656 284.492188 L 950.386719 264.980469 Z M 1003.121094 210.695312 "/>
<path style=" stroke:none;fill-rule:nonzero;fill:rgb(0%,24.308777%,32.159424%);fill-opacity:1;" d="M 970.496094 295.191406 C 967.796875 295.191406 965.09375 294.183594 963.003906 292.152344 L 942.921875 272.644531 C 940.875 270.660156 939.699219 267.941406 939.660156 265.089844 C 939.617188 262.238281 940.710938 259.484375 942.703125 257.445312 L 995.441406 203.164062 C 999.578125 198.902344 1006.382812 198.804688 1010.644531 202.945312 L 1030.722656 222.445312 C 1032.769531 224.433594 1033.945312 227.152344 1033.984375 230.003906 C 1034.027344 232.851562 1032.933594 235.601562 1030.941406 237.648438 L 978.207031 291.933594 C 976.101562 294.105469 973.300781 295.191406 970.496094 295.191406 Z M 965.617188 264.714844 L 970.273438 269.238281 L 1008.023438 230.375 L 1003.367188 225.851562 Z M 965.617188 264.714844 "/>
<path style=" stroke:none;fill-rule:nonzero;fill:rgb(0%,24.308777%,32.159424%);fill-opacity:1;" d="M 1062.703125 249.582031 C 1057.480469 254.957031 1045.539062 251.824219 1036.011719 242.578125 L 990.367188 198.230469 C 980.84375 188.980469 977.363281 177.136719 982.589844 171.765625 C 987.8125 166.390625 999.75 169.523438 1009.273438 178.769531 L 1054.917969 223.113281 C 1064.445312 232.367188 1067.917969 244.210938 1062.703125 249.582031 Z M 1062.703125 249.582031 "/>
<path style=" stroke:none;fill-rule:nonzero;fill:rgb(0%,24.308777%,32.159424%);fill-opacity:1;" d="M 1055.632812 262.960938 C 1046.828125 262.960938 1036.695312 258.222656 1028.527344 250.289062 L 982.878906 205.941406 C 976.964844 200.199219 972.617188 193.320312 970.632812 186.570312 C 968.0625 177.820312 969.609375 169.691406 974.878906 164.269531 C 978.621094 160.414062 983.734375 158.382812 989.660156 158.382812 C 998.460938 158.382812 1008.59375 163.121094 1016.761719 171.054688 L 1062.414062 215.402344 C 1076.632812 229.210938 1080.074219 247.125 1070.421875 257.070312 C 1066.671875 260.925781 1061.5625 262.960938 1055.632812 262.960938 Z M 991.140625 180.070312 C 991.738281 182.390625 993.574219 186.359375 997.859375 190.519531 L 1043.503906 234.867188 C 1047.382812 238.632812 1051.417969 240.691406 1054.144531 241.28125 C 1053.546875 238.957031 1051.710938 234.992188 1047.421875 230.828125 L 1001.777344 186.484375 C 997.902344 182.71875 993.867188 180.652344 991.140625 180.070312 Z M 991.140625 180.070312 "/>
<path style=" stroke:none;fill-rule:nonzero;fill:rgb(0%,24.308777%,32.159424%);fill-opacity:1;" d="M 786.933594 672.539062 C 667.894531 672.539062 571.050781 575.699219 571.050781 456.667969 C 571.050781 337.632812 667.894531 240.796875 786.933594 240.796875 C 905.96875 240.796875 1002.816406 337.632812 1002.816406 456.667969 C 1002.816406 575.699219 905.96875 672.539062 786.933594 672.539062 Z M 786.933594 262.304688 C 679.753906 262.304688 592.554688 349.496094 592.554688 456.671875 C 592.554688 563.847656 679.75 651.039062 786.933594 651.039062 C 894.113281 651.039062 981.3125 563.847656 981.3125 456.671875 C 981.3125 349.496094 894.113281 262.304688 786.933594 262.304688 Z M 786.933594 262.304688 "/>
<g clip-path="url(#clip2)" clip-rule="nonzero">
<path style=" stroke:none;fill-rule:nonzero;fill:rgb(100%,51.759338%,0%);fill-opacity:1;" d="M 786.933594 717.320312 C 643.203125 717.320312 526.273438 600.394531 526.273438 456.671875 C 526.273438 312.949219 643.203125 196.023438 786.933594 196.023438 C 930.664062 196.023438 1047.597656 312.949219 1047.597656 456.671875 C 1047.597656 600.394531 930.664062 717.320312 786.933594 717.320312 Z M 786.933594 217.527344 C 655.0625 217.527344 547.777344 324.804688 547.777344 456.671875 C 547.777344 588.539062 655.0625 695.816406 786.933594 695.816406 C 918.808594 695.816406 1026.09375 588.539062 1026.09375 456.671875 C 1026.09375 324.804688 918.808594 217.527344 786.933594 217.527344 Z M 786.933594 217.527344 "/>
</g>
<path style=" stroke:none;fill-rule:nonzero;fill:rgb(100%,51.759338%,0%);fill-opacity:1;" d="M 796.703125 467.421875 L 673.457031 467.421875 C 667.515625 467.421875 662.703125 462.609375 662.703125 456.671875 C 662.703125 450.734375 667.515625 445.921875 673.457031 445.921875 L 785.953125 445.921875 L 785.953125 320.097656 C 785.953125 314.15625 790.765625 309.347656 796.703125 309.347656 C 802.640625 309.347656 807.453125 314.15625 807.453125 320.097656 L 807.453125 456.671875 C 807.453125 462.609375 802.640625 467.421875 796.703125 467.421875 Z M 796.703125 467.421875 "/>
<path style=" stroke:none;fill-rule:nonzero;fill:rgb(0%,24.308777%,32.159424%);fill-opacity:1;" d="M 785.066406 639.101562 C 674.628906 639.101562 630.085938 552.285156 629.613281 551.328125 C 626.96875 546.015625 629.136719 539.558594 634.453125 536.914062 C 639.769531 534.273438 646.203125 536.433594 648.855469 541.730469 C 650.710938 545.40625 695.632812 631.707031 813.023438 615.644531 C 818.917969 614.847656 824.332031 618.953125 825.136719 624.835938 C 825.9375 630.722656 821.820312 636.144531 815.941406 636.949219 C 805.128906 638.417969 794.828125 639.101562 785.066406 639.101562 Z M 785.066406 639.101562 "/>
<path style=" stroke:none;fill-rule:nonzero;fill:rgb(0%,24.308777%,32.159424%);fill-opacity:1;" d="M 523.617188 347.273438 L 364.226562 347.273438 C 358.285156 347.273438 353.472656 342.460938 353.472656 336.519531 C 353.472656 330.582031 358.285156 325.769531 364.226562 325.769531 L 523.617188 325.769531 C 529.554688 325.769531 534.367188 330.582031 534.367188 336.519531 C 534.367188 342.460938 529.554688 347.273438 523.617188 347.273438 Z M 523.617188 347.273438 "/>
<path style=" stroke:none;fill-rule:nonzero;fill:rgb(0%,24.308777%,32.159424%);fill-opacity:1;" d="M 523.617188 602.949219 L 364.226562 602.949219 C 358.285156 602.949219 353.472656 598.136719 353.472656 592.195312 C 353.472656 586.257812 358.285156 581.445312 364.226562 581.445312 L 523.617188 581.445312 C 529.554688 581.445312 534.367188 586.257812 534.367188 592.195312 C 534.367188 598.136719 529.554688 602.949219 523.617188 602.949219 Z M 523.617188 602.949219 "/>
<path style=" stroke:none;fill-rule:nonzero;fill:rgb(0%,24.308777%,32.159424%);fill-opacity:1;" d="M 492.332031 409.03125 L 332.941406 409.03125 C 327.003906 409.03125 322.191406 404.21875 322.191406 398.28125 C 322.191406 392.339844 327.003906 387.527344 332.941406 387.527344 L 492.332031 387.527344 C 498.273438 387.527344 503.085938 392.339844 503.085938 398.28125 C 503.085938 404.21875 498.273438 409.03125 492.332031 409.03125 Z M 492.332031 409.03125 "/>
<path style=" stroke:none;fill-rule:nonzero;fill:rgb(0%,24.308777%,32.159424%);fill-opacity:1;" d="M 489.03125 541.1875 L 312.808594 541.1875 C 306.867188 541.1875 302.054688 536.378906 302.054688 530.4375 C 302.054688 524.5 306.867188 519.6875 312.808594 519.6875 L 489.03125 519.6875 C 494.96875 519.6875 499.78125 524.5 499.78125 530.4375 C 499.78125 536.378906 494.96875 541.1875 489.03125 541.1875 Z M 489.03125 541.1875 "/>
<path style=" stroke:none;fill-rule:nonzero;fill:rgb(0%,24.308777%,32.159424%);fill-opacity:1;" d="M 475.203125 473.390625 L 305.988281 473.390625 C 300.046875 473.390625 295.234375 468.578125 295.234375 462.640625 C 295.234375 456.703125 300.046875 451.890625 305.988281 451.890625 L 475.203125 451.890625 C 481.144531 451.890625 485.957031 456.703125 485.957031 462.640625 C 485.957031 468.578125 481.144531 473.390625 475.203125 473.390625 Z M 475.203125 473.390625 "/>
</g>
</svg>
