<svg id="Layer_1" data-name="Layer 1" xmlns="http://www.w3.org/2000/svg" xmlns:xlink="http://www.w3.org/1999/xlink" viewBox="0 0 253.47 302.87"><defs><style>.cls-1{fill:none;}.cls-2{clip-path:url(#clip-path);}.cls-3{fill:#003e52;}</style><clipPath id="clip-path" transform="translate(-593.24 -253.96)"><rect class="cls-1" x="592.99" y="253.5" width="254.02" height="303"/></clipPath></defs><g id="surface1"><g class="cls-2"><path class="cls-3" d="M719.83,254q-4.74,0-9.47.36c-3.15.24-6.28.6-9.41,1.07s-6.23,1.06-9.31,1.77-6.13,1.52-9.14,2.45-6,2-8.94,3.14-5.84,2.42-8.68,3.79-5.64,2.85-8.38,4.43-5.4,3.26-8,5-5.15,3.66-7.62,5.63-4.86,4-7.18,6.18-4.54,4.38-6.69,6.69-4.2,4.71-6.17,7.18-3.85,5-5.62,7.62-3.46,5.29-5,8-3,5.53-4.42,8.37-2.63,5.74-3.78,8.68-2.2,5.92-3.13,8.94-1.74,6.06-2.44,9.14-1.29,6.18-1.76,9.31-.82,6.25-1,9.4-.35,6.3-.35,9.46.12,6.31.36,9.46.59,6.28,1.06,9.41,1.06,6.22,1.77,9.3,1.52,6.12,2.46,9.14,2,6,3.13,8.93,2.42,5.83,3.79,8.68,2.85,5.63,4.43,8.36,3.26,5.41,5,8,3.66,5.14,5.63,7.61,4,4.86,6.19,7.18,4.38,4.54,6.69,6.68l81.71,81.7a6.63,6.63,0,0,0,2,1.26,6.35,6.35,0,0,0,2.31.47,7.22,7.22,0,0,0,2.47-.47,7.12,7.12,0,0,0,2.16-1.26l80.42-80.68c2.36-2.12,4.64-4.34,6.83-6.63s4.31-4.68,6.32-7.14,3.94-5,5.77-7.59,3.55-5.27,5.17-8,3.14-5.52,4.56-8.37,2.72-5.74,3.91-8.68,2.28-5.93,3.25-9,1.83-6.08,2.57-9.17,1.36-6.21,1.86-9.35.89-6.29,1.16-9.45.42-6.34.44-9.52-.06-6.35-.27-9.52-.54-6.33-1-9.47-1-6.27-1.7-9.38-1.49-6.17-2.41-9.22-2-6-3.09-9-2.4-5.88-3.76-8.75-2.83-5.69-4.41-8.45-3.25-5.45-5-8.09-3.66-5.19-5.63-7.69-4-4.9-6.19-7.24-4.4-4.59-6.72-6.76-4.73-4.24-7.21-6.23-5-3.88-7.66-5.67-5.31-3.49-8.06-5.09-5.56-3.08-8.43-4.46-5.77-2.65-8.73-3.81-6-2.21-9-3.15-6.11-1.75-9.21-2.46-6.22-1.29-9.37-1.76-6.3-.82-9.47-1S723,254,719.83,254Zm-29,205.23c-.54,0-1.08,0-1.61-.1s-1.07-.15-1.6-.26-1.05-.25-1.57-.41a16.14,16.14,0,0,1-1.51-.57,15.14,15.14,0,0,1-1.46-.71q-.7-.39-1.38-.84t-1.29-1c-.41-.34-.81-.71-1.19-1.09s-.73-.79-1.07-1.21-.65-.86-1-1.32a14.81,14.81,0,0,1-.81-1.39,16.23,16.23,0,0,1-1.21-3c-.15-.52-.28-1-.38-1.57a14.49,14.49,0,0,1-.22-1.61c0-.54-.07-1.07-.07-1.62s0-1.07.1-1.61a14.76,14.76,0,0,1,.25-1.6,13.75,13.75,0,0,1,.41-1.56c.16-.52.34-1,.55-1.52s.45-1,.71-1.46.54-.93.84-1.38a16,16,0,0,1,2.07-2.48c.39-.38.79-.74,1.21-1.08s.85-.66,1.3-1,.92-.57,1.4-.82,1-.48,1.47-.68a13.89,13.89,0,0,1,1.53-.54c.51-.15,1-.28,1.57-.38s1.06-.18,1.6-.23a14.63,14.63,0,0,1,1.62-.07c.54,0,1.08,0,1.61.08s1.08.14,1.61.25,1,.24,1.57.4,1,.34,1.52.55,1,.44,1.46.7.94.53,1.39.83.88.63,1.29,1,.82.71,1.2,1.09.74.79,1.08,1.2a15.15,15.15,0,0,1,1,1.31,15,15,0,0,1,.83,1.39,13,13,0,0,1,.69,1.46c.21.5.39,1,.55,1.53s.28,1,.39,1.57.18,1.06.23,1.6.08,1.07.08,1.61a14.7,14.7,0,0,1-.09,1.63c-.06.54-.15,1.08-.25,1.61s-.25,1.06-.41,1.58-.35,1-.57,1.53a15.48,15.48,0,0,1-.71,1.48,15.19,15.19,0,0,1-.85,1.39,13.82,13.82,0,0,1-1,1.3c-.35.42-.72.82-1.1,1.21s-.8.74-1.22,1.08a14.74,14.74,0,0,1-1.32,1c-.46.3-.93.58-1.41.83a13.27,13.27,0,0,1-1.48.69,14.82,14.82,0,0,1-1.54.54,14.18,14.18,0,0,1-1.59.39c-.53.1-1.07.18-1.62.23S691.34,459.19,690.79,459.19Zm56.69,0c-.54,0-1.08,0-1.62-.08a17,17,0,0,1-3.18-.63c-.52-.15-1-.34-1.53-.54s-1-.44-1.47-.7a15,15,0,0,1-1.39-.83,15.27,15.27,0,0,1-1.31-1,16.89,16.89,0,0,1-2.29-2.29,15.13,15.13,0,0,1-1-1.3c-.3-.45-.58-.91-.84-1.39s-.48-1-.69-1.47-.39-1-.55-1.53-.29-1-.4-1.57-.18-1.07-.24-1.61-.08-1.08-.08-1.62,0-1.08.08-1.62.14-1.07.24-1.6.24-1.06.4-1.58a13.89,13.89,0,0,1,.54-1.53,16.26,16.26,0,0,1,2.5-4.16,15.51,15.51,0,0,1,1.09-1.2,13.72,13.72,0,0,1,1.2-1.09c.42-.34.86-.67,1.31-1a15,15,0,0,1,1.39-.83c.48-.26,1-.49,1.47-.7s1-.39,1.53-.54,1-.29,1.57-.4,1.07-.18,1.61-.23a12.56,12.56,0,0,1,1.62-.08,14.7,14.7,0,0,1,1.63.08c.54.05,1.07.13,1.6.23s1.06.24,1.58.4,1,.34,1.53.55a15,15,0,0,1,1.46.69c.48.26,1,.54,1.4.84s.88.62,1.3,1,.82.71,1.21,1.09.74.79,1.09,1.21.66.85,1,1.3.58.92.84,1.4.48,1,.69,1.46a13.89,13.89,0,0,1,.54,1.53c.16.52.29,1,.4,1.57s.18,1.07.24,1.61.07,1.08.07,1.62,0,1.08-.08,1.62-.14,1.07-.25,1.6-.24,1.05-.4,1.56a15.23,15.23,0,0,1-.55,1.52,17.75,17.75,0,0,1-1.53,2.85c-.3.45-.62.88-1,1.3s-.71.82-1.09,1.2a15.39,15.39,0,0,1-1.2,1.08,15.13,15.13,0,0,1-1.3,1q-.67.45-1.38.84t-1.47.69a15.23,15.23,0,0,1-1.52.55c-.52.16-1,.3-1.57.41s-1.06.18-1.6.24a14.35,14.35,0,0,1-1.61.09Zm27.39-98.36L762,409.16a15.08,15.08,0,0,1-2.06,4.4,15.59,15.59,0,0,1-3.34,3.54,16.27,16.27,0,0,1-2,1.32,14.9,14.9,0,0,1-2.24,1,14.6,14.6,0,0,1-2.36.61,15.14,15.14,0,0,1-2.43.22H690.79a14.2,14.2,0,0,1-2.43-.18,14.83,14.83,0,0,1-6.64-2.87,15.49,15.49,0,0,1-1.8-1.64,14.67,14.67,0,0,1-1.5-1.91,14.24,14.24,0,0,1-2-4.43l-13.23-48.37a1.4,1.4,0,0,0,0-.29l-5.79-21.39h-8.83a6.83,6.83,0,0,1-1.19-.17,6.52,6.52,0,0,1-1.15-.4,6,6,0,0,1-1-.6,6.29,6.29,0,0,1-1.67-1.74,6.1,6.1,0,0,1-.55-1.08,6.6,6.6,0,0,1-.34-1.15,6.11,6.11,0,0,1,0-2.41,6.7,6.7,0,0,1,.34-1.16,6.36,6.36,0,0,1,.55-1.07,6.27,6.27,0,0,1,.75-.95,5.74,5.74,0,0,1,.92-.79,6,6,0,0,1,1-.61,5.77,5.77,0,0,1,1.15-.39,5.34,5.34,0,0,1,1.19-.17H662.3a4.85,4.85,0,0,1,1,.05,4.73,4.73,0,0,1,1,.22,6,6,0,0,1,.94.38,5.87,5.87,0,0,1,.85.55,5.79,5.79,0,0,1,1.37,1.48,5.1,5.1,0,0,1,.48.89,5.65,5.65,0,0,1,.31,1l5.87,22h94.66a5.63,5.63,0,0,1,1.42.09,5.82,5.82,0,0,1,1.35.46,5.6,5.6,0,0,1,1.19.79,5.31,5.31,0,0,1,.94,1.07,5.67,5.67,0,0,1,.82,1.2A5.53,5.53,0,0,1,775,358a5.44,5.44,0,0,1,.13,1.45,4.92,4.92,0,0,1-.24,1.42Z" transform="translate(-593.24 -253.96)"/></g></g></svg>