<?xml version="1.0" encoding="UTF-8"?>
<svg xmlns="http://www.w3.org/2000/svg" xmlns:xlink="http://www.w3.org/1999/xlink" width="1440pt" height="809.999993pt" viewBox="0 0 1440 809.999993" version="1.2">
<defs>
<clipPath id="clip1">
  <path d="M 798 536 L 1034.609375 536 L 1034.609375 719.609375 L 798 719.609375 Z M 798 536 "/>
</clipPath>
<clipPath id="clip2">
  <path d="M 405.359375 90.359375 L 838 90.359375 L 838 719.609375 L 405.359375 719.609375 Z M 405.359375 90.359375 "/>
</clipPath>
<clipPath id="clip3">
  <path d="M 799.320312 536 L 1034.609375 536 L 1034.609375 719.339844 L 799.320312 719.339844 Z M 799.320312 536 "/>
</clipPath>
<clipPath id="clip4">
  <path d="M 799.320312 429.089844 L 838 429.089844 L 838 719.339844 L 799.320312 719.339844 Z M 799.320312 429.089844 "/>
</clipPath>
</defs>
<g id="surface1">
<rect x="0" y="0" width="1440" height="809.999993" style="fill:rgb(100%,100%,100%);fill-opacity:1;stroke:none;"/>
<rect x="0" y="0" width="1440" height="809.999993" style="fill:rgb(100%,100%,100%);fill-opacity:1;stroke:none;"/>
<g clip-path="url(#clip1)" clip-rule="nonzero">
<path style=" stroke:none;fill-rule:nonzero;fill:rgb(0%,24.308777%,32.159424%);fill-opacity:1;" d="M 1021.5 719.609375 L 811.75 719.609375 C 804.515625 719.609375 798.640625 713.738281 798.640625 706.5 L 798.640625 549.1875 C 798.640625 541.953125 804.515625 536.078125 811.75 536.078125 L 1021.5 536.078125 C 1028.738281 536.078125 1034.609375 541.953125 1034.609375 549.1875 L 1034.609375 706.5 C 1034.609375 713.738281 1028.738281 719.609375 1021.5 719.609375 Z M 824.859375 693.390625 L 1008.390625 693.390625 L 1008.390625 562.296875 L 824.859375 562.296875 Z M 824.859375 693.390625 "/>
</g>
<path style=" stroke:none;fill-rule:nonzero;fill:rgb(0%,24.308777%,32.159424%);fill-opacity:1;" d="M 916.625 667.171875 C 909.390625 667.171875 903.515625 661.300781 903.515625 654.0625 L 903.515625 614.734375 C 903.515625 607.5 909.390625 601.625 916.625 601.625 C 923.863281 601.625 929.734375 607.5 929.734375 614.734375 L 929.734375 654.0625 C 929.734375 661.300781 923.863281 667.171875 916.625 667.171875 Z M 916.625 667.171875 "/>
<path style=" stroke:none;fill-rule:nonzero;fill:rgb(0%,24.308777%,32.159424%);fill-opacity:1;" d="M 916.625 640.953125 C 902.179688 640.953125 890.40625 629.207031 890.40625 614.734375 C 890.40625 600.261719 902.179688 588.515625 916.625 588.515625 C 931.074219 588.515625 942.84375 600.261719 942.84375 614.734375 C 942.84375 629.207031 931.074219 640.953125 916.625 640.953125 Z M 916.625 614.710938 C 916.625 614.734375 916.625 614.734375 916.625 614.710938 L 929.734375 614.734375 Z M 916.625 614.710938 "/>
<g clip-path="url(#clip2)" clip-rule="nonzero">
<path style=" stroke:none;fill-rule:nonzero;fill:rgb(0%,24.308777%,32.159424%);fill-opacity:1;" d="M 759.3125 719.609375 L 418.46875 719.609375 C 411.234375 719.609375 405.359375 713.738281 405.359375 706.5 L 405.359375 643.523438 C 405.359375 642.449219 405.492188 641.375 405.753906 640.351562 C 412.597656 612.980469 423.320312 586.210938 455.28125 575.539062 L 571.640625 536.761719 C 598.984375 525.328125 611.78125 480.078125 614.535156 462.902344 C 594.476562 444.472656 575.78125 416.757812 575.78125 391.875 C 575.78125 382.59375 573.03125 378.765625 571.5625 378.058594 C 567.472656 377.035156 565.164062 374.441406 563.589844 370.535156 C 562.175781 366.941406 549.5625 334.773438 549.5625 313.21875 C 549.5625 312.144531 549.695312 311.070312 549.957031 310.046875 C 551.398438 304.28125 555.410156 295.890625 562.671875 290.960938 L 562.671875 221.453125 C 562.671875 166.710938 612.542969 90.359375 693.765625 90.359375 C 773.996094 90.359375 795.808594 131.5 798.378906 151.84375 C 811.960938 161.910156 824.859375 179.214844 824.859375 221.453125 L 824.859375 290.960938 C 832.125 295.890625 836.136719 304.28125 837.578125 310.046875 C 837.839844 311.070312 837.96875 312.144531 837.96875 313.21875 C 837.96875 334.773438 825.359375 366.941406 823.917969 370.535156 C 822.34375 374.441406 818.988281 377.378906 814.925781 378.398438 C 814.503906 378.765625 811.75 382.59375 811.75 391.875 C 811.75 416.757812 793.082031 444.445312 773.050781 462.851562 C 774.101562 469.167969 776.511719 479.894531 781.179688 492.058594 C 783.75 498.824219 780.367188 506.398438 773.601562 508.996094 C 766.839844 511.617188 759.261719 508.210938 756.664062 501.445312 C 749.875 483.617188 746.203125 465.472656 746.203125 457.421875 C 746.203125 453.515625 747.933594 449.820312 750.976562 447.304688 C 768.148438 433.117188 785.53125 409.523438 785.53125 391.875 C 785.53125 372.292969 793.632812 361.4375 801.289062 356.296875 C 805.066406 346.019531 811.070312 327.351562 811.699219 315.214844 C 811.253906 314.191406 810.625 313.117188 810.203125 312.75 C 802.96875 312.722656 798.640625 307.347656 798.640625 300.109375 L 798.640625 221.453125 C 798.640625 182.859375 786.242188 175.019531 780.945312 171.640625 C 777.773438 169.59375 772.421875 166.238281 771.636719 159.027344 C 771.480469 157.453125 771.6875 155.699219 772.214844 153.914062 C 770.351562 143.507812 754.621094 116.578125 693.765625 116.578125 C 629.742188 116.578125 588.890625 178.691406 588.890625 221.453125 L 588.890625 300.109375 C 588.890625 307.347656 583.019531 313.21875 575.78125 313.21875 C 576.410156 313.21875 576.175781 314.113281 575.835938 315.109375 C 576.4375 327.324219 582.46875 346.019531 586.242188 356.273438 C 593.898438 361.410156 602 372.292969 602 391.875 C 602 409.523438 619.382812 433.117188 636.558594 447.304688 C 639.597656 449.820312 641.328125 453.515625 641.328125 457.421875 C 641.328125 474.074219 626.203125 542.371094 580.816406 561.300781 L 463.566406 600.421875 C 445.003906 606.609375 437.636719 621.527344 431.578125 645.148438 L 431.578125 693.390625 L 759.3125 693.390625 C 766.550781 693.390625 772.421875 699.265625 772.421875 706.5 C 772.421875 713.738281 766.550781 719.609375 759.3125 719.609375 Z M 759.3125 719.609375 "/>
</g>
<path style=" stroke:none;fill-rule:nonzero;fill:rgb(0%,24.308777%,32.159424%);fill-opacity:1;" d="M 995.28125 562.296875 C 988.046875 562.296875 982.171875 556.425781 982.171875 549.1875 L 982.171875 522.96875 C 982.171875 486.816406 952.753906 457.421875 916.625 457.421875 C 880.496094 457.421875 851.078125 486.816406 851.078125 522.96875 L 851.078125 549.1875 C 851.078125 556.425781 845.207031 562.296875 837.96875 562.296875 C 830.734375 562.296875 824.859375 556.425781 824.859375 549.1875 L 824.859375 522.96875 C 824.859375 472.367188 866.023438 431.203125 916.625 431.203125 C 967.230469 431.203125 1008.390625 472.367188 1008.390625 522.96875 L 1008.390625 549.1875 C 1008.390625 556.425781 1002.519531 562.296875 995.28125 562.296875 Z M 995.28125 562.296875 "/>
<g clip-path="url(#clip3)" clip-rule="nonzero">
<path style=" stroke:none;fill-rule:nonzero;fill:rgb(100%,51.759338%,0%);fill-opacity:1;" d="M 1021.5 719.609375 L 811.75 719.609375 C 804.515625 719.609375 798.640625 713.738281 798.640625 706.5 L 798.640625 549.1875 C 798.640625 541.953125 804.515625 536.078125 811.75 536.078125 L 1021.5 536.078125 C 1028.738281 536.078125 1034.609375 541.953125 1034.609375 549.1875 L 1034.609375 706.5 C 1034.609375 713.738281 1028.738281 719.609375 1021.5 719.609375 Z M 824.859375 693.390625 L 1008.390625 693.390625 L 1008.390625 562.296875 L 824.859375 562.296875 Z M 824.859375 693.390625 "/>
</g>
<path style=" stroke:none;fill-rule:nonzero;fill:rgb(100%,51.759338%,0%);fill-opacity:1;" d="M 916.625 667.171875 C 909.390625 667.171875 903.515625 661.300781 903.515625 654.0625 L 903.515625 614.734375 C 903.515625 607.5 909.390625 601.625 916.625 601.625 C 923.863281 601.625 929.734375 607.5 929.734375 614.734375 L 929.734375 654.0625 C 929.734375 661.300781 923.863281 667.171875 916.625 667.171875 Z M 916.625 667.171875 "/>
<path style=" stroke:none;fill-rule:nonzero;fill:rgb(100%,51.759338%,0%);fill-opacity:1;" d="M 916.625 640.953125 C 902.179688 640.953125 890.40625 629.207031 890.40625 614.734375 C 890.40625 600.261719 902.179688 588.515625 916.625 588.515625 C 931.074219 588.515625 942.84375 600.261719 942.84375 614.734375 C 942.84375 629.207031 931.074219 640.953125 916.625 640.953125 Z M 916.625 614.710938 C 916.625 614.734375 916.625 614.734375 916.625 614.710938 L 929.734375 614.734375 Z M 916.625 614.710938 "/>
<g clip-path="url(#clip4)" clip-rule="nonzero">
<path style=" stroke:none;fill-rule:nonzero;fill:rgb(100%,51.759338%,0%);fill-opacity:1;" d="M 759.3125 719.609375 L 418.46875 719.609375 C 411.234375 719.609375 405.359375 713.738281 405.359375 706.5 L 405.359375 643.523438 C 405.359375 642.449219 405.492188 641.375 405.753906 640.351562 C 412.597656 612.980469 423.320312 586.210938 455.28125 575.539062 L 571.640625 536.761719 C 598.984375 525.332031 611.78125 480.078125 614.535156 462.902344 C 594.476562 444.472656 575.78125 416.757812 575.78125 391.875 C 575.78125 382.59375 573.03125 378.765625 571.5625 378.058594 C 567.472656 377.035156 565.164062 374.441406 563.589844 370.535156 C 562.175781 366.941406 549.5625 334.773438 549.5625 313.21875 C 549.5625 312.144531 549.695312 311.070312 549.957031 310.046875 C 551.398438 304.28125 555.410156 295.890625 562.671875 290.960938 L 562.671875 221.453125 C 562.671875 166.710938 612.542969 90.359375 693.765625 90.359375 C 773.996094 90.359375 795.808594 131.5 798.378906 151.84375 C 811.960938 161.910156 824.859375 179.214844 824.859375 221.453125 L 824.859375 290.960938 C 832.125 295.890625 836.136719 304.28125 837.578125 310.046875 C 837.839844 311.070312 837.96875 312.144531 837.96875 313.21875 C 837.96875 334.773438 825.359375 366.941406 823.917969 370.535156 C 822.34375 374.441406 818.988281 377.378906 814.925781 378.398438 C 814.503906 378.765625 811.75 382.59375 811.75 391.875 C 811.75 416.757812 793.082031 444.445312 773.050781 462.851562 C 774.101562 469.167969 776.511719 479.894531 781.179688 492.058594 C 783.75 498.824219 780.367188 506.398438 773.601562 508.996094 C 766.839844 511.617188 759.261719 508.210938 756.664062 501.445312 C 749.875 483.617188 746.203125 465.472656 746.203125 457.421875 C 746.203125 453.515625 747.933594 449.820312 750.976562 447.304688 C 768.148438 433.117188 785.53125 409.523438 785.53125 391.875 C 785.53125 372.292969 793.632812 361.4375 801.289062 356.296875 C 805.066406 346.019531 811.070312 327.351562 811.699219 315.214844 C 811.253906 314.191406 810.625 313.117188 810.203125 312.75 C 802.96875 312.722656 798.640625 307.347656 798.640625 300.109375 L 798.640625 221.453125 C 798.640625 182.859375 786.242188 175.019531 780.945312 171.640625 C 777.773438 169.59375 772.421875 166.238281 771.636719 159.027344 C 771.480469 157.453125 771.6875 155.699219 772.214844 153.914062 C 770.351562 143.507812 754.621094 116.578125 693.765625 116.578125 C 629.742188 116.578125 588.890625 178.691406 588.890625 221.453125 L 588.890625 300.109375 C 588.890625 307.347656 583.019531 313.21875 575.78125 313.21875 C 576.410156 313.21875 576.175781 314.113281 575.835938 315.109375 C 576.4375 327.324219 582.46875 346.019531 586.242188 356.273438 C 593.898438 361.410156 602 372.292969 602 391.875 C 602 409.523438 619.382812 433.117188 636.558594 447.304688 C 639.597656 449.820312 641.328125 453.515625 641.328125 457.421875 C 641.328125 474.074219 626.203125 542.371094 580.816406 561.300781 L 463.566406 600.421875 C 445.003906 606.609375 437.636719 621.527344 431.578125 645.148438 L 431.578125 693.390625 L 759.3125 693.390625 C 766.550781 693.390625 772.421875 699.265625 772.421875 706.5 C 772.421875 713.738281 766.550781 719.609375 759.3125 719.609375 Z M 759.3125 719.609375 "/>
</g>
<path style=" stroke:none;fill-rule:nonzero;fill:rgb(100%,51.759338%,0%);fill-opacity:1;" d="M 995.28125 562.296875 C 988.046875 562.296875 982.171875 556.425781 982.171875 549.1875 L 982.171875 522.96875 C 982.171875 486.816406 952.753906 457.421875 916.625 457.421875 C 880.496094 457.421875 851.078125 486.816406 851.078125 522.96875 L 851.078125 549.1875 C 851.078125 556.425781 845.207031 562.296875 837.96875 562.296875 C 830.734375 562.296875 824.859375 556.425781 824.859375 549.1875 L 824.859375 522.96875 C 824.859375 472.367188 866.023438 431.203125 916.625 431.203125 C 967.230469 431.203125 1008.390625 472.367188 1008.390625 522.96875 L 1008.390625 549.1875 C 1008.390625 556.425781 1002.519531 562.296875 995.28125 562.296875 Z M 995.28125 562.296875 "/>
</g>
</svg>
