<?xml version="1.0" encoding="UTF-8"?>
<svg xmlns="http://www.w3.org/2000/svg" xmlns:xlink="http://www.w3.org/1999/xlink" width="1440pt" height="809.999993pt" viewBox="0 0 1440 809.999993" version="1.2">
<defs>
<clipPath id="clip1">
  <path d="M 797 534 L 1031.832031 534 L 1031.832031 716.832031 L 797 716.832031 Z M 797 534 "/>
</clipPath>
<clipPath id="clip2">
  <path d="M 407.832031 92.832031 L 837 92.832031 L 837 716.832031 L 407.832031 716.832031 Z M 407.832031 92.832031 "/>
</clipPath>
<clipPath id="clip3">
  <path d="M 798.699219 534 L 1031.832031 534 L 1031.832031 716.832031 L 798.699219 716.832031 Z M 798.699219 534 "/>
</clipPath>
<clipPath id="clip4">
  <path d="M 798.699219 428.898438 L 837 428.898438 L 837 716.832031 L 798.699219 716.832031 Z M 798.699219 428.898438 "/>
</clipPath>
</defs>
<g id="surface1">
<g clip-path="url(#clip1)" clip-rule="nonzero">
<path style=" stroke:none;fill-rule:nonzero;fill:rgb(0%,24.308777%,32.159424%);fill-opacity:1;" d="M 1018.832031 716.832031 L 810.832031 716.832031 C 803.65625 716.832031 797.832031 711.007812 797.832031 703.832031 L 797.832031 547.832031 C 797.832031 540.65625 803.65625 534.832031 810.832031 534.832031 L 1018.832031 534.832031 C 1026.007812 534.832031 1031.832031 540.65625 1031.832031 547.832031 L 1031.832031 703.832031 C 1031.832031 711.007812 1026.007812 716.832031 1018.832031 716.832031 Z M 823.832031 690.832031 L 1005.832031 690.832031 L 1005.832031 560.832031 L 823.832031 560.832031 Z M 823.832031 690.832031 "/>
</g>
<path style=" stroke:none;fill-rule:nonzero;fill:rgb(0%,24.308777%,32.159424%);fill-opacity:1;" d="M 914.832031 664.832031 C 907.65625 664.832031 901.832031 659.007812 901.832031 651.832031 L 901.832031 612.832031 C 901.832031 605.65625 907.65625 599.832031 914.832031 599.832031 C 922.007812 599.832031 927.832031 605.65625 927.832031 612.832031 L 927.832031 651.832031 C 927.832031 659.007812 922.007812 664.832031 914.832031 664.832031 Z M 914.832031 664.832031 "/>
<path style=" stroke:none;fill-rule:nonzero;fill:rgb(0%,24.308777%,32.159424%);fill-opacity:1;" d="M 914.832031 638.832031 C 900.507812 638.832031 888.832031 627.183594 888.832031 612.832031 C 888.832031 598.480469 900.507812 586.832031 914.832031 586.832031 C 929.15625 586.832031 940.832031 598.480469 940.832031 612.832031 C 940.832031 627.183594 929.15625 638.832031 914.832031 638.832031 Z M 914.832031 612.804688 C 914.832031 612.832031 914.832031 612.832031 914.832031 612.804688 L 927.832031 612.832031 Z M 914.832031 612.804688 "/>
<g clip-path="url(#clip2)" clip-rule="nonzero">
<path style=" stroke:none;fill-rule:nonzero;fill:rgb(0%,24.308777%,32.159424%);fill-opacity:1;" d="M 758.832031 716.832031 L 420.832031 716.832031 C 413.65625 716.832031 407.832031 711.007812 407.832031 703.832031 L 407.832031 641.378906 C 407.832031 640.3125 407.960938 639.25 408.222656 638.234375 C 415.007812 611.089844 425.640625 584.542969 457.335938 573.960938 L 572.722656 535.507812 C 599.84375 524.171875 612.53125 479.296875 615.261719 462.265625 C 595.371094 443.988281 576.832031 416.507812 576.832031 391.832031 C 576.832031 382.628906 574.101562 378.832031 572.644531 378.128906 C 568.589844 377.117188 566.300781 374.542969 564.742188 370.667969 C 563.339844 367.105469 550.832031 335.203125 550.832031 313.832031 C 550.832031 312.765625 550.960938 311.699219 551.222656 310.6875 C 552.652344 304.964844 556.628906 296.644531 563.832031 291.757812 L 563.832031 222.832031 C 563.832031 168.542969 613.285156 92.832031 693.832031 92.832031 C 773.390625 92.832031 795.023438 133.625 797.570312 153.800781 C 811.039062 163.785156 823.832031 180.945312 823.832031 222.832031 L 823.832031 291.757812 C 831.035156 296.644531 835.011719 304.964844 836.441406 310.6875 C 836.703125 311.699219 836.832031 312.765625 836.832031 313.832031 C 836.832031 335.203125 824.324219 367.105469 822.894531 370.667969 C 821.335938 374.542969 818.007812 377.453125 813.976562 378.46875 C 813.5625 378.832031 810.832031 382.628906 810.832031 391.832031 C 810.832031 416.507812 792.320312 443.960938 772.457031 462.214844 C 773.496094 468.480469 775.886719 479.113281 780.515625 491.179688 C 783.0625 497.886719 779.710938 505.398438 773.003906 507.972656 C 766.292969 510.574219 758.78125 507.195312 756.207031 500.484375 C 749.472656 482.804688 745.832031 464.8125 745.832031 456.832031 C 745.832031 452.957031 747.546875 449.292969 750.5625 446.796875 C 767.59375 432.730469 784.832031 409.332031 784.832031 391.832031 C 784.832031 372.410156 792.867188 361.644531 800.457031 356.550781 C 804.203125 346.359375 810.15625 327.847656 810.78125 315.808594 C 810.339844 314.792969 809.714844 313.726562 809.296875 313.363281 C 802.121094 313.339844 797.832031 308.007812 797.832031 300.832031 L 797.832031 222.832031 C 797.832031 184.558594 785.535156 176.785156 780.28125 173.433594 C 777.136719 171.402344 771.832031 168.078125 771.050781 160.925781 C 770.894531 159.367188 771.105469 157.625 771.625 155.855469 C 769.777344 145.535156 754.179688 118.832031 693.832031 118.832031 C 630.339844 118.832031 589.832031 180.425781 589.832031 222.832031 L 589.832031 300.832031 C 589.832031 308.007812 584.007812 313.832031 576.832031 313.832031 C 577.457031 313.832031 577.222656 314.714844 576.882812 315.703125 C 577.480469 327.820312 583.460938 346.359375 587.207031 356.523438 C 594.796875 361.621094 602.832031 372.410156 602.832031 391.832031 C 602.832031 409.332031 620.070312 432.730469 637.101562 446.796875 C 640.117188 449.292969 641.832031 452.957031 641.832031 456.832031 C 641.832031 473.34375 626.832031 541.070312 581.824219 559.84375 L 465.550781 598.636719 C 447.144531 604.773438 439.839844 619.566406 433.832031 642.992188 L 433.832031 690.832031 L 758.832031 690.832031 C 766.007812 690.832031 771.832031 696.65625 771.832031 703.832031 C 771.832031 711.007812 766.007812 716.832031 758.832031 716.832031 Z M 758.832031 716.832031 "/>
</g>
<path style=" stroke:none;fill-rule:nonzero;fill:rgb(0%,24.308777%,32.159424%);fill-opacity:1;" d="M 992.832031 560.832031 C 985.65625 560.832031 979.832031 555.007812 979.832031 547.832031 L 979.832031 521.832031 C 979.832031 485.976562 950.660156 456.832031 914.832031 456.832031 C 879.003906 456.832031 849.832031 485.976562 849.832031 521.832031 L 849.832031 547.832031 C 849.832031 555.007812 844.007812 560.832031 836.832031 560.832031 C 829.65625 560.832031 823.832031 555.007812 823.832031 547.832031 L 823.832031 521.832031 C 823.832031 471.652344 864.652344 430.832031 914.832031 430.832031 C 965.011719 430.832031 1005.832031 471.652344 1005.832031 521.832031 L 1005.832031 547.832031 C 1005.832031 555.007812 1000.007812 560.832031 992.832031 560.832031 Z M 992.832031 560.832031 "/>
<g clip-path="url(#clip3)" clip-rule="nonzero">
<path style=" stroke:none;fill-rule:nonzero;fill:rgb(100%,51.759338%,0%);fill-opacity:1;" d="M 1018.832031 716.832031 L 810.832031 716.832031 C 803.65625 716.832031 797.832031 711.007812 797.832031 703.832031 L 797.832031 547.832031 C 797.832031 540.65625 803.65625 534.832031 810.832031 534.832031 L 1018.832031 534.832031 C 1026.007812 534.832031 1031.832031 540.65625 1031.832031 547.832031 L 1031.832031 703.832031 C 1031.832031 711.007812 1026.007812 716.832031 1018.832031 716.832031 Z M 823.832031 690.832031 L 1005.832031 690.832031 L 1005.832031 560.832031 L 823.832031 560.832031 Z M 823.832031 690.832031 "/>
</g>
<path style=" stroke:none;fill-rule:nonzero;fill:rgb(100%,51.759338%,0%);fill-opacity:1;" d="M 914.832031 664.832031 C 907.65625 664.832031 901.832031 659.007812 901.832031 651.832031 L 901.832031 612.832031 C 901.832031 605.65625 907.65625 599.832031 914.832031 599.832031 C 922.007812 599.832031 927.832031 605.65625 927.832031 612.832031 L 927.832031 651.832031 C 927.832031 659.007812 922.007812 664.832031 914.832031 664.832031 Z M 914.832031 664.832031 "/>
<path style=" stroke:none;fill-rule:nonzero;fill:rgb(100%,51.759338%,0%);fill-opacity:1;" d="M 914.832031 638.832031 C 900.507812 638.832031 888.832031 627.183594 888.832031 612.832031 C 888.832031 598.480469 900.507812 586.832031 914.832031 586.832031 C 929.15625 586.832031 940.832031 598.480469 940.832031 612.832031 C 940.832031 627.183594 929.15625 638.832031 914.832031 638.832031 Z M 914.832031 612.804688 C 914.832031 612.832031 914.832031 612.832031 914.832031 612.804688 L 927.832031 612.832031 Z M 914.832031 612.804688 "/>
<g clip-path="url(#clip4)" clip-rule="nonzero">
<path style=" stroke:none;fill-rule:nonzero;fill:rgb(100%,51.759338%,0%);fill-opacity:1;" d="M 758.832031 716.832031 L 420.832031 716.832031 C 413.65625 716.832031 407.832031 711.007812 407.832031 703.832031 L 407.832031 641.378906 C 407.832031 640.3125 407.960938 639.25 408.222656 638.234375 C 415.007812 611.089844 425.640625 584.542969 457.335938 573.960938 L 572.722656 535.507812 C 599.84375 524.171875 612.53125 479.296875 615.261719 462.265625 C 595.371094 443.988281 576.832031 416.507812 576.832031 391.832031 C 576.832031 382.628906 574.101562 378.832031 572.644531 378.128906 C 568.589844 377.117188 566.300781 374.542969 564.742188 370.667969 C 563.339844 367.105469 550.832031 335.203125 550.832031 313.832031 C 550.832031 312.765625 550.960938 311.699219 551.222656 310.6875 C 552.652344 304.964844 556.628906 296.648438 563.832031 291.757812 L 563.832031 222.832031 C 563.832031 168.542969 613.285156 92.832031 693.832031 92.832031 C 773.390625 92.832031 795.023438 133.625 797.570312 153.800781 C 811.039062 163.785156 823.832031 180.945312 823.832031 222.832031 L 823.832031 291.757812 C 831.035156 296.648438 835.011719 304.964844 836.441406 310.6875 C 836.703125 311.699219 836.832031 312.765625 836.832031 313.832031 C 836.832031 335.203125 824.324219 367.105469 822.894531 370.667969 C 821.335938 374.542969 818.007812 377.453125 813.976562 378.46875 C 813.5625 378.832031 810.832031 382.628906 810.832031 391.832031 C 810.832031 416.507812 792.320312 443.960938 772.457031 462.214844 C 773.496094 468.480469 775.886719 479.113281 780.515625 491.179688 C 783.0625 497.886719 779.710938 505.402344 773.003906 507.972656 C 766.292969 510.574219 758.78125 507.195312 756.207031 500.488281 C 749.472656 482.804688 745.832031 464.816406 745.832031 456.832031 C 745.832031 452.957031 747.546875 449.292969 750.5625 446.796875 C 767.59375 432.730469 784.832031 409.332031 784.832031 391.832031 C 784.832031 372.410156 792.867188 361.648438 800.457031 356.550781 C 804.203125 346.359375 810.15625 327.847656 810.78125 315.808594 C 810.339844 314.792969 809.714844 313.726562 809.296875 313.363281 C 802.121094 313.339844 797.832031 308.007812 797.832031 300.832031 L 797.832031 222.832031 C 797.832031 184.558594 785.535156 176.785156 780.28125 173.433594 C 777.136719 171.40625 771.832031 168.078125 771.050781 160.925781 C 770.894531 159.367188 771.105469 157.625 771.625 155.855469 C 769.777344 145.535156 754.179688 118.832031 693.832031 118.832031 C 630.339844 118.832031 589.832031 180.425781 589.832031 222.832031 L 589.832031 300.832031 C 589.832031 308.007812 584.007812 313.832031 576.832031 313.832031 C 577.457031 313.832031 577.222656 314.714844 576.882812 315.703125 C 577.480469 327.820312 583.460938 346.359375 587.207031 356.523438 C 594.796875 361.621094 602.832031 372.410156 602.832031 391.832031 C 602.832031 409.332031 620.070312 432.730469 637.101562 446.796875 C 640.117188 449.292969 641.832031 452.957031 641.832031 456.832031 C 641.832031 473.34375 626.828125 541.074219 581.824219 559.84375 L 465.550781 598.636719 C 447.144531 604.773438 439.839844 619.566406 433.832031 642.992188 L 433.832031 690.832031 L 758.832031 690.832031 C 766.007812 690.832031 771.832031 696.65625 771.832031 703.832031 C 771.832031 711.007812 766.007812 716.832031 758.832031 716.832031 Z M 758.832031 716.832031 "/>
</g>
<path style=" stroke:none;fill-rule:nonzero;fill:rgb(100%,51.759338%,0%);fill-opacity:1;" d="M 992.832031 560.832031 C 985.65625 560.832031 979.832031 555.007812 979.832031 547.832031 L 979.832031 521.832031 C 979.832031 485.976562 950.660156 456.832031 914.832031 456.832031 C 879.003906 456.832031 849.832031 485.976562 849.832031 521.832031 L 849.832031 547.832031 C 849.832031 555.007812 844.007812 560.832031 836.832031 560.832031 C 829.65625 560.832031 823.832031 555.007812 823.832031 547.832031 L 823.832031 521.832031 C 823.832031 471.652344 864.652344 430.832031 914.832031 430.832031 C 965.011719 430.832031 1005.832031 471.652344 1005.832031 521.832031 L 1005.832031 547.832031 C 1005.832031 555.007812 1000.007812 560.832031 992.832031 560.832031 Z M 992.832031 560.832031 "/>
</g>
</svg>
