<svg xmlns="http://www.w3.org/2000/svg" xmlns:xlink="http://www.w3.org/1999/xlink" width="1920" zoomAndPan="magnify" viewBox="0 0 1440 809.999993" height="1080" preserveAspectRatio="xMidYMid meet" version="1.0"><defs><clipPath id="id1"><path d="M 942 565 L 1114.871094 565 L 1114.871094 737.699219 L 942 737.699219 Z M 942 565 " clip-rule="nonzero"/></clipPath><clipPath id="id2"><path d="M 641 565 L 814 565 L 814 737.699219 L 641 737.699219 Z M 641 565 " clip-rule="nonzero"/></clipPath><clipPath id="id3"><path d="M 325.121094 565 L 527 565 L 527 737.699219 L 325.121094 737.699219 Z M 325.121094 565 " clip-rule="nonzero"/></clipPath><clipPath id="id4"><path d="M 559.453125 230.609375 L 880.453125 230.609375 L 880.453125 376.109375 L 559.453125 376.109375 Z M 559.453125 230.609375 " clip-rule="nonzero"/></clipPath></defs><g clip-path="url(#id1)"><path fill="#003e52" d="M 1114.851562 651.617188 C 1114.851562 653.027344 1114.816406 654.4375 1114.75 655.84375 C 1114.679688 657.253906 1114.574219 658.660156 1114.4375 660.0625 C 1114.300781 661.464844 1114.125 662.867188 1113.917969 664.261719 C 1113.710938 665.65625 1113.472656 667.042969 1113.195312 668.425781 C 1112.921875 669.808594 1112.613281 671.1875 1112.269531 672.554688 C 1111.925781 673.921875 1111.550781 675.28125 1111.140625 676.628906 C 1110.734375 677.980469 1110.289062 679.316406 1109.816406 680.644531 C 1109.339844 681.972656 1108.832031 683.289062 1108.292969 684.589844 C 1107.753906 685.894531 1107.183594 687.183594 1106.582031 688.457031 C 1105.976562 689.734375 1105.34375 690.992188 1104.679688 692.234375 C 1104.015625 693.480469 1103.320312 694.707031 1102.59375 695.914062 C 1101.871094 697.125 1101.117188 698.316406 1100.332031 699.488281 C 1099.550781 700.660156 1098.738281 701.8125 1097.898438 702.945312 C 1097.058594 704.078125 1096.191406 705.191406 1095.296875 706.28125 C 1094.402344 707.371094 1093.480469 708.4375 1092.535156 709.484375 C 1091.585938 710.527344 1090.613281 711.550781 1089.617188 712.546875 C 1088.621094 713.542969 1087.601562 714.515625 1086.554688 715.460938 C 1085.511719 716.410156 1084.445312 717.332031 1083.351562 718.226562 C 1082.261719 719.121094 1081.152344 719.988281 1080.019531 720.828125 C 1078.886719 721.667969 1077.734375 722.480469 1076.5625 723.261719 C 1075.390625 724.046875 1074.199219 724.800781 1072.988281 725.523438 C 1071.78125 726.25 1070.554688 726.945312 1069.3125 727.609375 C 1068.066406 728.273438 1066.808594 728.910156 1065.535156 729.511719 C 1064.257812 730.113281 1062.96875 730.683594 1061.667969 731.226562 C 1060.363281 731.765625 1059.050781 732.273438 1057.722656 732.746094 C 1056.394531 733.222656 1055.054688 733.664062 1053.707031 734.074219 C 1052.359375 734.484375 1051 734.859375 1049.632812 735.203125 C 1048.265625 735.542969 1046.886719 735.851562 1045.503906 736.128906 C 1044.121094 736.402344 1042.734375 736.644531 1041.339844 736.851562 C 1039.945312 737.058594 1038.546875 737.230469 1037.140625 737.371094 C 1035.738281 737.507812 1034.332031 737.609375 1032.925781 737.679688 C 1031.515625 737.75 1030.109375 737.785156 1028.699219 737.785156 C 1027.289062 737.785156 1025.878906 737.75 1024.46875 737.679688 C 1023.0625 737.609375 1021.65625 737.507812 1020.253906 737.371094 C 1018.851562 737.230469 1017.449219 737.058594 1016.054688 736.851562 C 1014.660156 736.644531 1013.273438 736.402344 1011.890625 736.128906 C 1010.507812 735.851562 1009.132812 735.542969 1007.765625 735.203125 C 1006.394531 734.859375 1005.039062 734.484375 1003.6875 734.074219 C 1002.339844 733.664062 1001 733.222656 999.671875 732.746094 C 998.34375 732.273438 997.03125 731.765625 995.726562 731.226562 C 994.425781 730.683594 993.136719 730.113281 991.863281 729.511719 C 990.585938 728.90625 989.328125 728.273438 988.085938 727.609375 C 986.839844 726.945312 985.613281 726.25 984.40625 725.523438 C 983.195312 724.800781 982.003906 724.046875 980.832031 723.261719 C 979.660156 722.480469 978.507812 721.667969 977.375 720.828125 C 976.242188 719.988281 975.132812 719.121094 974.042969 718.226562 C 972.953125 717.332031 971.882812 716.410156 970.839844 715.460938 C 969.796875 714.515625 968.773438 713.542969 967.777344 712.546875 C 966.78125 711.550781 965.808594 710.527344 964.859375 709.484375 C 963.914062 708.4375 962.992188 707.371094 962.097656 706.28125 C 961.203125 705.191406 960.335938 704.078125 959.496094 702.945312 C 958.65625 701.8125 957.847656 700.660156 957.0625 699.488281 C 956.28125 698.316406 955.523438 697.125 954.800781 695.914062 C 954.074219 694.707031 953.378906 693.480469 952.714844 692.234375 C 952.050781 690.992188 951.417969 689.734375 950.816406 688.457031 C 950.210938 687.183594 949.640625 685.894531 949.101562 684.589844 C 948.5625 683.289062 948.054688 681.972656 947.578125 680.644531 C 947.105469 679.316406 946.660156 677.980469 946.253906 676.628906 C 945.84375 675.28125 945.46875 673.921875 945.125 672.554688 C 944.78125 671.1875 944.472656 669.808594 944.199219 668.425781 C 943.921875 667.042969 943.683594 665.65625 943.476562 664.261719 C 943.269531 662.867188 943.097656 661.464844 942.957031 660.0625 C 942.820312 658.660156 942.714844 657.253906 942.648438 655.84375 C 942.578125 654.4375 942.542969 653.027344 942.542969 651.617188 C 942.542969 650.207031 942.578125 648.796875 942.648438 647.390625 C 942.714844 645.980469 942.820312 644.574219 942.957031 643.171875 C 943.097656 641.769531 943.269531 640.367188 943.476562 638.972656 C 943.683594 637.578125 943.921875 636.191406 944.199219 634.808594 C 944.472656 633.421875 944.78125 632.046875 945.125 630.679688 C 945.46875 629.3125 945.84375 627.953125 946.253906 626.605469 C 946.664062 625.253906 947.105469 623.917969 947.578125 622.589844 C 948.054688 621.261719 948.5625 619.945312 949.101562 618.640625 C 949.640625 617.339844 950.210938 616.050781 950.816406 614.777344 C 951.417969 613.5 952.050781 612.242188 952.714844 611 C 953.378906 609.753906 954.074219 608.527344 954.800781 607.316406 C 955.523438 606.109375 956.28125 604.917969 957.0625 603.746094 C 957.847656 602.574219 958.65625 601.421875 959.496094 600.289062 C 960.335938 599.15625 961.203125 598.042969 962.097656 596.953125 C 962.992188 595.863281 963.914062 594.796875 964.859375 593.75 C 965.808594 592.707031 966.78125 591.683594 967.777344 590.6875 C 968.773438 589.691406 969.796875 588.71875 970.839844 587.773438 C 971.882812 586.824219 972.953125 585.902344 974.042969 585.007812 C 975.132812 584.113281 976.242188 583.246094 977.375 582.40625 C 978.507812 581.566406 979.660156 580.753906 980.832031 579.972656 C 982.003906 579.1875 983.195312 578.433594 984.40625 577.710938 C 985.613281 576.984375 986.839844 576.289062 988.085938 575.625 C 989.328125 574.960938 990.585938 574.324219 991.863281 573.722656 C 993.136719 573.121094 994.425781 572.546875 995.726562 572.007812 C 997.03125 571.46875 998.34375 570.960938 999.671875 570.488281 C 1001 570.011719 1002.339844 569.570312 1003.6875 569.160156 C 1005.039062 568.75 1006.394531 568.375 1007.765625 568.03125 C 1009.132812 567.691406 1010.507812 567.382812 1011.890625 567.105469 C 1013.273438 566.832031 1014.660156 566.589844 1016.054688 566.382812 C 1017.449219 566.175781 1018.851562 566.003906 1020.253906 565.863281 C 1021.65625 565.726562 1023.0625 565.625 1024.46875 565.554688 C 1025.878906 565.484375 1027.289062 565.449219 1028.699219 565.449219 C 1030.109375 565.449219 1031.515625 565.484375 1032.925781 565.554688 C 1034.332031 565.625 1035.738281 565.726562 1037.140625 565.863281 C 1038.546875 566.003906 1039.945312 566.175781 1041.339844 566.382812 C 1042.734375 566.589844 1044.121094 566.832031 1045.503906 567.105469 C 1046.886719 567.382812 1048.265625 567.691406 1049.632812 568.03125 C 1051 568.375 1052.359375 568.75 1053.707031 569.160156 C 1055.054688 569.570312 1056.394531 570.011719 1057.722656 570.488281 C 1059.050781 570.960938 1060.363281 571.46875 1061.667969 572.007812 C 1062.96875 572.546875 1064.257812 573.121094 1065.535156 573.722656 C 1066.808594 574.324219 1068.066406 574.960938 1069.3125 575.625 C 1070.554688 576.289062 1071.78125 576.984375 1072.988281 577.710938 C 1074.199219 578.433594 1075.390625 579.1875 1076.5625 579.972656 C 1077.734375 580.753906 1078.886719 581.566406 1080.019531 582.40625 C 1081.152344 583.246094 1082.261719 584.113281 1083.355469 585.007812 C 1084.445312 585.902344 1085.511719 586.824219 1086.554688 587.773438 C 1087.601562 588.71875 1088.621094 589.691406 1089.617188 590.6875 C 1090.613281 591.683594 1091.585938 592.707031 1092.535156 593.75 C 1093.480469 594.796875 1094.402344 595.863281 1095.296875 596.953125 C 1096.191406 598.042969 1097.058594 599.15625 1097.898438 600.289062 C 1098.738281 601.421875 1099.550781 602.574219 1100.332031 603.746094 C 1101.117188 604.917969 1101.871094 606.109375 1102.59375 607.316406 C 1103.320312 608.527344 1104.015625 609.753906 1104.679688 611 C 1105.34375 612.242188 1105.976562 613.5 1106.582031 614.777344 C 1107.183594 616.050781 1107.753906 617.339844 1108.292969 618.640625 C 1108.832031 619.945312 1109.339844 621.261719 1109.816406 622.589844 C 1110.289062 623.917969 1110.734375 625.253906 1111.140625 626.605469 C 1111.550781 627.953125 1111.925781 629.3125 1112.269531 630.679688 C 1112.613281 632.046875 1112.921875 633.421875 1113.195312 634.808594 C 1113.472656 636.191406 1113.710938 637.578125 1113.917969 638.972656 C 1114.125 640.367188 1114.300781 641.769531 1114.4375 643.171875 C 1114.574219 644.574219 1114.679688 645.980469 1114.75 647.390625 C 1114.816406 648.796875 1114.851562 650.207031 1114.851562 651.617188 Z M 1114.851562 651.617188 " fill-opacity="1" fill-rule="nonzero"/></g><g clip-path="url(#id2)"><path fill="#003e52" d="M 641.003906 565.449219 L 641.003906 737.785156 L 813.3125 737.785156 L 813.3125 565.449219 Z M 641.003906 565.449219 " fill-opacity="1" fill-rule="nonzero"/></g><g clip-path="url(#id3)"><path fill="#003e52" d="M 325.101562 737.785156 L 526.128906 737.785156 L 425.617188 565.449219 Z M 325.101562 737.785156 " fill-opacity="1" fill-rule="nonzero"/></g><path fill="#003e52" d="M 1028.699219 278.226562 L 856.386719 278.226562 L 856.386719 335.671875 L 999.980469 335.671875 L 999.980469 464.921875 C 999.980469 465.863281 1000.027344 466.800781 1000.117188 467.738281 C 1000.210938 468.671875 1000.347656 469.601562 1000.53125 470.523438 C 1000.714844 471.449219 1000.941406 472.359375 1001.214844 473.257812 C 1001.488281 474.160156 1001.804688 475.042969 1002.164062 475.914062 C 1002.527344 476.78125 1002.925781 477.632812 1003.371094 478.460938 C 1003.8125 479.292969 1004.296875 480.097656 1004.820312 480.878906 C 1005.34375 481.660156 1005.902344 482.417969 1006.5 483.144531 C 1007.09375 483.871094 1007.726562 484.566406 1008.390625 485.230469 C 1009.054688 485.898438 1009.753906 486.527344 1010.480469 487.125 C 1011.207031 487.722656 1011.960938 488.28125 1012.742188 488.804688 C 1013.523438 489.328125 1014.332031 489.808594 1015.160156 490.253906 C 1015.988281 490.695312 1016.839844 491.097656 1017.707031 491.457031 C 1018.578125 491.816406 1019.460938 492.132812 1020.359375 492.40625 C 1021.261719 492.679688 1022.171875 492.910156 1023.09375 493.09375 C 1024.015625 493.277344 1024.945312 493.414062 1025.882812 493.507812 C 1026.820312 493.597656 1027.757812 493.644531 1028.699219 493.644531 C 1029.636719 493.644531 1030.578125 493.597656 1031.511719 493.507812 C 1032.449219 493.414062 1033.378906 493.277344 1034.300781 493.09375 C 1035.222656 492.910156 1036.132812 492.679688 1037.035156 492.40625 C 1037.933594 492.132812 1038.820312 491.816406 1039.6875 491.457031 C 1040.554688 491.097656 1041.40625 490.695312 1042.234375 490.253906 C 1043.066406 489.808594 1043.871094 489.328125 1044.652344 488.804688 C 1045.433594 488.28125 1046.1875 487.722656 1046.917969 487.125 C 1047.644531 486.527344 1048.339844 485.898438 1049.003906 485.230469 C 1049.667969 484.566406 1050.300781 483.871094 1050.898438 483.144531 C 1051.492188 482.417969 1052.054688 481.660156 1052.574219 480.878906 C 1053.097656 480.097656 1053.582031 479.292969 1054.023438 478.460938 C 1054.46875 477.632812 1054.871094 476.78125 1055.230469 475.914062 C 1055.589844 475.042969 1055.90625 474.160156 1056.179688 473.257812 C 1056.453125 472.359375 1056.679688 471.449219 1056.863281 470.527344 C 1057.046875 469.601562 1057.183594 468.671875 1057.277344 467.738281 C 1057.371094 466.800781 1057.414062 465.863281 1057.414062 464.921875 L 1057.414062 306.949219 C 1057.414062 306.007812 1057.363281 305.070312 1057.269531 304.136719 C 1057.175781 303.203125 1057.035156 302.273438 1056.851562 301.351562 C 1056.664062 300.429688 1056.433594 299.519531 1056.160156 298.621094 C 1055.886719 297.722656 1055.570312 296.839844 1055.207031 295.96875 C 1054.847656 295.101562 1054.445312 294.253906 1054 293.425781 C 1053.554688 292.597656 1053.074219 291.792969 1052.550781 291.011719 C 1052.027344 290.230469 1051.46875 289.476562 1050.871094 288.75 C 1050.277344 288.023438 1049.644531 287.328125 1048.980469 286.664062 C 1048.316406 286 1047.621094 285.367188 1046.894531 284.773438 C 1046.167969 284.175781 1045.414062 283.617188 1044.632812 283.09375 C 1043.851562 282.570312 1043.046875 282.085938 1042.21875 281.640625 C 1041.390625 281.199219 1040.542969 280.796875 1039.675781 280.433594 C 1038.808594 280.074219 1037.921875 279.757812 1037.023438 279.480469 C 1036.125 279.207031 1035.214844 278.976562 1034.292969 278.792969 C 1033.375 278.605469 1032.445312 278.46875 1031.511719 278.371094 C 1030.574219 278.277344 1029.636719 278.230469 1028.699219 278.226562 Z M 1028.699219 278.226562 " fill-opacity="1" fill-rule="nonzero"/><path fill="#003e52" d="M 698.4375 378.753906 L 698.4375 464.921875 C 698.4375 465.863281 698.484375 466.800781 698.578125 467.738281 C 698.667969 468.671875 698.808594 469.601562 698.992188 470.523438 C 699.175781 471.449219 699.402344 472.359375 699.675781 473.257812 C 699.949219 474.160156 700.265625 475.042969 700.625 475.914062 C 700.984375 476.78125 701.386719 477.632812 701.828125 478.460938 C 702.273438 479.292969 702.757812 480.097656 703.277344 480.878906 C 703.800781 481.660156 704.359375 482.417969 704.957031 483.144531 C 705.554688 483.871094 706.183594 484.566406 706.851562 485.230469 C 707.515625 485.898438 708.210938 486.527344 708.9375 487.125 C 709.664062 487.722656 710.417969 488.28125 711.203125 488.804688 C 711.984375 489.328125 712.789062 489.808594 713.617188 490.253906 C 714.449219 490.695312 715.296875 491.097656 716.167969 491.457031 C 717.035156 491.816406 717.921875 492.132812 718.820312 492.40625 C 719.71875 492.679688 720.632812 492.910156 721.554688 493.09375 C 722.476562 493.277344 723.40625 493.414062 724.34375 493.507812 C 725.277344 493.597656 726.214844 493.644531 727.15625 493.644531 C 728.097656 493.644531 729.035156 493.597656 729.972656 493.507812 C 730.90625 493.414062 731.835938 493.277344 732.757812 493.09375 C 733.683594 492.910156 734.59375 492.679688 735.492188 492.40625 C 736.394531 492.132812 737.277344 491.816406 738.148438 491.457031 C 739.015625 491.097656 739.863281 490.695312 740.695312 490.253906 C 741.523438 489.808594 742.328125 489.328125 743.113281 488.804688 C 743.894531 488.28125 744.648438 487.722656 745.375 487.125 C 746.101562 486.527344 746.796875 485.898438 747.464844 485.230469 C 748.128906 484.566406 748.757812 483.871094 749.355469 483.144531 C 749.953125 482.417969 750.511719 481.660156 751.035156 480.878906 C 751.558594 480.097656 752.039062 479.292969 752.484375 478.460938 C 752.925781 477.632812 753.328125 476.78125 753.6875 475.914062 C 754.046875 475.042969 754.367188 474.160156 754.636719 473.257812 C 754.910156 472.359375 755.140625 471.449219 755.324219 470.527344 C 755.507812 469.601562 755.644531 468.671875 755.738281 467.738281 C 755.828125 466.800781 755.875 465.863281 755.875 464.921875 L 755.875 378.753906 Z M 698.4375 378.753906 " fill-opacity="1" fill-rule="nonzero"/><path fill="#003e52" d="M 597.925781 278.226562 L 425.617188 278.226562 C 424.675781 278.230469 423.738281 278.277344 422.804688 278.371094 C 421.867188 278.46875 420.941406 278.605469 420.019531 278.792969 C 419.097656 278.976562 418.1875 279.207031 417.289062 279.484375 C 416.390625 279.757812 415.507812 280.074219 414.640625 280.4375 C 413.769531 280.796875 412.921875 281.199219 412.09375 281.644531 C 411.265625 282.085938 410.460938 282.570312 409.679688 283.09375 C 408.898438 283.617188 408.144531 284.175781 407.417969 284.773438 C 406.695312 285.367188 406 286 405.332031 286.664062 C 404.667969 287.328125 404.039062 288.023438 403.441406 288.75 C 402.847656 289.476562 402.285156 290.230469 401.761719 291.011719 C 401.242188 291.792969 400.757812 292.597656 400.3125 293.425781 C 399.871094 294.253906 399.46875 295.101562 399.105469 295.96875 C 398.746094 296.839844 398.425781 297.722656 398.152344 298.621094 C 397.878906 299.519531 397.648438 300.429688 397.464844 301.351562 C 397.277344 302.273438 397.136719 303.203125 397.042969 304.136719 C 396.949219 305.070312 396.902344 306.007812 396.898438 306.949219 L 396.898438 464.921875 C 396.898438 465.863281 396.945312 466.800781 397.035156 467.738281 C 397.128906 468.671875 397.265625 469.601562 397.449219 470.523438 C 397.632812 471.449219 397.859375 472.359375 398.132812 473.257812 C 398.40625 474.160156 398.722656 475.042969 399.082031 475.914062 C 399.445312 476.78125 399.84375 477.632812 400.289062 478.460938 C 400.730469 479.292969 401.214844 480.097656 401.738281 480.878906 C 402.261719 481.660156 402.820312 482.417969 403.417969 483.144531 C 404.011719 483.871094 404.644531 484.566406 405.308594 485.230469 C 405.972656 485.898438 406.671875 486.527344 407.398438 487.125 C 408.125 487.722656 408.878906 488.28125 409.660156 488.804688 C 410.441406 489.328125 411.25 489.808594 412.078125 490.253906 C 412.90625 490.695312 413.757812 491.097656 414.625 491.457031 C 415.496094 491.816406 416.378906 492.132812 417.28125 492.40625 C 418.179688 492.679688 419.089844 492.910156 420.011719 493.09375 C 420.9375 493.277344 421.863281 493.414062 422.800781 493.507812 C 423.738281 493.597656 424.675781 493.644531 425.617188 493.644531 C 426.554688 493.644531 427.496094 493.597656 428.429688 493.507812 C 429.367188 493.414062 430.296875 493.277344 431.21875 493.09375 C 432.140625 492.910156 433.050781 492.679688 433.953125 492.40625 C 434.851562 492.132812 435.738281 491.816406 436.605469 491.457031 C 437.476562 491.097656 438.324219 490.695312 439.152344 490.253906 C 439.984375 489.808594 440.789062 489.328125 441.570312 488.804688 C 442.351562 488.28125 443.109375 487.722656 443.835938 487.125 C 444.5625 486.527344 445.257812 485.898438 445.921875 485.230469 C 446.585938 484.566406 447.21875 483.871094 447.816406 483.144531 C 448.410156 482.417969 448.972656 481.660156 449.496094 480.878906 C 450.015625 480.097656 450.5 479.292969 450.941406 478.460938 C 451.386719 477.632812 451.789062 476.78125 452.148438 475.914062 C 452.507812 475.042969 452.824219 474.160156 453.097656 473.257812 C 453.371094 472.359375 453.597656 471.449219 453.78125 470.527344 C 453.964844 469.601562 454.105469 468.671875 454.195312 467.738281 C 454.289062 466.800781 454.335938 465.863281 454.335938 464.921875 L 454.335938 335.671875 L 597.925781 335.671875 Z M 597.925781 278.226562 " fill-opacity="1" fill-rule="nonzero"/><path fill="#003e52" d="M 626.644531 263.867188 L 626.644531 350.03125 L 827.671875 350.03125 L 827.671875 263.867188 Z M 684.078125 321.308594 C 683.136719 321.308594 682.203125 321.21875 681.277344 321.035156 C 680.351562 320.851562 679.457031 320.578125 678.585938 320.21875 C 677.714844 319.855469 676.886719 319.414062 676.101562 318.890625 C 675.316406 318.367188 674.59375 317.769531 673.925781 317.105469 C 673.257812 316.4375 672.664062 315.710938 672.140625 314.929688 C 671.617188 314.144531 671.175781 313.316406 670.8125 312.445312 C 670.453125 311.574219 670.179688 310.675781 669.996094 309.75 C 669.8125 308.824219 669.71875 307.890625 669.71875 306.949219 C 669.71875 306.007812 669.8125 305.070312 669.996094 304.148438 C 670.179688 303.222656 670.453125 302.324219 670.8125 301.453125 C 671.175781 300.582031 671.617188 299.753906 672.140625 298.96875 C 672.664062 298.1875 673.257812 297.460938 673.925781 296.792969 C 674.59375 296.128906 675.316406 295.53125 676.101562 295.007812 C 676.886719 294.484375 677.714844 294.042969 678.585938 293.679688 C 679.457031 293.320312 680.351562 293.046875 681.277344 292.863281 C 682.203125 292.679688 683.136719 292.589844 684.078125 292.589844 C 685.023438 292.589844 685.957031 292.679688 686.878906 292.863281 C 687.804688 293.046875 688.703125 293.320312 689.574219 293.679688 C 690.445312 294.042969 691.273438 294.484375 692.058594 295.007812 C 692.839844 295.53125 693.566406 296.128906 694.234375 296.792969 C 694.898438 297.460938 695.496094 298.1875 696.019531 298.96875 C 696.542969 299.753906 696.984375 300.582031 697.34375 301.453125 C 697.707031 302.324219 697.980469 303.222656 698.164062 304.148438 C 698.347656 305.070312 698.4375 306.007812 698.4375 306.949219 C 698.4375 307.890625 698.347656 308.824219 698.164062 309.75 C 697.980469 310.675781 697.707031 311.574219 697.34375 312.445312 C 696.984375 313.316406 696.542969 314.144531 696.019531 314.925781 C 695.496094 315.710938 694.898438 316.4375 694.234375 317.105469 C 693.566406 317.769531 692.839844 318.367188 692.058594 318.890625 C 691.273438 319.414062 690.445312 319.855469 689.574219 320.21875 C 688.703125 320.578125 687.804688 320.851562 686.878906 321.035156 C 685.957031 321.21875 685.023438 321.308594 684.078125 321.308594 Z M 770.234375 321.308594 C 769.292969 321.308594 768.359375 321.21875 767.433594 321.035156 C 766.507812 320.851562 765.609375 320.578125 764.738281 320.21875 C 763.867188 319.855469 763.039062 319.414062 762.257812 318.890625 C 761.472656 318.367188 760.746094 317.769531 760.082031 317.105469 C 759.414062 316.4375 758.820312 315.710938 758.292969 314.929688 C 757.769531 314.144531 757.328125 313.316406 756.96875 312.445312 C 756.605469 311.574219 756.335938 310.675781 756.152344 309.75 C 755.96875 308.824219 755.875 307.890625 755.875 306.949219 C 755.875 306.007812 755.96875 305.070312 756.152344 304.148438 C 756.335938 303.222656 756.605469 302.324219 756.96875 301.453125 C 757.328125 300.582031 757.769531 299.753906 758.292969 298.96875 C 758.820312 298.1875 759.414062 297.460938 760.082031 296.792969 C 760.746094 296.128906 761.472656 295.53125 762.257812 295.007812 C 763.039062 294.484375 763.867188 294.042969 764.738281 293.679688 C 765.609375 293.320312 766.507812 293.046875 767.433594 292.863281 C 768.359375 292.679688 769.292969 292.589844 770.234375 292.589844 C 771.175781 292.589844 772.109375 292.679688 773.035156 292.863281 C 773.960938 293.046875 774.859375 293.320312 775.730469 293.679688 C 776.601562 294.042969 777.425781 294.484375 778.210938 295.007812 C 778.996094 295.53125 779.722656 296.128906 780.386719 296.792969 C 781.054688 297.460938 781.648438 298.1875 782.171875 298.96875 C 782.695312 299.753906 783.140625 300.582031 783.5 301.453125 C 783.859375 302.324219 784.132812 303.222656 784.316406 304.148438 C 784.5 305.070312 784.59375 306.007812 784.59375 306.949219 C 784.59375 307.890625 784.5 308.824219 784.316406 309.75 C 784.132812 310.675781 783.859375 311.574219 783.5 312.445312 C 783.140625 313.316406 782.695312 314.144531 782.171875 314.925781 C 781.648438 315.710938 781.054688 316.4375 780.386719 317.105469 C 779.722656 317.769531 778.996094 318.367188 778.210938 318.890625 C 777.425781 319.414062 776.601562 319.855469 775.730469 320.21875 C 774.859375 320.578125 773.960938 320.851562 773.035156 321.035156 C 772.109375 321.21875 771.175781 321.308594 770.234375 321.308594 Z M 770.234375 321.308594 " fill-opacity="1" fill-rule="nonzero"/><g clip-path="url(#id4)"><path fill="#ffffff" d="M 559.453125 230.609375 L 880.449219 230.609375 L 880.449219 376.109375 L 559.453125 376.109375 L 559.453125 230.609375 " fill-opacity="1" fill-rule="nonzero"/></g><path fill="#ff8400" d="M 694.144531 75.734375 C 684.488281 74.058594 673.84375 78.582031 668.902344 87.183594 C 667.515625 89.414062 665.828125 92.589844 662.644531 91.886719 C 654.152344 90.472656 645.167969 91.402344 637.710938 95.925781 C 624.523438 103.277344 617.417969 121.050781 624.234375 135.015625 C 626.25 138.40625 623.449219 143.058594 619.59375 143.191406 C 608.105469 144.976562 597.960938 154.835938 597.304688 166.699219 C 596.777344 171.824219 598.421875 176.800781 600.890625 181.222656 C 603.109375 184.355469 601.464844 189.175781 597.722656 190.152344 C 585.90625 194.257812 575.546875 207.765625 580.320312 220.5 C 581.878906 226.007812 586.304688 229.769531 590.050781 233.804688 C 592.507812 236.726562 589.949219 240.515625 589.449219 243.652344 C 595.25 237.128906 603.269531 232.976562 611.851562 231.628906 C 618.039062 215.5625 636.828125 206.046875 653.417969 210.710938 C 658.660156 212.625 658.144531 221.355469 652.546875 222.453125 C 647.386719 222.46875 642.074219 220.941406 637.070312 222.957031 C 629.058594 225.347656 623.8125 232.714844 621.625 240.472656 C 620.367188 244.304688 615.695312 243.660156 612.550781 244.261719 C 602.691406 245.363281 594.863281 254.035156 593.535156 263.710938 C 597.84375 267.15625 596.316406 273.167969 598.773438 277.632812 C 603.230469 287.878906 614.761719 293.628906 625.632812 292.671875 C 629.019531 292.1875 632.203125 294.949219 632.078125 298.421875 C 630.953125 304.0625 628.007812 309.597656 629.179688 315.519531 C 630.910156 327.511719 642.054688 337 654.085938 337.199219 C 658.289062 336.8125 662.742188 338.183594 664.441406 342.40625 C 671.371094 355.800781 690.277344 359.519531 702.421875 351.148438 C 709.953125 346.394531 714.222656 337.382812 713.710938 328.554688 C 713.496094 308.152344 714.023438 287.71875 713.457031 267.34375 C 710.523438 261.921875 711.625 255.339844 708.453125 250 C 703.410156 240.214844 691.808594 234.835938 681.050781 236.136719 C 670.578125 237.179688 660.574219 243.992188 656.847656 254.050781 C 668.320312 257.726562 678.191406 268.65625 676.992188 281.277344 C 676.394531 286.902344 667.277344 287.789062 665.476562 282.550781 C 664.648438 278.589844 664.621094 274.097656 661.617188 271.003906 C 655.929688 264.007812 643.972656 264.253906 638.570312 271.464844 C 635.539062 274.753906 636.171875 279.523438 634.710938 283.441406 C 632.082031 287.734375 624.152344 286.5 623.566406 281.25 C 622.394531 268.488281 632.46875 256.753906 644.6875 254.179688 C 648.1875 240.125 659.960938 228.941406 673.992188 225.71875 C 688.054688 221.738281 703.753906 226.476562 713.757812 237.035156 C 713.640625 208.820312 713.671875 180.585938 713.730469 152.371094 C 702.214844 161.945312 686.195312 166.625 671.578125 162.273438 C 664.933594 160.042969 657.863281 157.363281 653.160156 151.929688 C 650.117188 147.347656 655.773438 141.125 660.5625 143.257812 C 664.691406 145.761719 668.605469 148.753906 673.304688 150.140625 C 682.863281 153.546875 693.878906 152.015625 702.210938 146.25 C 708.296875 142.171875 714.085938 135.976562 714.257812 128.234375 C 714.339844 118.203125 714.316406 108.175781 714.257812 98.144531 C 714.25 87.039062 704.835938 77.4375 694.144531 75.734375 Z M 694.144531 75.734375 " fill-opacity="1" fill-rule="nonzero"/><path fill="#ff8400" d="M 850.289062 196.203125 C 847.589844 193.253906 850.160156 189.304688 850.746094 186.042969 C 845.03125 192.640625 836.960938 196.761719 828.402344 198.117188 C 821.914062 214.101562 803.625 224.074219 786.75 219.894531 C 781.050781 218.492188 781.109375 209.304688 786.851562 207.960938 C 791.679688 207.734375 796.609375 209.433594 801.351562 207.789062 C 809.738281 205.742188 815.609375 198.316406 817.828125 190.25 C 818.925781 186.113281 823.828125 186.742188 827.113281 186.144531 C 836.917969 184.984375 844.648438 176.371094 846.046875 166.769531 C 843.5 164.539062 842.703125 161.375 842.429688 158.140625 C 840.34375 145.722656 827.785156 136.949219 815.496094 137.753906 C 811.839844 138.484375 807.4375 136.4375 807.507812 132.242188 C 808.523438 126.148438 811.910156 120.179688 810.195312 113.839844 C 807.851562 101.25 795.246094 92.21875 782.644531 93.136719 C 777.300781 94.007812 775.886719 87.996094 773.140625 84.792969 C 763.742188 72.847656 743.835938 72.277344 733.4375 83.207031 C 727.992188 89.058594 724.847656 97.144531 725.25 105.171875 C 725.332031 127.121094 725.222656 149.085938 725.292969 171.035156 C 725.347656 183.007812 735.320312 193.15625 746.808594 195.160156 C 760.039062 197.808594 774.769531 190.453125 779.714844 177.675781 C 768.453125 173.910156 758.722656 163.496094 759.421875 151.015625 C 759.394531 145.152344 768.410156 143.605469 770.878906 148.585938 C 771.925781 152.574219 771.679688 157.195312 774.722656 160.417969 C 780.242188 167.488281 792.125 167.488281 797.699219 160.460938 C 800.746094 157.226562 800.515625 152.5625 801.585938 148.527344 C 804.101562 143.632812 812.945312 145.164062 813.015625 150.960938 C 813.773438 163.609375 803.761719 174.925781 791.699219 177.53125 C 787.355469 196.535156 767.367188 209.066406 748.445312 207.09375 C 739.816406 206.40625 732 202.117188 725.257812 196.921875 C 725.285156 219.171875 725.242188 241.421875 725.285156 263.6875 C 732.171875 263.242188 738.570312 260.066406 745.484375 259.839844 C 755.019531 259.480469 764.6875 262.914062 771.664062 269.46875 C 778.234375 275.765625 782.183594 284.507812 783.367188 293.480469 C 792.941406 299.128906 798.226562 312.308594 792.410156 322.382812 C 789.335938 326.71875 782.191406 323.328125 782.324219 318.476562 C 782.394531 314.941406 783.777344 311.125 781.878906 307.820312 C 779.421875 302.652344 772.519531 300.335938 767.519531 303.238281 C 763.863281 304.898438 762.960938 309.175781 760.417969 311.925781 C 757.476562 314.484375 752.628906 313.199219 751.101562 309.703125 C 749.359375 306.085938 751.832031 302.277344 753.671875 299.246094 C 757.515625 293.308594 764.40625 290.386719 771.164062 289.359375 C 768.421875 280.730469 761.449219 273.648438 752.433594 271.875 C 743.273438 269.285156 734.929688 275.394531 725.867188 275.238281 C 725.894531 294.898438 725.785156 314.542969 725.910156 334.203125 C 726.335938 345.894531 737.011719 355.550781 748.429688 356.183594 C 757.871094 356.96875 767.300781 351.90625 772.273438 343.90625 C 773.648438 342.203125 774.574219 339.652344 776.964844 339.167969 C 779.304688 338.96875 781.636719 339.496094 783.976562 339.628906 C 797.863281 340.945312 812.226562 332.472656 817.382812 319.40625 C 820.667969 311.824219 820.554688 302.9375 816.972656 295.5 C 815.128906 291.839844 818.613281 287.65625 822.429688 287.6875 C 835.261719 285.566406 845.875 272.917969 843.960938 259.683594 C 843.777344 254.980469 840.605469 251.214844 839.40625 246.820312 C 839.132812 242.457031 843.347656 240.855469 846.621094 239.46875 C 857.683594 234.648438 864.195312 221.007812 859.925781 209.492188 C 858.351562 204.027344 854.121094 200.132812 850.289062 196.203125 Z M 850.289062 196.203125 " fill-opacity="1" fill-rule="nonzero"/></svg>