<svg xmlns="http://www.w3.org/2000/svg" xmlns:xlink="http://www.w3.org/1999/xlink" width="1920" zoomAndPan="magnify" viewBox="0 0 1440 809.999993" height="1080" preserveAspectRatio="xMidYMid meet" version="1.0"><defs><clipPath id="id1"><path d="M 406 80 L 818 80 L 818 731 L 406 731 Z M 406 80 " clip-rule="nonzero"/></clipPath><clipPath id="id2"><path d="M 492.898438 73.230469 L 829.933594 126.707031 L 733.089844 737.074219 L 396.054688 683.597656 Z M 492.898438 73.230469 " clip-rule="nonzero"/></clipPath><clipPath id="id3"><path d="M 492.898438 73.230469 L 829.933594 126.707031 L 733.089844 737.074219 L 396.054688 683.597656 Z M 492.898438 73.230469 " clip-rule="nonzero"/></clipPath></defs><g clip-path="url(#id1)"><g clip-path="url(#id2)"><g clip-path="url(#id3)"><path fill="#003e52" d="M 537.945312 80.484375 C 514.8125 76.8125 492.632812 96.265625 488.214844 124.105469 L 478.949219 182.5 C 477.003906 182.582031 475.332031 184.015625 475.011719 186.015625 L 472.023438 204.863281 C 471.707031 206.863281 472.851562 208.746094 474.679688 209.425781 L 471.453125 229.75 C 469.507812 229.832031 467.832031 231.265625 467.515625 233.265625 L 462.507812 264.847656 C 462.1875 266.847656 463.335938 268.730469 465.160156 269.410156 L 462.992188 283.070312 C 461.046875 283.152344 459.375 284.585938 459.054688 286.585938 L 454.046875 318.167969 C 453.730469 320.167969 454.875 322.050781 456.699219 322.730469 L 407.34375 633.808594 C 402.925781 661.644531 417.996094 687.011719 441.128906 690.683594 L 686.4375 729.605469 C 709.570312 733.273438 731.75 713.820312 736.167969 685.984375 L 793.984375 321.582031 C 794.234375 321.671875 794.492188 321.742188 794.765625 321.785156 C 797.050781 322.148438 799.179688 320.601562 799.542969 318.316406 L 804.554688 286.738281 C 804.914062 284.453125 803.367188 282.324219 801.082031 281.960938 C 800.8125 281.917969 800.542969 281.902344 800.277344 281.910156 L 817.039062 176.273438 C 821.457031 148.4375 806.390625 123.070312 783.257812 119.398438 L 537.945312 80.476562 Z M 658.597656 112.570312 C 658.917969 112.621094 659.226562 112.703125 659.527344 112.8125 C 659.828125 112.925781 660.117188 113.0625 660.390625 113.230469 C 660.664062 113.398438 660.921875 113.59375 661.15625 113.8125 C 661.390625 114.027344 661.605469 114.269531 661.792969 114.527344 C 661.980469 114.789062 662.144531 115.066406 662.277344 115.355469 C 662.414062 115.648438 662.519531 115.949219 662.59375 116.261719 C 662.667969 116.574219 662.710938 116.890625 662.722656 117.214844 C 662.738281 117.535156 662.71875 117.855469 662.667969 118.171875 C 662.617188 118.488281 662.535156 118.796875 662.425781 119.101562 C 662.3125 119.402344 662.171875 119.6875 662.003906 119.964844 C 661.835938 120.238281 661.644531 120.492188 661.425781 120.726562 C 661.207031 120.964844 660.96875 121.175781 660.707031 121.363281 C 660.449219 121.554688 660.171875 121.714844 659.878906 121.851562 C 659.589844 121.984375 659.285156 122.089844 658.972656 122.164062 C 658.660156 122.238281 658.34375 122.28125 658.023438 122.296875 C 657.703125 122.308594 657.382812 122.289062 657.066406 122.238281 C 656.746094 122.1875 656.4375 122.105469 656.136719 121.996094 C 655.835938 121.882812 655.546875 121.746094 655.273438 121.578125 C 655 121.410156 654.742188 121.214844 654.507812 120.996094 C 654.273438 120.78125 654.058594 120.539062 653.871094 120.28125 C 653.683594 120.019531 653.519531 119.742188 653.386719 119.453125 C 653.25 119.160156 653.144531 118.859375 653.070312 118.546875 C 652.996094 118.234375 652.953125 117.917969 652.941406 117.59375 C 652.925781 117.273438 652.945312 116.953125 652.996094 116.636719 C 653.046875 116.320312 653.128906 116.011719 653.238281 115.707031 C 653.351562 115.40625 653.492188 115.121094 653.660156 114.84375 C 653.828125 114.570312 654.019531 114.316406 654.238281 114.082031 C 654.457031 113.84375 654.695312 113.632812 654.957031 113.445312 C 655.214844 113.253906 655.492188 113.09375 655.785156 112.957031 C 656.074219 112.824219 656.378906 112.71875 656.691406 112.644531 C 657.003906 112.570312 657.320312 112.527344 657.640625 112.511719 C 657.960938 112.5 658.28125 112.519531 658.597656 112.570312 Z M 590.640625 121.65625 C 590.996094 121.714844 591.347656 121.804688 591.683594 121.929688 C 592.023438 122.054688 592.347656 122.214844 592.65625 122.402344 C 592.964844 122.589844 593.253906 122.808594 593.515625 123.054688 C 593.78125 123.300781 594.023438 123.570312 594.234375 123.859375 C 594.445312 124.152344 594.628906 124.464844 594.78125 124.792969 C 594.929688 125.121094 595.050781 125.460938 595.132812 125.8125 C 595.21875 126.164062 595.265625 126.519531 595.28125 126.882812 C 595.296875 127.242188 595.273438 127.601562 595.21875 127.960938 C 595.160156 128.316406 595.070312 128.664062 594.945312 129.003906 C 594.820312 129.34375 594.664062 129.667969 594.472656 129.976562 C 594.285156 130.285156 594.066406 130.570312 593.820312 130.835938 C 593.574219 131.101562 593.308594 131.339844 593.015625 131.550781 C 592.722656 131.765625 592.410156 131.945312 592.082031 132.097656 C 591.753906 132.25 591.414062 132.367188 591.0625 132.453125 C 590.710938 132.535156 590.355469 132.585938 589.992188 132.597656 C 589.632812 132.613281 589.273438 132.589844 588.914062 132.535156 C 588.558594 132.476562 588.210938 132.386719 587.871094 132.261719 C 587.53125 132.136719 587.207031 131.980469 586.898438 131.789062 C 586.589844 131.601562 586.304688 131.382812 586.039062 131.140625 C 585.773438 130.894531 585.535156 130.625 585.320312 130.332031 C 585.109375 130.039062 584.925781 129.730469 584.777344 129.398438 C 584.625 129.070312 584.507812 128.730469 584.421875 128.378906 C 584.339844 128.027344 584.289062 127.671875 584.273438 127.3125 C 584.261719 126.949219 584.28125 126.589844 584.339844 126.234375 C 584.394531 125.875 584.484375 125.527344 584.609375 125.1875 C 584.738281 124.851562 584.894531 124.527344 585.082031 124.21875 C 585.273438 123.910156 585.488281 123.621094 585.734375 123.355469 C 585.980469 123.09375 586.25 122.851562 586.542969 122.640625 C 586.835938 122.429688 587.144531 122.246094 587.472656 122.09375 C 587.800781 121.945312 588.140625 121.824219 588.492188 121.742188 C 588.84375 121.65625 589.203125 121.609375 589.5625 121.59375 C 589.925781 121.578125 590.285156 121.601562 590.640625 121.65625 Z M 623.335938 129.976562 L 688.359375 140.292969 C 689.667969 140.5 690.503906 142.015625 690.238281 143.6875 C 689.972656 145.363281 688.707031 146.542969 687.398438 146.335938 L 622.378906 136.019531 C 621.070312 135.8125 620.230469 134.296875 620.496094 132.625 C 620.761719 130.949219 622.03125 129.769531 623.335938 129.976562 Z M 493.09375 143.558594 L 806.386719 193.269531 L 731.296875 666.535156 L 418.003906 616.828125 Z M 572.90625 652.65625 C 573.6875 652.777344 574.460938 652.941406 575.226562 653.140625 C 575.992188 653.339844 576.746094 653.578125 577.492188 653.851562 C 578.234375 654.125 578.960938 654.4375 579.671875 654.78125 C 580.382812 655.125 581.078125 655.507812 581.753906 655.917969 C 582.425781 656.332031 583.078125 656.777344 583.710938 657.257812 C 584.339844 657.734375 584.949219 658.242188 585.527344 658.78125 C 586.109375 659.316406 586.664062 659.882812 587.1875 660.472656 C 587.714844 661.066406 588.210938 661.679688 588.675781 662.320312 C 589.140625 662.960938 589.570312 663.621094 589.972656 664.304688 C 590.371094 664.988281 590.738281 665.6875 591.070312 666.40625 C 591.398438 667.125 591.695312 667.859375 591.953125 668.609375 C 592.214844 669.355469 592.433594 670.113281 592.621094 670.882812 C 592.804688 671.652344 592.949219 672.429688 593.058594 673.214844 C 593.167969 673.996094 593.238281 674.785156 593.265625 675.574219 C 593.296875 676.367188 593.289062 677.15625 593.242188 677.945312 C 593.195312 678.734375 593.113281 679.523438 592.988281 680.304688 C 592.863281 681.085938 592.703125 681.859375 592.5 682.625 C 592.300781 683.390625 592.066406 684.144531 591.789062 684.886719 C 591.515625 685.628906 591.207031 686.355469 590.859375 687.066406 C 590.515625 687.777344 590.136719 688.472656 589.722656 689.144531 C 589.308594 689.820312 588.863281 690.472656 588.382812 691.105469 C 587.90625 691.734375 587.398438 692.339844 586.863281 692.921875 C 586.324219 693.503906 585.761719 694.054688 585.167969 694.582031 C 584.578125 695.105469 583.960938 695.601562 583.320312 696.066406 C 582.679688 696.53125 582.019531 696.964844 581.335938 697.363281 C 580.652344 697.765625 579.953125 698.128906 579.234375 698.460938 C 578.515625 698.792969 577.78125 699.085938 577.03125 699.34375 C 576.285156 699.605469 575.527344 699.828125 574.757812 700.011719 C 573.988281 700.195312 573.210938 700.339844 572.425781 700.449219 C 571.640625 700.558594 570.855469 700.628906 570.0625 700.660156 C 569.273438 700.6875 568.484375 700.679688 567.691406 700.632812 C 566.902344 700.585938 566.117188 700.503906 565.335938 700.378906 C 564.554688 700.253906 563.78125 700.09375 563.015625 699.890625 C 562.25 699.691406 561.492188 699.453125 560.75 699.179688 C 560.007812 698.90625 559.28125 698.597656 558.570312 698.25 C 557.859375 697.90625 557.164062 697.527344 556.488281 697.113281 C 555.816406 696.699219 555.164062 696.253906 554.53125 695.777344 C 553.902344 695.296875 553.292969 694.789062 552.714844 694.253906 C 552.132812 693.714844 551.578125 693.152344 551.054688 692.558594 C 550.527344 691.96875 550.03125 691.351562 549.566406 690.710938 C 549.101562 690.070312 548.671875 689.410156 548.269531 688.726562 C 547.871094 688.042969 547.503906 687.34375 547.171875 686.625 C 546.84375 685.90625 546.546875 685.171875 546.289062 684.425781 C 546.027344 683.675781 545.808594 682.917969 545.621094 682.148438 C 545.4375 681.378906 545.292969 680.601562 545.183594 679.820312 C 545.074219 679.035156 545.003906 678.25 544.972656 677.457031 C 544.945312 676.667969 544.953125 675.875 545 675.085938 C 545.046875 674.296875 545.128906 673.511719 545.253906 672.730469 C 545.378906 671.949219 545.539062 671.175781 545.742188 670.410156 C 545.941406 669.644531 546.175781 668.890625 546.453125 668.148438 C 546.726562 667.40625 547.035156 666.675781 547.382812 665.964844 C 547.726562 665.253906 548.105469 664.5625 548.519531 663.886719 C 548.933594 663.210938 549.378906 662.558594 549.855469 661.929688 C 550.335938 661.296875 550.84375 660.691406 551.378906 660.109375 C 551.917969 659.53125 552.480469 658.976562 553.074219 658.453125 C 553.664062 657.925781 554.28125 657.429688 554.921875 656.964844 C 555.5625 656.5 556.222656 656.070312 556.90625 655.667969 C 557.589844 655.269531 558.289062 654.902344 559.007812 654.570312 C 559.726562 654.242188 560.460938 653.945312 561.210938 653.6875 C 561.957031 653.429688 562.714844 653.207031 563.484375 653.023438 C 564.253906 652.835938 565.03125 652.691406 565.816406 652.582031 C 566.601562 652.472656 567.386719 652.40625 568.179688 652.375 C 568.96875 652.34375 569.757812 652.351562 570.550781 652.398438 C 571.339844 652.445312 572.125 652.53125 572.90625 652.65625 Z M 572.90625 652.65625 " fill-opacity="1" fill-rule="nonzero"/></g></g></g><path fill="#ff8400" d="M 912.300781 554.984375 C 907.578125 560.292969 899.488281 560.8125 894.179688 556.085938 C 888.875 551.488281 888.355469 543.398438 892.953125 538.089844 C 951.0625 471.476562 951.0625 372.175781 892.953125 305.628906 C 888.292969 300.257812 888.808594 292.164062 894.179688 287.503906 C 899.488281 282.84375 907.640625 283.363281 912.300781 288.734375 C 978.824219 364.992188 978.824219 478.664062 912.300781 554.984375 " fill-opacity="1" fill-rule="nonzero"/><path fill="#ff8400" d="M 872.699219 501.578125 C 868.554688 507.339844 860.597656 508.765625 854.773438 504.6875 C 849.011719 500.542969 847.589844 492.515625 851.730469 486.753906 C 879.167969 447.851562 879.167969 395.871094 851.730469 356.898438 C 847.589844 351.136719 849.011719 343.109375 854.773438 339.03125 C 860.597656 334.953125 868.554688 336.3125 872.699219 342.074219 C 906.410156 389.914062 906.410156 453.804688 872.699219 501.578125 " fill-opacity="1" fill-rule="nonzero"/><path fill="#ff8400" d="M 824.488281 457.691406 C 821.058594 463.90625 813.292969 466.171875 807.082031 462.675781 C 800.867188 459.242188 798.605469 451.476562 802.035156 445.261719 C 810.121094 430.695312 810.121094 413.023438 802.035156 398.457031 C 798.605469 392.246094 800.867188 384.410156 807.082031 380.980469 C 813.292969 377.550781 821.058594 379.75 824.488281 385.964844 C 836.847656 408.296875 836.847656 435.355469 824.488281 457.691406 " fill-opacity="1" fill-rule="nonzero"/></svg>