<?xml version="1.0" encoding="UTF-8"?>
<svg xmlns="http://www.w3.org/2000/svg" xmlns:xlink="http://www.w3.org/1999/xlink" width="1440pt" height="809.999993pt" viewBox="0 0 1440 809.999993" version="1.2">
<defs>
<clipPath id="clip1">
  <path d="M 426 135.515625 L 1013.886719 135.515625 L 1013.886719 674.765625 L 426 674.765625 Z M 426 135.515625 "/>
</clipPath>
<clipPath id="clip2">
  <path d="M 467.820312 291.320312 L 753.570312 291.320312 L 753.570312 584.570312 L 467.820312 584.570312 Z M 467.820312 291.320312 "/>
</clipPath>
<clipPath id="clip3">
  <path d="M 467.820312 177.242188 L 610.320312 177.242188 L 610.320312 216.242188 L 467.820312 216.242188 Z M 467.820312 177.242188 "/>
</clipPath>
</defs>
<g id="surface1">
<g clip-path="url(#clip1)" clip-rule="nonzero">
<path style=" stroke:none;fill-rule:nonzero;fill:rgb(0%,24.308777%,32.159424%);fill-opacity:1;" d="M 781.105469 576.722656 L 879.0625 576.722656 C 885.820312 576.722656 891.304688 571.230469 891.304688 564.464844 C 891.304688 557.699219 885.820312 552.210938 879.0625 552.210938 L 781.105469 552.210938 C 774.347656 552.210938 768.863281 557.699219 768.863281 564.464844 C 768.863281 571.230469 774.347656 576.722656 781.105469 576.722656 Z M 781.105469 429.652344 L 952.527344 429.652344 C 959.289062 429.652344 964.773438 424.164062 964.773438 417.398438 C 964.773438 410.632812 959.289062 405.140625 952.527344 405.140625 L 781.105469 405.140625 C 774.347656 405.140625 768.863281 410.632812 768.863281 417.398438 C 768.863281 424.164062 774.347656 429.652344 781.105469 429.652344 Z M 781.105469 356.121094 L 952.527344 356.121094 C 959.289062 356.121094 964.773438 350.628906 964.773438 343.863281 C 964.773438 337.097656 959.289062 331.609375 952.527344 331.609375 L 781.105469 331.609375 C 774.347656 331.609375 768.863281 337.097656 768.863281 343.863281 C 768.863281 350.628906 774.347656 356.121094 781.105469 356.121094 Z M 781.105469 503.1875 L 952.527344 503.1875 C 959.289062 503.1875 964.773438 497.695312 964.773438 490.933594 C 964.773438 484.167969 959.289062 478.675781 952.527344 478.675781 L 781.105469 478.675781 C 774.347656 478.675781 768.863281 484.167969 768.863281 490.933594 C 768.863281 497.695312 774.347656 503.1875 781.105469 503.1875 Z M 952.527344 135.515625 L 487.242188 135.515625 C 453.472656 135.515625 426.019531 163.019531 426.019531 196.796875 L 426.019531 613.488281 C 426.019531 647.265625 453.472656 674.765625 487.242188 674.765625 L 952.527344 674.765625 C 986.296875 674.765625 1013.75 647.265625 1013.75 613.488281 L 1013.75 196.796875 C 1013.75 163.019531 986.296875 135.515625 952.527344 135.515625 Z M 989.261719 613.488281 C 989.261719 633.757812 972.78125 650.257812 952.527344 650.257812 L 487.242188 650.257812 C 466.988281 650.257812 450.507812 633.757812 450.507812 613.488281 L 450.507812 258.074219 L 989.261719 258.074219 Z M 989.261719 233.5625 L 450.507812 233.5625 L 450.507812 196.796875 C 450.507812 176.523438 466.988281 160.027344 487.242188 160.027344 L 952.527344 160.027344 C 972.78125 160.027344 989.261719 176.523438 989.261719 196.796875 Z M 487.242188 576.722656 L 732.128906 576.699219 C 738.886719 576.699219 744.375 571.207031 744.375 564.441406 C 744.375 533.730469 723.558594 507.058594 693.855469 499.609375 L 657.097656 490.417969 L 655.554688 484.265625 C 665.078125 473.726562 671.863281 460.269531 674.679688 446.296875 C 681.21875 442.914062 685.945312 436.492188 686.921875 428.769531 L 689.566406 407.445312 C 690.375 400.976562 688.394531 394.457031 684.105469 389.554688 C 682.785156 388.058594 681.265625 386.734375 679.648438 385.632812 L 680.261719 372.617188 L 682.492188 370.386719 C 688.808594 363.667969 697.355469 349.328125 683.835938 328.640625 C 677.421875 318.8125 664.199219 307.097656 637.699219 307.097656 C 629.890625 307.097656 612.28125 307.097656 595.1875 317.808594 C 544.789062 319.597656 538.863281 346.78125 538.863281 367.296875 C 538.863281 371.339844 539.597656 378.914062 540.285156 385.238281 C 538.472656 386.390625 536.808594 387.8125 535.363281 389.453125 C 531.003906 394.40625 528.996094 400.949219 529.828125 407.445312 L 532.472656 428.769531 C 533.476562 436.761719 538.546875 443.378906 546.015625 446.640625 C 548.757812 460 555.171875 472.941406 564.113281 483.210938 L 562.324219 490.417969 L 525.566406 499.609375 C 495.8125 507.058594 474.996094 533.730469 474.996094 564.464844 C 474.996094 567.726562 476.269531 570.863281 478.574219 573.144531 C 480.875 575.421875 483.984375 576.722656 487.242188 576.722656 Z M 531.542969 523.359375 L 575.425781 512.378906 C 579.808594 511.277344 583.238281 507.84375 584.339844 503.457031 L 589.554688 482.550781 C 590.632812 478.234375 589.285156 473.675781 586.03125 470.636719 C 576.503906 461.664062 570.183594 448.550781 569.15625 435.5625 C 568.640625 429.210938 563.207031 425.683594 556.8125 425.683594 L 553.65625 406.171875 C 557.183594 406.171875 560.511719 404.675781 562.839844 402.03125 C 565.164062 399.40625 566.242188 395.902344 565.800781 392.394531 C 564.871094 384.992188 563.378906 371.609375 563.378906 367.296875 C 563.378906 354.601562 563.378906 342.613281 599.179688 342.246094 C 601.679688 342.222656 604.125 341.4375 606.183594 339.964844 C 617.839844 331.609375 631.261719 331.609375 637.699219 331.609375 C 650.335938 331.609375 658.738281 335.015625 663.339844 342.050781 C 668.3125 349.671875 666.277344 351.828125 664.90625 353.324219 L 659.59375 358.644531 C 657.4375 360.800781 656.164062 363.667969 656.019531 366.707031 L 654.71875 393.375 C 654.574219 396.710938 654.964844 399.039062 657.242188 401.464844 C 659.542969 403.890625 661.894531 404.382812 665.226562 404.40625 L 663.660156 424.335938 C 657.265625 424.335938 651.976562 429.238281 651.464844 435.609375 C 650.386719 448.820312 643.601562 462.523438 633.757812 471.371094 C 630.402344 474.386719 628.957031 479.042969 630.058594 483.457031 L 635.054688 503.480469 C 636.15625 507.871094 639.5625 511.324219 643.96875 512.402344 L 687.878906 523.386719 C 702.621094 527.085938 713.886719 538.214844 718.097656 552.210938 L 501.273438 552.1875 C 505.484375 538.214844 516.773438 527.085938 531.542969 523.359375 Z M 536.21875 184.539062 C 529.460938 184.539062 523.976562 190.03125 523.976562 196.796875 C 523.976562 203.5625 529.460938 209.050781 536.21875 209.050781 C 542.976562 209.050781 548.464844 203.5625 548.464844 196.796875 C 548.464844 190.03125 542.976562 184.539062 536.21875 184.539062 Z M 585.195312 184.539062 C 578.4375 184.539062 572.953125 190.03125 572.953125 196.796875 C 572.953125 203.5625 578.4375 209.050781 585.195312 209.050781 C 591.957031 209.050781 597.441406 203.5625 597.441406 196.796875 C 597.441406 190.03125 591.957031 184.539062 585.195312 184.539062 Z M 487.242188 184.539062 C 480.484375 184.539062 474.996094 190.03125 474.996094 196.796875 C 474.996094 203.5625 480.484375 209.050781 487.242188 209.050781 C 494 209.050781 499.484375 203.5625 499.484375 196.796875 C 499.484375 190.03125 494 184.539062 487.242188 184.539062 Z M 487.242188 184.539062 "/>
</g>
<g clip-path="url(#clip2)" clip-rule="nonzero">
<path style=" stroke:none;fill-rule:nonzero;fill:rgb(100%,51.759338%,0%);fill-opacity:1;" d="M 781.339844 577.007812 L 879.292969 577.007812 C 886.054688 577.007812 891.539062 571.515625 891.539062 564.75 C 891.539062 557.984375 886.054688 552.496094 879.292969 552.496094 L 781.339844 552.496094 C 774.582031 552.496094 769.09375 557.984375 769.09375 564.75 C 769.09375 571.515625 774.582031 577.007812 781.339844 577.007812 Z M 781.339844 429.9375 L 952.761719 429.9375 C 959.519531 429.9375 965.003906 424.449219 965.003906 417.683594 C 965.003906 410.917969 959.519531 405.425781 952.761719 405.425781 L 781.339844 405.425781 C 774.582031 405.425781 769.09375 410.917969 769.09375 417.683594 C 769.09375 424.449219 774.582031 429.9375 781.339844 429.9375 Z M 781.339844 356.402344 L 952.761719 356.402344 C 959.519531 356.402344 965.003906 350.914062 965.003906 344.148438 C 965.003906 337.382812 959.519531 331.894531 952.761719 331.894531 L 781.339844 331.894531 C 774.582031 331.894531 769.09375 337.382812 769.09375 344.148438 C 769.09375 350.914062 774.582031 356.402344 781.339844 356.402344 Z M 781.339844 503.472656 L 952.761719 503.472656 C 959.519531 503.472656 965.003906 497.980469 965.003906 491.214844 C 965.003906 484.453125 959.519531 478.960938 952.761719 478.960938 L 781.339844 478.960938 C 774.582031 478.960938 769.09375 484.453125 769.09375 491.214844 C 769.09375 497.980469 774.582031 503.472656 781.339844 503.472656 Z M 952.761719 135.800781 L 487.472656 135.800781 C 453.703125 135.800781 426.253906 163.304688 426.253906 197.082031 L 426.253906 613.773438 C 426.253906 647.550781 453.703125 675.050781 487.472656 675.050781 L 952.761719 675.050781 C 986.53125 675.050781 1013.984375 647.550781 1013.984375 613.773438 L 1013.984375 197.082031 C 1013.984375 163.304688 986.53125 135.800781 952.761719 135.800781 Z M 989.496094 613.773438 C 989.496094 634.042969 973.011719 650.539062 952.761719 650.539062 L 487.472656 650.539062 C 467.222656 650.539062 450.742188 634.042969 450.742188 613.773438 L 450.742188 258.359375 L 989.496094 258.359375 Z M 989.496094 233.847656 L 450.742188 233.847656 L 450.742188 197.082031 C 450.742188 176.808594 467.222656 160.3125 487.472656 160.3125 L 952.761719 160.3125 C 973.011719 160.3125 989.496094 176.808594 989.496094 197.082031 Z M 487.472656 577.007812 L 732.363281 576.980469 C 739.121094 576.980469 744.605469 571.492188 744.605469 564.726562 C 744.605469 534.011719 723.792969 507.34375 694.085938 499.894531 L 657.328125 490.703125 L 655.785156 484.550781 C 665.3125 474.007812 672.09375 460.554688 674.910156 446.582031 C 681.449219 443.199219 686.175781 436.777344 687.15625 429.054688 L 689.800781 407.730469 C 690.609375 401.261719 688.625 394.738281 684.339844 389.835938 C 683.015625 388.34375 681.5 387.019531 679.882812 385.914062 L 680.496094 372.898438 L 682.722656 370.667969 C 689.042969 363.953125 697.589844 349.613281 684.070312 328.925781 C 677.65625 319.097656 664.429688 307.382812 637.933594 307.382812 C 630.121094 307.382812 612.515625 307.382812 595.421875 318.09375 C 545.023438 319.882812 539.097656 347.066406 539.097656 367.582031 C 539.097656 371.625 539.832031 379.199219 540.515625 385.523438 C 538.703125 386.675781 537.039062 388.097656 535.59375 389.738281 C 531.234375 394.691406 529.226562 401.234375 530.058594 407.730469 L 532.707031 429.054688 C 533.710938 437.046875 538.777344 443.664062 546.246094 446.925781 C 548.992188 460.28125 555.40625 473.226562 564.34375 483.496094 L 562.558594 490.703125 L 525.800781 499.894531 C 496.046875 507.34375 475.230469 534.011719 475.230469 564.75 C 475.230469 568.011719 476.503906 571.148438 478.804688 573.425781 C 481.105469 575.707031 484.21875 577.007812 487.472656 577.007812 Z M 531.773438 523.644531 L 575.660156 512.664062 C 580.042969 511.5625 583.46875 508.128906 584.574219 503.742188 L 589.789062 482.832031 C 590.867188 478.519531 589.519531 473.960938 586.261719 470.921875 C 576.734375 461.949219 570.417969 448.835938 569.390625 435.84375 C 568.875 429.496094 563.4375 425.96875 557.046875 425.96875 L 553.886719 406.457031 C 557.414062 406.457031 560.746094 404.960938 563.070312 402.3125 C 565.398438 399.691406 566.476562 396.1875 566.035156 392.679688 C 565.105469 385.277344 563.609375 371.894531 563.609375 367.582031 C 563.609375 354.882812 563.609375 342.898438 599.414062 342.53125 C 601.910156 342.507812 604.359375 341.722656 606.417969 340.25 C 618.074219 331.894531 631.492188 331.894531 637.933594 331.894531 C 650.570312 331.894531 658.96875 335.300781 663.574219 342.335938 C 668.542969 349.957031 666.511719 352.113281 665.140625 353.609375 L 659.828125 358.929688 C 657.671875 361.085938 656.398438 363.953125 656.25 366.992188 L 654.953125 393.660156 C 654.804688 396.996094 655.199219 399.324219 657.476562 401.75 C 659.777344 404.175781 662.128906 404.667969 665.457031 404.691406 L 663.890625 424.621094 C 657.5 424.621094 652.210938 429.519531 651.695312 435.894531 C 650.617188 449.105469 643.835938 462.808594 633.992188 471.65625 C 630.636719 474.671875 629.191406 479.328125 630.292969 483.742188 L 635.289062 503.765625 C 636.390625 508.152344 639.792969 511.609375 644.203125 512.6875 L 688.109375 523.667969 C 702.851562 527.371094 714.117188 538.5 718.332031 552.496094 L 501.507812 552.46875 C 505.71875 538.5 517.007812 527.371094 531.773438 523.644531 Z M 536.453125 184.824219 C 529.691406 184.824219 524.207031 190.316406 524.207031 197.082031 C 524.207031 203.84375 529.691406 209.335938 536.453125 209.335938 C 543.210938 209.335938 548.695312 203.84375 548.695312 197.082031 C 548.695312 190.316406 543.210938 184.824219 536.453125 184.824219 Z M 585.429688 184.824219 C 578.671875 184.824219 573.183594 190.316406 573.183594 197.082031 C 573.183594 203.84375 578.671875 209.335938 585.429688 209.335938 C 592.1875 209.335938 597.675781 203.84375 597.675781 197.082031 C 597.675781 190.316406 592.1875 184.824219 585.429688 184.824219 Z M 487.472656 184.824219 C 480.714844 184.824219 475.230469 190.316406 475.230469 197.082031 C 475.230469 203.84375 480.714844 209.335938 487.472656 209.335938 C 494.234375 209.335938 499.71875 203.84375 499.71875 197.082031 C 499.71875 190.316406 494.234375 184.824219 487.472656 184.824219 Z M 487.472656 184.824219 "/>
</g>
<g clip-path="url(#clip3)" clip-rule="nonzero">
<path style=" stroke:none;fill-rule:nonzero;fill:rgb(100%,51.759338%,0%);fill-opacity:1;" d="M 781.339844 576.203125 L 879.292969 576.203125 C 886.054688 576.203125 891.539062 570.714844 891.539062 563.949219 C 891.539062 557.183594 886.054688 551.691406 879.292969 551.691406 L 781.339844 551.691406 C 774.582031 551.691406 769.09375 557.183594 769.09375 563.949219 C 769.09375 570.714844 774.582031 576.203125 781.339844 576.203125 Z M 781.339844 429.136719 L 952.761719 429.136719 C 959.519531 429.136719 965.003906 423.644531 965.003906 416.878906 C 965.003906 410.117188 959.519531 404.625 952.761719 404.625 L 781.339844 404.625 C 774.582031 404.625 769.09375 410.117188 769.09375 416.878906 C 769.09375 423.644531 774.582031 429.136719 781.339844 429.136719 Z M 781.339844 355.601562 L 952.761719 355.601562 C 959.519531 355.601562 965.003906 350.113281 965.003906 343.347656 C 965.003906 336.582031 959.519531 331.089844 952.761719 331.089844 L 781.339844 331.089844 C 774.582031 331.089844 769.09375 336.582031 769.09375 343.347656 C 769.09375 350.113281 774.582031 355.601562 781.339844 355.601562 Z M 781.339844 502.671875 L 952.761719 502.671875 C 959.519531 502.671875 965.003906 497.179688 965.003906 490.414062 C 965.003906 483.648438 959.519531 478.160156 952.761719 478.160156 L 781.339844 478.160156 C 774.582031 478.160156 769.09375 483.648438 769.09375 490.414062 C 769.09375 497.179688 774.582031 502.671875 781.339844 502.671875 Z M 952.761719 135 L 487.472656 135 C 453.703125 135 426.253906 162.5 426.253906 196.277344 L 426.253906 612.972656 C 426.253906 646.75 453.703125 674.25 487.472656 674.25 L 952.761719 674.25 C 986.53125 674.25 1013.984375 646.75 1013.984375 612.972656 L 1013.984375 196.277344 C 1013.984375 162.5 986.53125 135 952.761719 135 Z M 989.496094 612.972656 C 989.496094 633.242188 973.011719 649.738281 952.761719 649.738281 L 487.472656 649.738281 C 467.222656 649.738281 450.742188 633.242188 450.742188 612.972656 L 450.742188 257.558594 L 989.496094 257.558594 Z M 989.496094 233.046875 L 450.742188 233.046875 L 450.742188 196.277344 C 450.742188 176.007812 467.222656 159.511719 487.472656 159.511719 L 952.761719 159.511719 C 973.011719 159.511719 989.496094 176.007812 989.496094 196.277344 Z M 487.472656 576.203125 L 732.363281 576.179688 C 739.121094 576.179688 744.605469 570.691406 744.605469 563.925781 C 744.605469 533.210938 723.792969 506.542969 694.085938 499.09375 L 657.328125 489.898438 L 655.785156 483.746094 C 665.3125 473.207031 672.09375 459.75 674.910156 445.78125 C 681.449219 442.398438 686.175781 435.976562 687.15625 428.253906 L 689.800781 406.929688 C 690.609375 400.457031 688.625 393.9375 684.339844 389.035156 C 683.015625 387.539062 681.5 386.21875 679.882812 385.113281 L 680.496094 372.097656 L 682.722656 369.867188 C 689.042969 363.152344 697.589844 348.8125 684.070312 328.125 C 677.65625 318.296875 664.429688 306.578125 637.933594 306.578125 C 630.121094 306.578125 612.515625 306.578125 595.421875 317.292969 C 545.023438 319.082031 539.097656 346.261719 539.097656 366.78125 C 539.097656 370.824219 539.832031 378.398438 540.515625 384.722656 C 538.703125 385.875 537.039062 387.296875 535.59375 388.9375 C 531.234375 393.890625 529.226562 400.433594 530.058594 406.929688 L 532.707031 428.253906 C 533.710938 436.246094 538.777344 442.863281 546.246094 446.121094 C 548.992188 459.480469 555.40625 472.421875 564.34375 482.695312 L 562.558594 489.898438 L 525.800781 499.089844 C 496.046875 506.542969 475.230469 533.210938 475.230469 563.949219 C 475.230469 567.207031 476.503906 570.347656 478.804688 572.625 C 481.105469 574.90625 484.21875 576.203125 487.472656 576.203125 Z M 531.773438 522.84375 L 575.660156 511.863281 C 580.042969 510.757812 583.46875 507.328125 584.574219 502.941406 L 589.789062 482.03125 C 590.867188 477.71875 589.519531 473.160156 586.261719 470.121094 C 576.734375 461.148438 570.417969 448.035156 569.390625 435.042969 C 568.875 428.695312 563.4375 425.164062 557.046875 425.164062 L 553.886719 405.65625 C 557.414062 405.65625 560.746094 404.160156 563.070312 401.511719 C 565.398438 398.890625 566.476562 395.382812 566.035156 391.878906 C 565.105469 384.476562 563.609375 371.09375 563.609375 366.78125 C 563.609375 354.082031 563.609375 342.097656 599.414062 341.730469 C 601.910156 341.703125 604.359375 340.921875 606.417969 339.449219 C 618.074219 331.089844 631.492188 331.089844 637.933594 331.089844 C 650.570312 331.089844 658.96875 334.496094 663.574219 341.53125 C 668.542969 349.15625 666.511719 351.3125 665.140625 352.808594 L 659.828125 358.125 C 657.671875 360.285156 656.398438 363.152344 656.25 366.191406 L 654.953125 392.859375 C 654.804688 396.191406 655.199219 398.523438 657.476562 400.949219 C 659.777344 403.375 662.128906 403.863281 665.457031 403.890625 L 663.890625 423.816406 C 657.5 423.816406 652.210938 428.71875 651.695312 435.09375 C 650.617188 448.304688 643.835938 462.007812 633.992188 470.855469 C 630.636719 473.871094 629.191406 478.527344 630.292969 482.9375 L 635.289062 502.964844 C 636.390625 507.351562 639.792969 510.808594 644.203125 511.886719 L 688.109375 522.867188 C 702.851562 526.570312 714.117188 537.695312 718.332031 551.691406 L 501.507812 551.667969 C 505.71875 537.695312 517.007812 526.570312 531.773438 522.84375 Z M 536.453125 184.023438 C 529.691406 184.023438 524.207031 189.511719 524.207031 196.277344 C 524.207031 203.042969 529.691406 208.535156 536.453125 208.535156 C 543.210938 208.535156 548.695312 203.042969 548.695312 196.277344 C 548.695312 189.511719 543.210938 184.023438 536.453125 184.023438 Z M 585.429688 184.023438 C 578.671875 184.023438 573.183594 189.511719 573.183594 196.277344 C 573.183594 203.042969 578.671875 208.535156 585.429688 208.535156 C 592.1875 208.535156 597.675781 203.042969 597.675781 196.277344 C 597.675781 189.511719 592.1875 184.023438 585.429688 184.023438 Z M 487.472656 184.023438 C 480.714844 184.023438 475.230469 189.511719 475.230469 196.277344 C 475.230469 203.042969 480.714844 208.535156 487.472656 208.535156 C 494.234375 208.535156 499.71875 203.042969 499.71875 196.277344 C 499.71875 189.511719 494.234375 184.023438 487.472656 184.023438 Z M 487.472656 184.023438 "/>
</g>
</g>
</svg>
