<?xml version="1.0" encoding="UTF-8"?>
<svg xmlns="http://www.w3.org/2000/svg" xmlns:xlink="http://www.w3.org/1999/xlink" width="1440pt" height="809.999993pt" viewBox="0 0 1440 809.999993" version="1.2">
<defs>
<clipPath id="clip1">
  <path d="M 417.957031 102.957031 L 1021.707031 102.957031 L 1021.707031 706.707031 L 417.957031 706.707031 Z M 417.957031 102.957031 "/>
</clipPath>
<clipPath id="clip2">
  <path d="M 498 545 L 640 545 L 640 706.707031 L 498 706.707031 Z M 498 545 "/>
</clipPath>
<clipPath id="clip3">
  <path d="M 417.957031 102.957031 L 747.957031 102.957031 L 747.957031 384.957031 L 417.957031 384.957031 Z M 417.957031 102.957031 "/>
</clipPath>
<clipPath id="clip4">
  <path d="M 487.546875 539.96875 L 661.546875 539.96875 L 661.546875 706.707031 L 487.546875 706.707031 Z M 487.546875 539.96875 "/>
</clipPath>
<clipPath id="clip5">
  <path d="M 498 545 L 640 545 L 640 706.707031 L 498 706.707031 Z M 498 545 "/>
</clipPath>
</defs>
<g id="surface1">
<g clip-path="url(#clip1)" clip-rule="nonzero">
<path style=" stroke:none;fill-rule:nonzero;fill:rgb(0%,24.308777%,32.159424%);fill-opacity:1;" d="M 1001.582031 686.582031 L 981.457031 686.582031 L 981.457031 445.082031 L 1001.582031 445.082031 Z M 941.207031 686.582031 C 930.121094 686.582031 921.082031 677.542969 921.082031 666.457031 C 921.082031 660.914062 916.5625 656.394531 911.019531 656.394531 L 810.394531 656.394531 C 804.851562 656.394531 800.332031 660.914062 800.332031 666.457031 C 800.332031 677.542969 791.292969 686.582031 780.207031 686.582031 C 769.121094 686.582031 760.082031 677.542969 760.082031 666.457031 C 760.082031 655.371094 769.121094 646.332031 780.207031 646.332031 C 780.757812 646.332031 781.308594 646.292969 781.859375 646.214844 L 842.234375 636.152344 C 847.105469 635.324219 850.644531 631.121094 850.644531 626.207031 L 850.644531 545.707031 L 870.769531 545.707031 L 870.769531 626.207031 C 870.769531 631.121094 874.308594 635.324219 879.179688 636.152344 L 939.554688 646.214844 C 940.105469 646.292969 940.65625 646.332031 941.207031 646.332031 C 952.292969 646.332031 961.332031 655.371094 961.332031 666.457031 C 961.332031 677.542969 952.292969 686.582031 941.207031 686.582031 Z M 699.707031 510.488281 C 699.707031 502.15625 706.46875 495.394531 714.800781 495.394531 L 770.144531 495.394531 C 775.6875 495.394531 780.207031 490.875 780.207031 485.332031 L 780.207031 314.269531 C 780.207031 297.601562 793.726562 284.082031 810.394531 284.082031 L 931.144531 284.082031 C 947.808594 284.082031 961.332031 297.601562 961.332031 314.269531 L 961.332031 495.394531 C 961.332031 512.058594 947.808594 525.582031 931.144531 525.582031 L 714.800781 525.582031 C 706.46875 525.582031 699.707031 518.820312 699.707031 510.488281 Z M 468.269531 424.957031 L 438.082031 424.957031 L 438.082031 404.832031 L 760.082031 404.832031 L 760.082031 424.957031 Z M 458.207031 686.582031 L 438.082031 686.582031 L 438.082031 445.082031 L 458.207031 445.082031 Z M 556 344.457031 L 601.910156 344.457031 L 615.316406 384.707031 L 542.597656 384.707031 Z M 438.082031 314.269531 L 438.082031 304.207031 L 719.832031 304.207031 L 719.832031 314.269531 C 719.832031 319.8125 715.3125 324.332031 709.769531 324.332031 L 448.144531 324.332031 C 442.601562 324.332031 438.082031 319.8125 438.082031 314.269531 Z M 448.144531 123.082031 L 709.769531 123.082031 C 715.3125 123.082031 719.832031 127.601562 719.832031 133.144531 L 719.832031 284.082031 L 438.082031 284.082031 L 438.082031 133.144531 C 438.082031 127.601562 442.601562 123.082031 448.144531 123.082031 Z M 890.894531 545.707031 L 931.144531 545.707031 C 942.503906 545.707031 952.882812 541.777344 961.332031 535.371094 L 961.332031 631.828125 C 955.632812 628.488281 949.109375 626.363281 942.109375 626.207031 L 890.894531 617.675781 Z M 1001.582031 404.832031 L 1001.582031 424.957031 L 981.457031 424.957031 L 981.457031 404.832031 Z M 1011.644531 384.707031 L 981.457031 384.707031 L 981.457031 314.269531 C 981.457031 286.519531 958.894531 263.957031 931.144531 263.957031 L 810.394531 263.957031 C 782.644531 263.957031 760.082031 286.519531 760.082031 314.269531 L 760.082031 384.707031 L 636.5 384.707031 L 623.097656 344.457031 L 709.769531 344.457031 C 726.433594 344.457031 739.957031 330.933594 739.957031 314.269531 L 739.957031 133.144531 C 739.957031 116.476562 726.433594 102.957031 709.769531 102.957031 L 448.144531 102.957031 C 431.476562 102.957031 417.957031 116.476562 417.957031 133.144531 L 417.957031 314.269531 C 417.957031 330.933594 431.476562 344.457031 448.144531 344.457031 L 534.816406 344.457031 L 521.410156 384.707031 L 428.019531 384.707031 C 422.476562 384.707031 417.957031 389.226562 417.957031 394.769531 L 417.957031 696.644531 C 417.957031 702.1875 422.476562 706.707031 428.019531 706.707031 L 468.269531 706.707031 C 473.8125 706.707031 478.332031 702.1875 478.332031 696.644531 L 478.332031 445.082031 L 760.082031 445.082031 L 760.082031 475.269531 L 714.800781 475.269531 C 695.382812 475.269531 679.582031 491.070312 679.582031 510.488281 C 679.582031 529.90625 695.382812 545.707031 714.800781 545.707031 L 830.519531 545.707031 L 830.519531 617.675781 L 779.304688 626.207031 C 757.527344 626.679688 739.957031 644.5625 739.957031 666.457031 C 739.957031 688.664062 758 706.707031 780.207031 706.707031 C 798.917969 706.707031 814.71875 693.855469 819.160156 676.519531 L 902.253906 676.519531 C 906.695312 693.855469 922.496094 706.707031 941.207031 706.707031 C 948.910156 706.707031 956.066406 704.425781 962.195312 700.652344 C 963.730469 704.191406 967.265625 706.707031 971.394531 706.707031 L 1011.644531 706.707031 C 1017.1875 706.707031 1021.707031 702.1875 1021.707031 696.644531 L 1021.707031 394.769531 C 1021.707031 389.226562 1017.1875 384.707031 1011.644531 384.707031 "/>
</g>
<g clip-path="url(#clip2)" clip-rule="nonzero">
<path style=" stroke:none;fill-rule:nonzero;fill:rgb(0%,24.308777%,32.159424%);fill-opacity:1;" d="M 618.460938 565.832031 L 609.851562 686.582031 L 527.9375 686.582031 L 519.328125 565.832031 Z M 518.582031 706.707031 L 619.207031 706.707031 C 624.472656 706.707031 628.875 702.617188 629.230469 697.351562 L 639.292969 556.476562 C 639.527344 553.6875 638.546875 550.972656 636.621094 548.929688 C 634.734375 546.847656 632.058594 545.707031 629.269531 545.707031 L 508.519531 545.707031 C 505.730469 545.707031 503.054688 546.847656 501.167969 548.929688 C 499.242188 550.972656 498.261719 553.6875 498.496094 556.476562 L 508.558594 697.351562 C 508.914062 702.617188 513.316406 706.707031 518.582031 706.707031 "/>
</g>
<g clip-path="url(#clip3)" clip-rule="nonzero">
<path style=" stroke:none;fill-rule:nonzero;fill:rgb(100%,51.759338%,0%);fill-opacity:1;" d="M 1001.582031 686.582031 L 981.457031 686.582031 L 981.457031 445.082031 L 1001.582031 445.082031 Z M 941.207031 686.582031 C 930.121094 686.582031 921.082031 677.542969 921.082031 666.457031 C 921.082031 660.914062 916.5625 656.394531 911.019531 656.394531 L 810.394531 656.394531 C 804.851562 656.394531 800.332031 660.914062 800.332031 666.457031 C 800.332031 677.542969 791.292969 686.582031 780.207031 686.582031 C 769.121094 686.582031 760.082031 677.542969 760.082031 666.457031 C 760.082031 655.371094 769.121094 646.332031 780.207031 646.332031 C 780.757812 646.332031 781.308594 646.292969 781.859375 646.214844 L 842.234375 636.152344 C 847.105469 635.324219 850.644531 631.121094 850.644531 626.207031 L 850.644531 545.707031 L 870.769531 545.707031 L 870.769531 626.207031 C 870.769531 631.121094 874.308594 635.324219 879.179688 636.152344 L 939.554688 646.214844 C 940.105469 646.292969 940.65625 646.332031 941.207031 646.332031 C 952.292969 646.332031 961.332031 655.371094 961.332031 666.457031 C 961.332031 677.542969 952.292969 686.582031 941.207031 686.582031 Z M 699.707031 510.488281 C 699.707031 502.15625 706.46875 495.394531 714.800781 495.394531 L 770.144531 495.394531 C 775.6875 495.394531 780.207031 490.875 780.207031 485.332031 L 780.207031 314.269531 C 780.207031 297.601562 793.726562 284.082031 810.394531 284.082031 L 931.144531 284.082031 C 947.808594 284.082031 961.332031 297.601562 961.332031 314.269531 L 961.332031 495.394531 C 961.332031 512.058594 947.808594 525.582031 931.144531 525.582031 L 714.800781 525.582031 C 706.46875 525.582031 699.707031 518.820312 699.707031 510.488281 Z M 468.269531 424.957031 L 438.082031 424.957031 L 438.082031 404.832031 L 760.082031 404.832031 L 760.082031 424.957031 Z M 458.207031 686.582031 L 438.082031 686.582031 L 438.082031 445.082031 L 458.207031 445.082031 Z M 556 344.457031 L 601.910156 344.457031 L 615.316406 384.707031 L 542.597656 384.707031 Z M 438.082031 314.269531 L 438.082031 304.207031 L 719.832031 304.207031 L 719.832031 314.269531 C 719.832031 319.8125 715.3125 324.332031 709.769531 324.332031 L 448.144531 324.332031 C 442.601562 324.332031 438.082031 319.8125 438.082031 314.269531 Z M 448.144531 123.082031 L 709.769531 123.082031 C 715.3125 123.082031 719.832031 127.601562 719.832031 133.144531 L 719.832031 284.082031 L 438.082031 284.082031 L 438.082031 133.144531 C 438.082031 127.601562 442.601562 123.082031 448.144531 123.082031 Z M 890.894531 545.707031 L 931.144531 545.707031 C 942.503906 545.707031 952.882812 541.777344 961.332031 535.371094 L 961.332031 631.828125 C 955.632812 628.488281 949.109375 626.363281 942.109375 626.207031 L 890.894531 617.675781 Z M 1001.582031 404.832031 L 1001.582031 424.957031 L 981.457031 424.957031 L 981.457031 404.832031 Z M 1011.644531 384.707031 L 981.457031 384.707031 L 981.457031 314.269531 C 981.457031 286.519531 958.894531 263.957031 931.144531 263.957031 L 810.394531 263.957031 C 782.644531 263.957031 760.082031 286.519531 760.082031 314.269531 L 760.082031 384.707031 L 636.5 384.707031 L 623.097656 344.457031 L 709.769531 344.457031 C 726.433594 344.457031 739.957031 330.933594 739.957031 314.269531 L 739.957031 133.144531 C 739.957031 116.476562 726.433594 102.957031 709.769531 102.957031 L 448.144531 102.957031 C 431.476562 102.957031 417.957031 116.476562 417.957031 133.144531 L 417.957031 314.269531 C 417.957031 330.933594 431.476562 344.457031 448.144531 344.457031 L 534.816406 344.457031 L 521.410156 384.707031 L 428.019531 384.707031 C 422.476562 384.707031 417.957031 389.226562 417.957031 394.769531 L 417.957031 696.644531 C 417.957031 702.1875 422.476562 706.707031 428.019531 706.707031 L 468.269531 706.707031 C 473.8125 706.707031 478.332031 702.1875 478.332031 696.644531 L 478.332031 445.082031 L 760.082031 445.082031 L 760.082031 475.269531 L 714.800781 475.269531 C 695.382812 475.269531 679.582031 491.070312 679.582031 510.488281 C 679.582031 529.90625 695.382812 545.707031 714.800781 545.707031 L 830.519531 545.707031 L 830.519531 617.675781 L 779.304688 626.207031 C 757.527344 626.679688 739.957031 644.5625 739.957031 666.457031 C 739.957031 688.664062 758 706.707031 780.207031 706.707031 C 798.917969 706.707031 814.71875 693.855469 819.160156 676.519531 L 902.253906 676.519531 C 906.695312 693.855469 922.496094 706.707031 941.207031 706.707031 C 948.910156 706.707031 956.066406 704.425781 962.195312 700.652344 C 963.730469 704.191406 967.265625 706.707031 971.394531 706.707031 L 1011.644531 706.707031 C 1017.1875 706.707031 1021.707031 702.1875 1021.707031 696.644531 L 1021.707031 394.769531 C 1021.707031 389.226562 1017.1875 384.707031 1011.644531 384.707031 "/>
</g>
<g clip-path="url(#clip4)" clip-rule="nonzero">
<path style=" stroke:none;fill-rule:nonzero;fill:rgb(100%,51.759338%,0%);fill-opacity:1;" d="M 1001.582031 686.582031 L 981.457031 686.582031 L 981.457031 445.082031 L 1001.582031 445.082031 Z M 941.207031 686.582031 C 930.121094 686.582031 921.082031 677.542969 921.082031 666.457031 C 921.082031 660.914062 916.5625 656.394531 911.019531 656.394531 L 810.394531 656.394531 C 804.851562 656.394531 800.332031 660.914062 800.332031 666.457031 C 800.332031 677.542969 791.292969 686.582031 780.207031 686.582031 C 769.121094 686.582031 760.082031 677.542969 760.082031 666.457031 C 760.082031 655.371094 769.121094 646.332031 780.207031 646.332031 C 780.757812 646.332031 781.308594 646.292969 781.859375 646.214844 L 842.234375 636.152344 C 847.105469 635.324219 850.644531 631.121094 850.644531 626.207031 L 850.644531 545.707031 L 870.769531 545.707031 L 870.769531 626.207031 C 870.769531 631.121094 874.308594 635.324219 879.179688 636.152344 L 939.554688 646.214844 C 940.105469 646.292969 940.65625 646.332031 941.207031 646.332031 C 952.292969 646.332031 961.332031 655.371094 961.332031 666.457031 C 961.332031 677.542969 952.292969 686.582031 941.207031 686.582031 Z M 699.707031 510.488281 C 699.707031 502.15625 706.46875 495.394531 714.800781 495.394531 L 770.144531 495.394531 C 775.6875 495.394531 780.207031 490.875 780.207031 485.332031 L 780.207031 314.269531 C 780.207031 297.601562 793.726562 284.082031 810.394531 284.082031 L 931.144531 284.082031 C 947.808594 284.082031 961.332031 297.601562 961.332031 314.269531 L 961.332031 495.394531 C 961.332031 512.058594 947.808594 525.582031 931.144531 525.582031 L 714.800781 525.582031 C 706.46875 525.582031 699.707031 518.820312 699.707031 510.488281 Z M 468.269531 424.957031 L 438.082031 424.957031 L 438.082031 404.832031 L 760.082031 404.832031 L 760.082031 424.957031 Z M 458.207031 686.582031 L 438.082031 686.582031 L 438.082031 445.082031 L 458.207031 445.082031 Z M 556 344.457031 L 601.910156 344.457031 L 615.316406 384.707031 L 542.597656 384.707031 Z M 438.082031 314.269531 L 438.082031 304.207031 L 719.832031 304.207031 L 719.832031 314.269531 C 719.832031 319.8125 715.3125 324.332031 709.769531 324.332031 L 448.144531 324.332031 C 442.601562 324.332031 438.082031 319.8125 438.082031 314.269531 Z M 448.144531 123.082031 L 709.769531 123.082031 C 715.3125 123.082031 719.832031 127.601562 719.832031 133.144531 L 719.832031 284.082031 L 438.082031 284.082031 L 438.082031 133.144531 C 438.082031 127.601562 442.601562 123.082031 448.144531 123.082031 Z M 890.894531 545.707031 L 931.144531 545.707031 C 942.503906 545.707031 952.882812 541.777344 961.332031 535.371094 L 961.332031 631.828125 C 955.632812 628.488281 949.109375 626.363281 942.109375 626.207031 L 890.894531 617.675781 Z M 1001.582031 404.832031 L 1001.582031 424.957031 L 981.457031 424.957031 L 981.457031 404.832031 Z M 1011.644531 384.707031 L 981.457031 384.707031 L 981.457031 314.269531 C 981.457031 286.519531 958.894531 263.957031 931.144531 263.957031 L 810.394531 263.957031 C 782.644531 263.957031 760.082031 286.519531 760.082031 314.269531 L 760.082031 384.707031 L 636.5 384.707031 L 623.097656 344.457031 L 709.769531 344.457031 C 726.433594 344.457031 739.957031 330.933594 739.957031 314.269531 L 739.957031 133.144531 C 739.957031 116.476562 726.433594 102.957031 709.769531 102.957031 L 448.144531 102.957031 C 431.476562 102.957031 417.957031 116.476562 417.957031 133.144531 L 417.957031 314.269531 C 417.957031 330.933594 431.476562 344.457031 448.144531 344.457031 L 534.816406 344.457031 L 521.410156 384.707031 L 428.019531 384.707031 C 422.476562 384.707031 417.957031 389.226562 417.957031 394.769531 L 417.957031 696.644531 C 417.957031 702.1875 422.476562 706.707031 428.019531 706.707031 L 468.269531 706.707031 C 473.8125 706.707031 478.332031 702.1875 478.332031 696.644531 L 478.332031 445.082031 L 760.082031 445.082031 L 760.082031 475.269531 L 714.800781 475.269531 C 695.382812 475.269531 679.582031 491.070312 679.582031 510.488281 C 679.582031 529.90625 695.382812 545.707031 714.800781 545.707031 L 830.519531 545.707031 L 830.519531 617.675781 L 779.304688 626.207031 C 757.527344 626.679688 739.957031 644.5625 739.957031 666.457031 C 739.957031 688.664062 758 706.707031 780.207031 706.707031 C 798.917969 706.707031 814.71875 693.855469 819.160156 676.519531 L 902.253906 676.519531 C 906.695312 693.855469 922.496094 706.707031 941.207031 706.707031 C 948.910156 706.707031 956.066406 704.425781 962.195312 700.652344 C 963.730469 704.191406 967.265625 706.707031 971.394531 706.707031 L 1011.644531 706.707031 C 1017.1875 706.707031 1021.707031 702.1875 1021.707031 696.644531 L 1021.707031 394.769531 C 1021.707031 389.226562 1017.1875 384.707031 1011.644531 384.707031 "/>
</g>
<g clip-path="url(#clip5)" clip-rule="nonzero">
<path style=" stroke:none;fill-rule:nonzero;fill:rgb(100%,51.759338%,0%);fill-opacity:1;" d="M 618.460938 565.832031 L 609.851562 686.582031 L 527.9375 686.582031 L 519.328125 565.832031 Z M 518.582031 706.707031 L 619.207031 706.707031 C 624.472656 706.707031 628.875 702.617188 629.230469 697.351562 L 639.292969 556.476562 C 639.527344 553.6875 638.546875 550.972656 636.621094 548.929688 C 634.734375 546.847656 632.058594 545.707031 629.269531 545.707031 L 508.519531 545.707031 C 505.730469 545.707031 503.054688 546.847656 501.167969 548.929688 C 499.242188 550.972656 498.261719 553.6875 498.496094 556.476562 L 508.558594 697.351562 C 508.914062 702.617188 513.316406 706.707031 518.582031 706.707031 "/>
</g>
</g>
</svg>
