<svg xmlns="http://www.w3.org/2000/svg" width="1440" viewBox="0 0 1440 810" height="810" version="1.0"><defs><clipPath id="a"><path d="M 591 280.683594 L 849 280.683594 L 849 507.183594 L 591 507.183594 Z M 591 280.683594"/></clipPath></defs><path fill="#FFF" d="M 719.722656 749.71875 C 627.613281 749.71875 540.882812 713.867188 475.800781 648.648438 C 410.578125 583.5625 374.730469 496.832031 374.730469 404.722656 C 374.730469 312.613281 410.578125 225.882812 475.800781 160.800781 C 540.882812 95.578125 627.613281 59.730469 719.722656 59.730469 C 811.832031 59.730469 898.5625 95.578125 963.648438 160.800781 C 1028.867188 226.023438 1064.71875 312.613281 1064.71875 404.722656 C 1064.71875 496.832031 1028.867188 583.5625 963.648438 648.648438 C 898.5625 713.867188 811.832031 749.71875 719.722656 749.71875 Z M 719.722656 80.414062 C 633.128906 80.414062 551.640625 114.195312 490.417969 175.417969 C 429.195312 236.640625 395.414062 318.128906 395.414062 404.722656 C 395.414062 491.316406 429.195312 572.808594 490.417969 634.03125 C 551.640625 695.253906 633.128906 729.035156 719.722656 729.035156 C 806.316406 729.035156 887.808594 695.253906 949.03125 634.03125 C 1010.253906 572.808594 1044.035156 491.316406 1044.035156 404.722656 C 1044.035156 318.128906 1010.253906 236.640625 949.03125 175.417969 C 887.808594 114.195312 806.316406 80.414062 719.722656 80.414062 Z M 719.722656 80.414062"/><path fill="#FFF" d="M 719.796875 659.445312 C 651.808594 659.445312 587.789062 632.984375 539.75 584.84375 C 491.609375 536.800781 465.148438 472.785156 465.148438 404.796875 C 465.148438 336.808594 491.609375 272.789062 539.75 224.75 C 587.789062 176.609375 651.808594 150.148438 719.796875 150.148438 C 787.785156 150.148438 851.800781 176.609375 899.84375 224.75 C 947.984375 272.890625 974.445312 336.808594 974.445312 404.796875 C 974.445312 472.785156 947.984375 536.800781 899.84375 584.84375 C 851.800781 632.984375 787.785156 659.445312 719.796875 659.445312 Z M 719.796875 165.414062 C 655.878906 165.414062 595.730469 190.351562 550.539062 235.539062 C 505.351562 280.730469 480.414062 340.878906 480.414062 404.796875 C 480.414062 468.714844 505.351562 528.863281 550.539062 574.054688 C 595.730469 619.242188 655.878906 644.179688 719.796875 644.179688 C 783.714844 644.179688 843.863281 619.242188 889.054688 574.054688 C 934.242188 528.863281 959.179688 468.714844 959.179688 404.796875 C 959.179688 340.878906 934.242188 280.730469 889.054688 235.539062 C 843.863281 190.351562 783.714844 165.414062 719.796875 165.414062 Z M 719.796875 165.414062"/><g clip-path="url(#a)"><path fill="#FF8400" d="M 704.554688 290.703125 C 690.785156 314.757812 656.769531 374.949219 629.441406 423.320312 L 593.28125 487.257812 C 590.027344 492.980469 591.242188 497.507812 592.253906 499.695312 C 594.304688 504.125 598.679688 506.335938 602.089844 506.933594 L 602.773438 507.050781 L 836.117188 507.054688 L 835.628906 507.039062 C 839.289062 507.261719 844.148438 505.945312 846.804688 501.582031 C 848.503906 498.78125 849.722656 494.015625 845.859375 487.242188 L 773.613281 361.089844 L 733.632812 291.3125 C 728.625 282.5625 722.816406 280.71875 718.824219 280.71875 C 714.925781 280.71875 709.289062 282.449219 704.558594 290.703125 Z M 643.664062 431.605469 C 670.992188 383.253906 704.988281 323.085938 718.738281 299.066406 L 718.902344 298.804688 C 719.078125 299.074219 719.25 299.320312 719.445312 299.667969 L 759.4375 369.460938 C 759.4375 369.460938 823.238281 480.878906 828.699219 490.40625 L 610.410156 490.398438 L 643.664062 431.605469" fill-rule="evenodd"/></g><path fill="#FF8400" d="M 719.804688 478.328125 C 726.871094 478.328125 732.601562 472.398438 732.601562 465.089844 C 732.601562 457.785156 726.871094 451.859375 719.804688 451.859375 C 712.722656 451.859375 706.996094 457.785156 706.996094 465.089844 C 706.996094 472.398438 712.722656 478.328125 719.804688 478.328125" fill-rule="evenodd"/><path fill="#FF8400" d="M 719.804688 348.664062 C 730.015625 348.664062 739.402344 358.316406 738.296875 367.78125 L 729.550781 434.351562 C 728.699219 440.167969 725.183594 444.421875 719.804688 444.421875 C 714.421875 444.421875 710.898438 440.167969 710.058594 434.351562 L 701.304688 367.78125 C 700.195312 358.316406 709.585938 348.664062 719.804688 348.664062" fill-rule="evenodd"/></svg>