<svg xmlns="http://www.w3.org/2000/svg" width="1440" viewBox="0 0 1440 810" height="810" version="1.0"><defs><clipPath id="a"><path d="M 433 59.714844 L 1007 59.714844 L 1007 750.464844 L 433 750.464844 Z M 433 59.714844"/></clipPath><clipPath id="b"><path d="M 547.851562 178.675781 L 892.101562 178.675781 L 892.101562 522.925781 L 547.851562 522.925781 Z M 547.851562 178.675781"/></clipPath><clipPath id="c"><path d="M 592.476562 232 L 847 232 L 847 318 L 592.476562 318 Z M 592.476562 232"/></clipPath></defs><g clip-path="url(#a)"><path fill="#FFF" d="M 711.90625 745.003906 L 720.117188 750.765625 L 728.332031 745.019531 C 739.699219 737.050781 1006.78125 548.011719 1006.78125 360.664062 C 1006.78125 183.476562 888.890625 59.714844 720.117188 59.714844 C 551.347656 59.714844 433.457031 183.476562 433.457031 360.664062 C 433.457031 548.011719 700.539062 737.050781 711.90625 745.003906 Z M 720.117188 88.378906 C 874.445312 88.378906 978.117188 197.808594 978.117188 360.664062 C 978.117188 515.726562 765.011719 682.207031 720.117188 715.542969 C 675.214844 682.222656 462.121094 515.839844 462.121094 360.664062 C 462.121094 197.808594 565.792969 88.378906 720.117188 88.378906 Z M 720.117188 88.378906"/></g><path fill="#FFF" d="M 935.117188 346.332031 C 935.117188 227.804688 838.667969 131.371094 720.117188 131.371094 C 601.570312 131.371094 505.121094 227.804688 505.121094 346.332031 C 505.121094 464.863281 601.570312 561.296875 720.117188 561.296875 C 838.667969 561.296875 935.117188 464.863281 935.117188 346.332031 Z M 533.789062 346.332031 C 533.789062 243.609375 617.378906 160.03125 720.117188 160.03125 C 822.859375 160.03125 906.449219 243.609375 906.449219 346.332031 C 906.449219 449.058594 822.859375 532.636719 720.117188 532.636719 C 617.378906 532.636719 533.789062 449.070312 533.789062 346.332031 Z M 533.789062 346.332031"/><path fill="#FFF" d="M 834.785156 460.980469 L 834.785156 315.105469 L 855.238281 329.421875 L 871.664062 305.933594 L 791.785156 250.015625 L 791.785156 203.023438 L 763.117188 203.023438 L 763.117188 229.953125 L 720.117188 199.859375 L 568.574219 305.921875 L 585 329.410156 L 605.453125 315.105469 L 605.453125 460.980469 Z M 734.453125 432.320312 L 705.785156 432.320312 L 705.785156 374.996094 L 734.453125 374.996094 Z M 806.117188 295.042969 L 806.117188 432.320312 L 763.117188 432.320312 L 763.117188 346.332031 L 677.121094 346.332031 L 677.121094 432.320312 L 634.121094 432.320312 L 634.121094 295.042969 L 720.117188 234.855469 Z M 806.117188 295.042969"/><g clip-path="url(#b)"><path fill="#003D53" d="M 892.101562 350.800781 C 892.101562 353.617188 892.035156 356.433594 891.894531 359.246094 C 891.757812 362.058594 891.550781 364.867188 891.273438 367.671875 C 891 370.476562 890.652344 373.269531 890.242188 376.054688 C 889.828125 378.84375 889.34375 381.617188 888.796875 384.378906 C 888.246094 387.144531 887.628906 389.890625 886.945312 392.625 C 886.261719 395.355469 885.507812 398.070312 884.691406 400.765625 C 883.875 403.460938 882.992188 406.136719 882.042969 408.789062 C 881.09375 411.441406 880.078125 414.066406 879 416.667969 C 877.921875 419.273438 876.78125 421.847656 875.578125 424.394531 C 874.371094 426.941406 873.105469 429.453125 871.777344 431.9375 C 870.449219 434.421875 869.0625 436.875 867.613281 439.289062 C 866.167969 441.707031 864.660156 444.085938 863.09375 446.425781 C 861.53125 448.769531 859.910156 451.074219 858.230469 453.335938 C 856.550781 455.597656 854.820312 457.816406 853.03125 459.996094 C 851.246094 462.171875 849.40625 464.304688 847.515625 466.390625 C 845.621094 468.480469 843.679688 470.519531 841.6875 472.511719 C 839.695312 474.503906 837.65625 476.445312 835.570312 478.335938 C 833.484375 480.226562 831.351562 482.066406 829.171875 483.855469 C 826.996094 485.640625 824.777344 487.375 822.511719 489.050781 C 820.25 490.730469 817.949219 492.351562 815.605469 493.917969 C 813.261719 495.480469 810.882812 496.988281 808.46875 498.4375 C 806.050781 499.886719 803.601562 501.273438 801.117188 502.601562 C 798.632812 503.929688 796.117188 505.195312 793.570312 506.398438 C 791.023438 507.605469 788.449219 508.746094 785.847656 509.824219 C 783.246094 510.902344 780.617188 511.914062 777.964844 512.863281 C 775.3125 513.8125 772.640625 514.695312 769.945312 515.511719 C 767.246094 516.332031 764.535156 517.082031 761.800781 517.765625 C 759.070312 518.453125 756.320312 519.066406 753.558594 519.617188 C 750.796875 520.167969 748.019531 520.648438 745.234375 521.0625 C 742.449219 521.476562 739.652344 521.820312 736.847656 522.097656 C 734.046875 522.371094 731.238281 522.578125 728.425781 522.71875 C 725.609375 522.855469 722.796875 522.925781 719.976562 522.925781 C 717.160156 522.925781 714.347656 522.855469 711.53125 522.71875 C 708.71875 522.578125 705.910156 522.371094 703.105469 522.097656 C 700.304688 521.820312 697.507812 521.476562 694.722656 521.0625 C 691.9375 520.648438 689.160156 520.167969 686.398438 519.617188 C 683.636719 519.066406 680.886719 518.453125 678.15625 517.765625 C 675.421875 517.082031 672.707031 516.332031 670.011719 515.511719 C 667.316406 514.695312 664.644531 513.8125 661.992188 512.863281 C 659.339844 511.914062 656.710938 510.902344 654.109375 509.824219 C 651.507812 508.746094 648.933594 507.605469 646.386719 506.398438 C 643.839844 505.195312 641.324219 503.929688 638.839844 502.601562 C 636.355469 501.273438 633.90625 499.886719 631.488281 498.4375 C 629.070312 496.988281 626.691406 495.480469 624.351562 493.917969 C 622.007812 492.351562 619.707031 490.730469 617.445312 489.050781 C 615.179688 487.375 612.960938 485.640625 610.785156 483.855469 C 608.605469 482.066406 606.472656 480.226562 604.386719 478.335938 C 602.300781 476.445312 600.257812 474.503906 598.265625 472.511719 C 596.277344 470.519531 594.332031 468.480469 592.441406 466.390625 C 590.550781 464.304688 588.710938 462.171875 586.925781 459.996094 C 585.136719 457.816406 583.402344 455.597656 581.726562 453.335938 C 580.046875 451.074219 578.425781 448.769531 576.863281 446.425781 C 575.296875 444.085938 573.789062 441.707031 572.339844 439.289062 C 570.894531 436.875 569.503906 434.421875 568.175781 431.9375 C 566.851562 429.453125 565.582031 426.941406 564.378906 424.394531 C 563.175781 421.847656 562.035156 419.273438 560.957031 416.667969 C 559.878906 414.066406 558.863281 411.441406 557.914062 408.789062 C 556.964844 406.136719 556.082031 403.460938 555.265625 400.765625 C 554.445312 398.070312 553.695312 395.355469 553.011719 392.625 C 552.328125 389.890625 551.710938 387.144531 551.160156 384.378906 C 550.609375 381.617188 550.128906 378.84375 549.714844 376.054688 C 549.304688 373.269531 548.957031 370.476562 548.683594 367.671875 C 548.40625 364.867188 548.199219 362.058594 548.0625 359.246094 C 547.921875 356.433594 547.851562 353.617188 547.851562 350.800781 C 547.851562 347.984375 547.921875 345.167969 548.0625 342.355469 C 548.199219 339.539062 548.40625 336.730469 548.683594 333.929688 C 548.957031 331.125 549.304688 328.332031 549.714844 325.542969 C 550.128906 322.757812 550.609375 319.984375 551.160156 317.21875 C 551.710938 314.457031 552.328125 311.710938 553.011719 308.976562 C 553.695312 306.246094 554.445312 303.53125 555.265625 300.835938 C 556.082031 298.140625 556.964844 295.464844 557.914062 292.8125 C 558.863281 290.160156 559.878906 287.535156 560.957031 284.929688 C 562.035156 282.328125 563.175781 279.753906 564.378906 277.207031 C 565.582031 274.660156 566.851562 272.144531 568.175781 269.660156 C 569.503906 267.175781 570.894531 264.726562 572.339844 262.308594 C 573.789062 259.894531 575.296875 257.515625 576.863281 255.171875 C 578.425781 252.832031 580.046875 250.527344 581.726562 248.265625 C 583.402344 246.003906 585.136719 243.78125 586.925781 241.605469 C 588.710938 239.429688 590.550781 237.296875 592.441406 235.207031 C 594.332031 233.121094 596.277344 231.082031 598.265625 229.089844 C 600.257812 227.097656 602.300781 225.15625 604.386719 223.265625 C 606.472656 221.371094 608.605469 219.53125 610.785156 217.746094 C 612.960938 215.957031 615.179688 214.226562 617.445312 212.546875 C 619.707031 210.871094 622.007812 209.25 624.351562 207.683594 C 626.691406 206.117188 629.070312 204.613281 631.488281 203.164062 C 633.90625 201.714844 636.355469 200.328125 638.839844 199 C 641.324219 197.671875 643.839844 196.40625 646.386719 195.199219 C 648.933594 193.996094 651.507812 192.855469 654.109375 191.777344 C 656.710938 190.699219 659.339844 189.6875 661.992188 188.738281 C 664.644531 187.789062 667.316406 186.90625 670.011719 186.085938 C 672.707031 185.269531 675.421875 184.519531 678.15625 183.832031 C 680.886719 183.148438 683.636719 182.53125 686.398438 181.984375 C 689.160156 181.433594 691.9375 180.953125 694.722656 180.539062 C 697.507812 180.125 700.304688 179.78125 703.105469 179.503906 C 705.910156 179.226562 708.71875 179.019531 711.53125 178.882812 C 714.347656 178.746094 717.160156 178.675781 719.976562 178.675781 C 722.796875 178.675781 725.609375 178.746094 728.425781 178.882812 C 731.238281 179.019531 734.046875 179.226562 736.847656 179.503906 C 739.652344 179.78125 742.449219 180.125 745.234375 180.539062 C 748.019531 180.953125 750.796875 181.433594 753.558594 181.984375 C 756.320312 182.53125 759.070312 183.148438 761.800781 183.832031 C 764.535156 184.519531 767.246094 185.269531 769.945312 186.085938 C 772.640625 186.90625 775.3125 187.789062 777.964844 188.738281 C 780.617188 189.6875 783.246094 190.699219 785.847656 191.777344 C 788.449219 192.855469 791.023438 193.996094 793.570312 195.199219 C 796.117188 196.40625 798.632812 197.671875 801.117188 199 C 803.601562 200.328125 806.050781 201.714844 808.46875 203.164062 C 810.882812 204.613281 813.261719 206.117188 815.605469 207.683594 C 817.949219 209.25 820.25 210.871094 822.511719 212.546875 C 824.777344 214.226562 826.996094 215.957031 829.171875 217.746094 C 831.351562 219.53125 833.484375 221.371094 835.570312 223.265625 C 837.65625 225.15625 839.695312 227.097656 841.6875 229.089844 C 843.679688 231.082031 845.621094 233.121094 847.515625 235.207031 C 849.40625 237.296875 851.246094 239.429688 853.03125 241.605469 C 854.820312 243.78125 856.550781 246.003906 858.230469 248.265625 C 859.910156 250.527344 861.53125 252.832031 863.09375 255.171875 C 864.660156 257.515625 866.167969 259.894531 867.613281 262.308594 C 869.0625 264.726562 870.449219 267.175781 871.777344 269.660156 C 873.105469 272.144531 874.371094 274.660156 875.578125 277.207031 C 876.78125 279.753906 877.921875 282.328125 879 284.929688 C 880.078125 287.535156 881.09375 290.160156 882.042969 292.8125 C 882.992188 295.464844 883.875 298.140625 884.691406 300.835938 C 885.507812 303.53125 886.261719 306.246094 886.945312 308.976562 C 887.628906 311.710938 888.246094 314.457031 888.796875 317.21875 C 889.34375 319.984375 889.828125 322.757812 890.242188 325.542969 C 890.652344 328.332031 891 331.125 891.273438 333.929688 C 891.550781 336.730469 891.757812 339.539062 891.894531 342.355469 C 892.035156 345.167969 892.101562 347.984375 892.101562 350.800781 Z M 892.101562 350.800781"/></g><g clip-path="url(#c)"><path fill="#FF8400" d="M 831.421875 317.398438 C 829.144531 317.394531 826.976562 316.902344 824.925781 315.917969 L 719.492188 265.613281 L 614.058594 315.917969 C 613.484375 316.191406 612.898438 316.425781 612.296875 316.628906 C 611.695312 316.828125 611.082031 316.988281 610.457031 317.109375 C 609.835938 317.230469 609.207031 317.316406 608.574219 317.355469 C 607.941406 317.398438 607.308594 317.402344 606.675781 317.367188 C 606.042969 317.328125 605.414062 317.253906 604.789062 317.136719 C 604.167969 317.019531 603.550781 316.863281 602.949219 316.667969 C 602.34375 316.476562 601.753906 316.246094 601.179688 315.976562 C 600.605469 315.707031 600.046875 315.402344 599.511719 315.066406 C 598.976562 314.726562 598.460938 314.355469 597.972656 313.953125 C 597.484375 313.546875 597.019531 313.113281 596.585938 312.652344 C 596.148438 312.191406 595.746094 311.703125 595.371094 311.191406 C 594.996094 310.675781 594.65625 310.140625 594.351562 309.585938 C 594.042969 309.03125 593.773438 308.457031 593.539062 307.867188 C 593.304688 307.277344 593.109375 306.675781 592.953125 306.058594 C 592.792969 305.445312 592.675781 304.820312 592.597656 304.191406 C 592.515625 303.5625 592.476562 302.929688 592.476562 302.292969 C 592.480469 300.871094 592.683594 299.472656 593.078125 298.105469 C 593.476562 296.738281 594.054688 295.453125 594.8125 294.25 C 595.570312 293.042969 596.480469 291.96875 597.542969 291.019531 C 598.605469 290.070312 599.777344 289.289062 601.058594 288.671875 L 718.015625 232.863281 C 718.480469 232.640625 718.96875 232.53125 719.480469 232.53125 C 719.996094 232.53125 720.484375 232.640625 720.945312 232.863281 L 837.902344 288.671875 C 838.667969 289.039062 839.398438 289.464844 840.09375 289.957031 C 840.785156 290.445312 841.433594 290.988281 842.035156 291.589844 C 842.636719 292.1875 843.183594 292.832031 843.675781 293.523438 C 844.171875 294.214844 844.601562 294.941406 844.972656 295.707031 C 845.34375 296.472656 845.644531 297.261719 845.882812 298.078125 C 846.121094 298.894531 846.289062 299.722656 846.382812 300.566406 C 846.480469 301.410156 846.507812 302.257812 846.460938 303.105469 C 846.417969 303.953125 846.300781 304.792969 846.113281 305.621094 C 845.925781 306.449219 845.671875 307.257812 845.347656 308.042969 C 845.023438 308.828125 844.636719 309.578125 844.1875 310.300781 C 843.738281 311.019531 843.230469 311.699219 842.667969 312.332031 C 842.101562 312.964844 841.488281 313.550781 840.828125 314.082031 C 840.164062 314.613281 839.460938 315.082031 838.71875 315.496094 C 837.976562 315.90625 837.207031 316.253906 836.40625 316.535156 C 835.605469 316.820312 834.785156 317.03125 833.949219 317.175781 C 833.113281 317.320312 832.269531 317.390625 831.421875 317.394531 Z M 719.484375 258.421875 C 719.996094 258.425781 720.484375 258.535156 720.945312 258.753906 L 827.863281 309.769531 C 828.492188 310.078125 829.148438 310.300781 829.835938 310.4375 C 830.519531 310.578125 831.214844 310.625 831.914062 310.585938 C 832.609375 310.542969 833.292969 310.414062 833.957031 310.195312 C 834.625 309.976562 835.25 309.679688 835.839844 309.300781 C 836.429688 308.929688 836.96875 308.488281 837.449219 307.980469 C 837.925781 307.472656 838.335938 306.910156 838.671875 306.300781 C 839.011719 305.6875 839.265625 305.042969 839.441406 304.363281 C 839.613281 303.6875 839.699219 302.996094 839.695312 302.296875 C 839.695312 301.515625 839.585938 300.75 839.367188 300 C 839.148438 299.25 838.832031 298.542969 838.414062 297.882812 C 837.996094 297.222656 837.5 296.628906 836.914062 296.109375 C 836.332031 295.589844 835.6875 295.160156 834.984375 294.820312 L 719.484375 239.710938 L 604.003906 294.816406 C 603.335938 295.136719 602.722656 295.539062 602.164062 296.023438 C 601.601562 296.503906 601.117188 297.054688 600.703125 297.667969 C 600.289062 298.285156 599.964844 298.941406 599.730469 299.644531 C 599.492188 300.34375 599.351562 301.066406 599.308594 301.804688 C 599.265625 302.542969 599.320312 303.277344 599.472656 304 C 599.625 304.726562 599.871094 305.417969 600.207031 306.074219 C 600.546875 306.734375 600.964844 307.335938 601.464844 307.882812 C 601.964844 308.429688 602.527344 308.902344 603.152344 309.296875 C 603.738281 309.675781 604.367188 309.972656 605.03125 310.191406 C 605.699219 310.410156 606.378906 310.539062 607.078125 310.578125 C 607.777344 310.621094 608.46875 310.574219 609.15625 310.433594 C 609.84375 310.296875 610.5 310.074219 611.128906 309.765625 L 718.015625 258.757812 C 718.480469 258.535156 718.96875 258.425781 719.484375 258.421875 Z M 719.484375 258.421875"/></g><path fill="#FF8400" d="M 815.636719 469.089844 L 623.34375 469.089844 C 622.890625 469.089844 622.457031 469.003906 622.039062 468.828125 C 621.625 468.65625 621.253906 468.410156 620.9375 468.089844 C 620.617188 467.773438 620.371094 467.402344 620.199219 466.984375 C 620.027344 466.570312 619.9375 466.132812 619.9375 465.683594 L 619.9375 307.714844 C 619.941406 307.058594 620.113281 306.453125 620.464844 305.898438 C 620.8125 305.34375 621.285156 304.925781 621.875 304.640625 L 718.015625 258.757812 C 718.480469 258.539062 718.96875 258.425781 719.480469 258.425781 C 719.996094 258.425781 720.484375 258.539062 720.945312 258.757812 L 817.101562 304.640625 C 817.695312 304.925781 818.164062 305.34375 818.515625 305.898438 C 818.863281 306.453125 819.039062 307.058594 819.039062 307.714844 L 819.039062 465.683594 C 819.039062 466.132812 818.953125 466.570312 818.78125 466.984375 C 818.605469 467.402344 818.363281 467.773438 818.042969 468.089844 C 817.722656 468.410156 817.355469 468.65625 816.9375 468.828125 C 816.519531 469.003906 816.085938 469.089844 815.636719 469.089844 Z M 626.746094 462.28125 L 812.234375 462.28125 L 812.234375 309.859375 L 719.472656 265.601562 L 626.746094 309.859375 Z M 626.746094 462.28125"/><path fill="#FF8400" d="M 804.242188 279.789062 C 803.730469 279.789062 803.242188 279.679688 802.777344 279.457031 L 779.132812 268.171875 C 778.542969 267.890625 778.070312 267.472656 777.71875 266.917969 C 777.367188 266.363281 777.191406 265.757812 777.1875 265.101562 L 777.1875 236.472656 C 777.1875 236.023438 777.273438 235.589844 777.449219 235.171875 C 777.621094 234.753906 777.867188 234.386719 778.1875 234.066406 C 778.503906 233.746094 778.875 233.5 779.289062 233.328125 C 779.707031 233.152344 780.140625 233.066406 780.59375 233.066406 L 804.242188 233.066406 C 804.691406 233.066406 805.128906 233.152344 805.542969 233.328125 C 805.960938 233.5 806.328125 233.746094 806.648438 234.066406 C 806.96875 234.386719 807.214844 234.753906 807.386719 235.171875 C 807.558594 235.589844 807.644531 236.023438 807.644531 236.472656 L 807.644531 276.386719 C 807.644531 276.835938 807.558594 277.273438 807.386719 277.691406 C 807.214844 278.105469 806.96875 278.476562 806.648438 278.792969 C 806.328125 279.113281 805.960938 279.359375 805.542969 279.535156 C 805.128906 279.707031 804.691406 279.792969 804.242188 279.792969 Z M 784 262.949219 L 800.84375 270.988281 L 800.84375 239.859375 L 784 239.859375 Z M 784 262.949219"/><path fill="#FF8400" d="M 719.617188 352.535156 C 718.71875 352.535156 717.824219 352.492188 716.929688 352.402344 C 716.035156 352.316406 715.144531 352.183594 714.265625 352.007812 C 713.382812 351.832031 712.511719 351.613281 711.652344 351.355469 C 710.792969 351.09375 709.945312 350.789062 709.117188 350.445312 C 708.285156 350.101562 707.476562 349.71875 706.683594 349.292969 C 705.890625 348.871094 705.121094 348.40625 704.371094 347.90625 C 703.625 347.410156 702.902344 346.875 702.210938 346.300781 C 701.515625 345.730469 700.847656 345.128906 700.214844 344.492188 C 699.578125 343.855469 698.976562 343.191406 698.40625 342.496094 C 697.835938 341.800781 697.300781 341.078125 696.800781 340.332031 C 696.300781 339.582031 695.839844 338.8125 695.417969 338.019531 C 694.992188 337.226562 694.609375 336.414062 694.265625 335.582031 C 693.921875 334.753906 693.621094 333.90625 693.359375 333.046875 C 693.097656 332.183594 692.878906 331.3125 692.703125 330.429688 C 692.527344 329.550781 692.398438 328.660156 692.308594 327.765625 C 692.222656 326.871094 692.175781 325.972656 692.175781 325.074219 C 692.175781 324.175781 692.222656 323.277344 692.308594 322.382812 C 692.398438 321.488281 692.527344 320.597656 692.703125 319.714844 C 692.878906 318.835938 693.097656 317.960938 693.359375 317.101562 C 693.621094 316.242188 693.921875 315.394531 694.265625 314.566406 C 694.609375 313.734375 694.992188 312.921875 695.417969 312.128906 C 695.839844 311.335938 696.300781 310.5625 696.800781 309.816406 C 697.300781 309.070312 697.835938 308.347656 698.40625 307.652344 C 698.976562 306.957031 699.578125 306.289062 700.214844 305.65625 C 700.847656 305.019531 701.515625 304.414062 702.210938 303.84375 C 702.902344 303.273438 703.625 302.738281 704.371094 302.238281 C 705.121094 301.738281 705.890625 301.277344 706.683594 300.855469 C 707.476562 300.429688 708.285156 300.046875 709.117188 299.703125 C 709.945312 299.359375 710.792969 299.054688 711.652344 298.792969 C 712.511719 298.53125 713.382812 298.316406 714.265625 298.140625 C 715.144531 297.964844 716.035156 297.832031 716.929688 297.742188 C 717.824219 297.65625 718.71875 297.613281 719.617188 297.613281 C 720.515625 297.613281 721.414062 297.65625 722.308594 297.742188 C 723.203125 297.832031 724.089844 297.964844 724.972656 298.140625 C 725.851562 298.316406 726.722656 298.53125 727.582031 298.792969 C 728.445312 299.054688 729.289062 299.359375 730.117188 299.703125 C 730.949219 300.046875 731.761719 300.429688 732.554688 300.855469 C 733.347656 301.277344 734.117188 301.738281 734.863281 302.238281 C 735.609375 302.738281 736.332031 303.273438 737.027344 303.84375 C 737.722656 304.414062 738.386719 305.019531 739.023438 305.65625 C 739.65625 306.289062 740.261719 306.957031 740.832031 307.652344 C 741.398438 308.347656 741.933594 309.070312 742.433594 309.816406 C 742.933594 310.5625 743.394531 311.335938 743.820312 312.128906 C 744.242188 312.921875 744.625 313.734375 744.96875 314.566406 C 745.3125 315.394531 745.617188 316.242188 745.878906 317.101562 C 746.136719 317.960938 746.355469 318.835938 746.53125 319.714844 C 746.707031 320.597656 746.839844 321.488281 746.925781 322.382812 C 747.015625 323.277344 747.058594 324.175781 747.058594 325.074219 C 747.058594 325.972656 747.011719 326.871094 746.925781 327.765625 C 746.835938 328.660156 746.703125 329.546875 746.527344 330.429688 C 746.351562 331.3125 746.132812 332.183594 745.871094 333.042969 C 745.609375 333.902344 745.304688 334.746094 744.960938 335.578125 C 744.617188 336.410156 744.234375 337.21875 743.808594 338.011719 C 743.386719 338.804688 742.921875 339.574219 742.425781 340.324219 C 741.925781 341.070312 741.390625 341.792969 740.820312 342.488281 C 740.25 343.183594 739.648438 343.847656 739.011719 344.484375 C 738.375 345.117188 737.710938 345.722656 737.019531 346.292969 C 736.324219 346.863281 735.601562 347.398438 734.855469 347.898438 C 734.109375 348.398438 733.339844 348.859375 732.546875 349.285156 C 731.753906 349.707031 730.945312 350.09375 730.113281 350.4375 C 729.285156 350.78125 728.441406 351.085938 727.578125 351.347656 C 726.71875 351.609375 725.851562 351.828125 724.96875 352.003906 C 724.089844 352.179688 723.199219 352.3125 722.304688 352.402344 C 721.414062 352.488281 720.515625 352.535156 719.617188 352.535156 Z M 719.617188 304.421875 C 718.941406 304.421875 718.269531 304.453125 717.59375 304.519531 C 716.921875 304.585938 716.253906 304.6875 715.589844 304.816406 C 714.929688 304.949219 714.273438 305.113281 713.628906 305.308594 C 712.980469 305.507812 712.34375 305.734375 711.71875 305.992188 C 711.097656 306.25 710.484375 306.539062 709.890625 306.859375 C 709.292969 307.179688 708.714844 307.527344 708.152344 307.902344 C 707.589844 308.277344 707.046875 308.679688 706.527344 309.109375 C 706.003906 309.539062 705.503906 309.992188 705.023438 310.46875 C 704.546875 310.949219 704.09375 311.449219 703.664062 311.972656 C 703.238281 312.496094 702.835938 313.039062 702.457031 313.601562 C 702.082031 314.160156 701.734375 314.742188 701.417969 315.339844 C 701.097656 315.933594 700.808594 316.546875 700.550781 317.171875 C 700.292969 317.796875 700.066406 318.429688 699.871094 319.078125 C 699.671875 319.726562 699.507812 320.382812 699.378906 321.042969 C 699.246094 321.707031 699.144531 322.375 699.082031 323.050781 C 699.015625 323.722656 698.980469 324.398438 698.980469 325.074219 C 698.980469 325.75 699.015625 326.425781 699.082031 327.097656 C 699.144531 327.769531 699.246094 328.441406 699.378906 329.101562 C 699.507812 329.765625 699.671875 330.421875 699.871094 331.070312 C 700.066406 331.714844 700.292969 332.351562 700.550781 332.976562 C 700.808594 333.601562 701.097656 334.214844 701.417969 334.808594 C 701.734375 335.40625 702.082031 335.984375 702.457031 336.546875 C 702.835938 337.109375 703.238281 337.652344 703.664062 338.175781 C 704.09375 338.699219 704.546875 339.199219 705.023438 339.679688 C 705.503906 340.15625 706.003906 340.609375 706.527344 341.039062 C 707.046875 341.46875 707.589844 341.871094 708.152344 342.246094 C 708.714844 342.621094 709.292969 342.96875 709.890625 343.289062 C 710.484375 343.605469 711.097656 343.894531 711.71875 344.15625 C 712.34375 344.414062 712.980469 344.640625 713.628906 344.835938 C 714.273438 345.035156 714.929688 345.199219 715.589844 345.328125 C 716.253906 345.460938 716.921875 345.5625 717.59375 345.628906 C 718.269531 345.695312 718.941406 345.726562 719.617188 345.726562 C 720.292969 345.726562 720.96875 345.695312 721.640625 345.628906 C 722.3125 345.5625 722.980469 345.460938 723.644531 345.328125 C 724.308594 345.199219 724.960938 345.035156 725.609375 344.835938 C 726.253906 344.640625 726.890625 344.414062 727.515625 344.15625 C 728.140625 343.894531 728.75 343.605469 729.347656 343.289062 C 729.941406 342.96875 730.519531 342.621094 731.082031 342.246094 C 731.644531 341.871094 732.1875 341.46875 732.710938 341.039062 C 733.230469 340.609375 733.734375 340.15625 734.210938 339.679688 C 734.6875 339.199219 735.140625 338.699219 735.570312 338.175781 C 736 337.652344 736.402344 337.109375 736.777344 336.546875 C 737.152344 335.984375 737.5 335.40625 737.816406 334.808594 C 738.136719 334.214844 738.425781 333.601562 738.683594 332.976562 C 738.941406 332.351562 739.171875 331.714844 739.367188 331.070312 C 739.5625 330.421875 739.726562 329.765625 739.859375 329.101562 C 739.988281 328.441406 740.089844 327.769531 740.15625 327.097656 C 740.222656 326.425781 740.253906 325.75 740.253906 325.074219 C 740.253906 324.398438 740.21875 323.722656 740.152344 323.050781 C 740.085938 322.378906 739.988281 321.710938 739.855469 321.046875 C 739.722656 320.382812 739.558594 319.726562 739.359375 319.082031 C 739.164062 318.433594 738.9375 317.796875 738.675781 317.175781 C 738.417969 316.550781 738.128906 315.9375 737.8125 315.34375 C 737.492188 314.746094 737.144531 314.167969 736.769531 313.605469 C 736.394531 313.042969 735.992188 312.5 735.5625 311.976562 C 735.132812 311.457031 734.679688 310.957031 734.203125 310.476562 C 733.726562 310 733.226562 309.546875 732.703125 309.117188 C 732.179688 308.6875 731.640625 308.285156 731.078125 307.910156 C 730.515625 307.535156 729.9375 307.1875 729.339844 306.867188 C 728.746094 306.546875 728.136719 306.257812 727.511719 306 C 726.886719 305.742188 726.253906 305.511719 725.605469 305.316406 C 724.960938 305.117188 724.304688 304.953125 723.640625 304.820312 C 722.980469 304.6875 722.3125 304.589844 721.640625 304.523438 C 720.96875 304.457031 720.292969 304.421875 719.617188 304.421875 Z M 719.617188 304.421875"/><path fill="#FF8400" d="M 769.859375 438.808594 L 669.121094 438.808594 C 668.667969 438.808594 668.234375 438.722656 667.816406 438.550781 C 667.402344 438.375 667.03125 438.128906 666.714844 437.8125 C 666.394531 437.492188 666.148438 437.125 665.976562 436.707031 C 665.804688 436.289062 665.714844 435.855469 665.714844 435.402344 L 665.714844 386.273438 C 665.71875 385.246094 665.761719 384.222656 665.84375 383.203125 C 665.929688 382.183594 666.054688 381.164062 666.222656 380.15625 C 666.390625 379.144531 666.597656 378.140625 666.84375 377.148438 C 667.09375 376.152344 667.382812 375.171875 667.710938 374.199219 C 668.039062 373.226562 668.40625 372.273438 668.8125 371.332031 C 669.21875 370.390625 669.660156 369.46875 670.140625 368.5625 C 670.621094 367.660156 671.140625 366.773438 671.691406 365.914062 C 672.246094 365.050781 672.832031 364.210938 673.453125 363.394531 C 674.074219 362.582031 674.726562 361.792969 675.410156 361.03125 C 676.097656 360.269531 676.8125 359.535156 677.554688 358.832031 C 678.300781 358.128906 679.070312 357.457031 679.871094 356.816406 C 680.667969 356.175781 681.492188 355.566406 682.34375 354.992188 C 683.191406 354.421875 684.0625 353.882812 684.953125 353.378906 C 685.84375 352.875 686.757812 352.410156 687.6875 351.980469 C 688.617188 351.550781 689.5625 351.164062 690.523438 350.808594 C 691.484375 350.457031 692.460938 350.144531 693.449219 349.875 C 694.007812 349.722656 694.566406 349.710938 695.132812 349.847656 C 695.695312 349.980469 696.191406 350.242188 696.621094 350.628906 C 697.402344 351.332031 698.210938 352 699.050781 352.625 C 699.890625 353.253906 700.757812 353.84375 701.652344 354.390625 C 702.546875 354.941406 703.464844 355.449219 704.40625 355.914062 C 705.34375 356.378906 706.304688 356.796875 707.285156 357.175781 C 708.261719 357.550781 709.257812 357.882812 710.265625 358.167969 C 711.277344 358.453125 712.296875 358.691406 713.328125 358.886719 C 714.359375 359.078125 715.394531 359.222656 716.441406 359.320312 C 717.484375 359.417969 718.53125 359.464844 719.578125 359.464844 C 720.628906 359.46875 721.675781 359.421875 722.71875 359.324219 C 723.765625 359.230469 724.800781 359.089844 725.835938 358.898438 C 726.867188 358.707031 727.886719 358.472656 728.894531 358.1875 C 729.90625 357.90625 730.902344 357.574219 731.878906 357.203125 C 732.859375 356.828125 733.820312 356.40625 734.761719 355.945312 C 735.703125 355.484375 736.621094 354.976562 737.515625 354.429688 C 738.414062 353.882812 739.28125 353.296875 740.121094 352.671875 C 740.964844 352.042969 741.773438 351.378906 742.554688 350.679688 C 742.988281 350.289062 743.488281 350.03125 744.054688 349.898438 C 744.621094 349.765625 745.183594 349.777344 745.742188 349.933594 C 749.65625 351.042969 753.300781 352.738281 756.667969 355.019531 C 760.039062 357.300781 762.96875 360.054688 765.453125 363.277344 C 767.996094 366.566406 769.933594 370.179688 771.273438 374.117188 C 772.609375 378.054688 773.269531 382.105469 773.257812 386.265625 L 773.257812 435.402344 C 773.257812 435.851562 773.171875 436.289062 773 436.703125 C 772.828125 437.121094 772.582031 437.488281 772.261719 437.808594 C 771.945312 438.128906 771.574219 438.375 771.160156 438.546875 C 770.742188 438.722656 770.308594 438.808594 769.859375 438.808594 Z M 672.523438 432 L 766.457031 432 L 766.457031 386.273438 C 766.453125 384.671875 766.328125 383.082031 766.078125 381.503906 C 765.828125 379.921875 765.460938 378.371094 764.972656 376.847656 C 764.484375 375.328125 763.878906 373.851562 763.164062 372.421875 C 762.445312 370.992188 761.625 369.625 760.695312 368.324219 C 759.769531 367.023438 758.746094 365.796875 757.628906 364.65625 C 756.511719 363.511719 755.3125 362.460938 754.035156 361.5 C 752.753906 360.542969 751.410156 359.6875 750 358.9375 C 748.585938 358.1875 747.125 357.550781 745.617188 357.027344 C 744.707031 357.769531 743.765625 358.472656 742.792969 359.132812 C 741.820312 359.796875 740.824219 360.414062 739.800781 360.992188 C 738.777344 361.566406 737.730469 362.097656 736.660156 362.585938 C 735.589844 363.070312 734.5 363.511719 733.394531 363.90625 C 732.289062 364.300781 731.164062 364.644531 730.027344 364.941406 C 728.890625 365.238281 727.742188 365.488281 726.585938 365.6875 C 725.429688 365.882812 724.261719 366.035156 723.09375 366.132812 C 721.921875 366.230469 720.75 366.28125 719.574219 366.28125 C 718.398438 366.277344 717.226562 366.226562 716.054688 366.125 C 714.886719 366.023438 713.722656 365.871094 712.5625 365.667969 C 711.40625 365.46875 710.257812 365.214844 709.125 364.917969 C 707.988281 364.617188 706.867188 364.269531 705.761719 363.871094 C 704.652344 363.476562 703.566406 363.035156 702.496094 362.546875 C 701.429688 362.054688 700.382812 361.523438 699.359375 360.941406 C 698.339844 360.363281 697.34375 359.742188 696.371094 359.078125 C 695.402344 358.414062 694.464844 357.710938 693.554688 356.964844 C 692.03125 357.480469 690.558594 358.113281 689.136719 358.859375 C 687.710938 359.601562 686.355469 360.453125 685.0625 361.410156 C 683.773438 362.367188 682.5625 363.417969 681.4375 364.5625 C 680.308594 365.707031 679.277344 366.933594 678.339844 368.242188 C 677.402344 369.546875 676.570312 370.917969 675.847656 372.351562 C 675.121094 373.789062 674.515625 375.269531 674.019531 376.800781 C 673.527344 378.332031 673.15625 379.890625 672.90625 381.476562 C 672.652344 383.066406 672.527344 384.664062 672.523438 386.273438 Z M 672.523438 432"/></svg>