<svg xmlns="http://www.w3.org/2000/svg" width="1440" viewBox="0 0 1440 810" height="810" version="1.0"><defs><clipPath id="a"><path d="M 437.152344 666 L 1002.953125 666 L 1002.953125 747.140625 L 437.152344 747.140625 Z M 437.152344 666"/></clipPath><clipPath id="b"><path d="M 700 63.191406 L 741 63.191406 L 741 148 L 700 148 Z M 700 63.191406"/></clipPath><clipPath id="c"><path d="M 437.152344 666 L 1002.953125 666 L 1002.953125 746.722656 L 437.152344 746.722656 Z M 437.152344 666"/></clipPath><clipPath id="d"><path d="M 475 320 L 966 320 L 966 368.472656 L 475 368.472656 Z M 475 320"/></clipPath><clipPath id="e"><path d="M 700 63.191406 L 741 63.191406 L 741 148 L 700 148 Z M 700 63.191406"/></clipPath><clipPath id="f"><path d="M 909 327 L 996 327 L 996 368.472656 L 909 368.472656 Z M 909 327"/></clipPath><clipPath id="g"><path d="M 444 327 L 531 327 L 531 368.472656 L 444 368.472656 Z M 444 327"/></clipPath></defs><path fill="#FFF" d="M 894.046875 472.660156 C 852.367188 430.960938 798.355469 406.089844 740.234375 401.425781 L 740.234375 360.398438 L 779.019531 360.398438 L 779.019531 320.1875 L 661.25 320.1875 L 661.25 360.398438 L 700.035156 360.398438 L 700.035156 401.425781 C 641.914062 406.089844 587.902344 430.960938 546.214844 472.660156 C 504.535156 514.359375 479.671875 568.386719 475 626.523438 L 965.269531 626.523438 C 960.597656 568.386719 935.734375 514.355469 894.046875 472.660156 Z M 894.046875 472.660156"/><g clip-path="url(#a)"><path fill="#FFF" d="M 940.351562 706.933594 L 940.351562 666.722656 L 500.308594 666.722656 L 500.308594 706.933594 L 437.433594 706.933594 L 437.433594 747.140625 L 1002.839844 747.140625 L 1002.839844 706.933594 Z M 940.351562 706.933594"/></g><g clip-path="url(#b)"><path fill="#FFF" d="M 700.039062 147.566406 L 740.234375 147.566406 L 740.234375 63.1875 L 700.039062 63.1875 Z M 700.039062 147.566406"/></g><path fill="#FFF" d="M 909.574219 368.136719 L 995.511719 368.136719 L 995.511719 327.929688 L 909.574219 327.929688 Z M 909.574219 368.136719"/><path fill="#FFF" d="M 444.75 368.136719 L 530.167969 368.136719 L 530.167969 327.929688 L 444.75 327.929688 Z M 444.75 368.136719"/><path fill="#FFF" d="M 906.332031 133.359375 L 906.046875 133.644531 L 845.234375 194.46875 L 873.65625 222.902344 L 934.464844 162.070312 L 934.757812 161.777344 Z M 906.332031 133.359375"/><path fill="#FFF" d="M 533.957031 133.371094 L 520.292969 147.03125 L 505.285156 161.550781 L 519.746094 147.585938 L 505.53125 161.796875 L 566.34375 222.628906 L 594.769531 194.195312 Z M 533.957031 133.371094"/><g clip-path="url(#c)"><path fill="#FF8400" d="M 940.351562 706.933594 L 940.351562 666.722656 L 500.308594 666.722656 L 500.308594 706.933594 L 437.433594 706.933594 L 437.433594 747.140625 L 1002.839844 747.140625 L 1002.839844 706.933594 Z M 940.351562 706.933594"/></g><g clip-path="url(#d)"><path fill="#FF8400" d="M 894.046875 472.660156 C 852.367188 430.960938 798.355469 406.089844 740.234375 401.425781 L 740.234375 360.398438 L 779.019531 360.398438 L 779.019531 320.1875 L 661.25 320.1875 L 661.25 360.398438 L 700.035156 360.398438 L 700.035156 401.425781 C 641.914062 406.089844 587.902344 430.960938 546.214844 472.660156 C 504.535156 514.359375 479.671875 568.386719 475 626.523438 L 965.269531 626.523438 C 960.597656 568.386719 935.734375 514.355469 894.046875 472.660156 Z M 894.046875 472.660156"/></g><g clip-path="url(#e)"><path fill="#FF8400" d="M 700.039062 147.566406 L 740.234375 147.566406 L 740.234375 63.1875 L 700.039062 63.1875 Z M 700.039062 147.566406"/></g><g clip-path="url(#f)"><path fill="#FF8400" d="M 909.574219 368.136719 L 995.511719 368.136719 L 995.511719 327.929688 L 909.574219 327.929688 Z M 909.574219 368.136719"/></g><g clip-path="url(#g)"><path fill="#FF8400" d="M 444.75 368.136719 L 530.167969 368.136719 L 530.167969 327.929688 L 444.75 327.929688 Z M 444.75 368.136719"/></g><path fill="#FF8400" d="M 906.332031 133.359375 L 906.046875 133.644531 L 845.234375 194.46875 L 873.65625 222.902344 L 934.464844 162.070312 L 934.757812 161.777344 Z M 906.332031 133.359375"/><path fill="#FF8400" d="M 533.957031 133.371094 L 520.292969 147.03125 L 505.285156 161.550781 L 519.746094 147.585938 L 505.53125 161.796875 L 566.34375 222.628906 L 594.769531 194.195312 Z M 533.957031 133.371094"/></svg>