<svg xmlns="http://www.w3.org/2000/svg" width="1440" viewBox="0 0 1440 810" height="810" version="1.0"><path fill="#FFF" d="M 455.453125 634.941406 C 394.011719 634.941406 336.160156 611.027344 292.746094 567.519531 C 249.242188 524.109375 225.328125 466.257812 225.328125 404.816406 C 225.328125 343.375 249.242188 285.523438 292.746094 242.109375 C 336.160156 198.605469 394.011719 174.691406 455.453125 174.691406 C 516.894531 174.691406 574.746094 198.605469 618.160156 242.109375 C 661.664062 285.613281 685.578125 343.375 685.578125 404.816406 C 685.578125 466.257812 661.664062 524.109375 618.160156 567.519531 C 574.746094 611.027344 516.894531 634.941406 455.453125 634.941406 Z M 455.453125 188.488281 C 397.691406 188.488281 343.335938 211.023438 302.496094 251.859375 C 261.660156 292.695312 239.125 347.054688 239.125 404.816406 C 239.125 462.578125 261.660156 516.933594 302.496094 557.773438 C 343.335938 598.609375 397.691406 621.144531 455.453125 621.144531 C 513.214844 621.144531 567.570312 598.609375 608.410156 557.773438 C 649.246094 516.933594 671.78125 462.578125 671.78125 404.816406 C 671.78125 347.054688 649.246094 292.695312 608.410156 251.859375 C 567.570312 211.023438 513.214844 188.488281 455.453125 188.488281 Z M 455.453125 188.488281"/><path fill="#FFF" d="M 455.5 574.722656 C 410.152344 574.722656 367.449219 557.074219 335.40625 524.960938 C 303.292969 492.917969 285.640625 450.214844 285.640625 404.863281 C 285.640625 359.515625 303.292969 316.8125 335.40625 284.765625 C 367.449219 252.65625 410.152344 235.003906 455.5 235.003906 C 500.851562 235.003906 543.554688 252.65625 575.597656 284.765625 C 607.710938 316.878906 625.363281 359.515625 625.363281 404.863281 C 625.363281 450.214844 607.710938 492.917969 575.597656 524.960938 C 543.554688 557.074219 500.851562 574.722656 455.5 574.722656 Z M 455.5 245.1875 C 412.867188 245.1875 372.742188 261.820312 342.601562 291.964844 C 312.457031 322.105469 295.824219 362.230469 295.824219 404.863281 C 295.824219 447.5 312.457031 487.621094 342.601562 517.765625 C 372.742188 547.90625 412.867188 564.539062 455.5 564.539062 C 498.136719 564.539062 538.257812 547.90625 568.402344 517.765625 C 598.546875 487.621094 615.179688 447.5 615.179688 404.863281 C 615.179688 362.230469 598.546875 322.105469 568.402344 291.964844 C 538.257812 261.820312 498.136719 245.1875 455.5 245.1875 Z M 455.5 245.1875"/><path fill="#8ABD24" d="M 455.074219 307.042969 C 400.511719 307.042969 356.121094 351.429688 356.121094 405.984375 C 356.121094 460.542969 400.507812 504.929688 455.074219 504.929688 C 509.636719 504.929688 554.027344 460.542969 554.027344 405.984375 C 554.027344 351.429688 509.636719 307.042969 455.074219 307.042969 Z M 455.074219 490.328125 C 408.5625 490.328125 370.722656 452.492188 370.722656 405.984375 C 370.722656 359.480469 408.5625 321.644531 455.074219 321.644531 C 501.585938 321.644531 539.425781 359.480469 539.425781 405.984375 C 539.425781 452.492188 501.585938 490.328125 455.074219 490.328125 Z M 455.074219 490.328125"/><path fill="#8ABD24" d="M 500.5 398.6875 C 496.46875 398.6875 493.199219 401.953125 493.199219 405.984375 C 493.199219 427.007812 476.097656 444.109375 455.074219 444.109375 C 434.050781 444.109375 416.949219 427.007812 416.949219 405.984375 C 416.949219 401.953125 413.679688 398.6875 409.644531 398.6875 C 405.613281 398.6875 402.34375 401.953125 402.34375 405.984375 C 402.34375 435.058594 426 458.710938 455.074219 458.710938 C 484.148438 458.710938 507.804688 435.058594 507.804688 405.984375 C 507.800781 401.953125 504.53125 398.6875 500.5 398.6875 Z M 500.5 398.6875"/><path fill="#8ABD24" d="M 444.871094 373.914062 C 444.871094 374.757812 444.789062 375.59375 444.625 376.417969 C 444.460938 377.246094 444.21875 378.050781 443.894531 378.828125 C 443.574219 379.605469 443.175781 380.347656 442.707031 381.046875 C 442.238281 381.75 441.707031 382.398438 441.113281 382.992188 C 440.515625 383.589844 439.867188 384.121094 439.164062 384.589844 C 438.464844 385.058594 437.726562 385.453125 436.945312 385.777344 C 436.167969 386.097656 435.363281 386.34375 434.539062 386.507812 C 433.710938 386.671875 432.875 386.753906 432.03125 386.753906 C 431.1875 386.753906 430.355469 386.671875 429.527344 386.507812 C 428.699219 386.34375 427.898438 386.097656 427.117188 385.777344 C 426.339844 385.453125 425.601562 385.058594 424.898438 384.589844 C 424.199219 384.121094 423.550781 383.589844 422.953125 382.992188 C 422.355469 382.398438 421.824219 381.75 421.355469 381.046875 C 420.886719 380.347656 420.492188 379.605469 420.167969 378.828125 C 419.847656 378.050781 419.601562 377.246094 419.4375 376.417969 C 419.273438 375.59375 419.191406 374.757812 419.191406 373.914062 C 419.191406 373.070312 419.273438 372.238281 419.4375 371.410156 C 419.601562 370.582031 419.847656 369.78125 420.167969 369.003906 C 420.492188 368.222656 420.886719 367.484375 421.355469 366.78125 C 421.824219 366.082031 422.355469 365.433594 422.953125 364.835938 C 423.550781 364.242188 424.199219 363.707031 424.898438 363.238281 C 425.601562 362.773438 426.339844 362.375 427.117188 362.054688 C 427.898438 361.730469 428.699219 361.488281 429.527344 361.324219 C 430.355469 361.160156 431.1875 361.078125 432.03125 361.078125 C 432.875 361.078125 433.710938 361.160156 434.539062 361.324219 C 435.363281 361.488281 436.167969 361.730469 436.945312 362.054688 C 437.726562 362.375 438.464844 362.773438 439.164062 363.238281 C 439.867188 363.707031 440.515625 364.242188 441.113281 364.835938 C 441.707031 365.433594 442.238281 366.082031 442.707031 366.78125 C 443.175781 367.484375 443.574219 368.222656 443.894531 369.003906 C 444.21875 369.78125 444.460938 370.582031 444.625 371.410156 C 444.789062 372.238281 444.871094 373.070312 444.871094 373.914062 Z M 444.871094 373.914062"/><path fill="#8ABD24" d="M 490.582031 373.914062 C 490.582031 374.757812 490.5 375.59375 490.335938 376.417969 C 490.171875 377.246094 489.929688 378.050781 489.605469 378.828125 C 489.28125 379.605469 488.886719 380.347656 488.417969 381.046875 C 487.949219 381.75 487.417969 382.398438 486.824219 382.992188 C 486.226562 383.589844 485.578125 384.121094 484.875 384.589844 C 484.175781 385.058594 483.4375 385.453125 482.65625 385.777344 C 481.878906 386.097656 481.074219 386.34375 480.25 386.507812 C 479.421875 386.671875 478.585938 386.753906 477.742188 386.753906 C 476.898438 386.753906 476.066406 386.671875 475.238281 386.507812 C 474.410156 386.34375 473.609375 386.097656 472.828125 385.777344 C 472.050781 385.453125 471.308594 385.058594 470.609375 384.589844 C 469.910156 384.121094 469.261719 383.589844 468.664062 382.992188 C 468.066406 382.398438 467.535156 381.75 467.066406 381.046875 C 466.597656 380.347656 466.203125 379.605469 465.878906 378.828125 C 465.558594 378.050781 465.3125 377.246094 465.148438 376.417969 C 464.984375 375.59375 464.902344 374.757812 464.902344 373.914062 C 464.902344 373.070312 464.984375 372.238281 465.148438 371.410156 C 465.3125 370.582031 465.558594 369.78125 465.878906 369.003906 C 466.203125 368.222656 466.597656 367.484375 467.066406 366.78125 C 467.535156 366.082031 468.066406 365.433594 468.664062 364.835938 C 469.261719 364.242188 469.910156 363.707031 470.609375 363.238281 C 471.308594 362.773438 472.050781 362.375 472.828125 362.054688 C 473.609375 361.730469 474.410156 361.488281 475.238281 361.324219 C 476.066406 361.160156 476.898438 361.078125 477.742188 361.078125 C 478.585938 361.078125 479.421875 361.160156 480.246094 361.324219 C 481.074219 361.488281 481.878906 361.730469 482.65625 362.054688 C 483.4375 362.375 484.175781 362.773438 484.875 363.238281 C 485.578125 363.707031 486.226562 364.242188 486.824219 364.835938 C 487.417969 365.433594 487.949219 366.082031 488.417969 366.78125 C 488.886719 367.484375 489.28125 368.222656 489.605469 369.003906 C 489.929688 369.78125 490.171875 370.582031 490.335938 371.410156 C 490.5 372.238281 490.582031 373.070312 490.582031 373.914062 Z M 490.582031 373.914062"/><path fill="#FFF" d="M 984.179688 634.941406 C 922.738281 634.941406 864.886719 611.027344 821.472656 567.519531 C 777.96875 524.109375 754.054688 466.257812 754.054688 404.816406 C 754.054688 343.375 777.96875 285.523438 821.472656 242.109375 C 864.886719 198.605469 922.738281 174.691406 984.179688 174.691406 C 1045.617188 174.691406 1103.472656 198.605469 1146.882812 242.109375 C 1190.386719 285.613281 1214.300781 343.375 1214.300781 404.816406 C 1214.300781 466.257812 1190.386719 524.109375 1146.882812 567.519531 C 1103.472656 611.027344 1045.617188 634.941406 984.179688 634.941406 Z M 984.179688 188.488281 C 926.417969 188.488281 872.058594 211.023438 831.222656 251.859375 C 790.386719 292.695312 767.851562 347.054688 767.851562 404.816406 C 767.851562 462.578125 790.386719 516.933594 831.222656 557.773438 C 872.058594 598.609375 926.417969 621.144531 984.179688 621.144531 C 1041.9375 621.144531 1096.296875 598.609375 1137.132812 557.773438 C 1177.972656 516.933594 1200.507812 462.578125 1200.507812 404.816406 C 1200.507812 347.054688 1177.972656 292.695312 1137.132812 251.859375 C 1096.296875 211.023438 1041.9375 188.488281 984.179688 188.488281 Z M 984.179688 188.488281"/><path fill="#FFF" d="M 984.226562 574.722656 C 938.875 574.722656 896.171875 557.074219 864.128906 524.960938 C 832.019531 492.917969 814.367188 450.214844 814.367188 404.863281 C 814.367188 359.515625 832.019531 316.8125 864.128906 284.765625 C 896.171875 252.65625 938.875 235.003906 984.226562 235.003906 C 1029.578125 235.003906 1072.28125 252.65625 1104.324219 284.765625 C 1136.433594 316.878906 1154.085938 359.515625 1154.085938 404.863281 C 1154.085938 450.214844 1136.433594 492.917969 1104.324219 524.960938 C 1072.28125 557.074219 1029.578125 574.722656 984.226562 574.722656 Z M 984.226562 245.1875 C 941.589844 245.1875 901.46875 261.820312 871.324219 291.964844 C 841.183594 322.105469 824.550781 362.230469 824.550781 404.863281 C 824.550781 447.5 841.183594 487.621094 871.324219 517.765625 C 901.46875 547.90625 941.589844 564.539062 984.226562 564.539062 C 1026.859375 564.539062 1066.984375 547.90625 1097.128906 517.765625 C 1127.269531 487.621094 1143.902344 447.5 1143.902344 404.863281 C 1143.902344 362.230469 1127.269531 322.105469 1097.128906 291.964844 C 1066.984375 261.820312 1026.859375 245.1875 984.226562 245.1875 Z M 984.226562 245.1875"/><path fill="#FF8400" d="M 985.816406 310.597656 C 931.253906 310.597656 886.863281 354.980469 886.863281 409.539062 C 886.863281 464.097656 931.253906 508.480469 985.816406 508.480469 C 1040.378906 508.480469 1084.769531 464.097656 1084.769531 409.539062 C 1084.769531 354.980469 1040.378906 310.597656 985.816406 310.597656 Z M 985.816406 493.878906 C 939.304688 493.878906 901.464844 456.042969 901.464844 409.539062 C 901.464844 363.03125 939.304688 325.195312 985.816406 325.195312 C 1032.328125 325.195312 1070.167969 363.03125 1070.167969 409.539062 C 1070.167969 456.042969 1032.328125 493.878906 985.816406 493.878906 Z M 985.816406 493.878906"/><path fill="#FF8400" d="M 985.816406 397.617188 C 956.742188 397.617188 933.085938 421.265625 933.085938 450.339844 C 933.085938 454.371094 936.355469 457.636719 940.390625 457.636719 C 944.421875 457.636719 947.691406 454.371094 947.691406 450.339844 C 947.691406 429.320312 964.792969 412.21875 985.816406 412.21875 C 1006.839844 412.21875 1023.941406 429.320312 1023.941406 450.339844 C 1023.941406 454.371094 1027.210938 457.636719 1031.242188 457.636719 C 1035.277344 457.636719 1038.546875 454.371094 1038.546875 450.339844 C 1038.546875 421.265625 1014.890625 397.617188 985.816406 397.617188 Z M 985.816406 397.617188"/><path fill="#FF8400" d="M 975.613281 372.136719 C 975.613281 372.976562 975.53125 373.8125 975.367188 374.640625 C 975.203125 375.464844 974.960938 376.269531 974.636719 377.046875 C 974.316406 377.828125 973.917969 378.566406 973.449219 379.269531 C 972.984375 379.96875 972.449219 380.617188 971.855469 381.214844 C 971.257812 381.808594 970.609375 382.339844 969.910156 382.808594 C 969.207031 383.277344 968.46875 383.671875 967.6875 383.996094 C 966.910156 384.320312 966.105469 384.5625 965.28125 384.726562 C 964.453125 384.890625 963.617188 384.972656 962.773438 384.972656 C 961.933594 384.972656 961.097656 384.890625 960.269531 384.726562 C 959.441406 384.5625 958.640625 384.320312 957.859375 383.996094 C 957.082031 383.671875 956.34375 383.277344 955.640625 382.808594 C 954.941406 382.339844 954.292969 381.808594 953.695312 381.214844 C 953.097656 380.617188 952.566406 379.96875 952.097656 379.269531 C 951.628906 378.566406 951.234375 377.828125 950.910156 377.046875 C 950.589844 376.269531 950.347656 375.464844 950.179688 374.640625 C 950.015625 373.8125 949.933594 372.976562 949.933594 372.136719 C 949.933594 371.292969 950.015625 370.457031 950.179688 369.628906 C 950.347656 368.804688 950.589844 368 950.910156 367.222656 C 951.234375 366.441406 951.628906 365.703125 952.097656 365.003906 C 952.566406 364.300781 953.097656 363.652344 953.695312 363.058594 C 954.292969 362.460938 954.941406 361.929688 955.640625 361.460938 C 956.34375 360.992188 957.082031 360.597656 957.859375 360.273438 C 958.640625 359.949219 959.441406 359.707031 960.269531 359.542969 C 961.097656 359.378906 961.933594 359.296875 962.773438 359.296875 C 963.617188 359.296875 964.453125 359.378906 965.28125 359.542969 C 966.105469 359.707031 966.910156 359.949219 967.6875 360.273438 C 968.46875 360.597656 969.207031 360.992188 969.910156 361.460938 C 970.609375 361.929688 971.257812 362.460938 971.855469 363.054688 C 972.449219 363.652344 972.984375 364.300781 973.449219 365.003906 C 973.917969 365.703125 974.316406 366.441406 974.636719 367.222656 C 974.960938 368 975.203125 368.804688 975.367188 369.628906 C 975.53125 370.457031 975.613281 371.292969 975.613281 372.136719 Z M 975.613281 372.136719"/><path fill="#FF8400" d="M 1021.324219 372.136719 C 1021.324219 372.976562 1021.242188 373.8125 1021.078125 374.640625 C 1020.914062 375.464844 1020.671875 376.269531 1020.347656 377.046875 C 1020.027344 377.828125 1019.628906 378.566406 1019.160156 379.269531 C 1018.695312 379.96875 1018.160156 380.617188 1017.566406 381.214844 C 1016.96875 381.808594 1016.320312 382.339844 1015.621094 382.808594 C 1014.917969 383.277344 1014.179688 383.671875 1013.398438 383.996094 C 1012.621094 384.320312 1011.816406 384.5625 1010.992188 384.726562 C 1010.164062 384.890625 1009.328125 384.972656 1008.484375 384.972656 C 1007.640625 384.972656 1006.808594 384.890625 1005.980469 384.726562 C 1005.152344 384.5625 1004.351562 384.320312 1003.570312 383.996094 C 1002.792969 383.671875 1002.054688 383.277344 1001.351562 382.808594 C 1000.652344 382.339844 1000.003906 381.808594 999.40625 381.214844 C 998.808594 380.617188 998.277344 379.96875 997.808594 379.269531 C 997.339844 378.566406 996.945312 377.828125 996.621094 377.046875 C 996.300781 376.269531 996.054688 375.464844 995.890625 374.640625 C 995.726562 373.8125 995.644531 372.976562 995.644531 372.136719 C 995.644531 371.292969 995.726562 370.457031 995.890625 369.628906 C 996.054688 368.804688 996.300781 368 996.621094 367.222656 C 996.945312 366.441406 997.339844 365.703125 997.808594 365.003906 C 998.277344 364.300781 998.808594 363.652344 999.40625 363.058594 C 1000.003906 362.460938 1000.652344 361.929688 1001.351562 361.460938 C 1002.054688 360.992188 1002.792969 360.597656 1003.570312 360.273438 C 1004.351562 359.949219 1005.152344 359.707031 1005.980469 359.542969 C 1006.808594 359.378906 1007.640625 359.296875 1008.484375 359.296875 C 1009.328125 359.296875 1010.164062 359.378906 1010.992188 359.542969 C 1011.816406 359.707031 1012.621094 359.949219 1013.398438 360.273438 C 1014.179688 360.597656 1014.917969 360.992188 1015.621094 361.460938 C 1016.320312 361.929688 1016.96875 362.460938 1017.566406 363.054688 C 1018.160156 363.652344 1018.691406 364.300781 1019.160156 365.003906 C 1019.628906 365.703125 1020.027344 366.441406 1020.347656 367.222656 C 1020.671875 368 1020.914062 368.804688 1021.078125 369.628906 C 1021.242188 370.457031 1021.324219 371.292969 1021.324219 372.136719 Z M 1021.324219 372.136719"/></svg>