<svg xmlns="http://www.w3.org/2000/svg" width="1440" viewBox="0 0 1440 810" height="810" version="1.0"><defs><clipPath id="a"><path d="M 341.65625 346 L 1094 346 L 1094 748 L 341.65625 748 Z M 341.65625 346"/></clipPath><clipPath id="b"><path d="M 613.308594 346 L 926.058594 346 L 926.058594 390.234375 L 613.308594 390.234375 Z M 613.308594 346"/></clipPath></defs><g clip-path="url(#a)"><path fill="#FFF" d="M 1089.699219 384.277344 C 1080.828125 361.183594 1059.144531 346.289062 1034.367188 346.289062 C 1020.972656 346.289062 1007.914062 350.894531 997.449219 359.257812 L 835.300781 488.863281 L 835.300781 488.527344 C 835.300781 456.230469 809.015625 429.960938 776.703125 429.960938 L 681.355469 429.960938 C 612.796875 385.78125 505.8125 385.867188 437.171875 429.960938 L 400.003906 429.960938 C 367.691406 429.960938 341.40625 456.230469 341.40625 488.527344 L 341.40625 689.335938 C 341.40625 721.632812 367.691406 747.902344 400.003906 747.902344 C 432.316406 747.902344 458.601562 721.632812 458.601562 689.335938 L 458.601562 680.96875 L 790.933594 680.96875 C 807.507812 680.96875 823.414062 674.859375 835.71875 663.734375 L 1074.046875 449.457031 C 1092.378906 432.886719 1098.574219 407.285156 1089.699219 384.277344 Z M 425.117188 689.335938 C 425.117188 703.140625 413.898438 714.4375 400.003906 714.4375 C 386.191406 714.4375 374.890625 703.140625 374.890625 689.335938 L 374.890625 488.527344 C 374.890625 474.640625 386.191406 463.429688 400.003906 463.429688 L 425.117188 463.429688 Z M 1051.613281 424.605469 L 813.371094 638.882812 C 807.175781 644.40625 799.222656 647.5 790.933594 647.5 L 458.601562 647.5 L 458.601562 455.730469 C 518.371094 419.585938 609.785156 421.175781 666.789062 460.414062 C 669.554688 462.339844 672.902344 463.429688 676.25 463.429688 L 776.703125 463.429688 C 790.601562 463.429688 801.816406 474.640625 801.816406 488.527344 C 801.816406 502.335938 790.601562 513.628906 776.703125 513.628906 L 676.25 513.628906 C 667.042969 513.628906 659.507812 521.074219 659.507812 530.363281 C 659.507812 539.566406 667.042969 547.097656 676.25 547.097656 L 810.1875 547.097656 C 814.039062 547.097656 817.722656 545.757812 820.652344 543.414062 L 1018.292969 385.363281 C 1022.898438 381.765625 1028.589844 379.757812 1034.367188 379.757812 C 1050.773438 379.757812 1056.96875 392.394531 1058.390625 396.242188 C 1059.898438 400.089844 1063.832031 413.5625 1051.613281 424.605469 Z M 1051.613281 424.605469"/></g><path fill="#FFF" d="M 676.25 379.757812 L 860.414062 379.757812 C 888.125 379.757812 910.640625 357.25 910.640625 329.558594 C 910.640625 278.769531 878.160156 235.597656 832.957031 219.363281 C 849.867188 202.628906 860.414062 179.453125 860.414062 153.851562 C 860.414062 103.0625 819.144531 61.816406 768.332031 61.816406 C 717.605469 61.816406 676.25 103.0625 676.25 153.851562 C 676.25 179.453125 686.882812 202.628906 703.792969 219.363281 C 658.585938 235.597656 626.023438 278.769531 626.023438 329.558594 C 626.023438 357.25 648.625 379.757812 676.25 379.757812 Z M 768.332031 95.28125 C 800.644531 95.28125 826.929688 121.554688 826.929688 153.851562 C 826.929688 186.148438 800.644531 212.417969 768.332031 212.417969 C 736.105469 212.417969 709.734375 186.148438 709.734375 153.851562 C 709.734375 121.554688 736.105469 95.28125 768.332031 95.28125 Z M 743.21875 245.886719 L 793.445312 245.886719 C 839.65625 245.886719 877.15625 283.371094 877.15625 329.558594 C 877.15625 338.761719 869.707031 346.289062 860.414062 346.289062 L 676.25 346.289062 C 667.042969 346.289062 659.507812 338.761719 659.507812 329.558594 C 659.507812 283.371094 697.09375 245.886719 743.21875 245.886719 Z M 743.21875 245.886719"/><g clip-path="url(#b)"><path fill="#FF8400" d="M 1089.699219 384.277344 C 1080.828125 361.183594 1059.144531 346.289062 1034.367188 346.289062 C 1020.972656 346.289062 1007.914062 350.894531 997.449219 359.257812 L 835.300781 488.863281 L 835.300781 488.527344 C 835.300781 456.230469 809.015625 429.960938 776.703125 429.960938 L 681.355469 429.960938 C 612.796875 385.78125 505.8125 385.867188 437.171875 429.960938 L 400.003906 429.960938 C 367.691406 429.960938 341.40625 456.230469 341.40625 488.527344 L 341.40625 689.335938 C 341.40625 721.632812 367.691406 747.902344 400.003906 747.902344 C 432.316406 747.902344 458.601562 721.632812 458.601562 689.335938 L 458.601562 680.96875 L 790.933594 680.96875 C 807.507812 680.96875 823.414062 674.859375 835.71875 663.734375 L 1074.046875 449.457031 C 1092.378906 432.886719 1098.574219 407.285156 1089.699219 384.277344 Z M 425.117188 689.335938 C 425.117188 703.140625 413.898438 714.4375 400.003906 714.4375 C 386.191406 714.4375 374.890625 703.140625 374.890625 689.335938 L 374.890625 488.527344 C 374.890625 474.640625 386.191406 463.429688 400.003906 463.429688 L 425.117188 463.429688 Z M 1051.613281 424.605469 L 813.371094 638.882812 C 807.175781 644.40625 799.222656 647.5 790.933594 647.5 L 458.601562 647.5 L 458.601562 455.730469 C 518.371094 419.585938 609.785156 421.175781 666.789062 460.414062 C 669.554688 462.339844 672.902344 463.429688 676.25 463.429688 L 776.703125 463.429688 C 790.601562 463.429688 801.816406 474.640625 801.816406 488.527344 C 801.816406 502.335938 790.601562 513.628906 776.703125 513.628906 L 676.25 513.628906 C 667.042969 513.628906 659.507812 521.074219 659.507812 530.363281 C 659.507812 539.566406 667.042969 547.097656 676.25 547.097656 L 810.1875 547.097656 C 814.039062 547.097656 817.722656 545.757812 820.652344 543.414062 L 1018.292969 385.363281 C 1022.898438 381.765625 1028.589844 379.757812 1034.367188 379.757812 C 1050.773438 379.757812 1056.96875 392.394531 1058.390625 396.242188 C 1059.898438 400.089844 1063.832031 413.5625 1051.613281 424.605469 Z M 1051.613281 424.605469"/></g><path fill="#FF8400" d="M 676.25 379.757812 L 860.414062 379.757812 C 888.125 379.757812 910.640625 357.25 910.640625 329.558594 C 910.640625 278.769531 878.160156 235.597656 832.957031 219.363281 C 849.867188 202.628906 860.414062 179.453125 860.414062 153.851562 C 860.414062 103.0625 819.144531 61.816406 768.332031 61.816406 C 717.605469 61.816406 676.25 103.0625 676.25 153.851562 C 676.25 179.453125 686.882812 202.628906 703.792969 219.363281 C 658.585938 235.597656 626.023438 278.769531 626.023438 329.558594 C 626.023438 357.25 648.625 379.757812 676.25 379.757812 Z M 768.332031 95.28125 C 800.644531 95.28125 826.929688 121.554688 826.929688 153.851562 C 826.929688 186.148438 800.644531 212.417969 768.332031 212.417969 C 736.105469 212.417969 709.734375 186.148438 709.734375 153.851562 C 709.734375 121.554688 736.105469 95.28125 768.332031 95.28125 Z M 743.21875 245.886719 L 793.445312 245.886719 C 839.65625 245.886719 877.15625 283.371094 877.15625 329.558594 C 877.15625 338.761719 869.707031 346.289062 860.414062 346.289062 L 676.25 346.289062 C 667.042969 346.289062 659.507812 338.761719 659.507812 329.558594 C 659.507812 283.371094 697.09375 245.886719 743.21875 245.886719 Z M 743.21875 245.886719"/></svg>