<svg xmlns="http://www.w3.org/2000/svg" width="1440" viewBox="0 0 1440 810" height="810" version="1.0"><defs><clipPath id="a"><path d="M 593.460938 202.128906 L 846.210938 202.128906 L 846.210938 505.878906 L 593.460938 505.878906 Z M 593.460938 202.128906"/></clipPath><clipPath id="b"><path d="M 656 544 L 782 544 L 782 614 L 656 614 Z M 656 544"/></clipPath><clipPath id="c"><path d="M 795.21875 579.503906 L 737.03125 659.59375 L 644.800781 592.585938 L 702.992188 512.496094 Z M 795.21875 579.503906"/></clipPath><clipPath id="d"><path d="M 795.21875 579.503906 L 737.03125 659.59375 L 644.800781 592.585938 L 702.992188 512.496094 Z M 795.21875 579.503906"/></clipPath></defs><path fill="#FFF" d="M 719.722656 749.71875 C 627.613281 749.71875 540.882812 713.867188 475.800781 648.648438 C 410.578125 583.5625 374.730469 496.832031 374.730469 404.722656 C 374.730469 312.613281 410.578125 225.882812 475.800781 160.800781 C 540.882812 95.578125 627.613281 59.730469 719.722656 59.730469 C 811.832031 59.730469 898.5625 95.578125 963.648438 160.800781 C 1028.867188 226.023438 1064.71875 312.613281 1064.71875 404.722656 C 1064.71875 496.832031 1028.867188 583.5625 963.648438 648.648438 C 898.5625 713.867188 811.832031 749.71875 719.722656 749.71875 Z M 719.722656 80.414062 C 633.128906 80.414062 551.640625 114.195312 490.417969 175.417969 C 429.195312 236.640625 395.414062 318.128906 395.414062 404.722656 C 395.414062 491.316406 429.195312 572.808594 490.417969 634.03125 C 551.640625 695.253906 633.128906 729.035156 719.722656 729.035156 C 806.316406 729.035156 887.808594 695.253906 949.03125 634.03125 C 1010.253906 572.808594 1044.035156 491.316406 1044.035156 404.722656 C 1044.035156 318.128906 1010.253906 236.640625 949.03125 175.417969 C 887.808594 114.195312 806.316406 80.414062 719.722656 80.414062 Z M 719.722656 80.414062"/><path fill="#FFF" d="M 719.796875 659.445312 C 651.808594 659.445312 587.789062 632.984375 539.75 584.84375 C 491.609375 536.800781 465.148438 472.785156 465.148438 404.796875 C 465.148438 336.808594 491.609375 272.789062 539.75 224.75 C 587.789062 176.609375 651.808594 150.148438 719.796875 150.148438 C 787.785156 150.148438 851.800781 176.609375 899.84375 224.75 C 947.984375 272.890625 974.445312 336.808594 974.445312 404.796875 C 974.445312 472.785156 947.984375 536.800781 899.84375 584.84375 C 851.800781 632.984375 787.785156 659.445312 719.796875 659.445312 Z M 719.796875 165.414062 C 655.878906 165.414062 595.730469 190.351562 550.539062 235.539062 C 505.351562 280.730469 480.414062 340.878906 480.414062 404.796875 C 480.414062 468.714844 505.351562 528.863281 550.539062 574.054688 C 595.730469 619.242188 655.878906 644.179688 719.796875 644.179688 C 783.714844 644.179688 843.863281 619.242188 889.054688 574.054688 C 934.242188 528.863281 959.179688 468.714844 959.179688 404.796875 C 959.179688 340.878906 934.242188 280.730469 889.054688 235.539062 C 843.863281 190.351562 783.714844 165.414062 719.796875 165.414062 Z M 719.796875 165.414062"/><g clip-path="url(#a)"><path fill="#FF8400" d="M 593.460938 398.367188 C 593.460938 369.570312 601.238281 346.222656 613.683594 328.320312 C 613.683594 363.734375 622.238281 376.183594 640.902344 376.183594 C 653.34375 376.183594 666.175781 366.847656 666.175781 350.890625 C 666.175781 336.492188 656.457031 310.421875 656.457031 282.402344 C 656.457031 254.386719 665.789062 224.421875 703.894531 202.242188 C 695.339844 224.8125 691.839844 243.878906 691.839844 259.445312 C 691.839844 300.691406 716.726562 319.371094 738.890625 319.371094 C 756.777344 319.371094 775.441406 307.699219 775.441406 273.84375 C 787.496094 287.074219 792.941406 302.25 792.941406 317.425781 C 792.941406 341.550781 779.71875 362.953125 779.71875 382.410156 C 779.71875 398.367188 792.550781 407.707031 804.996094 407.707031 C 827.160156 407.707031 833.769531 387.859375 833.769531 355.171875 C 840.378906 366.457031 846.210938 388.636719 846.210938 407.707031 C 846.210938 464.519531 792.550781 505.769531 732.667969 505.769531 C 783.21875 486.699219 792.550781 461.40625 792.550781 433 C 780.109375 455.179688 767.277344 458.292969 761.054688 458.292969 C 722.949219 458.292969 764.164062 385.523438 697.671875 334.9375 C 708.558594 358.285156 712.835938 378.519531 712.835938 394.863281 C 712.835938 429.886719 693.785156 448.953125 675.507812 448.953125 C 659.953125 448.953125 644.402344 436.5 638.179688 410.039062 C 638.179688 447.007812 649.066406 482.03125 697.671875 505.769531 C 621.847656 493.316406 593.460938 445.839844 593.460938 398.367188 Z M 593.460938 398.367188"/></g><g clip-path="url(#b)"><g clip-path="url(#c)"><g clip-path="url(#d)"><path fill="#FF8400" d="M 776.09375 605.738281 C 776.597656 605.042969 777.097656 604.3125 777.621094 603.492188 C 780.335938 599.257812 780.902344 593.492188 781 590.433594 C 781.15625 585.488281 780.371094 580.632812 778.847656 577.113281 C 775.675781 569.777344 768.28125 561.867188 765.394531 559.386719 C 753.921875 549.511719 735.898438 544.261719 715.949219 544.976562 C 696.847656 545.660156 679.054688 551.796875 668.355469 561.394531 C 666.78125 562.804688 665.316406 564.441406 663.992188 566.257812 C 657.421875 575.304688 656.015625 586.367188 656.246094 589.371094 C 656.421875 591.691406 658.015625 601.777344 662.09375 605.058594 C 663.304688 606.03125 664.75 606.460938 666.167969 606.261719 C 670.253906 605.695312 676.757812 604.003906 683.050781 602.371094 C 688.3125 601.003906 693.753906 599.585938 696.589844 599.171875 C 699.207031 598.792969 702.109375 598.097656 703.765625 595.8125 C 705.589844 593.304688 704.96875 590.414062 704.3125 587.355469 L 704.300781 587.296875 C 703.835938 585.117188 702.46875 582.179688 700.003906 579.371094 C 703.980469 578.285156 709.613281 577.023438 715.546875 576.328125 C 725.453125 575.167969 733.253906 575.929688 738.082031 578.46875 C 737.355469 579.246094 736.789062 579.914062 736.320312 580.554688 C 733.503906 584.433594 734.746094 587.527344 736.132812 590.117188 C 737.421875 592.535156 740.828125 595.378906 753.640625 605.878906 C 755.589844 607.476562 757.722656 609.222656 760.046875 611.136719 C 761.910156 612.664062 764.078125 613.324219 766.320312 613.042969 C 769.625 612.632812 772.824219 610.238281 776.09375 605.738281 Z M 773.066406 603.539062 C 770.339844 607.292969 766.238281 611.40625 762.414062 608.261719 C 747.585938 596.070312 740.601562 590.578125 739.425781 588.375 C 738.148438 585.988281 737.875 584.785156 739.347656 582.753906 C 740.195312 581.589844 741.617188 580.152344 743.761719 578.0625 C 731.40625 565.390625 694.714844 576.515625 692.578125 577.941406 C 697.316406 580.867188 700.042969 585.21875 700.648438 588.0625 C 701.210938 590.695312 701.59375 592.4375 700.742188 593.613281 C 700.078125 594.527344 698.671875 595.097656 696.035156 595.480469 C 689.628906 596.417969 673.011719 601.546875 665.632812 602.570312 C 662.824219 602.960938 660.304688 593.527344 659.96875 589.101562 C 659.769531 586.511719 661.25 576.402344 667.019531 568.457031 C 668.132812 566.925781 669.40625 565.472656 670.859375 564.171875 C 691.785156 545.40625 739.878906 542.34375 762.964844 562.207031 C 765.960938 564.78125 772.675781 572.234375 775.417969 578.578125 C 778.105469 584.78125 777.976562 596.007812 774.472656 601.472656 C 774.0625 602.113281 773.589844 602.816406 773.066406 603.539062"/></g></g></g></svg>